<svg xmlns="http://www.w3.org/2000/svg" fill="none" viewBox="0 0 600 601"><rect width="600" height="600" y=".292" fill="#BEF2BD" rx="12"/><path fill="#000" d="M273.899 199.743a218.033 218.033 0 0 0-30.446 12.819 133.806 133.806 0 0 0-56.886 67.302c0 .801-.801 1.602-.801 2.404-5.608 19.229-4.807 16.024 10.416 18.428 15.223 2.403 8.012 4.006 8.012 10.415-.801 70.507 32.85 120.983 91.338 157.038a12.018 12.018 0 0 0 13.621 1.602c45.669-20.831 74.512-56.085 82.524-105.76a8.01 8.01 0 0 1 8.012-8.012l24.037-1.602c6.409 0 10.416 1.602 9.614 9.614a143.423 143.423 0 0 1-25.638 73.712 189.89 189.89 0 0 1-87.333 72.91 43.269 43.269 0 0 1-36.054-1.603 210.724 210.724 0 0 1-68.103-52.879 207.513 207.513 0 0 1-51.277-115.375c0-4.807-1.603-5.608-6.41-6.41-20.03-3.204-20.03-.801-18.428-23.235a154.633 154.633 0 0 1 86.531-133.001 312.43 312.43 0 0 1 45.669-16.825 16.825 16.825 0 0 0 7.211-10.416 112.968 112.968 0 0 1 28.042-50.476l2.404-2.404c15.223-16.024 20.831-16.024 34.452 1.602l3.205 4.007c8.813 8.813 8.012 12.018-.802 20.831a95.354 95.354 0 0 0-25.638 35.253 135.415 135.415 0 0 1 60.091 18.428c45.669 28.043 73.711 66.501 79.319 120.182.133 7.22-.134 14.442-.801 21.633 0 6.409-4.807 8.012-9.614 9.614a129.002 129.002 0 0 1-88.134-5.608A143.414 143.414 0 0 1 274.7 214.966a78.557 78.557 0 0 1-.801-15.223Zm145.019 97.748c3.205-44.067-55.283-100.953-104.157-96.947 4.006 52.079 60.892 102.555 104.157 96.947Z"/></svg>