<svg xmlns="http://www.w3.org/2000/svg" fill="none" viewBox="0 0 48 49"><path fill="currentColor" fill-rule="evenodd" d="M5.447 24.816c-.382-.465-1.828-1.476-2.108-2.54-.3-1.139.304-4.293.304-4.293l.671-.047s.3.473.498.666c.515.503 2.035 1.584 2.589 2.347.46.634.552 1.858.732 2.23.05.106.35.01.35.01s7.752 10.084 10.698 15.895c0 0 .366.934-.081 1.32-.447.387-1.829-.487-1.829-.487S8.128 30.143 5.628 25.064c0 0-.116-.17-.181-.248Zm2.424-.685-1.144.959c.077.143.158.29.244.438l1.266-1.071-.22-.29a.673.673 0 0 1-.146-.036Zm-.678-.714a8.431 8.431 0 0 1-.204-.792c-.083-.37-.162-.825-.369-1.11-.463-.638-1.645-1.498-2.26-2.024-.129.883-.237 1.98-.09 2.539.102.384.445.737.766 1.058.437.436.88.809 1.105 1.058l1.052-.729Zm.21 2.831a42.11 42.11 0 0 0 1.818 2.644l1.47-1.12a222.586 222.586 0 0 0-1.93-2.619l-1.357 1.095Zm2.45 3.486c3.197 4.192 7.272 8.61 8.006 9.4l.341.15c-1.629-3.14-4.573-7.434-6.927-10.708l-1.42 1.158ZM19.263 23.987c-.956.18-2.887 1.384-4.376 1.832-.805.242-1.506.254-1.963-.026-.569-.349-1.028-1.09-1.304-2.069-.373-1.319-.44-3.08-.154-4.7.474-2.681 3.07-7.032 7.11-8.96 3.949-1.883 8.821-2.73 13.877-2.582 3.093.091 5.885 1.392 7.819 2.861 1.324 1.006 2.246 2.097 2.62 2.935.914 2.049 2.888 5.505-.532 11.158-3.371 5.571-9.616 8.697-12.658 9.18-1.805.288-5.13 1.084-7.719.855-1.925-.171-3.447-.912-3.897-2.622-.46-1.751.092-2.515 2.194-4.968.046-.057.577-.722.838-1.485.148-.435.23-.911-.044-1.282-.244-.331-.566-.353-.886-.314-.314.038-.632.132-.925.187Zm-.178-.948c.403-.076.85-.209 1.276-.218.547-.01 1.068.15 1.489.72.463.63.432 1.43.18 2.166-.328.96-1.008 1.79-1.008 1.79l-.007.008c-.756.882-1.303 1.515-1.658 2.058-.46.701-.552 1.228-.338 2.04.344 1.31 1.575 1.776 3.05 1.907 2.509.223 5.731-.567 7.481-.846 2.884-.459 8.79-3.445 11.985-8.727 3.147-5.201 1.317-8.381.476-10.266-.328-.736-1.159-1.676-2.323-2.56-1.797-1.366-4.389-2.58-7.264-2.665-4.893-.144-9.61.666-13.432 2.489-3.73 1.778-6.14 5.782-6.576 8.257-.26 1.472-.207 3.072.132 4.27.197.7.474 1.26.88 1.51.161.098.383.089.637.051.353-.052.754-.184 1.175-.35 1.405-.554 2.998-1.475 3.845-1.634Z" clip-rule="evenodd"/><path fill="currentColor" fill-rule="evenodd" d="M17.469 16.047c.597.1 1.023.53 1.284.986.084.148.186.49.248.648.066.171.049.354.072.536.11.838-.284 1.559-.924 2.024-.418.303-1.056.523-1.624.436-.57-.086-1.073-.593-1.273-1.061-.111-.26-.123-.703-.143-.992-.052-.746.213-1.495.723-1.979.358-.34 1.065-.692 1.637-.598Zm-.158.951c-.29-.048-.633.173-.815.346-.311.295-.457.758-.425 1.213.013.198-.008.503.068.68.087.204.283.45.531.487.32.049.676-.093.913-.264.357-.259.595-.651.534-1.119a1.99 1.99 0 0 1-.012-.227c0-.029.008-.058-.003-.084-.049-.126-.119-.401-.186-.519-.128-.223-.312-.464-.605-.512ZM23.868 11.533c.598.099 1.024.53 1.284.985.085.148.187.49.248.649.067.17.05.354.073.536.109.838-.284 1.558-.925 2.023-.418.303-1.056.523-1.623.437-.57-.087-1.073-.593-1.274-1.062-.11-.26-.122-.702-.143-.991-.052-.746.214-1.495.723-1.98.359-.34 1.065-.692 1.637-.597Zm-.157.951c-.291-.048-.634.173-.816.346-.31.295-.456.758-.425 1.213.014.197-.008.502.068.68.087.203.284.449.532.487.32.048.676-.093.912-.264.357-.26.596-.652.535-1.119a1.99 1.99 0 0 1-.012-.227c0-.029.007-.058-.003-.085-.05-.126-.12-.4-.186-.518-.128-.223-.313-.464-.605-.513ZM31.843 10.787c.552.363.785.965.849 1.517.02.182-.026.562-.033.745-.008.196-.106.366-.162.554-.255.86-.964 1.38-1.813 1.538-.545.101-1.272.027-1.798-.309-.529-.337-.805-1.047-.803-1.582.001-.304.184-.74.29-1.03.274-.748.868-1.355 1.595-1.591.5-.163 1.35-.187 1.875.158Zm-.529.806c-.293-.192-.769-.138-1.048-.048-.455.149-.816.538-.987 1.006-.074.201-.231.493-.232.703-.001.255.106.605.358.766.322.205.77.235 1.103.173.49-.09.918-.369 1.065-.865.023-.078.055-.153.087-.227.013-.03.035-.057.036-.09.005-.147.055-.45.038-.597-.034-.293-.127-.628-.42-.82ZM38.787 13.714c.552.362.786.965.85 1.516.02.183-.026.563-.034.745-.007.197-.106.367-.162.554-.255.86-.964 1.381-1.813 1.539-.545.101-1.272.027-1.798-.31-.529-.337-.805-1.046-.803-1.581.001-.304.184-.74.29-1.03.274-.748.868-1.355 1.595-1.592.5-.162 1.35-.186 1.875.159Zm-.529.806c-.293-.192-.769-.139-1.047-.048-.456.148-.817.538-.988 1.006-.074.2-.231.492-.232.703 0 .255.106.604.358.765.322.206.77.236 1.103.174.49-.091.918-.369 1.065-.865.023-.078.055-.153.087-.227.014-.03.035-.057.036-.09.006-.147.055-.45.038-.597-.033-.293-.127-.629-.42-.821ZM27.686 21.228c.716.464 1.02 1.228 1.111 1.92.032.24-.026.735-.032.974-.006.251-.136.465-.206.704-.317 1.089-1.233 1.738-2.338 1.922-.705.118-1.649.015-2.337-.42-.68-.429-1.038-1.32-1.045-1.987-.005-.393.235-.951.37-1.326.346-.951 1.112-1.721 2.063-2.01.64-.195 1.731-.22 2.414.223Zm-.524.81c-.454-.295-1.183-.24-1.61-.111-.666.203-1.194.75-1.436 1.417-.102.282-.317.691-.313.987.004.393.194.93.596 1.182.489.309 1.162.368 1.663.285.73-.123 1.361-.521 1.571-1.242.03-.099.07-.193.11-.287.024-.056.057-.109.059-.171.005-.202.066-.62.04-.823-.06-.44-.224-.942-.68-1.238Z" clip-rule="evenodd"/></svg>