<svg xmlns="http://www.w3.org/2000/svg" fill="none" viewBox="0 0 48 49"><path fill="currentColor" fill-rule="evenodd" d="M38.894 13.184c.276-.124.507-.265.664-.4l.77-.658 1.318 1.542-.771.659c-.725.62-2.436 1.372-4.031 1.233a90.91 90.91 0 0 0-1.728-.132c.032 1.206.028 2.344-.064 2.94-.235 1.527-1.355 4.765-4.382 6.029-2.199.918-3.055.914-5.363.774.162 4.318-2.269 7.585-4.408 9.143-1.125.82-2.49 1.159-4.031 1.235-.635.032-1.302.02-1.994-.015l.012.192c.21 3.51-1.415 5.748-1.415 5.748l-.588.826-1.653-1.176.588-.826s.244-.352.497-.985l-3.347-3.447c-.667.254-1.04.508-1.04.508l-.831.58-1.161-1.662.83-.581s2.253-1.606 5.761-1.365l.192.014c-.028-.693-.035-1.36.002-1.994.09-1.541.442-2.902 1.271-4.02 1.577-2.125 4.865-4.527 9.181-4.328-.12-2.309-.115-3.165.822-5.356 1.29-3.015 4.538-4.107 6.068-4.328.596-.087 1.733-.081 2.94-.038a91.466 91.466 0 0 0-.117-1.73c-.125-1.595.642-3.3 1.268-4.02l.666-.765 1.53 1.331-.665.765c-.127.146-.26.357-.382.61l3.591 3.697Zm-.831.276-3.054-3.145a3.5 3.5 0 0 0-.1 1.093c.033.43.081 1.155.124 1.988.833.05 1.558.106 1.987.143.348.03.705-.004 1.043-.079ZM16.979 33.511l-2.215-2.282c-.007.085-.013.17-.018.256-.037.639-.026 1.313.006 2.014.701.039 1.376.056 2.015.025l.212-.013Zm14.618-12.236c.638-.737 1.024-1.603 1.243-2.322l-.044.043-3.351-3.451c-.703.208-1.543.573-2.27 1.176l4.422 4.554Zm-8.346 7.768c-.749 1.869-2.01 3.297-3.173 4.144-.912.665-2.029.908-3.28.97-.639.032-1.312.016-2.012-.021l.048.762c.695.035 1.365.05 2.002.018 1.41-.07 2.661-.366 3.69-1.115 2.015-1.468 4.305-4.549 4.147-8.62l-.002-.049a74.102 74.102 0 0 0-.068-1.397l-.037-.636c-.08-1.384-.118-2.2.113-3.171.024-.105.053-.212.084-.321.118-.411.284-.86.513-1.396.873-2.039 2.859-2.974 4.227-3.339a7.207 7.207 0 0 1 .76-.159c.57-.082 1.657-.073 2.81-.028-.011-.255-.023-.509-.036-.757-1.183-.044-2.299-.051-2.883.033-1.403.204-4.393 1.186-5.576 3.95-.9 2.104-.892 2.932-.771 5.14l.035.637a117.036 117.036 0 0 1 .072 1.521 9.272 9.272 0 0 1-.663 3.834Zm-6.828-1.407a7.998 7.998 0 0 0-.802.919c-.368.495-.589 1.062-.72 1.684l3.06 3.15c.643-.123 1.23-.34 1.744-.714.29-.212.589-.463.882-.751l-4.164-4.288Zm-3.402 11.6c-.322.914-.686 1.43-.686 1.43l-.22.31.619.44.22-.31s1.494-2.082 1.299-5.342l-.017-.266-.04-.637a111.331 111.331 0 0 1-.08-1.4c-.03-.7-.04-1.374-.003-2.013.016-.277.04-.547.077-.809.026-.188.058-.372.097-.553.151-.705.407-1.347.824-1.91.245-.328.536-.665.87-.995a9.836 9.836 0 0 1 3.837-2.332 9.27 9.27 0 0 1 3.427-.432l-.038-.762-.048-.003c-4.07-.193-7.172 2.069-8.658 4.072-.758 1.021-1.064 2.27-1.147 3.68a20.107 20.107 0 0 0 0 2.002c.01.21.02.423.032.638.014.252.03.507.046.765l.04.638.022.363a8.738 8.738 0 0 1-.473 3.426Zm-3.715-4.155a8.747 8.747 0 0 1 3.125-.344l.363.026a94.64 94.64 0 0 1-.045-.765 97.716 97.716 0 0 0-.266-.019c-3.257-.224-5.353 1.252-5.353 1.252l-.311.217.435.623.311-.217s.631-.437 1.73-.77c.004 0 .008-.002.01-.003Zm7.702-7.974 4.117 4.24a9.186 9.186 0 0 0 1.509-2.466l-3.147-3.24a9.18 9.18 0 0 0-2.479 1.466Zm16.03-8.993.01-.055c.085-.556.084-1.617.048-2.743-1.125-.046-2.186-.056-2.742.025h-.007l2.692 2.773Zm-7.758 6.423c2.207.14 3.035.156 5.146-.726 2.775-1.158 3.784-4.14 4-5.54.09-.584.092-1.7.058-2.883a65.59 65.59 0 0 0-.054-1.394 99.664 99.664 0 0 0-.154-2.536c-.094-1.188.464-2.46.93-2.997l.25-.286-.574-.499-.25.287c-.552.636-1.224 2.144-1.114 3.554a86.9 86.9 0 0 1 .21 3.829c.035 1.153.034 2.24-.054 2.81-.192 1.248-1.068 3.922-3.54 4.954-2.01.839-2.803.808-4.895.668.014.236.027.488.04.76Zm9.785-10.505c.01.25.021.505.03.76.756.05 1.41.101 1.804.136 1.41.123 2.923-.536 3.564-1.083l.289-.247-.494-.578-.288.247c-.54.461-1.818 1.008-3.005.904a83.859 83.859 0 0 0-1.9-.14ZM12.596 38.47a8.153 8.153 0 0 0 .265-2.623l-.027-.446-.446-.031a8.154 8.154 0 0 0-2.579.23l2.787 2.87Zm15.219-15.312-2.599-2.677c-.129.781-.086 1.52-.016 2.662 1.119.08 1.85.128 2.615.015Zm.901-.204c.35-.104.73-.244 1.173-.429a4.463 4.463 0 0 0 1.146-.697l-4.425-4.557c-.297.339-.555.733-.75 1.19-.18.418-.318.782-.423 1.115l3.28 3.378Zm-8.401 2.407 2.612 2.69c.256-.859.392-1.802.353-2.817l-.007-.18-.18-.01a8.656 8.656 0 0 0-2.778.317Z" clip-rule="evenodd"/></svg>