<svg xmlns="http://www.w3.org/2000/svg" fill="none" viewBox="0 0 48 49"><path fill="currentColor" fill-rule="evenodd" d="M22.54 14.507a.334.334 0 0 1-.002-.039l.127-5.63a.346.346 0 0 1 .353-.338l9.989.195c.19.004.34.158.34.348l-.055 11.305c1.105.196 4.916 1.098 7.115 4.438.106.146 1.593 2.243 1.593 5.096 0 2.959-1.203 5.505-3.03 6.898-1.801 1.372-4.662 2.682-6.978 2.825-2.218.137-3.314.113-3.367.112L9.093 39.41a.33.33 0 0 1-.017 0s-.752-.048-1.49-.41c-.52-.254-1.027-.66-1.296-1.288-.627-1.464-.135-3.432.506-4.527.48-.82 1.059-1.308 1.588-1.963l6.268-7.752.026-5.501-2.745-2.96a.346.346 0 0 1 .257-.582l10.35.08ZM34.2 37.437c-.111.428-.32.856-.679 1.22 1.808-.456 3.715-1.427 5.028-2.428 1.679-1.279 2.758-3.63 2.758-6.347 0-2.718-1.462-4.69-1.462-4.69a.302.302 0 0 1-.012-.017c-2.417-3.678-6.928-4.187-6.928-4.187a.346.346 0 0 1-.308-.346l.054-11.261-9.303-.182-.118 5.285a.347.347 0 0 1-.005.051l1.47.13c.174.016.31.16.315.335l.245 8.125c0 .019 0 .038-.003.057 0 0 .036.819 1.08 2.224l12.58.135s1.425 2.365 1.286 5.148c-.139 2.782-1.832 4.83-2.91 5.456-1.01.586-2.586 1.267-3.088 1.292Zm-2.218 1.474c.141-.05.219-.043.32-.081 1.141-.43 1.306-1.503 1.315-2.244.006-.46-.083-.846-.148-.977l-7.608-9.678-.003-.004c-1.306-1.712-1.313-2.614-1.296-2.808l-.235-7.79-1.417-.126-9.925-.078 2.293 2.473c.06.065.093.15.092.237l-.027 5.76a.347.347 0 0 1-.077.216s-5.027 6.22-6.345 7.847c-.507.627-1.067 1.09-1.528 1.877-.554.945-1.009 2.64-.467 3.904.198.463.58.752.963.939a3.72 3.72 0 0 0 1.224.34l19.523.306h.003s1.076.027 3.31-.11l.033-.003Z" clip-rule="evenodd"/><path fill="currentColor" fill-rule="evenodd" d="M26.203 22.882a.346.346 0 0 1 .023-.692l2.507.084a.346.346 0 0 1-.023.692l-2.507-.084ZM26.203 18.778a.346.346 0 0 1 .023-.692l2.507.083a.346.346 0 0 1-.023.692l-2.507-.083ZM26.377 15.022a.346.346 0 0 1 .023-.693l2.507.084a.346.346 0 0 1-.023.692l-2.507-.083ZM26.62 11.474a.346.346 0 0 1 .023-.693l2.507.084a.346.346 0 0 1-.023.692l-2.507-.083ZM18.067 17.435a.346.346 0 0 1 .023-.692l3.13.105a.346.346 0 0 1-.023.692l-3.13-.105ZM17.789 21.261a.346.346 0 0 1 .023-.692l3.13.104a.346.346 0 0 1-.023.693l-3.13-.105ZM17.789 24.774a.346.346 0 0 1 .023-.692l3.13.104a.346.346 0 0 1-.023.692l-3.13-.104ZM17.475 28.113a.346.346 0 0 1 .023-.692l3.13.105a.346.346 0 0 1-.022.692l-3.13-.105ZM17.475 31.765a.346.346 0 0 1 .023-.692l3.13.105a.346.346 0 0 1-.022.692l-3.13-.105ZM17.475 34.93a.346.346 0 0 1 .023-.692l3.13.105a.346.346 0 0 1-.022.692l-3.13-.105Z" clip-rule="evenodd"/></svg>