<svg xmlns="http://www.w3.org/2000/svg" fill="none" viewBox="0 0 48 49"><path fill="currentColor" fill-rule="evenodd" d="M34.378 19.131a2.027 2.027 0 0 1 0 4.053 2.027 2.027 0 0 1 0-4.053Zm0 .789a1.238 1.238 0 1 0 .001 2.476 1.238 1.238 0 0 0-.001-2.476Z" clip-rule="evenodd"/><path fill="currentColor" fill-rule="evenodd" d="m34.76 9.882 1.272 3.454c.016.043.024.09.024.136v1.697l2.406 2.98.003.41v5.625a.394.394 0 0 1-.394.394h-.208v17.005a.394.394 0 0 1-.395.395H31.32a.403.403 0 0 1-.032 0H16.171a.422.422 0 0 1-.032 0h-5.736a.394.394 0 0 1-.394-.395v-14.61c0-.084-.028-.162.016-.226l.08-4.424.86.018-.073 3.357 1.017-1.599c.07-.11.19-.178.32-.182l2.188-.064a.394.394 0 0 1 .347.187l1.022 1.655.025-3.556.789.006-.031 4.434h8.626l.064-4.316.788.011-.049 3.328.873-1.319a.394.394 0 0 1 .329-.176h2.504c.129 0 .25.063.323.169l.899 1.288v-.986h-.398a.394.394 0 0 1-.395-.394V18.271a.385.385 0 0 1 .013-.08l2.333-3.197.092-.126-.029-1.515a.397.397 0 0 1 .029-.155L34 9.656V7.5h.789v2.232c0 .051-.01.101-.03.148v.002ZM11.265 26.579h4.14l-1.194-1.93-1.75.05-1.196 1.88Zm24.038-11.102-2.184-.023-1.782 2.441h5.936l-1.917-2.334a.398.398 0 0 1-.053-.084Zm-1.966-1.737.018.928 1.911.02v-.948h-1.929Zm-1.624 13.42v14.029h5.36V24.515h-5.36v2.645Zm-6.556.207h-8.592V41.19h8.592V27.367Zm-9.413 0h-4.947V41.19h4.947V27.367ZM34.32 10.97l-.8 1.981h1.53l-.73-1.98Zm3.356 12.82v-5.106h-6.754v5.106h6.754Zm-11.73 17.399h4.948V27.367h-4.948V41.19Zm.351-14.61h4.375l-1.174-1.684h-2.086l-1.115 1.684Z" clip-rule="evenodd"/><path fill="currentColor" fill-rule="evenodd" d="M11.57 28.68c0-.073.059-.132.131-.132h.527a.13.13 0 0 1 .131.131v1.888a.13.13 0 0 1-.13.13H11.7a.131.131 0 0 1-.13-.13v-1.888ZM12.973 28.607a.13.13 0 0 1 .13-.131h.527c.073 0 .131.059.131.13v1.888a.131.131 0 0 1-.13.131h-.527a.13.13 0 0 1-.131-.13v-1.888ZM14.344 28.461a.13.13 0 0 1 .13-.13h.528a.13.13 0 0 1 .13.13v1.888a.13.13 0 0 1-.13.13h-.527a.13.13 0 0 1-.131-.13V28.46ZM17.542 28.742a.131.131 0 0 1 .13-.131h.528a.13.13 0 0 1 .13.13v1.784a.13.13 0 0 1-.13.131h-.527a.13.13 0 0 1-.131-.13v-1.784ZM20.605 28.555a.13.13 0 0 1 .131-.131h.527a.13.13 0 0 1 .131.13v1.96a.13.13 0 0 1-.13.132h-.528a.13.13 0 0 1-.13-.131v-1.96ZM23.18 28.68a.131.131 0 0 1 .132-.131h.526a.13.13 0 0 1 .131.13v1.826a.13.13 0 0 1-.13.13h-.527a.13.13 0 0 1-.131-.13v-1.826ZM23.046 32.49a.13.13 0 0 1 .13-.13h.528a.13.13 0 0 1 .13.13v1.888a.13.13 0 0 1-.13.13h-.527a.13.13 0 0 1-.131-.13V32.49ZM20.648 32.49a.13.13 0 0 1 .13-.13h.527a.13.13 0 0 1 .131.13v1.65a.13.13 0 0 1-.13.13h-.528a.13.13 0 0 1-.13-.13v-1.65ZM17.531 32.584a.131.131 0 0 1 .131-.13h.527a.131.131 0 0 1 .131.13v1.763a.131.131 0 0 1-.13.13h-.528a.13.13 0 0 1-.13-.13v-1.763ZM17.49 36.665a.132.132 0 0 1 .131-.13h.527a.132.132 0 0 1 .131.13v1.763a.131.131 0 0 1-.131.13h-.527a.131.131 0 0 1-.13-.13v-1.763ZM20.585 36.582a.131.131 0 0 1 .13-.13h.528a.131.131 0 0 1 .13.13v1.763a.131.131 0 0 1-.13.13h-.527a.131.131 0 0 1-.131-.13v-1.763ZM23.16 36.5a.13.13 0 0 1 .131-.132h.527a.13.13 0 0 1 .13.131v1.887a.13.13 0 0 1-.13.131h-.527a.13.13 0 0 1-.13-.13v-1.888ZM29.277 36.634a.13.13 0 0 1 .131-.13h.527a.13.13 0 0 1 .131.13v1.888a.13.13 0 0 1-.13.13h-.528a.13.13 0 0 1-.13-.13v-1.888ZM27.947 32.813c0-.073.059-.131.131-.131h.527c.072 0 .131.058.131.13V34.7c0 .072-.059.13-.13.13h-.528a.131.131 0 0 1-.13-.13v-1.888ZM27.906 36.863a.131.131 0 0 1 .131-.131h.527a.131.131 0 0 1 .131.13v1.753a.13.13 0 0 1-.13.13h-.528a.13.13 0 0 1-.13-.13v-1.752ZM26.442 36.759a.13.13 0 0 1 .131-.131h.527a.131.131 0 0 1 .131.13v1.753a.13.13 0 0 1-.13.131h-.528a.131.131 0 0 1-.13-.13v-1.753ZM26.474 32.937a.132.132 0 0 1 .13-.13h.527a.132.132 0 0 1 .131.13v1.752a.131.131 0 0 1-.13.131h-.527a.132.132 0 0 1-.131-.13v-1.753ZM29.38 32.782a.13.13 0 0 1 .132-.131h.527a.131.131 0 0 1 .13.13v1.753a.131.131 0 0 1-.13.13h-.527a.131.131 0 0 1-.131-.13v-1.752ZM29.599 28.846a.131.131 0 0 1 .13-.131h.527a.131.131 0 0 1 .131.13v1.753a.13.13 0 0 1-.13.13h-.527a.131.131 0 0 1-.131-.13v-1.752ZM28.249 28.856a.131.131 0 0 1 .131-.13h.527a.13.13 0 0 1 .13.13v1.752a.13.13 0 0 1-.13.131h-.527a.131.131 0 0 1-.131-.13v-1.753ZM26.764 28.794a.13.13 0 0 1 .13-.131h.528a.131.131 0 0 1 .13.13v1.753a.13.13 0 0 1-.13.131h-.527a.131.131 0 0 1-.131-.13v-1.753ZM32.35 29.552a.13.13 0 0 1 .131-.131h.527a.13.13 0 0 1 .131.13v2.21a.13.13 0 0 1-.13.131h-.528a.13.13 0 0 1-.13-.13v-2.21ZM32.453 25.08a.132.132 0 0 1 .131-.13h.527a.131.131 0 0 1 .13.13v2.067a.131.131 0 0 1-.13.13h-.527a.132.132 0 0 1-.13-.13V25.08ZM34.14 24.965a.13.13 0 0 1 .132-.131h.526a.13.13 0 0 1 .131.13v2.162a.13.13 0 0 1-.13.131h-.527a.13.13 0 0 1-.131-.13v-2.162ZM35.625 24.992a.13.13 0 0 1 .13-.131h.528a.13.13 0 0 1 .13.13v2.162a.13.13 0 0 1-.13.131h-.527a.13.13 0 0 1-.131-.13v-2.162ZM34.054 29.49a.13.13 0 0 1 .13-.132h.528a.13.13 0 0 1 .13.131v2.21a.13.13 0 0 1-.13.13h-.527a.13.13 0 0 1-.131-.13v-2.21ZM35.612 29.469c0-.073.059-.131.131-.131h.527c.072 0 .131.058.131.13v2.21c0 .072-.059.13-.13.13h-.528a.131.131 0 0 1-.13-.13v-2.21ZM35.435 34.194c0-.072.06-.131.131-.131h.527c.073 0 .131.059.131.131v2.604c0 .072-.058.13-.13.13h-.528a.131.131 0 0 1-.13-.13v-2.604ZM32.33 34.173c0-.072.059-.13.131-.13h.527c.072 0 .13.058.13.13v2.51a.13.13 0 0 1-.13.132h-.527a.13.13 0 0 1-.13-.131v-2.51ZM33.992 34.1a.13.13 0 0 1 .131-.13h.527a.13.13 0 0 1 .13.13v2.51a.131.131 0 0 1-.13.132h-.527a.131.131 0 0 1-.13-.131V34.1ZM14.292 32.325a.13.13 0 0 1 .13-.131h.528a.13.13 0 0 1 .13.13v2.054c0 .072-.058.131-.13.131h-.527a.131.131 0 0 1-.131-.13v-2.054ZM12.973 32.19a.13.13 0 0 1 .13-.131h.527a.131.131 0 0 1 .131.13v2.22a.13.13 0 0 1-.13.131h-.527a.13.13 0 0 1-.131-.13v-2.22ZM11.57 32.553a.132.132 0 0 1 .131-.13h.527a.131.131 0 0 1 .131.13v1.825a.13.13 0 0 1-.13.131H11.7a.131.131 0 0 1-.13-.13v-1.826ZM11.581 36.614a.13.13 0 0 1 .131-.131h.527a.13.13 0 0 1 .13.13v2.085a.13.13 0 0 1-.13.131h-.527a.13.13 0 0 1-.13-.13v-2.085ZM13.024 36.686a.13.13 0 0 1 .131-.13h.527a.13.13 0 0 1 .131.13v1.846a.13.13 0 0 1-.13.13h-.528a.13.13 0 0 1-.13-.13v-1.846ZM14.447 36.655a.13.13 0 0 1 .131-.13h.527a.13.13 0 0 1 .131.13v1.846a.13.13 0 0 1-.13.13h-.528a.13.13 0 0 1-.13-.13v-1.846Z" clip-rule="evenodd"/></svg>