<svg xmlns="http://www.w3.org/2000/svg" fill="none" viewBox="0 0 48 49"><path fill="currentColor" fill-rule="evenodd" d="M25.88 26.92a8.73 8.73 0 0 1-1.132-1.518 1.936 1.936 0 0 1-.358.02c-.422-.02-.893-.192-1.12-.76-.175-.436-.082-.85.106-1.187.12-.216.278-.396.41-.524a8.27 8.27 0 0 1-.19-1.767c0-4.787 4.097-8.684 9.158-8.684 5.061 0 9.16 3.897 9.16 8.684a8.283 8.283 0 0 1-1.046 4.029l1.588 3.433a.394.394 0 0 1-.523.524l-3.152-1.45a9.413 9.413 0 0 1-6.027 2.148 9.465 9.465 0 0 1-5.695-1.885.385.385 0 0 1 .015-.078l.623-2.048-1.255 1.105a.395.395 0 0 1-.535-.013l-.026-.029Zm-1.84-2.476a.377.377 0 0 0 .098.104c.187.153.481.205.773.113a.987.987 0 0 0 .15-.06.13.13 0 0 1 .174.055 7.9 7.9 0 0 0 .98 1.455l2.002-1.762a.394.394 0 0 1 .638.41l-.883 2.904a8.681 8.681 0 0 0 4.782 1.416 8.634 8.634 0 0 0 5.842-2.242c.072-.01.149-.001.22.032l2.475 1.138-1.254-2.714a.391.391 0 0 1-.037-.156 7.497 7.497 0 0 0 1.124-3.953c0-4.364-3.756-7.895-8.37-7.895-4.614 0-8.37 3.531-8.37 7.895a7.49 7.49 0 0 0 .298 2.095.13.13 0 0 1-.093.163.812.812 0 0 0-.057.016c-.417.131-.67.507-.566.84a.511.511 0 0 0 .074.146ZM20.038 29.562l.032 1.523a2.453 2.453 0 0 1-2.402 2.502l-6.077.124-1.794 3.102a.394.394 0 0 1-.736-.183l-.103-2.865-1.214.025a2.514 2.514 0 0 1-2.564-2.46L5 22.576a1.883 1.883 0 0 1 1.844-1.92l10.854-.222a2.154 2.154 0 0 1 2.197 2.108l.043 2.128.038.01c.203.061.388.156.543.299.205.19.365.466.418.887.047.368-.137.708-.41.968-.166.16-.362.287-.51.373l-.004 1.09c-.26.22-.396.282-.624.323l-.132.032c-.354.084-.89.104-1.484.085.195.252.598.544 1.435.655l.094.008c.479.06.737.056.736.161Zm-8.52 3.362 6.134-.126a1.664 1.664 0 0 0 1.63-1.697l-.02-.908c-1.194-.122-1.79-.552-2.098-.938-.397-.499-.36-.981-.36-.981a.395.395 0 0 1 .449-.372 4.716 4.716 0 0 0 1.96-.12l-.021-1.05s-.017-.21.204-.23c.014-.002.491-.164.587-.237.098-.075.194-.135.194-.362 0-.418-.57-.587-.587-.59-.195-.03-.443-.208-.436-.392l-.048-2.362a1.365 1.365 0 0 0-1.392-1.336l-10.854.223a1.094 1.094 0 0 0-1.071 1.115l.18 8.752c.019.951.807 1.708 1.759 1.689l1.873-.039c.14.151.129.353.129.353l.031.433h-.015l.054 1.483.869-1.502c.105-.16.277-.408.425-.578.084-.097.356-.226.424-.228Z" clip-rule="evenodd"/><path fill="currentColor" d="M18.032 25.385c.288 0 .521-.354.521-.79 0-.437-.233-.79-.521-.79-.288 0-.521.353-.521.79 0 .436.233.79.52.79ZM25.867 23.22c.284-.128.376-.535.207-.91-.17-.374-.537-.574-.82-.446-.284.128-.377.536-.207.91.169.375.536.575.82.447Z"/></svg>