<svg width="48" height="48" viewBox="0 0 48 48" fill="none" xmlns="http://www.w3.org/2000/svg">
<path fill-rule="evenodd" clip-rule="evenodd" d="M37.9535 14.7266C38.0641 13.3784 37.9377 11.7552 37.9746 10.3261C37.9377 8.96711 38.375 6.48642 36.6572 6.37856C34.3809 6.03881 32.2046 6.25453 29.8966 6.21138C27.0723 6.16285 24.5377 6.18981 21.5974 6.18981C18.968 6.11971 16.0804 6.17363 13.4668 6.16824C12.8397 6.11431 12.2864 6.14128 11.6172 6.16824C10.9217 6.01724 10.0206 5.76917 9.56217 6.47563C8.65057 7.61891 9.34613 9.1289 9.10374 10.3369C9.14589 12.8823 9.08266 15.2551 9.08266 17.8437C9.0932 19.138 9.03524 20.6911 9.04051 22.0716C8.78231 23.7973 9.77822 24.9892 11.4644 24.7842C14.0042 24.7195 16.4967 24.7896 19.1998 24.7842C19.2894 26.758 18.1249 27.087 16.9445 27.7611C16.9551 28.5107 16.5968 29.8481 17.872 29.5245C18.8942 29.5407 20.2906 29.5245 21.2812 29.5245C23.1044 29.5353 24.8591 29.5191 26.4874 29.5029C27.2461 29.5029 27.7678 29.5191 28.4792 29.5029C29.0588 29.6054 29.0377 29.2603 29.1695 28.7803C29.2222 28.2087 29.1431 27.7611 28.6056 27.6532C28.0576 27.3512 27.4411 26.8928 27.2778 26.3535C27.1197 26.0785 26.8035 24.6818 27.341 24.7734C28.3896 24.8543 29.5172 24.7734 30.6449 24.8166C32.1467 24.7519 33.3639 24.8813 34.8867 24.7734C36.3305 25.0431 38.1063 24.218 37.8428 22.3844C37.943 19.8336 37.9798 17.1426 37.9482 14.732L37.9535 14.7266ZM27.1302 27.3404C27.5623 27.691 27.9417 28.0685 28.5213 28.2141C28.6004 28.9691 28.2842 28.8342 27.6255 28.8342C26.9563 28.8127 26.1554 28.8774 25.3544 28.8342C23.1308 28.8666 20.9229 28.8181 18.6413 28.8774C18.2408 28.7965 17.3239 29.1524 17.5505 28.4136C17.3292 27.9498 18.009 28.0037 18.2566 27.7934C18.5675 27.6101 18.8046 27.2649 19.1366 26.9845C19.3579 26.7418 19.3685 26.4452 19.6056 26.2673C19.8374 25.8143 19.7057 25.1456 19.9059 24.795C20.9335 24.7519 22.1981 24.8328 23.252 24.7734C28.5477 24.8058 25.1806 24.2935 27.1302 27.335V27.3404ZM37.2211 22.9291C36.9418 24.369 35.224 24.0724 34.1964 24.094C32.8001 24.0131 31.2667 24.0454 29.8492 24.0724C24.7643 24.04 19.5845 24.0454 14.3731 24.0292C13.6617 23.9591 12.7027 24.1263 11.8965 24.0077C11.085 24.1371 10.3842 24.2072 9.76768 23.5223C9.60433 22.9615 9.66756 22.2442 9.64121 21.7211C9.61487 21.1603 9.65702 20.9392 10.2683 21.0254C12.7501 21.0578 15.2425 21.0254 17.8667 20.9553C22.6302 21.047 27.1408 20.8151 31.8568 20.9122C33.3955 20.7612 35.3135 20.9661 36.9102 20.8043C37.4055 20.6695 37.1842 21.322 37.1473 21.6456C37.1262 22.0986 37.2263 22.4869 37.2263 22.9345L37.2211 22.9291ZM37.3106 8.34155C37.1473 11.2159 37.2896 14.0633 37.1631 16.7921C37.2843 17.9138 37.0893 18.9654 37.1631 20.1302C36.8944 20.2974 35.8089 20.1626 35.3346 20.1842C31.5143 20.2381 27.81 20.2597 23.9528 20.2704C20.612 20.3406 17.2502 20.3028 14.0991 20.3567C12.8713 20.3729 11.7806 20.3675 10.5739 20.3783C9.26182 20.5886 9.75714 20.0062 9.64121 19.0085C9.70445 16.1288 9.71498 13.4378 9.73079 10.5903C9.79929 9.38775 9.55163 7.86159 9.96791 6.90706C10.4896 6.3462 11.4908 6.79381 12.1652 6.77763C17.0921 6.73988 22.3509 6.77224 27.1987 6.83156C29.512 6.73988 31.6988 6.86931 33.9751 6.83156C35.1397 6.98795 37.5846 6.23835 37.3159 8.34694L37.3106 8.34155ZM34.0067 10.078C33.1004 9.74368 31.8779 9.90007 30.8978 9.96478C29.9072 9.77603 28.8006 9.99175 27.9048 9.8785C23.8421 9.85153 19.8427 9.8785 16.0277 9.81378C15.3532 9.91085 14.7841 9.74368 14.1412 9.8785C13.3298 9.803 13.5932 10.6389 14.273 10.6011C16.2174 10.5472 18.3936 10.6874 20.4856 10.6011C23.6261 10.6497 26.7403 10.682 30.0969 10.6443C30.7819 10.6119 31.7831 10.7036 32.4575 10.6658C32.9371 10.5796 34.1964 11.0272 34.012 10.078H34.0067ZM33.796 13.4755C33.0424 13.1519 32.2415 13.3892 31.3773 13.2921C30.3182 13.2598 29.317 13.3299 28.1367 13.2706C24.4955 13.1735 19.8849 13.2598 16.1383 13.1627C15.3532 13.1411 14.5154 13.2436 13.6723 13.2059C13.3667 13.6103 13.7302 14.1388 14.2519 13.9123C16.0804 14.0903 18.167 13.9339 20.0166 14.0471C23.0359 13.977 26.5084 14.1981 29.7017 14.0256C30.4288 14.1874 31.3879 14.0849 32.1256 14.0687C32.6051 14.1172 34.0963 14.3168 33.8012 13.4755H33.796ZM33.796 16.8568C33.7117 16.2151 32.0992 16.6033 31.6513 16.4416C30.0126 16.4901 28.4634 16.4523 26.7456 16.4416C22.4721 16.4092 18.1512 16.3607 13.7777 16.3553C13.3298 16.2528 13.3719 16.8622 13.5669 17.121C14.3731 17.1588 15.0212 17.121 15.7958 17.1318C17.6928 17.1372 19.4317 17.1804 21.276 17.175C23.8105 17.1588 26.4557 17.2451 29.0957 17.2235C29.9651 17.1049 33.7169 17.6819 33.796 16.8568ZM24.0424 22.0285C24.0108 21.5485 23.3416 21.3382 22.9674 21.5C22.6355 21.6726 22.1612 22.3305 22.5459 22.6864C22.7935 23.3282 23.5523 23.1502 23.9475 22.8213C24.1267 22.5894 24.0108 22.2712 24.0424 22.0339V22.0285ZM23.4417 22.4438C23.2941 22.7619 23.0043 22.557 23.0096 22.2658C23.0623 21.9422 23.6946 22.077 23.4417 22.4438ZM26.9563 27.7341C24.7169 27.3728 22.4668 27.7503 19.8796 27.5777C19.3158 27.4429 19.2104 28.392 19.8796 28.2356C20.3907 28.3165 21.139 28.2302 21.7713 28.2195C23.0359 28.3489 24.2426 28.1979 25.6548 28.2195C26.0658 28.1278 27.2514 28.4567 26.9563 27.7395V27.7341ZM37.3106 40.3641C37.3264 37.7755 37.1578 35.0144 37.1367 32.6685C37.1262 31.2556 34.0858 32.0699 32.9845 31.8488C29.4435 31.7949 25.8867 31.9027 22.3246 31.7841C19.653 31.8165 16.4598 31.8974 13.7935 31.7464C12.9925 31.8272 11.9387 31.7841 11.1272 31.7679C10.3947 31.7194 9.84672 31.8003 9.69391 32.4312C9.72025 34.3511 9.56744 36.2332 9.76241 38.3957C9.83091 38.9242 9.53056 40.9357 9.96264 40.8764C15.7642 41.1406 21.9083 40.8872 27.6677 40.9627C29.9809 40.9141 31.7831 41.022 34.0594 40.9627C34.834 40.6984 37.5109 41.5074 37.3054 40.3641H37.3106ZM36.8417 39.7709C36.789 39.9003 36.7732 40.1268 36.8206 40.3209C36.3516 40.2508 36.1303 40.3695 35.6824 40.3209C34.8393 40.3263 34.1069 40.3425 33.1953 40.2994C31.4458 40.3317 29.5436 40.3533 27.752 40.3209C22.4721 40.3533 16.8128 40.3371 11.4486 40.3641C9.77822 40.5151 10.4211 40.1753 10.3315 38.935C10.3315 37.7863 10.1681 36.4866 10.2419 35.3434C10.2419 34.2271 10.3157 33.4505 10.3262 32.3881C11.8649 32.4312 13.2402 32.4097 14.6524 32.3881C20.6594 32.496 26.1975 32.4043 32.389 32.5067C33.5061 32.4636 34.5706 32.4582 35.7298 32.5283C36.9154 32.3611 36.6045 32.5822 36.7257 33.7147C36.6572 35.7964 36.8944 37.8402 36.8364 39.7709H36.8417ZM35.5138 38.0613C35.5665 36.9342 35.5085 35.7856 35.5138 34.68C35.4716 33.4073 35.4295 33.3372 34.1385 33.4127C32.8686 33.4667 31.3773 33.348 30.002 33.3912C25.3439 33.3912 20.2748 33.3588 15.3427 33.3534C14.7051 33.3211 14.1096 33.4127 13.4141 33.3534C12.8028 33.2941 11.417 33.2132 11.9176 34.2109C11.907 35.915 11.8596 37.3279 11.8702 39.0267C11.8017 39.539 13.3667 39.0267 13.5405 39.1777C18.6044 39.1777 23.1729 39.3179 28.1788 39.2262C30.1127 39.2855 31.9412 39.2693 33.9646 39.2262C35.029 39.2585 35.7562 39.5498 35.5085 38.0613H35.5138ZM13.8462 36.2601C13.804 37.1068 13.9094 36.9127 13.1137 36.9235C12.044 37.1931 12.6184 36.0013 12.4445 35.5537C12.5236 35.4566 13.1348 35.5051 13.3719 35.5267C13.9305 35.284 13.8251 35.8773 13.8462 36.2601ZM12.3866 33.9574C13.5405 34.0113 13.8356 33.5476 13.7987 34.9065C12.8028 34.8257 12.4551 35.1384 12.3866 33.9574ZM13.9041 38.606C13.4826 38.5036 12.6289 38.6977 12.3813 38.4712C12.4919 38.0937 12.2548 37.4897 12.9029 37.5275C14.1202 37.5275 13.8093 37.5706 13.9041 38.606ZM15.9381 38.606C14.7156 38.3957 14.3257 39.1615 14.4153 37.576C14.8579 37.4627 15.4006 37.6191 15.8801 37.5328C15.8959 37.8996 15.8907 38.2123 15.9381 38.606ZM15.9592 35.7101C15.7589 37.3549 16.4018 36.9019 14.4363 36.9181C14.4943 36.6646 14.1412 35.2463 14.6524 35.5537C15.0054 35.613 16.0329 35.2625 15.9644 35.7101H15.9592ZM15.9803 34.1947C16.112 35.2894 15.0002 34.7771 14.3784 34.8364C14.273 34.6261 14.4205 34.2702 14.3573 34.0006C14.8684 34.0006 15.7642 33.7255 15.9803 34.1947ZM29.4382 34.5021C29.2854 33.6177 30.139 34.2324 30.6238 34.0221C31.1982 33.7093 31.4511 34.7555 31.0296 34.9605C30.5922 34.7663 29.3802 35.2463 29.4382 34.5021ZM29.4382 36.7185C29.4962 35.1276 29.4171 35.737 30.94 35.5968C31.4669 35.3595 31.3457 37.0259 31.0243 36.848C30.9242 36.8695 29.0641 37.123 29.4435 36.7185H29.4382ZM26.9563 34.0006C27.5781 34.0491 28.221 34.0221 28.8428 34.0221C28.7743 34.3241 29.0852 34.9767 28.6056 34.9012C28.163 34.9982 27.5202 34.9335 26.9511 34.9012C26.9932 34.6531 26.8878 34.3025 26.9511 34.0006H26.9563ZM28.2842 36.8533C27.8363 36.9504 26.8457 37.1553 26.9985 36.4165C26.8562 35.9474 26.9458 35.4512 27.6203 35.5375C28.0471 35.6885 29.0483 35.2409 28.8638 36.0444C28.8797 36.5136 29.0114 37.1068 28.2842 36.8587V36.8533ZM24.7906 34.0221C25.1806 33.9251 25.9077 34.1569 26.2924 33.9358C26.3293 34.0814 26.4716 34.8472 26.2713 34.9497C25.8129 34.9173 25.3176 34.9227 24.701 34.885C24.7695 34.6962 24.5008 34.0221 24.7906 34.0275V34.0221ZM24.6642 36.3896C24.8539 35.3865 24.6484 35.5051 25.7865 35.6022C25.9815 35.5375 26.1923 35.5968 26.3662 35.5375C26.3135 35.9366 26.6771 36.8318 26.2502 36.9612C25.9446 36.945 25.5705 36.8426 25.2227 36.8965C24.7906 36.9181 24.6378 36.8857 24.6694 36.3896H24.6642ZM22.6934 33.979C23.3942 34.0006 24.348 33.7093 24.0687 34.7933C23.8263 35.0468 23.136 34.7933 22.7408 34.9012C22.6038 34.8688 22.5353 33.9628 22.6934 33.9736V33.979ZM22.6038 36.5891C22.5459 35.0575 22.725 35.6615 24.1056 35.5753C24.0055 36.2332 24.4955 37.1068 23.5049 36.9127C23.3732 36.9127 22.3246 36.9774 22.6038 36.5891ZM20.5014 33.9574C21.023 34.1785 22.3298 33.5368 22.0453 34.5722C22.0822 34.7825 22.0348 34.9065 21.7713 34.885C21.4288 34.9982 20.9545 34.7825 20.5699 34.9281C20.4908 34.7771 20.4118 34.1569 20.5014 33.9574ZM20.4434 35.6723C20.8913 35.4512 21.5078 35.6022 22.0769 35.5806C22.0031 36.3356 22.235 37.2416 21.2285 36.9288C21.0125 36.8372 20.728 36.9828 20.5224 36.9288C20.5224 36.546 20.5857 36.0714 20.4381 35.6723H20.4434ZM18.4305 33.9844C19.2367 33.9736 20.201 33.65 19.9534 34.8634C19.2683 34.8796 18.1987 35.2193 18.4305 33.9844ZM19.9112 36.2008C20.0693 37.0421 19.8058 36.9181 19.0892 36.9666C18.1987 37.0798 18.6466 36.1954 18.5095 35.5429C19.0734 35.6561 20.2484 35.1438 19.9112 36.2008ZM16.4808 34.1839C16.6653 33.7417 17.3239 34.0059 17.7508 33.9412C18.0248 33.9304 18.146 35.1277 17.5347 34.8634C17.266 35.036 16.8708 34.7771 16.6073 34.8904C16.5125 34.7771 16.5177 34.378 16.4808 34.1839ZM16.4598 36.3572C16.6389 36.1307 16.3596 35.6508 16.5652 35.4782C16.8919 35.6723 17.4083 35.4998 17.8983 35.5213C17.9352 35.9797 18.0037 36.4165 17.9405 36.9073C17.6085 36.9181 17.3556 37.0259 17.1026 36.9073C16.5388 36.9936 16.4123 36.9882 16.4598 36.3572ZM31.1191 38.5952C27.9891 38.6707 24.701 38.5844 21.6132 38.5952C20.3644 38.5844 19.2315 38.633 17.9457 38.5737C17.5821 38.5251 17.2027 38.7139 16.8866 38.5737C16.4598 38.6761 16.3438 38.5683 16.5019 38.18C16.3965 37.5544 16.5493 37.4951 17.129 37.5868C17.5874 37.5113 18.4042 37.6785 18.968 37.5706C20.6068 37.6191 22.0031 37.6137 23.5365 37.549C25.4704 37.7216 27.2145 37.5113 29.1695 37.6353C29.8176 37.5328 30.5606 37.6083 31.2772 37.6137C31.1349 37.7809 31.6461 38.784 31.1244 38.5952H31.1191ZM31.7831 34.4913C31.8727 34.3942 31.841 34.1893 31.7831 34.0275C32.1677 34.1569 32.9792 33.8064 33.053 34.1839C33.19 34.8257 32.9845 35.0845 32.4049 34.9065C32.0518 34.9335 31.704 35.009 31.7831 34.4913ZM31.8463 36.5514C31.4985 35.5753 32.5261 35.3865 33.053 35.7155C32.9634 36.643 33.327 36.9828 32.3416 36.9181C32.0307 37.0097 31.762 36.9181 31.8463 36.5514ZM33.0688 38.4388C33.0846 38.7948 32.2099 38.6006 31.8674 38.6599C31.8516 38.2771 31.8885 37.9265 31.8885 37.5814C32.6683 37.5976 33.2427 37.301 33.0688 38.4388ZM33.5852 34.6207C33.7749 34.4589 33.3165 34.0383 33.6695 34.0491C33.8803 34.0814 34.9078 33.8334 34.9183 34.2702C34.7708 34.4266 35.108 34.9281 34.8762 34.9928C34.4863 34.9065 33.4008 35.284 33.5905 34.6207H33.5852ZM34.9974 38.1962C34.9183 38.6977 34.5811 38.6653 34.1385 38.7031C33.4482 38.8703 33.6379 38.1045 33.6906 37.7108C33.6958 37.4466 34.2017 37.6407 34.423 37.6245C34.8973 37.5113 35.0659 37.5328 34.9974 38.1908V38.1962ZM34.892 36.9666C33.3744 36.7509 33.6221 37.2362 33.6432 35.5429C34.1543 35.7316 35.108 35.16 34.9341 36.1145C34.8604 36.2871 35.1291 36.9504 34.892 36.972V36.9666Z" fill="#222222"/>
</svg>
