<svg viewBox="0 0 48 48" fill="none" xmlns="http://www.w3.org/2000/svg">
<path d="M42.9708 12.3669C42.8914 12.3919 42.9265 12.3055 42.9171 12.2623C42.8331 12.3123 42.8307 12.0325 42.8097 12.003C42.6113 11.9029 42.4502 11.6391 42.3825 11.4321C42.2051 11.3912 42.0113 10.8976 41.7429 10.8612C41.7312 10.6224 41.6051 10.8385 41.5818 10.6543H41.4744V10.602C41.3343 10.652 41.3343 10.5133 41.262 10.4473H41.1546V10.395H41.0495C41.0752 10.3199 40.9375 10.345 40.8884 10.3427V10.2904H40.7811C40.8137 10.1243 40.3282 10.3609 40.3538 10.1334C40.1881 10.047 39.7445 10.2699 39.7679 10.1334C39.6722 10.1198 39.7399 10.188 39.6068 10.1857C39.5228 10.0129 38.5026 10.163 38.4862 10.2904C38.4489 10.279 38.3485 10.2722 38.3788 10.3427L38.059 10.395L38.0053 10.4996H37.8979L37.7905 10.6565C37.6085 10.6224 37.7112 10.8044 37.4731 10.7612C37.424 10.8135 37.3913 10.9408 37.312 10.9181C37.3727 11.0432 37.1112 11.1228 37.0435 11.1774V11.282L36.9361 11.3343C36.9221 11.3616 36.9011 11.5367 36.8287 11.489C36.8357 11.6095 36.8171 11.5981 36.7213 11.6459C36.6326 11.9006 36.5719 12.2395 36.4015 12.3737C36.3595 12.4124 36.4062 12.7399 36.2941 12.6853C36.2988 12.7217 36.3151 12.8218 36.2404 12.7899V12.9469C36.1541 12.9309 36.1984 13.0014 36.1867 13.0515C36 13.0788 36.112 13.2971 35.9743 13.3108C35.9323 13.3608 35.9673 13.5541 35.8669 13.5177C35.8389 13.5723 35.9183 13.702 35.8132 13.6747C35.8156 13.7156 35.8342 13.8088 35.7595 13.7793C35.7549 13.9089 35.7875 13.9385 35.6521 13.9862C35.6405 14.0431 35.6848 14.1045 35.5985 14.0909C35.5261 14.1682 35.5704 14.1568 35.4397 14.1955C35.3953 14.1932 35.5261 13.3244 35.386 13.4177C35.3837 13.2016 35.267 13.0924 35.2249 12.8991C35.1245 12.9491 35.1899 12.7717 35.1712 12.7422C35.0568 12.7763 35.1782 12.6057 35.0638 12.6398V12.4328C34.9635 12.4852 35.0288 12.2532 35.0102 12.2259L34.9028 12.1736V12.0689H34.8491C34.8281 12.053 34.8934 11.8529 34.7954 11.912L34.7417 11.705C34.646 11.7573 34.7067 11.6232 34.688 11.6004C34.6086 11.5731 34.5619 11.5254 34.5806 11.4435C34.4662 11.4776 34.5876 11.3047 34.4732 11.3389V11.1819C34.3938 11.2274 34.3915 11.0546 34.3658 11.025C34.2141 11.1069 34.1977 10.7748 34.1534 10.7134C34.0227 10.7816 34.0297 10.6156 33.9946 10.5565C33.9153 10.5292 33.8686 10.4814 33.8873 10.3995L33.5674 10.1403C33.5441 10.0447 33.5137 9.95831 33.4064 9.93329C33.4227 9.87416 33.3643 9.75589 33.299 9.72632C33.2056 9.73769 33.1636 9.7013 33.1379 9.6217C33.0468 9.63307 33.0025 9.59896 32.9791 9.51935C32.8741 9.57621 32.6103 9.21458 32.5519 9.15545C32.4679 9.05083 31.7348 8.8939 31.7512 9.10314C31.5131 9.16682 31.5598 9.30328 31.324 9.36242V9.46704C30.8874 9.6126 30.3902 10.2403 30.2571 10.5587C30.2291 10.602 30.2408 10.8089 30.1497 10.7657C30.1567 10.9067 30.1357 10.8635 30.0423 10.9226C30.0493 11.0614 30.0283 11.0204 29.9349 11.0773L29.8813 11.4412C29.7809 11.4594 29.7622 11.5003 29.7739 11.5959C29.6198 11.5868 29.7669 11.9689 29.6128 11.9598C29.6151 11.9893 29.6338 12.1031 29.5591 12.0644C29.5241 12.2145 29.4564 12.7035 29.3466 12.6876C29.3303 12.7444 29.3887 12.8718 29.293 12.8422C29.2836 12.8991 29.4073 13.0242 29.293 12.9992C29.2766 13.056 29.335 13.1834 29.2393 13.1538V13.57C29.0455 13.6428 29.335 13.868 29.1879 13.9862C29.1716 14.0408 29.0758 14.0818 29.0805 13.9862C29.0525 13.9749 28.7514 13.9635 28.8144 13.8816H28.4946V13.8293H28.3872C28.2611 13.752 27.9389 13.5177 27.8012 13.6724C27.8712 13.5769 27.339 13.5018 27.3203 13.4654C27.304 13.4495 26.6503 13.5268 26.7343 13.4131L26.2534 13.4654V13.4131H26.2301C26.3188 13.5109 25.441 13.4495 25.4294 13.4654C25.434 13.6155 25.1002 13.4472 25.1095 13.4654C25.1772 13.5632 24.7593 13.5018 24.736 13.5177C24.7757 13.6201 24.6123 13.5496 24.5749 13.57C24.6053 13.6838 24.2831 13.5655 24.2551 13.6747L23.5081 12.7399C23.3867 12.8013 23.2863 12.6671 23.2419 12.583C23.0738 12.633 23.0902 12.376 22.9221 12.426C22.8637 12.3441 22.8287 12.2395 22.7097 12.2714L22.656 12.1667H22.5486V12.1144H22.4412C22.4832 12.0394 22.3151 12.0667 22.2801 12.0621C22.2031 11.8802 21.9159 12.0735 21.8015 11.9052C21.7805 11.9484 21.5261 11.8392 21.5891 11.9575C21.4373 12.1008 21.491 12.3783 21.5354 12.5807L22.07 12.633C22.0467 12.7171 22.133 12.6762 22.1774 12.6853C22.1424 12.7876 22.2964 12.7149 22.3385 12.7376C22.3688 12.9173 22.5743 12.7695 22.6046 12.9446C22.649 12.7695 23.6761 13.9248 23.5641 13.9317C23.2863 14.0249 22.8381 14.1614 22.7097 14.4002C22.6676 14.4002 22.5789 14.3729 22.6023 14.4525C22.5602 14.4525 22.4715 14.4252 22.4949 14.5048C22.2007 14.6663 22.2894 14.2683 21.9089 14.1932C21.9439 14.1295 21.7782 14.0659 21.7478 14.0363V13.9317L21.5891 13.8794C21.5144 13.702 21.5004 13.9953 21.323 13.6724C21.3043 13.661 20.9891 13.6496 21.0568 13.5678C21.0358 13.5587 20.7837 13.5382 20.8444 13.4631C20.8444 13.4609 20.1114 13.454 20.2047 13.3608C20.2047 13.3562 19.4133 13.2948 19.5114 13.2039C19.4624 13.1675 19.3106 13.3585 19.2989 13.2039H18.7106C18.7457 13.3176 18.5706 13.197 18.6033 13.3085C18.5939 13.3517 18.036 13.2289 18.1247 13.3608C18.1153 13.404 17.5597 13.2835 17.6438 13.4131C17.6088 13.4222 17.443 13.3767 17.4827 13.4654C17.4127 13.4813 17.2843 13.4336 17.2703 13.57C17.2072 13.6042 16.7543 13.5473 16.843 13.7247L16.5232 13.8293C16.4719 13.8862 16.3925 13.959 16.3108 13.9339C16.2828 14.0795 16.1147 14.0113 16.0446 14.1409C16.1053 14.2501 15.8369 14.3979 15.7785 14.4525C15.7038 14.548 15.8019 14.5276 15.6711 14.6094C15.6828 14.6913 15.6641 14.6504 15.6174 14.6617C15.517 14.4752 15.2883 14.4616 15.2439 14.2455C15.1622 14.2956 15.1972 14.1182 15.1902 14.0886C14.3965 13.5132 13.3856 13.4427 12.3631 13.4654C12.4612 12.2532 12.2207 11.075 12.2557 9.88098C12.146 9.93556 12.2254 9.59896 12.2021 9.56939C12.027 9.39653 11.7258 9.47841 11.5624 9.57166C11.5344 9.66946 11.4947 9.68538 11.4037 9.67628C11.336 9.85596 11.1539 9.8082 11.0838 9.98788C11.0208 10.0288 10.9484 10.0356 10.9764 10.1448L10.764 10.2494C10.757 10.4041 10.6356 10.5428 10.4979 10.6133C10.4465 10.8271 10.2784 11.1182 10.2317 11.2888C10.01 11.282 10.2621 12.2145 9.9119 11.8597C9.94925 11.8097 9.8372 11.7983 9.80452 11.8074L9.69713 11.6505L9.43099 11.5981L9.3773 11.4935L9.05747 11.3889C9.1065 11.3093 8.87538 11.3047 8.84503 11.2843C8.90106 11.1751 8.55556 11.257 8.52521 11.232C8.58357 11.0955 8.20305 11.2615 8.25907 11.1273C7.45834 10.8931 7.46301 11.5504 7.72681 11.9598C7.76182 12.0826 7.67078 12.0985 7.67311 12.1667C7.77583 12.1099 7.70813 12.3987 7.72681 12.426C7.81085 12.3805 7.81085 12.6011 7.83419 12.633C7.94392 12.608 7.86221 12.7422 7.88789 12.7899C7.97193 12.7444 7.97193 12.9673 7.99528 12.9992L8.10266 13.0515C8.13301 13.097 8.0513 13.2448 8.15636 13.2061C8.1727 13.2584 8.12134 13.3267 8.21005 13.3108L8.26374 13.4654C7.66378 13.4677 7.09883 13.3653 6.55722 13.5177H6.1837C6.24206 13.6201 6.0483 13.5496 6.02262 13.57C6.03429 13.727 5.78217 13.6587 5.70279 13.6747C5.67478 13.8134 5.36896 13.6974 5.38297 13.9339H5.22188C5.26157 13.9999 4.94174 14.3411 5.00944 14.4025C5.03045 14.4298 5.21488 14.498 5.16819 14.5571H5.32927C5.28258 14.6731 5.5884 14.5981 5.54171 14.7118C5.56506 14.7459 5.9876 14.7072 5.91523 14.8164C5.94325 14.8187 6.12534 14.7846 6.07398 14.8687C6.10199 14.871 6.28408 14.8369 6.23272 14.921C6.26074 14.9233 6.44283 14.8892 6.39381 14.9733C6.44516 14.9961 6.58757 14.9278 6.55489 15.0234H6.66227C6.57123 15.1007 7.13618 15.1621 7.14085 15.1803C7.1712 15.2758 7.20154 15.2986 7.30193 15.2849C7.21088 15.3623 7.77583 15.4237 7.78284 15.4419C7.83653 15.5806 7.87855 15.5397 7.99761 15.5465C7.97426 15.6466 8.10733 15.5783 8.15869 15.5988C8.13535 15.6989 8.26841 15.6306 8.31977 15.6511C8.29643 15.7512 8.42949 15.6829 8.48085 15.7034C8.45751 15.8035 8.59057 15.7353 8.64193 15.7557C8.61392 15.8353 8.70496 15.8012 8.74932 15.808C8.71897 15.8854 8.86838 15.8876 8.9104 15.9127C8.87538 15.9763 8.82402 15.9854 8.80301 16.0173C8.81002 16.1083 8.782 16.1492 8.69563 16.1742C8.68862 16.272 8.52754 16.6655 8.64193 16.6928C8.52054 16.6746 8.58357 16.8815 8.53455 16.9521C8.42015 17.2386 8.59758 17.814 8.58824 18.1984C8.70496 18.1688 8.5789 18.3326 8.69563 18.303C8.73765 18.3281 8.61859 18.7374 8.74932 18.6669C8.74932 18.7102 8.72364 18.7966 8.80301 18.7716V18.9285C8.88706 18.883 8.88706 19.1036 8.9104 19.1355C9.00378 19.1719 9.0388 19.1991 9.01779 19.2924C9.22322 19.3424 9.04113 19.4471 9.17887 19.4493C9.16253 19.6085 9.28159 19.6813 9.28626 19.8633C9.37964 19.8997 9.41232 19.9269 9.39364 20.0179C9.51971 20.0293 9.55706 20.1521 9.60608 20.2772C9.79051 20.2727 9.69479 20.466 9.87222 20.4341C9.90257 20.5547 9.9726 20.6843 10.0847 20.6934C10.2224 20.8936 10.0706 20.8799 10.3508 21.005V21.1096C10.8761 21.2302 11.1492 21.9921 11.5227 22.149C11.3243 22.2696 11.455 23.0133 11.4153 23.1884C11.532 23.1566 11.4083 23.3226 11.5227 23.293C11.5857 23.3181 11.497 23.7775 11.6301 23.7093C11.6791 23.7411 11.6301 23.9685 11.7375 23.9162C11.7748 23.9526 11.6815 24.1141 11.7912 24.0709C11.8402 24.1004 11.7165 24.3893 11.8449 24.3302C11.8822 24.3666 11.7888 24.5303 11.8986 24.4848L11.9523 24.8487C12.0573 24.826 11.9803 24.9101 12.006 24.9533C12.1087 25.0125 12.1857 25.0443 12.167 25.1603C12.2884 25.199 12.2698 25.2194 12.2744 25.3172C12.3795 25.2809 12.3071 25.4355 12.3281 25.4742C12.4332 25.4514 12.3561 25.5356 12.3818 25.5788C12.4682 25.5265 12.4682 25.8108 12.4892 25.8381C12.6876 25.879 12.5195 25.9996 12.6479 25.995C12.683 26.0269 12.5942 26.1952 12.7016 26.1497L12.809 26.4613C12.9117 26.4362 12.8394 26.5227 12.8627 26.5659C12.9234 26.6318 13.0752 26.6569 13.0215 26.7729C13.1335 26.8092 13.1312 26.8343 13.1288 26.9298C13.2666 26.9457 13.2269 27.0503 13.2362 27.1368C13.339 27.1095 13.2666 27.2004 13.2899 27.2414C13.3926 27.2141 13.3203 27.3051 13.3436 27.346C13.395 27.4233 13.6214 27.4825 13.5561 27.6053C13.6938 27.6098 13.6915 27.8304 13.7171 27.9169C13.8502 27.9464 13.9296 28.0852 13.9833 28.2285C14.3778 28.3217 14.3405 28.8016 14.6766 28.9563C14.7093 29.0723 14.7467 29.2292 14.8891 29.2679C15.0758 29.418 15.3303 29.75 15.6361 29.891C15.5451 30.0639 15.4423 29.9502 15.2626 29.9434C15.3116 30.0298 15.1342 29.9843 15.1038 29.9957C15.1599 30.0957 14.8657 30.0298 14.8354 30.048C14.9031 30.1617 14.3288 30.073 14.3031 30.1003C14.3101 30.148 14.2984 30.1594 14.2494 30.1526V30.1003C14.142 30.0957 14.142 30.1526 14.142 30.1526L13.4487 30.1003C13.5187 29.9911 12.781 30.0707 12.7553 30.048C12.739 29.9115 12.5265 30.0957 12.4892 29.8933C12.4752 29.8865 12.2698 30.0025 12.3304 29.8933L11.9032 29.841L11.8495 29.7364H11.7422V29.6841H11.6348V29.6318L11.1539 29.5794C11.2076 29.4953 11.0698 29.5385 11.0465 29.5271C11.1002 29.4453 10.9624 29.4862 10.9391 29.4771C10.9928 29.393 10.855 29.4362 10.8317 29.4248C10.5259 29.1132 10.0496 29.4362 10.4582 29.6841C10.3368 29.8092 11.0675 30.1435 11.0978 30.2026C11.1422 30.214 11.2939 30.1662 11.2589 30.2549C11.2916 30.2686 11.4037 30.2254 11.3663 30.3073C11.3896 30.3368 11.8682 30.239 11.7935 30.3596C11.8309 30.3732 12.0596 30.3141 12.006 30.4119H12.3281C12.3024 30.496 12.4425 30.4551 12.4892 30.4642C12.4495 30.5847 12.69 30.446 12.6479 30.5688H12.8067V30.6211C12.844 30.6325 12.9468 30.5938 12.9141 30.6734C13.0518 30.6916 13.7615 30.7485 13.9786 30.7257C13.9576 30.6484 14.0533 30.653 14.03 30.7257C14.0603 30.7485 14.4152 30.6689 14.3498 30.7781C14.3755 30.7326 15.2813 30.8053 15.2019 30.6734C15.2486 30.6439 15.517 30.7326 15.468 30.6211C15.51 30.612 15.6665 30.6575 15.6268 30.5688H15.9466C15.8906 30.4687 16.1847 30.5347 16.2127 30.5165C16.1824 30.4232 16.3295 30.4801 16.3738 30.4642C16.3271 30.3664 16.5512 30.4301 16.5863 30.4119C16.4905 30.3254 17.3286 30.2254 17.3333 30.2049C17.324 30.1208 17.387 30.164 17.4407 30.1526C17.443 30.0116 17.7232 30.0207 17.8142 29.9957C17.8586 29.816 17.9799 29.957 17.9729 29.841H18.1854C18.1387 29.7614 18.3651 29.7591 18.3978 29.7364C18.3721 29.6318 18.5192 29.75 18.5566 29.5817C18.6079 29.5499 18.8064 29.5681 18.769 29.4771C18.818 29.4475 19.0795 29.5362 19.0351 29.4248C19.5511 29.1359 20.032 28.8721 20.5269 28.5423C20.5876 28.5082 20.7673 28.5264 20.7393 28.4377C20.7907 28.4332 20.8677 28.4673 20.8467 28.3854C20.9354 28.4081 21.0101 28.3422 21.0615 28.2808C21.1642 28.2944 21.1852 28.2626 21.2226 28.1762C21.2739 28.142 21.6405 28.1739 21.5961 28.0715C21.6545 28.0488 21.7805 28.1147 21.7548 28.0192C21.8085 27.9897 22 28.0033 21.9673 27.9146C22.014 27.8828 22.3922 27.976 22.3408 27.8623C22.3992 27.8486 22.4622 27.8919 22.4482 27.81C22.4972 27.7895 22.698 27.9305 22.6606 27.81C22.7097 27.7804 22.9081 27.7918 22.8731 27.7054C23.1625 27.7167 23.9306 27.9351 24.1524 27.9123C24.1524 27.9533 24.1547 27.976 24.2061 27.9646C24.2037 27.9123 24.2084 27.91 24.2598 27.9123C24.2364 27.9851 24.3205 27.9601 24.3672 27.9646C24.3181 28.0602 24.5469 28.001 24.5796 28.0169C24.5166 28.1216 24.8737 28.0488 24.8994 28.0693C24.8667 28.1784 25.0372 28.0647 25.0068 28.1739C25.0442 28.1784 25.2659 28.1375 25.2192 28.2262C25.315 28.2285 25.5881 28.1807 25.5928 28.3308C25.8402 28.3035 25.6745 28.4013 25.8589 28.3831C25.8029 28.4832 26.097 28.4172 26.125 28.4354C26.0924 28.5446 26.2651 28.4309 26.2324 28.5401C26.2674 28.5401 26.4332 28.5105 26.3912 28.5924H26.6573C26.6176 28.6788 26.781 28.6333 26.8184 28.6447C26.753 28.7402 27.1662 28.7243 27.1919 28.7493C27.1452 28.8653 27.4534 28.7902 27.4043 28.904C27.4394 28.8971 27.5421 28.888 27.5117 28.9563C27.5281 28.9631 27.8993 28.9813 27.8316 29.0609C27.8666 29.0541 27.9716 29.045 27.9389 29.1132C27.9576 29.1155 28.2704 29.0768 28.2051 29.1655C28.2378 29.1587 28.3451 29.1496 28.3125 29.2178C28.3381 29.2155 28.5202 29.1905 28.4712 29.2701C28.4759 29.2747 29.0362 29.2883 28.9521 29.3748C28.9615 29.3793 29.3466 29.3998 29.2719 29.4794C29.2976 29.4703 29.4167 29.4657 29.3793 29.5317C29.398 29.5271 29.5918 29.5067 29.5381 29.584C29.5638 29.5749 29.6828 29.5704 29.6455 29.6363H29.8579C29.8252 29.7455 29.998 29.6318 29.9653 29.7409C29.9816 29.7364 30.1801 29.7159 30.124 29.7932L30.2851 29.7409C30.2524 29.8501 30.4252 29.7364 30.3925 29.8456C30.4625 29.8524 30.78 29.8728 30.766 30.0002C30.787 29.9888 30.9154 29.9888 30.8734 30.0525C30.8804 30.048 31.1536 30.023 31.0859 30.1048C31.0859 30.1048 31.429 30.1389 31.352 30.2095C31.3567 30.2095 31.6345 30.2481 31.5644 30.3141H31.7255L31.7792 30.4187C31.9566 30.4187 31.9333 30.5734 32.1527 30.5734C32.1527 30.6803 32.2554 30.6939 32.3652 30.7303C32.4142 30.844 32.4072 30.9327 32.5262 30.9373C32.4889 31.0078 32.5683 31.0783 32.6336 31.0942V31.1988H32.6873L32.741 31.4058C32.8437 31.3512 32.776 31.6355 32.7947 31.6651C32.9068 31.6014 32.8227 32.0039 32.8484 32.029C32.734 31.9971 32.8554 32.1654 32.741 32.1336C32.699 32.5066 32.4352 32.7613 32.0477 32.8614C32.0127 32.8 31.0695 32.8955 31.1419 32.7568C31.0905 32.7249 30.9505 32.8068 30.9831 32.7045C30.9481 32.6499 30.3271 32.7909 30.3972 32.6521C30.3528 32.6158 30.1404 32.7113 30.1847 32.5998C30.1544 32.543 29.4727 32.6271 29.5451 32.4952C29.5171 32.4406 28.8868 32.5794 28.9591 32.4429C28.9148 32.4133 28.7607 32.4929 28.8004 32.3906C28.7747 32.3383 28.1934 32.5339 28.2681 32.3906C28.2354 32.3246 27.5584 32.4202 27.6285 32.286C27.5934 32.2291 27.1942 32.3656 27.2549 32.2337C27.2246 32.1745 26.7624 32.3155 26.8277 32.1813C26.7904 32.1336 26.5686 32.2473 26.6129 32.129C26.5803 32.079 26.2931 32.1995 26.3468 32.0767C26.2324 32.0654 26.1904 32.2109 26.1857 32.0767C26.1577 32.0221 25.8052 32.1518 25.8659 32.0244L25.7585 32.0767V32.0244H25.5461C25.6255 31.9266 24.9765 31.9403 24.9601 31.9198V31.9721H24.9088C24.4979 31.8356 23.7975 31.6196 23.3096 31.8152C23.2933 32.2018 23.3983 32.3269 23.7368 32.3337C23.6598 32.4497 24.1991 32.3587 24.2154 32.386C24.1477 32.5316 24.7103 32.3451 24.6426 32.4907C24.7664 32.5225 24.792 32.427 24.8551 32.4384C24.8224 32.5452 24.9928 32.4338 24.9625 32.543C24.9881 32.5452 25.406 32.4998 25.336 32.5953C25.3546 32.5976 25.8939 32.5498 25.8169 32.6476C25.8402 32.6476 26.2044 32.6089 26.1367 32.6999C26.1601 32.6999 26.5242 32.6612 26.4565 32.7522H26.8301C26.802 32.8455 26.9001 32.7636 26.9374 32.7522C26.8697 32.8614 27.2876 32.7795 27.311 32.8045C27.2549 32.9046 27.5467 32.8386 27.5771 32.8568C27.4907 32.9751 28.4175 32.9273 28.4292 32.9615C28.3988 33.0251 28.4969 33.016 28.5366 33.0138C28.4619 33.1229 29.0502 33.0866 29.0688 33.1184C29.0432 33.032 29.1459 33.0547 29.1225 33.1184C29.3957 33.1844 29.9256 33.2708 30.2431 33.2753C30.2338 33.4186 30.3738 33.2139 30.5092 33.2753C30.4649 33.3572 30.6353 33.3185 30.6703 33.3276C30.6096 33.4345 30.9621 33.3572 30.9901 33.38C30.9154 33.5005 31.5574 33.4004 31.5761 33.4323C31.5201 33.5323 31.8119 33.4664 31.8422 33.4846C31.7605 33.6051 32.678 33.5528 32.6943 33.5892C32.6523 33.7325 32.8951 33.4982 32.8531 33.6415C33.3293 33.6779 33.9713 33.7848 34.3985 33.5892C34.611 33.2799 35.0779 33.1593 35.358 32.8614C35.3883 32.709 35.6055 32.6681 35.7315 32.6544L36.105 32.2382C36.1961 32.27 36.2848 32.1541 36.3175 32.0813C36.5136 32.1086 36.7447 31.7833 36.8497 31.6651H36.9571C36.9898 31.5832 37.0202 31.5422 37.1135 31.5604C37.1789 31.515 37.3213 31.2352 37.4334 31.3012L37.5408 31.1442L37.6481 31.0919V30.9873C37.8326 30.9259 38.0053 30.8167 38.0754 30.6234H38.2364C38.2528 30.5392 38.3135 30.5028 38.3952 30.5188C38.4535 30.4369 38.4886 30.3323 38.6076 30.3641C38.701 30.1935 38.7991 30.0593 38.9811 30.0525C38.9905 29.8637 39.1632 29.9729 39.1422 29.7932C39.1492 29.7659 39.364 29.7659 39.301 29.6886H39.4084L39.4621 29.584H39.5671V29.5317C39.7072 29.5817 39.7212 29.3702 39.8332 29.3748L39.8869 29.2201H39.9943L40.048 29.1155C40.592 29.0404 40.0083 28.7266 40.9538 28.5446C41.2013 28.2512 41.8923 28.4695 42.1257 28.6492L42.2331 29.2724C42.1491 29.2201 42.1467 29.5021 42.1257 29.5317C42.016 29.4998 42.1 29.5976 42.072 29.6363L41.5935 30.0525C41.6005 30.1389 41.5841 30.1776 41.4861 30.2072C41.5188 30.396 41.1779 30.6257 41.0589 30.7257C40.8908 30.9532 39.978 31.9607 39.8332 32.0244C39.8052 32.1495 39.7912 32.27 39.6208 32.2837C39.5087 32.3656 39.3944 32.6135 39.2473 32.6476C39.35 32.8136 38.8971 33.0752 38.8201 33.1684C38.8971 33.2844 38.5469 33.4687 38.5002 33.5323C38.5609 33.6506 38.3018 33.7439 38.2341 33.7916C38.2108 33.8189 38.2785 33.9281 38.1804 33.8962V34.0009L38.073 34.0532C38.0473 34.0782 38.1174 34.1896 38.0193 34.1578C37.954 34.2215 37.7695 34.5262 37.6458 34.4694C37.5804 34.6604 37.4427 34.8037 37.2723 34.8856C37.1906 35.3041 36.9805 35.0289 36.9525 35.4565C36.9221 35.5315 36.2685 35.9659 36.3665 36.0774L35.8342 36.5436V36.6482H35.7805C35.6381 36.9121 35.4747 36.837 35.407 37.0121C35.1899 37.1532 34.9541 37.1418 34.8748 37.4284C34.8164 37.4261 34.6927 37.4784 34.7137 37.533C34.6717 37.5512 34.5783 37.5034 34.6063 37.5853C34.4989 37.5353 34.4849 37.6331 34.4452 37.6899C34.3378 37.6399 34.3238 37.74 34.2865 37.7945C34.1721 37.7422 34.123 37.8923 34.074 37.9515C33.969 37.9014 33.9526 38.0015 33.9129 38.0561H33.8056V38.1084H33.6982V38.1607H33.5394V38.213C33.4344 38.163 33.4157 38.2631 33.3783 38.3176C33.348 38.329 33.1075 38.2744 33.1659 38.37H33.0585V38.4223C32.7854 38.5451 32.1481 38.6634 31.9379 38.5269C31.9916 38.6611 31.6158 38.495 31.6695 38.6315C31.6158 38.6361 31.6111 38.6338 31.6158 38.5792C31.3543 38.5724 31.1115 38.6724 30.8687 38.5269C30.4929 38.6201 30.2804 38.5041 29.9093 38.4746C30.012 38.6338 28.9498 38.2767 28.9498 38.3199V38.2676C28.8144 38.2358 28.1631 38.1744 28.2027 38.0606H28.044V38.0083C28.0183 37.9606 27.6588 38.0834 27.7242 37.956C27.6798 37.956 27.5934 37.9833 27.6168 37.9037C27.5864 37.8377 27.2363 37.9242 27.297 37.7991C27.2736 37.7263 26.7437 37.8332 26.816 37.6945C26.7904 37.6262 26.4355 37.6512 26.4962 37.5375H26.2301C26.2558 37.4397 26.1671 37.508 26.1227 37.4852C26.1017 37.3328 25.8192 37.4079 25.6955 37.3306C25.7422 37.2487 25.5134 37.2487 25.483 37.2259C25.5601 37.1463 24.9158 37.0849 24.8971 37.069C24.9368 36.9689 24.7734 37.0372 24.736 37.0167C24.764 36.9189 24.6706 36.9849 24.6286 36.9644C24.694 36.878 24.2808 36.878 24.2551 36.8598C24.3135 36.721 23.8746 36.8962 23.9353 36.7574H23.7765C23.8185 36.6573 23.6528 36.7256 23.6154 36.7051C23.6715 36.605 23.3773 36.671 23.3493 36.6528C23.3797 36.5573 23.2816 36.621 23.2419 36.6005C23.312 36.4686 22.6396 36.5254 22.7097 36.3912C22.663 36.4003 22.5836 36.414 22.6023 36.3389C22.5766 36.298 22.3898 36.3981 22.4412 36.2866C22.4365 36.2298 21.7105 36.3753 21.8015 36.2343C21.7782 36.1934 21.5891 36.2934 21.6428 36.182C21.6218 36.1411 21.4303 36.2411 21.4817 36.1297C21.4724 36.0728 21.0848 36.2093 21.1619 36.0774C21.1409 36.0364 20.9471 36.1365 21.0031 36.0251C20.8537 36.0615 19.9643 35.8317 19.7238 35.8704C19.7728 35.7385 19.4624 35.8977 19.5114 35.7658C18.9838 35.7135 18.1037 35.8522 17.5924 35.8704C17.6648 36.0091 16.8781 35.9386 16.9528 36.0774C16.9037 35.9841 16.6866 36.0706 16.5792 36.0774C16.5839 36.2275 16.2944 36.1752 16.2057 36.182C16.131 36.3776 15.3723 36.4299 15.1389 36.4936C15.1529 36.7347 14.6976 36.5345 14.6603 36.8052L14.2331 36.8575C14.2821 36.9371 14.1023 36.903 14.0743 36.9098C14.1093 37.0167 13.9343 36.9053 13.9669 37.0144C13.9576 37.0281 13.6261 37.0349 13.7008 37.119H13.5934C13.6564 37.2532 13.1592 37.1418 13.2199 37.276H13.0588C13.1078 37.3328 12.9771 37.3351 12.9514 37.3283C13.0051 37.4193 12.7693 37.367 12.739 37.3806C12.7903 37.4602 12.6083 37.4284 12.5802 37.4329C12.6269 37.5466 12.3188 37.4738 12.3678 37.5898C12.3561 37.5944 12.0853 37.5534 12.1554 37.6422H11.9943V37.6945H11.8355V37.7468H11.6745V37.7991H11.4083C11.4597 37.8878 11.1725 37.8787 11.1422 37.9037V38.2676C11.2239 38.2244 11.2216 38.3927 11.2496 38.4245H11.5157C11.5881 38.4427 11.4947 38.4882 11.5694 38.4769C11.5437 38.3768 11.6815 38.445 11.7305 38.4245C11.6558 38.3267 12.0853 38.3882 12.104 38.3722C12.0456 38.2881 12.3445 38.2881 12.3701 38.2676C12.3538 38.1812 12.4262 38.2289 12.4775 38.2153C12.4098 38.1311 12.774 38.1289 12.7974 38.1107C12.7693 37.9992 12.9351 38.1175 12.9047 38.0061C12.9351 38.0083 13.1125 38.0356 13.0635 37.9537H13.2759C13.2176 37.8696 13.514 37.8696 13.5421 37.8491C13.4954 37.7672 13.7218 37.7672 13.7545 37.7445C13.6588 37.6626 14.3895 37.6035 14.3942 37.5898V37.5375H14.5015C14.4782 37.4238 14.826 37.4943 14.8214 37.3306C14.8587 37.2964 15.1435 37.3942 15.0875 37.2782C15.1342 37.2305 15.4003 37.2828 15.3536 37.1736C15.412 37.1554 15.4727 37.21 15.461 37.1213C15.5124 37.0918 15.6548 37.1714 15.6198 37.069C15.6711 37.0394 15.8135 37.119 15.7808 37.0167H15.9933C15.9629 36.9053 16.131 37.0235 16.1007 36.9121C16.152 36.8825 16.2944 36.9621 16.2618 36.8598C16.3131 36.8302 16.4555 36.9098 16.4228 36.8075H16.5839C16.5536 36.7074 16.7006 36.7756 16.745 36.7551C16.6983 36.6551 16.9224 36.721 16.9574 36.7028C16.9107 36.6028 17.1349 36.6687 17.1699 36.6505C17.1232 36.5504 17.3473 36.6164 17.3823 36.5982C17.2796 36.505 18.2321 36.5118 18.2344 36.4936C18.3138 36.4708 18.6453 36.3594 18.7667 36.389C18.9278 36.6232 20.2701 36.3526 20.4195 36.5436C20.4732 36.53 20.6063 36.5277 20.5806 36.5959C20.6343 36.5823 20.7673 36.58 20.7393 36.6482C20.7673 36.6596 21.1245 36.5982 21.0592 36.7006C21.0895 36.7097 21.386 36.6551 21.3253 36.7529C21.3696 36.787 21.5214 36.7051 21.484 36.8052H21.9113C21.8762 36.8848 22.0303 36.8529 22.0723 36.8575C22.0373 36.9371 22.1914 36.903 22.2311 36.9098C22.1844 37.0008 22.4108 36.9485 22.4435 36.9621C22.4248 37.019 22.5019 37.0212 22.5509 37.0144C22.4949 37.1145 22.789 37.0485 22.817 37.0667C22.754 37.1736 23.1112 37.0963 23.1369 37.119C23.0878 37.2487 23.3983 37.094 23.3493 37.2237C23.3797 37.2282 23.6201 37.185 23.5617 37.276C23.6108 37.2737 23.6901 37.2623 23.6691 37.3283H23.8816C23.8582 37.3851 23.9423 37.3897 23.989 37.3806C23.9539 37.5603 24.7127 37.5444 24.7897 37.5876C24.7664 37.6444 24.8527 37.649 24.8971 37.6399C24.9321 37.8309 24.9695 37.5375 25.0558 37.7968L26.069 38.0038C26.0433 38.0584 26.132 38.0652 26.1764 38.0561L26.2301 38.1607H26.3888C26.3958 38.2926 26.6153 38.2676 26.7087 38.2653C26.669 38.3427 26.8324 38.3131 26.8674 38.3176C26.8277 38.395 26.9911 38.3654 27.0262 38.37C26.9865 38.4473 27.1499 38.4177 27.1849 38.4223C27.1569 38.4769 27.2503 38.4837 27.2923 38.4746C27.2199 38.5815 27.8059 38.5951 27.8246 38.6315C27.7755 38.7225 28.0043 38.6702 28.037 38.6838C27.9693 38.7975 28.3848 38.7088 28.4105 38.7361C28.3521 38.8635 28.7887 38.7634 28.7303 38.8908H28.8377C28.7747 38.9931 29.1856 38.9658 29.2112 38.9954C29.1786 39.1023 29.3513 38.9931 29.3186 39.1C30.1451 39.1228 31.4244 39.2229 32.2508 39.2024C32.1831 39.1046 32.6523 39.166 32.678 39.1501C32.6266 39.05 32.8601 39.1182 32.8904 39.0978C32.8204 39.0091 33.453 39.0091 33.4764 38.9931C33.4787 38.8726 33.7635 38.8157 33.8499 38.7862C33.8779 38.6133 34.1417 38.6997 34.1697 38.5269L34.4359 38.4746C34.4382 38.3518 34.6203 38.3449 34.702 38.3176C34.7347 38.2358 34.7744 38.1948 34.8607 38.213C34.9354 38.1675 35.1689 37.7741 35.288 37.8491C35.344 37.7672 35.3813 37.6626 35.5004 37.6922C35.6848 37.3601 35.7852 37.583 35.7665 37.3806H35.8202C35.8482 37.1554 35.9953 37.4511 36.0327 37.1736C36.3315 37.1031 36.4132 36.8711 36.5649 36.6551C36.642 36.6278 36.691 36.6005 36.6723 36.5004C36.9268 36.4481 36.9875 35.9909 37.2046 35.9818C37.2933 35.6862 37.2933 35.8795 37.4707 35.7749C37.4801 35.7317 37.5828 35.5907 37.6295 35.6179V35.5133C37.6925 35.461 37.8909 35.37 37.8419 35.254C37.8466 35.2086 38.0614 35.1722 38.0007 35.0971C38.0614 35.063 38.1384 35.0448 38.108 34.9402C38.2925 34.8651 38.4162 34.665 38.4816 34.4739H38.589V34.3693C38.7827 34.4057 38.8527 34.2283 38.9088 34.0577C39.1376 34.06 39.1259 33.6279 39.3897 33.5892C39.3313 33.48 39.5975 33.3345 39.6558 33.2776C39.7165 33.1935 39.6652 33.0866 39.8169 33.1229C39.8356 33.0957 39.9756 32.8705 40.0293 32.916C40.0737 32.8546 40.0317 32.6885 40.1367 32.709C40.1647 32.6521 40.4262 32.336 40.5102 32.3974L40.5639 32.2428H40.6176V32.1381L40.725 32.0858V31.9812L40.8324 31.9289V31.8243C40.8674 31.7265 41.2573 31.5673 41.2059 31.4081C41.269 31.4263 41.388 31.3671 41.4184 31.3034C41.3577 31.2079 41.4744 31.1783 41.5258 31.1488L41.5794 30.9941H41.6331C41.7849 30.7826 41.988 30.4756 42.2728 30.3186C42.2121 30.214 42.3778 30.1571 42.4339 30.1117C42.3872 30.0366 42.5646 30.0298 42.595 30.007C42.5856 29.9092 42.595 29.8205 42.7023 29.8001V29.6431H42.756C42.6767 29.352 42.9054 29.07 42.8634 28.7607C42.7794 28.8062 42.7794 28.5855 42.756 28.5537L42.6487 28.5014C42.6977 28.4741 42.7724 28.2808 42.6487 28.2944C42.6136 28.1989 42.5319 28.1557 42.4362 28.1375C42.4712 27.9919 42.3195 28.0169 42.2238 27.9828C42.2611 27.7145 41.8503 27.9191 41.8503 27.7759C41.7429 27.8282 41.1382 27.8373 40.9982 27.8282V27.8805C40.606 27.9919 40.7554 27.8668 40.8394 27.6212C41.0402 27.6303 41.0308 27.3096 41.1592 27.205V27.1004H41.2129V26.9457C41.3413 26.9753 41.2433 26.7092 41.3717 26.7387V26.5841H41.4277V26.4795C41.5584 26.5363 41.4557 26.111 41.5865 26.1679V26.0632H41.6401C41.6962 25.5561 41.918 25.2445 41.96 24.7123C42.037 24.7509 42.0113 24.5917 42.0137 24.5576C42.0907 24.5963 42.065 24.4371 42.0674 24.4029C42.1701 24.4575 42.1024 24.171 42.1211 24.1437C42.1981 24.1846 42.1724 24.0231 42.1747 23.9867C42.2821 24.0186 42.1724 23.8503 42.2821 23.8821C42.3008 23.7547 42.3195 23.2271 42.4432 23.2589C42.5203 23.0474 42.4222 22.4765 42.3895 22.3242C42.1818 22.3196 42.2308 22.1718 42.2821 22.0649C42.3942 22.124 42.3102 21.7806 42.3358 21.7533C42.4385 21.8079 42.3708 21.5236 42.3895 21.494C42.5016 21.5531 42.4175 21.2097 42.4432 21.1824C42.5669 21.2484 42.4642 20.7912 42.4969 20.7662C42.4946 20.6002 42.609 20.2613 42.4969 20.1953C42.4549 20.1794 42.5669 19.8678 42.4432 19.936C42.4012 19.9201 42.5132 19.6063 42.3895 19.6768C42.3475 19.6631 42.4642 19.2355 42.3358 19.3129L42.2821 19.0013C42.1724 19.0399 42.2565 18.9285 42.2284 18.8967C42.1211 18.9421 42.1981 18.7716 42.1747 18.7397C41.8689 18.5896 42.0323 18.1438 41.9623 17.8573C41.981 17.7481 41.6448 17.1818 41.8549 17.1295V16.8179H41.9086V16.7132C41.9857 16.761 41.96 16.5881 41.9623 16.5563C42.0393 16.6041 42.0137 16.4312 42.016 16.3994C42.1234 16.4335 42.0137 16.2629 42.1234 16.2948V16.1401H42.1771V16.0355H42.2308V15.9309C42.4782 15.8763 42.3102 15.4214 42.4969 15.36V15.2053C42.6603 15.2121 42.6276 14.8255 42.658 14.7368C42.7397 14.7846 42.7444 14.5594 42.7654 14.5298C42.8424 14.5799 42.8167 14.4025 42.8191 14.3752H42.8728V14.3229C42.8004 14.3388 42.8261 14.3092 42.8191 14.2705C42.9124 14.3229 42.8611 14.0909 42.8728 14.0636C43.0105 14.1318 42.8844 13.4131 42.9265 13.3904C42.9568 13.2266 43.0455 12.5648 42.9708 12.3669ZM29.8019 14.2887C30.0213 14.0613 29.7949 13.984 29.8556 13.6132C29.9583 13.6678 29.8906 13.3835 29.9093 13.354C30.0283 13.4222 29.9816 12.4101 30.1217 12.4715C30.1497 12.4419 30.068 12.2122 30.1754 12.2623C30.1987 12.2281 30.1287 12.0667 30.2291 12.1076V11.9507C30.3808 11.8529 30.4088 11.5913 30.4415 11.3798C30.5256 11.4253 30.5256 11.2024 30.5466 11.1706C30.64 11.2092 30.5863 11.05 30.6003 11.0136C30.682 11.0432 30.6446 10.9499 30.654 10.909C30.7684 10.9181 30.6353 10.7907 30.8151 10.7521C30.7964 10.6747 30.8407 10.6156 30.9224 10.5974C30.8851 10.4996 31.0112 10.4291 31.0812 10.3904C31.0415 10.2926 31.1722 10.2244 31.2399 10.1835C31.2002 10.0857 31.331 10.0152 31.401 9.9765C31.3777 9.906 31.464 9.92647 31.5084 9.92419C31.8072 9.32603 32.3442 9.83549 32.734 9.92419C32.6523 10.0766 33.1332 10.2631 33.1075 10.3904C33.1986 10.3859 33.2313 10.395 33.2149 10.4951C33.432 10.4928 33.3923 10.8749 33.6421 10.9113C33.6702 11.2752 33.8126 11.116 33.8546 11.4298C33.9853 11.4594 33.9876 11.5822 34.0157 11.6891C34.2304 11.7369 34.1207 12.0553 34.3355 12.1053C34.3121 12.2736 34.4125 12.1463 34.3892 12.3123C34.4779 12.2736 34.4312 12.4306 34.4429 12.4692C34.5176 12.4442 34.4919 12.5306 34.4966 12.5739C34.6156 12.5284 34.5386 12.8286 34.6576 12.7808C34.6576 12.8172 34.6273 12.9741 34.7113 12.9355C34.7137 12.9673 34.6763 13.1902 34.765 13.1425V13.3517C34.8748 13.6792 34.9728 14.0249 34.9775 14.5457C34.9308 14.5594 34.7277 14.5753 34.765 14.6504C34.7253 14.6617 34.3355 14.6049 34.3915 14.7027C34.3518 14.7163 34.0227 14.7868 34.0717 14.8596H33.8056C33.8592 14.946 33.5674 14.9415 33.5394 14.9642C33.5184 15.0666 33.4204 15.0825 33.327 15.0689C33.313 15.1826 33.1496 15.2053 33.0608 15.2258C32.8764 15.3259 32.8904 15.4237 32.5799 15.4328C32.6009 15.1871 32.5566 14.2842 32.5262 14.1318C32.4515 14.1477 32.4515 14.0636 32.5262 14.0795C32.5006 13.7816 32.5636 13.0856 32.4725 12.9355C32.4515 12.9105 32.5262 12.5648 32.4212 12.6239C32.5169 12.3168 32.4142 11.8301 32.4212 11.4799C32.2788 11.4025 32.3955 11.0273 32.1014 11.0637V11.116C31.7418 11.05 31.8142 12.0166 31.8352 12.467C31.98 12.724 31.7792 13.0765 31.8889 13.0378C31.9123 13.0628 31.8352 13.4131 31.9426 13.3517C31.9613 13.4813 31.8189 13.7884 31.9426 13.8202C31.9613 13.8475 31.8959 14.0795 31.9963 14.0272C31.9893 14.1341 31.9309 14.7618 31.9426 14.8596C32.057 14.7823 31.9706 15.4146 31.9963 15.4305C32.2204 15.5419 31.9333 16.3243 31.7839 15.949C31.6251 15.9832 31.6625 15.8103 31.5691 15.7421C31.4944 15.7785 31.4827 15.6215 31.4617 15.5851C31.3683 15.5669 31.317 15.4578 31.3006 15.3759C31.1302 15.385 30.9551 15.1871 30.8734 15.0643C30.6586 15.0893 30.619 14.7322 30.3388 14.7527C30.2921 14.5344 29.6548 14.3865 29.8019 14.2887ZM22.1774 15.3281C22.2894 15.3873 22.4389 15.1234 22.4972 15.0689C22.5883 15.0598 22.6886 14.9984 22.7097 14.9119L22.9221 14.8596C22.9524 14.7937 22.9921 14.7277 23.0832 14.755C23.0622 14.6845 23.1439 14.705 23.1906 14.7027C23.1415 14.6072 23.3703 14.6663 23.4053 14.6504C23.4287 14.5503 23.5244 14.5298 23.6178 14.5457C23.6178 14.407 23.9026 14.4116 23.9913 14.3888C24.017 14.7686 24.2434 14.8937 24.3111 15.219C24.1664 15.2599 24.1897 15.2303 24.1524 15.3759C24.066 15.385 23.8956 15.3441 23.8862 15.4805C23.5874 15.5237 22.9431 16.3016 22.6583 16.4676C22.8847 17.2454 23.5081 16.5722 23.7789 16.2083C23.8839 16.2493 23.9469 16.1173 23.9913 16.0514C24.0963 16.0923 24.1594 15.9604 24.2037 15.8945C24.4138 15.9149 24.2528 15.7444 24.5773 15.7898L24.736 15.5829C24.8224 15.6102 24.8714 15.551 24.8947 15.4782C25.3803 15.3714 25.9733 15.0848 26.5476 15.1143C27.0262 15.4328 27.2923 14.6663 26.655 14.5958C26.1297 14.498 25.2916 14.7459 24.8411 14.9597C24.108 13.8316 25.6861 14.0181 26.4939 13.9726C26.4565 14.1364 27.8829 14.059 27.8269 14.2842L28.5202 14.3888C28.5599 14.5389 28.7607 14.5844 28.8938 14.5958C29.4634 14.9187 30.7544 15.5306 31.0275 16.0491C32.036 16.6518 31.3053 16.6427 31.2936 17.0362C31.1536 17.0498 31.1909 17.2045 31.1862 17.2955C31.0999 17.3501 30.9364 17.4456 30.9738 17.557C30.8034 17.573 30.9294 18.0074 30.759 18.0256C30.7287 18.0665 30.801 18.1552 30.7053 18.1302V18.3372C30.6166 18.3121 30.6656 18.3986 30.6516 18.4418C30.4882 18.4554 30.6563 18.8967 30.4929 18.9103L30.5466 19.0149C30.4439 18.9603 30.5116 19.2469 30.4929 19.2742C30.3855 19.206 30.4602 19.6677 30.4392 19.6904C30.3248 19.6586 30.4462 19.8246 30.3318 19.795C30.4299 19.8019 30.3668 20.3682 30.3855 20.4182C30.5372 20.35 30.3411 20.955 30.4929 20.8867L30.4392 20.9914C30.5536 20.9231 30.4672 21.3848 30.4929 21.4076C30.6026 21.3757 30.4882 21.544 30.6003 21.5122V21.6691C30.6306 21.6509 30.6726 21.6851 30.654 21.7214C30.5909 21.701 30.6049 21.7374 30.6003 21.7738C30.7193 21.776 30.6633 21.9944 30.7077 22.0853C31.0322 22.2013 29.7225 22.0649 29.7482 22.0853C29.7015 22.1035 29.7435 22.2286 29.5357 22.19V22.1377H28.5763C28.4058 22.1672 27.9063 21.933 27.7755 22.1377C27.6191 22.1627 27.5467 22.0421 27.3506 22.0853C26.767 22.2969 25.8542 22.0444 25.2192 22.1377C25.1889 21.9648 24.8434 22.174 24.792 22.1377C24.8761 22.0603 24.122 22.0512 24.2061 22.1377C23.9539 22.1627 23.6668 22.0558 23.4053 22.0853C23.4263 22.2332 22.2801 21.9489 22.2848 22.1377C22.168 22.1627 22.126 22.0853 22.126 22.0853C22.133 22.0853 21.442 22.0444 21.5401 22.1377C21.1572 21.9762 20.7557 22.1172 20.3658 22.0853C20.5035 21.7396 20.2187 21.4781 20.2584 21.1506C20.1487 21.1801 20.2631 21.0164 20.1534 21.0459C20.1207 20.3432 20.0997 19.6608 20.1534 19.0195C20.2958 19.0308 20.0903 18.8898 20.1534 18.7602C20.2678 18.792 20.1464 18.6237 20.2608 18.6556C20.3238 18.6351 20.2958 17.9573 20.4218 18.0324C20.4709 18.0005 20.4265 17.7777 20.5292 17.8254C20.5035 17.5866 20.6016 17.7435 20.5829 17.5661C20.751 17.5275 20.5619 17.1317 20.7954 17.0976C20.8 16.9498 20.9308 16.7974 21.0615 16.7337C21.0895 16.6268 21.0895 16.5017 21.2226 16.4744C21.1969 16.3471 21.2646 16.2675 21.3837 16.2151C21.3486 16.1174 21.47 16.0468 21.5424 16.0059C21.5214 15.9286 21.5868 15.8421 21.6498 15.7989C21.8809 15.7898 21.9976 15.4669 22.1774 15.3281ZM16.152 14.8096H16.2594C16.3388 14.5958 16.7217 14.4639 16.9528 14.3411C16.9201 14.1796 17.7091 14.0067 17.8586 14.0295C17.8025 13.9294 18.0943 13.9953 18.1247 13.9772C18.0827 13.8543 18.3255 13.9953 18.2834 13.8725C18.6966 13.8907 19.9059 13.8179 20.1487 14.0272H20.3611C20.3215 14.1182 20.4849 14.0659 20.5222 14.0795C20.4825 14.1705 20.646 14.1182 20.681 14.1318C20.6413 14.2228 20.8047 14.1705 20.8397 14.1841C20.779 14.2728 21.1315 14.266 21.1595 14.2887C21.3043 14.5821 21.8436 14.548 21.8529 14.9119C21.8039 14.8619 21.5587 15.2053 21.5331 15.2235L21.3743 15.2758C21.3977 15.3372 21.3043 15.3577 21.2669 15.3804V15.5374C21.0592 15.6215 20.9891 15.874 20.786 15.9536C20.8491 16.0628 20.5759 16.2083 20.5199 16.2652C20.5386 16.3493 20.4942 16.3971 20.4125 16.4198C20.3775 16.5381 20.4032 16.6973 20.2538 16.7314C20.2351 16.7678 20.2958 16.9248 20.2001 16.8861C20.2187 16.968 20.172 17.0203 20.0927 17.043C20.1254 17.1636 20.0413 17.2568 19.9316 17.3046C19.9153 17.3387 19.9736 17.5002 19.8779 17.4592C19.8686 17.4979 19.9059 17.5912 19.8242 17.5639C19.8079 17.5957 19.8639 17.7617 19.7705 17.7185V18.0301C19.6911 18.0028 19.7238 18.0938 19.7168 18.1347C19.6188 18.087 19.6795 18.3099 19.6631 18.3417C19.5301 18.2939 19.6911 18.5964 19.5557 18.5487C19.5464 18.5873 19.5627 18.6124 19.6094 18.601C19.5908 18.6237 19.6561 18.8648 19.5557 18.808C19.5417 18.833 19.5954 19.0104 19.502 18.9626C19.4927 18.9944 19.5301 19.0991 19.4484 19.0672C19.4507 19.206 19.4624 20.7048 19.2873 20.1066C19.1122 20.0793 19.1962 19.8201 19.0211 19.795C18.9955 19.4971 18.8414 19.6176 18.8601 19.4311C18.6056 19.3538 18.741 18.9376 18.4865 18.858C18.4982 18.692 18.2531 18.6578 18.2181 18.3394C18.1247 18.3235 18.0733 18.2121 18.057 18.1325C17.9706 18.1939 17.9239 17.7913 17.8959 17.7686C17.7535 17.689 17.6368 17.573 17.6298 17.4047C17.5574 17.3796 17.499 17.3319 17.5224 17.2477L17.3099 17.0931C17.359 16.7792 17.1839 16.9339 17.2049 16.7314C16.8571 16.5609 16.8687 16.0787 16.5652 15.7967C16.5209 15.7444 16.2291 15.592 16.2991 15.4851C16.2291 15.4669 16.166 15.41 16.1917 15.3281C16.047 15.3554 16.1007 15.1189 15.9793 15.1212C15.9793 15.0893 16.152 14.8096 16.152 14.8096ZM10.5539 12.2645C10.5819 12.2441 10.4932 11.7255 10.6076 11.796C10.6216 11.7596 10.5679 11.6004 10.6613 11.6391C10.6846 11.6095 10.6846 11.3843 10.7687 11.4321C10.7757 11.3934 10.743 11.3002 10.8224 11.3275C10.813 11.2411 10.8177 11.1364 10.9297 11.1182C10.9368 11.0819 10.9041 10.9863 10.9834 11.0136C11.0185 10.8885 11.0955 10.6338 11.2496 10.5974C11.2122 10.4882 11.3266 10.4632 11.4107 10.4405C11.5134 10.3472 11.5671 10.1494 11.7305 10.1812C11.8846 11.3571 11.7375 12.4124 11.9429 13.5587C11.8542 13.586 11.4013 13.6223 11.4107 13.7656C11.2099 13.7816 11.0955 13.9817 10.8784 13.9726C10.8364 13.8384 10.8434 13.5382 10.6659 13.5041V13.1925H10.6123C10.6403 13.1834 10.4185 12.1781 10.5539 12.2645ZM8.20771 11.8483H8.15402C8.22639 11.373 8.66294 11.8711 8.90106 11.8483C8.86838 11.9575 9.04113 11.8415 9.00845 11.9529C9.05281 11.9643 9.14152 11.9234 9.11584 12.0053C9.20688 11.9984 9.3096 11.9984 9.32828 12.1099C9.36329 12.1349 9.52671 12.1394 9.48936 12.2145C9.53138 12.2236 9.62242 12.1872 9.59674 12.2668C9.63877 12.2759 9.72981 12.2395 9.70413 12.3191C10.2224 12.2805 9.8442 13.2994 10.0777 13.5155C10.2457 13.5541 10.1967 13.7474 10.2387 13.8794C10.5375 14.0135 10.4675 14.5844 10.0777 14.3479C10.101 14.2683 10.0146 14.3047 9.97027 14.2956C9.95859 14.1818 9.79051 14.1591 9.70413 14.1409C9.66678 13.9681 9.53371 14.0977 9.54539 13.9862C9.50103 13.9749 9.41465 14.0158 9.438 13.9339C9.34228 13.9408 9.24657 13.9408 9.22556 13.8293C8.99911 13.8134 9.02012 13.7224 8.95943 13.57C8.88005 13.5951 8.91273 13.5086 8.90573 13.4654C8.81469 13.5041 8.86605 13.3471 8.85204 13.3085C8.60692 13.2061 8.75399 13.0901 8.6396 13.1015C8.65827 12.9241 8.55789 13.0788 8.5859 12.8422C8.38514 12.7967 8.5719 12.6307 8.37346 12.583C8.37113 12.5443 8.39681 12.4533 8.31977 12.4783V12.1667C8.22172 12.219 8.23106 11.8756 8.20771 11.8483ZM8.79368 15.3804C8.75632 15.2076 8.62326 15.3372 8.63259 15.2258C8.53921 15.2008 8.26141 15.2099 8.25907 15.0689C8.08632 15.0916 8.21939 14.9938 8.04663 15.0165C8.09566 14.921 7.86688 14.9802 7.83419 14.9642C7.88088 14.8846 7.65444 14.8824 7.62175 14.8619C7.69179 14.7641 7.21789 14.7823 7.19454 14.7573C7.17353 14.6799 7.1175 14.6322 7.03346 14.6526C7.08015 14.5367 6.77433 14.6117 6.82102 14.4957C6.80234 14.473 6.37746 14.4866 6.4475 14.3911H6.18137C6.22806 14.3115 5.99927 14.3092 5.96893 14.2865C5.94325 14.0704 6.3191 14.1091 6.44983 14.0795C6.37746 13.9703 6.85604 14.0499 6.87705 14.0272C7.06147 13.9635 7.83186 13.7656 7.94392 14.0272C7.98127 14.0431 8.14235 13.9885 8.10266 14.0795H8.37113C8.31744 14.1978 8.74699 14.1705 8.69096 14.2865C8.73064 14.2933 8.82636 14.2614 8.79834 14.3388L9.17186 14.3911C9.20221 14.5981 9.67612 14.5321 9.65277 14.755H9.76016C9.58274 15.153 9.21155 15.5146 8.79368 15.3804ZM11.8869 21.7692C11.9102 21.6669 11.8682 21.66 11.7795 21.6646C11.7725 21.5008 11.5787 21.4644 11.5134 21.3007C11.455 21.2438 11.2519 21.1369 11.2472 21.0414C11.1235 21.1233 10.8831 20.6729 10.82 20.6252L10.2878 20.209C10.3321 20.1066 10.1944 20.0452 10.1267 20.002L10.0193 19.6904C9.90723 19.679 9.87455 19.5153 9.86054 19.4311C9.8302 19.3674 9.45434 19.181 9.54072 19.0672C9.42866 19.0991 9.54539 18.933 9.43333 18.9626C9.46134 18.7261 9.36096 18.8807 9.37964 18.7033C9.28392 18.7511 9.34228 18.5282 9.32594 18.4964C9.23957 18.535 9.28159 18.3758 9.27225 18.3417C9.14619 18.3826 9.29092 18.1461 9.16486 18.1848C9.1742 18.1688 9.19988 17.6958 9.11117 17.7686C9.06681 17.7003 9.19988 17.7708 9.16486 17.6639C8.96643 17.5229 9.25824 16.9293 9.16486 16.6768C9.32361 16.5518 9.38664 16.2743 9.43099 16.0537C9.5664 15.9741 9.7765 15.7671 9.85821 15.6375C10.0333 15.5851 9.90723 15.4828 10.0706 15.3782C10.1664 15.4077 10.199 15.3441 10.2317 15.2736L10.4442 15.2212C10.5282 15.1917 10.743 14.7709 10.8714 14.8573C10.9204 14.7413 11.0628 14.6526 11.1912 14.6504C11.3453 14.3251 11.6091 14.4775 11.6184 14.3388C11.6698 14.3251 11.7468 14.3683 11.7258 14.2865H11.9406C11.8846 14.1864 12.1787 14.2524 12.2067 14.2342C12.16 14.1546 12.3888 14.1523 12.4192 14.1318C12.3351 14.0067 12.9911 14.1614 13.0051 14.1318C13.332 13.9021 13.9529 14.4093 14.3381 14.3388L15.0315 14.8073C15.1622 14.9915 15.0571 15.0916 15.3513 15.1712V15.2758C15.6781 15.3327 15.6221 15.6829 15.8836 15.7944C15.8672 15.8945 15.8836 15.9763 15.991 16.0014C15.991 16.0559 15.9699 16.1219 16.0446 16.106C15.9816 16.3334 16.2384 16.2811 16.2057 16.4699C16.3178 16.438 16.2011 16.6041 16.3131 16.5745C16.4695 16.786 16.6026 17.0021 16.6866 17.3023C17.0508 17.3865 16.8851 17.8027 17.2212 17.9255C17.2142 17.971 17.2049 18.0506 17.2749 18.0301L17.3286 18.2371C17.5154 18.2894 17.3566 18.394 17.5411 18.444C17.6041 18.5737 17.5901 18.7647 17.7535 18.808V18.9126C17.8212 18.9353 17.8889 18.9854 17.8609 19.0695C17.9333 19.0445 17.9122 19.1309 17.9146 19.1741C18.0873 19.3038 17.9473 19.3811 18.1807 19.4857C18.2064 19.579 18.2344 19.6677 18.3418 19.6927C18.3138 19.9269 18.4142 19.7768 18.3955 19.952C18.5075 19.9429 18.4609 20.1339 18.5029 20.2112C18.5986 20.2545 18.706 20.3523 18.6616 20.4705C18.7317 20.4432 18.7106 20.5365 18.713 20.5751C18.7854 20.5456 18.7643 20.6411 18.7667 20.6798C18.832 20.6957 18.9044 20.7571 18.8741 20.8344C19.0258 20.8708 19.1075 21.1233 19.1402 21.2506C19.2336 21.2916 19.3456 21.3939 19.3013 21.5099C19.4133 21.4781 19.2966 21.6464 19.4087 21.6145C19.3807 21.6941 19.418 21.8101 19.5161 21.8215C19.5044 21.9944 19.5791 21.8556 19.6234 22.0808C18.7293 22.1195 18.2367 22.0239 17.5457 22.1331C17.506 22.0444 17.7278 22.0535 17.7582 22.0285C17.7208 21.9739 17.9449 21.8488 17.9706 21.8215C18.064 21.5031 17.9659 21.7123 17.9706 21.5099L17.6508 21.4576C17.7115 21.5395 17.3543 21.5873 17.331 21.6145C17.3636 21.7874 17.1325 21.7123 17.0648 21.8215C17.1232 21.9034 16.7707 21.9512 16.745 21.9762C16.801 22.0762 16.5069 22.0103 16.4789 22.0285C16.5326 22.1649 16.1567 21.9966 16.2127 22.1331C16.0797 22.0853 15.5194 22.0694 15.3606 22.0808C15.1202 22.0012 13.8129 22.1013 13.4417 22.0285C13.3203 22.2423 12.8674 21.8715 12.6946 22.0808H12.1624C12.1904 22.0194 12.09 21.9989 12.055 21.9762C12.09 21.8738 11.9546 21.8147 11.8869 21.7692ZM41.318 24.9397C41.1779 24.8851 41.3507 25.2536 41.2106 25.199C41.2223 25.2422 41.2316 25.3263 41.1569 25.3036V25.5106C41.0705 25.4514 41.0682 25.7971 41.0495 25.8222C40.9655 25.7767 40.9655 25.9996 40.9421 26.0291C40.8371 25.9927 40.9118 26.1474 40.8884 26.1861C40.7834 26.1497 40.8581 26.3043 40.8347 26.3407C40.7297 26.3043 40.8044 26.459 40.7811 26.4954C40.6783 26.4408 40.746 26.7274 40.7274 26.7547C40.669 26.8183 40.5126 26.8456 40.5663 26.9616L40.4589 27.0139V27.1186C40.3562 27.0708 40.4262 27.2937 40.4052 27.3255C40.2254 27.628 39.7585 28.3581 39.5508 28.7789C39.1329 28.8062 39.0115 29.2406 38.645 29.402C38.673 29.4907 38.5329 29.443 38.4839 29.4544L38.2715 29.7136C38.087 29.6681 38.0497 29.8092 37.9516 29.9206C37.5898 29.9729 37.4801 30.5711 37.0458 30.5438C37.0038 30.6279 36.9455 30.7257 36.8334 30.7007C36.7844 30.7826 36.684 30.9441 36.5673 30.9077L36.4062 31.1147H36.2988C36.1984 31.3626 35.9393 31.2307 35.8716 31.5309C35.5518 31.5604 35.1479 32.1177 34.9121 32.1541C34.8281 32.4497 34.8211 32.2564 34.646 32.361C34.4429 32.6817 34.0413 32.8205 33.8452 33.1411C32.1761 32.9615 33.1005 33.1593 33.2616 32.2587C33.3853 32.2973 33.2429 32.0631 33.369 32.1017C33.3737 31.9948 33.3387 31.8652 33.4764 31.8425C33.4274 31.8061 33.5534 31.4194 33.4227 31.4786C33.3853 31.4353 33.4834 31.2284 33.369 31.2716V31.167H33.3153V30.96C33.1239 30.9373 33.2499 30.6552 33.0492 30.7007C33.0165 30.5961 32.9955 30.4915 32.8904 30.4938C32.8974 30.4028 32.8717 30.3664 32.783 30.3391C32.6967 30.2686 32.5963 30.0298 32.4632 30.0798C32.4655 29.9547 32.1737 29.9047 32.0897 29.8728C32.106 29.791 32.0337 29.8296 31.9823 29.8205C31.9986 29.7387 31.9239 29.7773 31.8749 29.7682C31.9356 29.6909 31.5784 29.6363 31.5551 29.6113C31.6181 29.5203 31.2609 29.5294 31.2353 29.5067C31.2119 29.3133 30.6236 29.2906 30.4369 29.2474C30.3948 29.07 30.2688 29.2064 30.2758 29.0927C30.2221 29.0723 30.089 29.1359 30.117 29.0404C30.0633 29.0199 29.9303 29.0836 29.9583 28.9881H29.7995C29.8789 28.888 29.2836 28.9085 29.2673 28.8835C29.314 28.8039 29.0875 28.8016 29.0548 28.7789C29.0922 28.6879 28.9334 28.7402 28.8938 28.7266C28.9101 28.5651 28.4455 28.5992 28.3615 28.5719C28.3988 28.4809 28.2401 28.5332 28.2004 28.5196C28.2378 28.4286 28.079 28.4809 28.0417 28.4673C28.079 28.3763 27.9203 28.4286 27.8829 28.415C27.9226 28.324 27.7592 28.3763 27.7218 28.3627C27.7639 28.2398 27.5211 28.3808 27.5631 28.258C27.2619 28.3126 27.3203 28.1534 27.1359 28.1534C27.2059 28.0579 26.732 28.0738 26.7087 28.0488C26.7553 27.9669 26.5289 27.9669 26.4962 27.9442C26.5849 27.8077 24.9671 27.6644 25.0558 27.528C25.0278 27.5143 24.8504 27.5666 24.8971 27.4756C24.8691 27.462 24.6893 27.5143 24.736 27.4233C24.6613 27.396 24.1804 27.4279 24.2037 27.2664C24.2037 27.2414 23.5781 27.3255 23.6715 27.2141C23.6691 27.1913 23.1579 27.2687 23.2443 27.1618C23.2092 27.155 23.1742 27.1663 23.1906 27.2141H22.4435C22.4949 27.3096 22.2614 27.2505 22.2311 27.2664C22.2824 27.3619 22.049 27.3028 22.0186 27.3187C22.0933 27.462 21.358 27.3301 21.4327 27.4734C21.428 27.4938 21.1525 27.4961 21.2202 27.578C21.2039 27.5825 21.0685 27.553 21.1129 27.6303L20.8467 27.6826C20.8841 27.7599 20.7743 27.7281 20.7393 27.7349C20.7907 27.8304 20.5572 27.7713 20.5269 27.7872C20.4942 27.9555 20.3495 27.835 20.3658 27.9419C20.2864 28.0579 20.0717 28.0397 20.0997 28.2012C20.0973 28.2171 19.8779 28.2353 19.9409 28.3058H19.7799C19.8335 28.4195 19.5954 28.2944 19.5674 28.3058C19.5651 28.3786 19.4764 28.4332 19.4063 28.4104C19.355 28.5901 19.2452 28.4377 19.1939 28.6174H19.0865L19.0328 28.722C19.0351 28.7288 18.804 28.6902 18.8717 28.7743C18.825 28.788 18.6803 28.7357 18.7106 28.8266L18.4982 28.8789C18.5449 28.9676 18.3698 28.9199 18.3371 28.9312C18.3885 29.0109 18.0476 29.0609 18.0173 29.0882C18.064 29.1678 17.8352 29.1701 17.8049 29.1928L17.7512 29.2974H17.6438C17.6905 29.4134 17.3823 29.3384 17.4313 29.4544H17.1115C17.1559 29.5271 17.0345 29.5021 17.0041 29.5067C17.0695 29.5931 16.2828 29.7387 16.2571 29.7659C16.5162 29.4293 15.5077 29.161 15.5637 28.8835C15.5801 28.813 15.0128 28.531 15.1365 28.415C14.8494 28.3786 14.9404 28.324 14.8167 28.1557L14.6556 28.0511C14.707 27.9669 14.6043 27.9191 14.5482 27.8964V27.7918H14.4969L14.4432 27.5325C14.3871 27.5575 14.3778 27.4711 14.3895 27.4279L14.2284 27.3233C14.2074 27.2414 14.1817 27.1345 14.0673 27.1663C14.0043 26.9889 14.0066 26.7751 13.8012 26.6978C13.8572 26.5977 13.6985 26.5318 13.6401 26.4908C13.6424 26.4476 13.6541 26.3635 13.5864 26.3862C13.6401 26.3066 13.5327 26.252 13.479 26.2316C13.4884 26.1315 13.4884 26.0496 13.3716 26.0246C13.3623 25.9495 13.3156 25.7698 13.2106 25.7653C13.2526 25.688 13.1499 25.6015 13.1032 25.5583V25.4537H13.0495C13.1055 25.3764 12.9958 25.3172 12.9421 25.2991C12.9351 25.2263 12.8837 25.042 12.781 25.0398C12.7296 24.7737 12.6013 24.5189 12.5149 24.2073C13.2526 24.2801 14.5132 24.1778 14.8074 24.2073H15.5007V24.2597C15.5264 24.2324 16.0003 24.3256 15.9279 24.2073C15.9769 24.1755 16.1777 24.3256 16.1404 24.2073C16.6936 24.1755 17.8352 24.362 18.2741 24.2073C18.8087 24.1664 20.2654 24.3142 20.9401 24.2597C20.9284 24.1914 21.0078 24.1801 20.9938 24.2597C21.0335 24.2437 21.5914 24.3165 21.5261 24.2073C21.5914 24.2119 21.5728 24.2051 21.5798 24.2597H22.007C21.993 24.1914 22.0747 24.1801 22.0607 24.2597C22.9151 24.2619 25.1585 24.2824 25.7375 24.2073C26.2418 24.2301 28.3078 24.2619 28.5109 24.2073C28.728 24.3415 28.8938 24.1368 28.8844 24.2597C29.1809 24.2574 29.6291 24.2005 29.9513 24.2597C30.138 24.2255 30.8524 24.2233 30.9645 24.2597C30.9154 24.1118 31.2259 24.3552 31.1769 24.2073C31.401 24.2915 32.4796 24.2847 32.6173 24.2073C32.5379 24.3188 33.3457 24.2346 33.3643 24.2597C33.313 24.1641 33.5464 24.2233 33.5768 24.2073C33.5698 24.1641 33.5861 24.1505 33.6305 24.155C34.6763 24.3415 36.5626 24.2278 37.6295 24.2073C38.5096 24.2506 39.4667 24.2551 40.3445 24.2597C40.2675 24.13 41.444 24.2938 41.4651 24.2597C41.4604 24.5258 41.402 24.7214 41.318 24.9397ZM41.6915 23.4841C41.1896 23.9412 39.8239 23.525 39.0792 23.641C38.2575 23.6365 37.1999 23.7161 36.5206 23.5887C35.435 23.6729 33.348 23.6251 32.3091 23.641C32.2438 23.6251 32.1294 23.6797 32.1481 23.5887H31.401C31.4874 23.6706 30.8921 23.6683 30.9738 23.5887C30.7777 23.5523 30.3108 23.7547 30.2268 23.5887C29.8859 23.5228 29.6104 23.6797 29.321 23.641C29.391 23.5228 28.9685 23.6615 28.9474 23.641C28.8261 23.6365 28.7443 23.5432 28.5739 23.5887C26.8651 23.7002 24.8737 23.5796 23.0295 23.5887C20.2888 23.5796 16.5069 23.6387 13.4323 23.5887V23.641C13.4323 23.6115 12.9141 23.7093 13.0051 23.5887C12.7857 23.5933 12.3281 23.6456 12.2044 23.5364C12.1787 23.3704 11.7328 22.5789 12.2581 22.6539V22.7063C12.3281 22.7131 12.3141 22.7017 12.3118 22.6539C12.5195 22.5812 12.9561 22.845 13.1125 22.6539L13.2713 22.7063C13.2129 22.6062 13.5094 22.6721 13.5374 22.6539C13.8922 22.7881 14.6766 22.5357 15.1902 22.6539C15.1879 22.7699 15.2929 22.6676 15.2976 22.6539H16.2571L17.0041 22.7063C17.0765 22.6881 16.9808 22.6562 17.0578 22.6539C17.1302 22.6653 17.1699 22.754 17.1652 22.6539C17.9916 22.663 19.1449 22.6289 19.9386 22.7586C19.8919 22.663 20.116 22.7222 20.151 22.7063C20.1347 22.7836 20.2211 22.779 20.2024 22.7063C20.2514 22.7267 20.5152 22.6539 20.4685 22.7586C20.5899 22.8018 20.6903 22.6198 20.681 22.7586C20.7207 22.7313 21.2786 22.8222 21.2132 22.7063L21.372 22.7586C21.3253 22.663 21.5494 22.7222 21.5844 22.7063C21.7712 22.9655 22.3151 22.4561 22.3315 22.7586C22.7003 22.8177 23.2606 22.6221 23.5594 22.7586C23.48 22.8791 24.024 22.7358 24.038 22.7586C25.8286 22.6744 27.8199 22.8109 29.5287 22.7586C29.5054 22.6858 29.6058 22.6858 29.5824 22.7586H29.7949C29.8252 22.9655 30.2618 22.6335 30.2221 22.8109C30.2198 22.8359 30.794 22.6903 30.703 22.8109C30.7357 22.8268 31.0041 22.6562 31.0228 22.8109C31.3076 22.8086 31.9029 22.7836 32.2484 22.7586C32.8017 22.8859 33.7775 22.8268 34.2748 22.7586C34.3658 22.9451 35.2319 22.7904 35.2343 22.8109C35.3487 22.8086 35.7922 22.9837 35.8739 22.8109L36.0327 22.8632V22.8109C36.035 22.8268 36.3198 22.7654 36.2451 22.8632C36.2358 22.8313 36.9315 22.9337 36.8311 22.8109H37.0435C37.0365 22.7608 37.0528 22.7563 37.0972 22.7586C37.0248 22.8655 37.8209 22.8359 37.8442 22.8632V22.8109H38.003V22.8632L38.1617 22.8109C38.1127 22.8177 38.3555 22.9314 38.3205 22.8109C38.3275 22.8268 38.6053 22.7654 38.5329 22.8632L38.8527 22.9155C38.792 22.8086 39.1983 22.8859 39.2263 22.8632C39.1539 22.7745 40.2675 22.7768 40.1858 22.8632C40.5569 22.7904 41.409 22.8404 41.7849 22.8632C41.8012 23.0406 41.7732 23.4022 41.6915 23.4841ZM42.3312 13.7179C42.1911 13.6656 42.3638 14.0317 42.2238 13.9772C42.1818 14.0272 42.2868 14.2205 42.1701 14.1841C42.1514 14.3774 42.0627 14.5639 42.0627 14.8073C41.932 14.78 42.0323 15.0438 41.9016 15.0143V15.1712C41.8152 15.1507 41.8619 15.2303 41.8479 15.2758C41.7615 15.2554 41.8059 15.335 41.7942 15.3804C41.6145 15.4168 41.7522 15.5442 41.6355 15.5374C41.6215 15.6352 41.6728 15.7785 41.5281 15.7967C41.5024 15.8467 41.5678 15.9195 41.4744 15.9013V16.0059C41.325 16.0241 41.4697 16.3516 41.262 16.3698C41.29 16.6678 41.2129 17.0976 41.1546 17.3569C41.2783 17.2705 41.1756 18.1256 41.2083 18.137C41.2806 18.1097 41.2596 18.2007 41.262 18.2416C41.3647 18.1734 41.3413 18.6351 41.3693 18.6578C41.5421 18.6396 41.4977 19.1468 41.5281 19.2287C41.6168 19.1878 41.5724 19.3493 41.5818 19.3834C41.6542 19.3538 41.6331 19.4493 41.6355 19.488C41.7312 19.4311 41.7172 19.7723 41.7429 19.7996C41.8829 19.8655 41.7966 20.209 41.8503 20.3705C41.9623 20.3068 41.8806 20.7093 41.9039 20.7344H41.8503C41.8152 20.7548 41.9039 20.9413 41.7966 20.8913C41.7569 21.0164 41.8549 21.1665 41.8503 21.2029C41.7102 21.1483 41.8829 21.5167 41.7429 21.4622C41.7078 21.4781 41.7966 21.6714 41.6892 21.6168C41.6565 21.8579 41.5724 21.983 41.5281 22.1877C40.7577 22.1377 39.3757 22.2423 38.5423 22.1354C38.5212 22.1399 38.5306 22.2082 38.4349 22.1877V22.1354C38.2364 22.1172 37.6015 22.1331 37.4217 22.1877C37.4217 22.0376 36.9338 22.2127 36.9431 22.1877C37.0248 22.0899 36.3198 22.1058 36.3035 22.0831C36.3315 22.1513 36.2381 22.1354 36.1961 22.1354C36.2124 22.2468 36.0817 22.1581 36.0887 22.1354C35.8366 22.1445 35.6405 22.0103 35.3953 22.1354C35.4327 21.9557 35.5004 21.9739 35.6615 21.9784C35.6125 21.8488 35.9229 22.0057 35.8739 21.8738H35.9813C35.9043 21.7237 36.6443 21.9216 36.5673 21.7692C36.5906 21.7169 37.1766 21.8488 37.1019 21.7169C37.1205 21.6623 37.8232 21.7988 37.7415 21.6646C37.7649 21.6168 38.1827 21.7374 38.115 21.6123C38.75 21.6896 39.322 21.4599 39.9803 21.4053C40.062 21.3803 40.027 21.1551 40.034 21.0937C39.978 21.0869 39.9803 21.0983 39.9803 21.0414C39.7842 21.055 39.8122 21.0482 39.6605 20.9368C39.6978 21.0232 39.5391 20.9777 39.4994 20.9891C39.427 21.005 39.5204 21.0368 39.4457 21.0414V20.9891C39.357 21.0118 39.2776 21.0482 39.1796 20.9891C39.2169 21.1256 38.9601 20.9231 38.8061 20.9891C38.8551 21.0846 38.6263 21.0255 38.5936 21.0414C38.6426 21.171 38.3322 21.0164 38.3812 21.146C38.3415 21.1324 38.1851 21.0505 38.2224 21.146C38.2108 21.1483 36.8474 21.1551 36.9431 21.2506C36.6116 21.3098 36.1237 21.1642 35.8763 21.303C35.9019 20.7935 36.2755 20.6775 36.3035 20.3159C36.3852 20.3363 36.3478 20.2567 36.3572 20.2112C36.4389 20.2317 36.4015 20.1521 36.4109 20.1066C36.5229 20.1385 36.4039 19.9724 36.5182 20.002C36.5299 19.9474 36.4879 19.8815 36.5719 19.8974C36.5836 19.8428 36.5439 19.7768 36.6256 19.7928C36.6373 19.7404 36.5976 19.6722 36.6793 19.6881C36.6723 19.5903 36.6747 19.5039 36.7867 19.4812C36.8474 19.3538 36.8381 19.1605 36.9992 19.1173V19.0126C37.1112 19.0445 36.9945 18.8762 37.1065 18.908C37.1462 18.7761 37.0995 18.5828 37.2653 18.5441V18.4395C37.3773 18.4372 37.3867 18.3417 37.4264 18.2325C37.452 18.203 37.8653 18.2257 37.7999 18.1279C37.8326 18.1165 38.0007 18.2416 37.9586 18.1279C37.9983 18.1188 38.0917 18.1552 38.066 18.0756C38.101 18.0597 38.2668 18.1165 38.2248 18.0233C38.2598 18.0074 38.4255 18.062 38.3835 17.971C38.4115 17.9528 38.6496 18.0165 38.596 17.9187C38.8481 17.9528 39.1376 17.8231 39.3967 17.814C39.357 17.7253 39.5181 17.7754 39.5554 17.7617C39.5134 17.673 39.6792 17.7231 39.7142 17.7094C39.6582 17.6093 39.9523 17.6753 39.9803 17.6571C40.4005 17.4388 40.9561 17.5798 40.62 16.9816C40.5336 17.0521 40.2628 16.943 40.2464 17.0862C40.2021 17.1067 39.9336 17.0362 39.9803 17.1385C39.9336 17.1567 39.7282 17.0931 39.7679 17.1909C39.7188 17.2045 39.5764 17.1522 39.6068 17.2432C39.5624 17.2591 39.3523 17.2 39.3944 17.2955C39.3593 17.3182 38.9601 17.2409 39.0208 17.3478C38.9788 17.3637 38.764 17.3046 38.8084 17.4001C38.764 17.4115 38.6146 17.3637 38.6473 17.4524C38.6076 17.4683 38.3905 17.4092 38.4349 17.5047H38.3275C38.2458 17.6662 37.8839 17.5548 37.7415 17.6617C37.7742 17.4388 37.9796 17.3296 38.0077 17.0908C38.1501 17.0817 38.0263 16.7951 38.2201 16.7792C38.3205 16.5245 38.3578 16.2333 38.5936 16.1037C38.6006 16.0741 38.5586 15.9058 38.6473 15.949C38.659 15.7876 38.778 15.7398 38.7547 15.5851C38.8644 15.5715 38.8738 15.4623 38.8621 15.3759C38.9508 15.3964 38.9368 15.2758 38.9695 15.2212C39.0769 15.2076 39.0885 15.0984 39.0769 15.012C39.1889 15.0438 39.0722 14.8755 39.1842 14.9074C39.1609 14.7368 39.2613 14.8733 39.2379 14.7004C39.3453 14.6868 39.357 14.5776 39.3453 14.4934C39.5298 14.4434 39.3733 14.3365 39.5578 14.2865C39.5601 14.266 39.5274 14.0818 39.6115 14.1318C39.5951 13.9499 39.6932 14.1113 39.6652 13.8725C39.7399 13.9044 39.7142 13.8066 39.7188 13.7679C39.8076 13.8088 39.7609 13.6474 39.7725 13.611C39.8776 13.5996 39.8939 13.4859 39.8799 13.404C40.027 13.3972 39.9733 13.1288 39.8799 13.0924C39.6488 13.1197 39.7749 13.0356 39.6675 13.0401C39.6792 13.1515 39.6628 13.1515 39.5601 13.1447C39.4644 13.2926 39.4294 13.6064 39.2403 13.6132C39.2053 13.8703 39.1189 13.8634 39.0278 14.0295C38.9975 14.0795 39.0092 14.2705 38.9204 14.2364C38.8551 14.3797 38.7384 14.8778 38.5469 14.9119C38.5072 15.0438 38.5539 15.2372 38.3858 15.2758L38.3322 15.4828C38.1384 15.5465 38.3181 15.6306 38.066 15.7421C37.975 15.824 38.1197 16.0901 37.9586 16.106L37.9049 16.3129C37.8256 16.2902 37.8582 16.3744 37.8512 16.4176C37.6878 16.4608 37.6995 16.6518 37.6388 16.7815C37.5011 16.7678 37.4124 17.2227 37.3727 17.3C37.2793 17.3137 37.2513 17.2887 37.2653 17.1977C37.0085 17.1317 37.1929 16.6473 36.9992 16.5745C36.9921 16.4676 36.8824 16.3562 36.7867 16.3152C36.7774 16.2857 36.8217 16.1174 36.7354 16.1606C36.6933 15.9672 36.5789 15.8581 36.5766 15.642C36.4692 15.6284 36.4575 15.5215 36.4692 15.435C35.9299 15.1121 36 15.8149 36.1494 16.1628C36.2521 16.1083 36.1844 16.3926 36.2031 16.4221C36.3151 16.4426 36.3175 16.5404 36.3105 16.6291C36.4225 16.5972 36.3035 16.7633 36.4179 16.7337C36.4365 16.7724 36.3758 16.9248 36.4716 16.8884C36.4832 16.9316 36.4412 17.0157 36.5252 16.993C36.5533 17.0271 36.5463 17.2454 36.6326 17.2C36.663 17.225 36.6373 17.6275 36.74 17.5639C36.7494 17.6048 36.712 17.6935 36.7937 17.6685C36.7867 17.7572 36.789 17.8595 36.9011 17.8755C36.9455 18.0915 36.7634 18.6101 36.5813 18.6556C36.5649 18.6806 36.5533 18.9148 36.4739 18.8625C36.4552 18.8785 36.3898 19.2355 36.3128 19.1741C36.2965 19.2537 36.2801 19.4857 36.1517 19.4857C36.1237 19.5585 36.063 19.8564 35.9393 19.8496C35.9673 19.9269 35.8903 20.0156 35.8319 20.0566C35.8342 20.0862 35.8529 20.1953 35.7782 20.1612C35.7805 20.1908 35.7992 20.2999 35.7245 20.2658C35.7502 20.3409 35.6918 20.4046 35.6171 20.4228C35.6685 20.6798 35.4187 20.9936 35.2436 21.1506C35.2109 21.096 35.2249 20.9732 35.1362 20.9936C35.1642 20.9027 35.1035 20.8663 35.0288 20.8367C35.0195 20.7389 34.9775 20.5956 34.8701 20.5774C34.8397 20.4728 34.8421 20.3454 34.709 20.3181C34.7113 20.2658 34.737 20.1339 34.6553 20.1612C34.6833 20.0725 34.6203 20.0338 34.5479 20.0066C34.5689 19.9088 34.5433 19.8246 34.4405 19.7996C34.3518 19.6654 34.2071 19.3947 34.1744 19.2287H34.067C34.039 18.9626 33.8709 18.9444 33.9083 18.7102C33.8406 18.6829 33.7729 18.6396 33.8009 18.5532C33.7449 18.5077 33.5908 18.4486 33.6421 18.3462C33.5184 18.3349 33.4764 18.2098 33.4297 18.087C32.8297 18.2075 33.4437 19.0308 33.5908 19.2833C33.7075 19.3242 33.7775 19.4243 33.7519 19.5426C33.8639 19.5107 33.7449 19.679 33.8592 19.6472C33.8826 19.679 33.8219 19.7837 33.9129 19.7518C33.9363 19.7814 33.8756 19.8883 33.9666 19.8564L34.0203 20.0634C34.095 20.0247 34.1044 20.1862 34.1277 20.2203C34.3005 20.2567 34.3261 20.5024 34.3402 20.6366C34.4382 20.6479 34.4802 20.7662 34.5012 20.8435C34.5969 20.8026 34.5409 20.9641 34.5549 20.9982C34.6413 21.0096 34.6763 21.0801 34.6623 21.1528C34.8584 21.2256 34.7534 21.4804 34.9821 21.5691C34.9541 22.1718 34.6927 22.1809 34.1814 22.1399C34.2234 22.1308 33.997 22.2741 34.0227 22.1399H33.6491C33.6818 22.2377 33.5744 22.149 33.5418 22.1399V22.1922H33.4881C32.9091 21.9307 31.3963 22.5516 31.3006 21.6737C31.0322 21.3166 31.1466 20.632 31.0882 20.1157C30.9318 19.7723 31.0648 18.7943 31.408 18.5055L31.4617 18.1416C31.5621 18.1893 31.4967 17.9664 31.5154 17.9346C31.6298 17.9664 31.5084 17.8004 31.6228 17.83C31.6695 17.7936 31.5551 17.5752 31.6765 17.623C31.6508 17.4911 31.7185 17.4183 31.8352 17.3637C31.8843 17.3296 31.8469 17.1704 31.9426 17.2068L31.9963 16.8952L32.3161 16.6359C32.2928 16.5199 32.4049 16.3994 32.5286 16.4289L32.7947 16.065C32.9418 16.0559 33.0538 15.9832 33.1145 15.8581C33.2103 15.8831 33.2429 15.8262 33.2756 15.7534C33.3293 15.7398 33.5207 15.7239 33.4881 15.6488L33.8616 15.5965C33.8429 15.5237 33.9199 15.5488 33.969 15.5442C34.0764 15.3031 34.1907 15.4487 34.1814 15.3372C34.3892 15.3145 34.8234 15.3236 34.8748 15.1303C34.9214 15.1257 35.1269 15.1644 35.0872 15.078C35.1782 15.1052 35.2203 15.0461 35.2483 14.9733L35.5144 14.921C35.5424 14.8528 35.5844 14.7914 35.6755 14.8164C35.7128 14.6413 35.8016 14.8323 35.8342 14.6094C36.1494 14.5389 36.084 14.2023 36.3688 14.0909C36.3502 14.0158 36.3945 13.9521 36.4762 13.9362C36.4879 13.9112 36.4459 13.7952 36.5299 13.8316C36.5416 13.8066 36.4996 13.6906 36.5836 13.727C36.6023 13.7088 36.5416 13.52 36.6373 13.5723C36.6677 13.5723 36.642 13.1288 36.7447 13.2084V13.0515C36.8381 13.0947 36.7844 12.9309 36.7984 12.8968C36.9992 12.8513 36.8124 12.683 37.0108 12.6375C37.0272 12.6239 36.9711 12.426 37.0645 12.4829L37.1182 12.2236C37.319 12.1485 37.1299 12.078 37.3843 11.9643C37.3633 11.8961 37.4124 11.821 37.4917 11.8097C37.4357 11.5777 37.6551 11.5686 37.7042 11.3411C37.9446 11.282 37.9026 11.1387 38.1851 11.1319C38.2061 11.075 38.2621 10.9932 38.3438 11.0273C38.3158 10.9613 38.4092 10.9727 38.4512 10.975C38.3788 10.8703 38.9111 10.8999 38.9298 10.8703C38.8808 10.7407 39.1912 10.8954 39.1422 10.7657C39.4107 10.909 39.5601 10.6429 39.8893 10.7134C39.8402 10.843 40.1507 10.6861 40.1017 10.818H40.4752C40.4332 10.9136 40.599 10.8521 40.6363 10.8703C40.6503 10.9659 40.718 10.9818 40.7951 10.975C40.753 11.0705 40.9188 11.0091 40.9561 11.0273C40.9235 11.1387 41.0962 11.0204 41.0635 11.1319C41.2666 11.1069 41.1709 11.3252 41.5958 11.3912C41.6658 11.5777 41.7942 11.7278 41.9693 11.8074V11.912H42.023C42.0837 11.9984 42.0627 12.2236 42.1818 12.2236C42.1911 12.2623 42.1981 12.6421 42.2891 12.5875C42.2331 12.9127 42.3475 13.4199 42.3312 13.7179ZM18.4445 15.3804C18.7457 15.3099 18.9908 15.3554 18.9768 14.9642C19.1145 14.8983 19.0235 14.6504 18.8694 14.6526C18.8367 14.5276 18.8134 14.5389 18.762 14.4457C18.0336 14.4411 17.9426 14.9779 18.4445 15.3804ZM20.0436 15.899C20.2654 16.2493 20.7884 15.7625 20.6833 15.4328C20.5549 15.4305 20.4242 15.2667 20.3635 15.1735C20.3191 15.1689 20.2327 15.1985 20.2561 15.1212C20.0483 15.0393 19.9783 15.3714 19.8289 15.3804C19.8639 15.5715 19.7098 15.9399 20.0436 15.899ZM18.2858 16.8861C18.2741 16.6564 18.3978 16.4198 18.2858 16.2106C18.0243 16.2061 17.6835 15.9331 17.5924 16.2629C17.4804 16.2311 17.5971 16.3994 17.485 16.3675C17.471 16.3994 17.5294 16.6223 17.4313 16.5745C17.6134 17.0589 17.8516 17.0703 18.2858 16.8861ZM12.2604 18.808C12.3468 18.8261 12.3958 18.7807 12.4215 18.7033C12.4612 18.6783 12.6176 18.6738 12.5802 18.5987L12.7927 18.5464C12.7553 18.4736 12.9187 18.4645 12.9538 18.4418C12.9654 18.3303 13.1335 18.303 13.2199 18.2871C13.402 17.9778 13.4557 18.1802 13.5934 17.9232C13.8059 17.9187 13.8129 17.7526 14.0206 17.7162C13.9809 17.6048 14.1 17.5843 14.1817 17.5616C14.1537 17.4843 14.2471 17.5161 14.2891 17.5093C14.3101 17.4001 14.4082 17.3956 14.5015 17.4047C14.4619 17.3319 14.6276 17.3205 14.6603 17.3C14.6206 17.1909 14.742 17.1681 14.8214 17.1454C14.9731 16.852 15.1715 16.9634 15.1412 16.7815C15.0758 16.6905 14.9451 16.6291 14.9288 16.5222C14.6579 16.6678 14.3218 16.8702 14.128 16.9884C14.037 16.9702 14.1117 17.0612 14.0206 17.0408C14.016 17.2 13.5958 17.3842 13.4347 17.4047C13.381 17.6298 13.0145 17.5707 12.9538 17.7686C12.9117 17.7754 12.8207 17.7435 12.8487 17.8209C12.767 17.8459 12.6503 17.8641 12.6876 17.9778C12.4705 18.0824 12.2441 18.1552 12.2067 18.3417C11.9663 18.3303 12.0456 18.4622 11.8869 18.4463C11.9149 18.5214 11.8215 18.4918 11.7795 18.4986C11.7211 18.5805 11.6861 18.6851 11.5671 18.6533C11.5554 18.7738 11.427 18.8148 11.3009 18.8603C11.364 19.5471 12.0667 19.1764 12.2604 18.808ZM18.818 17.3546C18.7433 17.2545 18.748 17.3774 18.657 17.4069V17.6139C18.5145 17.6912 18.6033 17.9778 18.7643 17.9778V18.0824C18.8554 18.0642 18.8974 18.1052 18.9231 18.187C19.0958 18.2325 19.362 18.0756 19.3503 17.9278H19.4577C19.4507 17.4729 19.1986 17.2136 18.818 17.3546ZM15.0338 19.6927C14.8634 19.6813 14.6883 19.8815 14.6066 20.0043C14.5225 19.9838 14.4689 20.0316 14.4478 20.1089C14.4152 20.1294 14.2494 20.1407 14.2891 20.2135C14.2051 20.1931 14.1514 20.2408 14.128 20.3181C14.0463 20.35 13.7522 20.4023 13.7545 20.5251C13.6751 20.557 13.3786 20.6093 13.381 20.7321H13.2736C13.3086 20.7935 13.1429 20.8594 13.1125 20.889C13.1895 21.0391 13.2036 21.262 13.3786 21.2529C13.4183 21.2688 13.395 21.3985 13.5397 21.3575C13.6541 21.1096 13.7358 21.2893 13.8059 21.0983C13.9739 21.146 13.9553 20.8936 14.1257 20.9413C14.1514 20.864 14.2004 20.8185 14.2868 20.8367C14.4712 20.5251 14.5202 20.7321 14.6603 20.4728C14.8587 20.491 14.7116 20.3386 15.0875 20.3159C15.1785 20.0998 15.2953 20.2249 15.3536 20.0566C15.5591 20.0793 15.6128 19.8314 15.7808 19.8496C15.8369 19.7677 15.8742 19.6631 15.9933 19.695C16.033 19.6017 16.1497 19.4948 16.2594 19.488C16.2384 19.3788 16.2898 19.3902 16.3131 19.281C16.2594 19.2082 16.1567 19.165 16.152 19.0741C15.9559 19.1309 15.6314 19.14 15.5124 19.3856C15.426 19.3674 15.377 19.4129 15.3536 19.4903C15.2252 19.4925 15.0782 19.5699 15.0338 19.6927Z" fill="#222222"/>
</svg>
