<svg xmlns="http://www.w3.org/2000/svg" fill="none" viewBox="0 0 48 49"><path fill="currentColor" fill-rule="evenodd" d="m28.222 13.428-15.39 22.869a.396.396 0 0 1-.124.118l-4.445 2.672-1.55 2.116a.395.395 0 0 1-.637-.466l1.554-2.122 1.274-4.646a.393.393 0 0 1 .055-.118l13.173-19.23-.64-.381-5.546 7.89a.394.394 0 0 1-.646-.453l5.756-8.19a.394.394 0 0 1 .524-.112l.999.593 1.872-2.733a.394.394 0 0 1 .518-.12l.394.22.465-.916-.202-.111a.395.395 0 0 1-.146-.554l1.902-3.067a.394.394 0 0 1 .52-.14l3.144 1.673a.395.395 0 0 1 .151.553l-1.901 3.119a.394.394 0 0 1-.526.14l-.474-.26-.49.934.281.158a.394.394 0 0 1 .135.564Zm1.5-3.751.584-.958-2.448-1.303-.472.761 2.337 1.5Zm-.41.673L26.97 8.848l-.6.968 2.449 1.343.493-.809Zm-1.707 1.043-1.085-.595-.469.923 1.067.599.487-.927ZM11.843 36.014l-2.297-1.4-.914 3.33 3.211-1.93Zm13.83-20.21 1.655-2.462-2.43-1.364-1.64 2.393 2.414 1.432Zm-.442.655-2.42-1.436L9.885 33.896l2.562 1.562 12.785-19ZM33.899 14.854l2.255 1.302a1.608 1.608 0 0 1-1.608 2.784l-2.254-1.3a1.608 1.608 0 0 1 1.607-2.786Zm-.394.684a.82.82 0 0 0-.819 1.418l2.255 1.301a.82.82 0 0 0 .818-1.418l-2.254-1.301Z" clip-rule="evenodd"/><path fill="currentColor" fill-rule="evenodd" d="m36.247 21.928.27 1.098a.394.394 0 0 1-.301.48l-1.403.297.412 1.71a.394.394 0 0 1-.251.464l-2.225.793.447 1.809a.394.394 0 0 1-.334.486l-1.776.222L31.57 31a.395.395 0 0 1-.328.498l-1.92.253.257 2.071a.394.394 0 0 1-.312.435l-1.796.372.45 1.675a.394.394 0 0 1-.3.488l-2.145.45.42 1.893a.394.394 0 0 1-.277.465l-2.054.584.405 1.895a.394.394 0 0 1-.592.419l-7.834-4.792a.394.394 0 0 1-.122-.556l13.208-19.7a.394.394 0 0 1-.192-.346s-.01-1.422 1.88-2.278c.867-.393 1.29-.72 1.51-1.074.14-.223.192-.453.244-.7.146-.705.144-1.822.144-1.822a.394.394 0 0 1 .675-.276s1.33 1.354 2.605 2.285c.51.372 1.004.68 1.393.777.511.128 1.193.008 1.853-.186 1.035-.303 2.02-.803 2.263-1.003a.395.395 0 0 1 .616.155s.862 2.1-1.088 3.37c-1.528.995-2.547 1.68-2.408 3.416a.418.418 0 0 1 .001.037s-.015.924-.207 1.644c-.1.376-.26.698-.456.875a.395.395 0 0 1-.464.047l-.752-.443Zm-.938-.551-5.997-3.526-13.006 19.397 6.7 4.098-.29-1.359a.394.394 0 0 1 .279-.461l2.05-.583-.426-1.919a.394.394 0 0 1 .304-.471l2.128-.447-.45-1.677a.395.395 0 0 1 .3-.488l1.85-.383-.26-2.098a.395.395 0 0 1 .34-.44l1.856-.244-.485-1.717a.394.394 0 0 1 .33-.498l1.792-.224-.426-1.724a.394.394 0 0 1 .25-.466l2.227-.794-.424-1.76a.394.394 0 0 1 .302-.478l1.4-.296-.333-1.353a.396.396 0 0 1-.011-.09Zm-6.038-4.465 7.811 4.592c.06-.15.1-.34.136-.53.1-.519.116-1.06.119-1.163-.157-2.053.952-2.938 2.765-4.12.905-.589.969-1.425.901-1.942-.494.266-1.252.607-2.039.838-.806.236-1.642.35-2.266.195-.463-.116-1.062-.464-1.667-.905-.758-.554-1.534-1.25-2.059-1.745a8.292 8.292 0 0 1-.128 1.08c-.07.34-.155.65-.346.956-.274.441-.774.887-1.855 1.376-.966.438-1.274 1.051-1.372 1.368Z" clip-rule="evenodd"/></svg>