<svg xmlns="http://www.w3.org/2000/svg" fill="none" viewBox="0 0 48 49"><path fill="currentColor" fill-rule="evenodd" d="M27.258 33.782c-3.488 3.951-8.003 4.793-8.003 4.793a.396.396 0 0 1-.19-.012C10.5 35.871 8.457 30.68 7.42 26.008c-1.028-4.627.155-11.405.155-11.405a.393.393 0 0 1 .067-.16s.622-.904 1.922-.746c.852.103 4.198 1.225 7.392 1.646.142-2.735.523-4.918.523-4.918a.395.395 0 0 1 .067-.161s.622-.903 1.922-.746c1.04.127 5.803 1.772 9.463 1.804 3.638.031 7.807-1.164 9.187-1.51 1.733-.433 2.346.814 2.346.814.01.018.017.037.024.056.868 2.521.465 10.228.465 10.228a.48.48 0 0 1-.003.031C39.388 32.49 29.16 34.396 29.16 34.396a.394.394 0 0 1-.192-.011c-.601-.19-1.17-.39-1.71-.603Zm4.298-16.948s.728 1.294 2.14 1.57c.903.177 2.113-.043 3.588-1.395a.434.434 0 0 0 .029-.608.424.424 0 0 0-.602-.03c-1.184 1.085-2.128 1.33-2.853 1.188-1.03-.202-1.56-1.15-1.56-1.15a.424.424 0 0 0-.581-.162.433.433 0 0 0-.161.587Zm-1.018 10.791c-.088.318-.182.626-.283.926 1.98-.505 2.664-2.04 2.664-2.04a.394.394 0 0 0-.372-.559l-1.642.056c-.049.27-.103.536-.161.795l1.037-.035a3.457 3.457 0 0 1-1.243.857ZM16.923 16.13c-3.221-.423-6.595-1.546-7.454-1.65-.63-.077-1.007.234-1.135.365-.143.862-1.07 6.824-.144 10.991.986 4.439 2.926 9.367 11.013 11.944.627-.14 4.296-1.073 7.277-4.322 1.75-1.908 3.263-4.615 3.782-8.43.021-.387.392-7.455-.41-9.873-.071-.104-.49-.638-1.447-.399-1.409.352-5.67 1.565-9.385 1.533a17.433 17.433 0 0 1-2.097-.16Z" clip-rule="evenodd"/><path fill="currentColor" fill-rule="evenodd" d="M10.92 20.931a.395.395 0 0 1 .687-.389s.49.869 1.443 1.054c.67.13 1.544-.094 2.64-1.088a.394.394 0 0 1 .529.584c-1.365 1.238-2.484 1.44-3.32 1.278-1.305-.253-1.979-1.439-1.979-1.439ZM22.076 20.995a.394.394 0 0 1 .686-.389s.49.868 1.443 1.053c.67.13 1.544-.094 2.64-1.087a.394.394 0 0 1 .53.584c-1.365 1.238-2.484 1.44-3.32 1.277-1.305-.253-1.98-1.438-1.98-1.438ZM16.194 30.453l6.528-.222a.394.394 0 0 1 .372.558s-.931 2.09-3.767 2.195c-2.914.108-3.499-2.026-3.499-2.026a.394.394 0 0 1 .366-.505Zm.664.766c.34.445 1.052 1.028 2.44.977 1.38-.051 2.213-.667 2.658-1.15l-5.098.173Z" clip-rule="evenodd"/></svg>