<svg xmlns="http://www.w3.org/2000/svg" fill="none" viewBox="0 0 48 49"><path fill="currentColor" d="M18.992 34.851c.257.881.222.858-.7 1.126-.916.269-.94.31-1.197-.572-.18-.624-.122-.642-.309-1.26-.18-.625-.18-.625-.362-1.249-.18-.624-.239-.607-.426-1.231-.18-.625-.175-.625-.355-1.249-.181-.624-.152-.636-.333-1.255l-.362-1.248c-.257-.881-.257-.846.665-1.115.922-.268.881-.292 1.138.59.181.624.187.624.368 1.242.18.625.187.625.367 1.243.181.625.193.619.374 1.243l.362 1.25c.18.623.186.623.367 1.248.181.624.222.613.403 1.237Zm6.121-2.13c-.356-.45-.507-.554-.706-.496-.093.03-.198.152-.361.28-.21.158-.502.315-.794.403-.607.175-.975-.024-1.173-.7-.21-.724-.198-.724-.414-1.448-.216-.723-.759-.793-.368-1.435.438-.706.776-.216 1.576-.45.805-.233.764-.262.525-1.073-.24-.811-.199-.805-1.004-.572-.8.233-.77.537-1.599.45-.338-.036-.082-.328-.175-.654-.25-.852-.257-.829-1.144-.572-.887.256-.922.25-.67 1.103.128.447.258.893.39 1.336.132.444.263.889.391 1.336.193.666.204.666.397 1.337.193.665.198.665.391 1.33.146.502.373.905.66 1.202.326.339.752.514 1.219.59.414.064.875.052 1.36-.088.502-.146 1.033-.479 1.47-.846.263-.222.415-.327.362-.496-.03-.094-.058-.187-.333-.531v-.006Zm1.027-8.024c0-.262.018-.437-.011-.548-.064-.216-.245-.21-.782-.204-.298 0-.479 0-.595.035-.222.064-.228.25-.21.735l.034 1.15c.018.571.03.571.047 1.149 0 .268.012.444.047.56.064.222.233.216.718.216.25 0 .426 0 .536-.035.216-.064.216-.245.222-.735 0-.578.018-.578.024-1.162.005-.583-.024-.577-.024-1.16h-.006Zm7.587 3.431c-.251-.239-.572-.379-.963-.466a3.718 3.718 0 0 0-1.086-.082c-.467.03-.467.035-.933.064-.613.035-.899-.07-.98-.35-.1-.344.151-.671.799-.858.49-.14.986-.081 1.272-.006.262.059.39.117.502.082.134-.04.239-.198.385-.648.146-.449.18-.612.14-.747-.03-.093-.134-.186-.391-.268-.356-.117-.753-.152-1.179-.146-.373 0-.77.018-1.184.134-.45.135-.864.333-1.19.59-.369.291-.654.653-.8 1.062-.14.397-.14.852 0 1.319.169.577.513.945.95 1.178.439.234.964.345 1.512.316.531-.03.531-.065 1.062-.1.578-.035.864.117.946.397.105.356-.129.724-.811.922-.76.222-1.214.163-1.792.006-.21-.053-.338-.123-.461-.088-.128.035-.18.17-.333.642-.14.438-.204.572-.169.7.035.123.21.187.455.269.391.134.84.245 1.36.245.42 0 .87-.093 1.36-.24.466-.133.892-.303 1.23-.565a2.46 2.46 0 0 0 .806-1.086c.152-.408.17-.857.023-1.342-.11-.39-.291-.7-.536-.934h.006Zm5.275 2.918c-.222.064-.432-.157-.496-.385-.175-.6-.245-.583-.42-1.19-.175-.601-.199-.596-.374-1.202-.175-.601-.163-.607-.344-1.208-.175-.601-.28-.572-.455-1.173-.175-.601-.088-.63-.263-1.232-.175-.6-.023-.647-.198-1.248-.175-.601-.403-.537-.578-1.138-.175-.601-.146-.613-.321-1.214-.175-.601-.187-.601-.362-1.202s.304-.945-.245-1.249c-.543-.303-.624.134-1.225.31-.595.174-.619.104-1.214.28-.595.174-.525.42-1.12.595-.596.175-.619.099-1.214.274-.595.175-.572.257-1.167.432-.596.175-.63.052-1.232.227-.595.175-.572.263-1.167.432-.595.17-.583.222-1.178.397-.596.175-.677-.1-1.273.076-.595.175-.542.35-1.143.525-.596.175-.613.117-1.208.292-.596.175-.59.186-1.19.362-.596.175-.62.099-1.214.268-.596.175-.543.362-1.138.531-.596.175-.637.047-1.232.222s-.595.187-1.19.362-.607.14-1.202.315-.578.239-1.173.408l-1.19.35c-.596.175-.607.14-1.203.315-.595.175-.88-.175-1.178.368-.298.554.046.63.221 1.237.175.607.31.566.485 1.167.175.601.192.601.367 1.202s.28.572.455 1.173c.175.601.129.619.304 1.22s.18.601.356 1.202c.175.601.082.63.257 1.231.175.601.146.613.32 1.214.176.601.35.554.526 1.156.175.6.105.624.286 1.225.064.222-.134.46-.356.525-.041.012-.076-.035-.111-.035-.181 0-.485-.012-.543-.193-.18-.624-.035-.665-.222-1.29-.18-.623-.105-.647-.286-1.271-.18-.625-.326-.584-.507-1.202-.181-.625-.076-.654-.263-1.278-.18-.625-.21-.613-.39-1.237-.182-.625-.188-.625-.368-1.243-.181-.625-.146-.63-.327-1.255-.181-.624-.088-.648-.269-1.272-.18-.625-.35-.572-.53-1.196-.182-.625-.1-.648-.28-1.273-.065-.221.034-.35.256-.414.006 0-.058-.146-.053-.151.52-.38.514-.391 1.033-.777.52-.385.607-.262 1.127-.647.519-.386.53-.362 1.05-.747.52-.386.467-.45.986-.835.52-.385.578-.297 1.097-.682.52-.386.42-.52.94-.905s.548-.344 1.068-.73c.519-.385.542-.35 1.062-.735.519-.385.566-.32 1.085-.7.52-.385.49-.42 1.01-.8.519-.385.49-.42 1.01-.799.518-.385.478-.438.991-.823.52-.385.525-.373 1.045-.752.52-.386.525-.374 1.038-.76.52-.384.543-.35 1.063-.729.519-.379.466-.455.98-.84.52-.385.496-.414 1.015-.793.52-.386.63-.228 1.15-.613.52-.385.508-.403 1.021-.782.105-.076.25-.274.373-.234.123.041.094.298.129.42.17.584.274.555.443 1.133.17.583.245.56.42 1.143.17.584-.367 1.098.222 1.25.759.198.671-.49 1.372-.847.11-.052.297-.03.408.018.11.046.105.216.134.332.205.695.333.654.537 1.348.204.695.03.741.234 1.436.204.694-.135 1.027.495 1.389.602.344.69-.21 1.36-.409.105-.03.24-.07.339-.017.099.052.087.198.116.309.181.624.135.636.316 1.26.18.625.285.596.466 1.22.181.624.076.654.257 1.278s.216.613.397 1.237c.18.624.274.595.455 1.22.18.624.245.606.426 1.225.18.625.023.671.204 1.29.181.624.35.572.531 1.196.181.624.041.665.222 1.29.12.416.241.83.362 1.243.064.221.017.519-.204.589l-.006-.012ZM13.547 23.07c.181.59.432-.303.98-.583.55-.28.608-.164 1.156-.444.549-.28.485-.402 1.033-.683.549-.28.63-.116 1.173-.396.549-.28.514-.345 1.062-.625.549-.28.537-.297 1.086-.578.548-.28.519-.332 1.067-.612.549-.28.596-.181 1.144-.461.549-.28.572-.234 1.115-.514.548-.28.502-.373 1.044-.647.549-.28.596-.181 1.144-.462.549-.28.531-.309 1.08-.589.548-.28.502-.362 1.05-.642.549-.28.52-.338 1.062-.613.549-.28.934.1 1.208-.449.24-.478-.315-.53-.467-1.044-.152-.514-.006-.56-.157-1.074-.152-.514.18-.969-.345-1.074-.63-.128-.595.269-1.062.811-.414.49-.472.438-.992.817-.52.38-.525.374-1.038.753-.52.38-.52.373-1.04.759-.519.379-.542.35-1.061.73-.52.378-.461.454-.98.834-.52.379-.497.414-1.01.793-.52.38-.63.228-1.15.613-.52.38-.502.397-1.02.782-.52.38-.404.537-.917.916-.52.38-.648.204-1.167.584-.514.379-.455.466-.969.846-.52.379-.467.449-.986.828-.514.38-.613.251-1.132.63-.52.38-1.103.17-.91.783v.011Zm19.176-6.045c-.315-.56-.216-.578-.391-1.197-.181-.612.18-.98-.409-1.225-.595-.251-.56.356-1.137.653-.578.292-.584.28-1.162.578-.577.292-.577.286-1.155.578-.578.292-.595.257-1.173.548-.578.292-.537.374-1.109.666-.578.291-.56.326-1.138.618-.578.292-.665.123-1.237.42-.572.298-.566.316-1.144.607-.577.292-.49.467-1.062.759-.577.292-.677.093-1.254.39-.578.293-.526.392-1.103.684-.578.291-.537.367-1.115.66-.578.29-.653.145-1.225.437-.578.291-.508.426-1.086.718-.577.291-.589.262-1.167.554-.577.292-1.435-.064-1.248.554.186.607.659-.262 1.272-.437.612-.181.659-.006 1.272-.187.612-.181.59-.251 1.202-.426.607-.181.6-.199 1.214-.38.607-.18.595-.233 1.202-.414.612-.18.642-.076 1.248-.25.613-.182.625-.13 1.232-.31.613-.18.578-.28 1.19-.455.607-.181.642-.076 1.249-.251.607-.175.601-.21 1.208-.391.607-.181.584-.268 1.19-.45.607-.174.59-.239 1.203-.42.606-.175.653-.017 1.266-.198.607-.18.56-.35 1.167-.525.607-.181.653-.035 1.26-.21s.951.175 1.255-.385c.303-.566.023-.695-.321-1.313h.006Z"/></svg>