<svg xmlns="http://www.w3.org/2000/svg" fill="none" viewBox="0 0 48 49"><g clip-path="url(#a)"><path fill="currentColor" d="M36.26 32.107c0-.671-.116-.671-.116-1.336s.082-.671.082-1.342c0-.67-.07-.67-.07-1.336 0-.665.105-.67.105-1.336 0-.665.04-.67.04-1.335 0-.665.03-.671.03-1.336v-2.672c0-.665-.134-.67-.134-1.336 0-.665.075-.67.075-1.336 0-.665.041-.67.041-1.335 0-.566-.052-.66-.07-1.074a.178.178 0 0 0 .059-.07c.035-.076 0-.146-.065-.216-.005-.227-.186-.437-.42-.437h-.005c-.245-.32-.222-.502-.624-.904-.496-.496-.485-.514-.98-1.01-.496-.495-.625-.373-1.12-.869-.496-.495-.531-.466-1.027-.962-.496-.496-.52-.478-1.015-.974 0 0 .04-.041.04-.047-.023-.023.065-.21.036-.227-.006 0-.146.227-.152.221-.035-.017.03-.303-.006-.309 0 0-.017.04-.023.04-.023 0-.064.042-.093.042-.665 0-.665-.03-1.33-.03-.666 0-.666-.017-1.33-.017-.665 0-.665.04-1.33.04-.666 0-.666.135-1.33.135-.665 0-.665-.117-1.33-.117-.666 0-.666.175-1.33.175-.665 0-.665-.169-1.33-.169-.666 0-.666.012-1.33.012-.665 0-.665.117-1.33.117-.666 0-.666.035-1.33.035-.665 0-.665-.152-1.33-.152s-.665.175-1.33.175-.665-.187-1.33-.187-.665-.07-1.33-.07-.665.024-1.33.024-.665.081-1.33.081-.665.17-1.33.17-.665-.298-1.33-.298c-.666 0-.666.227-1.33.227-.24 0-.397.07-.397.31 0 .659.122.659.122 1.318 0 .66-.297.66-.297 1.318 0 .66.029.66.029 1.319 0 .659.222.659.222 1.318 0 .66-.006.66-.006 1.318 0 .66-.216.665-.216 1.324 0 .66.018.66.018 1.319 0 .659-.006.659-.006 1.318 0 .66.151.66.151 1.318 0 .66-.198.66-.198 1.325 0 .665.018.659.018 1.318 0 .66.186.66.186 1.318 0 .66-.192.66-.192 1.319 0 .659.175.659.175 1.318 0 .66.099.66.099 1.318v1.319c0 .659-.193.659-.193 1.318 0 .66.059.66.059 1.318 0 .66.005.66.005 1.324 0 .665-.122.66-.122 1.325 0 .239.297.402.537.402a.39.39 0 0 0 .408-.402c0-.648.017-.648.017-1.295 0-.648.106-.648.106-1.295 0-.648-.1-.648-.1-1.295 0-.648-.14-.648-.14-1.301 0-.654-.017-.648-.017-1.295 0-.648.146-.648.146-1.301 0-.653-.053-.648-.053-1.3 0-.654-.093-.648-.093-1.296 0-.647.14-.647.14-1.295 0-.647.093-.647.093-1.3 0-.654-.064-.648-.064-1.296 0-.647-.163-.647-.163-1.3 0-.654.204-.648.204-1.301 0-.654-.117-.648-.117-1.301 0-.654-.023-.648-.023-1.301 0-.653.216-.648.216-1.3v-1.302c0-.653-.094-.647-.094-1.3 0-.654-.105-.648-.105-1.301 0-.654-.291-.735.164-1.196.449-.455.536-.175 1.178-.175.642 0 .642.017 1.283.017.642 0 .642-.093 1.284-.093.641 0 .641.082 1.283.082.642 0 .642.134 1.283.134.642 0 .642-.204 1.284-.204.641 0 .641.145 1.283.145.642 0 .642-.035 1.283-.035.642 0 .642.111 1.284.111.641 0 .641.012 1.283.012.642 0 .642-.216 1.283-.216.642 0 .642.035 1.284.035.641 0 .641.035 1.283.035.642 0 .642.1 1.283.1.642 0 .642.063 1.284.063.641 0 .641-.21 1.283-.21.642 0 .642.035 1.283.035.642 0 .642.088 1.29.088.647 0 .915-.554 1.33-.064.49.577-.14.793-.14 1.551 0 .759.017.759.017 1.517 0 .758.163.758.163 1.517 0 .239.105.49.339.49.624 0 .624-.024 1.242-.024s.624-.14 1.243-.14c.618 0 .624-.023 1.242-.023h.747c.029.385.099.49.099 1.033 0 .67.017.67.017 1.341 0 .671-.099.671-.099 1.342 0 .67-.006.67-.006 1.336 0 .665.14.67.14 1.336 0 .665-.052.67-.052 1.335 0 .665.012.671.012 1.336s-.135.671-.135 1.336.076.67.076 1.336c0 .665-.052.67-.052 1.336 0 .665-.006.67-.006 1.336 0 .665.064.67.064 1.335 0 .665.047.671.047 1.336s.035.671.035 1.336-.018.67-.018 1.336c0 .665.041.67.041 1.336 0 .239.1.501.333.501s.466-.268.466-.501v-1.342c0-.67-.017-.67-.017-1.342 0-.67.093-.67.093-1.341 0-.671-.099-.671-.099-1.336l.04.047ZM34.675 15.58c-.18.554-.472.186-1.056.186-.583 0-.636-.431-1.207-.285-.66.163-.817.647-1.231.233-.414-.414.175-.683.175-1.266s.023-.583.023-1.172c0-.59-.682-1.056-.128-1.243.59-.198.543.426.986.863.443.438.46.42.898.858.438.437.397.484.834.922.438.437.899.309.706.904Zm-23.03.035c0 .449-.011.437-.502.437-.53 0-.723-.396-1.079 0-.396.444.041.607.041 1.202s-.017.595-.017 1.19-.012.595-.012 1.19c0 .484 0 .507-.484.507s-.467-.023-.467-.495c0-.595-.017-.595-.017-1.19s.006-.595.006-1.19.373-.735-.024-1.179c-.356-.396-.513-.035-1.044-.035-.496 0-.502.018-.502-.431 0-.45 0-.473.502-.473.776 0 .776.03 1.552.03s.776-.024 1.551-.024c.49 0 .502.012.502.467l-.006-.006Zm.543 4.036c0-.682.023-.682.023-1.365 0-.682-.012-.682-.012-1.365v-1.365c0-.455 0-.449.479-.449.478 0 .49-.006.49.45 0 .524-.187.554-.041 1.061a1.79 1.79 0 0 1 .968-.315c.42 0 .776.128 1.015.38.24.244.35.6.35 1.026 0 .974.018.974.018 1.948 0 .455 0 .467-.479.467-.478 0-.495-.006-.495-.467 0-.886.04-.886.04-1.779 0-.42-.25-.665-.665-.665-.286 0-.589.146-.752.32-.07.526.011.532.011 1.063 0 .53.024.53.024 1.061 0 .455-.018.473-.49.473-.473 0-.484-.012-.484-.473v-.006Zm7.303-2.496a1.441 1.441 0 0 0-.367-.484 1.513 1.513 0 0 0-.537-.304c-.187-.058-.397-.064-.613-.064-.215 0-.42.023-.606.082a1.748 1.748 0 0 0-.555.268 1.497 1.497 0 0 0-.379.49c-.093.175-.157.38-.18.595-.024.268.023.73.046.998.018.21.07.408.158.583.093.18.221.338.379.472.152.129.332.222.53.292.181.058.386.076.602.076.215 0 .425-.012.606-.064.204-.064.38-.17.531-.298.157-.128.28-.291.373-.478.088-.18.175-.373.193-.583.023-.269.035-.73.012-.998-.018-.216-.111-.402-.199-.583h.006Zm-.793 1.417a.774.774 0 0 1-.228.496.688.688 0 0 1-.502.21.698.698 0 0 1-.501-.21.769.769 0 0 1-.251-.49 3.277 3.277 0 0 1 .018-.677.779.779 0 0 1 .233-.49.734.734 0 0 1 .502-.21c.21 0 .39.076.519.193.128.122.186.297.204.502.023.227.023.443 0 .67l.006.006Zm3.249 1.36c.291 0 .606-.106.81-.205.059 0 .006.07.006.129 0 .425-.262.694-.77.694-.233 0-.49-.07-.758-.193-.146-.058-.245-.093-.332-.093-.094 0-.158.058-.263.315-.076.17-.07.25-.07.32 0 .094.053.147.21.217.35.163.764.297 1.313.297.49 0 .904-.17 1.19-.46.268-.275.449-.672.449-1.202 0-.625-.03-.625-.03-1.249 0-.624.012-.624.012-1.248 0-.397-.006-.513-.239-.648-.192-.116-.7-.32-1.377-.32-.443 0-.834.122-1.12.332-.32.24-.507.595-.548 1.01-.023.238-.052.7-.029.933.04.396.233.74.508.974.268.233.63.385 1.038.385v.011Zm-.566-2.153c.058-.356.25-.59.712-.59.256 0 .501.053.647.152.07.765.1.77.03 1.535-.146.099-.42.163-.677.163-.461 0-.7-.24-.753-.595-.023-.158.018-.513.041-.67v.005Zm4.24-1.703c0 .262-.163.309 0 .525a1.68 1.68 0 0 1 .94-.298c.274 0 .508.064.706.175.222.117.402.28.519.508.105.204.152.449.152.717V19c0 .32-.012.327-.012.648 0 .455.006.455-.467.455-.472 0-.495 0-.495-.455 0-.298.04-.298.04-.595 0-.298-.017-.298-.017-.595 0-.298-.012-.298-.012-.595 0-.42-.216-.636-.636-.636-.286 0-.548.128-.711.297-.064.344-.012.35-.012.706s.012.356.012.706v.706c0 .455-.018.478-.49.478-.473 0-.49-.023-.49-.478V18.276c0-.339-.006-.344-.006-.683 0-.338.012-.344.012-.682 0-.339-.012-.344-.012-.683 0-.338.023-.344.023-.682 0-.455-.012-.473.467-.473.478 0 .496.018.496.473 0 .262-.012.262-.012.525l.006.006ZM10.076 23.49c-.397.443.012.6.012 1.196 0 .595-.012.595-.012 1.19s.012.595.012 1.19c0 .484 0 .484-.49.484s-.479 0-.479-.473c0-.595-.029-.595-.029-1.19s.035-.595.035-1.19.385-.752-.011-1.201c-.356-.397-.543.011-1.074.011-.496 0-.49 0-.49-.455s0-.437.49-.437c.776 0 .776-.03 1.552-.03s.776.03 1.552.03c.49 0 .484-.024.484.437s.005.432-.485.432c-.53 0-.717-.38-1.067.012v-.006Zm2.094 1.546c0-.345.047-.345.047-.683 0-.338-.012-.344-.012-.682 0-.339-.023-.345-.023-.683 0-.455.006-.467.49-.467s.449.012.449.467c0 .263.012.263.012.525 0 .263-.152.32 0 .53.262-.174.589-.308.95-.308.275 0 .514.052.718.157.222.117.38.31.49.537.105.204.175.437.175.712v.647c0 .32-.023.327-.023.648v.647c0 .455.017.467-.461.467-.479 0-.473-.006-.473-.467 0-.297.018-.297.018-.595 0-.297-.018-.297-.018-.595 0-.297-.023-.297-.023-.595 0-.42-.204-.665-.624-.665-.286 0-.566.152-.73.327-.063.344 0 .35 0 .706 0 .355-.029.355-.029.705s.041.356.041.706c0 .455-.017.484-.49.484-.472 0-.478-.023-.478-.484 0-.338.023-.338.023-.682 0-.344-.04-.344-.04-.683 0-.338-.006-.344-.006-.682l.017.006Zm4.381 1.895c.152.222.367.403.624.52a1.936 1.936 0 0 0 1.406.07c.204-.065.385-.164.537-.292.157-.128.28-.298.373-.484a1.59 1.59 0 0 0 .146-.584c.023-.268.058-.723.035-.991a1.654 1.654 0 0 0-.146-.601 1.487 1.487 0 0 0-.402-.473c-.152-.128-.35-.192-.555-.256-.186-.059-.379-.117-.595-.117-.297 0-.566.053-.799.158a1.568 1.568 0 0 0-.63.519c-.152.216-.21.484-.233.77-.023.268-.053.723-.03.991a1.6 1.6 0 0 0 .269.765v.005Zm.706-1.598c.017-.204.076-.373.204-.496a.758.758 0 0 1 .508-.221c.21 0 .39.099.519.215a.77.77 0 0 1 .221.502c.024.228.018.443 0 .677-.017.204-.07.402-.204.519-.128.117-.32.163-.537.163-.215 0-.408-.046-.536-.163-.129-.123-.187-.315-.204-.52-.024-.233 0-.448.023-.676h.006Zm3.232.788c0-.31-.024-.31-.024-.625V24.25c0-.455.012-.443.49-.443.479 0 .473-.018.473.443v.59c0 .297.017.29.017.588s-.011.292-.011.59c0 .215.052.39.169.501a.68.68 0 0 0 .501.193c.269 0 .543-.082.7-.187.07-.373.012-.38.012-.758 0-.38-.018-.38-.018-.759v-.758c0-.455 0-.467.479-.467.478 0 .49.006.49.467v.793c0 .397-.023.397-.023.8 0 .402.017.396.017.799 0 .402-.006.513-.24.641a2.476 2.476 0 0 1-.688.257c-.215.053-.46.064-.735.064-.221 0-.431-.023-.612-.081a1.486 1.486 0 0 1-.548-.286 1.304 1.304 0 0 1-.333-.52c-.07-.18-.105-.379-.105-.606l-.011.012Zm7.128-2.013c.239.245.385.607.385 1.027 0 .974-.03.974-.03 1.948 0 .455.006.467-.466.467-.473 0-.478-.006-.478-.467 0-.887-.018-.887-.018-1.78 0-.42-.204-.687-.618-.687-.286 0-.566.175-.73.344-.07.525-.011.53-.011 1.061 0 .531.023.531.023 1.062 0 .455-.017.443-.49.443-.472 0-.49.018-.49-.443V25.72c0-.682-.011-.682-.011-1.365 0-.682.046-.682.046-1.365 0-.455-.023-.467.455-.467.479 0 .473.006.473.467 0 .525-.128.543.023 1.05.263-.175.572-.32.928-.32.42 0 .781.145 1.02.396l-.011-.006Zm-15.978 6.37c0 .3-.163.45-.49.45h-1.061v3.563c0 .323-.164.485-.49.485-.327 0-.49-.158-.49-.473v-3.576H8.045c-.33 0-.496-.15-.496-.449 0-.303.165-.455.496-.455h3.103c.327 0 .49.152.49.455Zm3.839 3.39c0 .326.011.326.011.647 0 .455-.011.46-.49.46-.478 0-.495 0-.495-.46 0-.298.023-.298.023-.595 0-.298-.03-.298-.03-.595 0-.298.012-.298.012-.595 0-.42-.215-.665-.63-.665-.286 0-.566.151-.729.32-.064.345 0 .35 0 .706s-.011.356-.011.706.029.356.029.706c0 .455-.012.478-.49.478-.479 0-.455-.017-.455-.478 0-.338-.035-.338-.035-.682 0-.345-.006-.345-.006-.683 0-.338.035-.344.035-.682v-.683c0-.338-.023-.344-.023-.682 0-.339.017-.345.017-.683 0-.455 0-.472.472-.472.473 0 .479.017.479.472 0 .263-.012.263-.012.525 0 .263-.14.31.018.52.262-.176.577-.327.933-.327.274 0 .502.099.706.21.222.116.402.28.513.507.105.204.158.443.158.718 0 .326-.006.326-.006.647 0 .32.017.327.017.648l-.011.011Zm4.03-1.85c-.099-.18-.233-.338-.39-.467a1.64 1.64 0 0 0-.531-.303c-.181-.064-.385-.076-.607-.076-.221 0-.414.035-.6.094-.205.07-.38.163-.532.285a1.47 1.47 0 0 0-.379.467 1.595 1.595 0 0 0-.151.583c-.024.269-.053.724-.024.992.018.21.065.414.158.595.093.187.227.344.385.473.152.128.327.239.53.303.187.052.397.052.613.052.216 0 .426-.005.607-.064.204-.064.373-.18.525-.309.157-.128.291-.28.385-.467.087-.175.163-.367.18-.583.024-.268.042-.73.018-.997a1.493 1.493 0 0 0-.186-.584v.006Zm-.764 1.43a.729.729 0 0 1-.233.5.821.821 0 0 1-.53.182.718.718 0 0 1-.503-.204.706.706 0 0 1-.227-.485c-.023-.233-.04-.449-.023-.676a.759.759 0 0 1 .752-.7c.21 0 .403.07.531.186a.77.77 0 0 1 .233.514c.024.227.024.449 0 .682Zm5.017-.963c0 .396-.018.396-.018.799 0 .402.018.397.018.8 0 .402-.018.507-.25.635a2.478 2.478 0 0 1-.69.257c-.215.052-.46.064-.734.064a2.26 2.26 0 0 1-.613-.076 1.375 1.375 0 0 1-.536-.298 1.256 1.256 0 0 1-.368-.495c-.07-.181-.081-.391-.081-.613v-.624c0-.31.011-.31.011-.624 0-.315-.023-.31-.023-.624 0-.455 0-.473.478-.473.479 0 .473.018.473.473 0 .291-.012.291-.012.589 0 .297.012.291.012.589 0 .297.017.292.017.59 0 .215.041.396.152.507.11.116.286.163.507.163.269 0 .525-.064.683-.17.07-.373.017-.378.017-.752v-.758c0-.38.012-.38.012-.758 0-.455-.018-.473.46-.473.48 0 .497.012.497.473 0 .396-.012.396-.012.793v.006Zm4.142.892c0-.309-.012-.309-.012-.624s.006-.31.006-.624c0-.397-.018-.49-.251-.624a2.605 2.605 0 0 0-.665-.24c-.204-.046-.438-.104-.7-.104-.286 0-.543.058-.77.151-.257.105-.49.245-.648.45-.157.204-.244.46-.274.74-.023.24-.017.7.006.94.03.262.1.513.233.711.14.204.339.38.566.49.216.105.467.14.735.14.292 0 .613-.093.811-.192.058 0-.006.081-.006.134 0 .221-.075.39-.221.513-.129.105-.304.163-.543.163-.239 0-.496-.029-.77-.151-.146-.059-.239-.094-.32-.094-.094 0-.123.053-.228.31-.076.169-.111.239-.111.309 0 .093.07.122.228.192.192.088.39.181.63.234.198.04.42.058.67.058.234 0 .455-.012.648-.076.216-.076.39-.198.542-.356.146-.146.257-.326.327-.554.058-.187.122-.402.122-.642 0-.309-.035-.309-.035-.624s.024-.309.024-.624l.006-.006Zm-.951.38c-.146.099-.414.186-.671.186a.825.825 0 0 1-.496-.17c-.134-.104-.204-.262-.233-.448a2.872 2.872 0 0 1 0-.671c.058-.356.268-.595.729-.595.257 0 .52.064.665.163.064.38.023.385.023.77s.053.391-.011.77l-.006-.006Zm5.162.116c0 .327.024.327.024.648 0 .455-.018.443-.49.443-.473 0-.461.017-.461-.443 0-.298-.03-.298-.03-.595 0-.298-.005-.298-.005-.595 0-.298.006-.298.006-.595 0-.42-.21-.689-.625-.689-.285 0-.565.175-.729.344-.064.345 0 .356 0 .706s.024.356.024.706-.018.356-.018.706c0 .455 0 .455-.478.455-.479 0-.49 0-.49-.455v-.683c0-.344-.012-.344-.012-.682 0-.338.047-.344.047-.683 0-.338-.03-.344-.03-.682 0-.338.012-.344.012-.683 0-.338-.023-.344-.023-.682 0-.455.017-.473.496-.473.478 0 .49.018.49.473 0 .262.006.262.006.525 0 .262-.187.32-.03.53.263-.174.595-.32.951-.32.274 0 .514.058.718.17.221.116.414.29.525.518.105.204.117.455.117.73 0 .326.023.326.023.647 0 .32-.012.327-.012.647l-.006.012Zm9.952-4.147c0-.66-.052-.66-.052-1.319 0-.659.192-.659.192-1.318 0-.66-.035-.66-.035-1.318 0-.66.035-.66.035-1.319 0-.659-.17-.659-.17-1.318 0-.66.083-.66.083-1.318 0-.66-.041-.66-.041-1.319 0-.659.134-.659.134-1.318 0-.66-.1-.66-.1-1.318 0-.66.018-.66.018-1.319 0-.659-.151-.67-.116-1.33.035-.665.221-.653.221-1.312 0-.24-.297-.479-.53-.479-.7 0-.7.076-1.4.076s-.7-.07-1.4-.07c-.24 0-.415.234-.415.473v1.318c0 .66.035.66.035 1.318 0 .66-.023.66-.023 1.319 0 .659-.018.659-.018 1.318 0 .66.041.66.041 1.318 0 .66-.047.66-.047 1.319 0 .659.07.659.07 1.318 0 .66-.128.66-.128 1.318 0 .66.129.66.129 1.319 0 .659.029.659.029 1.318 0 .66-.059.66-.059 1.318 0 .66-.011.66-.011 1.319 0 .659-.076.659-.076 1.318 0 .66-.035.66-.035 1.324 0 .665.099.66.099 1.324 0 0-.017.012-.017.018 0 .012-.018.023-.012.04 0 .018.035.036.035.053 0 .006-.053.03-.053.035.234.73.257.724.49 1.453.234.729.35.694.584 1.423.233.73.046.788.28 1.523.058.175.303.28.49.28.186 0 .309-.146.367-.321.233-.73.158-.753.391-1.488.233-.729.274-.717.508-1.446.233-.73.285-.712.519-1.447 0-.006-.064-.03-.064-.035 0-.018.017-.023.023-.047 0-.011-.023-.017-.023-.029 0 0 .099-.006.099-.012 0-.659.099-.659.099-1.318 0-.66-.146-.66-.146-1.318 0-.66-.017-.66-.017-1.319l.017-.005Zm-1.447 5.652c-.256.286-.402.32-.659.035-.467-.52-.95-.8-.478-1.318.542-.607.886-.292 1.621.052.63.292-.017.706-.484 1.225v.006Zm.694-2.077c-.793.555-1.201.549-1.994-.005-.555-.385.058-.712.058-1.389 0-.676.035-.676.035-1.353 0-.677-.1-.677-.1-1.353 0-.677.018-.677.018-1.354 0-.676.018-.676.018-1.353 0-.677-.03-.677-.03-1.353 0-.677.059-.677.059-1.354 0-.676-.023-.676-.023-1.353 0-.677-.123-.677-.123-1.353 0-.677.193-.677.193-1.354 0-.676-.076-.676-.076-1.353 0-.677-.053-.677-.053-1.353 0-.677.07-.665-.076-1.33-.151-.683-.373-.91.181-1.295.794-.555 1.056-.601 1.85-.047.553.385.052.636.052 1.312 0 .677-.07.677-.07 1.354 0 .676.052.676.052 1.353v1.353c0 .677.035.677.035 1.354 0 .676-.023.676-.023 1.353 0 .677-.017.677-.017 1.353 0 .677.04.677.04 1.354 0 .676-.046.676-.046 1.353 0 .677.07.677.07 1.353 0 .677-.129.677-.129 1.354 0 .676.129.676.129 1.353 0 .677.029.677.029 1.353 0 .677.472 1.01-.082 1.4h.023Z"/></g><defs><clipPath id="a"><path fill="#fff" d="M5 10.5h37.228v28H5z"/></clipPath></defs></svg>