<svg xmlns="http://www.w3.org/2000/svg" fill="none" viewBox="0 0 48 49"><path fill="currentColor" fill-rule="evenodd" d="M13.021 20.627a.395.395 0 0 1-.218-.758s4.653-1.348 9.207 1.207a.394.394 0 0 1-.385.688c-4.256-2.388-8.604-1.137-8.604-1.137ZM12.955 23.385a.394.394 0 0 1-.213-.76s2.28-.637 4.493.201a.395.395 0 0 1-.28.738c-1.97-.747-4-.18-4-.18ZM12.693 26.975a.395.395 0 0 1-.132-.778s5.375-.902 9.81.814a.394.394 0 0 1-.284.735c-4.247-1.643-9.394-.771-9.394-.771ZM12.589 30.326a.394.394 0 0 1-.367-.698s2.545-1.385 10.074.538a.395.395 0 0 1-.195.764c-7.113-1.817-9.512-.604-9.512-.604ZM26.806 30.41a.395.395 0 0 1-.405-.676s2.77-1.7 9.46-.558a.394.394 0 0 1-.133.778c-6.306-1.077-8.922.456-8.922.456ZM26.637 27.37a.394.394 0 0 1-.257-.745s4.696-1.621 9.91-.488a.395.395 0 0 1-.167.77c-4.99-1.084-9.486.464-9.486.464ZM26.564 24.305a.394.394 0 0 1-.365-.7s3.097-1.619 6.887-.828a.395.395 0 0 1-.161.772c-3.5-.73-6.361.756-6.361.756ZM26.665 21.692a.395.395 0 0 1-.504-.607s2.91-2.476 10.216-1.034a.394.394 0 0 1-.153.774c-6.829-1.348-9.559.867-9.559.867ZM30.033 34.84a.395.395 0 0 1-.014-.789l5.198-.095a.394.394 0 0 1 .014.789l-5.198.095ZM36.607 34.907a.394.394 0 0 1 .023.789l-9.54.285a.394.394 0 0 1-.023-.788l9.54-.286ZM20.683 35.478a.394.394 0 0 1-.013.788l-9.539-.158a.395.395 0 0 1 .013-.789l9.54.159ZM12.46 35.03a.395.395 0 0 1 .018-.788l5.356.126a.395.395 0 0 1-.019.789l-5.356-.127ZM24.114 19.469a.393.393 0 0 1 .043-.023l-.026.037-.017-.014Z" clip-rule="evenodd"/><path fill="currentColor" fill-rule="evenodd" d="M24.156 19.446c1.057-1.504 3.162-2.293 6.482-2.476 3.492-.192 7.848.5 7.848.5.193.03.335.197.333.392l-.127 15.72c0 .087-.03.171-.084.24-.547.694-.663 1.211-.563 1.597.136.52.639.748.639.748a.395.395 0 0 1-.16.753l-29.126.285a.394.394 0 0 1-.284-.672c.916-.924.557-2.195.396-2.626a.395.395 0 0 1-.088-.723l.37-15.355a.394.394 0 0 1 .399-.384s5.883.063 8.73-.032c2.309-.077 4.365 1.378 5.193 2.056l.017.014.025-.037Zm.294 16.823 13.066-.128a1.76 1.76 0 0 1-.234-.522c-.114-.44-.087-1.018.331-1.739a71.3 71.3 0 0 0-8.07.008c-3.302.196-4.625 1.635-5.093 2.38Zm13.457-3.16.12-14.91c-1.07-.154-4.5-.598-7.345-.442-3.102.171-5.064.826-5.971 2.278l-.344 15.055c.827-.859 2.36-1.825 5.129-1.989a71.59 71.59 0 0 1 8.411.007ZM23.915 20.336c-.304-.284-2.466-2.219-4.968-2.136-2.417.08-7.014.048-8.375.036l-.36 14.91 8.573.207c.008 0 .017 0 .025.002 0 0 2.766.247 4.755 2.3l.35-15.319ZM10.339 33.939c.157.582.297 1.567-.168 2.47l12.902-.127c-1.712-1.838-4.13-2.12-4.322-2.14l-8.412-.203ZM27.503 14.557a.644.644 0 1 1-.04-.789h4.845a.395.395 0 0 1 0 .789h-4.805Z" clip-rule="evenodd"/><path fill="currentColor" fill-rule="evenodd" d="m15.182 12.913 13.85-.412h.007s2.54-.031 4.594.325c.934.163 1.77.413 2.262.761a.393.393 0 0 1 .162.26s.135.42-.52.89c-.614.44-2.226 1.057-6.479 1.214h-.037s-3.83-.222-4.62-.253c-.79-.032-7.524.032-7.524.032l-.03-.001-1.426-.095c-.13-.009-.2-.069-.314-.194-.603-.668-.688-.645-1.044-.674l-1.346.044a.395.395 0 0 1-.054-.787l1.39-.114c.26-.034.635-.511.799-.798a.394.394 0 0 1 .33-.198Zm1.452.746-1.213.036c-.127.204-.314.454-.426.61.04.027.192.084.23.113.227.17.333.299.44.441l.983.066c-.014-.37-.015-.894-.014-1.266Zm7.181-.214-6.396.19c-.006.396-.01.979.006 1.3a703.56 703.56 0 0 1 6.46-.033l-.07-1.457Zm11.306.605c-.423-.198-1-.338-1.623-.447-1.948-.338-4.347-.315-4.446-.314l-4.448.133.071 1.498c1.086.053 4.107.227 4.373.242 3.319-.124 4.928-.51 5.705-.88a1.73 1.73 0 0 0 .368-.232Z" clip-rule="evenodd"/></svg>