<svg width="48" height="48" viewBox="0 0 48 48" fill="none" xmlns="http://www.w3.org/2000/svg">
<path d="M23.4712 23.3129C23.8708 23.74 24.2458 24.1984 24.584 24.6882C25.5554 26.0823 26.1456 27.6271 26.3854 29.329C26.5575 30.5723 26.5022 31.7969 26.2071 33.0026C25.6046 35.4706 24.2213 37.411 22.2231 38.9119C20.8828 39.9166 19.3765 40.5634 17.7534 40.8649C16.1672 41.1663 14.5626 41.1726 12.9641 40.8209C11.3901 40.4692 9.94533 39.8413 8.62348 38.9181C6.93275 37.7438 5.67239 36.1865 4.84854 34.2648C4.27676 32.9273 3.99395 31.5269 4.0001 30.0762C4.01239 28.4309 4.43661 26.8861 5.24202 25.4481C6.1212 23.8781 7.25245 22.5656 8.80793 21.6614C9.06615 21.5106 9.25674 21.2532 9.57644 21.1841C9.73014 21.1464 9.63792 21.0208 9.57644 20.9392C8.78948 19.8842 8.30378 18.6785 8.0886 17.3911C7.81193 15.7333 7.63978 14.0629 7.97178 12.3673C8.19926 11.2056 8.51896 10.094 9.13378 9.09557C9.57644 8.37967 10.2097 7.83333 10.9659 7.43143C12.257 6.74066 13.6772 6.5711 15.0729 6.36387C15.8967 6.23827 16.7451 6.17548 17.5874 6.1378C18.3498 6.1064 19.1245 6.05616 19.8868 6.03732C20.8275 6.0122 21.7682 5.97452 22.7088 6.02476C23.2929 6.05616 23.8831 6.02476 24.4733 6.02476C25.6169 6.02476 26.7666 5.96197 27.904 6.03732C28.7155 6.09384 29.5332 6.15036 30.3448 6.18804C30.9965 6.21316 31.6482 6.26339 32.2999 6.23827C33.136 6.20688 33.9599 6.33875 34.7837 6.36387C35.5522 6.38899 36.3146 6.42667 37.077 6.49574C37.8516 6.56482 38.6263 6.65902 39.401 6.7281C40.8888 6.86625 41.9094 7.77682 42.7455 8.91973C43.1759 9.51003 43.5386 10.2071 43.6677 10.9355C43.8891 12.1664 44.0674 13.4098 43.9752 14.6846C43.8522 16.2419 43.6063 17.7679 43.0037 19.2185C42.6287 20.1354 41.9647 20.8199 41.2577 21.4604C40.4277 22.214 39.3948 22.4966 38.3496 22.754C37.3905 22.9927 36.413 23.0743 35.4293 23.0869C34.2611 23.0994 33.093 23.1748 31.9248 23.1497C30.3632 23.1183 28.8016 23.1559 27.2461 23.2376C26.0595 23.3004 24.8791 23.1873 23.6987 23.2439C23.631 23.2439 23.545 23.2125 23.465 23.3255L23.4712 23.3129ZM17.7965 27.3445C17.569 27.3697 17.3354 27.4199 17.2308 27.1122C17.1571 26.8924 17.1202 26.6601 17.114 26.434C17.114 26.0446 17.6428 25.9504 17.6059 25.5297C17.6059 25.4857 17.7043 25.3978 17.7657 25.3853C18.1346 25.3036 18.3006 24.9959 18.4974 24.7259C18.7125 24.4245 18.897 24.3742 19.1921 24.5815C19.3151 24.6694 19.4319 24.7698 19.5548 24.638C19.7516 24.4245 19.9852 24.2486 20.102 23.966C20.1389 23.8718 20.1573 23.7776 20.0651 23.7337C19.8254 23.6206 19.7577 23.4197 19.77 23.1685C19.6225 23.4134 19.77 23.6206 19.8253 23.8342C19.893 24.0854 19.7516 24.2172 19.5979 24.3617C19.4811 24.4747 19.3519 24.5626 19.1921 24.4559C18.9892 24.3177 18.8417 24.1105 18.5281 24.1858C18.3928 24.2172 18.2576 24.0351 18.2391 23.8404C18.2207 23.6206 18.2453 23.4071 18.3129 23.1936C18.3314 23.1434 18.3867 23.0618 18.2945 23.0366C18.2453 23.0178 18.1469 23.0241 18.1223 23.0618C17.9563 23.2878 17.7719 23.5076 17.6489 23.7588C17.569 23.9221 17.8641 23.8656 17.8825 24.0226C17.8887 24.1105 17.9317 24.1984 17.9317 24.2863C17.9317 24.437 17.9625 24.5626 18.0608 24.6756C18.2207 24.8515 18.2084 25.0273 18.0178 25.1718C17.8395 25.3036 17.6489 25.4418 17.4768 25.1655C17.4399 25.109 17.403 25.0587 17.3292 25.0838C17.1817 25.1466 17.0341 25.178 16.9234 25.021C16.8251 24.8829 16.8804 24.7259 16.9111 24.5312C16.8251 24.6003 16.782 24.6254 16.7451 24.6568C15.7983 25.4481 14.704 25.919 13.5297 26.2205C13.376 26.2582 13.2284 26.3147 13.1301 26.1388C13.0378 25.9693 13.1792 25.8876 13.2653 25.7809C13.4067 25.6176 13.5297 25.4355 13.6772 25.2785C14.1752 24.7384 14.458 24.0791 14.6855 23.4009C14.8638 22.8608 14.6855 22.6222 14.1629 22.6284C13.6957 22.6347 13.2346 22.5845 12.7735 22.5029C12.5214 22.4589 12.2324 22.3898 12.0295 22.7226C11.8635 22.9927 11.4701 22.9362 11.4086 22.6284C11.3164 22.1889 10.9721 22.1009 10.6892 21.9188C10.6032 21.8623 10.5048 21.7493 10.4064 21.9188C10.3204 22.0633 10.4433 22.0947 10.5171 22.1512C10.6647 22.2642 10.8122 22.3773 10.6954 22.597C10.5786 22.8231 10.4064 22.8985 10.1667 22.8357C10.1113 22.8168 10.013 22.7164 9.99451 22.8482C9.94533 23.1748 9.6994 23.225 9.34896 23.2753C9.77933 23.5327 10.013 23.8907 10.4003 24.1042C10.4802 23.8718 10.3388 23.6395 10.4741 23.4699C10.6155 23.2941 10.6708 23.1057 10.7077 22.8859C10.7446 22.6787 10.9475 22.5594 11.1135 22.6473C11.4086 22.8106 11.6975 23.0303 11.8635 23.3192C11.9496 23.4762 11.9558 23.6395 12.1771 23.652C12.2386 23.652 12.3308 23.7337 12.3369 23.7902C12.3984 24.1544 12.5583 24.5124 12.4661 24.8766C12.3738 25.222 12.0295 25.1027 11.7898 25.1655C11.7713 25.1655 11.7652 25.2031 11.7467 25.2345C11.7836 25.2785 11.8267 25.3287 11.8697 25.379C12.1464 25.7495 12.0541 25.9944 11.6053 26.0823C11.427 26.12 11.2733 26.1828 11.2856 26.434C11.3041 26.7354 11.1381 26.9364 10.8614 26.9929C10.5663 27.0557 10.3941 27.2504 10.1974 27.4513C9.92688 27.7276 9.8654 28.0918 9.68096 28.4121C9.84696 28.4435 10.013 28.4435 10.0929 28.6005C10.2097 28.8203 10.3757 28.8894 10.6216 28.8831C10.8614 28.8831 11.0397 29.0338 10.9782 29.3101C10.886 29.6995 10.5294 29.6304 10.265 29.6806C10.0744 29.7183 9.84081 29.6806 9.83466 29.3855C9.83466 29.285 9.79777 29.2724 9.6994 29.2662C9.31207 29.2285 9.18296 29.015 9.29977 28.6507C9.41044 28.3242 9.15222 27.9788 8.81407 28.0039C8.69111 28.0102 8.562 28.073 8.43904 28.0604C8.0886 28.0102 7.84882 28.0604 7.92874 28.5063C7.94719 28.6005 7.81193 28.7135 7.9226 28.7889C8.00867 28.8517 8.11319 28.7512 8.19926 28.7135C8.60504 28.5314 8.78333 28.6193 8.8817 29.0526C8.9063 29.1531 8.8817 29.2787 8.98007 29.3352C9.27518 29.5236 9.3674 29.7811 9.27518 30.1579C9.57644 29.8376 9.8777 29.6367 10.2712 29.9381C10.2958 29.9569 10.3695 29.9255 10.4064 29.9004C10.7876 29.6429 11.0581 29.7874 11.2979 30.1328C11.4086 30.2898 11.5254 30.4405 11.7652 30.3023C11.9619 30.1893 12.1525 30.3023 12.2509 30.4781C12.4292 30.7796 12.9026 30.7984 12.9333 31.238C12.9333 31.2631 13.0255 31.3071 13.0624 31.2945C13.5297 31.1438 13.7326 31.7655 14.1875 31.6776C14.2982 31.6587 14.3289 31.8409 14.3412 31.9539C14.3597 32.18 14.3043 32.3872 14.1875 32.5819C14.0769 32.7703 14.0031 32.9461 14.0461 33.191C14.1015 33.5238 13.7326 34.1644 13.4805 34.1895C12.9026 34.246 12.7981 34.7798 12.589 35.1315C12.3124 35.5899 12.2939 36.199 11.8328 36.5821C11.7406 36.6574 11.7467 36.7893 11.7406 36.9086C11.7221 37.3294 11.7037 37.7438 11.6668 38.1646C11.6422 38.4472 11.4701 38.5351 11.218 38.4032C10.7138 38.1332 10.4187 37.6999 10.4618 37.1284C10.5478 35.9667 10.2835 34.83 10.2589 33.6808C10.2589 33.4359 10.1421 33.2224 9.90229 33.1408C9.558 33.0214 9.45348 32.764 9.42888 32.4312C9.42274 32.3307 9.392 32.2239 9.33666 32.1423C9.10918 31.7969 9.06615 31.4641 9.31207 31.1061C9.50881 30.8173 9.38585 30.61 9.09689 30.5158C8.67267 30.384 8.30993 30.1453 7.94104 29.9067C7.01882 29.3038 6.26261 28.5314 5.67853 27.5895C5.51253 27.3257 5.42031 27.018 5.26661 26.6789C5.05757 27.1687 4.91617 27.6146 4.79935 28.073C4.36284 29.8565 4.40587 31.6336 4.9838 33.3606C5.42031 34.6667 6.11505 35.8473 7.03727 36.8835C7.81808 37.7564 8.69111 38.5225 9.68711 39.1003C10.8921 39.8036 12.1894 40.2495 13.5727 40.5006C15.3495 40.8146 17.0833 40.6639 18.7925 40.1615C19.8622 39.8475 20.8398 39.3389 21.7682 38.6984C23.0654 37.8066 24.0798 36.67 24.8176 35.2822C25.6353 33.7562 26.0657 32.1297 25.955 30.3651C25.9304 29.9444 25.7829 29.6492 25.5124 29.3478C25.3033 29.1154 25.0267 28.9396 24.8791 28.6382C24.8238 28.5251 24.7807 28.2237 24.627 28.3619C24.4487 28.5251 24.0368 28.4372 24.086 28.8517C24.129 29.2285 24.0491 29.5362 23.6126 29.6304C23.4404 29.6681 23.3544 29.8878 23.1269 29.8816C23.047 29.8816 22.967 29.9946 23.0961 30.1328C23.2683 30.3086 23.2499 30.5535 23.1084 30.7356C22.9117 30.9931 22.8318 31.3071 22.5982 31.5645C22.3645 31.8157 22.1555 32.1925 22.303 32.6258C22.383 32.8645 22.3584 33.1847 22.1678 33.3166C21.7743 33.5866 21.8112 33.9885 21.7436 34.3653C21.7067 34.56 21.639 34.717 21.4423 34.7609C21.221 34.8112 21.1103 34.9431 21.0304 35.1566C20.9505 35.3826 20.3111 35.6652 20.1635 35.5459C19.8315 35.2696 19.5794 34.874 19.5302 34.4846C19.4503 33.9069 19.063 33.348 19.3397 32.7326C19.3581 32.6949 19.3274 32.6258 19.3028 32.5881C19.1183 32.3432 19.0814 32.0292 18.9462 31.7592C18.6388 31.1564 18.5035 31.037 17.8395 30.9994C17.5321 30.9805 17.1817 31.037 16.9296 30.8549C16.6037 30.6289 16.3148 30.3463 16.2533 29.8816C16.2164 29.5927 16.2164 29.3038 16.198 29.015C16.1734 28.701 16.2902 28.5063 16.5238 28.3368C16.948 28.0228 17.3538 27.6962 17.7719 27.3697C17.9071 27.3697 18.0055 27.288 18.1223 27.2378C18.4543 27.0996 18.8539 26.9615 19.1245 27.2252C19.4626 27.5518 19.8192 27.6146 20.2373 27.6083C20.6246 27.602 21.0181 27.6209 21.3931 27.5015C21.4546 27.4827 21.5161 27.4576 21.5222 27.3885C21.5284 27.2943 21.473 27.2566 21.387 27.2378C21.1595 27.175 20.9197 27.1813 20.6922 27.1624C20.0897 27.1122 20.0897 27.1436 19.9545 26.6161C19.8376 27.1059 19.6409 27.2001 19.2782 26.9301C19.2105 26.8798 19.1614 26.7982 19.0937 26.7417C18.9585 26.6349 18.9339 26.233 18.6572 26.5093C18.4974 26.6726 18.1961 26.5721 18.1346 26.817C18.0731 27.0557 17.9133 27.2064 17.778 27.3822L17.7965 27.3445ZM14.0953 25.5234C15.3803 24.9834 16.6652 24.4433 17.4091 23.1434C17.7227 22.597 18.1346 22.3521 18.7371 22.4777C19.9791 22.7289 21.2456 22.6912 22.4998 22.7352C23.8708 22.7792 25.2357 22.8043 26.6067 22.7729C27.5966 22.7478 28.5864 22.7352 29.5763 22.6975C31.1256 22.6473 32.6749 22.6661 34.2304 22.6284C35.669 22.5908 37.1077 22.6033 38.5095 22.214C39.5915 21.9126 40.5814 21.4855 41.4298 20.644C42.3889 19.6895 42.8623 18.5278 43.1083 17.2718C43.3972 15.7772 43.5878 14.2638 43.4095 12.719C43.2866 11.6263 43.1021 10.5525 42.5549 9.61051C41.9155 8.50527 41.1163 7.54446 39.7452 7.34979C39.1735 7.26816 38.6017 7.15512 38.0299 7.11116C36.8187 7.02324 35.6076 6.99813 34.3964 6.89137C33.0192 6.76577 31.6297 6.74066 30.2526 6.7281C29.0168 6.71554 27.7995 6.50202 26.5575 6.59622C25.9981 6.64018 25.4324 6.52086 24.8545 6.59622C24.3135 6.65902 23.754 6.59622 23.2007 6.59622C22.7088 6.59622 22.217 6.64646 21.7313 6.59622C20.8644 6.52086 20.0036 6.61506 19.1368 6.65274C18.3867 6.68414 17.6366 6.7281 16.8866 6.74066C16.1057 6.75322 15.3557 6.92277 14.5933 7.02952C14.0338 7.11116 13.4866 7.2556 12.9272 7.33723C11.6852 7.52563 10.5909 8.04685 9.81007 9.04533C8.95548 10.1443 8.60504 11.4944 8.38371 12.8571C8.24845 13.6986 8.26689 14.5652 8.32837 15.413C8.44519 17.0081 8.69726 18.5717 9.50266 19.9847C10.1421 21.1087 11.009 21.8435 12.3246 21.944C12.9886 21.9942 13.6403 22.1449 14.3105 22.1637C15.0052 22.1826 15.3065 22.7038 15.1282 23.3757C14.9192 24.1607 14.6609 24.9143 14.1015 25.5297L14.0953 25.5234ZM21.3439 27.8344C21.0857 27.9725 19.8315 27.9914 19.6655 27.8783C19.4872 27.759 19.2597 27.916 19.1183 27.7088C18.8785 27.3571 18.6634 27.3194 18.2945 27.5518C17.8272 27.8469 17.3415 28.1044 16.9296 28.5C16.5607 28.858 16.4623 29.7811 16.8251 30.1767C17.1755 30.5598 17.6305 30.5786 18.0731 30.6351C18.399 30.6791 18.7802 30.6603 18.9708 30.9366C19.229 31.3134 19.3704 31.7718 19.5733 32.1925C19.7024 32.4688 19.7085 32.7451 19.6471 33.0466C19.5856 33.3354 19.8622 33.5678 19.8561 33.8504C19.8438 34.2837 20.1451 34.604 20.2373 34.9933C20.2619 35.1126 20.3541 35.1503 20.4709 35.1377C20.5877 35.1252 21.4608 34.1958 21.473 34.0702C21.4853 33.932 21.4976 33.7876 21.5099 33.6494C21.5284 33.461 21.596 33.2978 21.7682 33.2036C22.0018 33.0654 22.0571 32.8582 22.0018 32.607C21.9219 32.249 22.0018 31.9225 22.1924 31.6148C22.3953 31.282 22.592 30.9429 22.7949 30.6037C22.881 30.4593 22.967 30.3086 22.715 30.2709C22.3584 30.2207 22.1862 29.9632 22.0264 29.6806C21.8788 29.4106 21.7374 29.1406 21.5591 28.8894C21.3316 28.5691 21.264 28.23 21.3624 27.8406L21.3439 27.8344ZM9.47192 27.9662C9.57644 27.6774 9.68711 27.489 9.82236 27.3194C9.96377 27.1436 10.0437 26.8736 10.2527 26.7982C10.6401 26.6538 10.9782 26.5156 10.9721 26.007C10.9721 25.9002 11.1012 25.8625 11.1995 25.8311C11.3287 25.7872 11.4578 25.7306 11.5869 25.6804C11.5623 25.4795 11.3963 25.4041 11.3041 25.2722C11.1319 25.021 11.2426 24.7824 11.5438 24.7636C12.1525 24.7196 12.1464 24.7196 12.0357 24.1105C12.0111 23.966 11.9742 23.897 11.8267 23.9284C11.7098 23.9535 11.5869 23.8781 11.5869 23.7902C11.5684 23.426 11.2364 23.3067 11.0827 23.0555C10.9721 23.426 10.7815 23.7651 10.7569 24.1795C10.7323 24.5187 10.3142 24.6443 10.099 24.3805C9.85311 24.0791 9.51496 23.9032 9.25674 23.6269C8.94933 23.2941 8.99852 23.0241 9.40429 22.8734C9.51496 22.8294 9.60103 22.8168 9.61333 22.6598C9.64407 22.3207 9.84081 22.2328 10.1728 22.3396C9.84081 22.214 9.93303 22.013 10.0437 21.8121C10.0867 21.7367 10.0867 21.6551 10.0314 21.5923C9.96377 21.5169 9.88385 21.586 9.83466 21.63C9.65022 21.8309 9.37355 21.8372 9.17066 21.9816C7.67052 23.0178 6.42246 24.2989 5.54328 25.9316C5.46335 26.076 5.41416 26.2205 5.52483 26.3586C5.68468 26.5533 5.75231 26.7794 5.84453 27.0054C5.94905 27.2629 6.05357 27.5581 6.25031 27.7276C6.6192 28.0416 6.89586 28.4372 7.21556 28.7889C7.65208 29.2662 8.20541 29.5236 8.70956 29.8816C8.76489 29.9192 8.84481 29.9883 8.90015 29.8816C8.94318 29.7999 8.90015 29.7309 8.82022 29.6995C8.64807 29.6241 8.5497 29.4985 8.56815 29.3101C8.59889 29.0024 8.48208 28.9522 8.22385 29.0652C7.95949 29.1782 7.70126 29.172 7.54141 28.8705C7.46149 28.7261 7.60289 27.8092 7.70741 27.7527C7.76889 27.7213 7.84882 27.7025 7.9226 27.6962C8.19311 27.6648 8.46978 27.6585 8.73415 27.6146C9.02926 27.5643 9.28133 27.5957 9.48422 27.96L9.47192 27.9662ZM19.4995 26.6098C19.5671 26.4717 19.5179 26.3586 19.4811 26.2456C19.4319 26.076 19.395 25.9128 19.604 25.8248C19.8192 25.7369 19.9729 25.8248 20.0713 26.0132C20.1881 26.2393 20.2865 26.4654 20.391 26.6915C20.3234 26.39 20.7107 26.5596 20.7414 26.2895C20.8213 25.6113 20.8767 25.5988 21.5284 25.762C21.5899 25.7746 21.6513 25.7809 21.7128 25.7746C21.9833 25.762 22.094 25.919 22.1309 26.1702C22.1678 26.434 21.9956 26.4717 21.8173 26.5596C21.553 26.6977 21.2333 26.5219 20.9628 26.7605C21.1349 26.7982 21.2825 26.861 21.4239 26.8547C21.8112 26.8422 21.9034 27.1373 21.8296 27.3822C21.7313 27.7025 21.7989 27.8783 22.0387 28.0542C22.1247 28.117 22.1862 28.23 22.2354 28.3368C22.3953 28.657 22.5428 28.9836 22.6904 29.3038C22.7642 29.4608 22.8072 29.555 23.0408 29.442C23.6679 29.1343 23.6802 29.1594 23.6741 28.4498C23.6741 28.4247 23.6741 28.3995 23.6741 28.3744C23.7048 28.0542 23.9507 27.9034 24.2028 28.0856C24.3873 28.2174 24.4241 28.0542 24.5041 27.9976C24.7438 27.8155 24.959 27.8658 25.0512 28.1232C25.1865 28.5189 25.5247 28.6884 25.7952 29.0464C25.7767 28.4058 25.6046 27.8783 25.4078 27.3697C24.8053 25.8311 23.8954 24.5061 22.7519 23.3318C22.6166 23.1936 22.4752 23.1497 22.2846 23.1434C21.8358 23.1434 21.387 23.2501 20.932 23.1245C20.7476 23.0743 20.5324 23.1245 20.3295 23.1371C20.2496 23.1371 20.1758 23.1559 20.1451 23.2439C20.1266 23.3129 20.1635 23.3695 20.2188 23.4071C20.5016 23.583 20.4525 23.8153 20.3971 24.1105C20.3356 24.437 20.1082 24.5312 19.9176 24.7259C19.604 25.0462 19.3396 25.0901 18.9954 24.8452C18.9093 24.7824 18.8109 24.7573 18.7802 24.8829C18.6511 25.3915 17.9502 25.4857 17.944 26.0886C17.944 26.12 17.8764 26.1577 17.8334 26.1828C17.7411 26.2267 17.6428 26.2519 17.5567 26.2958C17.3661 26.39 17.4399 26.5533 17.4768 26.6977C17.5014 26.7982 17.5198 26.9364 17.6428 26.9112C17.7719 26.8861 17.8149 26.7417 17.8334 26.6098C17.8641 26.4089 17.9686 26.277 18.1777 26.2582C18.3129 26.2456 18.4051 26.1702 18.5035 26.0886C18.6265 25.9944 18.7679 26.007 18.9277 26.0446C19.229 26.1074 19.2474 26.4214 19.4688 26.5973L19.4995 26.6098ZM11.3409 37.9825C11.3348 37.8694 11.3287 37.8066 11.3287 37.7438C11.3287 37.0782 11.2057 36.3623 11.8635 35.8913C11.9496 35.8285 11.9496 35.7406 11.9496 35.6527C11.9435 35.4768 12.0664 35.3387 12.091 35.1942C12.1586 34.7798 12.5583 34.5977 12.6689 34.2397C12.755 33.9509 12.9333 33.8127 13.21 33.7876C13.3698 33.7687 13.4252 33.6997 13.5051 33.5301C13.7018 33.1219 13.5912 32.6258 13.9232 32.2742C14.0338 32.1548 13.9478 32.0795 13.8186 32.0292C13.4989 31.9099 13.2469 31.6336 12.8657 31.6399C12.7058 31.6399 12.6013 31.4829 12.5398 31.3071C12.4476 31.037 11.9435 30.6917 11.6729 30.7105C11.3717 30.7356 11.1627 30.6289 11.0335 30.3463C10.9598 30.1956 10.8061 30.0574 10.677 30.183C10.4372 30.4091 10.2281 30.34 10.0007 30.2018C9.89614 30.139 9.81007 30.1704 9.73014 30.2458C9.62563 30.3337 9.66251 30.4153 9.73014 30.5095C9.8777 30.7293 9.83466 30.9491 9.6994 31.1564C9.53955 31.4076 9.5334 31.6273 9.68096 31.9037C9.80392 32.1234 9.80392 32.4123 9.87155 32.6698C9.8777 32.7075 9.95148 32.7326 9.99451 32.7451C10.4802 32.9084 10.6462 33.2726 10.6339 33.7625C10.6155 34.4281 10.8675 35.0749 10.7938 35.7469C10.7876 35.8034 10.8307 35.8662 10.8491 35.929C10.9475 36.1739 10.929 36.4251 10.9106 36.6888C10.8737 37.1598 10.8552 37.6371 11.3532 37.995L11.3409 37.9825ZM19.4073 24.0728C19.4565 23.9849 19.5487 23.9221 19.4934 23.7839C19.438 23.6458 19.4011 23.4951 19.3581 23.3443C19.3335 23.2439 19.4134 23.112 19.2413 23.0618C19.0261 22.999 18.8785 23.1245 18.7248 23.2376C18.608 23.3192 18.565 23.5202 18.6265 23.5767C18.8232 23.7714 19.2536 23.6144 19.3089 24.0477C19.3089 24.0602 19.3519 24.0602 19.4073 24.0728ZM22.5859 29.8376C22.3215 29.2913 22.1124 28.7073 21.7005 28.2488C21.9157 28.8266 22.1739 29.3792 22.5859 29.8376ZM21.7251 26.1828C21.5591 26.2079 21.4485 26.1388 21.3316 26.0698C21.2456 26.0195 21.1656 26.0195 21.1165 26.1263C21.0488 26.277 21.1779 26.2519 21.2456 26.277C21.4054 26.3272 21.5591 26.3586 21.7251 26.1828Z" fill="#222222"/>
<path d="M10.7858 14.6532C10.7181 13.5793 11.5113 12.0722 12.8331 11.821C14.573 11.4944 16.0547 12.8446 15.8272 14.6657C15.7166 15.5386 15.4153 16.2859 14.7329 16.8699C13.7123 17.7428 11.6834 17.5795 11.0317 15.8714C10.8841 15.4821 10.7489 15.0739 10.7858 14.6532ZM11.8064 14.6783C11.7695 14.8918 11.8863 15.1116 11.9662 15.3376C12.3904 16.5057 13.3065 16.7506 14.2349 15.9342C15.194 15.0927 14.8989 13.9059 14.3332 13.1335C14.1304 12.8571 13.7738 12.7253 13.4172 12.7567C12.5626 12.8446 11.8002 13.7426 11.8002 14.6783H11.8064Z" fill="#222222"/>
<path d="M36.7062 15.3502C36.7554 15.9656 36.6263 16.4994 36.8661 17.0081C36.9153 17.1148 36.8599 17.2027 36.7616 17.2655C36.5833 17.3723 35.8824 17.3346 35.7533 17.1588C35.5996 16.9453 35.4951 17.0709 35.3536 17.1399C34.8618 17.3974 34.3638 17.4665 33.8474 17.1839C33.3801 16.9264 33.1465 16.4617 33.2141 15.9028C33.2633 15.4946 33.7305 14.9671 34.1425 14.8729C34.4929 14.7913 34.8495 14.716 35.2061 14.6343C35.3229 14.6092 35.4828 14.628 35.5074 14.4585C35.5319 14.3015 35.5074 14.1508 35.3844 14.0315C35.0462 13.6672 34.413 13.774 34.2162 14.2324C34.1117 14.4773 33.6998 14.6029 33.4354 14.5087C33.2264 14.4334 33.2387 14.0503 33.4477 13.7489C33.9334 13.0455 34.4991 12.6499 35.6856 12.9702C36.3128 13.1397 36.7062 13.7803 36.7062 14.5966C36.7062 14.8792 36.7062 15.1618 36.7062 15.3502ZM34.9971 15.5888C34.911 15.5888 34.745 15.57 34.6097 15.6202C34.4253 15.683 34.2101 15.771 34.1671 15.9907C34.1302 16.1666 34.2224 16.3361 34.3945 16.4366C34.9294 16.7443 35.5135 16.5182 35.7041 15.9279C35.8271 15.5449 35.8271 15.5449 35.4336 15.5888C35.3106 15.6014 35.1815 15.5888 34.9909 15.5888H34.9971Z" fill="#222222"/>
<path d="M20.1432 15.1618C20.094 15.7396 20.0325 16.3173 20.0018 16.895C19.9895 17.1399 19.8788 17.2279 19.6575 17.2593C19.055 17.3283 18.8091 17.0457 18.8644 16.3361C18.9136 15.7584 18.9197 15.1807 18.8705 14.6029C18.8337 14.1633 18.6062 14.0001 18.182 14.0377C17.727 14.0754 17.5794 14.2387 17.561 14.6908C17.5364 15.4067 17.4995 16.1226 17.4811 16.8385C17.4749 17.0897 17.3643 17.2027 17.1122 17.2216C16.4113 17.2781 16.2945 17.1902 16.3252 16.4806C16.3621 15.5323 16.4175 14.5904 16.4666 13.6421C16.4912 13.259 17.02 13.0707 17.4626 13.3093C17.6286 13.3972 17.727 13.3846 17.8684 13.2904C18.7414 12.7441 19.6637 13.1021 19.9895 14.0943C20.1002 14.4396 20.1617 14.7913 20.1371 15.1618H20.1432Z" fill="#222222"/>
<path d="M24.2563 15.4758C24.4715 15.1618 24.5699 14.8415 24.6559 14.5276C24.7666 14.1131 24.9879 13.7551 25.1724 13.3721C25.2461 13.2151 25.8179 13.1021 26.0147 13.2151C26.2544 13.3532 26.1991 13.5793 26.1192 13.7865C25.572 15.2309 25.1601 16.7318 24.4653 18.1196C24.3116 18.4273 23.6845 18.5968 23.4324 18.377C23.371 18.3205 23.3402 18.2515 23.3525 18.1698C23.3648 18.0819 23.3648 17.9814 23.414 17.9123C23.9489 17.0646 23.5984 16.2796 23.2542 15.4884C23.0267 14.9609 22.8238 14.4208 22.6332 13.8745C22.5656 13.6798 22.4856 13.3909 22.793 13.3407C23.0451 13.303 23.3771 13.0581 23.5431 13.5416C23.7583 14.1759 24.0596 14.785 24.2563 15.4695V15.4758Z" fill="#222222"/>
<path d="M30.8409 15.5072C31.1483 14.7599 31.425 14.0943 31.6955 13.4349C31.8554 13.0393 32.4333 12.8446 32.7899 13.0581C32.9436 13.1523 32.9251 13.2653 32.8698 13.4223C32.4333 14.6532 31.9906 15.884 31.4742 17.0834C31.3881 17.2907 31.259 17.3974 31.0438 17.3786C30.7426 17.3472 30.386 17.4351 30.2261 17.0457C30.0294 16.5622 29.8388 16.0724 29.6482 15.5826C29.4453 15.0551 29.2547 14.5276 29.058 14.0001C28.9719 13.774 28.8305 13.5165 29.0887 13.347C29.39 13.1523 29.931 13.3595 30.0478 13.661C30.2938 14.2512 30.5458 14.8415 30.8286 15.5135L30.8409 15.5072Z" fill="#222222"/>
<path d="M39.2964 13.5668C39.2964 13.1397 39.2964 12.719 39.2964 12.292C39.2903 11.7205 39.6715 11.4254 40.2187 11.5761C40.4707 11.6451 40.4707 11.8461 40.4523 12.0408C40.3601 12.9765 40.2617 13.9059 40.1633 14.8353C40.1449 15.0111 40.1141 15.1932 40.0711 15.3628C40.0035 15.6265 39.7944 15.6768 39.567 15.6768C39.3456 15.6768 39.3272 15.5198 39.2903 15.3376C39.1735 14.7473 39.2903 14.1571 39.2903 13.5668H39.2964Z" fill="#222222"/>
<path d="M40.3109 16.6376C40.3109 16.9641 39.9666 17.2844 39.6038 17.2969C39.3333 17.3095 39.0751 17.0206 39.0751 16.7129C39.0751 16.3801 39.4563 16.0096 39.8006 16.0096C40.1141 16.0096 40.3109 16.2482 40.3047 16.6376H40.3109Z" fill="#222222"/>
<path d="M22.5428 33.9257C22.6412 33.5301 22.715 33.1408 22.8379 32.7703C22.8933 32.607 23.0654 32.4437 23.256 32.5379C23.4527 32.6321 23.6556 32.7828 23.5941 33.0654C23.5204 33.3982 23.422 33.7311 23.3605 34.0702C23.3113 34.359 23.1269 34.4784 22.8871 34.4407C22.6166 34.403 22.5613 34.1581 22.5428 33.9257ZM23.1945 32.9775C23.0101 33.2538 23.047 33.6055 22.881 33.8881C22.8502 33.9383 22.8564 34.0576 22.9547 34.0639C23.0408 34.0702 23.0839 33.9885 23.09 33.9069C23.1146 33.5992 23.1392 33.2852 23.1945 32.9712V32.9775Z" fill="#222222"/>
<path d="M11.1811 29.4985C11.1688 29.2724 11.2364 29.0966 11.4824 29.1092C11.7898 29.128 11.8943 29.3855 11.9312 29.6367C11.9619 29.8753 11.759 29.9758 11.5623 29.9632C11.2918 29.9506 11.1872 29.7497 11.1811 29.4922V29.4985Z" fill="#222222"/>
<path d="M23.3728 25.5674C23.4958 25.6239 23.6802 25.6804 23.5941 25.9253C23.5388 26.0823 23.5265 26.2205 23.6064 26.3712C23.6802 26.5156 23.711 26.6977 23.5573 26.7856C23.4036 26.8736 23.213 26.974 23.0285 26.8233C22.7949 26.6349 22.6658 26.3586 22.6043 26.0823C22.5305 25.7244 22.8133 25.5423 23.3728 25.5674ZM23.299 26.5407C23.2314 26.3209 23.2744 26.0886 23.1269 25.9065C23.0839 25.8562 22.9916 25.9253 22.9793 25.9818C22.924 26.2079 23.1023 26.3523 23.1945 26.5219C23.2007 26.5345 23.2376 26.5282 23.299 26.5407Z" fill="#222222"/>
</svg>
