<svg xmlns="http://www.w3.org/2000/svg" fill="none" viewBox="0 0 48 49"><g clip-path="url(#a)"><path fill="currentColor" fill-rule="evenodd" d="M37.919 22.985v-.139h.023c-.011-.104-.023-.208-.023-.3h-.023c-.012-.058.058-.104.023-.197l-.058-.023v-.023c.046-.058 0-.162.023-.255h.023v-.092c.024-.023.059-.035.082-.058a4.965 4.965 0 0 1-.023-.416c-.012-.15-.024-.301-.024-.44h-.023a.897.897 0 0 0 .023-.162h-.023v-.254h-.023v-.197h-.024c-.023-.07.024-.15.024-.162h-.024v-.22h-.023v-.023h.023c.012-.046.047-.127.024-.196h-.024v-.116h-.023v-.139h-.023v-.08h-.024a.212.212 0 0 0 .024-.081h-.024v-.081h-.023v-.162h-.023c-.012-.162-.024-.313-.024-.474l-.058-.024a2.813 2.813 0 0 1-.023-.3h-.024c-.011-.035-.023-.07-.023-.116h-.023v-.115l-.059-.024a.339.339 0 0 0 .024-.115h-.024v-.058a.217.217 0 0 0-.081-.023c-.024-.023.058-.047.058-.058v-.139h-.082v-.08h-.023a.339.339 0 0 1-.023-.117h-.024v-.08h-.046v-.058h-.024v-.139l-.116-.058a2.816 2.816 0 0 1-.024-.3h-.023v-.081h-.023v-.058h-.024c-.023-.058-.035-.116-.058-.162h-.023v-.255h-.024c-.058-.138-.163-.242-.163-.416a.219.219 0 0 0-.082-.023.339.339 0 0 0 .024-.116h.023a.213.213 0 0 1-.023-.08h-.024v-.082l-.058-.023v-.058H36.6v-.057l-.059-.058v-.058l-.058-.023v-.093c-.035-.023-.07-.057-.117-.08-.046-.082.047-.07-.081-.116-.012-.174-.035-.104-.117-.197h-.023a.339.339 0 0 1-.024-.116c-.023-.011-.035-.023-.058-.023v-.08h-.023c-.012-.035-.024-.07-.024-.116h-.023v-.081h-.023c-.012-.058.058-.104.023-.197h-.023v-.058a2.043 2.043 0 0 1-.164-.138v-.081c-.023-.012-.035-.024-.058-.024v-.161c-.023-.012-.035-.023-.058-.023v-.058c-.047-.035-.094-.07-.14-.116v-.058c-.024-.023-.059-.034-.082-.058v-.08h-.023c-.024-.024-.035-.058-.059-.082h-.081c-.024-.08-.047-.069-.059-.08v-.14h-.046c-.024-.034-.047-.08-.082-.115s0-.011-.058-.023c0-.104-.012-.139-.059-.197h-.023c-.047-.069.035-.057-.082-.08v-.058h-.058a.213.213 0 0 1-.023-.081c-.024-.024-.059-.035-.082-.058v-.058l-.058-.058h-.059c-.011-.023-.023-.035-.023-.058-.023-.023-.058-.034-.082-.057v-.058l-.058-.058h-.058c-.059-.07-.117-.127-.164-.197-.023-.011-.035-.023-.058-.023v-.058c-.07-.058-.128-.115-.198-.162-.012-.034-.024-.069-.024-.115a1.227 1.227 0 0 1-.14-.116c.012-.023.059-.08.024-.139-.035-.023-.07-.058-.117-.08-.047-.058-.093-.116-.14-.163h-.058v-.023c-.07-.058-.105-.115-.199-.138-.046-.15-.175-.162-.28-.255a2.01 2.01 0 0 0-.14-.162l-.116-.023c-.012-.023-.024-.035-.024-.058-.058-.023-.116-.034-.163-.057-.035-.047-.07-.093-.117-.14h-.058l-.198-.254h-.059V9.94h-.058c-.012-.023-.023-.035-.023-.058h-.059V9.86c-.035-.023-.07-.058-.116-.08-.035-.059.011-.128-.024-.197a.218.218 0 0 0-.081-.024c-.012-.023-.024-.034-.024-.057h-.058c-.012-.023-.023-.035-.023-.058a.867.867 0 0 0-.257-.116v-.08c-.152-.047-.268-.174-.443-.197-.035-.128-.082-.093-.199-.14v-.022l-.116-.023v-.058c-.024-.035-.374-.185-.444-.197v-.058c-.07-.011-.105-.023-.198-.023v-.058c-.012-.023-.21-.104-.257-.115-.011-.035-.023-.07-.023-.116-.082-.011-.128-.058-.198-.08h-.117c-.012-.024-.023-.036-.023-.059h-.059v-.023h-.023v.023h-.023a.213.213 0 0 1-.024-.08 2.282 2.282 0 0 0-.28-.024.214.214 0 0 1-.023-.08.217.217 0 0 0-.082-.024c-.011-.023-.023-.034-.023-.058h-.117v-.034h-.058c-.023-.023-.035-.058-.058-.081a.218.218 0 0 0-.082-.023v-.058c-.047-.012-.093-.023-.14-.023-.012-.023-.023-.035-.023-.058h-.059v-.035h-.116V7.5c-.164.023-.14.127-.304.162-.023.08-.035.058-.058.139-.035.011-.07.023-.117.023-.023.092-.058.185-.081.277-.035.023-.082-.011-.117.023v.07h-.023c-.024.092-.035.185-.059.277l-.058.024v.08c-.023.024-.058.035-.082.058v.081h-.023v.058h-.023v.081h-.024v.058h-.023v.092a.217.217 0 0 1-.082.024c-.035.034-.035.092-.058.138h-.023c-.024.116-.035.22-.059.336-.023.023-.058.034-.081.058a.574.574 0 0 0-.024.138h-.023c-.035.07-.012.197-.058.255v.023c-.047.011-.094.023-.14.023-.012-.023-.024-.035-.024-.058a.59.59 0 0 0-.14-.023v-.023c-.116-.046-.221.023-.303-.058-.047-.035-.035-.012-.058-.08-.14-.012-.199-.082-.304-.117h-.221v-.023h-.14v-.034c-.082-.024-.199.034-.222.023-.012-.023-.023-.035-.023-.058h-.14v-.023c-.059-.012-.129 0-.14.023h-.024v-.058l-.058-.023v-.023c-.093-.046-.187.011-.257 0V9.42c-.046 0-.14.034-.221 0-.012-.023-.024-.035-.024-.058-.151-.07-.326.058-.501 0v-.023h-.059v-.023h-.618c-.012-.023-.023-.035-.023-.058h-.024l-.058.023v-.023h-.28c-.047.011-.163.046-.257.023v-.023h-.221v.023l-.059-.023v.023h-.303v.023h-.163v.023c-.047-.011-.094-.023-.14-.023v.023h-.059c-.011.023-.023.035-.023.058l-.058-.023v.023a6.003 6.003 0 0 1-.444.023v-.023h-.198v-.023h-.163v.023h-.129v.023h-.081v.023h-.14c-.012.023-.024.035-.024.058-.058-.011-.128-.092-.256-.058v.035h-.059v.023c-.07.012-.128.023-.198.023v.023c-.07.012-.152.024-.222.024-.011.023-.023.034-.023.057-.082.012-.163.023-.257.023v.058c-.035.012-.07.023-.116.023v.024c-.047.011-.094.023-.14.023v.023h-.14c-.024.023-.035.058-.059.08-.046.012-.058-.022-.058-.022-.105.011-.21.023-.303.023v.023c-.07.011-.152.023-.222.023-.14.058-.245.185-.443.197a.212.212 0 0 0-.024.08c-.081 0-.14 0-.198.024v.057a.588.588 0 0 1-.14.024v.023h-.058v.023h-.059c-.011.023-.023.035-.023.058h-.058l-.059.057H17.2v.024h-.058c-.012.023-.024.034-.024.057h-.081c-.012.024-.024.035-.024.058h-.081c-.024.035-.059.07-.082.116h-.058v.023h-.059c-.011.023-.023.035-.023.058-.07.011-.128.023-.198.023v.035c-.105.034-.187 0-.28.058-.024.034-.059.069-.082.115h-.082c-.011.023-.023.035-.023.058a.347.347 0 0 1-.117.023 2.01 2.01 0 0 1-.14.162.219.219 0 0 1-.081.023v.058c-.024-.023-.07-.023-.117 0a.212.212 0 0 0-.023.081c-.035.035-.105.035-.14.058-.012.023-.024.034-.024.058a.347.347 0 0 1-.116.023c-.012.023-.024.034-.024.058h-.058v.034h-.058c-.024.023-.035.058-.059.081h-.07c-.023.046-.058.093-.081.139h-.117c-.012.023-.023.035-.023.058h-.059c-.046.07-.093.127-.14.196a.217.217 0 0 1-.081.024v.057h-.082v.024c-.07.046-.058.069-.163.08v.058h-.07c-.059.07-.117.15-.164.22h-.058v.058h-.058c-.012.023-.024.035-.024.058h-.023v.058h-.023c-.047.057-.094.104-.117.196h-.082c-.023.046-.035.093-.058.139h-.058a.575.575 0 0 0-.024.139c-.023-.012-.058-.058-.116-.023v.023a.284.284 0 0 0-.14.196h-.082c-.047.058-.093.116-.14.162h-.023v.058c-.024.023-.059.035-.082.058l-.023.115h-.024c-.046.058-.093.104-.116.197a.218.218 0 0 1-.082.023v.116a.347.347 0 0 1-.117.023c-.023.07-.046.092-.081.139h-.024v.057c-.023.012-.035.024-.058.024v.08h-.023c-.024.035-.024.047-.024.116-.128.035-.035.023-.081.116-.024.023-.059.035-.082.058v.08c-.035.024-.07.035-.117.059v.057c-.023.023-.058.035-.081.058v.081h-.024v.081c-.035.023-.07.035-.116.058a.339.339 0 0 0-.024.116h-.023c-.023.057-.035.115-.058.161h-.024v.081h-.023a.547.547 0 0 0-.082.255h-.105c-.046.15-.093.3-.14.44-.035.022-.07.057-.116.08-.024.093-.059.185-.082.278-.14.034-.082.07-.14.162-.023.011-.035.023-.058.023v.08h-.024v.059h-.035v.115H10.9v.116h-.023v.116c-.024-.012-.047 0-.059.011v.22h-.035c-.035.115-.058.185-.058.335a.219.219 0 0 1-.082.023c-.023.116-.058.174-.058.336h-.082c-.023.046-.011.08-.023.138h-.023v.255h-.035v.116c-.024.023-.059.034-.082.057v.081h-.023v.278h-.035c-.012.092-.024.185-.024.277h.024a.214.214 0 0 1 .023.081.217.217 0 0 1-.082.023c-.011.07-.023.128-.023.197h-.023v.116h-.035c-.012.115-.024.22-.024.335h-.035v.139h.035l-.023.058h.023v.023c-.023.011-.035.023-.058.023v.335c-.012.035-.07.162-.058.22h.023v.116h.023c0 .023-.046.07-.023.138h.023c0 .024-.046.093-.023.162.023.058.093.162.058.278h-.023v.058h-.023c.011.092.023.185.023.277h-.023v.22s.046.023.023.081h-.023v.22h.023v.08h.023v.556h.035v.162h.024v.115h.023v.14h.023v.161c.024.012.035.023.059.023.011.185.023.37.023.555h.023c.012.035.024.07.024.116h.023c.012.092.023.185.023.277.024.012.035.024.059.024.011.08.023.162.023.254h.023c.012.035.024.07.024.116h.023v.08h.023v.058h.024v.14h.023v.057h.023v.08h.094v.059c.023.011.035.023.058.023v.08h.023c-.011.059-.035.244 0 .336h.035c.012.035.024.07.024.116h.023c.012.035.023.07.023.116.024.011.035.023.059.023v.115c.023.012.035.023.058.023.023.093.035.186.058.278.024.012.035.023.059.023v.058h.023v.162h.023c.012.034.024.07.024.115.035.024.07.058.116.081.024.081.059.162.082.255a.219.219 0 0 0 .082.023c.011.127.023.185.081.254.024.012.035.024.059.024v.161h.023v.058c.047.035.093.07.14.116v.116c.023.011.035.023.058.023.012.034.024.07.024.115h.058v.058h.058c.012.07.024.07.059.116h.023a.339.339 0 0 0-.023.115h.023v.058c.023.012.035.023.058.023v.058l.222.197v.116c.023.011.035.023.058.023v.057c.059.035.117.07.164.116v.058c.023.023.058.035.081.058v.058h.024c.035.046.011.034.081.057a.214.214 0 0 0-.023.081h.023c.035.14.14.197.222.278l.023.058a.22.22 0 0 0 .082.023v.058c.023.011.035.023.058.023l.222.254h.058c.024.104.14.22.257.255v.08h.023c.024.035.059.07.082.116h.058l.024.058c.046.046.105.081.163.116v.058a.428.428 0 0 1 .163.08v.024a.22.22 0 0 0 .082.023v.08h.023c.047.058.094.116.14.163h.059c.023.023.035.057.058.08h.058a.212.212 0 0 1 .024.082h.023c.035.046.07.092.117.138h.058c.047.058.093.116.14.162.058.023.117.035.163.058.035.046.07.092.117.139h.058l.024.058h.058v.023h.058l.059.057h.105l.058.116h.058l.024.058c.035.012.07.023.116.023l.024.058h.058v.023c.047.012.093.023.14.023l.023.058h.082c.023.023.035.058.058.081h.14l.035.046h.059v.023c.035.012.07.023.116.023v.024h.117v.023c.035.011.07.023.117.023l.023.058c.105.07.222.115.362.139-.012.034-.012.069-.024.115h-.023v.116c-.023.011-.035.023-.058.023a.212.212 0 0 0-.024.08c-.023.024-.058.036-.081.059v.057c-.024.012-.035.024-.059.024-.011.058-.023.115-.023.162h-.023c-.024.057-.035.115-.059.161h-.023c-.035.047-.035.047-.058.116-.105.035-.035.012-.082.081h-.023v.058h-.024v.058h-.023v.08c-.023.012-.035.024-.058.024a.339.339 0 0 0-.024.115c-.023.023-.058.035-.081.058-.035.081.011.185-.024.255-.035.08-.116.115-.14.22-.011.022-.035 0-.023.057h.023v.058c.024.012.035.023.059.023v.22H16.3v.22c.011.011.175.104.198.115h.117c.023.023.035.058.058.081.093.023.187.035.28.058l.023.058h.082v.023h.058v.023h.14v.023h.059v.023h.116v.023l.199.058c.011.058 0 .023.023.058.07.07.117.023.222.058v.023h.116v.023h.14l.024.058c.07.023.105-.035.14-.023v.023h.058v.023c.047.012.058-.023.058-.023.105.023.21.035.304.058l.023.058h.082c.023.023.035.058.058.08h.058v.024h.257l.023.058c.105.011.21.023.304.023a.215.215 0 0 1 .023.08h.117v.024h.396v.023h.059v.023c.046.012.046-.023.058-.023h.14v-.023h.14v.023c.058.011.082-.035.117-.023v.023h.046v.023h.024v.023h.116a.212.212 0 0 1 .024.081c.105.035.221.058.361.058.024.058.012.104.024.162h.035v.197h.023a.896.896 0 0 0-.023.161h.023l.023.301c-.105.023-.163.07-.256.116v.023h-.117v.023h-.082v.023h-.058v.023a2.278 2.278 0 0 1-.28.023l-.023.058a.59.59 0 0 1-.14.023v.023h-.059v.024c-.046.011-.093.023-.14.023v.023c-.07.011-.128.023-.198.023v.023h-.058l-.024.058a.347.347 0 0 1-.116.023v.023c-.035.012-.07.023-.117.023v.023c-.07.012-.152.024-.222.024l-.023.057h-.058l-.024.058h-.035v.023h-.198v.023c-.047.012-.093.024-.14.024l-.023.057c-.059.024-.117.035-.164.058l-.023.058h-.152c-.023.046-.058.093-.081.139h-.059v.023h-.116v.023h-.059v.023c-.058.012-.116.023-.163.023v.023h-.058l-.024.058c-.058-.011-.116-.023-.163-.023v.023H17.7l-.024.058h-.058v.023c-.047-.011-.093-.023-.14-.023v.023c-.058.023-.117.035-.163.058l-.024.058a.347.347 0 0 1-.116.023v.023c-.082.012-.164.023-.257.023v.023c-.058.024-.117.035-.163.058v.023c-.035.012-.07.023-.117.023l-.023.058c-.105.024-.21.035-.304.058v.023h-.058c-.023.023-.035.058-.058.081h-.059v.023c-.07.012-.128.023-.198.023v.024h-.082v.023H15.8l-.023.058c-.035.011-.07.023-.117.023v.023h-.082v.023h-.058v.023h-.082c-.023.023-.035.058-.058.081-.082.023-.163.058-.257.081v.058c-.093.023-.151.07-.221.116h-.059v.023h-.058v.023h-.14v.023h-.058v.023h-.082v.023h-.058l-.024.058a.588.588 0 0 1-.14.023l-.023.058h-.117v.023h-.023c-.012.058 0 .023-.023.058.011.046.023.092.023.139h.023c-.011.046-.023.092-.023.138h.023v.058c.024.012.035.023.059.023.023.058.035.116.058.162.023.023.058.035.082.058.023.058.035.116.058.162.14.023.35.023.537.023h.221l.024.058h.641c.035-.012-.011-.023.024-.023v.023c.105-.012.21-.023.303-.023.012 0 .012-.035.058-.023v.023h.117v-.023h.163c.035.011.164.07.222.057v-.023h.117v-.023c.035 0-.012.023.023.023h.082v.023c.116-.011.245-.023.361-.023v.023h.304v-.023c.046-.011.046.023.058.023h.222v-.023c.07-.011.128.012.163.023v.024c.163-.012.338-.023.502-.023l.023.057h.14v.023c.07-.011.128-.023.198-.023v-.023a.218.218 0 0 0 .082.023h.28v-.023h.023c.094 0 .059.046.082.058h.222v.15h.256c.012 0 .012-.034.059-.023v.023h.116l.024-.057c.093-.035.186 0 .221-.024.047 0 .07.07.082.081.082.035.245-.011.28-.023.198.012.397.023.583.023v-.023h.222c.012 0 .012.035.058.023v-.023h.059v-.023c.105.012.21.023.303.023v.023h.058v.023h.222v-.023h.42v-.023h.163v-.023c.012 0 .105.046.164.023v-.023h.116v-.023h.024c.105-.012.175.07.256 0 .129 0 .129.023.164.116.233 0 .49 0 .618-.023a.588.588 0 0 0 .14.023v-.047h.082v-.023c.128-.046.315.012.42-.023.023.046.058.093.081.139.21 0 .42-.023.56-.023h.082c.023-.012.023-.093.117-.058l.023.058h.14v.023c.047.011.047-.023.058-.023h.397v.023h.303s.024-.046.082-.023v.023c.163-.012.315-.023.478-.023v-.023c.035 0 .105.057.164.023l.023-.058.677.058c.058 0 .186-.023.198-.023.012.023.023.034.023.057h.257v-.023h.42s.023-.046.082-.023c.011.023.023.035.023.058h.14c.012 0 .012.035.058.023V41.5h.117v-.023a.219.219 0 0 0 .082.023v.023c.163-.011.315-.023.478-.023.035-.012-.012-.035.023-.023.012.023.024.035.024.058.163-.023.338-.058.501-.081h.024v.023h.14v-.023h.198v.023h.082v-.023a.219.219 0 0 1 .081-.023v-.116a.218.218 0 0 1 .082-.023v-.023h.023v-.116c.024-.011.035-.023.059-.023a.574.574 0 0 1-.024-.139h.024v-.22h-.024c-.058-.069-.07-.011-.081-.138-.059-.024-.117-.035-.164-.058-.011-.023-.023-.035-.023-.058-.082-.023-.163-.058-.257-.08v-.024h-.058v-.023h-.14v-.023h-.058v-.023h-.082c-.012-.024-.023-.035-.023-.058h-.082v-.023a.217.217 0 0 1-.082.023v-.023h-.058c-.012-.023-.023-.035-.023-.058h-.059c-.011-.023-.023-.035-.023-.058-.058-.012-.117-.023-.163-.023-.024-.023-.035-.058-.059-.081h-.058c-.023-.023-.035-.058-.058-.081a.347.347 0 0 0-.117-.023v-.023c-.07-.012-.128-.023-.198-.023v-.024c-.059-.023-.117-.034-.164-.057v-.024h-.058v-.023h-.082v-.023h-.058v-.023h-.117v-.023h-.081v-.023h-.082v-.139h-.058c-.012-.023-.024-.035-.024-.058-.116-.023-.245-.058-.361-.08-.012-.024-.024-.035-.024-.059h-.058c-.023-.034-.058-.069-.082-.115l-.42-.139v-.081a.42.42 0 0 0-.116-.023l-.024-.058h-.081v-.023h-.059v-.023a1.449 1.449 0 0 0-.221-.023l-.024-.058a.588.588 0 0 0-.14-.023l-.023-.058h-.082l-.023-.058a1.758 1.758 0 0 0-.257-.023l-.023-.058h-.082v-.023h-.058l-.023-.058h-.117v-.023h-.117v-.023c-.046-.012-.093-.023-.14-.023V38.4c-.023.011-.035.023-.058.023-.023-.023-.035-.058-.058-.081h-.082v-.023h-.058v-.023h-.117l-.082-.162h-.081v-.023h-.059v-.081c-.093-.023-.186-.035-.28-.058v-.023H24.9l-.023-.058-.257-.058c-.023-.023-.035-.058-.058-.08h-.059v-.024h-.058v-.023h-.117v-.023h-.116v-.023c-.047-.024-.07-.024-.14-.024-.035-.127-.035-.023-.117-.08v-.024c-.105-.104.023-.127-.023-.277h-.024v-.058h-.023c-.035-.116.047-.116.058-.139.012-.115.024-.22.024-.335.035-.023 0 0 .023-.023.105.011.21.023.303.023V36.7h.082v-.058h.163v-.023c.035.011.07.023.117.023v-.023h.058l.024-.058c.07-.012.151-.023.221-.023.035 0-.011.023.024.023v-.035h.058l.023-.058h.164a1.56 1.56 0 0 1 .221-.057v.023h.257v-.023h.14v-.024h.058v-.023h.082v-.023c.082-.011.163-.023.257-.023v-.023h.058v-.023h.117c.035-.012-.012-.023.023-.023.012.011 0 .046.058.023v-.023h.082v-.023h.058v-.024h.082v-.023h.082v-.023h.14v-.023h.058l.023-.058h.082v-.023h.058v-.023h.117v-.081h.14v-.023h.058v-.023h.082v-.023c.07-.024.105.023.14.023v-.023h.082v-.047c.035-.011.07-.023.116-.023v-.023c.059.012.117.023.164.023v-.023h.058v-.023h.082c.011-.023.023-.035.023-.058h.058c.012-.023.024-.035.024-.058h.081c.012-.023.024-.034.024-.058a.919.919 0 0 1 .163-.023c.023-.069.012-.046.058-.08v-.024h.059c.011-.023.023-.034.023-.058h.082c.011-.023.023-.034.023-.057h.058v-.023h.059V35.3c.07-.011.128-.023.198-.023v-.023c.023.012.035.023.058.023v-.023a.347.347 0 0 1 .117-.023v-.023c.047-.012.093-.023.14-.023.023-.023.035-.058.058-.081h.059v-.023c.035-.012 0 .011.023.023.047-.012.093-.023.14-.023v-.023h.058c.012-.024.024-.035.024-.058h.058c.023-.023.035-.058.058-.081h.059c.011-.023.023-.035.023-.058h.14c.012-.023.023-.035.023-.058h.059v-.023h.081c.012-.023.024-.035.024-.058.035-.011.07-.023.116-.023.012-.023.024-.035.024-.058h.058v-.08h.058c.012-.024.024-.035.024-.059a.56.56 0 0 1 .28-.161c.011-.058 0-.024.023-.058v-.023h.14c.012-.024.023-.035.023-.058h.059c.035-.047.07-.093.116-.14h.082c.012-.022.023-.034.023-.057h.059c.023-.023.035-.058.058-.08h.058c.012-.024.024-.035.024-.059h.058c.012-.023.023-.034.023-.057h.059c.023-.035.058-.07.081-.116.07-.058.129-.116.199-.162h.058c.058-.266.35-.197.42-.44.07-.023.07-.011.082-.08a.846.846 0 0 0 .28-.162c.011-.023.023-.035.023-.058h.058l.059-.058v-.058c.07-.058.128-.116.198-.162.012-.023.023-.034.023-.058.035.012.059.058.117.024.023-.023.035-.058.058-.081h.059c.011-.023.023-.035.023-.058a1.24 1.24 0 0 0 .14-.116.339.339 0 0 0 .023-.116h.024v-.023c.058-.057.046.035.081-.08h.059v-.024c.07-.058.128-.115.198-.162v-.057c.023-.024.058-.035.082-.058v-.058c.023-.012.035-.023.058-.023.023-.035.058-.07.082-.116.023-.011.035-.023.058-.023a.339.339 0 0 0 .023-.116h.024a.27.27 0 0 0 .081-.162h.082c.023-.034.035-.069.058-.115.024-.012.035-.023.059-.023v-.058c.023-.023.058-.035.081-.058v-.058c.024-.023.059-.035.082-.058v-.057c.023-.012.035-.024.058-.024.012-.034.024-.069.024-.115.023-.012.035-.023.058-.023a.339.339 0 0 0 .023-.116h.024c.035-.046.046-.046.058-.116.058-.011.023 0 .058-.023h.059s.21-.312.221-.335v-.081c.024-.023.059-.035.082-.058v-.07h.023c.035-.046.047-.057.059-.138a.347.347 0 0 1 .116-.023.212.212 0 0 0 .024-.081h.023v-.058h.023c.012-.058.024-.116.024-.162l.058-.023c.07-.116.14-.243.14-.416a.588.588 0 0 1 .14-.023c.035-.15.128-.278.14-.44.058-.011.023 0 .058-.023h.024v-.116h.023v-.057h.023c.024-.058.035-.116.059-.162h.023v-.116h.023v-.058h.024v-.115c.035-.024.07-.058.116-.081v-.105h.024v-.057h.023v-.14h.023v-.057l.059-.023v-.058h.023v-.058h.023c.012-.058.024-.115.024-.162h.023v-.08h.023v-.082h.024v-.092h.023v-.081h.023v-.139h.024c.046-.196.093-.393.14-.578h.081c.047-.127.082-.335.082-.497a.217.217 0 0 1 .082-.023.868.868 0 0 0 .058-.336c.058-.011.023 0 .058-.023.094-.104 0-.231.059-.358l.058-.024v-.335h.023v-.162h.024c-.012-.07-.024-.127-.024-.197h.024v-.057h.023c.012-.208.023-.405.023-.613.024-.023.059-.035.082-.058.047-.093-.023-.254-.023-.3v-.024c.245-.023.256-.023.268-.023Zm-10.36-12.848h-.023c.011-.058 0-.07.023-.116h.023c.047-.07-.023-.058.082-.08a.574.574 0 0 0 .023-.14h.059a.214.214 0 0 1 .023.081c.07.012.128.023.222.023v.058c.058.012.058.023.058.023h.14c.012.023.023.035.023.058h.082v.023c.023-.011.035-.023.058-.023.012.023.024.035.024.058h.081v.023h.059v.035h.081c.024.023.035.058.059.08h.081v.035c.047.035.059.047.14.058.024.081.047.093.14.116.024.08.035.092.117.116.023.08.047.08.082.138h.081v.058c.082.023.164.058.257.081.023.081.035.07.082.116v.011h.081c.024.024.035.058.059.081h.081v.035h.059v.023h.058c.023.023.035.058.058.081h.082v.023c.047.035.093.07.14.116v.058c.023.011.035.023.058.023v.023l.117.023c.012.023.023.035.023.058h.059v.035a.918.918 0 0 0 .163.023v.023c.058.046.023.058.117.08.011.093.011.07.058.117v.023h.082c.023.023.035.057.058.08h.058v.024h.082c.023.046.058.092.082.139h.023c.012.023.023.034.023.057h.059c.07.093.128.185.198.278h.082v.08c.07.012.163.059.198.116.023.047 0 .081.023.116a.22.22 0 0 0 .082.023v.023c.023.024.058.035.082.058v.058c.023.023.058.035.081.058v.08c.024.024.059.036.082.059a.212.212 0 0 1 .023.08c.059.047.117.093.164.14.081.092-.024.15.14.196.011.058.023.07.058.116h.023v.08c.035.024.07.058.117.082v.057c.035.023.07.058.117.081v.058h.023v.058h.023v.08h.024a.215.215 0 0 1 .023.082c.128.034.058.104.198.139.024.069.047.092.082.138h.023v.058c.024.012.035.023.059.023v.081h.023v.058c.023.012.035.023.058.023v.081c.035.023.07.058.117.081v.058c.058.046.117.092.163.139.012.034.024.07.024.115l.058.024v.08h.023v.058l.059.023v.116h.023v.058h.023v.08h.024v.059c.023.023.058.034.081.057.035.047 0 .058.059.116v.023h.081c.024.058.035.116.059.162l.058.023v.081l.058.023v.116h.024v.058h.023v.162l.058.023c.012.035.024.07.024.116.023.023.163.104.163.115v.139l.058.023c.012.093.024.185.024.278h.023v.057h.023v.116l.059.023c.011.046-.024.058-.024.058.012.035.024.07.024.116h.023c.023.069-.035.08-.023.115h.023v.081l.058.023a.574.574 0 0 1 .024.14c.023.022.058.034.081.057.024.058-.035.08-.023.116h.023v.08h.024v.324h.023v.116h.023v.139h.024c-.012.07-.024.127-.024.196h.024v.058h.023v.139h.023c.012.035.024.07.024.116h.023a.574.574 0 0 0-.023.138h.023v.058h.023c-.011.035-.023.07-.023.116h.023v.22h.024a.575.575 0 0 0-.024.138h.024v.058h.023c.012.116.023.22.023.336h.024c.011.104.023.208.023.3h.023c0 .012-.046.127-.023.197.023.092.07.486.023.613h-.023v.162h.023c0 .034-.023-.012-.023.023v.3h.023a.214.214 0 0 0-.023.082c0 .057.023.057.023.057.035.116-.011.29-.023.359v.474l-.058.023v.116h.151v.058h-.023c-.047.15.035.427 0 .532h-.023v.057h-.024v.081h-.046a1.4 1.4 0 0 0-.024.22l-.058.023v.058h-.023c-.024.07.035.08.023.116h-.023v.058h-.024c-.011.046.024.08.024.08.011.058-.024.058-.024.058a.898.898 0 0 1 .024.162h-.024v.139h-.023v.139l-.058.023c-.012.046-.024.092-.024.139l-.058.023v.162h-.023c-.012.011-.024.254-.024.254.012.023.024.035.024.058h-.024v.08h-.023c-.012.036.047.047.023.117h-.023v.115l-.058.023v.058h-.024c-.011.046.024.058.024.058a.212.212 0 0 0-.024.08h-.023a.213.213 0 0 1 .023.082h-.023v.058h-.023v.138l-.059.024v.115l-.058.023v.058h-.023v.162h-.07l-.199.67h-.058c-.012.059-.023.105-.058.14l-.059.023v.115l-.058.023c-.035.081.012.186-.023.255-.024.023-.059.035-.082.058a.339.339 0 0 0-.023.115l-.059.023v.058h-.023v.058c-.023.023-.058.035-.082.058v.058l-.058.058-.058.023v.115l-.059.023c-.011.035-.046.185-.058.22a.217.217 0 0 1-.082.023l-.023.024v.115l-.058.023v.116l-.059.023v.058H33.3v.08l-.058.024v.08c-.035.024-.07.059-.117.082.012.023.023.035.023.058-.023.023-.058.034-.081.058v.057c-.024.012-.035.023-.059.023v.024c-.023.011-.035.023-.058.023v.057h-.023c-.035.047-.047.047-.059.116-.116.035-.093.093-.163.139h-.058l-.059.058v.058c-.035.023-.07.057-.116.08v.081h-.059c-.046.232-.221.359-.361.498-.024.023-.035.058-.059.08h-.081c-.024.047-.059.093-.082.14h-.058c-.024.023-.035.057-.059.08h-.081c-.024.047-.059.093-.082.14h-.058c-.024.092-.07.103-.082.196-.047.011-.093.023-.14.023v.058c-.117 0-.14.011-.163.115-.082.024-.117.058-.14.14h-.059c-.023.034-.058.069-.081.115h-.059c-.011.023-.023.034-.023.058h-.023v.057c-.164.047-.059.105-.14.162a.59.59 0 0 1-.14.023c-.024.024-.035.058-.059.081-.035.012-.07.024-.116.024-.012.023-.024.034-.024.057a.588.588 0 0 1-.14.024c-.023.034-.035.069-.058.115-.058.023-.117.035-.163.058-.024.023-.035.058-.059.081h-.058c-.023.035-.058.07-.082.116-.105.057-.116-.047-.163.115-.082.023-.117.047-.198.081v.023c-.059.012-.117.023-.164.023-.023.024-.035.058-.058.081h-.082c-.023.024-.035.058-.058.081-.058.035-.117 0-.198.023v.024h-.059c-.011.023-.023.034-.023.057h-.082c-.011.024-.023.035-.023.058a.217.217 0 0 1-.082.023c-.023.024-.035.058-.058.081-.035-.011-.07-.057-.14-.023-.012.023-.023.035-.023.058-.047.012-.059-.023-.059-.023a.588.588 0 0 1-.14.023v.058c-.07.012-.093 0-.14.023v.023h-.058v.023h-.082c-.023.023-.035.058-.058.081h-.082v.023h-.058v.023H27.5l-.024.058h-.081c-.024.035-.059.07-.082.116h-.082l-.023.058h-.163v.023h-.164l-.023.058c-.07.011-.152.023-.222.023v.023h-.058l-.023.058h-.117l-.023.058c-.07.011-.129.023-.199.023-.035-.012.012-.023-.023-.023v.023h-.082v.058h-.14l-.023.057h-.117v.023a7.255 7.255 0 0 1-.501.024v.023h-.14l-.024.058h-.14l-.023.057h-.117v.024h-.081v.023h-.117v-.023c-.07-.012-.117.034-.14.023v-.023c-.117.011-.222.023-.338.023v.023c-.082.023-.14-.012-.199.023l-.023.058a1.758 1.758 0 0 0-.257-.023v.023h-.14v.023h-.163v.023h-.023v.058c-.07-.012-.129-.023-.199-.023v-.023c-.046-.012-.058.023-.058.023-.082-.012-.163-.023-.257-.023l-.023-.058c-.105.011-.21.023-.303.023v.023c-.035 0-.07-.046-.14-.023v.023h-.28v.023c-.222-.035-.444-.07-.677-.116v-.023h-.058v-.023c-.152.012-.304.023-.444.023v-.023h-.058v-.034a2.278 2.278 0 0 0-.28-.023v-.024h-.14v-.023h-.058v-.023h-.14v-.023h-.164v-.023h-.058v-.023c-.07-.023-.105.034-.14.023v-.023a1.438 1.438 0 0 0-.222-.023v-.024h-.14c-.023-.023-.035-.057-.058-.08-.082-.012-.163-.024-.257-.024-.023-.023-.035-.058-.058-.08h-.14l-.023-.058c-.082.011-.164.023-.257.023v-.023c-.058-.035-.082-.07-.163-.081v-.058c-.059-.012-.059-.023-.059-.023h-.14v-.081h-.058v-.023l-.257.057-.023-.057h-.082l-.023-.058h-.058c-.012-.012-.024-.035-.059-.058-.011-.058 0-.023-.023-.058a.574.574 0 0 0 .023-.139h.059c.011-.057 0-.023.023-.057v-.024c.07-.023.058.047.082.058h.058v.023h.058v.024h.164v.023h.081v.023h.082l.023.058c.082.034.14-.047.199-.024v.023h.058v.024l.257.057v.081h.023v.024h.082v.023h.081v.023c.035.011-.011-.023.024-.023.046-.012.046.023.058.023h.14v.023a.217.217 0 0 1 .082-.023l.023.058h.14v-.023c.035-.012-.012.023.023.023.094.023.21.011.28.023v.011h.024v.024c.081.023.07.011.081.08l.724.058.023.058h.257l.023.058h.058v.023h.584l.023.058h.14v.023h.023v-.023h.14v-.023c.024 0 .07.046.14.023v-.023h.024v.023h.081v.023h.14v.023c.117-.023.222-.035.339-.058.07.012.128.023.198.023v-.023h.163v-.023h.199v-.023a.588.588 0 0 0 .14.023v-.023h.058v-.023h.198v-.023h.117v-.023c.047-.012.047.023.058.023.117-.012.245-.023.362-.023v.023h.14v-.023h.082v-.023h.081v-.024h.222v-.023a.347.347 0 0 1 .117-.023v-.023c.093-.012.186-.023.28-.023l.023-.058c.047.023.093.058.14.081v-.023h.117v-.023c.035-.012.07-.023.116-.023v-.023c.082-.024.117.046.222 0v-.024c.058-.023.117-.034.163-.057v-.024h.082l.023-.057.024.023a.588.588 0 0 1 .14-.023v-.058c.07.011.046.011.081.058a1.05 1.05 0 0 0 .304-.081l.023-.058h.082l.023-.058h.163v-.023c.047-.012.094-.023.14-.023l.024-.058h.058v-.023a.347.347 0 0 1 .117-.023v-.093h.14l.023-.058h.082l.023-.058a.217.217 0 0 1 .082-.023v-.023a.347.347 0 0 1 .116-.023l.024-.058h.116v-.023h.059V33h.14c.011-.023.023-.035.023-.058h.082c.035-.046.07-.092.116-.139h.082c.012-.023.023-.034.023-.057h.082v-.024c.047-.046.058-.034.082-.115a.347.347 0 0 1 .116-.023c.012-.024.024-.035.024-.058l.023.023a.588.588 0 0 1 .14-.023v-.046h.058c.024-.035.059-.07.082-.116.035.012.047.046.117.023v-.023h.058v-.023h.058c.047-.058.094-.116.14-.162h.059c.023-.023.035-.058.058-.081.093-.058.07.046.117-.081.151-.012.14-.058.256-.08.035-.117.082-.105.164-.163.023-.023.035-.058.058-.08h.058c.047-.07.094-.128.14-.197h.164v-.023c.058-.047.116-.093.163-.14.012-.022.023-.034.023-.057h.059c.023-.023.035-.058.058-.081h.058c.024-.07.035-.058.059-.139.07-.023.093-.046.14-.08v-.024h.081v-.023a1.23 1.23 0 0 0 .14-.116v-.058c.047-.034.094-.069.14-.115v-.058a.218.218 0 0 1 .082-.023c.023-.035.058-.07.082-.116h.058v-.046c.023-.023.058-.035.082-.058v-.058c.023-.011.035-.023.058-.023v-.058c.035-.023.07-.058.117-.08a.214.214 0 0 0 .023-.081.217.217 0 0 1 .082-.024v-.057c.07-.058.128-.116.198-.162.023-.047-.012-.081.023-.116a.347.347 0 0 1 .117-.023c.047-.174.233-.185.257-.417h.058a.339.339 0 0 0 .023-.115c.07-.012.047-.012.082-.058h.023v-.058l.059-.023v-.092h.023v-.058h.023a.295.295 0 0 0 .059-.139.347.347 0 0 1 .116-.023.339.339 0 0 0 .024-.116l.058-.023v-.08h.023c.047-.116.035-.186.164-.22.011-.07 0-.07.023-.116h.023v-.081h.024v-.081h.023V27.9h.023c.024-.035.024-.046.024-.116.186-.046.128-.208.198-.358.047-.104.128-.139.14-.278a.217.217 0 0 1 .082-.023c.023-.08.058-.15.081-.22v-.115l.059-.023v-.081l.058-.023c.023-.116.035-.22.058-.336l.059-.023v-.116c.035-.023.07-.057.116-.08.024-.15.059-.301.082-.44h.082v-.023c.081-.081.023-.139.058-.255h.023v-.138h.024v-.116h.023c.012-.058-.023-.197-.023-.197h.023v-.057h.023c.024-.116.059-.243.082-.359h.023v-.058h.024v-.22h.023v-.057h.023v-.116h.024v-.277h.023v-.058h-.023c.023-.035.035-.07.058-.116h-.023v-.139h.023v-.058h.023v-.277l.059-.023v-.393h.023v-.278h.023v-.058h.024c.046-.115-.012-.497-.024-.578v-.324h-.023c.012-.162.023-.335.023-.497h-.023v-.197h-.023v-.196h-.024v-.14h-.023a2.22 2.22 0 0 0 .023-.277h-.023c-.023-.104-.035-.208-.058-.3h.023v-.058h.023c.012-.046-.023-.046-.023-.058v-.139h-.023v-.08h-.024v-.058h-.023v-.116h-.023c.011-.046.023-.093.023-.139-.023-.023-.058-.035-.082-.058-.023-.115-.035-.243-.058-.358h-.023v-.081h-.024v-.058h-.023v-.22h-.023v-.139h.081v-.115l-.058-.023v-.058h-.023c-.012-.081.046-.058.058-.081-.012-.07-.023-.127-.023-.197h-.024v-.058h-.046v-.057l-.059-.023v-.081l-.058-.023v-.14l-.058-.022c-.024-.093-.059-.186-.082-.278l-.058-.023c-.024-.058-.035-.116-.059-.162l-.058-.023c.012-.081.047-.162 0-.255h-.023v-.069l-.059-.023v-.058l-.058-.023v-.081l-.058-.023c-.024-.058.023-.07.023-.081-.012-.046-.047-.035-.058-.058v-.08c-.024-.024-.059-.035-.082-.059a.212.212 0 0 1-.023-.08h-.024c-.023-.082-.058-.162-.081-.255l-.117-.058v-.08l-.058-.024v-.08h.023c-.023-.059-.035-.117-.058-.163-.059-.046-.117-.092-.164-.139v-.057c-.023-.024-.058-.035-.081-.058v-.116h-.024v-.023h-.116v-.116l-.059-.023v-.058l-.058-.023v-.023c-.023-.011-.035-.023-.058-.023v-.058c-.024-.011-.035-.023-.059-.023a.215.215 0 0 1-.023-.08h-.023v-.059c-.024-.023-.059-.034-.082-.058v-.138h-.023c-.035-.047-.035-.047-.059-.116-.116-.023-.116-.08-.163-.162-.023-.011-.035-.023-.058-.023v-.08l-.257-.22v-.082h-.023c-.035-.046-.047-.046-.059-.115-.105-.023-.163-.093-.221-.162h-.024v-.058h-.023c-.035-.046-.012-.035-.082-.058v-.116c-.046-.034-.093-.069-.14-.115v-.023h-.058c-.035-.046-.07-.093-.117-.139h-.058c-.012-.07-.023-.058-.058-.116h-.117c-.012-.231-.187-.196-.28-.335h-.082c-.011-.07-.023-.058-.058-.116h-.117v-.115c-.058-.012-.07-.023-.116-.058v-.023l-.117-.023c-.082-.093-.163-.185-.257-.278h-.058a1.553 1.553 0 0 1-.222-.162H29.8v-.08c-.093-.024-.128-.082-.198-.14v-.023h-.059l-.058-.058h-.058v-.023h-.059c-.011-.023-.023-.034-.023-.058l-.117-.023c-.011-.023-.023-.034-.023-.057l-.117-.024c-.023-.104-.081-.092-.163-.138v-.024h-.117c-.07-.023-.081-.069-.198-.08-.012-.058 0-.024-.023-.058-.035-.035-.175-.058-.257-.058a.574.574 0 0 1-.023-.139c-.059-.023-.117-.035-.164-.058v-.023c-.105-.023-.21-.058-.303-.08-.012-.024-.023-.036-.023-.059h-.14c-.012-.023-.024-.034-.024-.057a.588.588 0 0 0-.14-.024v-.08h-.011c-.012-.035.093-.058.058-.14Zm5.017 15.982v.058h.023v.116c.035.023.07.057.117.08.011.035.023.07.023.116l.058.023a.215.215 0 0 0-.023.081h.023a.212.212 0 0 1 .024.081h.023v.058h.023v.058c.035.023.07.058.117.08v.059c.012.011.047 0 .023.057l-.058.023v.058a1.23 1.23 0 0 0-.14.116v.116l-.058.023v.115l-.024.023-.058.024c-.023-.058-.058-.209-.023-.301h.023v-.116h-.023v-.138h-.024v-.081H32.6v-.116h-.023v-.058h-.024c-.035-.092.035-.185.024-.254h-.024v-.185h-.035c-.035-.104-.011-.209 0-.278h.024v.162h.035Zm-.059-.462h-.023c-.012.057.023.057.023.057-.011.07-.023.128-.023.197-.105-.093-.035-.3-.023-.44h.023c0 .047.012.116.023.186Zm-.035-.232v-.058h.024c-.012.058.011.035-.024.058ZM21.282 10.3h.059l.023-.116a.588.588 0 0 1 .14-.023v-.023a.217.217 0 0 0 .082.023v-.023c.175-.046.361.08.501.058v-.035c.105.011.21.023.304.023.035-.012.221-.07.28-.058.081.023.221.081.338.058v-.023h.023v.023c.07-.012.152-.023.222-.023.012.023.023.035.023.058.082.034.14-.035.199-.023v.023c.07.011.256-.058.28-.058.011.023.023.035.023.058h.14c.012.023.023.034.023.057h.339v.024h.14c.011.023.023.034.023.058h.502v.034h.058v.023h.082c.011.023.023.035.023.058.105.012.21.023.303.023.012.023.024.035.024.058h.081v.023h.059v.023h.081v.023a.22.22 0 0 1 .082-.023v.023a.92.92 0 0 0 .163.024v-.024c.035-.011.07-.023.117-.023v.023h.058c.012.024.024.035.024.058h.081v.023h.024c.035-.011-.012-.046.023-.023v.023c.035.012.07.024.117.024.011.023.023.034.023.057.047.012.093.023.14.023.012.024.023.035.023.058a.59.59 0 0 0 .14.023c.012.058 0 .024.024.058v.023h.081v.024h.024v-.024h.023v.024h.058v.023H27c.012.023.023.034.023.057h.14c.012.024.024.035.024.058.081.023.163.035.256.058v.058l.222.116v.023h.117c.011.023.023.034.023.058h.198c.024.023.035.057.059.08h.081c.012.024.024.035.024.058.058.035.116.07.163.116v.08c.07.024.128.036.198.059.012.023.024.034.024.058.046.011.093.023.14.023.035.046.07.092.116.139h.059c.023.023.035.057.058.08h.082c.011.024.023.035.023.058.058.023.117.035.163.058.012.023.024.035.024.058h.081v.023c.035.023.047.023.117.023.023.081.035.093.117.116.046.15.046.058.14.115.023.024.035.058.058.081h.058c.024.035.059.07.082.116a.217.217 0 0 0 .082.023c.011.023.023.035.023.058h.082c.011.023.023.035.023.058h.058l.059.058v.058c.023.023.058.034.081.057v.058c.024.023.059.035.082.058v.023h.058c.012.023.024.035.024.058.046.035.14.092.198.115.023.15.07.093.117.162v.058h.023c.012.023.023.035.023.058h.059c.023.035.058.07.081.116h.059v.023c.023.023.058.034.081.058.035.046-.023.023.024.057V14h.058c0 .14.047.15.14.197v.058c.117.034.035.011.082.08h.023v.059c.035.023.07.034.117.057a.215.215 0 0 1 .023.081h.058l.059.058v.058c.023.011.035.023.058.023.058.093-.047.093.117.139v.058l.058.023a.212.212 0 0 1 .023.08c.024.024.059.035.082.059.023.034.023.115.058.138h.059c.023.081.07.104.116.162h.024c.011.035.023.07.023.116h.023v.058c.024.023.059.034.082.057v.14l.058.022c.012.058.024.116.024.162h.058c.035.15.128.15.163.255v.115h.024v.058l.058.023v.07h.023v.058h.024a.212.212 0 0 0-.024.08h.024v.058c.023.024.058.035.081.058v.081c.024.023.059.035.082.058v.058h.023v.058h.024v.162c.023.023.058.034.081.057v.081h.024v.023a.217.217 0 0 0 .081.024c.012.057.024.057.024.057v.14h.023v.057h.023v.139l.059.023c.011.046.023.092.023.139l.058.023c.012.104.024.208.024.3h.023a.574.574 0 0 1 .023.14h.024v.057h.023v.116h.023v.057h.024v.14l.058.022v.116l.058.023v.162h.024v.116h.023v.058h.023v.138c.012.024.059.197.059.22h-.024v.139h.024v.023h-.024v.162h.024v.116h.023V20h.023v.116h.024v.22h.023v.139h.023v.115h.024c-.012.185-.024.37-.024.555h.024a.212.212 0 0 0-.024.081h.024v.162h.023v.197h-.023v.139h.023l-.023.254h-.024v.3h.024v.197h-.024c-.011.058.024.081.024.081.011.07-.024.081-.024.081a.212.212 0 0 1 .024.081h-.024v.255h-.023a.574.574 0 0 1-.023-.14h-.059c-.011-.069 0-.069-.023-.115H33.8v-.07h-.024v-.138h-.023v-.116h-.023v-.08h.186v-.128h-.023v-.335h.023c0-.047-.058-.209-.023-.301h.023v-.173h.024c-.012-.058-.024-.116-.024-.162h-.023v-.197h-.023a.338.338 0 0 1-.024-.116h-.046v-.115a1.222 1.222 0 0 1-.14-.116v-.08a1.756 1.756 0 0 1-.199-.116h-.058c-.012-.024-.023-.035-.023-.058h-.082v-.058c-.07-.023-.07-.023-.117-.058v-.023h-.163c-.012-.023-.023-.035-.023-.058h-.059v-.023a.217.217 0 0 0-.081-.023v-.023a.347.347 0 0 1-.117.023v.023h-.058c-.012.023-.024.035-.024.058h-.14c-.011.023-.023.035-.023.058h-.058c-.059.046-.117.092-.164.138v.058l-.256.22c-.012.035-.024.07-.024.116-.07.057-.128.115-.198.162-.047.08.035.034-.058.115v.023h-.082c-.012.023-.023.035-.023.058h-.059c-.046.07-.093.127-.14.197h-.058c-.023.023-.035.058-.058.08h-.059c-.011.024-.023.035-.023.058h-.058c-.024.024-.035.058-.059.081h-.023v.058a.217.217 0 0 1-.082.023c-.023.023-.035.058-.058.081h-.058v.023c-.035.024-.07.058-.117.081v.058h-.023c-.024.023-.035.058-.059.081h-.058a.212.212 0 0 0-.023.081c-.059.012-.082.023-.117.058h-.082v-.023h-.023v-.185h-.023v-.081h-.024a.212.212 0 0 0 .024-.081h-.024v-.22h-.046v-.116h-.024c.012-.08.024-.161.024-.254h-.024v-.116h-.023v-.138h-.023c.011-.047.023-.093.023-.14h-.023v-.057l-.059-.023a.897.897 0 0 0 .024-.162h.023v-.3h.023v-.116h.024c-.012-.058-.024-.116-.024-.162.024-.023.059-.035.082-.058v-.116h.023c-.011-.034-.023-.07-.023-.115v-.22h.023c-.011-.07-.023-.127-.023-.197h.023c-.011-.034-.023-.069-.023-.115l.058-.023v-.058h.024a.215.215 0 0 0 .023-.081c-.047-.047-.023-.058-.058-.116h-.024v-.058c-.023-.023-.058-.034-.081-.057-.024-.081-.059-.162-.082-.255a.217.217 0 0 0-.082-.023v-.116c-.058-.011-.07-.023-.116-.058v-.023h-.059c-.011-.023-.023-.034-.023-.057h-.058c.058-.07-.035-.128-.082-.162v-.024h-.047c-.011-.023-.023-.034-.023-.057h-.058c-.012-.023-.024-.035-.024-.058h-.058v-.023h-.082a.214.214 0 0 1-.023-.081.217.217 0 0 0-.082-.023c-.011-.023-.023-.035-.023-.058h-.082v-.023a.347.347 0 0 0-.116-.023v-.024c-.035-.011-.07-.023-.117-.023-.012-.023-.023-.034-.023-.057H28.9v-.024c-.035-.011-.07-.023-.117-.023-.023-.023-.035-.058-.058-.08h-.059v-.024l-.058-.023v-.139l-.058-.023v-.058c-.047-.023-.094-.057-.14-.08a.212.212 0 0 1-.024-.082c-.023-.023-.058-.034-.081-.057v-.058h-.024v-.058a2.017 2.017 0 0 1-.163-.139.339.339 0 0 1-.023-.115h-.024v-.116h-.023a.338.338 0 0 1-.023-.116c-.035-.023-.07-.058-.117-.08a.896.896 0 0 1-.023-.163l-.059-.023v-.058c-.011-.011-.151-.092-.163-.115v-.058h-.058c-.024-.116-.082-.127-.082-.278a.217.217 0 0 0-.082-.023v-.023h-.058v-.023h-.082v-.023c-.116-.046-.186-.035-.256-.139-.117.012-.094.023-.164.058a.246.246 0 0 0-.163-.139v-.058c-.07.023-.128.035-.198.058-.012.023-.024.035-.024.058h-.058c-.012.023-.023.035-.023.058h-.082c-.012.023-.023.034-.023.058h-.117v.023h-.023a.213.213 0 0 0-.024.08l-.221.024c-.012.08-.059.139-.082.196v.081c-.023.012-.035.024-.058.024v.08c-.035.024-.07.058-.117.081v.394h.023v.196c.024.012.035.023.059.023v.162h.023c.047.093.117.139.14.255h.058v.058h.059c.011.08.023.092.058.138h.023c.012.058.024.116.024.162.093.07.186.15.28.22v.023h.058v.093c.152.069.245.23.42.277v.058h.082c.023.08.035.162.058.254-.187 0-.28.047-.42.081h-.198v.023h-.257v.023h-.082v.024h-.28v.023h-.338c-.012-.023-.023-.035-.023-.058h-.117v-.012a3.785 3.785 0 0 1-.362.023c-.058-.011-.186-.046-.28-.023v.023h-.023v-.023h-.303a3.69 3.69 0 0 1-.024-.358h-.023a.574.574 0 0 0 .023-.139c-.023-.011-.035-.023-.058-.023v-.197c.023-.011.035-.023.058-.023-.011-.092-.023-.185-.023-.277h.023v-.058h.024a2.816 2.816 0 0 1-.024-.3h-.023c0-.035.047-.047.023-.116h-.023a.898.898 0 0 0 .023-.162h-.023v-.058c-.023-.012-.035-.023-.058-.023-.024-.047.046-.301.058-.336-.012-.115-.023-.22-.023-.335h.023v-.116c.023-.023.058-.034.082-.057a2.22 2.22 0 0 1-.024-.278v-.3h-.023c0-.035.047-.07.023-.14h-.023a.339.339 0 0 0 .023-.115h-.023v-.116c.035-.023.035-.07.058-.08.117-.093.245-.105.28-.278a.218.218 0 0 1 .082-.023.898.898 0 0 0 .023-.162h.024v-.058h.023v-.139c.023-.023.058-.035.082-.058v-.115l.058-.024c.023-.069-.047-.185-.058-.22v-.138h-.024v-.058h-.07v-.139c-.023-.023-.058-.034-.081-.058v-.08H24.7c-.024-.024-.035-.058-.059-.081-.093 0-.105 0-.14.057-.093-.023-.163-.104-.221-.162-.012-.023-.024-.034-.024-.057H24.2c-.012-.023-.023-.035-.023-.058h-.059c-.023-.035-.058-.07-.081-.116h-.082c-.012-.023-.023-.034-.023-.058h-.082c-.012-.023-.023-.034-.023-.057h-.082a.212.212 0 0 1-.023-.081.22.22 0 0 0-.082-.023v-.024c-.047-.034-.07-.069-.14-.08.023-.082.047-.07.058-.162a.22.22 0 0 1 .082-.024v-.046h.023v-.115l.059-.024c.011-.023.081-.323.081-.335h-.023v-.058h-.023v-.22l-.059-.023v-.058h-.023c-.047-.115.035-.115-.082-.196v-.023c-.093-.046-.175.058-.28 0v-.023h-.058v-.024c-.07-.057-.082-.104-.198-.115v-.058c-.14-.035-.14-.104-.222-.139h-.117c-.011-.023-.023-.034-.023-.058h-.303c-.012-.023-.024-.034-.024-.057a.588.588 0 0 0-.14-.024c-.011-.023-.023-.034-.023-.057h-.187v-.024h-.163v.024c-.105.08-.012.057-.058.138-.024.024-.059.035-.082.058v.081c-.035.023-.07.058-.117.081v.058h-.023v.023h-.023v-.023c-.082-.058-.082-.139-.14-.22-.024-.023-.059-.034-.082-.058v-.115c-.035-.023-.07-.058-.117-.081v-.058h-.023c-.047-.08.023-.046-.082-.08.024-.117.129-.151.175-.255Zm-7.046 3.33h.058c.023-.023.035-.058.058-.08.094-.058.094.046.14-.116.07-.024.047-.012.082-.058h.023v-.058c.047-.035.094-.07.14-.116v-.023c.082-.058.117-.035.14-.139.082-.023.094-.034.117-.115h.082v.08h.023c.047.059.058.012.082.116.07.024.058.012.081.058.187-.011.199-.092.339-.139v-.023c.058 0 .07.093.163.058v-.023c.035-.011.07-.023.117-.023.023-.035.058-.07.081-.116h.082c.023-.023.035-.058.058-.08h.117c.035-.047.07-.093.117-.14.105-.057.116.047.221 0 .012-.023.024-.034.024-.057h.058c.035-.047.07-.093.117-.14h.058c.023-.022.035-.057.058-.08h.082c.023-.035.058-.07.082-.116.116.012.093.012.163.058v.023c.082.035.14-.034.198-.023v.023h.304v-.023c.07-.011.128-.023.198-.023.023-.023.035-.058.058-.08l.502.115h.338v-.023c.012 0 .094.046.164.023v-.023c.046.011.093.023.14.023v-.023c.035-.012.07-.024.116-.024v.024c.047.011.047-.024.059-.024.081-.023.525.024.56.058h.256a.41.41 0 0 0-.023.116l-.058.023-.024.116h-.023c-.047.127.023.22-.082.3-.011.174-.035.324.117.359.023.162.105.231.14.393.047.012.093.023.14.023.012.023.023.035.023.058.07.07.152.127.222.197.023.023.035.057.058.08h.035c.012.024.024.035.024.058h.058v.024h.14c.012.023.023.034.023.057.035.012.07.024.117.024.047-.058.093-.047.117-.14h.163c.023-.022.035-.057.058-.08h.117v-.023h.058v-.024h.14v-.023c.024 0 .14.07.222.081v.058c.14.023.315.07.42.139.023.023.035.058.058.08h.117c.035.012-.012.012.023.024-.011.046-.023.092-.023.139h-.023c.011.07.023.127.023.196h-.023v.024h.023v.196h-.023v.058h-.024c-.011.058.024.08.024.08a.574.574 0 0 0-.024.14h.024v.22h-.024v.08h-.023c0 .035.047.047.023.116h-.023v.162h-.023c.011.139.023.277.023.416h.023s-.023.232-.023.255h-.023c.011.046.023.092.023.138h-.023v.058h-.024c-.023.058.035.081.024.116-.024.011-.035.023-.059.023v.139h.024c-.012.058-.024.115-.024.162h.024v.058c.023.011.035.023.058.023v.058h.023v.023h-.023v.22h-.023v.138h-.024v.116h.024c.011.046-.024.058-.024.058a.574.574 0 0 1 .024.138h-.024v.393h-.023a.898.898 0 0 1 .023.162h-.023c.023.15.035.301.058.44h.024v.139h.023v.057h.023c.024.058.035.116.059.162h.023c.023.07-.035.081-.023.116h.023v.081c.023.012.035.023.058.023v.116c.07.058.129.115.199.162.023-.012.035-.023.058-.023.012.023.023.034.023.057.07.058.105.105.222.116v.058c.035.011.07.023.117.023v.058a.588.588 0 0 0 .14.023c.011.023.023.035.023.058h.14c.012.023.023.034.023.058h.082v.023h.082v.023c.035.011.163-.023.163-.023.012.023.023.034.023.057h.059v.024c.175.023.35.058.536.08v.058c.105.024.129.07.199.116-.059.197-.304.174-.362.393-.082.023-.14.058-.198.081h-.199v.023h-.198c-.012.023-.023.035-.023.058h-.14c-.024.023-.035.058-.059.081l-.198-.023v.023c-.012 0-.058-.023-.117-.023a3.783 3.783 0 0 1-.361.023l-.199-.023v.023h-.163v.023a2.278 2.278 0 0 0-.28-.023v.023h-.198v.023h-.07c-.012.023-.024.035-.024.058h-.081v.023c-.012 0-.105-.046-.164-.023v.023l-.221.023v.024a.59.59 0 0 0-.14-.024v.024h-.07v.023h-.082v.023a.219.219 0 0 1-.082.023.214.214 0 0 0-.023.08h-.117v.024c-.081.023-.07.012-.081.081-.094.012-.082.023-.14.058-.012.058-.024.115-.024.162h-.058c-.023.08-.047.092-.058.196h-.059v.058h-.023v.417c-.023.011-.035.023-.058.023v.138h-.024c-.011.14-.023.278-.023.417h-.023c-.024.07.035.104.023.139h-.023v.3c-.024.012-.035.023-.059.023v.116h.024c-.012.058-.024.116-.024.162h.024v.023h-.024c-.011.116-.023.22-.023.335h-.023v.058h-.024c.012.116.024.22.024.336-.117 0-.245.046-.397 0v-.024h-.163v-.023h-.14v.023c-.035 0-.094-.057-.164-.023-.011.023-.023.035-.023.058h-.14v.023h-.023v-.023h-.059V24.5a.588.588 0 0 1-.14.023v.023a.217.217 0 0 0-.081-.023v.023h-.082v.023h-.14v.024h-.058v.023h-.117v.023H18.4c-.012.023-.024.035-.024.058h-.081v.023a.218.218 0 0 1-.082.023.574.574 0 0 0-.023.139c-.117.023-.105.08-.164.162h-.023c-.035.046-.07.069-.082.138H17.9a.574.574 0 0 1 .023.14H17.9v.161c0 .012.035.012.023.058H17.9a.339.339 0 0 0-.023.116h-.059c.012.034.024.069.024.115-.024.012-.035.023-.059.023v.081h-.023v.081c-.023.012-.035.023-.058.023v.162c-.117 0-.292.012-.362.058-.012.023-.023.035-.023.058h-.082c-.035.046-.07.092-.117.139-.046-.012-.198-.035-.28 0-.011.023-.023.034-.023.057-.047-.011-.093-.023-.14-.023v.023h-.198v.024h-.059v.023h-.116c-.035.046-.07.092-.117.139h-.058v.023a.218.218 0 0 0-.082-.023v.023a.217.217 0 0 1-.082.023v-.023h-.116v.023h-.059v.023h-.07v.023c-.175-.023-.35-.035-.536-.058 0-.254 0-.45-.059-.636v-.162c-.023-.011-.035-.023-.058-.023-.012-.116-.023-.22-.023-.335-.024-.012-.035-.023-.059-.023v-.116h-.023a.339.339 0 0 1-.023-.116H14.9c-.012-.058.023-.08.023-.08.012-.058-.023-.058-.023-.058v-.162h-.024v-.116h-.023v-.058h-.023v-.116h-.024c-.011-.104-.023-.208-.023-.3-.023-.012-.035-.023-.058-.023v-.162h-.024v-.081h-.023v-.081h-.023c-.059-.185.058-.451-.059-.578v-.197c.024-.023.059-.035.082-.058v-.08h.023c.035-.047.07-.093.117-.14h.058c.024-.023.035-.057.059-.08a.219.219 0 0 1 .081-.024v-.057c.082-.024.094-.035.117-.116.093-.023.117-.07.14-.162h.058c.024-.104.035-.208.059-.3a.219.219 0 0 1 .081-.024c.047-.035.082-.104.117-.162h.012a.42.42 0 0 1 .081-.162h.035c.012-.046.024-.092.024-.138.023-.012.035-.024.058-.024v-.057h.023v-.116h.024v-.058h.023c.023-.07-.023-.127-.023-.162h.023c.035-.104 0-.07 0-.162v-.254h.023c.024-.07-.023-.104-.023-.139v-.023h.023c.024-.104-.058-.173-.14-.197-.011-.057-.023-.115-.023-.161h-.012c0-.035.059-.081.024-.14-.024-.01-.035-.022-.059-.022v-.116c-.035-.023-.07-.058-.116-.08v-.082h-.024v-.162h-.023v-.058h-.023v-.138h-.024v-.162c-.023-.012-.035-.023-.058-.023-.023-.047-.058-.336-.023-.417h.023a.574.574 0 0 0 .023-.139c.024-.011.035-.023.059-.023v-.08h.023v-.024c-.012-.034-.047.012-.023-.023h.023v-.058c.023-.011.035-.023.058-.023v-.139c.024-.011.035-.023.059-.023.011-.034.023-.07.023-.115.023-.012.035-.023.058-.023.012-.047.024-.093.024-.14.035-.022.07-.057.116-.08v-.116c.024-.023.059-.035.082-.058a.339.339 0 0 0 .023-.115c.024-.012.035-.023.059-.023.011-.058.023-.116.023-.162h.023v-.081h.024c.023-.07-.035-.081-.024-.116h.024v-.08h.023v-.024h-.023v-.081h-.024v-.162h-.023v-.023h.023v-.139c-.046-.035-.093-.07-.14-.116a.339.339 0 0 0 .024-.115h-.024c-.023-.07-.035-.15-.081-.197-.047-.07-.082-.08-.199-.08-.023-.07-.023-.059-.058-.116h-.163v.058c-.105-.024-.21-.035-.304-.058v.023a.588.588 0 0 1-.14.023v-.023h-.14V16.3h-.303c-.012.023-.023.034-.023.058H14.2v.023h-.059c.012-.185.105-.255.14-.417h.059c.011-.057.023-.115.023-.162h.023v-.057h.024v-.278h.023v-.058c.023-.011.035-.023.058-.023v-.162h.024v-.058h.023v-.115h.023v-.081h.024c0-.035-.047-.07-.024-.139 0 0 .035-.023.024-.081h-.024v-.197h-.023v-.057l-.058-.024v-.08h-.024c-.023-.047-.011-.081-.023-.116-.035-.012-.093-.046-.163-.023v.023h-.024c-.011-.023-.023-.035-.023-.058-.093-.08-.105-.162-.257-.197a.214.214 0 0 1-.023-.08c.105-.105.198-.209.292-.313Zm-3.279 7.193h.024v-.057h.023c-.012-.07-.023-.128-.023-.197h.023v-.116h.023c.035-.104.012-.462 0-.497.035-.023 0 0 .024-.023.058.012.116.023.163.023v.023c.058.035.07.046.163.058a.212.212 0 0 1 .024.081h.023a.212.212 0 0 0-.023.081h.023v.023c-.023.012-.035.023-.058.023v.255h-.024v.058h-.023a7.068 7.068 0 0 0-.023.497c-.105.011-.292.104-.362.058h-.012c.059-.058-.011-.185.035-.29Zm6.184 11.322c-.024-.023-.035-.058-.059-.08h-.058c-.023-.024-.035-.059-.058-.082h-.059c-.081-.046-.058-.08-.198-.08v-.059h-.023c-.047-.057-.059-.011-.082-.115-.082-.012-.117-.046-.163-.081l-.024-.058h-.081c-.024-.023-.035-.058-.059-.08h-.081c-.024-.024-.035-.059-.059-.082a.217.217 0 0 0-.081-.023v-.058a.429.429 0 0 1-.164-.08l-.023-.058h-.082l-.023-.058h-.058v-.023a.275.275 0 0 0-.164-.081v-.07c-.07-.023-.093-.046-.14-.08v-.024a.347.347 0 0 0-.116-.023l-.024-.058h-.058v-.023a.275.275 0 0 0-.163-.08c-.024-.093-.035-.105-.14-.117v-.057c-.129-.023-.164-.093-.257-.14v-.057h-.058a.212.212 0 0 1-.024-.08c-.023-.024-.058-.036-.081-.059-.035-.046 0-.058-.059-.115v-.023h-.105c-.023-.081-.035-.093-.116-.116v-.081a.347.347 0 0 0-.117-.023c-.023-.07-.047-.093-.082-.139h-.023v-.058h-.023c-.024-.035-.059-.07-.082-.116-.023-.011-.035-.023-.058-.023v-.058c-.035-.023-.07-.057-.117-.08v-.081c-.023-.024-.058-.035-.082-.058-.058-.093.047-.093-.116-.139-.024-.093-.07-.127-.164-.139v-.058h-.058a.339.339 0 0 1-.023-.115c-.024-.012-.035-.023-.059-.023v-.081c-.035-.023-.07-.058-.116-.081v-.058c-.024-.012-.035-.023-.059-.023-.058-.104.035-.127-.116-.162-.012-.104-.024-.116-.117-.139a.339.339 0 0 1-.023-.116h-.059c-.023-.092-.058-.185-.081-.277-.024-.012-.035-.023-.059-.023v-.058h-.023v-.058h-.023c-.012-.058-.024-.116-.024-.162h-.058c-.023-.092-.07-.127-.117-.196v-.058c-.023-.023-.058-.035-.081-.058v-.058c-.024-.011-.035-.023-.059-.023v-.058c-.023-.011-.035-.023-.058-.023a.897.897 0 0 1-.023-.162c-.024-.011-.035-.023-.059-.023a.339.339 0 0 0 .024-.116h-.024v-.057c-.023-.023-.058-.035-.081-.058v-.081c-.024-.012-.035-.023-.059-.023-.011-.035-.023-.07-.023-.116-.023-.012-.035-.023-.058-.023v-.081c-.024-.012-.035-.023-.059-.023-.011-.035-.023-.07-.023-.116-.023-.011-.035-.023-.058-.023-.012-.116-.024-.22-.024-.335-.023-.012-.035-.023-.058-.023a.574.574 0 0 1-.023-.14.218.218 0 0 0-.082-.022c-.023-.081-.047-.07-.058-.081v-.14H11.4v-.057h-.024v-.116h-.023v-.057h-.023c-.012-.047.023-.047.023-.058-.023-.116-.035-.243-.058-.359h-.024v-.058h-.023v-.115c-.023-.012-.035-.023-.058-.023-.012-.047.023-.047.023-.058a.898.898 0 0 1-.023-.162h.023v-.116c-.023-.011-.035-.023-.058-.023v-.139h-.035v-.08c-.024-.012-.035-.024-.059-.024v-.138a1.54 1.54 0 0 1-.058-.22h.023v-.139h-.011c.011-.035.023-.07.023-.116h-.023a2.22 2.22 0 0 1-.024-.277h.024v-.116h-.035v-.162h-.024v-.023c-.023-.15.07-.347-.023-.474v-.023h.14a.212.212 0 0 0 .023-.081c.024-.012.035-.023.059-.023v-.07h.023v-.057c.047-.07.14-.081.222-.116v-.023c.035-.012 0 .011.023.023l.117-.023c.023-.07.023-.104.116-.116.012.012.012.046.059.023v-.023c.035-.023.07-.058.116-.08v-.059a.59.59 0 0 1 .14-.023c.024-.115.059-.173.059-.335.058-.012.023 0 .058-.023.047-.047.058-.162.058-.255.059-.011.024 0 .059-.023.093-.092.011-.22.058-.358h.023v-.116h.024v-.139h-.024c-.023-.092.024-.323.059-.358-.024-.243-.222-.231-.222-.497-.082-.035-.128-.093-.222-.116-.011-.046-.023-.093-.023-.139-.058-.011-.058-.023-.058-.023h-.164v-.035H11.6v-.023H11.4c-.035-.139-.035-.023-.117-.08v-.024a.452.452 0 0 1 0-.254c.023-.012.035-.023.058-.023v-.058h.024v-.162h.035v-.162h.023v-.139h.023v-.162h.024v-.07h.046v-.115c.024-.011.035-.023.059-.023v-.093c.023-.023.058-.034.081-.057v-.14c.024-.022.059-.034.082-.057v-.08c.023-.024.058-.036.082-.059.011-.046.023-.092.023-.139.023-.011.035-.023.058-.023V17.1h.024v-.058h.023v-.116h.023v-.058h.024v-.115c.023-.012.035-.023.058-.023v-.116c.023-.012.035-.023.058-.023v-.058c.035-.023.07-.058.117-.081.023-.08.058-.162.082-.254.023-.023.058-.035.081-.058v-.058c.024-.023.059-.035.082-.058v-.058h.023v-.08c.024-.012.035-.024.059-.024.023-.08.058-.162.081-.254.035-.023.07-.035.117-.058a.574.574 0 0 0 .023-.139c.024-.011.035-.023.059-.023v-.058h.023v-.08h.058c.047-.093.094-.14.14-.22h.059c.046-.14.081-.07.14-.14v-.057c.046-.07.093-.093.116-.197.117.058.21.14.339.197.023.116.035.382-.024.474-.035.023-.07.058-.116.081v.058h-.024l-.046.243c-.024.011-.035.023-.059.023v.08c-.035.024-.07.059-.116.082-.024.092-.035.185-.059.277h-.023v.081h-.023v.023h.023v.024c-.023.023-.058.034-.082.057a.574.574 0 0 1 .024.14h-.024v.115c.035.023.024.046.059.08h.023v.059c.023.023.058.034.082.057.011.058.023.116.023.162a.217.217 0 0 0 .082.023c.023.058.058.116.081.162h.899v-.023h.081V17.1h.14v-.023c.117-.012.245-.024.362-.024.023.012.035.024.058.024v-.024h.059v-.023a.219.219 0 0 0 .081.023.897.897 0 0 1 .024.162h-.024v.081h-.023v.116c-.012.035-.023-.012-.023.023h.023v.023h-.023v.116h-.024v.08H15.1c.012.024.023.035.023.059-.023.023-.058.034-.081.057a.897.897 0 0 0-.024.162c-.093.012-.07.012-.116.058h-.024v.058c-.023.011-.035.023-.058.023v.081h-.023v.081c-.047.023-.094.058-.14.08v.082h-.024c-.011.058-.023.116-.023.162h-.023v.162h-.024v.162c-.023.023-.058.034-.081.057.023.128.058.255.081.394h.024v.196h.023v.058h.023a.575.575 0 0 1 .024.139c.023.011.035.023.058.023v.058h.023v.08c.024.012.035.024.059.024v.116c.023.023.058.034.081.057l.024.197h.023v.058h.023c.024.058.035.115.059.162h.023v.196l-.023.497h-.024l-.023.22h-.023v.058H14.9a.214.214 0 0 1 .023.081h-.058c-.024.081-.035.162-.059.254h-.023v.024h-.117v.023c-.046.034-.046.034-.116.058-.035.104-.059.08-.14.138-.024.023-.035.058-.059.081h-.035c-.011.023-.023.035-.023.058a1.24 1.24 0 0 0-.14.116.339.339 0 0 0-.023.115h-.024c-.035.047-.035.047-.058.116-.07.012-.058.023-.117.058-.023.15-.058.3-.081.44-.024.01-.035.022-.059.022.012.047.024.093.024.14h.023a2.815 2.815 0 0 0-.023.3.22.22 0 0 1-.082.023c0 .197.047.3.082.44.023.069-.024.069-.024.115h.024v.058h.023c.012.093.023.185.023.277h.024v.058h.023c.023.07-.035.07-.023.116h.023v.139h.023v.139h.024v.057h.023a.574.574 0 0 0-.023.14h.023v.138h.023c.012.035.024.07.024.116h.023a.897.897 0 0 1 .023.161c-.011.012-.046 0-.023.058h.023v.058h.024v.22h.023c.012.035.023.07.023.116h.024v.22h.023v.057h.023l.024.254h.023v.081h.023v.058h.024v.197h.023v.08h.023c0 .012-.058.105-.023.163.023.023.058.034.082.057v.162h.023c.058.105.128.07.222.14.023.022.035.057.058.08h.187v.023c.058.023.116.023.198.023.012.035.023.07.023.116h.059v.023h.023v-.023c.047 0 .058.023.058.023.117-.011.222-.023.339-.023v-.012c.035 0 .07.047.14.024v-.024h.058V27.6c.105-.023.117.081.222.058v-.035h.081V27.6h.059v-.023h.058c.012-.023.023-.035.023-.058l.222-.023v-.023h.058v-.023l.199-.023v-.023c.035-.012.07-.023.116-.023v-.023h.082v-.024h.058v-.023h.14c.012-.023.024-.034.024-.058h.081v-.023h.082c.035-.011.152-.092.198-.08.012 0 .035.092.14.057v-.023h.082c.023-.023.035-.058.058-.081h.059c.011-.023.023-.035.023-.058h.082c.011-.023.023-.035.023-.058h.117v-.023c.07-.034.093-.08.116-.162h.082v-.023h.023a.574.574 0 0 0 .024-.138.217.217 0 0 1 .081-.024v-.058c.024-.011.035-.023.059-.023v-.023h.081v-.023a.483.483 0 0 0 .059-.3c-.012-.035-.035.011-.024-.024h.024v-.162h.023c.023-.08-.047-.162-.023-.196.023-.012.035-.023.058-.023v-.058c.023-.012.035-.023.058-.023a.212.212 0 0 0 .024-.081c.035-.012.058-.012.116-.023v-.023h.234v-.15h.081v-.024h.164v-.023h.198v-.023h.257v-.023c.093.023.186.058.28.08v-.023h.081v-.023c.035-.011.07-.023.117-.023v-.023h.117c.011-.023.023-.035.023-.058h.117c.011-.023.023-.034.023-.058.093-.104.07-.185.28-.196.023-.162.105-.162.117-.335.058-.012.023 0 .058-.024.047-.057.093-.45.058-.578 0-.011-.035-.011-.023-.058h.023c.012-.07-.023-.104-.023-.139h.023v-.057h.024v-.278h-.024v-.023h.024v-.162h.023v-.22c0-.208 0-.404.058-.555v-.08c.024-.024.059-.035.082-.058v-.082h.023c.047-.057.094-.115.14-.161h.082c.012-.024.023-.035.023-.058h.059v-.07l.221-.023v-.023h.059v-.023l.501.023v-.023h.362v-.046h.082v-.023h.023v.023l.198-.023v.023c.105-.023.21-.035.304-.058v-.023h.14v-.023h.023v.023h.117c.023-.012.011-.081.081-.058.012.023.024.035.024.058h.116v-.023h.199v-.023h.058v-.024h.058v-.023h.059v-.023h.081v-.023c.07-.035.129-.07.222-.08v-.059a.217.217 0 0 1 .082-.023v-.023h.058v-.058h.117c.011-.023.023-.034.023-.058.035-.011.07-.023.117-.023.011-.023.023-.034.023-.058a1.24 1.24 0 0 0 .14-.115.213.213 0 0 0 .023-.081h.059v-.023h.14s0-.023.058-.023a.575.575 0 0 0 .023-.14h.024v-.138h.023v-.058h.023v-.116c.024-.011.035-.023.059-.023v-.277h.011c-.011-.035-.023-.07-.023-.116h-.023v-.162h-.024c-.035-.058-.035-.07-.116-.08-.024-.186-.094-.082-.14-.162v-.081h-.024v-.024c-.081-.023-.151-.057-.221-.08l-.199-.024c-.011-.023-.023-.034-.023-.058h-.082v-.023a.217.217 0 0 1-.081.023v.024l-.222-.024c-.023-.023-.035-.057-.058-.08l-.257-.024v-.057h-.082v-.024h-.058v-.023h-.14v-.023h-.058v-.046a1.036 1.036 0 0 0-.339-.081c-.011-.046-.023-.093-.023-.139-.023-.011-.035-.023-.058-.023v-.058h-.024v-.08c-.023-.012-.035-.024-.058-.024a.213.213 0 0 0 .023-.08h-.023v-.093h-.023v-.116h.023v-.393h-.023v-.393c-.024-.081-.07-.613-.024-.717h.024v-.081c.023-.012.035-.023.058-.023.058-.128-.047-.29-.023-.394h.023c.012-.046-.023-.057-.023-.057-.012-.07.023-.081.023-.081v-.22h-.023c.011-.023.023-.035.023-.058 0 0-.047-.023-.023-.08h.023v-.14h.023c-.011-.254-.023-.52-.023-.774.023-.012.035-.024.058-.024v-.057h.024v-.162h-.024c-.011-.035.012 0 .024-.024v-.023h-.024c-.023-.115.047-.046 0-.162a.218.218 0 0 1 .082-.023v-.335H23.3v-.058h.023c.012-.07-.035-.116-.023-.139h.023v-.138l-.058-.024v-.115l-.059-.023c-.046-.058-.058-.104-.058-.22a.219.219 0 0 0-.082-.023v-.023h-.058v-.023h-.117c-.023-.035-.035-.07-.058-.116a20.022 20.022 0 0 1-.443-.139.212.212 0 0 1-.024-.08c-.035-.012-.07-.012-.116-.024v-.023h-.082c-.012-.023-.023-.035-.023-.058h-.082v-.023c-.105-.012-.21-.023-.303-.023 0 0-.024.046-.082.023v-.023h-.058v-.058h-.024v.023c-.128.023-.175.035-.221-.023h-.082c-.012.023-.023.035-.023.058h-.07v.023a.22.22 0 0 1-.082.023v.023c-.035.035-.047.035-.117.058v.023h-.023v-.023c-.14-.023-.152-.104-.257-.162-.011-.07-.023-.127-.023-.196 0 0 .035-.012.023-.058H20.7v-.023h.023v-.22c.035-.023.07-.058.117-.081v-.255c.023-.023.058-.034.082-.057l.023-.22h-.058c-.024-.07-.012-.046-.059-.081v-.023h-.058v-.023a.219.219 0 0 0-.082-.023c-.023-.07-.046-.093-.081-.14h-.024a.214.214 0 0 1-.023-.08h-.163v.023a1.76 1.76 0 0 0-.257-.023c-.012-.058 0-.023-.023-.058v-.023c-.07-.035-.222.023-.257.023v-.023a.217.217 0 0 1-.082.023v-.023h-.28v.023h-.221v-.023h-.024c-.011.011-.023.058-.081.023-.024-.023-.035-.058-.059-.08a5.981 5.981 0 0 1-.443.022v-.023c-.093-.023-.128.023-.198.023-.059 0-.059-.023-.059-.023-.128-.035-.315.035-.396.058h-.222v.023c-.093.012-.082-.08-.198-.058v.023a1.45 1.45 0 0 1-.222.024c-.012-.024-.023-.035-.023-.058h-.164v.023h-.081v-.023c.035-.012.07-.024.116-.024v-.023h.117v-.023h.058v-.023h.082c.023-.023.035-.058.058-.08.117-.024.222-.036.339-.059.011-.023.023-.034.023-.057.035-.012.07-.024.117-.024.035-.046.07-.092.116-.138h.082v-.047h.082v-.023h.163v-.023h.058V10.9a.218.218 0 0 0 .082.023V10.9h.082v-.046h.14c.011-.023.023-.035.023-.058.047-.012.093-.023.14-.023.012-.023.023-.035.023-.058.059-.023.117-.035.164-.058.011-.023.023-.035.023-.058h.082v-.023c.046-.011.081.023.081.023h.024v-.023h.081v-.023c.035.012.07.023.117.023v-.023a.92.92 0 0 1 .163-.023v-.023h.222c.012-.023.023-.035.023-.058h.14a.214.214 0 0 0-.023.08h-.023v.082h-.024v.115c.047.035.094.07.14.116v.012a.218.218 0 0 0 .082.023v.058l.058.023v.08h.024c.058.07.116.128.163.197h.058c.012.058.024.07.059.116h.023v.081c.093.08.187.162.28.254.023.047.058.093.082.14h.081v.022c.047.035.07.07.14.081.024.07.024.058.059.116h.198v.058h.058v.023h.024v-.023c.105-.035.163-.012.221-.081.129 0 .315.023.362-.058l.023-.116h.024v-.058h.023a.213.213 0 0 0 .023-.08l.199.08h.081v.024h.117v.023c.047.034.047.046.14.058a.636.636 0 0 1-.117.254c-.023.023-.058.035-.081.058v.335c-.012.023-.094.023-.059.139h.024v.058h.023v.058h.023v.138l.059.024c.035.046.023.115.023.196a.217.217 0 0 0 .082.023c.011.023.023.035.023.058.035.012.07.023.117.023v.023h.081v.023h.059v.024h.058c.023.023.035.057.058.08h.117c.012.024.023.035.023.058h.14c.035.116.012.035.082.081.012.023.023.035.023.058h.082v.023c.035.012.07.023.117.023v.024h.058c.012.023.023.034.023.057h.059c.046.035.07.104.14.14-.094.115-.187.219-.28.335h-.117s-.023.046-.058.057c-.024.081-.059.162-.082.255h-.023s.023.07.023.115h-.058c-.012.07-.035.336 0 .44h.023v.196h-.023v.058h-.024a.574.574 0 0 1 .024.139h-.024c-.011.058.035.127.024.139h-.024v.058h-.023c.012.092.023.185.023.277h.024c.035.139-.059.185-.059.278.012.127.117.335.059.497h-.024v.058h-.023c-.023.046.023.162.023.162-.023.011-.035.023-.058.023v.162h-.023v.208h.023v.023h-.023c.011.046.023.093.023.139a.213.213 0 0 0-.023.08h.023v.22c.023.012.035.024.058.024v.115h.024c.011.047-.024.058-.024.058-.011.07.024.081.024.081.011.07-.047.185-.059.22-.023.07.024.185.024.196h-.024c-.023.128-.035.382.024.44v.058c.011.011.128.07.163.057.012 0 .012-.046.058-.023v.023c.047.024.047.047.117.058.023.07.023.058.058.116h.117c.023-.012.012-.07.058-.058v.023a.22.22 0 0 0 .082.023v.024h.117v.023h.081v.023h.082v.023h.163v.023h.14v.023h.059v.023h.116v-.023h.024v.023h.163v-.023c.023.012.035.023.058.023a.436.436 0 0 0 .164-.023v.023h.116v-.023h.199v-.023c.046-.011.058.023.058.023a.92.92 0 0 1 .163-.023v.023h.117v-.023h.362v-.023l.256-.023v-.023h.117v.023h.117v-.023h.023v.023h.163v-.023h.164v-.023c.058-.035.07-.058.14-.081.035-.105.011-.035.081-.081v-.024h.059v-.023h.081c.012-.023.024-.034.024-.058h.058v-.023c.035-.023.07-.057.117-.08v-.058c.023-.023.058-.035.081-.058v-.197c.024-.011.035-.023.059-.023.011-.104.023-.208.023-.3-.035-.024-.07-.058-.117-.081-.046-.093.024-.255-.058-.336-.035-.058-.07-.07-.14-.08-.023-.082-.035-.093-.117-.116v-.058c-.046-.035-.093-.07-.14-.116a.214.214 0 0 1-.023-.08h-.058c-.024-.105-.059-.082-.14-.14-.024-.023-.035-.057-.059-.08h-.058v-.035a.219.219 0 0 0-.082-.023v-.081c-.058-.047-.116-.093-.163-.14a.339.339 0 0 1-.023-.115c-.024-.011-.035-.023-.059-.023v-.08h-.023v-.059h-.023v-.08h-.024c-.035-.07.012-.035-.058-.082l.023-.196h.024v-.023c.105-.012.175-.047.221 0 .07.023.07.011.082.08.058.012.023 0 .058.024.129.034.059.046.117.139h.023v.08c.024.012.035.024.059.024v.092c.023.012.035.023.058.023v.139s.023 0 .023.058h.059c.011.046.023.092.023.139.105.023.117.08.163.162h.024v.08c.023.024.058.035.081.058.024.046-.011.081.024.116a.219.219 0 0 0 .081.023v.116c.024.011.035.023.059.023v.08h.023v.059c.035.023.07.057.117.08a.214.214 0 0 1 .023.081c.058.012.117.024.163.024v.023h.059c.023.034.035.07.058.115h.058c.012.023.024.035.024.058h.058c.012.023.023.035.023.058h.059v.023c.07.046.046-.023.081.081.222.046.374.255.56.359v.057c.035.012.07.024.117.024v.057c.152.035.222.162.362.197.023.104.175.382.116.532l-.058.023a2.22 2.22 0 0 0-.023.278h-.024v.115l-.058.023v.197h-.023v.023h.023v.116h-.023v.115h.023c0 .024-.047.093-.023.162h.023v.116h-.023c-.012.07.035.08.023.116h-.023v.08h-.024c-.011.058.047.105.024.197h-.024c.012.197.024.393.024.578h.023a.897.897 0 0 0-.023.162h.023v.14h.023c.012.057-.058.103-.023.196h.023c.012.115.024.242.024.358h.023v.139h.023v.058h.024v.08h.023v.059l.058.023v.08c.024.024.059.035.082.059v.057l.058.023v.024h.082a.212.212 0 0 1 .023.08.218.218 0 0 0 .082.024c.023.023.035.058.058.08.047 0 .105.024.117.024v-.023h.082c.011-.024.023-.035.023-.058h.117v-.023h.058v-.023h.117c.023-.024.035-.058.058-.081h.058v-.024h.059v-.023c.081-.046.046.023.081-.08.105-.035.082-.059.14-.14.024-.023.059-.034.082-.057.012-.023.023-.035.023-.058.082-.023.164-.058.257-.081.023-.023.035-.058.058-.081.07-.058.129-.116.199-.162.011-.023.023-.035.023-.058a.588.588 0 0 1 .14-.023v-.058a.219.219 0 0 1 .082-.023l.198-.22h.058c.024-.046.059-.092.082-.138a.217.217 0 0 1 .082-.023c.011-.058.023-.116.023-.162h.023c.024-.024.035-.058.059-.081h.058v-.023c.047-.035.035-.012.058-.081.059-.012.07-.023.117-.058v-.046h.058c.024-.024.035-.058.059-.081h.023v-.058c.07-.058.152-.116.222-.162v-.023a.217.217 0 0 0 .081.023c.012.08.059.15.082.22a4.183 4.183 0 0 0-.023.393l-.059.023c-.023.07.024.104.024.139 0 .034-.047.046-.024.115h.024v.22h.023c.012.046-.023.058-.023.058.011.07.023.127.023.197h-.023v.138h.023c.023.081-.012.139.023.197l.059.023v.116l.058.023a.27.27 0 0 1 .082.162h.058a.212.212 0 0 1 .023.08l.059.024v.058h.023c.012.092.023.185.023.277.024.023.059.035.082.058v.116l.058.023c.012.034.024.07.024.115l.058.023v.058h.023v.081c.047.023.094.058.14.081a.213.213 0 0 1 .024.081h.023a.896.896 0 0 0-.023.162h.116v.162h-.023v.081h.023c.012.058-.023.058-.023.058v.139l-.058.023v.139l-.059.023v.115c-.023.023-.058.035-.081.058a2.812 2.812 0 0 0-.024.3l-.058.024v.08c-.023.024-.058.036-.082.059v.162h-.023c-.023.057-.023.104-.023.196h-.024v-.22h-.023v-.057h-.023l-.059-.255s.047-.023.024-.08h-.024v-.059h-.023l.023-.023v-.115h.059c.011-.047.023-.093.023-.14h.023c-.011-.184-.151-.254-.28-.3v-.058h-.081c-.024-.08-.047-.08-.082-.138h-.163c-.012-.024-.024-.035-.024-.058h-.198c-.058.023-.128.127-.257.08-.011-.022-.023-.034-.023-.057h-.058c-.047.058-.07.023-.117.058-.035.046-.07.092-.117.139-.046.023-.175.034-.221.057-.129.313-.117.775-.117 1.226h-.058c-.012.116-.024.22-.024.335h.024v.14h.023v.138h.023v.139h.024v.058h.023c.012.046-.023.046-.023.058v.358h.023v.08h.023c.012.117.024.22.024.336h.023v.22h.023c.059.22-.058.359.082.497.035.047.012.035.082.058a.574.574 0 0 0-.024.139c-.023.023-.058.035-.081.058-.012.046-.024.092-.024.138-.046.024-.093.058-.14.082v.057l-.116.058v.058h-.024a.215.215 0 0 0-.023.08c-.058.036-.117.07-.163.116v.081c-.035.024-.07.058-.117.082v.08h-.023a.212.212 0 0 0-.024.081H31.2c-.023.035-.058.07-.082.116h-.058c-.012.023-.023.035-.023.058h-.024v.08c-.035.024-.07.035-.116.059-.012.046-.024.092-.024.138h-.023c-.012.024-.023.035-.023.058h-.059v.023c-.035.035-.081.047-.116.081h-.059c-.035.127-.245.313-.396.336-.047.162-.129.115-.222.196-.012.023-.023.035-.023.058-.047.035-.094.07-.14.116v.08h-.024v.024a.217.217 0 0 1-.081.023v.023h-.059c-.023.023-.035.058-.058.081h-.058v.023a.514.514 0 0 1-.222.081v.058a.217.217 0 0 1-.082.023 1.994 1.994 0 0 1-.14.162h-.116v.023c-.047.012-.094.023-.14.023v.023c-.07.024-.07.012-.082.081-.047.012-.117.023-.14.058a.212.212 0 0 0-.023.081h-.059c-.023.023-.035.058-.058.081h-.058c-.024.023-.035.058-.059.081h-.081c-.012.023-.024.035-.024.058h-.14c-.023.023-.035.058-.058.08h-.082c-.011.024-.023.035-.023.059h-.14c-.023.023-.035.057-.058.08h-.082c-.023.024-.035.058-.058.081h-.059c-.011 0-.035.035-.058.058v.023a2.278 2.278 0 0 1-.28.024c-.023.023-.035.057-.058.08a.59.59 0 0 1-.14.024l-.024.057c-.035.012-.07.024-.116.024v.023c-.035.011-.047-.047-.117-.023v.023h-.058l-.024.057h-.116l-.024.058h-.116v.023h-.199v.024c-.058.023-.116.034-.163.057v.024h-.058l-.024.057h-.058v.024h-.198v.023h-.024v-.023h-.116v.023h-.059v.023h-.081v.023h-.199l-.023.058h-.14c-.023.023-.035.058-.058.08h-.059v.024h-.198v.023h-.023v.092h-.14v.024h-.14v.023h-.222v.023h-.117v.023h-.058v.023h-.117v.023h-.14v.023c-.058-.011-.116-.023-.163-.023v.023H23.3v-.023c-.07-.011-.082.035-.117.023v-.023h-.082v-.023c-.046.023-.093.035-.14.058v-.023c-.105.011-.21.023-.303.023-.035-.012-.093-.046-.163-.023-.035.011-.245.07-.28.058v-.023h-.14v-.024h-.059v-.023c-.058-.011-.081.023-.081.023h-.304v.023h-.023v-.023h-.163v-.023h-.502v-.023a.347.347 0 0 1-.117.023l-.023-.058h-.187l-.023-.057h-.117l-.023-.058h-.198v-.023h-.059v.023c-.07.011-.128.023-.198.023v-.023h-.058v-.023h-.082v-.023h-.082v-.035h-.14L19.614 33h-.117c-.023-.023-.035-.058-.058-.08-.152-.013-.303-.024-.443-.024v-.023a.347.347 0 0 0-.117-.023v-.023h-.058l-.024-.058h-.116l-.024-.058a.347.347 0 0 0-.116-.023c-.024-.023-.035-.058-.059-.081h-.14v-.023h-.058v-.024a1.45 1.45 0 0 0-.222-.023l-.023-.057h-.14l-.023-.058h-.117v-.058H17.7v-.023h-.117v-.023h-.058v-.023h-.14l-.024-.058h-.081l-.024-.058c-.035-.012-.081-.023-.116-.035Zm6.86 6.36v.059c.105.023.21.057.303.08v.024h.058v.023h.117l.023.058h.14c.024.023.035.057.059.08h.081c.035.012-.011.012.024.024v.058a.919.919 0 0 0 .163.023v.023h.058v.023c.105.011.21.023.304.023l.023.058h.14l.023.058c.035.011.07.023.117.023.023.023.035.058.058.08h.059v.024c.035.012.07.023.116.023v.023h.117c.023.023.035.058.058.081h.059c.011.012.023.035.058.058v.023c-.012 0-.105-.07-.163-.058v.023c-.094.012-.187.023-.28.023-.07-.011-.187-.08-.304-.057v.023a.588.588 0 0 0-.14-.023v.023h-.058v.023h-.14v.023h-.058v.023c-.117-.011-.222-.023-.339-.023-.093.012-.186.023-.28.023v.058h-.081v-.023h-.024v.023a1.756 1.756 0 0 0-.256-.023v-.023c-.059-.012-.117-.023-.164-.023v.023c-.058.011-.058-.023-.058-.023-.07.011-.128.023-.198.023v-.023h-.14v.023c-.105.011-.21.023-.304.023 0 0-.011-.023-.058-.023v.023c-.023 0-.093-.07-.198-.058v.023c-.035 0 .011-.023-.024-.023-.093-.023-.175.035-.221.023 0 0-.024-.046-.082-.023v.023a.217.217 0 0 1-.082.023v.023h-.023V39.5h-.163v-.023h-.059v-.023c-.058-.012-.081.023-.081.023-.07-.011-.129-.023-.199-.023v.023a1.28 1.28 0 0 1-.42 0v-.023h-.081v-.035c-.117.023-.222.035-.339.058h-.163v-.023h-.058v-.035l-.444.058v.023c-.046-.011-.093-.023-.14-.023v.023c-.058-.011-.116-.023-.163-.023v-.023c-.058.012-.117.023-.163.023v-.023h-.21v-.035c-.175.012-.35.023-.537.023v.024h-.047l-.023.057h-.222s-.035.047-.058.058a4.96 4.96 0 0 0-.023.417c.023.069.07.138.081.22.059.01.105.046.199.023v-.012h.023v.023h.082a.214.214 0 0 1 .023.081c.292.035.922-.023 1.318-.058v.058c.21.035.339-.012.479-.023.116.023.221.035.338.058v-.023h.14v-.024c.035 0 .047.047.117.023.011 0 .011-.034.058-.023v.023a1.45 1.45 0 0 1 .222-.023l.023.058h.222v-.023h.361v.023l.724-.058.023.058c.105.047.513-.011.583-.023h.257v-.023h.023v.023h.14l.024-.058c.128.012.256.023.396.023.047-.011.164-.057.257-.023v.023h.058l.024.058h.198v.023c.152-.011.303-.023.443-.023v-.023c.047-.011.047.023.059.023h.256c.094 0 .234-.058.28-.023.14 0 .105-.011.199-.058v-.196c.023-.012.035-.023.058-.023l-.023-.394c.081.012.093.012.14.058v.023a.588.588 0 0 0 .14.023v.024c.035.011.07.023.116.023v.023c.07.011.152.023.222.023l.023.058h.059v.023h.116l.024.058h.163v.023h.163v.023a.59.59 0 0 0 .14.023v.058c.047.011.094.023.14.023.024.023.035.058.059.081h.116c.024.023.035.058.059.081h.081c.024.035.059.07.082.116h.117v.023c.058.011.116.023.163.023v.058a.588.588 0 0 0-.14-.023s-.012.046-.058.023c-.012-.023-.024-.035-.024-.058a3.815 3.815 0 0 1-.361.023v-.023a.59.59 0 0 0-.14-.023v.023h-.199v.023H27.7v.023h-.303c-.024.012-.012.058-.059.058v-.023h-.058v-.023h-.198v-.023h-.164v-.024h-.058v-.023a.92.92 0 0 1-.163.023h-.199v-.023c-.093-.023-.128.035-.198.023-.023-.011-.035-.023-.058-.023v.023h-.117v.024c-.117-.024-.245-.035-.362-.058v.023h-.198v.023a.92.92 0 0 0-.163-.023v.023h-.28c-.047-.012-.21-.058-.304-.023v.023h-.058v.023c-.047-.011-.093-.023-.14-.023v.023h-.198v.023c-.047.012-.047-.023-.059-.023h-.221v-.023h-.199v-.023h-.163v-.023c-.117.011-.222.023-.338.023-.024.023-.035.058-.059.08-.105.047-.338-.034-.396-.057H22.6v-.023a4.296 4.296 0 0 0-.397-.023v-.023h-.14v.023c-.047-.012-.093-.023-.14-.023v.023h-.058l-.024.058h-.14v.023c-.14-.023-.28-.035-.42-.058v.023c-.035 0 .012-.012-.023-.023H21.2v-.023c-.07.011-.129.023-.199.023v-.023a.219.219 0 0 1-.081.023c-.07 0-.199-.046-.257-.058-.07-.023-.187.023-.198.023v-.023c-.059.012-.117.023-.164.023l-.023.058h-.117v.023h-.023v-.023h-.058v-.023c-.21-.023-.432-.035-.642-.058-.047.012-.093.023-.14.023v-.023h-.14s-.023.046-.082.023c0 0-.011-.035-.081-.023-.024.012-.035.023-.059.023v-.023h-.058v-.023h-.14v.023a.347.347 0 0 0-.117-.023v.023h-.081v.023h-.024v-.023h-.14v.023c-.035 0 .012-.023-.023-.023h-.163v.023h-.024v-.023c-.058.012-.116.023-.163.023v.023h-.117v-.023h-.023v.023c-.093.012-.187-.034-.257-.057-.14.011-.28.023-.42.023v-.023c-.07.011-.151.023-.221.023v-.023c-.059-.012-.082.034-.117.023v-.023h-.058V40.4h-.117v.023c-.117.024-.14-.069-.222.058h-.198v-.023a.588.588 0 0 1 .14-.023l.023-.058h.059v-.023h.163v-.023h.058l.024-.058h.081v-.023h.059l.023-.058h.058l.024-.058c.081-.011.163-.023.256-.023h.059l.023-.058h.082v-.023c.058-.023.116-.034.163-.057v-.024h.163s.012-.023.059-.023v-.058c.14-.011.151-.08.28-.115v-.058c.07 0 .093 0 .14-.023v-.023h.058v-.023h.082l.023-.058h.117l.023-.058h.117v-.023c.058-.023.116-.035.163-.058v-.023h.082v-.023h.058v-.023c.117-.012.222-.024.338-.024v-.023h.059l.023-.057h.082v-.024h.058v-.023h.082v-.023h.163c.023-.023.035-.058.058-.08h.082v-.024c.058-.023.117-.035.163-.058v-.023h.164v-.023h.058l.023-.058h.082v-.08h.058v-.024c.059-.023.117-.035.164-.058v-.035c.07-.011.151-.023.221-.023.024-.023.035-.057.059-.08h.116c.024-.024.035-.058.059-.082.035-.011.07-.023.116-.023l.024-.057h.081l.024-.058h.116c.129-.047.222-.162.339-.22V38.1c.081-.023.105-.046.163-.081a.574.574 0 0 1-.023-.139c.023-.011.035-.023.058-.023.023-.058-.035-.115-.023-.139h.023v-.058h.023v-.138h.024c.023-.081-.035-.243-.024-.278h.024v-.358h.023v-.116c.35-.023.688-.035 1.038-.058.012.116.024.22.024.336h-.024v.555h-.023a.213.213 0 0 1 .023.08h-.023a.339.339 0 0 0-.023.116c.058.047.046.093.14.116 0 .093.011.127.023.197.058.011.117.023.163.023v.058c.024.034.105.034.14.057.024.023.035.058.059.081h.116l.024.058h.14c.07.07.14.081.21.116ZM37.16 22.21h-.024v.139h-.023c-.023.07.035.116.023.139h-.023v.058h-.023c-.012.104-.024.208-.024.3h-.023a1.4 1.4 0 0 0-.023.22h-.024c-.011.046.024.046.024.058v.358h-.024v.14l-.058.022v.22h-.023c0 .035.046.07.023.139h-.023v.058h-.024v.254l-.058.023v.058h-.023c-.024.058.023.08.023.08.012.059-.023.059-.023.059v.139h-.024v.08h-.07c.012.035.024.07.024.116h-.024v.139l-.058.023c-.012.116-.023.22-.023.335H36.6c-.024.047-.024.07-.024.14h-.058c-.023.092-.035.184-.058.277 0 .058.058.127.023.22h-.023v.057h-.024v.139l-.058.023v.081l-.058.023v.058h-.024v.116l-.058.023v.058h-.023v.115h-.024v.116h-.023v.058h-.023v.115h-.024c-.011.035-.023.07-.023.116h-.023v.058c-.024.023-.059.035-.082.058v.115h-.023v.058h-.07v.139h-.024c-.011.035-.023.07-.023.116h-.058a.423.423 0 0 1-.082.162h-.023a.574.574 0 0 0-.024.138l-.058.023v.116l-.058.023v.058h-.024a.214.214 0 0 0-.023.08h-.058c-.012.059-.024.117-.024.163l-.058.023v.139h-.047c-.011.034-.023.07-.023.115h-.058a3.076 3.076 0 0 0-.14.278.218.218 0 0 1-.082.023c-.058.127-.117.243-.14.393h-.058a.574.574 0 0 0-.024.139h-.081c-.024.046-.059.093-.082.139a.217.217 0 0 1-.082.023c-.011.046-.023.092-.023.139-.023.011-.035.023-.058.023v.058h-.024a.574.574 0 0 1 .024.139c-.012.023-.082.046-.117.057a.339.339 0 0 0-.023.116h-.059c-.023.07-.035.058-.058.139-.117.034-.023.023-.082.08h-.023v.024h-.058c-.024.011-.024.035-.059.058v.08h-.07c-.011.035-.023.07-.023.116-.082.023-.093.035-.117.116-.093.011-.07.011-.116.058h-.024v.058c-.023.023-.058.034-.081.057v.058c-.059.07-.105 0-.14.139-.105.023-.257.231-.28.335-.07.023-.094.047-.14.081v.023h-.082c-.035.023-.093.128-.117.162h-.058c-.012.058-.023.058-.023.058v.139c-.07.046-.129.092-.199.139v.023c-.023.011-.035.023-.058.023v.058a.217.217 0 0 1-.082.023.214.214 0 0 0-.023.08c-.023.012-.035.024-.058.024-.024.023-.035.058-.059.08h-.058c-.012.024-.023.036-.023.059h-.059c-.011.023-.023.034-.023.057h-.082c-.023.035-.035.07-.058.116h-.058c-.024.023-.035.058-.059.081h-.081c-.024.035-.059.07-.082.116h-.058c-.047.127-.024.035-.117.08-.012.024-.023.035-.023.059h-.059v.023h-.081c-.024.034-.059.07-.082.115h-.058c-.012.023-.024.035-.024.058-.035.012-.07.023-.116.023-.024.023-.035.058-.059.081a.217.217 0 0 1-.081.023c-.012.023-.024.035-.024.058-.093.058-.093-.046-.14.116-.151.023-.081.058-.163.115a.217.217 0 0 1-.082.024c-.011.023-.023.034-.023.057h-.058c-.012.024-.024.035-.024.058h-.081v.023a.347.347 0 0 1-.117.023v.024h-.082c-.023.023-.035.058-.058.08a.347.347 0 0 1-.117.024c-.023.023-.035.058-.058.08h-.058c-.012.024-.024.035-.024.058h-.081v.024h-.059v.023h-.14v.023h-.058c-.023.023-.035.058-.058.08-.082.059-.105.035-.14.14-.07.023-.152.034-.222.057v.058a.313.313 0 0 0-.198.081v.023h-.059c-.011.023-.023.035-.023.058h-.058v.023c-.117.023-.245.035-.362.058v.023h-.058c-.012.023-.024.035-.024.058l-.023-.023c-.047.011-.093.023-.14.023v.023a.347.347 0 0 0-.117-.023v.023h-.081c-.012.023-.024.035-.024.058h-.058v.023h-.058c-.024.023-.035.058-.059.081h-.07v.023h-.058v.023h-.082v.024h-.058v.023h-.082v.023h-.081l-.024.058h-.116v.023h-.059v.023c-.035-.012-.07-.023-.116-.023v.023h-.199l-.023.058c-.07.011-.128.023-.198.023-.035-.012.011-.035-.024-.023v.023h-.081l-.024.058h-.116v.023h-.059v.023h-.023v-.023c-.035.011.012.011-.023.023h-.082v.023c-.175.012-.35.023-.537.023l-.023.058h-.14c-.023.023-.035.058-.058.08a.347.347 0 0 1-.117.024v.023h-.303v.023c-.047.012-.047-.023-.059-.023h-.116v.023H24.7v-.023h-.164v.023h-.14v.023c-.035-.011-.07-.023-.116-.023a.837.837 0 0 0-.257.058 3.817 3.817 0 0 0-.362-.023v.023H23.5c-.023.035-.058.07-.082.116h-.081v-.023a.218.218 0 0 1-.082.023v-.023h-.198v-.023h-.199v.057c-.035 0 .012.023-.023.023h-.198v.024c-.14.034-.362-.035-.444-.058h-.175v-.023c-.07-.012-.268.069-.396.023v-.023h-.14v-.023h-.059v-.024c-.07.012-.128.023-.198.023-.035-.011-.163-.069-.222-.057v.023c-.058-.012-.116-.023-.163-.023v.023h-.058l-.024.058c-.093-.012-.186-.023-.28-.023l-.023-.058a2.278 2.278 0 0 0-.28-.023l-.023-.058h-.14l-.024-.058h-.07v-.023c-.058-.012-.081.023-.081.023-.059.011-.059-.023-.059-.023h-.14l-.023-.058c-.07-.023-.105.035-.14.023v-.023h-.14v-.023h-.058v-.023H19.1v-.023c-.105.011-.21.023-.304.023l-.023-.058h-.14v-.023h-.058v-.023h-.059l-.023-.058a.92.92 0 0 0-.163-.023l-.024-.058h-.116c-.024-.023-.035-.058-.059-.081h-.14v-.023h-.058v-.023c-.082-.012-.163-.023-.257-.023L17.654 35h-.14l-.023-.058h-.14l-.024-.058c-.035-.011-.07-.023-.116-.023.023-.081.035-.162.058-.255.047-.023.093-.057.14-.08v-.116h.023v-.023c.07.011.094 0 .14.023v.023h.082l.023.058c.082.035.175-.023.222-.023.023.034.07.034.082.057.023.047-.012.081.023.116.128.023.257.058.397.081v.023c.023-.011.035-.023.058-.023.023.023.035.058.058.081a.92.92 0 0 1 .164-.023v.023h.081v.023h.059v.023h.163l.023.058h.094v.023h.058v.023h.222c.07.024.14.058.256.058v.023h.024v.081h.023c.023.023.152.07.222.058v-.035h.023v.024h.058v.023c.175.023.35.057.537.08h.023v-.01c.14.01.28.022.42.022.024.023.035.058.059.081h.14v.023h.035v-.011h.198l.023.058h.222v-.024h.198v-.034h.024v.023h.081a.59.59 0 0 1 .14-.023l.024.058h.081v.023h.059v.023c.093-.012.186-.023.28-.023v.023h.058v.023a.217.217 0 0 1 .082-.023s.023.046.081.023v-.023h.117v-.023c.035-.012.058.023.058.023.047.011.059-.023.059-.023.07.011.128.023.198.023.023-.023.035-.058.058-.081.199.011.397.023.584.023v-.023h.338v.023h.163v-.023a.59.59 0 0 1 .14-.023v-.023c.035 0 .047.046.117.023v-.023h.14v-.023h.082V35.3h.081v-.046c.105.012.21.023.304.023v-.023h.058v-.023c.082-.012.163-.023.257-.023v-.023h.081v-.047c.105-.011.21-.023.304-.023l.023-.057c.047-.035.152-.047.222-.058v.058h.058v.023l.222-.058V35h.058l.023-.058c.082-.012.164-.023.257-.023v-.023c.058-.023.117-.035.163-.058v-.023h.164v-.024h.081l.024-.057h.058l.023-.058c.07-.012.129-.023.199-.023v-.023h.058c.023-.023.035-.058.058-.081l.257-.058v-.046h.058v-.023h.164v-.024h.058v-.023h.058c.012-.023.024-.034.024-.058h.116v-.023h.082v-.023h.058v-.023h.059c.011-.023.023-.035.023-.058a.347.347 0 0 1 .117-.023c.011-.023.023-.035.023-.058 0 0 .082.035.14 0a.212.212 0 0 0 .023-.08c.012-.012.07.045.117.022v-.023h.058v-.046h.082c.023-.035.058-.07.082-.116h.081c.012-.023.024-.034.024-.057h.116v-.024h.059c.011-.023.023-.034.023-.057h.082c.023-.035.058-.07.081-.116h.059c.058-.035.07-.104.198-.081.035 0-.012.023.023.023.012-.023.024-.035.024-.058h.058c.058-.07.117-.127.163-.196.105-.07.187-.047.222-.197h.117c.011-.023.023-.035.023-.058h.058c.012-.023.024-.034.024-.058h.058c.023-.034.058-.069.082-.115.07-.07.151-.127.221-.197h.059v-.08h.023c.023.01.082.057.14.022.058-.069.117-.127.163-.196h.082c.023-.023.035-.058.058-.081h.059a.214.214 0 0 0 .023-.081h.023c.059-.058.117-.104.14-.197h.082c.012-.046.023-.104.058-.139.059-.057.047.035.082-.08.187-.012.152-.07.222-.162.023-.012.035-.023.058-.023.012-.024.023-.035.023-.058h.117c.047-.058.093-.116.14-.162v-.058c.035-.023.07-.058.117-.081v-.058c.186-.046.046-.07.116-.196.047-.035.094-.07.14-.116v-.058c.07-.092.094 0 .164-.058.023-.034.058-.07.081-.115.024-.012.035-.024.059-.024v-.057c.023-.023.058-.035.081-.058.059-.081.012-.104.117-.162v-.081a.217.217 0 0 1 .082-.023c.035-.116.07-.22.116-.335h.082a.212.212 0 0 0 .023-.081c.024-.012.035-.024.059-.024.011-.046.023-.092.023-.138.047-.024.093-.035.14-.058v-.07l.058-.057v-.058h.024v-.058l.058-.023a.338.338 0 0 0 .023-.116l.059-.023v-.08c.035-.07.07-.093.081-.197h.082v-.024c.07-.046.105-.15.14-.22v-.08l.058-.023c.012-.035.024-.07.024-.116l.058-.023v-.139h.023v-.058c.047-.104.082-.046.082-.22h.082v-.023c.07-.046.046-.058.081-.138h.024v-.14h.023v-.057h.023v-.093l.059-.023v-.058h.023v-.138c.023-.023.058-.035.082-.058v-.081h.023v-.058l.058-.023c.012-.081.024-.162.024-.254a.217.217 0 0 1 .081-.024l.059-.497.058-.023a.896.896 0 0 1-.023-.162l.058-.023c.023-.139.035-.277.058-.416.07-.012.059-.023.117-.058.023-.127.035-.255.058-.393h.024v-.255h.023v-.115h.023v-.336l.117-.058c.012-.069.023-.15.023-.22h.024v-.22l.058-.022c.012-.127.023-.255.023-.393h.024v-.116h.023v-.162h.023v-.058h.024v-.474h.023c-.012-.07-.023-.127-.023-.197h.023v-.115h.023v-.359c.024-.023.059-.034.082-.058.047-.08-.012-.289-.023-.335v-.197h.023a2.22 2.22 0 0 1-.023-.277h-.024c-.011-.046.024-.046.024-.058v-.416c0-.012-.035-.012-.024-.058h.024v-.254h-.024v-.081h-.023v-.301h-.023v-.139h-.024v-.07h-.023v-.115h-.023v-.162l-.059-.023v-.116h-.023v-.057h-.023v-.14c-.035-.103-.07-.196-.082-.335h-.023c-.012-.034.07-.034.081-.057v-.22h-.023v-.081h-.023v-.3h-.024v-.116h.059c-.012-.035-.024-.07-.024-.116h-.023v-.197h-.023v-.08h-.024v-.081h-.023v-.081h-.023c-.024-.093.035-.14.023-.197h-.023v-.081h-.024c-.023-.058-.035-.116-.058-.162h-.023v-.08l-.059-.024v-.139c-.023-.023-.058-.034-.081-.058v-.08l-.059-.024v-.058h-.023c-.012-.069-.023-.127-.023-.196l-.059-.023c-.023-.058-.035-.116-.058-.162h-.023c.023-.058.035-.116.058-.162h-.023v-.058h-.024v-.08c-.023-.024-.058-.035-.081-.059-.035-.104-.07-.208-.117-.3-.023-.023-.058-.035-.082-.058v-.162h-.023a.212.212 0 0 1-.023-.081c-.024-.023-.059-.035-.082-.058v-.08h-.023v-.082h-.024v-.057l-.058-.024c-.047-.057-.093-.104-.117-.196h-.058v-.116a.217.217 0 0 0-.082-.023.214.214 0 0 1-.023-.081c-.023-.023-.058-.035-.082-.058v-.058c-.023-.011-.035-.023-.058-.023-.058-.092.047-.115 0-.22-.023-.011-.035-.023-.058-.023v-.057a2.043 2.043 0 0 1-.164-.14.214.214 0 0 1-.023-.08h-.058s.046-.093.023-.139h-.023c-.035-.046-.035-.046-.059-.116-.14-.034-.128-.127-.198-.22l-.257-.219v-.081c-.023-.012-.035-.023-.058-.023v-.058a1.23 1.23 0 0 1-.14-.116v-.138c-.023-.012-.035-.023-.058-.023-.047-.07.023-.047-.082-.081v-.058h-.058v-.116c-.035-.023-.07-.058-.117-.08-.047-.059-.093-.117-.14-.163-.023-.023-.058-.034-.082-.058v-.057h-.023c-.012-.024-.023-.035-.023-.058h-.059c-.011-.139-.058-.116-.081-.22-.094-.023-.105-.058-.199-.08-.023-.082-.011-.059-.081-.082-.047-.22-.234-.22-.397-.335-.023-.035-.058-.07-.082-.116h-.151c-.047-.07-.094-.127-.14-.197v-.057h-.024c-.011-.023-.023-.035-.023-.058h-.058v-.023h-.059c-.011-.023-.023-.035-.023-.058h-.058c-.024-.023-.035-.058-.059-.081H31.2c-.023-.035-.058-.07-.082-.116h-.081a1.225 1.225 0 0 0-.117-.139l-.117-.023c-.07-.034-.093-.092-.198-.115v-.058c-.023-.035-.07 0-.117-.023-.07-.046-.011-.104-.14-.139-.035-.139-.14-.127-.256-.197v-.023h-.059c-.023-.023-.035-.057-.058-.08a.219.219 0 0 0-.082-.024c-.011-.023-.023-.035-.023-.058h-.082v-.023l-.116-.023v-.023h-.059c-.011-.023-.023-.035-.023-.058l-.117-.023c-.023-.023-.035-.058-.058-.08h-.117c-.011-.024-.023-.036-.023-.059-.047-.011-.093-.023-.14-.023v-.023a.217.217 0 0 0-.082-.023c-.011-.023-.023-.035-.023-.058-.082-.023-.163-.058-.257-.08-.023-.024-.035-.059-.058-.082h-.058c-.012-.023-.024-.035-.024-.058a.218.218 0 0 0-.081-.023v-.023c-.082-.023-.164-.058-.257-.08-.07-.036-.082-.093-.163-.117a.213.213 0 0 1-.024-.08c.059-.024.117-.035.164-.058.023-.081.023-.174.081-.22.035-.023.152 0 .222.023v.023h.222c.011.023.023.035.023.058l.117.023c.023.023.035.058.058.081h.058c.024.035.059.07.082.116.047.011.093.023.14.023v.023h.058v.023h.14v.023h.059v.023h.081v.024h.059v.023h.058v.023c.035.023.047.023.117.023.023.092.035.104.14.116.046.162.046.057.14.115v.023c.046.035.07.07.14.081a.214.214 0 0 1 .023.081c.047.012.093.023.14.023.012.024.023.035.023.058a.59.59 0 0 0 .14.023v.023a.219.219 0 0 0 .082.024c.035.138.152.127.257.196.023.035.058.07.081.116h.059v.023c.023.023.058.035.081.058.012.023.024.034.024.058h.081c.012.023.024.034.024.058h.058v.034h.163v.023c.059.035.059.07.14.081v.081c.117.07.245.127.362.197.023.034.058.07.082.115.023.012.035.024.058.024v.08c.047.024.093.058.14.081v.058c.023.023.058.035.082.058.023.046-.012.081.023.116h.058c.024.034.059.07.082.115h.058c.035.047.07.093.117.14h.023a.212.212 0 0 1 .024.08h.058c.023.208.128.116.163.278l.117.023a.212.212 0 0 1 .023.08c.07.012.129.024.222.024v.058c.047.034.093.07.14.115a.212.212 0 0 1 .023.081h.059c.046.174.186.22.221.394h.059c.011.046.023.092.023.138.023.012.035.023.058.023v.081h.024c.023.081.011.058.081.081a.213.213 0 0 1 .024.081h.023c.058.104-.012.15.14.197a.212.212 0 0 1 .023.08h.024c.058.093.023.14.14.163.011.058 0 .08.023.115h.058v.024h.024v.069c.023.012.035.023.058.023a.574.574 0 0 1 .023.139c.024.023.059.034.082.058v.057c.023.012.035.024.058.024v.115h.024c.023.081.011.058.081.081a.374.374 0 0 0 .117.197c.023.011.035.023.058.023v.139c.024.011.035.023.059.023a.27.27 0 0 1 .081.162c.082.023.094.034.117.115h.058c.012.081.012.093.059.14h.023c.012.034.023.069.023.115l.059.023v.08h.023v.059h.023v.139l.059.023v.138h.023v.058h.023v.15l.059.024c.011.058.023.115.023.162h.058c.024.208.14.138.199.277-.012.023-.024.035-.024.058h.024v.08h.023v.14h.023v.07l.059.022v.081l.058.023c.012.093.023.185.023.278h.024c.011.046.023.092.023.139h.023c.012.034.024.069.024.115h.023v.081l.058.023a.214.214 0 0 0-.023.081h.023v.081h.024v.162h.023a.574.574 0 0 0-.023.139h.023v.08l.058.024v.116l.059.023c.011.046.023.092.023.139h.023v.023h-.023c.012.104.023.208.023.3h.024v.058h.023c.047.116-.035.15 0 .255h.023v.057h.024a.212.212 0 0 0-.024.081h.024v.081h.023v.116h.023c-.011.058-.023.116-.023.162h.023v.058h.024v.139h.023v.161h.023c.012.116.024.22.024.336h.023a.898.898 0 0 0-.023.162h.023v.138h.023v.058h.024v.116h.023s-.035.08-.023.139c.011.034.023.07.023.115 0 0-.035.012-.023.058h.023a.898.898 0 0 0-.023.162h.023a.213.213 0 0 0-.023.081h.023a1.714 1.714 0 0 0-.023.254h.023c.012.047-.023.047-.023.058v.359h.023c.012.034-.023.058-.023.058-.012.057.023.057.023.057v.14h.023v.057h.024v.08h.023c.222.024.222.036.222.047Zm-16.999 4.834c.024.012.035.023.059.023-.024.07-.035.128-.059.197h.024a.215.215 0 0 1 .023.08h.023v.22a.218.218 0 0 0 .082.024c.012.023.023.034.023.058.035.011.07.023.117.023v.023h.082c.023.023.035.058.058.08h.058c.047.059.094.116.14.163h.059c.058.07.116.15.163.22.187-.012.373-.024.56-.024.012-.023.023-.034.023-.058h.14v-.023c.024-.023.059-.034.082-.058v-.057c.023-.012.035-.023.058-.023.024-.035.059-.07.082-.116h.058c.047-.081.094-.162.14-.255h.14c.059-.138.117-.277.164-.416.023-.011.035-.023.058-.023v-.139c.023-.023.058-.034.082-.058.023-.08.058-.162.081-.254 0-.011.035-.023.059-.058h.058c.023-.104.07-.162.117-.254h.023v-.104h.023v-.081h.024v-.081h.023v-.058c.023-.012.035-.023.058-.023v-.058h.024c.011-.058.023-.116.023-.162.035-.023.07-.035.117-.058.011-.104.023-.208.023-.3h.023c.024-.035.082-.105.059-.162h-.024v-.058h-.023a.213.213 0 0 1-.023-.081h-.059c-.07-.093-.128-.185-.198-.278h-.14v.023h-.058v.024c-.059-.012-.117-.024-.164-.024-.023-.023-.035-.057-.058-.08h-.117v-.047c-.175.012-.151.058-.221.162h-.024v.058c-.035.023-.07.058-.116.081-.012.023-.024.035-.024.058h-.058c-.012.023-.023.035-.023.058h-.059c-.011.023-.023.034-.023.057-.035.012-.07.024-.117.024-.011.023-.023.034-.023.057h-.117c-.035.023 0 .07-.023.116-.023.012-.035.023-.058.023v.023h-.024v-.023a.219.219 0 0 1-.081.023v.023h-.059c-.023.035-.058.07-.081.116-.047.012-.094.023-.14.023-.012.023-.024.035-.024.058a.217.217 0 0 1-.081.023v.023a.92.92 0 0 1-.164.023v.024h-.058c-.012.023-.023.034-.023.057h-.164v.023c-.058.035-.07.035-.081.116-.07.012-.047.012-.082.058H20.5v.058c-.012.023-.035.011-.059.058a.918.918 0 0 1-.163.023c-.023.08-.035.162-.058.254h-.024l-.023.497h-.023v.024h.023c-.012.057-.012.08-.012.115Zm.84-.196c.024-.012.035-.023.059-.023v-.116c.023-.023.058-.035.081-.058.035-.046-.023-.035.024-.08v-.024h.081c.012-.023.024-.035.024-.058h.116c.012-.023.024-.035.024-.058h.116v-.023h.059c.011-.023.023-.035.023-.058h.082c.011 0 .023-.046.058-.058v-.08a.347.347 0 0 1 .117-.024c.011-.023.023-.034.023-.057h.058v-.023c.059-.035.07 0 .117-.058h.058c-.011.023-.058.058-.058.058v.138c-.023.012-.035.023-.058.023v.081h-.024v.058h-.023v.081c-.023.012-.035.023-.058.023v.116h-.024c-.035.058-.07.07-.081.139-.152.046-.059.07-.117.162-.023.023-.058.034-.082.057v.116c-.046.035-.093.07-.14.116v.08h-.023v.024h-.082c-.011 0-.07-.162-.116-.197-.07-.046-.175-.08-.222-.139h-.023c.011-.046 0-.092.011-.138Z" clip-rule="evenodd"/></g><defs><clipPath id="a"><path fill="#fff" d="M10 7.5h28v34H10z"/></clipPath></defs></svg>