<svg width="48" height="48" viewBox="0 0 48 48" fill="none" xmlns="http://www.w3.org/2000/svg">
<path d="M8.87486 22.4818C6.127 21.456 4.80945 19.4288 4.60766 16.5406C4.46523 14.489 4.83913 12.5534 5.78277 10.7338C6.70862 8.93867 8.22795 7.90065 9.97875 7.1435C11.2726 6.58175 12.6316 6.35583 14.0382 6.3253C16.1688 6.28256 18.3054 6.21539 20.436 6.12991C24.7151 5.97115 28.9942 5.94062 33.2792 6.13602C34.6501 6.19708 36.027 6.13602 37.398 6.23982C38.4544 6.3192 39.5108 6.37415 40.5613 6.49016C41.2022 6.56344 41.7304 6.89927 42.0806 7.48544C42.14 7.58924 42.2171 7.68083 42.2943 7.77853C43.2795 9.05468 43.7068 10.5445 43.8848 12.1382C44.1103 14.141 44.0213 16.1132 43.4694 18.0549C42.6978 20.766 40.8936 22.2681 38.2526 22.8115C36.8935 23.0924 35.5166 23.0863 34.1456 23.129C30.0387 23.2694 25.9258 23.416 21.8129 23.3916C21.7773 23.3916 21.7417 23.4038 21.6349 23.4282C21.8011 23.5808 21.9376 23.6969 22.0622 23.819C23.7952 25.4737 24.9881 27.452 25.2967 29.8883C25.8487 34.2908 23.813 38.1009 19.9316 40.0487C15.3736 42.3385 9.73542 41.3065 6.55431 37.4964C2.43549 32.5628 3.45036 26.1881 8.50096 22.7321C8.61966 22.6527 8.73835 22.5734 8.88673 22.4695L8.87486 22.4818ZM17.1125 28.1542C16.7742 28.1603 16.608 27.9588 16.5665 27.6413C16.5309 27.3788 16.4537 27.0063 16.7208 26.9086C17.071 26.7804 16.8395 26.3407 17.1244 26.2797C17.5042 26.2003 17.6526 25.8889 17.8544 25.6202C18.0443 25.3699 18.2639 25.2905 18.5191 25.5225C18.6852 25.6691 18.8039 25.6325 18.9523 25.4798C19.1185 25.3088 19.2728 25.1379 19.3915 24.9242C19.433 24.8509 19.5043 24.7593 19.4212 24.7166C19.0473 24.5334 19.0473 24.2464 19.2609 23.8617C18.9642 24.0266 18.9879 24.2281 19.0117 24.4296C19.0295 24.6005 19.0769 24.7776 19.071 24.9486C19.0591 25.2172 18.7505 25.4798 18.5665 25.3638C18.3292 25.2172 18.1689 24.9364 17.8187 25.0524C17.7535 25.0707 17.6941 24.9242 17.6763 24.8326C17.5992 24.4601 17.5754 24.0998 17.9731 23.8861C18.1392 23.7945 18.1867 23.6297 18.1511 23.477C18.1155 23.3366 17.9434 23.4099 17.8366 23.4099C17.5873 23.4099 17.3202 23.3854 17.1006 23.477C16.887 23.5625 16.9819 23.8617 16.8988 24.0571C16.1036 26.0416 14.6317 27.1956 12.6495 27.7207C12.4714 27.7696 12.2221 27.8489 12.1094 27.6413C11.9966 27.4337 12.234 27.3177 12.3468 27.1834C13.0768 26.2858 13.605 25.3027 13.5931 24.0815C13.5872 23.3916 13.5278 23.3427 12.8809 23.1656C12.418 23.0374 12.0975 23.3244 11.777 23.532C11.6168 23.6358 11.4921 23.7457 11.3082 23.7091C11.1004 23.6724 11.0292 23.4709 11.0589 23.3061C11.1242 22.9458 10.8987 22.9397 10.6731 22.897C10.5722 22.8787 10.4713 22.8481 10.3705 22.8237C10.2933 22.8054 10.2043 22.7748 10.1509 22.8542C10.0737 22.9641 10.1865 23.0252 10.2458 23.0801C10.3764 23.2023 10.5129 23.3122 10.4061 23.5198C10.2933 23.7213 10.1152 23.7274 9.92533 23.6846C9.85411 23.6663 9.75916 23.5869 9.74135 23.7152C9.69387 24.0388 9.42087 24.051 9.27843 24.0754C9.49209 24.3136 9.682 24.57 9.88972 24.8142C9.96094 24.8936 10.1865 25.0157 10.1687 24.8204C10.1271 24.4296 10.4298 24.1853 10.4476 23.8312C10.4595 23.5564 10.7206 23.4587 10.9402 23.5992C11.3556 23.8617 11.504 24.4113 11.9551 24.6433C11.9729 24.6494 11.9788 24.6921 11.9847 24.7166C12.0263 24.9791 12.1094 25.2356 12.0975 25.5103C12.0856 25.7912 11.9313 25.9255 11.6821 25.9439C11.5634 25.9561 11.4387 25.9255 11.2904 25.9194C11.326 25.9805 11.3438 26.0171 11.3675 26.0477C11.7889 26.5361 11.7473 26.7071 11.1479 26.8537C10.9758 26.8964 10.9402 27.0185 10.9402 27.1467C10.9402 27.4581 10.7681 27.5803 10.507 27.6841C9.94314 27.91 9.63452 28.3801 9.43274 28.948C9.41493 29.003 9.38526 29.0701 9.45648 29.0823C9.7829 29.1312 9.87192 29.5952 10.2755 29.5464C10.4476 29.522 10.6316 29.6563 10.6257 29.9005C10.6257 30.1204 10.4535 30.1631 10.2933 30.2425C9.8007 30.4928 9.61672 29.9311 9.24875 29.8456C9.1538 29.8212 9.09445 29.7479 9.05884 29.6563C8.99949 29.522 9.01136 29.3999 9.07664 29.2716C9.11225 29.1984 9.18347 29.1434 9.12412 29.0213C8.95794 28.6977 8.53657 28.5816 7.88966 28.6854C7.56918 28.7404 7.83625 29.003 7.72349 29.1434C7.67007 29.2045 7.63446 29.3632 7.74129 29.4365C7.83625 29.4975 7.94308 29.4182 8.0321 29.3632C8.19828 29.2655 8.4238 29.235 8.48315 29.4121C8.63153 29.87 9.17754 30.157 9.02323 30.792C9.31404 30.4623 9.61078 30.2852 9.99062 30.5661C10.0144 30.5844 10.0915 30.5478 10.1331 30.5234C10.4773 30.2974 10.7206 30.4379 10.9343 30.731C11.0114 30.8409 11.1123 31.0179 11.2251 30.963C11.8008 30.7065 12.1509 31.2378 12.3112 31.5064C12.602 31.9949 13.0946 31.9338 13.4507 32.1903C13.783 32.4345 13.9492 32.4712 13.7711 32.8864C13.6346 33.21 13.5397 33.5275 13.4803 33.8755C13.4329 34.1625 13.3794 34.5838 13.0352 34.6083C12.4655 34.6571 12.3705 35.17 12.1509 35.4936C11.8601 35.9149 11.866 36.5194 11.4387 36.8919C11.3438 36.9774 11.3319 37.13 11.3022 37.2644C11.2369 37.588 11.2726 37.9116 11.2607 38.2291C11.2607 38.3696 11.3082 38.5527 11.1479 38.626C10.9758 38.7054 10.78 38.6687 10.6316 38.5405C10.2874 38.2658 10.1093 37.875 10.139 37.4476C10.2161 36.3363 9.97875 35.2494 9.97281 34.1442C9.97281 33.9244 9.88972 33.7473 9.69981 33.6435C9.07071 33.2833 9.08258 32.6116 8.94014 32.0193C8.91047 31.9033 8.98168 31.7873 9.04103 31.6774C9.22501 31.3355 9.1538 31.1034 8.76803 31.0118C8.50096 30.9447 8.30511 30.7676 8.07365 30.6638C7.40894 30.3768 6.97569 29.7784 6.42968 29.3388C6.19822 29.1495 6.16261 28.7343 5.78871 28.6488C5.75903 28.6427 5.75903 28.5267 5.72936 28.4656C5.58099 28.1237 5.42668 27.7818 5.2427 27.3543C5.1062 27.6841 4.99343 27.8978 4.92221 28.1237C4.23377 30.2425 4.29905 32.3429 5.14774 34.3946C7.94901 41.16 16.4775 42.9002 21.7239 38.4001C23.902 36.5317 25.0118 34.0954 24.9703 31.1462C24.9703 30.8958 24.9703 30.6333 24.7982 30.4196C24.4896 30.0349 24.1632 29.6624 23.8901 29.2594C23.6231 28.8686 23.4806 29.4548 23.2195 29.3205C23.1008 29.2594 23.1542 29.4792 23.1661 29.5647C23.2136 29.925 23.1067 30.1509 22.7685 30.3402C22.537 30.4684 22.2343 30.4684 22.0563 30.7126C22.2284 30.8287 22.3827 30.9813 22.2996 31.2072C22.1987 31.4759 22.0919 31.7995 21.9138 31.9766C21.5518 32.3429 21.4094 32.7337 21.4509 33.2222C21.4687 33.4725 21.3975 33.7046 21.2432 33.9C21.0236 34.1808 20.8693 34.4861 20.899 34.8586C20.9108 34.9929 20.8574 35.1212 20.7447 35.1639C20.4064 35.2921 20.2164 35.5913 19.9731 35.8295C19.7476 36.0432 19.528 36.1042 19.2669 35.8234C19.0948 35.6402 19.0948 35.402 18.9761 35.2433C18.6674 34.822 18.6318 34.2969 18.62 33.8633C18.6022 33.2466 18.4657 32.7215 18.2223 32.1842C18.0087 31.714 17.6526 31.6285 17.2134 31.6041C16.7505 31.5736 16.2757 31.5553 15.9493 31.079C15.7534 30.792 15.6881 30.4745 15.6703 30.1753C15.6466 29.7296 15.6347 29.2777 16.1273 28.948C16.4715 28.716 16.8514 28.4901 17.1303 28.1542C17.2312 28.1848 17.3083 28.1176 17.3855 28.081C17.8603 27.8734 18.3054 27.8184 18.7268 28.2336C18.8574 28.3679 19.0591 28.4168 19.2728 28.3985C19.5161 28.3802 19.7832 28.3496 20.0087 28.4168C20.2877 28.4962 20.4538 28.2214 20.7031 28.2641C20.715 28.2641 20.7625 28.1787 20.7625 28.1359C20.7625 28.0626 20.709 28.0138 20.6378 28.0016C20.4123 27.9649 20.1334 27.8672 19.9612 27.9283C19.4746 28.0871 19.3974 27.7879 19.2847 27.4581C19.2491 27.3543 19.2669 27.2139 19.1185 27.1467C19.1422 27.2383 19.166 27.3116 19.1778 27.3849C19.2016 27.5375 19.2728 27.7207 19.071 27.8001C18.893 27.8734 18.7387 27.8184 18.62 27.6657C18.5725 27.6047 18.5191 27.5436 18.4716 27.4826C18.2283 27.1773 17.6466 27.2444 17.522 27.6169C17.4448 27.8489 17.2846 27.9894 17.1481 28.1603L17.1125 28.1542ZM12.7978 27.2078C13.2904 27.1773 13.6406 27.0307 13.9729 26.8475C15.1421 26.2003 15.9908 25.2783 16.5012 23.9899C16.9582 22.8298 16.6674 23.0618 17.8662 23.0435C21.807 22.9763 25.7478 23.0435 29.6885 22.9214C32.3058 22.8359 34.9231 22.8237 37.5285 22.5672C40.5316 22.2681 42.4723 20.479 43.2082 17.4871C43.6177 15.814 43.5406 14.1227 43.4575 12.4313C43.3744 10.7277 42.8165 9.20733 41.867 7.82127C41.4871 7.27173 40.9708 6.94811 40.3239 6.89926C38.763 6.77715 37.1962 6.6306 35.6294 6.60007C29.2137 6.47185 22.8041 6.40468 16.3884 6.71609C15.1184 6.77715 13.8483 6.75272 12.5842 6.89926C9.71168 7.22899 7.49202 8.62116 6.04984 11.2101C5.04091 13.0175 4.8688 15.0141 5.06465 17.0413C5.33172 19.7463 6.83325 21.4132 9.32591 22.1826C10.6613 22.5917 12.0441 22.7199 13.421 22.8542C13.599 22.8725 13.6703 22.897 13.7474 23.0863C14.0501 23.8434 13.9789 24.5883 13.7593 25.3394C13.5634 25.9988 13.2667 26.6033 12.7919 27.2139L12.7978 27.2078ZM20.62 28.4778C20.3055 28.832 20.0028 28.6854 19.7417 28.6793C19.2431 28.6671 18.6437 28.8869 18.3232 28.2336C18.3054 28.1909 18.2045 28.1603 18.1511 28.1664C17.2787 28.3069 16.5784 28.8259 16.068 29.4792C15.5694 30.1265 16.157 31.1584 16.9582 31.2255C17.3262 31.2561 17.6763 31.3538 18.0324 31.4576C18.157 31.4942 18.252 31.5553 18.3054 31.6713C18.4657 32.0071 18.6318 32.3429 18.7683 32.6849C18.8455 32.8803 18.9226 33.1062 18.9048 33.3077C18.8217 34.0954 19.1244 34.7731 19.4034 35.4631C19.4508 35.573 19.5161 35.6829 19.6645 35.6585C19.7417 35.6463 20.6141 34.7609 20.626 34.6815C20.626 34.6571 20.626 34.6266 20.626 34.6022C20.5903 34.2541 20.7328 33.9671 20.9642 33.7351C21.1126 33.5886 21.1542 33.4359 21.1245 33.2283C21.077 32.8253 21.1364 32.4345 21.4034 32.1292C21.6349 31.8606 21.718 31.5125 21.9316 31.2439C22.0563 31.0912 22.0088 30.963 21.807 30.9386C21.445 30.8958 21.2729 30.6333 21.1304 30.3341C21.0355 30.1265 20.9583 29.9005 20.8159 29.7357C20.5251 29.3937 20.4301 29.0274 20.626 28.4717L20.62 28.4778ZM10.044 23.3671C9.90159 23.1778 9.61078 23.1107 9.78883 22.7993C9.84224 22.7016 9.74135 22.6772 9.6642 22.6527C9.50395 22.6039 9.38526 22.6955 9.26062 22.7626C7.85405 23.532 6.79764 24.6799 5.86586 25.9927C5.46229 26.5606 5.30205 27.0613 5.71749 27.6719C5.87773 27.91 5.91928 28.2519 6.12106 28.429C6.47716 28.7465 6.73236 29.1495 7.06471 29.4853C7.49202 29.9189 7.98462 30.2364 8.48909 30.5417C8.54844 30.5783 8.60779 30.621 8.65526 30.5417C8.679 30.505 8.67307 30.4073 8.65526 30.4012C8.38819 30.2669 8.37039 30.0166 8.34071 29.7601C8.32291 29.6319 8.21608 29.6685 8.12112 29.6746C7.95495 29.6929 7.78283 29.7052 7.61666 29.6929C7.43268 29.6807 7.34365 29.5647 7.35552 29.3632C7.39904 28.7567 7.71755 28.429 8.31104 28.3801C8.36445 28.3801 8.41787 28.3801 8.46535 28.3618C8.76803 28.2886 9.0351 28.313 9.20128 28.6732C9.25469 28.5878 9.2903 28.5328 9.32591 28.4778C9.59298 27.9955 9.8185 27.4826 10.4476 27.3971C10.5663 27.3788 10.6078 27.2933 10.6019 27.159C10.59 26.8475 10.7384 26.6399 11.0411 26.5911C11.3556 26.5422 11.2785 26.3957 11.142 26.2247C11.1004 26.1698 11.0589 26.1209 11.0174 26.066C10.8215 25.8034 10.9402 25.6813 11.2013 25.6386C11.3319 25.6202 11.4625 25.6386 11.593 25.6386C11.7177 25.6386 11.8304 25.5836 11.777 25.4554C11.6761 25.205 11.9017 24.741 11.3675 24.7532C11.3319 24.7532 11.2547 24.686 11.2607 24.6555C11.2963 24.2586 10.8987 24.1853 10.7503 23.8373C10.7087 24.2891 10.4476 24.5761 10.4773 24.9852C10.4951 25.2722 10.1093 25.4493 9.9372 25.2783C9.64639 24.9852 9.31404 24.7471 9.02323 24.4601C8.78583 24.2281 8.83331 24.0083 9.10632 23.8373C9.20127 23.7762 9.37339 23.7213 9.38526 23.6419C9.45054 23.1412 9.69981 23.1656 10.05 23.3732L10.044 23.3671ZM19.6467 27.5986C19.6823 27.5131 19.7179 27.3849 19.7417 27.3849C20.0977 27.4215 19.9909 27.1528 20.0087 26.9697C20.0503 26.6033 20.2402 26.4751 20.5785 26.6033C20.6734 26.6399 20.7625 26.701 20.8752 26.6888C21.1067 26.6644 21.2551 26.7682 21.2847 27.0124C21.3203 27.275 21.1482 27.3177 20.9524 27.4093C20.6972 27.5314 20.3529 27.2872 20.1512 27.6352C20.3173 27.6658 20.4716 27.7146 20.626 27.7085C20.9346 27.7024 21.0711 27.9344 20.9939 28.142C20.8277 28.5572 21.0592 28.7465 21.2788 28.9907C21.3916 29.1129 21.4568 29.2899 21.5281 29.4426C21.629 29.6563 21.7239 29.8822 21.8189 30.102C21.8842 30.2547 21.9494 30.3219 22.1394 30.2242C22.5726 30.0166 23.0296 29.8578 22.7922 29.2045C22.7506 29.0946 22.8219 28.9663 22.9168 28.8808C22.9999 28.8076 23.1008 28.7343 23.1898 28.8442C23.3382 29.0213 23.445 28.9419 23.5756 28.8259C23.7893 28.6366 23.997 28.7038 24.0682 28.9541C24.181 29.351 24.5371 29.5037 24.7507 29.8151C24.7804 29.7662 24.7982 29.7418 24.7982 29.7235C24.7982 29.6685 24.7982 29.6136 24.7982 29.5647C24.2878 27.0063 22.9109 25.028 20.9168 23.4709C20.8277 23.4038 20.7268 23.3916 20.62 23.3916C20.0028 23.3916 19.3915 23.3916 18.7743 23.3916C18.6734 23.3916 18.5072 23.3793 18.5013 23.4893C18.4835 23.8739 18.1986 24.0571 17.9849 24.2952C17.9137 24.3746 17.89 24.4906 17.9434 24.6005C18.0087 24.7227 18.0977 24.6616 18.1808 24.625C18.3766 24.5334 18.43 24.6921 18.5013 24.8204C18.5547 24.9058 18.5903 25.0585 18.7149 24.9974C18.8277 24.9425 18.8396 24.8081 18.7683 24.6799C18.5903 24.3563 18.6912 24.051 18.8633 23.7701C18.9582 23.6175 19.0888 23.416 19.2906 23.5076C19.5043 23.6053 19.5458 23.8251 19.4746 24.0632C19.4449 24.167 19.3321 24.2769 19.4805 24.3807C19.8663 24.6555 19.6882 24.9791 19.5695 25.3088C19.4865 25.5287 19.2313 25.5103 19.1244 25.6752C18.9464 25.9622 18.7624 25.9561 18.5072 25.7729C18.3648 25.6752 18.1689 25.6019 18.068 25.8767C18.0383 25.9561 17.9493 26.0171 17.8959 26.0904C17.7357 26.3102 17.5517 26.4995 17.2965 26.5911C17.4448 26.9758 17.1481 27.0185 16.9166 27.1284C16.7386 27.2139 16.8098 27.3788 16.8573 27.5192C16.887 27.6169 16.881 27.7696 17.0116 27.7696C17.154 27.7696 17.1659 27.6047 17.2134 27.5009C17.2846 27.3421 17.344 27.2078 17.5161 27.1101C18.0205 26.8231 18.43 26.8231 18.7327 27.391C18.7387 27.4032 18.7802 27.4032 18.8099 27.4093C18.887 27.3055 18.8277 27.2017 18.798 27.1101C18.7446 26.9452 18.709 26.7865 18.9108 26.7071C19.1066 26.6338 19.2431 26.7315 19.3321 26.9025C19.439 27.1162 19.528 27.336 19.6408 27.5986H19.6467ZM10.9165 38.3085C10.9105 37.8261 10.8215 37.3865 10.9877 37.014C11.2607 36.4034 11.6108 35.8356 11.872 35.2128C11.9491 35.0296 12.1865 34.9441 12.234 34.706C12.2874 34.4251 12.4773 34.2969 12.7385 34.2969C12.9343 34.2969 12.9818 34.2053 13.0352 34.0221C13.1361 33.6802 13.1836 33.3138 13.3557 32.9902C13.4803 32.7581 13.4922 32.6177 13.1836 32.5017C12.9403 32.4101 12.7563 32.1842 12.4536 32.1903C12.2993 32.1903 12.2103 32.0437 12.1272 31.8911C11.9491 31.5797 11.7295 31.2805 11.3022 31.2988C11.0174 31.311 10.7978 31.1706 10.6613 30.908C10.59 30.7737 10.4654 30.6638 10.3526 30.7615C10.1152 30.9752 9.90159 30.8775 9.67013 30.7859C9.48615 30.7126 9.28436 30.8225 9.37932 30.9935C9.56924 31.3477 9.45054 31.598 9.28436 31.885C9.20721 32.0193 9.24282 32.2025 9.30217 32.3552C9.36152 32.52 9.46241 32.6788 9.46835 32.8497C9.48022 33.1001 9.58704 33.2283 9.79476 33.3321C9.99655 33.4359 10.1924 33.5825 10.2043 33.8389C10.2577 34.9868 10.507 36.1225 10.4773 37.2766C10.4713 37.6613 10.507 38.0276 10.9224 38.3146L10.9165 38.3085ZM21.712 30.5661C21.3797 30.0593 21.35 29.3693 20.7981 29.003C21.0829 29.5403 21.2432 30.1509 21.712 30.5661ZM20.9524 27.0368C20.7803 27.0063 20.6378 27.0002 20.5251 26.9025C20.442 26.8353 20.353 26.8537 20.3055 26.9636C20.2402 27.1162 20.3589 27.1528 20.4538 27.1773C20.62 27.2139 20.7862 27.2139 20.9524 27.0368Z" fill="#222222"/>
<path d="M23.5162 16.1743C22.7685 16.7604 21.8842 16.6689 21.445 15.9667C20.9464 15.1729 21.2135 13.8845 21.9732 13.4754C22.3886 13.2495 22.81 13.3228 23.2195 13.506C23.356 13.567 23.445 13.6891 23.6231 13.4632C23.8249 13.2007 24.2878 13.3838 24.2937 13.7258C24.3115 14.8065 24.4836 15.9056 24.1691 16.9681C24.0029 17.5298 23.5815 17.8412 23.0177 17.9328C22.5014 18.0122 22.0207 17.9084 21.6586 17.4993C21.5043 17.3222 21.3085 17.0474 21.4865 16.8642C21.6586 16.675 21.9672 16.6872 22.1868 16.9253C22.2462 16.9925 22.3352 17.0352 22.4124 17.0841C23.0058 17.4565 23.4628 17.2367 23.54 16.5345C23.5519 16.4185 23.5875 16.3025 23.5103 16.1926L23.5162 16.1743ZM23.5044 15.0813C23.5162 14.3852 23.2729 14.0616 22.7506 14.0616C22.3174 14.0616 21.9732 14.4463 21.9672 14.947C21.9613 15.4232 22.3115 15.8507 22.7269 15.8629C23.2136 15.8812 23.4984 15.5881 23.5103 15.0813H23.5044Z" fill="#222222"/>
<path d="M29.2968 13.6647C29.558 13.567 29.8013 13.4449 30.0802 13.4144C30.6144 13.3655 30.9942 13.5853 31.1901 14.0982C31.3384 14.4951 31.3444 14.9103 31.3384 15.3316C31.3384 15.643 31.3266 15.9483 31.3384 16.2598C31.3503 16.6566 31.0892 16.6566 30.8162 16.6872C30.4898 16.7238 30.4779 16.4918 30.4838 16.2842C30.4898 15.8934 30.5313 15.5087 30.5491 15.1179C30.555 14.9714 30.561 14.8187 30.5313 14.6783C30.466 14.3486 30.3058 14.0982 29.9378 14.1043C29.6114 14.1043 29.3206 14.3913 29.279 14.7271C29.2197 15.2462 29.19 15.7774 29.2256 16.2964C29.2494 16.6383 29.0772 16.7299 28.822 16.7482C28.5194 16.7666 28.4481 16.5284 28.4481 16.2903C28.4363 15.5087 28.4363 14.7333 28.4481 13.9517C28.4541 13.4144 28.4956 12.877 28.5016 12.3397C28.5016 12.0466 28.6737 12.01 28.8873 12.0283C29.0951 12.0466 29.3206 12.0283 29.3146 12.358C29.3028 12.7854 29.3146 13.2129 29.3146 13.6647H29.2968Z" fill="#222222"/>
<path d="M24.9525 15.0508C24.9525 14.7577 25.0356 14.4402 25.2077 14.1471C25.5341 13.5792 26.0979 13.28 26.6439 13.3838C27.3027 13.5121 27.8369 14.0433 27.9496 14.6722C28.0208 15.1057 27.9021 15.2584 27.463 15.2706C26.9941 15.2889 26.5252 15.2889 26.0504 15.3011C25.9496 15.3011 25.8309 15.2889 25.7715 15.3988C25.7062 15.527 25.7893 15.6308 25.8605 15.7285C26.092 16.0583 26.4362 16.1132 26.7923 15.8873C26.9882 15.7652 27.1603 15.582 27.4273 15.6247C27.5698 15.6492 27.73 15.6369 27.7894 15.8079C27.8428 15.9545 27.7419 16.0583 27.6529 16.1621C27.2374 16.6627 26.5668 16.8704 26.0386 16.6627C25.3205 16.388 24.9584 15.8568 24.9644 15.0508H24.9525ZM25.7003 14.6295C26.1217 14.66 26.5312 14.6905 26.9407 14.7088C27.0416 14.7088 27.184 14.7271 27.2137 14.6172C27.2434 14.5134 27.1425 14.4218 27.0713 14.3486C26.6083 13.8296 26.0683 13.9395 25.6944 14.6356L25.7003 14.6295Z" fill="#222222"/>
<path d="M17.9137 16.6627C17.5101 16.6261 17.0947 16.5467 16.8514 16.1376C16.7445 15.9667 16.5962 15.7041 16.8098 15.5637C17.0057 15.4354 17.3024 15.3744 17.5042 15.6614C17.6941 15.9422 17.979 15.9667 18.2757 15.9361C18.436 15.9178 18.5487 15.814 18.5784 15.6553C18.6081 15.4843 18.4657 15.411 18.347 15.3805C18.1096 15.3133 17.8662 15.2706 17.617 15.2339C17.1956 15.1668 16.976 14.8737 16.887 14.489C16.8039 14.1043 16.9404 13.7929 17.2727 13.5548C17.9137 13.0968 18.798 13.2373 19.16 13.8906C19.2313 14.025 19.4152 14.1715 19.2253 14.3486C19.0413 14.5257 18.8336 14.4707 18.6496 14.3486C18.5784 14.2997 18.525 14.2142 18.4716 14.141C18.3291 13.9334 18.1274 13.9089 17.9137 13.9395C17.7653 13.9578 17.6288 14.0433 17.6051 14.2081C17.5754 14.373 17.706 14.4585 17.8247 14.5012C18.0561 14.5928 18.2935 14.66 18.5309 14.7271C19.0651 14.8737 19.2728 15.0691 19.3143 15.4965C19.3559 15.9117 19.1126 16.2964 18.6674 16.4979C18.436 16.6017 18.1926 16.6505 17.9196 16.6627H17.9137Z" fill="#222222"/>
<path d="M16.246 14.9225C16.246 15.8873 15.5754 16.6383 14.697 16.6566C13.8424 16.6689 13.1895 15.9789 13.1836 15.0569C13.1777 14.0372 13.8483 13.2861 14.7682 13.28C15.5932 13.28 16.246 14.0005 16.246 14.9286V14.9225ZM15.5754 15.063C15.5635 14.4524 15.1006 13.9089 14.6258 13.9273C14.2044 13.9456 13.8127 14.428 13.8246 14.9164C13.8305 15.5026 14.2637 16.0216 14.7207 16.0033C15.1777 15.9789 15.5872 15.5331 15.5754 15.0691V15.063Z" fill="#222222"/>
<path d="M36.5908 13.4632C36.9588 13.4693 37.2733 13.5914 37.5285 13.8479C37.6947 14.025 37.8846 14.2326 37.6532 14.4707C37.4336 14.6905 37.1843 14.605 37.0122 14.373C36.8104 14.0982 36.5493 14.1043 36.2703 14.1593C36.1694 14.1776 36.0626 14.2142 36.0508 14.3486C36.0389 14.4707 36.1042 14.5562 36.1991 14.6172C36.4247 14.7638 36.6858 14.8065 36.9351 14.8859C37.5048 15.0691 37.7303 15.3011 37.7481 15.7346C37.7659 16.1621 37.4811 16.5223 36.9588 16.7177C36.3653 16.9375 35.7362 16.8215 35.3979 16.4124C35.2555 16.2414 35.0537 16.0277 35.2377 15.814C35.4217 15.6003 35.6947 15.6614 35.9202 15.814C36.1279 15.9483 36.2881 16.1498 36.579 16.1254C36.7689 16.1071 36.9291 16.046 36.9647 15.8568C37.0063 15.643 36.8223 15.5515 36.662 15.4965C36.5137 15.4416 36.3534 15.4293 36.1991 15.4049C35.7599 15.3316 35.3801 14.9836 35.3267 14.5989C35.2733 14.1959 35.4988 13.8418 35.9499 13.6342C36.1576 13.5365 36.3772 13.4998 36.5849 13.4815L36.5908 13.4632Z" fill="#222222"/>
<path d="M10.1924 14.2631C10.1924 13.7685 10.1924 13.2678 10.1924 12.7732C10.1924 12.6633 10.1924 12.5595 10.2102 12.4496C10.2458 12.2054 10.4179 12.126 10.6316 12.1138C10.8512 12.1016 10.9224 12.2603 10.9461 12.4435C11.0174 12.9503 10.9758 13.4632 10.9758 13.97C10.9758 14.428 10.9758 14.8859 10.9521 15.3377C10.9402 15.5759 10.9877 15.6919 11.2607 15.7224C11.6524 15.7652 12.0382 15.753 12.4299 15.7835C12.6376 15.8018 12.8631 15.8201 12.875 16.1254C12.8809 16.4246 12.6851 16.4674 12.4595 16.4735C11.8838 16.4857 11.3141 16.4979 10.7384 16.504C10.3586 16.504 10.2043 16.272 10.2043 15.9117C10.2043 15.3622 10.2043 14.8126 10.2043 14.257L10.1924 14.2631Z" fill="#222222"/>
<path d="M32.1871 14.8981C32.1871 14.8065 32.1871 14.6478 32.1871 14.4829C32.1871 14.318 32.2109 14.1654 31.9735 14.1349C31.8192 14.1165 31.7361 13.97 31.7301 13.8113C31.7301 13.6403 31.7954 13.4693 31.9616 13.4266C32.1871 13.3716 32.2049 13.2434 32.1871 13.048C32.1634 12.8038 32.2346 12.645 32.5254 12.6267C32.8222 12.6084 32.9468 12.7549 32.9468 13.0175C32.9468 13.2922 32.9824 13.4815 33.3148 13.4876C33.5166 13.4876 33.5344 13.6708 33.5403 13.8479C33.5403 14.0372 33.4928 14.1715 33.2851 14.1715C33.0121 14.1715 32.9468 14.3486 32.9646 14.5684C32.9824 14.8493 32.9765 15.1301 32.9409 15.411C32.9112 15.6736 32.9765 15.8873 33.2732 15.9545C33.5344 16.0094 33.5818 16.2292 33.5522 16.4551C33.5166 16.7055 33.3148 16.7543 33.107 16.7543C32.6738 16.7543 32.294 16.4002 32.2049 15.8995C32.1515 15.5942 32.1278 15.2828 32.1931 14.9042L32.1871 14.8981Z" fill="#222222"/>
<path d="M39.2319 13.5426C39.1784 14.1165 39.131 14.6966 39.0716 15.2706C39.0598 15.3866 39.0835 15.5515 38.8758 15.5515C38.7037 15.5515 38.5612 15.5087 38.5019 15.3255C38.4663 15.2095 38.4307 15.0874 38.4307 14.9714C38.4425 14.3119 38.4247 13.6586 38.3357 12.9992C38.2942 12.7 38.3713 12.4252 38.7393 12.3947C39.1369 12.3641 39.2556 12.4862 39.2437 12.8954C39.2437 13.1091 39.2259 13.3228 39.2141 13.5426C39.2141 13.5426 39.2259 13.5426 39.2319 13.5426Z" fill="#222222"/>
<path d="M34.2584 14.0494C33.9557 14.0311 33.7718 13.9883 33.9083 13.6159C34.0329 13.28 34.0566 12.9015 34.2465 12.5901C34.3415 12.4374 34.4543 12.2481 34.6798 12.3458C34.8934 12.4313 34.8934 12.6328 34.8578 12.8221C34.7926 13.1518 34.7095 13.4754 34.6323 13.799C34.5789 14.0189 34.389 14.0127 34.2584 14.0494Z" fill="#222222"/>
<path d="M39.2022 16.3208C39.2319 16.6383 39.0241 16.791 38.7393 16.8032C38.4663 16.8154 38.2645 16.6811 38.2585 16.3575C38.2585 16.0705 38.5078 15.7713 38.763 15.7957C39.0419 15.8201 39.2141 15.9789 39.2022 16.3208Z" fill="#222222"/>
<path d="M21.6468 34.4739C21.7358 34.1564 21.8248 33.7717 21.9494 33.3932C21.991 33.2588 22.1037 33.1123 22.2759 33.1917C22.4658 33.2772 22.6735 33.3993 22.626 33.6557C22.5607 34.0038 22.4717 34.3518 22.3708 34.6937C22.3115 34.8952 22.175 35.0113 21.9554 34.9502C21.7536 34.8952 21.6527 34.7548 21.6468 34.4678V34.4739ZM22.2937 33.558C22.0207 33.8023 22.1156 34.1564 21.9376 34.4251C21.8901 34.4984 21.8782 34.6266 21.991 34.6632C22.1037 34.6999 22.1631 34.5777 22.175 34.4984C22.2284 34.187 22.2581 33.8755 22.2937 33.558Z" fill="#222222"/>
<path d="M17.0769 24.8204C17.1315 24.8326 17.1896 24.8448 17.2015 24.8753C17.2905 25.1867 17.3618 25.4981 17.4983 25.7973C17.5101 25.8217 17.4686 25.8645 17.4508 25.9011C17.3677 26.0538 17.1718 26.2186 17.0947 26.1148C16.881 25.8401 16.4656 26.1148 16.3232 25.7668C16.2994 25.7057 16.3172 25.5897 16.3588 25.5409C16.5546 25.3088 16.8514 25.1745 16.9641 24.857C16.9701 24.8387 16.9739 24.8326 17.0273 24.8204L17.0769 24.8204Z" fill="#222222"/>
<path d="M11.5337 30.3096C11.5218 30.5234 11.3913 30.5905 11.2191 30.5722C10.958 30.5478 10.8334 30.3646 10.8334 30.1143C10.8334 29.925 10.9343 29.754 11.1361 29.7845C11.4031 29.8273 11.4862 30.0654 11.5337 30.3035V30.3096Z" fill="#222222"/>
<path d="M22.6854 26.7987C22.5489 26.9819 22.6379 27.1712 22.7388 27.3666C22.8041 27.4948 22.7091 27.5681 22.6201 27.623C22.4717 27.7207 22.3055 27.7879 22.1512 27.6474C21.9613 27.4765 21.8367 27.2505 21.7536 27.0124C21.7002 26.8475 21.7714 26.6888 21.9198 26.5911C22.1215 26.4568 22.3471 26.4934 22.5607 26.5422C22.6676 26.5667 22.7032 26.6522 22.6794 26.7926L22.6854 26.7987ZM22.4242 27.2811C22.2759 27.1712 22.448 26.8964 22.2224 26.8109C22.1512 26.7865 21.9969 26.8598 22.0563 26.9636C22.1453 27.1162 22.1394 27.3421 22.3411 27.4093C22.4005 27.4276 22.4242 27.3666 22.4183 27.2811H22.4242Z" fill="#222222"/>
<path d="M8.87486 22.4818C6.127 21.456 4.80945 19.4288 4.60766 16.5406C4.46523 14.489 4.83913 12.5534 5.78277 10.7338C6.70862 8.93867 8.22795 7.90065 9.97875 7.1435C11.2726 6.58175 12.6316 6.35583 14.0382 6.3253C16.1688 6.28256 18.3054 6.21539 20.436 6.12991C24.7151 5.97115 28.9942 5.94062 33.2792 6.13602C34.6501 6.19708 36.027 6.13602 37.398 6.23982C38.4544 6.3192 39.5108 6.37415 40.5613 6.49016C41.2022 6.56344 41.7304 6.89927 42.0806 7.48544C42.14 7.58924 42.2171 7.68083 42.2943 7.77853C43.2795 9.05468 43.7068 10.5445 43.8848 12.1382C44.1103 14.141 44.0213 16.1132 43.4694 18.0549C42.6978 20.766 40.8936 22.2681 38.2526 22.8115C36.8935 23.0924 35.5166 23.0863 34.1456 23.129C30.0387 23.2694 25.9258 23.416 21.8129 23.3916C21.7773 23.3916 21.7417 23.4038 21.6349 23.4282C21.8011 23.5808 21.9376 23.6969 22.0622 23.819C23.7952 25.4737 24.9881 27.452 25.2967 29.8883C25.8487 34.2908 23.813 38.1009 19.9316 40.0487C15.3736 42.3385 9.73542 41.3065 6.55431 37.4964C2.43549 32.5628 3.45036 26.1881 8.50096 22.7321C8.61966 22.6527 8.73835 22.5734 8.88673 22.4695L8.87486 22.4818ZM17.1125 28.1542C16.7742 28.1603 16.608 27.9588 16.5665 27.6413C16.5309 27.3788 16.4537 27.0063 16.7208 26.9086C17.071 26.7804 16.8395 26.3407 17.1244 26.2797C17.5042 26.2003 17.6526 25.8889 17.8544 25.6202C18.0443 25.3699 18.2639 25.2905 18.5191 25.5225C18.6852 25.6691 18.8039 25.6325 18.9523 25.4798C19.1185 25.3088 19.2728 25.1379 19.3915 24.9242C19.433 24.8509 19.5043 24.7593 19.4212 24.7166C19.0473 24.5334 19.0473 24.2464 19.2609 23.8617C18.9642 24.0266 18.9879 24.2281 19.0117 24.4296C19.0295 24.6005 19.0769 24.7776 19.071 24.9486C19.0591 25.2172 18.7505 25.4798 18.5665 25.3638C18.3292 25.2172 18.1689 24.9364 17.8187 25.0524C17.7535 25.0707 17.6941 24.9242 17.6763 24.8326C17.5992 24.4601 17.5754 24.0998 17.9731 23.8861C18.1392 23.7945 18.1867 23.6297 18.1511 23.477C18.1155 23.3366 17.9434 23.4099 17.8366 23.4099C17.5873 23.4099 17.3202 23.3854 17.1006 23.477C16.887 23.5625 16.9819 23.8617 16.8988 24.0571C16.1036 26.0416 14.6317 27.1956 12.6495 27.7207C12.4714 27.7696 12.2221 27.8489 12.1094 27.6413C11.9966 27.4337 12.234 27.3177 12.3468 27.1834C13.0768 26.2858 13.605 25.3027 13.5931 24.0815C13.5872 23.3916 13.5278 23.3427 12.8809 23.1656C12.418 23.0374 12.0975 23.3244 11.777 23.532C11.6168 23.6358 11.4921 23.7457 11.3082 23.7091C11.1004 23.6724 11.0292 23.4709 11.0589 23.3061C11.1242 22.9458 10.8987 22.9397 10.6731 22.897C10.5722 22.8787 10.4713 22.8481 10.3705 22.8237C10.2933 22.8054 10.2043 22.7748 10.1509 22.8542C10.0737 22.9641 10.1865 23.0252 10.2458 23.0801C10.3764 23.2023 10.5129 23.3122 10.4061 23.5198C10.2933 23.7213 10.1152 23.7274 9.92533 23.6846C9.85411 23.6663 9.75916 23.5869 9.74135 23.7152C9.69387 24.0388 9.42087 24.051 9.27843 24.0754C9.49209 24.3136 9.682 24.57 9.88972 24.8142C9.96094 24.8936 10.1865 25.0157 10.1687 24.8204C10.1271 24.4296 10.4298 24.1853 10.4476 23.8312C10.4595 23.5564 10.7206 23.4587 10.9402 23.5992C11.3556 23.8617 11.504 24.4113 11.9551 24.6433C11.9729 24.6494 11.9788 24.6921 11.9847 24.7166C12.0263 24.9791 12.1094 25.2356 12.0975 25.5103C12.0856 25.7912 11.9313 25.9255 11.6821 25.9439C11.5634 25.9561 11.4387 25.9255 11.2904 25.9194C11.326 25.9805 11.3438 26.0171 11.3675 26.0477C11.7889 26.5361 11.7473 26.7071 11.1479 26.8537C10.9758 26.8964 10.9402 27.0185 10.9402 27.1467C10.9402 27.4581 10.7681 27.5803 10.507 27.6841C9.94314 27.91 9.63452 28.3801 9.43274 28.948C9.41493 29.003 9.38526 29.0701 9.45648 29.0823C9.7829 29.1312 9.87192 29.5952 10.2755 29.5464C10.4476 29.522 10.6316 29.6563 10.6257 29.9005C10.6257 30.1204 10.4535 30.1631 10.2933 30.2425C9.8007 30.4928 9.61672 29.9311 9.24875 29.8456C9.1538 29.8212 9.09445 29.7479 9.05884 29.6563C8.99949 29.522 9.01136 29.3999 9.07664 29.2716C9.11225 29.1984 9.18347 29.1434 9.12412 29.0213C8.95794 28.6977 8.53657 28.5816 7.88966 28.6854C7.56918 28.7404 7.83625 29.003 7.72349 29.1434C7.67007 29.2045 7.63446 29.3632 7.74129 29.4365C7.83625 29.4975 7.94308 29.4182 8.0321 29.3632C8.19828 29.2655 8.4238 29.235 8.48315 29.4121C8.63153 29.87 9.17754 30.157 9.02323 30.792C9.31404 30.4623 9.61078 30.2852 9.99062 30.5661C10.0144 30.5844 10.0915 30.5478 10.1331 30.5234C10.4773 30.2974 10.7206 30.4379 10.9343 30.731C11.0114 30.8409 11.1123 31.0179 11.2251 30.963C11.8008 30.7065 12.1509 31.2378 12.3112 31.5064C12.602 31.9949 13.0946 31.9338 13.4507 32.1903C13.783 32.4345 13.9492 32.4712 13.7711 32.8864C13.6346 33.21 13.5397 33.5275 13.4803 33.8755C13.4329 34.1625 13.3794 34.5838 13.0352 34.6083C12.4655 34.6571 12.3705 35.17 12.1509 35.4936C11.8601 35.9149 11.866 36.5194 11.4387 36.8919C11.3438 36.9774 11.3319 37.13 11.3022 37.2644C11.2369 37.588 11.2726 37.9116 11.2607 38.2291C11.2607 38.3696 11.3082 38.5527 11.1479 38.626C10.9758 38.7054 10.78 38.6687 10.6316 38.5405C10.2874 38.2658 10.1093 37.875 10.139 37.4476C10.2161 36.3363 9.97875 35.2494 9.97281 34.1442C9.97281 33.9244 9.88972 33.7473 9.69981 33.6435C9.07071 33.2833 9.08258 32.6116 8.94014 32.0193C8.91047 31.9033 8.98168 31.7873 9.04103 31.6774C9.22501 31.3355 9.1538 31.1034 8.76803 31.0118C8.50096 30.9447 8.30511 30.7676 8.07365 30.6638C7.40894 30.3768 6.97569 29.7784 6.42968 29.3388C6.19822 29.1495 6.16261 28.7343 5.78871 28.6488C5.75903 28.6427 5.75903 28.5267 5.72936 28.4656C5.58099 28.1237 5.42668 27.7818 5.2427 27.3543C5.1062 27.6841 4.99343 27.8978 4.92221 28.1237C4.23377 30.2425 4.29905 32.3429 5.14774 34.3946C7.94901 41.16 16.4775 42.9002 21.7239 38.4001C23.902 36.5317 25.0118 34.0954 24.9703 31.1462C24.9703 30.8958 24.9703 30.6333 24.7982 30.4196C24.4896 30.0349 24.1632 29.6624 23.8901 29.2594C23.6231 28.8686 23.4806 29.4548 23.2195 29.3205C23.1008 29.2594 23.1542 29.4792 23.1661 29.5647C23.2136 29.925 23.1067 30.1509 22.7685 30.3402C22.537 30.4684 22.2343 30.4684 22.0563 30.7126C22.2284 30.8287 22.3827 30.9813 22.2996 31.2072C22.1987 31.4759 22.0919 31.7995 21.9138 31.9766C21.5518 32.3429 21.4094 32.7337 21.4509 33.2222C21.4687 33.4725 21.3975 33.7046 21.2432 33.9C21.0236 34.1808 20.8693 34.4861 20.899 34.8586C20.9108 34.9929 20.8574 35.1212 20.7447 35.1639C20.4064 35.2921 20.2164 35.5913 19.9731 35.8295C19.7476 36.0432 19.528 36.1042 19.2669 35.8234C19.0948 35.6402 19.0948 35.402 18.9761 35.2433C18.6674 34.822 18.6318 34.2969 18.62 33.8633C18.6022 33.2466 18.4657 32.7215 18.2223 32.1842C18.0087 31.714 17.6526 31.6285 17.2134 31.6041C16.7505 31.5736 16.2757 31.5553 15.9493 31.079C15.7534 30.792 15.6881 30.4745 15.6703 30.1753C15.6466 29.7296 15.6347 29.2777 16.1273 28.948C16.4715 28.716 16.8514 28.4901 17.1303 28.1542C17.2312 28.1848 17.3083 28.1176 17.3855 28.081C17.8603 27.8734 18.3054 27.8184 18.7268 28.2336C18.8574 28.3679 19.0591 28.4168 19.2728 28.3985C19.5161 28.3802 19.7832 28.3496 20.0087 28.4168C20.2877 28.4962 20.4538 28.2214 20.7031 28.2641C20.715 28.2641 20.7625 28.1787 20.7625 28.1359C20.7625 28.0626 20.709 28.0138 20.6378 28.0016C20.4123 27.9649 20.1334 27.8672 19.9612 27.9283C19.4746 28.0871 19.3974 27.7879 19.2847 27.4581C19.2491 27.3543 19.2669 27.2139 19.1185 27.1467C19.1422 27.2383 19.166 27.3116 19.1778 27.3849C19.2016 27.5375 19.2728 27.7207 19.071 27.8001C18.893 27.8734 18.7387 27.8184 18.62 27.6657C18.5725 27.6047 18.5191 27.5436 18.4716 27.4826C18.2283 27.1773 17.6466 27.2444 17.522 27.6169C17.4448 27.8489 17.2846 27.9894 17.1481 28.1603L17.1125 28.1542ZM12.7978 27.2078C13.2904 27.1773 13.6406 27.0307 13.9729 26.8475C15.1421 26.2003 15.9908 25.2783 16.5012 23.9899C16.9582 22.8298 16.6674 23.0618 17.8662 23.0435C21.807 22.9763 25.7478 23.0435 29.6885 22.9214C32.3058 22.8359 34.9231 22.8237 37.5285 22.5672C40.5316 22.2681 42.4723 20.479 43.2082 17.4871C43.6177 15.814 43.5406 14.1227 43.4575 12.4313C43.3744 10.7277 42.8165 9.20733 41.867 7.82127C41.4871 7.27173 40.9708 6.94811 40.3239 6.89926C38.763 6.77715 37.1962 6.6306 35.6294 6.60007C29.2137 6.47185 22.8041 6.40468 16.3884 6.71609C15.1184 6.77715 13.8483 6.75272 12.5842 6.89926C9.71168 7.22899 7.49202 8.62116 6.04984 11.2101C5.04091 13.0175 4.8688 15.0141 5.06465 17.0413C5.33172 19.7463 6.83325 21.4132 9.32591 22.1826C10.6613 22.5917 12.0441 22.7199 13.421 22.8542C13.599 22.8725 13.6703 22.897 13.7474 23.0863C14.0501 23.8434 13.9789 24.5883 13.7593 25.3394C13.5634 25.9988 13.2667 26.6033 12.7919 27.2139L12.7978 27.2078ZM20.62 28.4778C20.3055 28.832 20.0028 28.6854 19.7417 28.6793C19.2431 28.6671 18.6437 28.8869 18.3232 28.2336C18.3054 28.1909 18.2045 28.1603 18.1511 28.1664C17.2787 28.3069 16.5784 28.8259 16.068 29.4792C15.5694 30.1265 16.157 31.1584 16.9582 31.2255C17.3262 31.2561 17.6763 31.3538 18.0324 31.4576C18.157 31.4942 18.252 31.5553 18.3054 31.6713C18.4657 32.0071 18.6318 32.3429 18.7683 32.6849C18.8455 32.8803 18.9226 33.1062 18.9048 33.3077C18.8217 34.0954 19.1244 34.7731 19.4034 35.4631C19.4508 35.573 19.5161 35.6829 19.6645 35.6585C19.7417 35.6463 20.6141 34.7609 20.626 34.6815C20.626 34.6571 20.626 34.6266 20.626 34.6022C20.5903 34.2541 20.7328 33.9671 20.9642 33.7351C21.1126 33.5886 21.1542 33.4359 21.1245 33.2283C21.077 32.8253 21.1364 32.4345 21.4034 32.1292C21.6349 31.8606 21.718 31.5125 21.9316 31.2439C22.0563 31.0912 22.0088 30.963 21.807 30.9386C21.445 30.8958 21.2729 30.6333 21.1304 30.3341C21.0355 30.1265 20.9583 29.9005 20.8159 29.7357C20.5251 29.3937 20.4301 29.0274 20.626 28.4717L20.62 28.4778ZM10.044 23.3671C9.90159 23.1778 9.61078 23.1107 9.78883 22.7993C9.84224 22.7016 9.74135 22.6772 9.6642 22.6527C9.50395 22.6039 9.38526 22.6955 9.26062 22.7626C7.85405 23.532 6.79764 24.6799 5.86586 25.9927C5.46229 26.5606 5.30205 27.0613 5.71749 27.6719C5.87773 27.91 5.91928 28.2519 6.12106 28.429C6.47716 28.7465 6.73236 29.1495 7.06471 29.4853C7.49202 29.9189 7.98462 30.2364 8.48909 30.5417C8.54844 30.5783 8.60779 30.621 8.65526 30.5417C8.679 30.505 8.67307 30.4073 8.65526 30.4012C8.38819 30.2669 8.37039 30.0166 8.34071 29.7601C8.32291 29.6319 8.21608 29.6685 8.12112 29.6746C7.95495 29.6929 7.78283 29.7052 7.61666 29.6929C7.43268 29.6807 7.34365 29.5647 7.35552 29.3632C7.39904 28.7567 7.71755 28.429 8.31104 28.3801C8.36445 28.3801 8.41787 28.3801 8.46535 28.3618C8.76803 28.2886 9.0351 28.313 9.20128 28.6732C9.25469 28.5878 9.2903 28.5328 9.32591 28.4778C9.59298 27.9955 9.8185 27.4826 10.4476 27.3971C10.5663 27.3788 10.6078 27.2933 10.6019 27.159C10.59 26.8475 10.7384 26.6399 11.0411 26.5911C11.3556 26.5422 11.2785 26.3957 11.142 26.2247C11.1004 26.1698 11.0589 26.1209 11.0174 26.066C10.8215 25.8034 10.9402 25.6813 11.2013 25.6386C11.3319 25.6202 11.4625 25.6386 11.593 25.6386C11.7177 25.6386 11.8304 25.5836 11.777 25.4554C11.6761 25.205 11.9017 24.741 11.3675 24.7532C11.3319 24.7532 11.2547 24.686 11.2607 24.6555C11.2963 24.2586 10.8987 24.1853 10.7503 23.8373C10.7087 24.2891 10.4476 24.5761 10.4773 24.9852C10.4951 25.2722 10.1093 25.4493 9.9372 25.2783C9.64639 24.9852 9.31404 24.7471 9.02323 24.4601C8.78583 24.2281 8.83331 24.0083 9.10632 23.8373C9.20127 23.7762 9.37339 23.7213 9.38526 23.6419C9.45054 23.1412 9.69981 23.1656 10.05 23.3732L10.044 23.3671ZM19.6467 27.5986C19.6823 27.5131 19.7179 27.3849 19.7417 27.3849C20.0977 27.4215 19.9909 27.1528 20.0087 26.9697C20.0503 26.6033 20.2402 26.4751 20.5785 26.6033C20.6734 26.6399 20.7625 26.701 20.8752 26.6888C21.1067 26.6644 21.2551 26.7682 21.2847 27.0124C21.3203 27.275 21.1482 27.3177 20.9524 27.4093C20.6972 27.5314 20.3529 27.2872 20.1512 27.6352C20.3173 27.6658 20.4716 27.7146 20.626 27.7085C20.9346 27.7024 21.0711 27.9344 20.9939 28.142C20.8277 28.5572 21.0592 28.7465 21.2788 28.9907C21.3916 29.1129 21.4568 29.2899 21.5281 29.4426C21.629 29.6563 21.7239 29.8822 21.8189 30.102C21.8842 30.2547 21.9494 30.3219 22.1394 30.2242C22.5726 30.0166 23.0296 29.8578 22.7922 29.2045C22.7506 29.0946 22.8219 28.9663 22.9168 28.8808C22.9999 28.8076 23.1008 28.7343 23.1898 28.8442C23.3382 29.0213 23.445 28.9419 23.5756 28.8259C23.7893 28.6366 23.997 28.7038 24.0682 28.9541C24.181 29.351 24.5371 29.5037 24.7507 29.8151C24.7804 29.7662 24.7982 29.7418 24.7982 29.7235C24.7982 29.6685 24.7982 29.6136 24.7982 29.5647C24.2878 27.0063 22.9109 25.028 20.9168 23.4709C20.8277 23.4038 20.7268 23.3916 20.62 23.3916C20.0028 23.3916 19.3915 23.3916 18.7743 23.3916C18.6734 23.3916 18.5072 23.3793 18.5013 23.4893C18.4835 23.8739 18.1986 24.0571 17.9849 24.2952C17.9137 24.3746 17.89 24.4906 17.9434 24.6005C18.0087 24.7227 18.0977 24.6616 18.1808 24.625C18.3766 24.5334 18.43 24.6921 18.5013 24.8204C18.5547 24.9058 18.5903 25.0585 18.7149 24.9974C18.8277 24.9425 18.8396 24.8081 18.7683 24.6799C18.5903 24.3563 18.6912 24.051 18.8633 23.7701C18.9582 23.6175 19.0888 23.416 19.2906 23.5076C19.5043 23.6053 19.5458 23.8251 19.4746 24.0632C19.4449 24.167 19.3321 24.2769 19.4805 24.3807C19.8663 24.6555 19.6882 24.9791 19.5695 25.3088C19.4865 25.5287 19.2313 25.5103 19.1244 25.6752C18.9464 25.9622 18.7624 25.9561 18.5072 25.7729C18.3648 25.6752 18.1689 25.6019 18.068 25.8767C18.0383 25.9561 17.9493 26.0171 17.8959 26.0904C17.7357 26.3102 17.5517 26.4995 17.2965 26.5911C17.4448 26.9758 17.1481 27.0185 16.9166 27.1284C16.7386 27.2139 16.8098 27.3788 16.8573 27.5192C16.887 27.6169 16.881 27.7696 17.0116 27.7696C17.154 27.7696 17.1659 27.6047 17.2134 27.5009C17.2846 27.3421 17.344 27.2078 17.5161 27.1101C18.0205 26.8231 18.43 26.8231 18.7327 27.391C18.7387 27.4032 18.7802 27.4032 18.8099 27.4093C18.887 27.3055 18.8277 27.2017 18.798 27.1101C18.7446 26.9452 18.709 26.7865 18.9108 26.7071C19.1066 26.6338 19.2431 26.7315 19.3321 26.9025C19.439 27.1162 19.528 27.336 19.6408 27.5986H19.6467ZM10.9165 38.3085C10.9105 37.8261 10.8215 37.3865 10.9877 37.014C11.2607 36.4034 11.6108 35.8356 11.872 35.2128C11.9491 35.0296 12.1865 34.9441 12.234 34.706C12.2874 34.4251 12.4773 34.2969 12.7385 34.2969C12.9343 34.2969 12.9818 34.2053 13.0352 34.0221C13.1361 33.6802 13.1836 33.3138 13.3557 32.9902C13.4803 32.7581 13.4922 32.6177 13.1836 32.5017C12.9403 32.4101 12.7563 32.1842 12.4536 32.1903C12.2993 32.1903 12.2103 32.0437 12.1272 31.8911C11.9491 31.5797 11.7295 31.2805 11.3022 31.2988C11.0174 31.311 10.7978 31.1706 10.6613 30.908C10.59 30.7737 10.4654 30.6638 10.3526 30.7615C10.1152 30.9752 9.90159 30.8775 9.67013 30.7859C9.48615 30.7126 9.28436 30.8225 9.37932 30.9935C9.56924 31.3477 9.45054 31.598 9.28436 31.885C9.20721 32.0193 9.24282 32.2025 9.30217 32.3552C9.36152 32.52 9.46241 32.6788 9.46835 32.8497C9.48022 33.1001 9.58704 33.2283 9.79476 33.3321C9.99655 33.4359 10.1924 33.5825 10.2043 33.8389C10.2577 34.9868 10.507 36.1225 10.4773 37.2766C10.4713 37.6613 10.507 38.0276 10.9224 38.3146L10.9165 38.3085ZM21.712 30.5661C21.3797 30.0593 21.35 29.3693 20.7981 29.003C21.0829 29.5403 21.2432 30.1509 21.712 30.5661ZM20.9524 27.0368C20.7803 27.0063 20.6378 27.0002 20.5251 26.9025C20.442 26.8353 20.353 26.8537 20.3055 26.9636C20.2402 27.1162 20.3589 27.1528 20.4538 27.1773C20.62 27.2139 20.7862 27.2139 20.9524 27.0368Z" stroke="#222222" stroke-width="0.1" stroke-miterlimit="10"/>
<path d="M23.5162 16.1743C22.7685 16.7604 21.8842 16.6689 21.445 15.9667C20.9464 15.1729 21.2135 13.8845 21.9732 13.4754C22.3886 13.2495 22.81 13.3228 23.2195 13.506C23.356 13.567 23.445 13.6891 23.6231 13.4632C23.8249 13.2007 24.2878 13.3838 24.2937 13.7258C24.3115 14.8065 24.4836 15.9056 24.1691 16.9681C24.0029 17.5298 23.5815 17.8412 23.0177 17.9328C22.5014 18.0122 22.0207 17.9084 21.6586 17.4993C21.5043 17.3222 21.3085 17.0474 21.4865 16.8642C21.6586 16.675 21.9672 16.6872 22.1868 16.9253C22.2462 16.9925 22.3352 17.0352 22.4124 17.0841C23.0058 17.4565 23.4628 17.2367 23.54 16.5345C23.5519 16.4185 23.5875 16.3025 23.5103 16.1926L23.5162 16.1743ZM23.5044 15.0813C23.5162 14.3852 23.2729 14.0616 22.7506 14.0616C22.3174 14.0616 21.9732 14.4463 21.9672 14.947C21.9613 15.4232 22.3115 15.8507 22.7269 15.8629C23.2136 15.8812 23.4984 15.5881 23.5103 15.0813H23.5044Z" stroke="#222222" stroke-width="0.1" stroke-miterlimit="10"/>
<path d="M29.2968 13.6647C29.558 13.567 29.8013 13.4449 30.0802 13.4144C30.6144 13.3655 30.9942 13.5853 31.1901 14.0982C31.3384 14.4951 31.3444 14.9103 31.3384 15.3316C31.3384 15.643 31.3266 15.9483 31.3384 16.2598C31.3503 16.6566 31.0892 16.6566 30.8162 16.6872C30.4898 16.7238 30.4779 16.4918 30.4838 16.2842C30.4898 15.8934 30.5313 15.5087 30.5491 15.1179C30.555 14.9714 30.561 14.8187 30.5313 14.6783C30.466 14.3486 30.3058 14.0982 29.9378 14.1043C29.6114 14.1043 29.3206 14.3913 29.279 14.7271C29.2197 15.2462 29.19 15.7774 29.2256 16.2964C29.2494 16.6383 29.0772 16.7299 28.822 16.7482C28.5194 16.7666 28.4481 16.5284 28.4481 16.2903C28.4363 15.5087 28.4363 14.7333 28.4481 13.9517C28.4541 13.4144 28.4956 12.877 28.5016 12.3397C28.5016 12.0466 28.6737 12.01 28.8873 12.0283C29.0951 12.0466 29.3206 12.0283 29.3146 12.358C29.3028 12.7854 29.3146 13.2129 29.3146 13.6647H29.2968Z" stroke="#222222" stroke-width="0.1" stroke-miterlimit="10"/>
<path d="M24.9525 15.0508C24.9525 14.7577 25.0356 14.4402 25.2077 14.1471C25.5341 13.5792 26.0979 13.28 26.6439 13.3838C27.3027 13.5121 27.8369 14.0433 27.9496 14.6722C28.0208 15.1057 27.9021 15.2584 27.463 15.2706C26.9941 15.2889 26.5252 15.2889 26.0504 15.3011C25.9496 15.3011 25.8309 15.2889 25.7715 15.3988C25.7062 15.527 25.7893 15.6308 25.8605 15.7285C26.092 16.0583 26.4362 16.1132 26.7923 15.8873C26.9882 15.7652 27.1603 15.582 27.4273 15.6247C27.5698 15.6492 27.73 15.6369 27.7894 15.8079C27.8428 15.9545 27.7419 16.0583 27.6529 16.1621C27.2374 16.6627 26.5668 16.8704 26.0386 16.6627C25.3205 16.388 24.9584 15.8568 24.9644 15.0508H24.9525ZM25.7003 14.6295C26.1217 14.66 26.5312 14.6905 26.9407 14.7088C27.0416 14.7088 27.184 14.7271 27.2137 14.6172C27.2434 14.5134 27.1425 14.4218 27.0713 14.3486C26.6083 13.8296 26.0683 13.9395 25.6944 14.6356L25.7003 14.6295Z" stroke="#222222" stroke-width="0.1" stroke-miterlimit="10"/>
<path d="M17.9137 16.6627C17.5101 16.6261 17.0947 16.5467 16.8514 16.1376C16.7445 15.9667 16.5962 15.7041 16.8098 15.5637C17.0057 15.4354 17.3024 15.3744 17.5042 15.6614C17.6941 15.9422 17.979 15.9667 18.2757 15.9361C18.436 15.9178 18.5487 15.814 18.5784 15.6553C18.6081 15.4843 18.4657 15.411 18.347 15.3805C18.1096 15.3133 17.8662 15.2706 17.617 15.2339C17.1956 15.1668 16.976 14.8737 16.887 14.489C16.8039 14.1043 16.9404 13.7929 17.2727 13.5548C17.9137 13.0968 18.798 13.2373 19.16 13.8906C19.2313 14.025 19.4152 14.1715 19.2253 14.3486C19.0413 14.5257 18.8336 14.4707 18.6496 14.3486C18.5784 14.2997 18.525 14.2142 18.4716 14.141C18.3291 13.9334 18.1274 13.9089 17.9137 13.9395C17.7653 13.9578 17.6288 14.0433 17.6051 14.2081C17.5754 14.373 17.706 14.4585 17.8247 14.5012C18.0561 14.5928 18.2935 14.66 18.5309 14.7271C19.0651 14.8737 19.2728 15.0691 19.3143 15.4965C19.3559 15.9117 19.1126 16.2964 18.6674 16.4979C18.436 16.6017 18.1926 16.6505 17.9196 16.6627H17.9137Z" stroke="#222222" stroke-width="0.1" stroke-miterlimit="10"/>
<path d="M16.246 14.9225C16.246 15.8873 15.5754 16.6383 14.697 16.6566C13.8424 16.6689 13.1895 15.9789 13.1836 15.0569C13.1777 14.0372 13.8483 13.2861 14.7682 13.28C15.5932 13.28 16.246 14.0005 16.246 14.9286V14.9225ZM15.5754 15.063C15.5635 14.4524 15.1006 13.9089 14.6258 13.9273C14.2044 13.9456 13.8127 14.428 13.8246 14.9164C13.8305 15.5026 14.2637 16.0216 14.7207 16.0033C15.1777 15.9789 15.5872 15.5331 15.5754 15.0691V15.063Z" stroke="#222222" stroke-width="0.1" stroke-miterlimit="10"/>
<path d="M36.5908 13.4632C36.9588 13.4693 37.2733 13.5914 37.5285 13.8479C37.6947 14.025 37.8846 14.2326 37.6532 14.4707C37.4336 14.6905 37.1843 14.605 37.0122 14.373C36.8104 14.0982 36.5493 14.1043 36.2703 14.1593C36.1694 14.1776 36.0626 14.2142 36.0508 14.3486C36.0389 14.4707 36.1042 14.5562 36.1991 14.6172C36.4247 14.7638 36.6858 14.8065 36.9351 14.8859C37.5048 15.0691 37.7303 15.3011 37.7481 15.7346C37.7659 16.1621 37.4811 16.5223 36.9588 16.7177C36.3653 16.9375 35.7362 16.8215 35.3979 16.4124C35.2555 16.2414 35.0537 16.0277 35.2377 15.814C35.4217 15.6003 35.6947 15.6614 35.9202 15.814C36.1279 15.9483 36.2881 16.1498 36.579 16.1254C36.7689 16.1071 36.9291 16.046 36.9647 15.8568C37.0063 15.643 36.8223 15.5515 36.662 15.4965C36.5137 15.4416 36.3534 15.4293 36.1991 15.4049C35.7599 15.3316 35.3801 14.9836 35.3267 14.5989C35.2733 14.1959 35.4988 13.8418 35.9499 13.6342C36.1576 13.5365 36.3772 13.4998 36.5849 13.4815L36.5908 13.4632Z" stroke="#222222" stroke-width="0.1" stroke-miterlimit="10"/>
<path d="M10.1924 14.2631C10.1924 13.7685 10.1924 13.2678 10.1924 12.7732C10.1924 12.6633 10.1924 12.5595 10.2102 12.4496C10.2458 12.2054 10.4179 12.126 10.6316 12.1138C10.8512 12.1016 10.9224 12.2603 10.9461 12.4435C11.0174 12.9503 10.9758 13.4632 10.9758 13.97C10.9758 14.428 10.9758 14.8859 10.9521 15.3377C10.9402 15.5759 10.9877 15.6919 11.2607 15.7224C11.6524 15.7652 12.0382 15.753 12.4299 15.7835C12.6376 15.8018 12.8631 15.8201 12.875 16.1254C12.8809 16.4246 12.6851 16.4674 12.4595 16.4735C11.8838 16.4857 11.3141 16.4979 10.7384 16.504C10.3586 16.504 10.2043 16.272 10.2043 15.9117C10.2043 15.3622 10.2043 14.8126 10.2043 14.257L10.1924 14.2631Z" stroke="#222222" stroke-width="0.1" stroke-miterlimit="10"/>
<path d="M32.1871 14.8981C32.1871 14.8065 32.1871 14.6478 32.1871 14.4829C32.1871 14.318 32.2109 14.1654 31.9735 14.1349C31.8192 14.1165 31.7361 13.97 31.7301 13.8113C31.7301 13.6403 31.7954 13.4693 31.9616 13.4266C32.1871 13.3716 32.2049 13.2434 32.1871 13.048C32.1634 12.8038 32.2346 12.645 32.5254 12.6267C32.8222 12.6084 32.9468 12.7549 32.9468 13.0175C32.9468 13.2922 32.9824 13.4815 33.3148 13.4876C33.5166 13.4876 33.5344 13.6708 33.5403 13.8479C33.5403 14.0372 33.4928 14.1715 33.2851 14.1715C33.0121 14.1715 32.9468 14.3486 32.9646 14.5684C32.9824 14.8493 32.9765 15.1301 32.9409 15.411C32.9112 15.6736 32.9765 15.8873 33.2732 15.9545C33.5344 16.0094 33.5818 16.2292 33.5522 16.4551C33.5166 16.7055 33.3148 16.7543 33.107 16.7543C32.6738 16.7543 32.294 16.4002 32.2049 15.8995C32.1515 15.5942 32.1278 15.2828 32.1931 14.9042L32.1871 14.8981Z" stroke="#222222" stroke-width="0.1" stroke-miterlimit="10"/>
<path d="M39.2319 13.5426C39.1784 14.1165 39.131 14.6966 39.0716 15.2706C39.0598 15.3866 39.0835 15.5515 38.8758 15.5515C38.7037 15.5515 38.5612 15.5087 38.5019 15.3255C38.4663 15.2095 38.4307 15.0874 38.4307 14.9714C38.4425 14.3119 38.4247 13.6586 38.3357 12.9992C38.2942 12.7 38.3713 12.4252 38.7393 12.3947C39.1369 12.3641 39.2556 12.4862 39.2437 12.8954C39.2437 13.1091 39.2259 13.3228 39.2141 13.5426C39.2141 13.5426 39.2259 13.5426 39.2319 13.5426Z" stroke="#222222" stroke-width="0.1" stroke-miterlimit="10"/>
<path d="M34.2584 14.0494C33.9557 14.0311 33.7718 13.9883 33.9083 13.6159C34.0329 13.28 34.0566 12.9015 34.2465 12.5901C34.3415 12.4374 34.4543 12.2481 34.6798 12.3458C34.8934 12.4313 34.8934 12.6328 34.8578 12.8221C34.7926 13.1518 34.7095 13.4754 34.6323 13.799C34.5789 14.0189 34.389 14.0127 34.2584 14.0494Z" stroke="#222222" stroke-width="0.1" stroke-miterlimit="10"/>
<path d="M39.2022 16.3208C39.2319 16.6383 39.0241 16.791 38.7393 16.8032C38.4663 16.8154 38.2645 16.6811 38.2585 16.3575C38.2585 16.0705 38.5078 15.7713 38.763 15.7957C39.0419 15.8201 39.2141 15.9789 39.2022 16.3208Z" stroke="#222222" stroke-width="0.1" stroke-miterlimit="10"/>
<path d="M21.6468 34.4739C21.7358 34.1564 21.8248 33.7717 21.9494 33.3932C21.991 33.2588 22.1037 33.1123 22.2759 33.1917C22.4658 33.2772 22.6735 33.3993 22.626 33.6557C22.5607 34.0038 22.4717 34.3518 22.3708 34.6937C22.3115 34.8952 22.175 35.0113 21.9554 34.9502C21.7536 34.8952 21.6527 34.7548 21.6468 34.4678V34.4739ZM22.2937 33.558C22.0207 33.8023 22.1156 34.1564 21.9376 34.4251C21.8901 34.4984 21.8782 34.6266 21.991 34.6632C22.1037 34.6999 22.1631 34.5777 22.175 34.4984C22.2284 34.187 22.2581 33.8755 22.2937 33.558Z" stroke="#222222" stroke-width="0.1" stroke-miterlimit="10"/>
<path d="M17.0769 24.8204C17.1315 24.8326 17.1896 24.8448 17.2015 24.8753C17.2905 25.1867 17.3618 25.4981 17.4983 25.7973C17.5101 25.8217 17.4686 25.8645 17.4508 25.9011C17.3677 26.0538 17.1718 26.2186 17.0947 26.1148C16.881 25.8401 16.4656 26.1148 16.3232 25.7668C16.2994 25.7057 16.3172 25.5897 16.3588 25.5409C16.5546 25.3088 16.8514 25.1745 16.9641 24.857C16.9701 24.8387 16.9739 24.8326 17.0273 24.8204L17.0769 24.8204Z" stroke="#222222" stroke-width="0.1" stroke-miterlimit="10"/>
<path d="M11.5337 30.3096C11.5218 30.5234 11.3913 30.5905 11.2191 30.5722C10.958 30.5478 10.8334 30.3646 10.8334 30.1143C10.8334 29.925 10.9343 29.754 11.1361 29.7845C11.4031 29.8273 11.4862 30.0654 11.5337 30.3035V30.3096Z" stroke="#222222" stroke-width="0.1" stroke-miterlimit="10"/>
<path d="M22.6854 26.7987C22.5489 26.9819 22.6379 27.1712 22.7388 27.3666C22.8041 27.4948 22.7091 27.5681 22.6201 27.623C22.4717 27.7207 22.3055 27.7879 22.1512 27.6474C21.9613 27.4765 21.8367 27.2505 21.7536 27.0124C21.7002 26.8475 21.7714 26.6888 21.9198 26.5911C22.1215 26.4568 22.3471 26.4934 22.5607 26.5422C22.6676 26.5667 22.7032 26.6522 22.6794 26.7926L22.6854 26.7987ZM22.4242 27.2811C22.2759 27.1712 22.448 26.8964 22.2224 26.8109C22.1512 26.7865 21.9969 26.8598 22.0563 26.9636C22.1453 27.1162 22.1394 27.3421 22.3411 27.4093C22.4005 27.4276 22.4242 27.3666 22.4183 27.2811H22.4242Z" stroke="#222222" stroke-width="0.1" stroke-miterlimit="10"/>
</svg>
