<svg xmlns="http://www.w3.org/2000/svg" fill="none" viewBox="0 0 48 49"><g clip-path="url(#a)"><path fill="currentColor" d="M17.487 19.717v.012s0-.006-.012-.012h.012Zm28.006 5.361a2.174 2.174 0 0 1-.677 1.114c-.268.228-.566.368-.863.368h-.006a.276.276 0 0 1-.175.076c-.017 0-.023-.047-.035-.1-.023 0-.04-.005-.064-.011a.967.967 0 0 1-.356-.175c-.245-.012-.38.035-.776-.064-.56-.146-.53-.251-1.09-.397-.397-.105-.532-.064-.776-.082.169 1.12.087 3.32-2.491 5.145L34.8 33.35c-.134.14-.968 1.09-.612 2.479.437 1.715.665 2.905.665 2.917l-.735.14s-.222-1.184-.654-2.87c-.49-1.908.782-3.168.835-3.22.011-.012.029-.024.046-.035l3.407-2.421c2.63-1.867 2.31-4.066 2.123-4.766-.18-.1-.291-.204-.653-.298-.56-.145-.6 0-1.155-.14-.56-.145-.554-.157-1.114-.303s-.56-.14-1.12-.286l-1.12-.291c-.56-.146-.537-.228-1.097-.368-.56-.146-.566-.128-1.12-.274-.56-.146-.56-.152-1.12-.297-.507-.129-.542-.205-.962-.321-.047.18-.117.437-.234.723-.122.303-.233.682-.46.992-.21.286-.496.56-.811.752-.292.175-.677.152-1.068.175-.385.023-.747.093-1.085 0-.356-.093-.653-.32-.962-.507-.31-.187-.66-.333-.928-.584a8.156 8.156 0 0 1-.764-.793c-.24-.298-.344-.683-.537-.963-.186-.28-.42-.524-.606-.781-.21-.292-.444-.537-.619-.776-.35-.467-.53-.828-.536-.834-.006-.012-.1.035-.105.023-.018-.029-.193-.478-.625-.822a2.607 2.607 0 0 0-.933-.473 2.106 2.106 0 0 0-1.044 0c-.367.093-.624.298-.858.373-.355.117-.6.17-.752.205-.012-.047-.087-.088-.087-.088l.081.088c-.093.023-.152.035-.175.052-.035.111-.134.479-.093.858.186-.094.431-.204.711-.28.368-.1.788-.14 1.196-.035.514.134.928.46 1.202.997.233.461.286.916.233 1.324-.052.467-.274.875-.525 1.237-.227.32-.49.6-.735.805.076.134.152.268.228.408.18.327.472.607.665.945.187.327.338.683.53 1.021.187.333.392.66.578.998.187.338.42.647.613.98.192.338.39.665.577.997.193.344.31.718.49 1.044.193.345.333.712.514 1.033.198.356.484.636.659.945.005.012-.094.076-.088.093.018.047.327.391.525.992.1.309.082.712.181 1.102.088.344.21.7.268 1.074.059.367 0 .74.018 1.108.011.38.122.846.064 1.196-.362.105-.414-.059-.712-.286.064-.397-.04-.752-.081-1.196-.035-.42-.006-.863-.094-1.277-.093-.45-.332-.84-.449-1.202-.198-.642-.233-1.16-.274-1.26-.064-.11-.39-.408-.688-.94-.164-.29-.345-.635-.554-1.008-.175-.31-.368-.648-.566-1.004-.181-.32-.368-.659-.566-1.009-.187-.326-.31-.7-.502-1.044-.186-.332-.39-.665-.577-.997-.187-.339-.374-.677-.56-1.01-.193-.344-.321-.711-.508-1.038-.192-.35-.414-.67-.595-.992-.198-.355-.496-.636-.67-.95-.21-.38-.31-.77-.467-1.062-.292-.537-.473-.91-.525-1.021-.14-.31-.134-.607-.129-.887 0-.396-.029-.746-.017-.892l-3.628-.94h-.006a.173.173 0 0 1-.088-.029h-.006a.414.414 0 0 1-.186-.128c-.385-.25-.426-.268-.87-.56-.472-.315-.478-.309-.95-.624-.473-.315-.467-.32-.94-.636-.472-.315-.501-.274-.974-.589-.204-.047-.612-.134-1.102-.327a8.697 8.697 0 0 1-1.15-.566c-.303.158-.676.251-1.12.339-.343.064-.728.134-1.172.128-.356 0-.752-.017-1.184-.082-.362-.052-.723-.157-1.137-.262-.1-.362-.129-.478.134-.74.449.11.88.21 1.254.256.472.064.887.082 1.254.07.496-.018.91-.1 1.243-.216a3.153 3.153 0 0 1-.648-.694c-.175-.269-.32-.554-.35-.875-.04-.45.012-.87.158-1.202a1.59 1.59 0 0 1 .857-.84c.338-.14.712-.163 1.056-.076.332.088.659.286.898.572.24.28.374.764.339 1.283-.024.409-.181.84-.438 1.254-.11.181-.245.386-.45.578.31.152.608.32.9.432.373.14.752.192.99.256v.018c.42-.035.473-.047.98-.088.567-.046.567-.052 1.133-.099.565-.046.565-.029 1.131-.07.549-.04.566-.058 1.091-.099h.163l3.611.933a2.573 2.573 0 0 1-.035-.11c-.035-.105-.239-.543-.04-.928.099-.198.402-.42.874-.537.14-.035.572-.105 1.179-.245.338-.075.752-.087 1.19-.192.367-.082.746-.222 1.16-.315.38-.088.782-.117 1.185-.21.385-.088.758-.268 1.155-.356.39-.088.776-.204 1.166-.292.397-.087.782-.204 1.167-.291.402-.094.793-.193 1.172-.274.415-.094.817-.152 1.185-.234.437-.099.863-.07 1.201-.146.654-.146 1.062-.35 1.15-.373.011 0 .017-.1.029-.105.035 0 .542-.03 1.149.245.286.128.56.42.887.73.239.227.507.495.74.863.152.233.42.53.689.933.192.292.303.688.542 1.032.204.304.461.601.688.934.216.315.356.688.572 1.015.216.32.514.589.73.91.221.326.449.647.664.956.234.339.432.677.636.975.245.355.52.647.706.921.397.572.566.904.578.916.093.023.21.047.367.087.56.146.59.047 1.15.193.565.146.547.21 1.107.356.566.146.59.052 1.15.198.566.146.548.198 1.114.344 0 0 0 .018-.006.03.385.099.688.396.846.822.146.39.169.846.052 1.3l.018.024ZM7.215 13.674c.431-.694.303-1.417.116-1.64-.198-.232-.455-.402-.723-.402-.111 0-.204.082-.31.123-.408.175-.612.6-.548 1.23.047.473.42.928.945 1.278.245-.187.415-.42.525-.6l-.005.011Zm15.003.53c.035.217.052.462.017.712a1.98 1.98 0 0 1-.443 1.045c-.216.25-.53.466-.945.63-.25.093-.49.157-.73.157-.25 0-.5-.058-.74-.163-.367-.17-.636-.467-.857-.753a4.724 4.724 0 0 1-.403-.612.227.227 0 0 0-.047.058c-.07.128-.017.303-.017.303 0 .012-.047.041-.047.047.1.368.35.642.543.922.204.291.46.496.776.677.344.198.688.338 1.067.402.408.07.8.076 1.155.058.66-.035 1.126-.21 1.132-.21.239-.052.379-.046.507-.029.012 0 .018-.012.03-.012.268-.087.408-.058.542.006.023 0 .04-.006.064-.011.548-.123.52-.251 1.073-.38.549-.128.56-.07 1.114-.198.549-.128.531-.222 1.08-.344.554-.128.554-.117 1.102-.245.554-.128.554-.122 1.103-.25.198-.047.507.116.56.314.134.525 0 .56.134 1.091.134.53.192.513.326 1.044.117.467.38.549.304.916.105.052.233.105.449.163.56.146.607-.023 1.167.123s.525.286 1.09.431c.56.146.578.1 1.138.24.56.146.537.245 1.097.39.56.146.6 0 1.16.146.56.146.572.117 1.132.263.356.093.473.18.654.274a1.169 1.169 0 0 0-.076-.105c-.193-.274-.292-.682-.537-1.044-.204-.298-.45-.607-.683-.945-.215-.31-.513-.578-.74-.904-.216-.321-.385-.677-.607-.998-.222-.326-.52-.595-.735-.91-.227-.332-.403-.688-.613-.992-.239-.35-.408-.705-.6-.997-.269-.402-.56-.688-.712-.928-.28-.443-.595-.694-.863-.898-.584-.449-1.021-.636-1.126-.636-.111.024-.525.205-1.161.35l-1.172.263c-.362.082-.765.134-1.179.227-.373.088-.752.251-1.155.339-.385.087-.764.216-1.16.309-.392.087-.794.122-1.185.21-.396.087-.77.257-1.155.344-.286.064-.577.076-.863.11h.035Zm7.332 4.83c.041-.21.1-.437.018-.763-.175-.706.14-.957-.45-1.377-.524-.367-.623.105-1.248.245-.624.14-.6.25-1.225.39-.624.14-.659-.005-1.283.135l-.566.134c.193.035.333.047.683.134.56.146.566.129 1.131.274.56.146.537.234 1.103.38.56.146.548.21 1.108.35.368.093.513.076.723.093l.006.006Zm-10.716-4.03c.17.315.456.718.852.898.274.123.572.123.893 0 .46-.18.7-.46.822-.746.117-.28.117-.56.088-.77-.263.099-.508.21-.753.268-.437.1-.846.128-1.184.204-.286.064-.53.111-.723.146h.005Zm-6.107 2.584.257-.986c0-.035.011-.07.023-.099l.193-.74c-.619-.403-.852-.28-1.488.098-.402.24-.467.526-.227.928.373.642.501.852 1.242.8Zm4.772 3.757c.105.175.245.408.402.7.158.286.321.641.531 1.02.158.287.315.613.496.946.14-.123.309-.286.46-.49.193-.245.386-.543.438-.887.047-.297-.023-.618-.198-.957-.175-.338-.391-.542-.689-.624-.285-.076-.595-.023-.869.058-.215.065-.42.158-.566.228l-.005.006Zm11.976 2.304c.151-.332.21-.624.233-.8-.146-.028-.286-.052-.566-.128-.56-.145-.595-.011-1.155-.157s-.53-.257-1.09-.397c-.56-.146-.555-.163-1.115-.309-.56-.146-.548-.192-1.108-.338-.56-.146-.613.047-1.173-.1a.828.828 0 0 0-.117-.023c.047.07.1.146.152.216.187.263.473.479.665.759.204.297.338.694.601 1.009.245.297.595.501.893.752.303.251.583.543.939.683.355.14.752.28 1.16.25.403-.023.677-.344.94-.589.268-.256.589-.513.735-.828h.005Zm13.294 1.942c-.088-.338-.134-.822-.03-1.219.1-.385.356-.77.607-1.032-.49-.31-.606-.041-1.172-.187s-.572-.122-1.132-.268c-.566-.146-.525-.298-1.085-.444-.566-.145-.578-.093-1.138-.239-.56-.146-.577-.099-1.137-.245-.566-.146-.543-.227-1.108-.373-.566-.146-.59-.035-1.155-.18-.566-.147-.537-.258-1.097-.403-.566-.146-.566-.14-1.126-.286l-1.126-.292c-.566-.146-.6-.011-1.16-.151-.45-.117-.514-.245-.805-.368a.409.409 0 0 1-.316-.105c-.524-.134-.542-.134-1.09-.274-.566-.146-.572-.105-1.138-.251-.566-.146-.554-.18-1.12-.327-.566-.145-.554-.175-1.12-.32-.566-.146-.566-.14-1.132-.286-.49-.129-.717.151-1.026-.041a3.835 3.835 0 0 1-.257.07c-.04.011-.607.186-1.353.216a6.021 6.021 0 0 1-1.371-.117c-.432-.082-.805-.38-1.207-.618-.403-.234-.782-.455-1.045-.823a3.66 3.66 0 0 1-.163-.25l-3.78-.975c-.035.117-.07.21-.11.362l-.456 1.762 3.868.997c.116-.058.25-.117.414-.175.303-.11.717-.204 1.236-.327.49-.122.922.012 1.313.105.473.111.893.251 1.213.496.531.409.87.852.934.951.029.035.099.14.204.286.537-.17.537.28 1.096.426.56.145.584.046 1.144.192.56.146.566.117 1.126.257.56.146.554.169 1.114.315s.554.175 1.108.32c.56.146.59.024 1.15.17.56.146.524.274 1.084.42.56.146.59.029 1.15.175.56.146.53.25 1.09.396.56.146.543.216 1.103.362.56.146.606-.029 1.166.117.56.146.52.303 1.08.443.56.146.56.158 1.12.303.56.146.577.07 1.137.216s.572.1 1.132.245c.56.146.583.064 1.143.21s.56.152 1.12.298.525.484 1.103.455v.012Zm1.995-1.557a.672.672 0 0 0-.193-.28.28.28 0 0 1-.18.012s.011-.053.023-.1c-.03-.005-.065 0-.094 0-.163 0-.297.1-.379.164-.198.169-.379.426-.455.729-.163.624.076 1.16.373 1.242 0-.011.006-.029.006-.029l.012-.04c.047.011.093.04.128.075a.742.742 0 0 0 .333-.169c.198-.169.361-.437.443-.74.076-.304.07-.625-.023-.864h.006Z"/></g><defs><clipPath id="a"><path fill="#fff" d="M2 10.892h43.569v28H2z"/></clipPath></defs></svg>