<svg viewBox="0 0 48 48" fill="none" xmlns="http://www.w3.org/2000/svg">
<path fill-rule="evenodd" clip-rule="evenodd" d="M42.9497 17.4287C43.0784 16.2417 43.0526 15.2612 41.7202 15.1683C41.432 14.936 40.9947 14.8122 40.6758 14.7864C40.4237 14.6264 40.0635 14.4715 39.7394 14.4612C37.6507 13.7181 35.5259 12.9491 33.4165 12.3195C32.758 12.0356 30.34 10.8899 30.0776 11.0086C29.9438 11.215 28.2255 11.6382 27.7316 11.9117C26.9239 12.2266 26.0184 12.4175 25.2107 12.882C24.4595 13.0936 23.7032 13.4548 23.0293 13.6355C22.6126 13.9503 22.1598 13.9813 21.6505 14.0896C21.3521 14.358 20.2614 14.5593 20.1534 14.6883C19.7469 14.776 18.2241 15.4263 17.9668 15.5811C17.334 15.5347 17.3752 15.9527 17.4009 16.3811C17.3803 17.0107 17.3598 17.8519 17.4627 18.4557C18.0543 19.4673 18.898 17.6248 18.6768 20.0504C18.8415 21.2065 16.5572 21.8671 17.4318 23.1057C17.7508 23.3792 18.3424 23.7611 18.0389 24.205C18.0131 24.9894 17.7096 25.5932 17.0305 26.0061C16.3617 26.7596 15.3122 26.837 14.3604 26.677C13.6761 26.6099 13.1977 26.259 12.6266 26.0732C12.179 25.8771 11.2993 24.9068 11.0677 25.81C11.0986 26.548 10.9134 26.9712 10.3886 27.4047C9.96676 28.1582 8.96868 28.4833 8.23298 28.6278C7.60532 28.8033 6.90564 28.6536 6.39631 28.4162C6.13392 28.3956 5.93842 27.8485 5.6143 27.9363C3.97827 26.9815 6.1082 30.4032 6.28312 30.8006C6.71014 31.2237 6.77702 31.8843 7.27606 32.3024C7.30178 32.8391 7.68764 33.1591 7.99632 33.381C8.00661 34.1293 8.58797 34.6351 8.92752 35.3576C9.37512 36.075 9.80213 36.7356 10.6253 36.653C13.0536 36.8388 15.626 36.7149 17.936 36.8439C18.6768 36.8955 23.8113 36.7407 24.5984 36.9523C25.5759 36.973 28.6525 36.7768 28.8171 36.9368C29.3779 37.0246 29.8821 36.8233 30.4995 36.9626C31.194 36.8491 31.8988 37.0039 32.6345 36.9162C33.0358 36.8801 33.8075 37.1329 34.1831 36.9007C35.1966 36.8336 36.0558 37.0917 37.1156 36.9368C38.4275 36.9626 39.9092 36.973 41.2005 36.8904C41.7253 36.9162 42.6771 37.2104 42.4713 36.4259C42.6719 35.6053 42.3993 34.4699 42.5793 33.4894C42.5433 33.1384 42.5073 32.8546 42.3787 32.5398C41.324 32.6843 42.0649 30.7283 41.8745 30.2638C41.8539 28.6898 42.0083 27.157 42.034 25.7945C42.0237 23.4824 42.1009 21.382 42.1883 19.0286C42.5433 18.1925 43.0887 19.4466 42.9395 17.4339L42.9497 17.4287ZM19.7264 15.5605C20.2151 15.4779 20.5495 15.2973 20.8942 15.1063C21.2543 15.0392 21.6968 14.9102 22.0775 14.7502C22.4994 14.5541 22.9007 14.3116 23.3843 14.2754C23.693 14.1103 24.0119 13.9451 24.336 13.9761C25.01 13.5219 25.7406 13.4394 26.5329 13.1142C27.6698 12.6033 28.8892 12.2988 30.129 11.8085C33.8487 12.9388 37.2082 14.2599 41.1388 15.5914C39.0397 15.6173 37.2134 15.705 35.0834 15.5811C34.2397 15.7514 32.9123 15.5244 32.048 15.6327C31.1323 15.5708 29.9953 15.6843 29.0383 15.5708C26.8981 15.6327 19.9167 15.9011 19.7212 15.5605H19.7264ZM18.1263 22.827C17.7971 22.3728 18.4607 21.8413 18.7488 21.5058C18.8775 21.3097 19.3971 22.2283 19.5514 22.3883C19.8035 22.8322 18.8415 23.2708 18.898 23.405C18.754 23.534 18.3784 22.9921 18.1263 22.8218V22.827ZM19.4691 20.2569C19.4845 19.8182 19.3662 19.0389 19.5874 18.7602C20.0556 18.8738 21.2132 18.3628 21.1772 19.0544C21.1 21.1446 21.1103 23.1521 20.9251 25.2887C20.8633 25.6242 21.136 27.0073 20.7913 26.9144C20.0247 26.3725 19.5154 25.9855 19.3817 25.0462C18.5739 23.6011 21.0794 23.4669 20.2357 22.1561C19.9373 21.5316 19.1862 21.062 19.4743 20.2517L19.4691 20.2569ZM8.83492 32.9268C8.43363 33.092 8.19697 32.6172 8.13523 32.2095C7.97574 32.0392 7.82655 31.9205 7.72365 31.7243C7.51272 31.0173 6.8902 30.2587 6.55065 29.4897C6.07733 28.9633 6.7976 29.371 6.99824 29.4484C7.14744 29.3297 8.71144 29.1439 9.17962 29.1233C9.41113 28.9994 9.9256 29.0562 10.0594 28.6949C10.4709 28.6691 10.687 28.1737 10.9391 27.864C11.3558 27.6266 11.3198 27.2602 11.5565 26.9867C11.6182 26.6977 11.6697 26.1506 11.9835 26.6202C12.2922 26.6822 12.5649 26.9505 12.8684 27.028C14.5404 27.6163 16.2999 27.8434 17.689 26.4706C17.6787 26.3158 18.0183 25.7893 18.255 25.6655C18.6202 24.8243 18.6202 25.3507 18.8054 25.9184C19.1193 26.2332 19.2325 26.966 19.7572 27.0692C20.3386 27.6782 21.028 27.766 21.7637 28.0188C21.9437 28.1169 23.1836 27.8279 23.5643 27.9105C23.6775 27.8382 24.2795 27.5647 24.4029 27.4253C24.8711 27.2654 24.974 26.6667 25.3033 27.255C25.5296 27.7143 25.9669 27.9672 26.3528 28.3595C26.6152 28.762 27.1657 28.9736 27.5361 29.2471C28.0454 29.1852 28.2924 29.5877 28.7914 29.371C29.3882 29.5826 30.0519 29.211 30.6435 29.1852C30.3503 29.9284 29.8152 30.718 29.4808 31.5592C29.0486 32.1011 28.7142 33.7423 27.7264 33.3139C25.9515 33.3294 23.9502 33.1333 22.1341 33.19C21.6505 33.3036 17.5861 32.9888 16.6292 33.1229C16.3102 32.9888 15.8061 33.1023 15.5282 33.1075C15.2093 32.9681 13.2697 33.0249 12.5237 32.9578C12.287 33.0146 11.9063 32.901 11.6594 32.9733C11.4639 32.8597 9.63235 33.0817 8.82977 32.9217L8.83492 32.9268ZM21.6814 26.2383C21.7328 24.3495 21.8563 22.4141 21.7482 20.6078C22.1238 18.8996 21.1566 18.7551 23.2608 18.7138C23.8267 18.9099 24.3566 18.6364 24.9071 18.8015C25.4164 18.7138 25.2827 18.8738 25.2621 19.364C25.2312 21.3716 25.2467 23.3328 25.1952 25.2887C25.329 26.0371 24.3 26.5841 23.7187 26.9196C23.5438 27.2705 23.0396 27.1208 22.7978 27.2705C21.4601 27.3324 21.6814 27.3892 21.6814 26.2383ZM25.9155 26.5738C25.9927 24.1121 25.9464 21.6245 26.0647 18.9357C25.8537 18.6725 26.8107 18.7964 27.0113 18.7138C28.2924 18.2957 27.5412 20.0556 27.7213 20.8607C27.675 23.1934 27.4898 25.4436 27.5258 27.766C27.7624 29.1026 25.6582 27.0641 25.9155 26.5738ZM28.2203 27.6215C28.4518 24.623 28.2409 21.5884 28.5187 18.7757C29.7432 18.9151 30.8596 18.5383 32.0532 18.8015C32.9381 18.5641 32.6191 19.1112 32.5831 19.6789C32.6088 20.582 32.6037 21.32 32.5985 22.218C32.5522 24.9946 32.4082 27.8124 32.5059 30.558C32.3207 31.1515 32.4648 31.874 32.4133 32.4985C31.3998 32.5501 30.695 32.5294 29.7689 32.5346C30.1805 31.9153 30.5406 31.425 30.7876 30.6973C31.0654 30.5115 30.9676 29.949 31.2712 29.8406C31.3483 29.5568 31.4821 29.3607 31.5644 29.0768C32.5213 27.446 30.5921 28.3646 29.8564 28.6072C28.9097 28.6846 27.9374 29.1542 28.2203 27.6215ZM27.2325 35.4505C26.8107 36.4775 25.4885 36.0905 24.7528 36.1214C23.8679 36.2504 22.8955 36.1163 21.954 36.0646C21.6659 36.1988 21.0949 36.2917 20.745 36.1163C19.8704 36.0285 19.0884 36.2143 18.363 36.013C16.7373 36.013 15.2556 36.1008 13.7584 36.0492C12.5751 35.9511 11.4896 36.0388 10.2137 35.9769C8.95325 34.9241 11.5411 35.3524 12.3436 35.3215C15.5334 35.2337 18.6562 35.435 21.9232 35.3215C22.9007 35.337 23.8936 35.5744 24.974 35.3679C25.5039 35.3524 26.1779 35.4557 26.8004 35.4815C26.929 35.4815 27.4795 35.2647 27.2325 35.4505ZM27.5618 34.8518C26.6615 34.5112 25.9618 34.7228 25.0975 34.7125C23.909 34.5319 22.5971 34.6248 21.5682 34.7125C20.6575 34.4751 19.927 34.5938 19.1501 34.6609C18.2961 34.5164 17.5553 34.6454 16.6086 34.6041C15.9552 34.4545 15.2401 34.6867 14.6485 34.6402C14.026 34.5319 13.3057 34.5164 12.8427 34.6093C11.9835 34.4957 11.2118 34.6248 10.3526 34.5319C9.43171 34.697 9.2928 34.537 8.89665 33.6958C9.21048 33.6132 9.68895 33.7681 10.1623 33.7216C14.4273 33.8042 18.5431 33.8248 22.7412 33.9797C23.693 34.0003 24.6807 34.0674 25.5656 34.0158C26.0081 33.8145 26.4505 34.1138 27.0113 33.9848C27.7419 34.0571 28.21 33.8868 27.5618 34.8467V34.8518ZM41.8436 34.1809C41.7922 34.8673 41.7922 35.5124 41.7767 36.1266C40.5008 36.2453 39.3844 36.044 38.1343 36.1575C36.9664 36.0646 35.7368 36.0853 34.5998 36.2195C33.2056 35.9356 31.8011 36.2917 30.4171 36.0956C30.0159 36.2711 29.239 36.0543 28.8377 36.1472C28.565 36.1472 28.2666 36.2298 28.0506 36.1627C27.6904 36.2659 27.7882 36.1575 27.9014 35.8995C28.0197 35.8376 28.2924 35.0634 28.4416 35.048C28.6268 34.7435 28.7039 34.4286 28.8686 34.1654C29.2338 33.1642 29.63 33.5513 30.4274 33.4016C31.2815 33.3758 32.1664 33.4223 32.9484 33.3191C33.1593 33.2675 33.6069 33.4842 33.8847 33.2571C35.1194 33.3552 36.205 33.3655 37.2854 33.3087C38.2989 33.3449 39.4719 33.1694 40.506 33.252C41.6584 33.2158 41.8333 32.803 41.8488 34.1809H41.8436ZM33.1953 29.9387C33.2365 26.5686 33.3548 23.1315 33.3857 19.6634C33.4937 19.1525 33.0718 18.5899 33.823 18.7035C34.2191 18.7551 35.0577 18.657 35.1246 18.9151C35.0268 20.324 35.0423 21.929 35.0011 23.1986C34.9394 25.9132 34.7387 29.1594 34.785 31.7502C34.8365 32.9114 33.9361 32.4778 33.1439 32.5501C33.2005 31.6573 33.1696 30.7747 33.1902 29.9438L33.1953 29.9387ZM35.5002 31.0173C35.5362 28.3595 35.6699 25.3403 35.7317 22.6722C35.6442 21.8155 35.8191 20.6594 35.7728 19.7614C35.495 18.2287 36.8429 18.8944 37.7896 18.7757C38.0159 18.7706 39.3536 18.5796 39.014 18.9925C38.9729 20.2053 38.9471 21.2323 39.0294 22.4296C38.8134 25.4797 38.8854 28.3079 38.8185 31.3012C38.6642 32.7204 39.3227 32.4882 37.0642 32.4262C35.4847 32.5346 35.3304 32.8546 35.495 31.0225L35.5002 31.0173ZM39.5336 32.003C39.6262 28.9736 39.6211 25.8461 39.7497 23.1934C39.616 22.249 39.8166 21.4181 39.7549 20.5356C39.7086 20.0504 39.9349 19.266 39.7086 18.8273C39.7651 18.7189 40.1716 18.786 40.2333 18.7344C40.7427 18.8222 41.0616 18.786 41.4886 18.7602C41.4732 19.5808 41.3857 20.453 41.4629 21.1755C41.3034 22.8993 41.4012 24.5301 41.2314 26.3003C41.2417 27.5595 41.2828 29.2162 41.1182 30.5786C41.0822 31.0121 41.3703 32.2404 40.8661 32.5294C40.187 32.3127 39.3484 32.9939 39.5336 32.003ZM42.3118 16.7578C42.1883 17.0365 42.4404 18.0171 41.9259 17.9603C41.2777 17.9345 40.5111 18.0377 39.9349 17.9448C38.5561 18.0119 37.2802 17.9913 35.958 17.9758C33.7664 17.9861 31.7136 18.0377 29.5477 17.9758C28.5599 17.8932 27.5155 18.0842 26.4351 17.9964C26.2293 17.888 24.8402 17.8674 24.6036 18.0067C23.7135 17.9448 22.9624 17.9551 22.0106 18.0016C21.9129 17.9345 21.1566 18.0893 20.6936 18.0016C20.3283 17.9758 18.9495 17.7797 18.7488 18.0635C17.5656 18.208 18.2241 17.0417 18.1469 16.4894C18.1675 16.1024 18.8775 16.5359 19.0987 16.3449C19.7572 16.1901 20.3643 16.3295 21.0383 16.3346C21.9797 16.2675 23.091 16.3604 23.9193 16.3553C24.5367 16.283 25.1386 16.3295 25.6994 16.3914C26.5792 16.3965 27.5309 16.2366 28.4467 16.3811C29.4859 16.474 30.5612 16.1901 31.7393 16.3914C32.2744 16.2108 33.0718 16.4172 33.7201 16.3862C34.4095 16.2882 35.032 16.3965 35.8706 16.4069C36.3696 16.2985 37.0436 16.3759 37.4397 16.443C38.3092 16.3449 39.1786 16.3965 39.9298 16.3914C40.5317 16.6288 42.4713 15.9424 42.3221 16.7475L42.3118 16.7578ZM17.509 30.1348C17.581 30.3464 17.5861 30.6354 17.8434 30.8006C17.6685 31.0741 18.3218 31.2186 18.3887 31.1463C19.0472 31.4508 20.1585 30.6457 20.035 30.0213C20.0865 29.3607 19.4794 28.8033 18.8003 28.731C18.2035 28.9684 17.2311 29.2678 17.509 30.1296V30.1348ZM18.2241 29.8871C18.2755 29.1542 19.6183 29.3297 19.2376 30.1761C18.8466 30.6973 18.1469 30.5683 18.2241 29.8871ZM10.9648 30.3774C11.0163 30.8367 11.2478 31.8121 12.0041 31.7243C12.6935 31.9256 13.8099 31.0741 13.5887 30.3516C13.5218 29.9697 13.3829 29.5155 12.9198 29.4226C12.5854 29.1078 12.1173 29.2471 11.7108 29.2729C11.3198 29.1542 11.4073 29.5877 11.2324 29.7374C11.1501 29.9232 10.8054 30.1864 10.9648 30.3825V30.3774ZM11.7057 30.078C12.3591 29.6445 12.8478 29.9851 12.8993 30.687C12.3642 31.5798 11.4742 30.6767 11.7057 30.078ZM23.41 30.9554C23.6518 31.7502 24.6293 32.163 25.3033 31.616C25.6377 31.874 25.8126 31.265 25.8023 31.0638C26.1933 30.9244 25.7406 30.5425 25.9206 30.2793C25.7869 29.5207 24.8402 29.3968 24.2743 29.6858C23.6312 29.6961 23.4048 30.5786 23.41 30.9554ZM24.2023 30.5528C24.8762 29.7323 25.5245 30.5477 24.9534 31.1773C24.3875 31.2134 24.1868 31.3941 24.2023 30.5528Z" fill="#222222"/>
</svg>
