<svg xmlns="http://www.w3.org/2000/svg" fill="none" viewBox="0 0 48 49"><path fill="currentColor" fill-rule="evenodd" d="m16.12 33.634.72 2.34c.02.063.177.578.153 1.097-.018.397-.145.788-.442 1.049-.202.177-.486.303-.89.312-1.447.033-8.876-.097-8.876-.097a.395.395 0 0 1-.114-.02s-.71-.231-1.19-.733c-.364-.38-.603-.898-.415-1.566.166-.588.568-1.704.953-2.736l-.003-.007-.746-2.045a.394.394 0 0 1-.02-.079s-.088-.603.275-1.117c.23-.327.64-.637 1.4-.695.607-.046 2.094-.034 3.65-.003l-.902-1.051a.446.446 0 0 1-.01-.013s-.188-.239-.245-.532a.84.84 0 0 1 .197-.754c.126-.14.227-.268.329-.362.255-.237.316-.445.796-.313.072.02.648.212.727.395.033.078.087.26.12.354.126-.15.114-.112.275-.214.274-.173.558-.197.802-.045.16.1.322.12.422.205.115.097.17.26.218.4.06.173.072.414-.052.793-.123.377-.439.837-.708 1.184 1.526.041 2.749.085 2.749.085a.387.387 0 0 1 .105.018s1.811.58 1.452 2.415a.39.39 0 0 1-.024.078l-.681 1.607a.392.392 0 0 1-.026.05Zm-9.674-1.485c.26-.681.45-1.167.45-1.167a.394.394 0 0 1 .38-.25l7.757.275a.394.394 0 0 1 .363.278l.365 1.185.322-.761c.17-.985-.672-1.376-.88-1.457-.678-.024-6.816-.235-8.219-.129-.434.033-.683.177-.815.363a.847.847 0 0 0-.141.52l.418 1.143Zm5.424-4.226c-.034.055.061.679.007 1.044.233-.29.519-.687.625-1.014.031-.096.05-.174.057-.239a.415.415 0 0 0 0-.045c-.014-.012-.068-.081-.103-.103-.048-.03-.295.042-.348.097-.166.175-.238.26-.238.26Zm-.766.77c-.082-.335-.185-.968-.279-1.268-.076-.242-.365-.207-.395-.174-.07.075-.143.165-.23.26-.033.038-.008.084.004.12a.608.608 0 0 0 .076.148l.824.915Zm-4.24 8.854c.729.013 7.416.128 8.779.097.173-.004.301-.041.388-.117.136-.12.166-.31.174-.493.02-.411-.116-.82-.116-.82l-.003-.007-1.361-4.421-7.196-.256c-.336.864-1.406 3.645-1.704 4.7-.126.446.133.757.402.965.252.196.526.31.636.352ZM26.01 16.088l-7.93.03-.171 3.346c.01.185.013.976-.54 1.51-.267.258-.662.465-1.257.501-1.592.096-8.307-.094-8.307-.094a.398.398 0 0 1-.04-.003s-.494-.052-.894-.528c-.235-.279-.448-.715-.463-1.408-.032-1.431.063-5.09.063-5.09a.394.394 0 0 1 .398-.383l20.569.19a.394.394 0 0 1 .242.702L26.254 16a.395.395 0 0 1-.245.087Zm-.141-.788.453-.363-19.072-.176c-.023.974-.079 3.527-.054 4.664.01.448.127.737.279.918.156.185.336.239.382.25.478.014 6.69.186 8.207.095.356-.021.598-.127.757-.281.364-.352.3-.9.3-.9a.386.386 0 0 1 0-.062l.19-3.74a.394.394 0 0 1 .392-.374l8.166-.031ZM14.057 13.645a.395.395 0 0 1-.437-.656s.552-.403.43-1.332c-.194-1.474.698-2.082.698-2.082a.394.394 0 0 1 .463.638s-.502.406-.38 1.341c.196 1.48-.774 2.091-.774 2.091ZM12.282 13.645a.395.395 0 0 1-.437-.656s.552-.403.43-1.332c-.194-1.474.697-2.082.697-2.082a.394.394 0 0 1 .464.638s-.503.406-.38 1.341c.195 1.48-.774 2.091-.774 2.091ZM10.635 13.645a.395.395 0 0 1-.438-.656s.552-.403.43-1.332c-.194-1.474.698-2.082.698-2.082a.395.395 0 0 1 .464.638s-.503.406-.38 1.341c.195 1.48-.774 2.091-.774 2.091Z" clip-rule="evenodd"/><path fill="currentColor" fill-rule="evenodd" d="M23.298 17.486a2.535 2.535 0 0 1 0 5.067 2.535 2.535 0 0 1 0-5.067Zm0 .789a1.746 1.746 0 1 0 .002 3.491 1.746 1.746 0 0 0-.002-3.491ZM25.69 38.78l-5.199-.032a.394.394 0 0 1-.391-.399l.158-12.613v-.006s.071-2.86 2.966-2.824c2.88.036 2.925 3.052 2.925 3.052v.006l-.063 12.424a.395.395 0 0 1-.397.392Zm-2.16-.802 1.77.01.038-7.62-4.348-.104-.097 7.698 1.849.011.147-6.347a.395.395 0 0 1 .788.018l-.146 6.334Zm1.812-8.398.018-3.62c-.003-.134-.085-2.24-2.145-2.265-2.077-.027-2.166 1.987-2.168 2.054L21 29.475l4.342.105ZM37.322 18.022a.394.394 0 0 1 0-.79h2.092a.395.395 0 0 1 0 .79h-2.092ZM29.322 34.791a2.518 2.518 0 0 1-.041-.064c-.283-.453-.435-.986-.252-1.484.28-.77.95-1.293 1.788-1.575 1.166-.392 2.654-.308 3.685.145 1.327.584 2.386.989 2.683 1.1l4.22-.403a.392.392 0 0 1 .06 0c.558.033.955.281 1.19.599a1.285 1.285 0 0 1-.11 1.689c-.212.212-.58.347-1.003.398-.743.09-1.663-.043-1.795-.063l-3.18-.268-.03.033-.089 2.236a.395.395 0 0 1-.788-.032l.056-1.387c-.17.08-.34.152-.508.215l-.027 1.575a.394.394 0 0 1-.789-.014l.023-1.322c-.17.038-.337.07-.502.093v1.553a.395.395 0 0 1-.788 0V36.33c-.181.004-.356.001-.525-.008l.045 1.386a.395.395 0 0 1-.788.026l-.05-1.498a7.274 7.274 0 0 1-.508-.103l.047 1.48a.395.395 0 0 1-.788.026l-.056-1.75c-.147-.055-.226-.093-.226-.093a.399.399 0 0 1-.075-.047l-.034-.027.07 1.152a.395.395 0 0 1-.788.047l-.127-2.124v-.005Zm4.313.714a5.518 5.518 0 0 0 1.764-.513l.71-.798a.395.395 0 0 1 .327-.131l3.391.285a7.464 7.464 0 0 0 1.321.088c.196-.007.39-.027.557-.07.115-.028.218-.061.282-.126.322-.322.074-.888-.54-.941l-4.278.408a.395.395 0 0 1-.173-.022s-1.215-.447-2.812-1.15c-.871-.383-2.13-.451-3.115-.12-.598.202-1.1.55-1.3 1.099-.098.27.028.55.181.796.242.388.593.697.704.79.137.06.62.253 1.307.364a6.004 6.004 0 0 0 1.674.04ZM37.458 19.988a4.106 4.106 0 0 1 2.52 3.786 4.104 4.104 0 0 1-4.102 4.102 4.104 4.104 0 0 1-4.103-4.102 4.104 4.104 0 0 1 5.683-3.787h.002Zm-.548.637a3.315 3.315 0 0 0-4.347 3.149 3.315 3.315 0 0 0 4.328 3.155l.003-.995a2.463 2.463 0 1 1-1.137-4.647c.415 0 .806.104 1.15.286l.003-.948Zm.77 5.927a3.312 3.312 0 0 0 .017-5.546l-.016 5.546ZM31.172 16.977l.68.002v.753l-.68-.03v-.725ZM32.844 17.096l.69.002v.634l-.69-.025v-.61Z" clip-rule="evenodd"/><path fill="currentColor" fill-rule="evenodd" d="m30.27 15.473 11.57.227a.394.394 0 0 1 .387.404l-.318 13.135a.394.394 0 0 1-.4.385l-11.457-.181a.394.394 0 0 1-.388-.4l.204-13.181a.394.394 0 0 1 .402-.389Zm4.09.87-3.71-.073-.03 2.045 3.74.063v-2.035Zm7.02 2.152.049-2.014-6.28-.123v2.033l6.231.104Zm-10.773.609-.148 9.556 10.671.17.231-9.547-10.754-.18Z" clip-rule="evenodd"/></svg>