<svg xmlns="http://www.w3.org/2000/svg" fill="none" viewBox="0 0 48 49"><path fill="currentColor" fill-rule="evenodd" d="M9.727 29.85a.395.395 0 0 1 .016-.789l12.86.264a.395.395 0 0 1-.017.788L9.728 29.85ZM22.498 31.9a.395.395 0 0 1-.01.79l-12.454-.163a.395.395 0 0 1 .01-.788l12.454.162ZM9.927 35.042a.394.394 0 0 1 .023-.788l12.636.365a.395.395 0 0 1-.023.788l-12.636-.365ZM32.17 11.34c-.548.118-2.06.39-3.243.098-1.56-.384-2.37-2.062-2.37-2.062a.395.395 0 0 1 .252-.55s1.663-.452 3.16-.075c1.467.37 2.543 1.806 2.63 1.923.158.087.543.312 1.28.817a3.556 3.556 0 0 1-.204-.473c-.517-1.494-.06-2.735-.06-2.735a.394.394 0 0 1 .584-.197s1.398.91 1.907 2.178c.512 1.275.109 2.833.109 2.833a.393.393 0 0 1-.105.18c.786.89 1.465 2.092 1.97 3.43.007-.327.029-.701.072-1.123.199-1.954 1.517-2.727 1.517-2.727a.394.394 0 0 1 .534.12s.987 1.48.401 3.455c-.588 1.984-1.767 2.555-1.767 2.555a.393.393 0 0 1-.092.034 13.887 13.887 0 0 1 .277 2.981c.06-.098.123-.193.19-.284.76-1.052 2.3-1.73 2.3-1.73a.394.394 0 0 1 .55.408s-.225 1.837-1.051 3.07c-.858 1.282-2.424 1.719-2.424 1.719a.41.41 0 0 1-.021.005 11.856 11.856 0 0 1-1.326 3.045c.186-.08.38-.156.58-.229.973-.351 2.086-.578 3.091-.39a.394.394 0 0 1 .26.6s-2.005 3.129-5.86 2.403a8.061 8.061 0 0 1-1.696 1.156c2.086.184 3.545.977 3.545.977a.394.394 0 0 1-.024.705c-4.07 1.86-6.305.09-6.867-.462-1.46.364-2.584.47-2.584.47a.395.395 0 0 1-.072-.785s.966-.085 2.25-.383c-1.077-2.752.946-5.253.946-5.253a.394.394 0 0 1 .625.016c.66.908.78 1.974.674 2.93a7.327 7.327 0 0 1-.45 1.788c1.071-.379 2.163-.907 3.005-1.637-.581-.823-1.91-3.166-.586-5.903a.394.394 0 0 1 .65-.089s1.572 1.775 1.386 4.355a11.096 11.096 0 0 0 1.784-3.88.393.393 0 0 1-.165-.014s-.835-.23-1.946-1.742c-1.138-1.549-.792-2.812-.792-2.812a.395.395 0 0 1 .523-.272s1.378.531 2.175 1.474c.254.3.422.676.532 1.053.016-.387.015-.776-.003-1.167a13.444 13.444 0 0 0-.275-2.11 6.855 6.855 0 0 1-3.197-.459c-1.76-.722-2.192-2.293-2.192-2.293a.394.394 0 0 1 .265-.485s1.508-.47 3.288.465c.565.296.985.596 1.297.869-.5-1.384-1.197-2.62-2.017-3.48a.39.39 0 0 1-.126.127s-1.125.713-2.893.879c-1.886.176-2.88-1.008-2.88-1.008a.394.394 0 0 1 .074-.581s1.273-.881 2.747-1.004c.405-.034.794.011 1.147.095-.965-.663-1.288-.819-1.288-.819Zm3.82 18.578c2.043.18 3.413-.894 4.069-1.582-.666.012-1.35.188-1.971.412-.753.272-1.413.62-1.839.868-.084.102-.17.202-.26.302Zm-4.776 2.816c1.414.8 2.996.894 4.73.353-.918-.33-2.498-.733-4.311-.486-.14.047-.28.091-.419.133Zm-.556-.64a6.77 6.77 0 0 0 .667-2.191c.067-.603.034-1.262-.236-1.872-.463.776-1.17 2.372-.455 4.069l.024-.007Zm4.896-19.781c.053-.47.063-1.152-.18-1.755-.249-.62-.755-1.133-1.133-1.453-.047.407-.047 1 .179 1.655.246.71.754 1.237 1.134 1.553Zm3.358 5.61c.296-.31.68-.85.936-1.715a3.641 3.641 0 0 0-.104-2.387c-.301.317-.713.91-.808 1.843-.115 1.132-.066 1.892-.023 2.26Zm-3.76 11.537c.324-1.78.202-3.25-.626-4.233-.611 1.884.144 3.476.626 4.233Zm2.246-11.183c-.189-.27-.65-.79-1.655-1.317a4.107 4.107 0 0 0-2.242-.48 3.103 3.103 0 0 0 1.548 1.366c.928.38 1.82.44 2.349.431Zm-3.045-4.923c-.391-.227-1.14-.574-1.976-.504-.766.064-1.469.366-1.905.596.363.235.978.505 1.825.425a6.876 6.876 0 0 0 2.056-.517Zm-2.795-2.695c-.385-.406-1.018-.95-1.782-1.143-.823-.207-1.703-.125-2.242-.036.29.417.82 1.005 1.581 1.192.819.202 1.813.095 2.443-.013Zm6.089 13.015c-.007-.45-.083-1.346-.557-1.907-.389-.46-.942-.803-1.343-1.011.038.394.188.983.674 1.645.52.706.952 1.082 1.226 1.273Zm1.291.528c.431-.208 1.019-.579 1.418-1.175.407-.608.647-1.383.78-1.951-.424.255-.946.635-1.286 1.104-.473.654-.776 1.555-.912 2.022Z" clip-rule="evenodd"/><path fill="currentColor" fill-rule="evenodd" d="m17.683 26.332 5.686.077a2.242 2.242 0 0 1 2.21 2.271l-.093 6.894a2.377 2.377 0 0 1-2.407 2.343l-11.591-.157-2.474 3.233a.394.394 0 0 1-.708-.238l-.016-3.038a2.516 2.516 0 0 1-2.454-2.548l.083-6.107a2.89 2.89 0 0 1 2.928-2.85l4.143.056a11.97 11.97 0 0 1-.355-1.078.331.331 0 0 1-.021-.005s-1.566-.437-2.424-1.719c-.825-1.233-1.05-3.07-1.05-3.07a.394.394 0 0 1 .548-.408s1.54.678 2.302 1.73c.066.09.129.186.189.284a13.68 13.68 0 0 1 .277-2.981.391.391 0 0 1-.092-.034s-1.18-.57-1.767-2.555c-.586-1.975.402-3.455.402-3.455a.394.394 0 0 1 .533-.12s1.319.773 1.518 2.728c.042.42.064.795.072 1.121.504-1.337 1.183-2.539 1.969-3.428a.394.394 0 0 1-.105-.18s-.403-1.56.11-2.834c.508-1.268 1.906-2.178 1.906-2.178a.395.395 0 0 1 .585.197s.457 1.241-.06 2.735a3.555 3.555 0 0 1-.204.473c.736-.505 1.121-.73 1.28-.817.086-.117 1.162-1.553 2.63-1.922 1.496-.378 3.16.074 3.16.074a.394.394 0 0 1 .251.55s-.81 1.678-2.37 2.062c-1.184.292-2.695.02-3.243-.098 0 0-.324.156-1.29.819a3.654 3.654 0 0 1 1.149-.095c1.473.123 2.746 1.004 2.746 1.004a.395.395 0 0 1 .075.58s-.995 1.185-2.88 1.009c-1.769-.166-2.894-.88-2.894-.88a.39.39 0 0 1-.126-.126c-.82.86-1.517 2.096-2.017 3.48a6.697 6.697 0 0 1 1.297-.87c1.78-.935 3.288-.463 3.288-.463a.394.394 0 0 1 .265.484s-.433 1.57-2.192 2.293a6.855 6.855 0 0 1-3.197.458c-.147.7-.241 1.413-.275 2.11-.018.392-.02.781-.002 1.168.11-.377.277-.753.53-1.053.798-.943 2.176-1.474 2.176-1.474a.395.395 0 0 1 .523.272s.346 1.263-.792 2.812c-1.111 1.513-1.945 1.742-1.945 1.742a.394.394 0 0 1-.166.015c.138.564.318 1.117.541 1.655l1.497.02c.408-1.332 1.132-2.15 1.132-2.15a.394.394 0 0 1 .65.088c.355.734.52 1.439.559 2.094Zm-1.593-.022.801.011a4.642 4.642 0 0 0-.216-1.094 3.12 3.12 0 0 0-.585 1.083Zm-4.988 10.656 11.987.163a1.588 1.588 0 0 0 1.609-1.566l.093-6.894a1.453 1.453 0 0 0-1.432-1.471L8.837 27a2.102 2.102 0 0 0-2.13 2.072l-.082 6.107a1.727 1.727 0 0 0 1.702 1.749l.748.01.014 2.658 2.013-2.63Zm5.746-23.612c.44.19 1.153.433 2.056.517.847.08 1.462-.19 1.825-.425-.436-.23-1.139-.532-1.905-.596-.836-.07-1.585.277-1.976.504Zm-1.2-1.041c.38-.316.887-.843 1.133-1.553a3.743 3.743 0 0 0 .178-1.655c-.377.32-.883.834-1.132 1.453-.242.604-.232 1.284-.18 1.755Zm-3.36 5.61c.043-.367.092-1.127-.023-2.259-.095-.933-.506-1.526-.808-1.843a3.642 3.642 0 0 0-.104 2.387c.257.866.64 1.404.936 1.716Zm7.355-7.264c.63.108 1.624.215 2.443.013.762-.188 1.29-.775 1.581-1.192-.539-.09-1.42-.171-2.242.036-.764.193-1.397.737-1.782 1.143Zm-6.088 13.015c.273-.191.706-.567 1.225-1.273.486-.662.637-1.251.674-1.645-.4.208-.954.551-1.343 1.011-.474.56-.55 1.457-.556 1.907Zm.248-5.397c.528.008 1.421-.05 2.35-.431A3.103 3.103 0 0 0 17.7 16.48a4.107 4.107 0 0 0-2.243.48c-1.005.528-1.466 1.048-1.655 1.317Zm-1.54 5.925c-.136-.467-.44-1.368-.912-2.022-.34-.47-.862-.849-1.285-1.104.132.568.372 1.343.78 1.951.398.596.986.967 1.417 1.175Z" clip-rule="evenodd"/></svg>