<svg xmlns="http://www.w3.org/2000/svg" fill="none" viewBox="0 0 48 49"><g clip-path="url(#a)"><path fill="currentColor" d="M26.663 38.476c-2.393 0-4.34-1.956-4.34-4.357 0-2.402 1.955-4.341 4.357-4.341a.45.45 0 0 1 .454.462c-.008.26-.203.463-.463.455a3.432 3.432 0 0 0-3.432 3.424 3.431 3.431 0 0 0 3.424 3.432.45.45 0 0 1 .455.462c-.008.26-.203.463-.463.455l.008.008Zm14.524-.438a.45.45 0 0 1-.463.454l-14.06-.016-14.84-.025c-2.394 0-4.341-1.955-4.341-4.357 0-2.401 1.955-4.34 4.357-4.34l14.052.016h.788l14.06.024a.45.45 0 0 1 .455.463c-.008.26-.203.462-.463.454a3.432 3.432 0 0 0-3.432 3.424 3.431 3.431 0 0 0 3.424 3.432.45.45 0 0 1 .455.462l.008.008Zm-17.193-.487a4.33 4.33 0 0 1-1.671-3.432c0-1.396.657-2.63 1.679-3.424l-12.17-.017A3.432 3.432 0 0 0 8.4 34.102a3.432 3.432 0 0 0 3.423 3.433l12.17.016Zm14.06.016a4.33 4.33 0 0 1-1.67-3.432c0-1.396.657-2.629 1.679-3.424l-11.392-.016a3.432 3.432 0 0 0-3.432 3.424 3.431 3.431 0 0 0 3.424 3.432l11.392.016Zm1.023-22.02a.45.45 0 0 1-.462.454l-10.743-.016-12.673-.016a2.75 2.75 0 0 1-2.743-2.743c0-1.509 1.25-2.726 2.759-2.726l12.673.016 10.743.017a.45.45 0 0 1 .454.462c-.008.26-.203.462-.462.454-1.006 0-1.826.82-1.826 1.826 0 1.006.82 1.825 1.826 1.825a.45.45 0 0 1 .454.463v-.016Zm-13.25-.479s-.024-.032-.032-.04c-.024-.025-.049-.057-.073-.09l-.09-.114c-.024-.032-.04-.064-.064-.097l-.073-.122c-.016-.032-.04-.064-.057-.097-.024-.04-.04-.09-.065-.13-.016-.032-.032-.065-.049-.105l-.048-.138c-.008-.033-.024-.073-.033-.106-.016-.048-.024-.097-.04-.154-.008-.032-.016-.065-.024-.105l-.025-.17c0-.033-.008-.057-.016-.09a2.967 2.967 0 0 1-.016-.268c0-.089 0-.178.016-.267 0-.033.008-.057.016-.09 0-.056.016-.113.024-.17 0-.032.017-.065.025-.105.016-.05.024-.098.04-.155.009-.032.025-.073.033-.105.016-.049.032-.09.049-.138.016-.032.032-.073.048-.105.017-.041.04-.09.065-.13.016-.033.04-.065.057-.098l.073-.121c.024-.033.04-.065.065-.098.024-.04.057-.073.09-.113.024-.033.048-.057.072-.09.016-.016.024-.032.033-.04L15.207 11.4c-1.006 0-1.826.82-1.826 1.825 0 1.006.82 1.826 1.826 1.826l10.62.016Zm10.053-1.81c0-.697.268-1.338.698-1.825l-8.698-.016c-1.006 0-1.825.82-1.825 1.825 0 1.006.82 1.826 1.825 1.826l8.698.016a2.758 2.758 0 0 1-.698-1.825Zm8.04 16.901a.45.45 0 0 1-.462.455l-15.61-.025-17.371-.024C7.458 30.573 5 28.106 5 25.08c0-3.026 2.475-5.493 5.501-5.485l16.608.025h.755l15.61.024a.45.45 0 0 1 .455.463c-.008.26-.203.462-.462.454-2.524 0-4.585 2.044-4.585 4.568 0 2.523 2.045 4.584 4.568 4.584a.45.45 0 0 1 .455.462l.016-.016Zm-19.107-.487a5.505 5.505 0 0 1-2.45-4.584c0-1.915.982-3.594 2.467-4.576L10.5 20.488c-2.523 0-4.584 2.044-4.584 4.568 0 2.523 2.044 4.584 4.568 4.584l14.328.024v.008Zm15.61.025a5.506 5.506 0 0 1-2.45-4.584c0-1.915.982-3.595 2.467-4.576l-12.568-.017c-2.523 0-4.584 2.045-4.584 4.568 0 2.524 2.045 4.584 4.568 4.584l12.568.017v.008Zm3.514-9.712a.45.45 0 0 1-.462.454l-15.725-.024a2.632 2.632 0 0 1-2.62-2.629c0-.65.243-1.25.64-1.704l-14.514-.024c-.942 0-1.704.762-1.712 1.704-.008.94.762 1.703 1.704 1.712h4.494c.252 0 .463.21.455.462a.456.456 0 0 1-.463.454H11.24a2.639 2.639 0 0 1-2.62-2.637 2.626 2.626 0 0 1 2.629-2.62l16.51.024 15.725.024a.45.45 0 0 1 .454.463c-.008.26-.203.463-.462.454-.942 0-1.704.763-1.712 1.704-.008.941.762 1.704 1.704 1.712a.45.45 0 0 1 .454.463l.016.008Zm-3.083-2.166c0-.65.243-1.25.633-1.704l-13.737-.017c-.94 0-1.703.763-1.712 1.704-.008.941.763 1.704 1.704 1.712l13.737.016a2.64 2.64 0 0 1-.633-1.703l.008-.009Zm-5.517 16.316a.46.46 0 0 0-.455-.463l-8.99-.016a.46.46 0 0 0-.462.455.46.46 0 0 0 .454.462l8.99.016a.46.46 0 0 0 .463-.454Zm3.132-16.325a.46.46 0 0 0-.455-.462l-10.142-.016a.46.46 0 0 0-.462.454.46.46 0 0 0 .454.462l10.142.017a.46.46 0 0 0 .463-.455Zm-2.086 5.607a.46.46 0 0 0-.454-.463l-10.028-.016a.46.46 0 0 0-.463.454.46.46 0 0 0 .454.463l10.029.016a.46.46 0 0 0 .462-.454Zm0 3.416a.46.46 0 0 0-.454-.463l-10.028-.016a.46.46 0 0 0-.463.454.46.46 0 0 0 .454.463l10.029.016a.46.46 0 0 0 .462-.454Zm-2.142-13.574a.46.46 0 0 0-.454-.463h-5.355a.455.455 0 0 0-.462.455c0 .26.202.462.454.462h5.355a.455.455 0 0 0 .462-.454Z"/></g><defs><clipPath id="a"><path fill="#fff" d="M5 10.5h38.945v28H5z"/></clipPath></defs></svg>