<svg xmlns="http://www.w3.org/2000/svg" fill="none" viewBox="0 0 48 49"><path fill="currentColor" fill-rule="evenodd" d="M36.577 30.338a.395.395 0 0 1-.01.788l-2.972-.04a.395.395 0 0 1 .01-.788l2.972.04Z" clip-rule="evenodd"/><path fill="currentColor" fill-rule="evenodd" d="m7.51 34.777.225-21.838.001-.018s.202-3.195 3.059-3.104c2.764.088 2.727 2.895 2.719 3.133l.01 2.929 2.099.007a1.816 1.816 0 0 1 3.455-.36 1.816 1.816 0 0 1 3.157-.344 1.813 1.813 0 0 1 3.271.737l10.83.037.04-3.877c-.004-.127-.005-.979.57-1.67.403-.484 1.088-.909 2.28-.909.91 0 1.494.285 1.875.661.8.79.688 2.053.659 2.294v22.57c.556.143.91.554 1.125.974.242.472.298.944.298.944a.403.403 0 0 1 .003.048v1.466a.395.395 0 0 1-.395.394l-37.397-.04A.394.394 0 0 1 5 38.418v-1.703l.001-.027c.044-.63.265-1.048.538-1.332.585-.606 1.452-.589 1.61-.58l.36.002Zm.04.789-.415-.003c-.012 0-.024 0-.036-.002 0 0-.601-.063-.992.342-.169.175-.289.44-.318.825v1.295l36.608.04v-1.044a2.326 2.326 0 0 0-.214-.66c-.108-.21-.27-.428-.522-.533a.865.865 0 0 0-.336-.065h-.303l-4.187-.023-.609-.003c-6.056-.034-16.124-.094-22.685-.133l-.688-.004-4.61-.028-.694-.004Zm6.04-.753c6.53.04 16.503.098 22.553.133l.038-3.743-2.446-.016a1.816 1.816 0 0 1-3.446.019 1.816 1.816 0 0 1-3.477-.066l-4.615-.032a1.816 1.816 0 0 1-3.416.24 1.816 1.816 0 0 1-3.527-.287l-1.676-.01.013 3.762Zm-.788-.005-.014-4.021a.395.395 0 0 1-.001-.265l-.062-17.576v-.025s.148-2.249-1.955-2.316c-2.055-.065-2.235 2.18-2.246 2.351l-.226 21.826 4.504.027Zm5.424-11.823a1.026 1.026 0 1 0-2.049.124 1.026 1.026 0 0 0 2.049-.124Zm3.5-7.078a1.027 1.027 0 1 0-1.89.782 1.026 1.026 0 0 0 1.89-.782Zm-.302 14.407a1.026 1.026 0 1 0-1.954.629 1.026 1.026 0 0 0 1.954-.629Zm-3.049-14.419a1.026 1.026 0 1 0-1.942.665 1.026 1.026 0 0 0 1.942-.665Zm8.166 7.245a1.027 1.027 0 1 0-1.883.754 1.025 1.025 0 0 0 1.883-.754Zm-8.604 7.15a1.025 1.025 0 1 0-1.774 1.03 1.025 1.025 0 0 0 1.774-1.03Zm23.034 4.681V12.43c0-.023.002-.045.005-.067 0 0 .192-1.027-.43-1.64-.266-.263-.684-.434-1.32-.434-.868 0-1.38.272-1.674.625-.42.506-.388 1.138-.388 1.138v.025l-.043 4.224a.378.378 0 0 1 0 .11l-.19 18.54c1.94.01 3.383.018 4.04.02ZM24.696 15.918a1.026 1.026 0 1 0-1.957.622 1.026 1.026 0 0 0 1.956-.622Zm11.493 14.498.064-6.306-2.75-.051a1.816 1.816 0 0 1-3.332.026 1.815 1.815 0 0 1-3.077.234 1.814 1.814 0 0 1-3.295-.44l-4.94-.092a1.816 1.816 0 0 1-3.34-.062l-1.967-.037.023 6.574 1.74.012a1.816 1.816 0 0 1 3.4-.187 1.816 1.816 0 0 1 3.52.234l4.536.03a1.816 1.816 0 0 1 3.51-.275 1.816 1.816 0 0 1 3.527.323l2.381.017Zm-6.643-.046a1.026 1.026 0 1 0-1.972.57 1.026 1.026 0 0 0 1.972-.57Zm-16.02-13.701.023 6.23 1.842.035a1.815 1.815 0 0 1 3.624.067l4.737.088a1.816 1.816 0 0 1 3.258-.78 1.814 1.814 0 0 1 3.21.208 1.815 1.815 0 0 1 3.424.755l2.617.049.067-6.575-10.86-.037a1.816 1.816 0 0 1-3.233.563 1.813 1.813 0 0 1-3.157-.343 1.816 1.816 0 0 1-3.432-.253l-2.12-.007Zm16.058 6.528a1.026 1.026 0 1 0-2.049.108 1.026 1.026 0 0 0 2.05-.108Zm3.268.06a1.026 1.026 0 1 0-2.043.19 1.026 1.026 0 0 0 2.043-.19Zm.155 7.137a1.027 1.027 0 1 0-1.87.776 1.025 1.025 0 0 0 1.87-.776Z" clip-rule="evenodd"/></svg>