<svg width="48" height="48" viewBox="0 0 48 48" fill="none" xmlns="http://www.w3.org/2000/svg">
<path fill-rule="evenodd" clip-rule="evenodd" d="M20.8885 30.7856C20.8919 30.9066 20.8862 31.0302 20.8711 31.1554C20.7743 31.9582 20.2863 32.838 19.4658 33.5028C18.6452 34.1675 17.6833 34.4622 16.8779 34.3902C16.287 34.3374 15.7751 34.0916 15.4284 33.6635C15.0817 33.2356 14.9474 32.6838 15.0184 32.0949C15.1152 31.2921 15.6032 30.4123 16.4237 29.7475C17.2443 29.0827 18.2062 28.7881 19.0116 28.8601C19.4417 28.8985 19.8299 29.0391 20.143 29.2779L20.1079 19.2686C20.1074 19.1059 20.2068 18.9597 20.3581 18.9002L32.7578 14.0275C32.8811 13.9789 33.0206 13.9957 33.129 14.0721C33.2374 14.1484 33.3003 14.2741 33.2961 14.4066L32.9396 25.9743C32.938 26.0244 32.9272 26.0721 32.9087 26.1157C32.959 26.3369 32.9756 26.5687 32.9588 26.8051C32.9033 27.5798 32.4793 28.4115 31.7291 29.0193C30.9789 29.6269 30.0774 29.8691 29.3081 29.7624C28.7437 29.6842 28.2454 29.4222 27.8961 28.991C27.5468 28.5597 27.3939 28.018 27.4345 27.4497C27.4899 26.6749 27.9138 25.8433 28.6641 25.2355C29.4143 24.6278 30.3158 24.3857 31.0852 24.4924C31.4967 24.5494 31.873 24.7041 32.1821 24.9509L32.3944 18.0607L20.9082 22.5393L20.9363 30.5958C20.9366 30.6646 20.9192 30.7292 20.8885 30.7856ZM32.4207 17.2054L32.4894 14.9804L20.8977 19.5355L20.9052 21.6953L32.4207 17.2054Z" fill="#222222"/>
</svg>
