<svg xmlns="http://www.w3.org/2000/svg" fill="none" viewBox="0 0 48 49"><path fill="currentColor" fill-rule="evenodd" d="M15.289 22.188a.395.395 0 0 1 .785-.077l.063.643a.395.395 0 0 1-.785.077l-.063-.643ZM25.045 15.093a.545.545 0 0 0-.201-.463c-.1-.075-.244-.12-.44-.126-.664-.02-.793.664-.793.664a.395.395 0 0 1-.773-.153s.272-1.341 1.591-1.299c.543.017.876.224 1.084.467.327.38.34.885.304 1.084-.01.062-.106.267-.28.539-.323.5-.92 1.347-1.336 1.93l1.698-.022a.395.395 0 0 1 .01.789l-2.479.032a.394.394 0 0 1-.325-.626s1.248-1.723 1.768-2.53c.072-.112.146-.24.172-.286ZM22.765 20.16a.395.395 0 0 1-.03-.79l2.543-.094a.394.394 0 0 1 .368.568l-1.709 3.471a.395.395 0 0 1-.708-.348l1.418-2.878-1.882.07ZM26.6 22.75c.522-.038 1.208.062 1.619.18.269.078.433.207.541.351.111.148.164.32.18.508.014.16-.004.334-.004.502 0 .373-.273 1.086-.967 1.352-.279.107-.628.146-1.058.044-.562-.132-.916-.35-1.136-.638-.312-.411-.361-1.011-.218-1.887.1-.606.483-1.042.92-1.338.597-.404 1.283-.537 1.283-.537a.395.395 0 0 1 .15.775s-.53.103-.99.415a1.694 1.694 0 0 0-.32.274Zm-.314.889c-.02.184-.028.35-.018.498.012.175.048.32.136.435.13.17.355.27.688.348.745.175 1.056-.37 1.056-.63 0-.116.01-.237.01-.353 0-.067.01-.135-.03-.185-.026-.03-.07-.047-.128-.063a4.542 4.542 0 0 0-1.183-.158c-.201.002-.383.007-.483.079a.422.422 0 0 1-.047.029ZM31.499 20.105a.395.395 0 0 1 .078-.785c.103.01 1.918-.065 1.918-.065a.395.395 0 0 1 .3.668l-.965 1.002c.192.097.4.226.573.392.364.346.593.83.363 1.472-.542 1.516-2.24 1.268-2.865.391a.395.395 0 0 1 .641-.458c.324.453 1.201.584 1.481-.2.13-.364-.094-.604-.326-.764-.307-.212-.657-.303-.657-.303a.394.394 0 0 1-.185-.655l.695-.722c-.492.017-.997.032-1.051.027ZM27.852 18.07a1.64 1.64 0 0 1-.675-1.322c0-.908.75-1.65 1.681-1.65.93 0 1.682.742 1.682 1.65 0 .429-.168.821-.444 1.115.41.302.676.782.676 1.322 0 .908-.751 1.65-1.682 1.65-.93 0-1.681-.742-1.681-1.65 0-.43.168-.822.443-1.116Zm1.358-.53a.86.86 0 0 0 .541-.792c0-.478-.403-.861-.893-.861s-.893.383-.893.86c0 .414.301.756.7.841a1.716 1.716 0 0 1 .545-.049Zm-.472.853a.86.86 0 0 0-.54.792c0 .478.402.86.892.86s.893-.382.893-.86a.87.87 0 0 0-.699-.84 1.716 1.716 0 0 1-.546.048Z" clip-rule="evenodd"/><path fill="currentColor" fill-rule="evenodd" d="m20.521 37.637-.19-1.16c-.226-1.341-.093-1.487-.28-1.453-3.095.572-5.393-.786-6.475-2.697-.518-.915-.695-2.073-.71-3.135a13.482 13.482 0 0 1 .205-2.444 3.241 3.241 0 0 1-1.391-.71c-.39-.344-.647-.77-.674-1.183-.06-.93.323-1.677 1.819-2.498 1.184-.65 1.524-1.377 1.896-2.446.415-1.194 1.1-4.095 3.539-6.586a6.644 6.644 0 0 1 1.713-1.234l-1.882.199a.394.394 0 0 1-.055-.787l4.475-.313c.154-.035.308-.068.461-.098l-4.699-.81a.395.395 0 0 1 .145-.775l6.98 1.305c.664-.025 1.175.001 1.421.041.968.157 4.678 1.391 6.012 2.437 1.342 1.053 3.577 3.737 4.051 6.895.475 3.165-.594 5.358-2.256 7.548-.832 1.096-1.603 1.658-2.307 2.14-.636.437-1.215.796-1.717 1.501-.75 1.055-.805 2.73-.786 3.493a.394.394 0 0 1 .197.764l-10.548 3.144a.395.395 0 0 1-.225-.756l1.281-.382Zm8.518-2.539c-.025-.715-.014-2.869.92-4.181.456-.64.96-1.036 1.515-1.42.75-.521 1.6-1.023 2.524-2.24 1.532-2.02 2.542-4.036 2.104-6.955-.44-2.928-2.514-5.415-3.758-6.391-.923-.724-3.062-1.539-4.487-1.976l-2.011-.347c-.872.004-2.206.112-3.552.469-1.275.337-2.566.895-3.47 1.82-2.328 2.376-2.962 5.154-3.358 6.293-.44 1.264-.86 2.109-2.262 2.878-1.09.6-1.455 1.078-1.41 1.757.014.23.189.449.407.64.378.334.915.581 1.322.562a.395.395 0 0 1 .402.484s-.29 1.245-.27 2.69l.006.236c1.497-.102 1.895-1.513 1.895-1.513a.395.395 0 0 1 .76.212s-.536 1.951-2.59 2.088c.083.614.245 1.219.537 1.735 1.136 2.008 3.85 3.37 7.378 1.703a.395.395 0 0 1 .528.52l-1.04 2.304.154.944 7.756-2.312Z" clip-rule="evenodd"/></svg>