<svg xmlns="http://www.w3.org/2000/svg" fill="none" viewBox="0 0 48 49"><path stroke="#222" stroke-width=".778" d="M23.594 20.319c1.098.784 2.857.48 3.604.299a.853.853 0 0 1 .662.103l4.956 3.189c.392.252.476.79.18 1.15l-3.398 4.116a1.09 1.09 0 0 1-1.694-1.373l2.06-2.59a.389.389 0 0 0-.171-.608l-3.2-1.163a.389.389 0 0 0-.501.491l5.456 15.992a.389.389 0 0 1-.368.514h-1.872a.389.389 0 0 1-.338-.197l-5.623-9.933a.389.389 0 0 0-.687.02l-4.853 9.893a.389.389 0 0 1-.35.217h-2.473a.389.389 0 0 1-.37-.509l4.16-12.787a.777.777 0 0 0 .038-.24V13.945c0-.58.323-1.112.837-1.38l5.023-2.618a1.33 1.33 0 0 1 1.332 2.3l-3.702 2.37a.758.758 0 0 0-.353.61c-.068 1.92.204 4.062 1.645 5.09Z"/><ellipse cx="26.22" cy="16.743" stroke="#222" stroke-width=".778" rx="2.296" ry="2.845" transform="rotate(45.04 26.22 16.743)"/><path fill="#222" d="m16.685 33.936 2.31-6.91h7.98l2.31 6.91h-4.2l-2.1-3.862-1.89 3.862h-4.41Z"/><path stroke="#222" stroke-linecap="round" stroke-width=".778" d="m21.361 11.986 1.22 2.236M29.895 25.4l1.625 1.016"/></svg>