<svg viewBox="0 0 48 48" fill="none" xmlns="http://www.w3.org/2000/svg">
<path fill-rule="evenodd" clip-rule="evenodd" d="M25.0646 8.53027L25.1242 9.06675H25.1838L25.2434 9.31512L25.3626 9.37473V9.49395L25.4818 9.55356V9.67277L25.6011 9.73238V9.85408L25.7799 9.9733V10.0925L25.9587 10.1521L26.0183 10.2713H26.1375L26.2568 10.4502H26.376L26.4356 10.5694L26.7336 10.629L26.7932 10.7482H27.0416V10.8078H27.29V10.8476H27.588V10.9072H27.7668V10.9668C27.9159 11.009 27.9879 10.9171 28.0649 10.9072V10.9668C28.2267 10.9397 28.3862 10.8998 28.5418 10.8476V10.788H28.887V10.7283H29.0062V10.6687H29.2546L29.3142 10.5495L29.5626 10.4899V10.3707C29.757 10.3081 29.9249 10.1822 30.0394 10.013L30.1586 9.95343V9.85408L30.4567 9.60571V9.4865L30.5759 9.42689V9.30767L30.6951 9.24806L30.7547 8.99969H30.8143L30.874 8.75132H30.9336V8.57249H30.9932V8.39367H31.0528V7.99379H31.1124V6.92083H31.0528L30.9932 6.50357H30.9336C30.928 6.47987 30.931 6.45497 30.9418 6.4332C30.9527 6.41143 30.9709 6.39415 30.9932 6.38435L30.874 5.84787H30.8143V5.72866L30.6951 5.66905V5.54983L30.5163 5.43061V5.31139H30.4567L30.3772 5.13505L30.258 5.07544V4.95374H30.1984L30.0196 4.70537H29.9003L29.7811 4.52654H29.6619L29.6023 4.40733H29.4235L29.3639 4.28811L29.0062 4.2285V4.17883L28.7578 4.11922V4.05961L27.9233 4V4.05961C27.6451 4.12915 27.5557 3.95281 27.2676 4.05961V4.11922L26.91 4.23844V4.29804C26.6045 4.43713 26.2841 4.48432 26.1947 4.83452L25.9065 4.88668L25.8469 5.06551L25.7203 5.13505V5.25427L25.4719 5.4331L24.9354 6.8041V7.28097H24.8758L24.995 8.52282L25.0646 8.53027ZM25.5414 7.09966H25.6011L25.6582 6.56318H25.7178V6.44396H25.7774V6.26514H25.837V6.14592L25.9562 6.08631V5.96709H26.0158C26.1062 5.8659 26.1679 5.74244 26.1947 5.60944C26.3437 5.56722 26.2915 5.57963 26.3735 5.49022H26.4331V5.38342L26.6815 5.20459V5.13505H26.8007L26.8603 5.01583H26.9795V4.95374L27.2279 4.89413V4.83452H27.3968V4.77491H27.6948C27.8919 4.65741 28.1247 4.61507 28.3505 4.6557V4.71531H28.4697V4.77491C28.6982 4.84694 28.7603 4.66563 29.0062 4.77491V4.83452H29.1254L29.3738 5.13257H29.493L29.6122 5.31139H29.6718L29.7314 5.49022H29.8507L29.9103 5.60944H29.9699V5.72866H30.0295L30.0891 5.97703H30.1288V6.15585H30.1884V6.33468H30.2481V6.4539L30.3673 6.51351V6.76188H30.4269V7.5964H30.3772V8.07327H30.3176V8.19249H30.258V8.44086H30.1984L30.1388 8.68923H30.0792V8.86805H30.0196V8.98727H29.9599V9.10649L29.8407 9.1661V9.28531L29.7215 9.34492V9.46414L29.4235 9.64297L29.2446 9.89134H29.1254V9.95095H29.0062V10.0106H28.887V10.0702L28.5293 10.1894V10.249H28.281V10.3086H28.2214V10.249H28.1618V10.3086C27.7557 10.3896 27.334 10.3264 26.9696 10.1298L26.91 10.0106H26.7907L26.7336 9.85408H26.6144V9.79447H26.4952L26.4356 9.60571L26.0779 9.30767V9.18845L25.9587 9.12884V8.95002H25.9065V8.8308H25.8469V8.71158L25.7277 8.65197V8.47315H25.6582V8.29432H25.5986V7.93418H25.539V7.45731H25.5986C25.6035 7.4126 25.4967 7.25613 25.5414 7.09966ZM38.9534 11.3219C38.8963 10.8575 38.6057 10.9742 38.417 10.6663H38.1189V10.6066H38.0593V10.6663C37.8834 10.7122 37.6987 10.7122 37.5228 10.6663H37.344L36.9863 11.0959V11.2152L36.738 11.394L36.6784 11.5132H36.4995L36.4399 11.6324H36.3381L36.2785 11.7516L35.9208 12.0497V12.1689L35.4365 12.5862V12.7054H35.3769L35.2577 12.8842H35.1385L34.9596 13.1326H34.9V13.2518L34.7808 13.3114V13.4306L34.602 13.5498V13.669L34.1847 13.9671V14.0764L34.0059 14.1956V14.3744L33.8867 14.434V14.4936L33.5886 14.6725L33.529 14.9705L33.1093 15.3182V15.4374L32.9901 15.4971V15.5666L32.8112 15.6262C32.7616 15.6933 32.8112 15.6262 32.7516 15.6858C32.6635 15.5542 32.5393 15.4507 32.394 15.3878V15.2685C32.2325 15.2263 32.2599 15.1866 32.0959 15.1493V15.0301C31.9351 14.9654 31.792 14.8632 31.6787 14.7321V14.6725H31.5595L31.4402 14.4936L31.023 14.1956V14.0764C30.6405 13.987 30.6007 13.6343 30.2481 13.5399V13.4207C30.0381 13.3565 29.8516 13.2321 29.7116 13.063L29.652 12.9438H29.5328L29.4135 12.765H29.2943L29.1155 12.5166L28.9367 12.457V12.3378C28.751 12.259 28.5874 12.1363 28.4598 11.9801L28.4002 11.8609L28.1518 11.8013L28.0326 11.6225C27.9033 11.5025 27.732 11.4382 27.5557 11.4437V11.3443L27.3968 11.2723V11.2127H27.2776V11.1531H27.1484L27.0888 11.0338H26.9696V10.9742H26.8504V10.9146H26.6715V10.8476H26.4927V10.788L25.9562 10.7283L25.9065 10.6166L25.3701 10.557V10.4974H25.2509V10.4378H25.072V10.3781H24.8932V10.3185H24.5952V10.2589H24.4163V10.1993H24.2375V10.1397H24.0587V10.0801H23.8103V10.0205H23.5619V9.96088H23.3831V9.90127H23.0851V9.85408L22.787 9.79447V9.73486H22.6777V9.67526H22.3797V9.60571H22.2009L22.1413 9.4865H21.7861V9.42689H21.6073V9.35734H21.488V9.29773L20.6535 9.17852V9.11891H20.4747C20.2567 8.99592 20.0096 8.93413 19.7594 8.94008C19.7048 9.14374 19.6327 9.09407 19.5806 9.29773C19.3769 9.35238 19.4291 9.4244 19.2229 9.47656C19.1923 9.62635 19.1314 9.76833 19.0441 9.89382L18.8653 10.013L18.8056 10.1919L18.5573 10.3707V10.4899L18.3785 10.6091V10.7283L18.2071 10.8476V10.9668L18.0283 11.086V11.2052H17.9686C17.8836 11.2869 17.8219 11.3898 17.7898 11.5033H17.7302V11.7516C17.4396 11.8336 17.6011 11.8808 17.4818 12.1093H17.4222V12.2285H17.3626L17.303 12.4073L17.1838 12.4669V12.5862L17.0646 12.6458V12.765L16.8857 12.8842V13.0034L16.7665 13.063L16.7069 13.3114H16.6473C16.5838 13.3805 16.5422 13.467 16.5281 13.5598H16.4089C16.3854 13.6939 16.3233 13.8182 16.2301 13.9174L16.1108 13.977V14.0764H16.0512V14.1956L15.932 14.2552L15.8128 14.6129L15.6936 14.6725V14.7917L15.5147 14.9109L15.4551 15.1593L15.3359 15.2189V15.3182L15.1571 15.4374L15.0975 15.7355H15.0379V15.8547L14.9187 15.9143V16.0335H14.859C14.7821 16.1975 14.874 16.2074 14.7398 16.3316V16.8084L14.859 16.8681V17.0568L14.9783 17.1164V17.2356C15.1046 17.3215 15.2463 17.3822 15.3955 17.4145V17.4741C15.4775 17.5088 15.4874 17.3648 15.5147 17.3549L15.8848 17.3052V17.3648H15.9444L16.004 17.2456C16.3195 17.0643 16.7367 17.1015 16.8386 16.7091L17.0174 16.6495V16.5899C17.1838 16.4806 17.2658 16.5179 17.3154 16.2918C17.4775 16.2293 17.621 16.1268 17.7327 15.9938V15.9342C18.0158 15.7305 18.3958 15.5194 18.5672 15.2189H18.6864V15.0997C18.9348 15.0276 18.9348 14.8513 19.2229 14.8016C19.285 14.5706 19.3595 14.6228 19.521 14.5036L19.6998 14.2552H19.819L19.9978 14.0068H20.117L20.2363 13.828H20.3555L20.4151 13.6492L20.5939 13.5896L20.6535 13.4704C20.7699 13.3543 20.9133 13.269 21.0708 13.222V13.1624C21.185 13.1251 21.4781 13.3636 21.5477 13.4107L22.9783 14.0068L22.9261 14.4315H22.8665V14.5508H22.8069L22.7473 14.8488H22.6777V14.968H22.6181L22.561 15.3182H22.5014V15.4374H22.4418L22.3822 15.6858H22.3226V15.8646H22.263V16.113L22.1437 16.1726V16.3514H22.0841L22.0245 16.5998H21.9649L21.9053 17.0568H21.8457L21.7861 17.3052H21.7265V17.484H21.6669V17.6628H21.6073V17.7821H21.5477V17.9013L21.4284 17.9609L21.3688 18.2589H21.4359V18.2987H21.3763L21.2571 18.6563H21.1875V18.7954H21.1279L21.0087 19.3915H20.9491V19.5107H20.8895V19.6299L20.7703 19.6895V19.7889H20.7106L20.651 20.2061H20.5914L20.5318 20.4545H20.4722V20.6333H20.4126L20.353 20.8817H20.2934L20.2363 21.2791L20.117 21.3387V21.4579H20.0574L19.9978 21.7063H19.9457V22.2428H19.8861L19.8265 22.4911H19.7668L19.6973 22.8364L19.5781 22.896V23.0177H19.5185L19.4589 23.4946H19.3993V23.6138H19.3396V23.8622L19.2204 23.9218V24.1006L19.0416 24.2198V24.339H18.982L18.8628 24.9947H18.8032V25.1139L18.6839 25.1735L18.6243 25.5312H18.5647L18.5051 25.7796H18.4554V25.8988H18.3958L18.2071 26.4129H18.1475V26.5321H18.0879V26.7805L17.9686 26.8401V26.9593H17.909V27.24L17.7898 27.2996V27.4188H17.7302V27.5976H17.6706V27.7367H17.611V28.0348L17.4918 28.0944V28.2136H17.4322L17.3154 28.7302H17.2558L17.1962 29.0283H17.1366L17.077 29.2766H17.0174L16.9578 29.5747H16.8982L16.8386 29.823H16.779V30.0714H16.7169L16.6572 30.3198H16.5976V30.4688H16.538V30.7172L16.4188 30.7768V30.896H16.3592V31.0748H16.2996V31.194H16.24L16.1804 31.4921H16.1208V31.6709H16.0612V31.7901H16.0016L15.9444 32.2074H15.8848L15.7656 32.3862H15.6464C15.5992 32.5551 15.5744 32.5303 15.4676 32.6346V32.6942L15.2887 32.7538V32.873L14.9311 33.1711V33.2903L14.8119 33.4095L14.633 33.4691V33.5883L14.5138 33.6479V33.6976C14.335 33.8839 14.0543 34.0081 13.9773 34.2937C13.6222 34.3732 13.4806 34.6687 13.262 34.8898L13.0832 35.009C12.9839 35.1506 12.964 35.307 12.8348 35.4263C12.6859 35.5408 12.5262 35.6406 12.358 35.7243V35.7839L12.1096 35.9627V36.082L11.5135 36.5588L10.7982 37.3934H10.679L10.4306 37.6914H10.3114L10.2518 37.8702L10.073 37.9894L9.71531 38.4663H9.59609V38.5855C9.44955 38.6253 9.49922 38.6153 9.41726 38.7048H9.35765V38.824L9.17883 38.9432V39.0624C9.14357 39.1422 9.0798 39.206 9 39.2412L9.29804 40.6122H9.35765V40.7315H9.41726V40.9003H9.51413L9.69295 41.9733H9.75256V42.1422H9.81217L9.87178 42.3906H9.93139L9.991 42.7482H10.0506V42.8674H10.1102L10.1698 43.2251H10.2294L10.289 43.4039L10.4083 43.4635V43.5231H10.3486L10.4083 43.8212H10.4679C10.669 44.0199 11.213 43.9255 11.6004 43.9404H11.7793V44L12.0773 43.9404V44L13.2099 43.9404L13.2695 43.4039H13.2099L13.1503 43.1555L12.6138 42.6787C12.5318 42.5669 12.6411 42.5917 12.4946 42.4998V42.3906C12.3331 42.3483 12.3604 42.3086 12.1965 42.2713L12.1369 41.9733H12.0773C12.0028 41.7398 12.1642 41.4766 12.1369 41.3176H12.0773V40.7215H12.0177V40.6023H11.9581C11.9476 40.57 11.9478 40.5353 11.9585 40.5031C11.9692 40.4709 11.99 40.443 12.0177 40.4235V40.3639H11.9581V40.1155C12.2586 40.041 12.4747 39.7678 12.6734 39.579L12.733 39.4598H12.8522L13.1503 39.1021H13.2695V38.9829L13.5675 38.7346V38.6749H13.6867L13.8656 38.4266H13.9848L14.104 38.2478L14.2828 38.1881L14.402 38.0689V37.9497L14.5213 37.8901L14.7696 37.5921C14.8963 37.4703 15.0876 37.443 15.1869 37.294H15.3061C15.3533 37.1326 15.321 37.1574 15.4849 37.1152V36.996L15.6042 36.9364V36.8767H15.7234L16.2002 36.3403L16.4983 36.2807L16.6771 36.0323H16.8559L16.9752 35.8535H17.0944L17.2136 35.6746H17.3328L17.5812 35.3766H17.76L18.15 34.9395H18.2692L18.5175 34.6414H18.6368L18.6964 34.5222H18.756L18.9348 34.2242C19.0217 34.1645 19.1186 34.2465 19.1832 34.1645V33.9857H19.2428V33.8665H19.3024L19.4216 33.5088H19.4812V33.33L19.6004 33.2704L19.66 33.0916H19.6973L19.8165 32.7339L19.9357 32.6743V32.5551H19.9953V32.4359H20.055V32.2571H20.1146V32.1378H20.1742V32.0186L20.2934 31.959L20.353 31.7106L20.4722 31.651L20.651 31.1146L20.7703 31.055V30.9357H20.8299L20.8895 30.6377L21.0683 30.5185V30.3993L21.2471 30.28V30.1012H21.3067L21.4856 29.5647C21.7563 29.4853 21.5675 29.5275 21.6644 29.3164H21.724V29.2269H21.7836V29.0481L21.9028 28.9885L21.9624 28.7401L22.0817 28.6805V28.5017H22.1413V28.3825H22.2009V28.2633H22.2605V28.1441H22.3201C22.3896 28.0174 22.3201 28.0124 22.4393 27.8957C22.5585 27.7789 23.1074 27.923 23.4527 27.8361V27.7765C23.5371 27.7591 23.4527 27.7765 23.5123 27.8361L23.6911 27.7765C23.7116 27.8031 23.7396 27.8229 23.7714 27.8335C23.8033 27.8442 23.8376 27.845 23.8699 27.8361V27.7765H24.3468V27.7367H24.8237V27.6771L25.4197 27.7367V27.6771H26.3735C26.5662 27.6117 26.7665 27.5716 26.9696 27.5579C26.9056 27.7191 26.8033 27.8623 26.6715 27.9752H26.6119V28.0944L26.4927 28.154V28.2732L26.2443 28.452V28.5713L26.1251 28.6309V28.7302L26.0059 28.7898L25.9463 28.9686L25.6582 29.2269V29.3462L25.4098 29.525V29.6442L25.231 29.7634V29.8826L25.0522 30.0019V30.1211L24.8733 30.2403V30.3595L24.7541 30.4191C24.6389 30.5361 24.5537 30.6793 24.5057 30.8364H24.4163C24.3667 31.0227 24.2797 31.0525 24.2375 31.2536C24.0223 31.2181 23.8182 31.1331 23.6414 31.0053L23.5222 30.8265L23.1571 30.7172L23.0975 30.5979H22.8491V30.5383H22.7299V30.4688H22.6777V30.5284C22.417 30.5284 22.3176 30.4936 22.2605 30.7072C22.0121 30.7768 22.1413 30.8289 21.9624 30.9556L21.9028 31.6709H21.8432V32.5054H21.7836V32.7538H21.724V33.2009H21.6644L21.724 33.797H21.6644L21.6048 34.7507C21.6048 35.0935 21.5725 35.6672 21.6048 35.8237H21.6644V36.072H21.6048C21.6104 36.2376 21.651 36.4002 21.724 36.5489C21.724 36.9364 21.8854 36.9165 22.022 37.145C22.4592 37.0928 22.4716 36.8147 22.797 36.7277C22.864 36.4396 23.0304 36.4446 23.095 36.1912H23.2142L23.2738 36.0124H23.3334V35.8932H23.393V35.774L23.5719 35.6548V35.5355L23.7507 35.4163V35.2971L23.8699 35.2375V35.0587L23.9891 34.9991V34.8798L24.1084 34.8202V34.6911L24.2276 34.6315V34.5123L24.3468 34.4527V34.3334L24.466 34.2738L24.4064 34.1546H24.466L24.5852 33.797C24.9901 33.7448 25.3601 33.3747 25.5986 33.1413L25.7178 32.9624H25.9065L26.0854 32.7141C26.2294 32.575 26.3983 32.5377 26.5026 32.3564H26.6219C26.669 32.195 26.6368 32.2198 26.8007 32.1776V32.0584C27.2254 31.9665 27.3769 31.6535 27.6352 31.4027H27.6948L27.7544 31.2835H27.8736L27.9333 31.1642H28.1121L28.5293 30.6874H28.6386L28.6982 30.5681C28.9466 30.4142 28.9069 30.5681 29.0559 30.2701H29.1751C29.2397 30.0217 29.4011 29.9572 29.5924 29.8528H29.7116L29.8308 29.674L30.1884 29.376H30.3077V29.2568H30.4269V29.1375H30.5461V29.0183L30.6653 28.9587V28.8991H30.7845L30.9634 28.6507H31.0826V28.5315C31.1754 28.5174 31.2619 28.4759 31.331 28.4123V28.3527L31.5793 28.2931L31.6985 28.1142H31.8178L31.937 27.995V27.8758L32.2946 27.5778V27.4884L32.4138 27.4287V27.1804L32.5331 27.1208C32.6647 26.8178 32.384 25.9957 32.2847 25.8789H32.2251L32.0463 25.6305H31.927L31.8674 25.5113H31.7482L31.6886 25.3921L31.331 25.2729V25.2133H31.2117V25.1537L30.8541 25.0345V24.9749H30.6753V24.9152H30.556V24.8556H30.4368L30.3772 24.7563H30.258V24.6967H30.1288V24.6371H29.95L29.8904 24.5179H29.7116V24.4582H29.5924L29.5328 24.339H29.4135V24.2595H29.2943L29.1751 24.1403H29.0559L28.9367 23.9615L28.579 23.8423V23.7827C28.4697 23.7454 28.4946 23.8224 28.4598 23.8423H28.4002V23.7827H28.2214L28.1618 23.6635L27.9829 23.6038V23.5442L27.6253 23.425L27.5657 23.3058H27.3968L27.3372 23.1866H27.2179L27.1484 23.0748H27.0292L26.9696 22.9556H26.7907V22.896H26.6715V22.8364H26.4927L26.4331 22.7172H26.3139V22.6576H26.1947V22.5979H26.0158L25.9562 22.4787H25.837V22.4191L25.6582 22.3595C25.6765 22.2061 25.7386 22.0613 25.837 21.9423L25.9562 21.8826L26.0779 21.5275L26.1971 21.4679V21.3486H26.2568V21.1698L26.376 21.1102V20.991H26.4356V20.8122L26.5548 20.7526V20.6333L26.7336 20.5141V20.3949L26.8528 20.3353V20.2161L26.9721 20.0969V19.9776H27.0317V19.8584H27.0913V19.7392L27.2105 19.6796L27.2701 19.3816L27.4489 19.2623V19.1431H27.5085L27.5681 18.7259L27.6874 18.6663V18.547L27.8662 18.4278L27.9258 18.1794L28.045 18.1198V18.0006H28.1046V17.8814H28.1642V17.7026H28.2238L28.2835 17.4542H28.3431V17.335L28.5219 17.2158V17.0966H28.5815L28.7007 16.7389L28.887 16.8084V16.8681L29.0658 16.9277L29.1254 17.0469L29.7215 17.2257L29.7811 17.3449L29.9599 17.4045L30.0792 17.5834L30.4368 17.7026L30.556 17.8218H30.6753L30.7349 17.941H30.8541L30.9137 18.0602H31.1621V18.1198H31.2813L31.3409 18.2391H31.4601L31.5197 18.3583L31.7681 18.4179L31.8873 18.5967H32.0065L32.1257 18.7159H32.245V18.7954H32.3642V18.855H32.543L32.6026 18.9742L32.7814 19.0338V19.0934L32.9603 19.1531V19.2127H33.0199L33.1391 19.1531V19.2127H33.3875V19.1531H33.4471V19.2127C33.6085 19.2325 33.6259 19.1531 33.6259 19.1531L34.1028 19.0934V19.0338L34.3511 18.9742L34.6492 18.6166L34.7684 18.557V18.4378L35.0168 18.2589V18.1397C35.0615 18.0851 35.1409 18.095 35.1956 18.0205H35.3148V17.7721H35.434L35.4936 17.5933H35.5532V17.4741L35.6725 17.4145V17.3052L35.8513 17.186L35.9109 16.9376L36.0897 16.8184L36.1493 16.57L36.2685 16.5104V16.3912H36.3282V16.272L36.507 16.1527V16.0335H36.5666L36.6858 15.6759L36.805 15.6163L36.8646 15.4374L37.0435 15.3182V15.199L37.1627 15.1394L37.2223 14.9606H37.2819L37.3415 14.7122L37.4607 14.6526V14.5334L37.5799 14.4738L37.6992 14.1161H37.7588V13.9969L37.9376 13.8777V13.7585L38.0568 13.6989V13.5796H38.1164C38.1551 13.5404 38.1856 13.4938 38.206 13.4426C38.2265 13.3914 38.2366 13.3367 38.2356 13.2816H38.3549C38.3735 13.1902 38.4145 13.1049 38.4741 13.0332H38.5337V12.8544L38.7821 12.6756V12.4272H38.8417V12.3378H38.9013V12.2186L39.0205 12.159V12.0397H39.0801C39.1061 11.8006 39.0621 11.5589 38.9534 11.3443V11.3219ZM21.1875 10.4974V10.8476H21.1279V11.1456H21.0683V11.4437H21.0087V11.7417H20.9491C20.882 11.9627 20.9491 12.4272 20.8299 12.5762C20.7429 12.8618 20.7777 12.6408 20.5815 12.755L20.4027 13.0034C20.2238 13.1301 20.1121 13.1003 19.9854 13.3015H19.8662C19.7718 13.6566 19.3695 13.7287 19.2105 14.0168H19.0913V14.136C19.0466 14.208 18.8628 14.208 18.7932 14.2552L18.674 14.434H18.6144L18.366 14.7321H18.2468L18.1872 14.8513H18.068L17.9488 15.0301H17.8296L17.6731 15.3182H17.5539L17.3055 15.6163L17.1267 15.6759V15.815L16.9478 15.8746L16.8286 16.0534H16.7169C16.6324 16.3564 16.5033 16.2124 16.4188 16.3514V16.4707C16.1533 16.5571 15.9095 16.6994 15.7035 16.8879C15.475 16.8581 15.5396 16.8134 15.3459 16.7687C15.3509 16.5281 15.4386 16.2966 15.5942 16.113V15.9938L15.7731 15.8746V15.7554L15.8923 15.6957V15.5666L16.0115 15.507V15.3878L16.1307 15.3282V15.2089H16.1903L16.2499 15.0301H16.3691C16.4188 14.819 16.5231 14.7619 16.6175 14.6129V14.4936L16.7367 14.434L16.7963 14.1857L16.9156 14.126V13.9472H16.9652L17.0248 13.7684L17.1441 13.7088V13.5896H17.2037L17.2633 13.4107L17.3825 13.3511V13.2319L17.6309 13.0531L17.6905 12.8743L17.8097 12.8147L17.9289 12.457L18.1773 12.2782L18.2369 12.0298L18.3561 11.9702L18.4157 11.7218L18.5945 11.6026L18.6541 11.3542L18.833 11.235L18.8926 10.9867L19.0118 10.927V10.8476L19.1906 10.7283V10.6091L19.439 10.4303V10.3111L19.5582 10.2515L19.6178 10.0031C19.7023 9.85408 19.814 9.79696 19.8662 9.58584C20.4499 9.62558 20.8323 9.92363 21.416 9.9435C21.3677 10.1384 21.2907 10.3251 21.1875 10.4974ZM22.6777 13.2294L22.3797 13.1698L22.3201 13.0506H22.1413L22.0817 12.9314H21.9028V12.8718L21.7265 12.8345V12.8941H21.6669V12.8345C21.592 12.7899 21.5054 12.7691 21.4185 12.7749C21.4474 12.5491 21.5076 12.3284 21.5973 12.1192L21.6669 11.3443H21.7265V11.2251H21.7861V10.927H21.8457L21.9053 10.1521L22.3226 10.2117V10.2713H22.4418V10.331H22.7398V10.3906H23.0379V10.4502H23.2862V10.5098H23.5346V10.5694H23.7134V10.629H23.8923V10.6886H24.168V10.7482L24.9429 10.927C24.8162 11.1084 24.8808 10.9593 24.6945 11.0463V11.0959H24.5753L24.3269 11.394H24.2077L24.0885 11.5132V11.6324L23.9693 11.692V11.8112L23.85 11.9305V12.0497H23.7904V12.1689L23.6712 12.2285L23.6116 12.4769H23.552L23.4924 12.7252H23.4328L23.3732 13.0233H23.4328V13.0829H23.3732C23.3061 13.289 23.3359 13.371 23.1943 13.5002V13.5598C23.1074 13.5796 22.7622 13.2816 22.6777 13.2394V13.2294ZM20.4126 30.1583L20.353 30.516L20.1742 30.6352L20.055 30.9929L19.9357 31.0525L19.8761 31.3008L19.7569 31.3604V31.4797L19.6377 31.5989V31.7106H19.5781V31.8299H19.5185V31.959L19.3993 32.0186V32.1378H19.3396V32.2571L19.2204 32.3763V32.4955L19.0416 32.6147V32.7339H18.982V33.032L18.8628 33.0916V33.2009L18.7436 33.2605C18.63 33.4234 18.5459 33.605 18.4952 33.797H18.376L18.1276 34.095H18.0084L17.9488 34.2142H17.8892L17.8296 34.4626L17.6507 34.5222L17.4719 34.7706H17.2931L17.0447 35.0686H16.8659L16.6871 35.317H16.5082L16.2599 35.615H16.081L15.6042 36.1515H15.4849L15.4253 36.2707H15.3061L15.0577 36.5688H14.9385L14.8789 36.688H14.7597L14.2828 37.2245H14.1636L13.9848 37.4728H13.8656L13.7364 37.6715H13.6172L13.3688 38.0292H13.2496L13.1304 38.1484V38.2676L12.4946 38.8712L12.3753 39.1195H12.2462L12.1866 39.2387H12.0674L11.9482 39.4176H11.8289L11.7693 39.5964L11.4713 39.7156L11.4117 39.8944C11.4238 39.8978 11.4351 39.9036 11.4448 39.9116C11.4546 39.9195 11.4625 39.9295 11.4681 39.9407C11.4738 39.952 11.4769 39.9643 11.4775 39.9769C11.478 39.9894 11.4759 40.002 11.4713 40.0137L11.3521 40.0733C11.2776 40.2446 11.3521 41.2158 11.4117 41.4443V41.8019H11.4713V41.9808H11.5309L11.4713 42.2291C11.6269 42.4667 11.8298 42.6696 12.0674 42.8252V42.9444C12.2735 42.9991 12.3729 43.1481 12.5442 43.2425V43.3617C12.353 43.322 11.516 43.2127 11.3521 43.3617C11.1457 43.3888 10.9361 43.3469 10.756 43.2425C10.6569 42.7354 10.5173 42.2371 10.3387 41.7523L10.2791 41.335H10.2195V41.2158H10.1599V40.9674H10.1003V40.8482H10.0407V40.652H9.98106L9.86184 39.9963H9.80224V39.8771L9.68302 39.8174V39.5691H9.62341V39.4101H9.68302L9.80224 39.2313H9.92145L10.2195 38.8736H10.2791V38.7544C10.3554 38.7463 10.4266 38.7123 10.4808 38.6581C10.5351 38.6039 10.5691 38.5327 10.5771 38.4564H10.6964V38.3968L11.2353 37.9199V37.8007L11.3545 37.7411L11.7122 37.3238H11.8314C11.9059 37.0605 11.9755 37.1673 12.1295 37.0258L12.7256 36.3105H12.8448C12.9963 35.7218 13.7588 35.5057 14.0369 34.9991H14.1562C14.2232 34.7507 14.4045 34.6588 14.5138 34.4626H14.633V34.3434L14.8119 34.2838L14.8715 34.1645L15.1198 33.9857C15.4253 33.6728 15.706 33.34 16.014 33.032L16.4312 32.6743L16.4908 32.3167H16.5505V32.2074L16.6697 32.1478V31.959H16.7169L16.7765 31.7106H16.8361L16.8957 31.353H16.9652L17.0248 31.1046H17.0844V30.8066H17.1441V30.7172L17.2633 30.6576V30.5383H17.3229L17.3825 30.1807H17.4421L17.5613 29.823H17.6209L17.6805 29.4058H17.7401V29.2866L17.8594 29.2269L17.919 28.8097H17.9786L18.0382 28.5613L18.6343 28.6805V28.7302L18.8826 28.7898V28.8494L19.4191 28.9686V29.0283H19.6973V29.0879H19.8165V29.1475H20.0649V29.2269H20.3629C20.5313 29.3142 20.7123 29.3746 20.8994 29.4058L20.4126 30.1583ZM25.7203 26.5321V26.4129H25.7799V26.2465L25.9587 26.1273L26.0183 25.71L26.1971 25.5908V25.4716H26.2568V25.2928H26.3164V25.1735H26.376L26.4356 24.8755H26.4952V24.6271H26.5548C26.7153 24.3685 26.8359 24.0872 26.9125 23.7926C27.109 23.83 27.2932 23.9154 27.4489 24.041H27.5681L27.6278 24.1602L27.9854 24.2198L28.045 24.339H28.1642L28.2238 24.4582H28.3431L28.4623 24.6371L28.8795 24.6967V24.7563H28.9988L29.0584 24.8755H29.1776V24.9351L29.7141 25.1139L29.7737 25.2332H29.8929L29.9525 25.3524H30.0717V25.412H30.3201V25.4716H30.4393V25.5312H30.5585L30.6181 25.6504L30.9758 25.7696L31.0354 25.8889C31.2346 26.0158 31.4578 26.1004 31.6911 26.1372C31.7383 26.2987 31.706 26.2738 31.8699 26.316L31.9295 26.6141H31.9891C32.0363 26.7582 31.932 26.8376 31.9295 26.9121H31.9891C31.9668 27.2772 31.8674 27.2499 31.6315 27.389V27.4486H31.5123L31.4527 27.5678H31.3334V27.6274H31.2142L30.8566 28.1043H30.7373L30.6181 28.2831H30.4989L30.2505 28.5812H30.1288L30.0692 28.7004L29.8209 28.76L29.5228 29.1177H29.4036V29.1773L29.1056 29.4256V29.5449C28.7513 29.6742 28.4412 29.9016 28.2114 30.2006H28.0922V30.3198C27.8796 30.3782 27.6915 30.5036 27.5557 30.6774H27.4961C27.439 30.7693 27.5135 30.8513 27.4365 30.9258H27.3173L27.2577 31.045L27.0789 31.1046V31.1642H26.9596L26.9 31.2835L26.6517 31.3431V31.4027L26.5324 31.4623V31.5815L26.2841 31.7603V31.8199H26.1649L26.1052 31.9391H25.986L25.7377 32.2372C25.5241 32.3837 25.4123 32.267 25.3204 32.5948C24.9478 32.6843 24.2673 33.2928 24.1878 33.6678H24.0686L23.9494 34.0255L23.8302 34.0851L23.7706 34.3334L23.5222 34.5123V34.6315L23.403 34.6911L23.2838 35.0487L23.1645 35.1083V35.1878H23.1049V35.307L22.9261 35.4263V35.5455L22.7473 35.6647V35.7839L22.6281 35.8435V35.9627H22.5685C22.4825 36.0437 22.4206 36.1469 22.3896 36.2608H22.2704C22.2356 36.38 22.2704 36.3129 22.2108 36.38V36.4297H22.1512C22.2025 35.8948 22.2224 35.3574 22.2108 34.8202C22.2108 34.6911 22.1487 34.629 22.1512 34.5719H22.2108V34.2738H22.2704C22.3251 34.0851 22.2058 33.8367 22.2108 33.7373H22.2704V33.4492H22.33L22.3896 32.4359C22.3619 32.4163 22.3412 32.3884 22.3305 32.3563C22.3197 32.3241 22.3196 32.2893 22.33 32.2571C22.4411 31.8691 22.5012 31.4684 22.5088 31.0649C22.6309 31.0604 22.7525 31.0807 22.8665 31.1245V31.2437C23.0304 31.2884 23.0031 31.2586 23.0453 31.4225C23.158 31.4565 23.2604 31.518 23.3434 31.6014V31.661H23.5917L23.711 31.8398L23.8898 31.8994V31.959C24.0459 32.0092 24.2052 32.049 24.3667 32.0782C24.4064 32.0087 24.466 31.9913 24.4859 31.959V31.8398H24.5455V31.7106L24.6647 31.651L24.7243 31.4027L24.9031 31.2835V31.1642L25.2608 30.8662V30.747L25.38 30.6874V30.5681L25.5588 30.4489V30.3297L25.8569 30.0813V29.9621L26.3337 29.5449L26.3934 29.2965L26.751 28.9984V28.8792L26.8702 28.8196V28.7302L27.1683 28.4818V28.3626H27.2279V28.2434L27.3471 28.1838L27.4663 27.8261L27.5855 27.7665V27.6473L27.7644 27.5281C27.8985 27.3244 27.8438 27.2301 27.824 26.9916C27.4871 26.9555 27.1474 26.9555 26.8106 26.9916C26.6219 26.9916 26.376 26.9593 26.2741 27.0512H25.38L25.4396 26.8724H25.4992V26.7532H25.5588V26.5744L25.7203 26.5321ZM30.6082 15.8522L30.5486 16.1006L30.3698 16.2198C30.263 16.3812 30.2803 16.565 30.1214 16.6967V16.7563L29.8233 16.6967L29.6445 16.4483H29.5253L29.4657 16.3291C29.3514 16.2571 29.1056 16.272 28.9888 16.2099L28.9292 16.0907H28.81C28.6753 16.0008 28.536 15.9179 28.3927 15.8423V15.7231C28.0972 15.651 27.9631 15.4548 27.6178 15.425V15.3182C27.4474 15.2595 27.2867 15.1758 27.1409 15.0699H27.0217V15.0102H26.9025V14.9506H26.7833V14.891H26.6045L26.5449 14.7718C26.2599 14.6162 25.9635 14.4825 25.6582 14.3719C25.5919 14.484 25.5081 14.5846 25.4098 14.67C25.4471 14.9556 25.5241 14.901 25.7079 15.0276L25.7675 15.1468H25.9065V15.2065H26.0258L26.0854 15.3257H26.3337L26.453 15.5045L26.6318 15.5641V15.6237H26.751L26.8106 15.7429H26.9298L26.9894 15.8622H27.1087V15.9218H27.2279V15.9814L27.5259 16.041L27.7047 16.2894H27.824V16.349C27.9407 16.4036 28.1767 16.3713 28.2412 16.4682V16.5874H28.122L28.0624 16.7662H28.0028V16.8854H27.9432V17.0047L27.824 17.0643V17.2431H27.7644V17.3623L27.6451 17.4219V17.5411L27.4663 17.6604L27.4067 17.9087H27.3471V18.0279H27.2875V18.1472H27.2279V18.2664H27.1484V18.4452L26.9 18.624L26.7212 19.1605L26.5424 19.2797V19.4586H26.4828V19.5778H26.4232V19.697L26.3039 19.7566L26.1375 20.2856H26.0779L26.0183 20.534H25.9587V20.6532L25.7799 20.7724V20.9513L25.6607 21.0109L25.6011 21.2592L25.4818 21.3785V21.4977L25.3626 21.5573L25.1838 22.0938L23.3955 21.9745V21.9149C23.3682 21.9149 23.1869 22.0168 23.0379 21.9745V21.9149H22.7398C22.6579 21.8975 22.7647 21.8578 22.6802 21.8553V21.9149H22.4319V21.8553C22.3549 21.8553 22.335 21.9547 22.1835 21.9149V21.8553H22.0047V21.7758C21.9674 21.7758 21.8482 21.8603 21.7066 21.8355V21.7758C21.6669 21.7758 21.5924 21.8355 21.4582 21.8355L20.7727 21.7758C20.8025 21.3511 20.9988 21.1276 21.1304 20.8221L21.2496 20.226H21.3092L21.3688 19.9776H21.4359V19.8584H21.4955L21.6147 19.3219L21.7339 19.2623V19.0835H21.7935L21.8532 18.8351H21.9128V18.6563H21.9724V18.547H22.032L22.0916 18.2987H22.1512V18.1198H22.2108V17.8218H22.2704V17.7026L22.3896 17.643L22.4492 17.3449H22.5088L22.4492 17.1661H22.5088V17.0568L22.6281 16.9972L22.6877 16.6992H22.7473L22.8069 16.2819H22.8665V16.1627L22.9857 16.1031L23.0453 15.7454H23.1049V15.6262H23.1645L23.2242 15.2685H23.2838V15.1493H23.3434L23.403 14.6725H23.4626V14.5532L23.5818 14.4936L23.701 13.8975H23.7606V13.7187H23.8202L23.8798 13.4704H23.9395V13.2915L24.1878 13.1127L24.2474 12.755H24.307V12.5862H24.3667V12.3378H24.4163L24.5355 11.9801C24.7839 11.9081 24.6001 11.9354 24.7144 11.8013H24.774V11.7417H24.8932L24.9528 11.6225L25.2012 11.5629V11.5033H25.5588V11.4437H25.8569V11.384C26.2071 11.2847 26.5026 11.4859 26.6914 11.5629H26.8702V11.6225H26.9894V11.6821H27.1087L27.1683 11.8013H27.3471L27.4067 11.9205L27.6551 11.9801L27.7147 12.0993H27.8339L28.0127 12.3974H28.1319L28.2512 12.5762H28.3704L28.43 12.6954H28.5492C28.5865 12.7203 28.5964 12.7749 28.6684 12.8147V12.9339C28.8323 12.9761 28.805 13.0133 28.9665 13.0531C29.0137 13.2145 28.9814 13.1897 29.1453 13.2319V13.3511C29.3937 13.4232 29.349 13.5374 29.503 13.6492H29.6222L29.6818 13.7684L29.9301 13.9472L29.9898 14.0664H30.109L30.2878 14.3148H30.3772L30.7349 14.7321H30.9137V14.7917C31.0379 14.901 30.9534 14.9134 31.1621 14.9705C31.1473 15.0631 31.1059 15.1495 31.0428 15.2189H30.9832V15.3182L30.864 15.3778L30.7274 15.815L30.6082 15.8522ZM38.3077 12.2757H38.1884V12.3378C38.1195 12.4134 38.0595 12.4968 38.0096 12.5862H37.95V12.7054C37.7165 12.7724 37.873 12.7203 37.7712 12.8842H37.7116V13.0034H37.652V13.1226L37.5328 13.1822V13.3015L37.2844 13.4803L37.2248 13.7287L37.0459 13.8479V13.9671L36.8671 14.0863V14.2055L36.7479 14.2651L36.6883 14.444H36.6287V14.5632L36.5095 14.6228V14.742L36.3306 14.8612V15.04H36.271V15.1593L36.1518 15.2189V15.3182L36.0326 15.3778V15.4971L35.7842 15.6759V15.815L35.665 15.8746V15.9938L35.5458 16.0534L35.4862 16.3018L35.367 16.3614L35.3074 16.6097L35.1881 16.6694V16.7886H35.1285L35.0689 17.0369L34.8206 17.2158L34.7609 17.4641L34.6417 17.5238V17.643H34.5995L34.5399 17.941L34.2915 18.1198L34.2319 18.2987C34.0531 18.4328 33.8395 18.3757 33.6954 18.5967L33.0993 18.5371L33.0397 18.4179H32.9205V18.2987H32.8013L32.7417 18.1794H32.6225L32.5629 18.0602H32.4437L32.3244 17.941H32.2052V17.8814H32.086V17.8218H31.9668V17.7622L31.7184 17.7026L31.6588 17.5834H31.48V17.5238L31.3011 17.4641L31.1819 17.2853H31.0031V17.2257C30.8764 17.1611 30.859 17.2108 30.7547 17.1065H30.6951C30.6579 16.9947 30.8988 16.6992 30.9435 16.6296L31.0031 16.3812H31.0627L31.1223 16.1329H31.1819V15.9541L31.3011 15.8944C31.4172 15.733 31.5015 15.5509 31.5495 15.358H31.6191C31.6959 15.4645 31.7984 15.55 31.9171 15.6063V15.7256C32.1506 15.8067 32.357 15.9512 32.5132 16.1428L32.5728 16.262C32.6498 16.2968 32.5976 16.2297 32.6324 16.2024C32.7218 16.2372 32.702 16.2521 32.7516 16.3216H33.1093L33.1689 16.2024C33.3353 16.0956 33.4173 16.1304 33.4669 15.9044C33.7675 15.8274 33.7898 15.5815 33.9438 15.3679L34.3015 15.0699V14.9506L34.4207 14.891V14.7718L34.5995 14.7122L34.6591 14.5334L34.9075 14.3545V14.2353L35.0267 14.1757V13.9969H35.0863L35.1459 13.8181C35.5036 13.7262 35.6278 13.3213 35.8612 13.1028C36.0177 12.9612 36.1568 12.996 36.2189 12.7451H36.3381C36.4225 12.4396 36.8348 12.1788 37.0534 11.9702L37.3514 11.6125H37.4707V11.5529L37.7687 11.3046V11.1853L38.1264 11.1257V11.1853L38.4244 11.245C38.5113 11.7839 38.3896 11.8684 38.2977 12.2856L38.3077 12.2757Z" fill="#222222"/>
</svg>
