<svg width="48" height="48" viewBox="0 0 48 48" fill="none" xmlns="http://www.w3.org/2000/svg">
<path fill-rule="evenodd" clip-rule="evenodd" d="M18.4408 8.7602C18.5569 9.49288 18.3307 14.1592 19.4372 12.0452C19.3272 10.6039 19.4127 9.01244 19.2966 7.54108C19.4066 6.67629 19.3638 6.09375 19.3516 5.24697C19.2905 4.75452 18.3185 5.0608 18.5508 5.61931C18.4591 6.6883 18.5141 7.73926 18.4408 8.7602ZM29.4077 11.847C29.4749 14.6937 30.4897 12.868 30.3002 11.1924C30.2269 9.25866 30.5936 7.49904 30.4103 5.34907C29.2426 5.07281 29.7072 7.0126 29.6339 7.78731C29.4811 9.10852 29.5728 10.5258 29.4077 11.847ZM23.8692 8.89833C23.7959 10.4237 24.9084 10.2135 24.7006 8.74219C24.4622 7.82334 25.0429 5.96764 24.4255 5.43314C23.4046 5.13287 24.0465 8.3218 23.8692 8.89833ZM35.7409 24.1944C35.9365 18.1048 31.9752 13.2403 25.5259 15.4684C23.5819 17.0839 25.6909 14.3333 25.8621 13.7028C26.0394 13.0061 27.8061 11.3366 26.4856 11.1204C25.587 11.6248 25.4708 13.0842 24.8229 13.7808C24.6028 14.1412 24.3277 15.2642 24.2054 14.4054C24.0404 13.4385 23.7286 12.5917 23.099 11.7149C21.1733 9.90726 21.0144 12.2975 21.4851 13.7748C21.6012 14.4594 21.9191 14.9879 22.3042 15.6305C21.2895 14.7898 20.1341 14.5675 18.8137 14.6276C12.4805 14.8979 11.0439 22.9272 12.5477 27.7136C12.6883 28.8487 13.3485 29.8036 13.7398 30.8245C14.1065 31.4911 14.7545 31.9716 15.1213 32.6802C16.4784 33.9594 18.184 34.8242 19.8896 35.0164C20.8982 35.0524 21.8152 34.8482 22.7077 34.5239C24.126 33.6891 23.3985 33.9594 24.56 34.3678C27.1947 35.6469 30.178 34.5239 32.0914 32.8063C34.3899 30.4762 35.5636 27.1852 35.747 24.1884L35.7409 24.1944ZM22.2737 13.7748C21.5218 9.91927 23.5208 13.7328 23.5697 15.2402C23.7775 16.3332 23.0867 15.3843 22.7627 14.9159C22.4693 14.5856 22.4326 14.1952 22.2737 13.7748ZM34.9217 23.3596C34.8056 25.5757 34.4143 27.7917 33.3262 29.8756C32.611 30.6503 32.2381 31.4911 31.4373 32.1697C30.3369 33.1787 29.1326 33.8933 27.7938 33.9594C26.5468 34.1035 25.373 34.0375 24.3949 33.497C23.423 32.7463 23.1173 33.557 22.3287 33.7972C19.6267 34.7881 16.5518 33.4669 14.9196 31.0827C14.6078 30.8725 14.4305 30.272 14.3205 30.0558C14.0882 29.6294 13.8804 29.221 13.7398 28.7766C13.3424 27.6596 12.9084 26.3624 12.8839 25.0232C12.8045 22.5129 13.1651 18.6633 15.1825 17.1079C16.7535 15.4504 19.0521 15.06 21.2283 15.8768C21.803 16.2851 22.3654 16.6334 22.94 17.1259C23.2885 17.3481 23.5513 17.8586 24.0587 17.6784C24.994 16.4293 26.3145 15.8167 27.7877 15.7687C29.3282 15.6065 30.8321 15.9909 32.0791 16.8857C32.9716 17.4622 33.5402 18.2549 33.8886 19.2038C34.6344 20.459 34.7383 21.9483 34.934 23.3656L34.9217 23.3596ZM28.723 18.0568C28.8208 19.5822 31.6023 20.6812 32.1647 18.8615C32.4215 18.1228 31.7001 17.192 31.1683 16.8496C30.0435 16.3332 28.6864 16.5974 28.723 18.0568ZM29.4383 17.8105C29.7439 16.5314 31.9936 17.8346 31.425 18.7954C30.9054 19.6843 29.4505 18.7594 29.4383 17.8105ZM32.8555 21.4799C32.6415 20.9754 32.2625 20.2968 31.5595 20.6031C31.0155 20.4229 30.5081 21.3838 30.6731 21.8342C30.9176 23.5878 33.0817 23.1194 32.8555 21.4799ZM32.0547 21.9664C32.0302 22.5069 31.3517 22.0865 31.3211 21.7742C31.3517 21.3778 31.804 20.9034 32.0363 21.4018C32.1342 21.5219 32.1525 21.7622 32.0547 21.9724V21.9664ZM31.804 29.4612C31.1866 28.8547 31.1255 29.9537 30.6487 30.1939C30.2635 30.7945 29.5605 31.2389 28.9737 31.5091C28.4724 31.7133 27.9161 32.0196 27.2314 32.0256C26.9197 33.0766 27.8855 32.8364 28.668 32.6141C29.8662 31.9836 31.908 31.0407 31.8102 29.4552L31.804 29.4612ZM34.396 40.9618C34.0476 38.1212 15.2436 38.6317 14.2105 40.6375C12.346 43.9226 35.2091 43.5442 34.396 40.9618Z" fill="#222222"/>
</svg>
