<svg xmlns="http://www.w3.org/2000/svg" fill="none" viewBox="0 0 48 49"><path fill="currentColor" fill-rule="evenodd" d="m27.477 36.44 3.599-7.635 4.547 7.697a.395.395 0 0 0 .346.193l1.84-.03a.394.394 0 0 0 .371-.505l-3.006-10.198.312-4.28 5.436-6.43.006-.008s.265-.326.387-.758c.138-.486.114-1.087-.519-1.556-1.204-.894-2.175.097-2.175.097a.373.373 0 0 0-.024.026l-5.37 6.438c-.048.056-1.2 1.405-2.642 1.432-1.395.025-2.073-1.355-2.073-1.355a.442.442 0 0 0-.014-.024l-3.738-6.32a.394.394 0 0 0-.046-.063s-.343-.38-.805-.56c-.36-.139-.782-.163-1.191.11-.971.647-.632 1.664-.632 1.664.01.028.02.054.035.08l4.76 8.136.198 3.611-2.625 10.029a.394.394 0 0 0 .392.494l2.284-.06a.394.394 0 0 0 .347-.225Zm-2.127-.517 1.303-4.979 2.5.093-2.286 4.846-1.517.04Zm10.835-.02-2.815-4.765 2.455-.177 1.452 4.924-1.092.018Zm-1.477-14.407-.312 4.295-6.545.083-.189-3.422a.395.395 0 0 0-.053-.177l-2.194-3.751 1.065-.844 1.335 2.259c.094.175 1.017 1.804 2.784 1.772C32.39 21.68 33.83 20 33.83 20l.002-.002 2.092-2.508 1.294.921-2.417 2.86a.394.394 0 0 0-.093.226Zm5.608-6.75-2.587 3.06-1.298-.925 2.756-3.304a.878.878 0 0 1 1.14-.014c.286.213.292.487.23.707a1.533 1.533 0 0 1-.24.476Zm-16.213-1.082 1.971 3.331-1.061.841-2.183-3.732a.71.71 0 0 1 .325-.737c.212-.141.432-.06.6.032.17.093.298.214.348.265Zm-6.827.545c.89.271 1.586.974 1.836 1.857a2.64 2.64 0 0 1 .1.789c-.036 1.459-1.253 2.636-2.752 2.636-1.5 0-2.717-1.177-2.752-2.636a2.8 2.8 0 0 1 .02-.395 2.64 2.64 0 0 1 .08-.394c.252-.892.96-1.6 1.864-1.865a.991.991 0 1 1 1.604.008Zm-2.779 2.646c.035 1.028.903 1.848 1.963 1.848 1.059 0 1.927-.82 1.962-1.848h-3.925Zm16.16 2.915c1.5 0 2.717-1.178 2.752-2.636l.001-.065a2.678 2.678 0 0 0-.1-.724 2.747 2.747 0 0 0-2.652-1.978c-1.265 0-2.33.84-2.652 1.978a2.64 2.64 0 0 0-.1.789c.036 1.458 1.253 2.636 2.752 2.636Zm0-.788c-1.058 0-2.061-.56-1.733-2.285 1.296.138 2.56.212 3.8.24-.253 1.567-1.007 2.045-2.066 2.045Zm-23.1 5.814 3.713-1.225a.394.394 0 0 0 .31-.102l.767-.253a.558.558 0 0 1 .113.069c-.018.108-.072.432-.134.725-.214 1.001-.585 2.497-.585 2.497a.395.395 0 0 0 .332.486l.36.046-1.078 2.527a.394.394 0 0 0 .355.549l.487.01L10.477 36a.395.395 0 0 0 .366.505l1.496.05a.394.394 0 0 0 .383-.257l2.262-6.11 1.625.035 2.22 5.95c.054.146.19.246.346.255l1.318.076a.394.394 0 0 0 .403-.5l-1.613-5.722.514.011a.394.394 0 0 0 .377-.535l-1.028-2.687.324.026a.395.395 0 0 0 .422-.448l-.512-3.634 5.273 2.128.005.002s.297.124.642-.011c.196-.076.421-.235.592-.592.4-.837-.377-1.534-.377-1.534a.392.392 0 0 0-.074-.05l-6.592-3.474a.394.394 0 0 0-.14-.043s-.413-.043-.736.037a.838.838 0 0 0-.493.307c-.138.196-.582.704-1.212.645-.425-.04-.83-.291-1.157-.495-.289-.181-.534-.332-.698-.38a.635.635 0 0 0-.255-.012 2.824 2.824 0 0 0-.5.136c-.999.348-3.015 1.319-3.167 1.392l-4.073 1.72a.396.396 0 0 0-.15.111s-.58.704-.033 1.407c.508.654 1.272.5 1.272.5a.406.406 0 0 0 .05-.012Zm4.672-2.372-.688.227-.373-1.03c.529-.251 1.566-.735 2.337-1.043.308-.122.652-.224.738-.249.095.04.216.118.357.21.09.06.19.124.295.187.384.228.836.444 1.3.488.966.09 1.676-.628 1.913-.952.023-.008.089-.028.13-.034.119-.016.241-.013.315-.01l2.1 1.107-.688 1.075-.924-.373a.394.394 0 0 0-.538.421l.54 3.822-.447-.036a.39.39 0 0 0-.17.024l-5.387-.025a.394.394 0 0 0-.214.062l-.213-.028c.154-.635.438-1.823.568-2.495.056-.289.079-.5.072-.575-.02-.24-.164-.437-.354-.572a1.569 1.569 0 0 0-.445-.208.395.395 0 0 0-.224.007Zm12.702 1.98L20.71 22.7l.644-1.006 3.678 1.939c.081.077.277.301.15.568-.093.192-.234.202-.25.203ZM9.162 22.488l1.284-.543.345.953-3.448 1.138a.555.555 0 0 1-.486-.212.313.313 0 0 1-.025-.352l2.33-.985Zm10.315 13.167-2.02-5.414 1.001.022 1.528 5.421-.509-.03Zm-8.1.078 1.636-5.59 1.137.025-2.069 5.588-.704-.023Z" clip-rule="evenodd"/></svg>