<svg xmlns="http://www.w3.org/2000/svg" fill="none" viewBox="0 0 48 49"><g clip-path="url(#a)"><path fill="currentColor" d="M40.002 12.302c-.131-.056-.263-.139-.367-.042-.374.34-.672.72-1.032.922-.444.25-.943.221-1.345.304-.485.098-.935.16-1.35.084-.493-.09-.957-.215-1.31-.41-.652-.353-1.026-.81-1.067-.851 0 0-.104.117-.104.11-.035-.034.09-.284.041-.305-.131-.062-.416-.034-.526.063-.54.471-.381.658-.922 1.13-.54.47-.686.311-1.233.782-.548.471-.395.645-.943 1.116-.547.471-.727.263-1.268.741-.54.478-.374.672-.921 1.144-.547.47-.59.422-1.137.893-.547.472-.478.555-1.018 1.033-.54.478-.728.27-1.275.741-.547.471-.346.7-.894 1.178-.083.07-.104.063-.104.166 0 .707-.215.707-.215 1.42 0 .715.104.708.104 1.421 0 .714-.027.714-.027 1.42 0 .708-.049.714-.049 1.421 0 .707.153.714.056 1.42-.264.486-.596.895-.825 1.331-.263.499-.374 1.026-.596 1.455-.256.513-.623.915-.824 1.337-.257.54-.485 1.012-.666 1.42-.263.617-.187 1.193-.311 1.553h-.021s-.27-.07-.27-.063c-.146.534-.125.534-.27 1.068l.069.02c-.215.783-.187.79-.402 1.566-.042.153.11.222.25.312.062.042.062 0 .13 0 .084 0 .236.215.306.16.52-.437.36-.631.88-1.068.52-.436.651-.284 1.17-.72l.05.028-.18-.201c.339-.326 1.01-.77 1.62-1.456.45.596-.083.818-.083 1.566 0 .749.104.749.104 1.49 0 .201.049.326.25.326.7 0 .7-.042 1.392-.042.693 0 .7-.041 1.4-.041s.7.138 1.4.138.7.097 1.4.097.7-.014 1.399-.014c.7 0 .7-.221 1.4-.221s.7.124 1.4.124c.658 0 .658.125 1.323.125.665 0 .658-.173 1.323-.173.665 0 .665-.049 1.324-.049.658 0 .665-.048 1.323-.048.658 0 .665.208 1.324.208.2 0 .47-.229.47-.43 0-.748-.09-.748-.09-1.496 0-.749.063-.749.063-1.497 0-.748-.035-.748-.035-1.497 0-.748.104-.748.104-1.496 0-.749-.09-.749-.09-1.497 0-.748.042-.748.042-1.497 0-.748-.09-.748-.09-1.496 0-.749-.014-.749-.014-1.497 0-.748-.118-.748-.118-1.497 0-.748.028-.748.028-1.496 0-.749.152-.749.152-1.497 0-.748-.187-.748-.187-1.497 0-.748.118-.748.118-1.496V15.55c0-.748-.07-.748-.07-1.503 0-.755.077-.749.077-1.504 0-.145-.111-.187-.25-.242h.007Zm-19.436 24.21c-.207 0-.221-.063-.311-.25-.07-.152-.125-.187.041-.18.312.007.284.007.478.25.111.138-.041.18-.207.18Zm.825-.666c-.256 0-.235-.16-.45-.305-.215-.145-.423-.02-.527-.256.139-.36.305-.928.554-1.497.174-.395.562-.762.804-1.274.194-.41.374-.874.624-1.359.208-.415.38-.887.63-1.358.222-.415.492-.748.742-1.212.7.145.582.36 1.185.741.602.381.845.118 1.268.693-.32.423-.569.915-.86 1.289-.332.422-.776.707-1.067 1.067-.34.43-.499.942-.783 1.289-.367.436-.686.817-.977 1.143-.409.464-.866.77-1.136 1.04h-.007Zm2.876-8.065c.284-.43.436-.762.706-1.157.291-.43.686-.755.97-1.136.305-.423.465-.929.749-1.296.325-.423.651-.797.942-1.157.346-.416.589-.873.887-1.206.388-.423.831-.7 1.13-.977.61-.554.99-.68 1.177-.658.104.16.07.533-.187 1.323-.124.395-.27.866-.499 1.4-.173.409-.52.797-.755 1.282-.2.415-.2.963-.45 1.434-.222.416-.471.845-.728 1.303-.235.408-.63.755-.9 1.198-.25.41-.444.915-.721 1.351-.707-.166-.61-.415-1.24-.782-.631-.368-.638-.347-1.081-.922Zm8.737 9.964c-.547.52-.86-.208-1.607-.208-.749 0-.756.076-1.511.076-.755 0-.755-.02-1.51-.02-.756 0-.756-.09-1.511-.09-.755 0-.755.27-1.51.27-.756 0-.894.34-1.393-.236-.568-.651-.284-.762-.284-1.628 0-.867-.118-.901.014-1.76.325-.388.859-.783 1.247-1.268.325-.41.547-.95.921-1.435.326-.415.797-.769 1.164-1.254 0 0-.014-.02-.007-.027 0 0 .104.062.111.055.056-.083.34-.568.77-1.275.221-.367.339-.894.61-1.365.235-.409.491-.838.74-1.289a39.3 39.3 0 0 0 .693-1.316c.222-.444.479-.887.68-1.324.214-.478.353-.956.512-1.4.194-.526.34-.997.409-1.413.11-.665.152-1.212-.187-1.434-.353-.229-.825.118-1.414.52-.367.256-.942.401-1.358.817-.346.347-.602.838-.963 1.254-.332.388-.713.762-1.04 1.178-.325.416-.519.943-.817 1.351-.332.444-.693.839-.97 1.234-.353.499-.824.935-1.06 1.282-.152-.7.173-.749.173-1.462 0-.714.09-.721.09-1.435 0-.713-.221-.72-.221-1.441 0-.72-.18-.77.124-1.42.305-.652.479-.562 1.047-1.06.568-.5.56-.5 1.13-.991.567-.492.706-.333 1.267-.832.561-.499.568-.492 1.136-.984.569-.492.416-.665.984-1.157.569-.492.513-.561 1.081-1.053.568-.492.728-.312 1.296-.804.568-.492.43-1.476 1.136-1.206.666.257.07.86.07 1.573 0 .714-.18.714-.18 1.428 0 .713-.035.713-.035 1.427 0 .714.173.714.173 1.427 0 .714-.028.714-.028 1.428 0 .713.049.713.049 1.427 0 .714-.16.714-.16 1.428 0 .713.194.713.194 1.427 0 .714-.055.714-.055 1.427 0 .714-.145.714-.145 1.428 0 .713-.077.713-.077 1.427 0 .714.084.714.084 1.427 0 .714.055.714.055 1.428s.041.714.041 1.427c0 .714.118.714.118 1.428 0 .713-.43.762-.256 1.462.2.803.727 1.018.208 1.51l-.028.02Zm6.5-.125c-.527.513-.714.076-1.449.076-.734 0-.734-.2-1.469-.2-.734 0-.734.193-1.475.193-.742 0-.936.458-1.463-.055-.526-.513-.138-.707-.138-1.413 0-.707-.035-.714-.035-1.428s.298-.714.298-1.427c0-.714-.152-.714-.152-1.428 0-.713.02-.713.02-1.427 0-.714.118-.714.118-1.427 0-.714-.02-.714-.02-1.428 0-.713-.049-.713-.049-1.427 0-.714-.132-.714-.132-1.427 0-.714.16-.714.16-1.428s-.063-.714-.063-1.427v-1.428c0-.713-.02-.713-.02-1.434 0-.72.083-.714.083-1.434s-.167-.714-.167-1.434c0-.721.111-.714.111-1.435 0-.72-.305-.769-.104-1.455.347.25.88.603 1.456.81.457.167.997.382 1.565.389.485 0 1.012-.222 1.553-.423.45-.166.99-.45 1.468-.797.291.652-.09.749-.09 1.462 0 .714.063.714.063 1.428 0 .713.027.713.027 1.427 0 .714-.104.714-.104 1.427 0 .714-.034.714-.034 1.428 0 .713.048.713.048 1.427 0 .714-.048.714-.048 1.428 0 .713.222.713.222 1.427 0 .714-.194.714-.194 1.427 0 .714-.014.714-.014 1.428 0 .713.069.713.069 1.427 0 .714.118.714.118 1.427 0 .714-.208.714-.208 1.435 0 .72.222.713.222 1.434 0 .72-.215.714-.215 1.434s-.007.72.138 1.42c.153.742.437.93-.076 1.428h-.02Zm-3.555-21.826c0 .741.083.741.083 1.483 0 .741-.2.741-.2 1.476 0 .734.193.74.193 1.482s-.062.742-.062 1.483c0 .741.138.741.138 1.483 0 .741.035.741.035 1.483 0 .741-.298.741-.298 1.476 0 .734.152.741.152 1.482 0 .742-.02.742-.02 1.483 0 .742-.118.742-.118 1.483 0 .741.02.741.02 1.483 0 .741.05.741.05 1.483 0 .741.13.741.13 1.482 0 .201-.235.278-.436.278-.2 0-.346-.077-.346-.278v-1.482c0-.742-.021-.742-.021-1.476 0-.735.083-.742.083-1.483 0-.741-.166-.741-.166-1.483 0-.741.11-.741.11-1.483 0-.741-.103-.741-.103-1.483 0-.74.124-.74.124-1.475 0-.735.105-.742.105-1.483 0-.742-.146-.742-.146-1.483 0-.741-.09-.741-.09-1.483 0-.741.104-.741.104-1.483 0-.741-.063-.741-.063-1.482 0-.742-.027-.742-.027-1.483 0-.201.235-.333.436-.333s.34.132.34.333h-.007Zm1.323 19.248c0-.74-.083-.74-.083-1.482s.201-.742.201-1.476c0-.735-.194-.742-.194-1.483 0-.741.062-.741.062-1.483 0-.741-.138-.741-.138-1.482 0-.742-.035-.742-.035-1.483 0-.742.298-.742.298-1.476 0-.735-.152-.742-.152-1.483 0-.741.02-.741.02-1.483 0-.741.118-.741.118-1.483 0-.741-.02-.741-.02-1.482 0-.742-.049-.742-.049-1.483 0-.742-.132-.742-.132-1.483 0-.201.236-.277.437-.277.2 0 .346.076.346.277v1.483c0 .741.021.741.021 1.476 0 .734-.083.741-.083 1.482 0 .742.166.742.166 1.483 0 .742-.11.742-.11 1.483 0 .741.103.741.103 1.483 0 .741-.124.741-.124 1.476 0 .734-.104.741-.104 1.482 0 .742.145.742.145 1.483 0 .742.09.742.09 1.483 0 .741-.104.741-.104 1.483 0 .741.063.741.063 1.483 0 .741.027.741.027 1.482 0 .201-.235.333-.436.333s-.34-.132-.34-.333h.007ZM26.158 28.26c-.16 0-.346.028-.485-.062-.395-.257-.353-.742-.097-1.137.18-.284.34-.526.658-.492.569-.637.513-.679.97-1.392.458-.714.347-.797.811-1.51.464-.715.43-.735.894-1.456.11-.173.402-.014.568.097.173.11.305.229.194.395-.464.714-.478.707-.942 1.42-.464.714-.561.652-1.026 1.372-.464.721-.485.714-.907 1.456.048.083.124.235.145.325.049.222.125.478 0 .665l-.131-.083c-.16.25-.36.409-.645.409l-.007-.007Zm-5.862-1.344c-.034-.146-.014-.367-.166-.395-.804-.125-1.483-.54-1.822-1.012.443-.221 1.039-.395 1.427-.686.388-.29.658-.727.984-1.088.326-.36.54-.79.797-1.205.256-.416.693-.735.873-1.192.18-.457.242-.956.332-1.434.09-.478.16-.963.16-1.462 0-.527.035-1.074-.07-1.573-.103-.5-.512-.936-.706-1.407-.194-.47-.194-1.074-.485-1.503-.291-.43-.866-.63-1.234-.998a7.835 7.835 0 0 0-1.164-.977c-.43-.291-.79-.686-1.268-.887-.478-.201-1.011-.187-1.524-.291-.513-.104-.99-.312-1.518-.312-.526 0-1.046.076-1.545.173-.499.097-1.06.139-1.531.34-.471.2-.95.478-1.379.762-.43.284-.727.755-1.095 1.116a7.702 7.702 0 0 0-1.711 2.543c-.201.485-.381.949-.485 1.468-.104.52-.09 1.012-.09 1.539 0 .526.034 1.018.131 1.51s.104 1.047.291 1.51c.188.465.631.818.908 1.248.277.43.395.99.748 1.358.354.367.853.59 1.268.88.416.291.839.589 1.31.797.471.208.99.2 1.497.312.506.11 1.004.242 1.524.256.437.554.929.873 1.393 1.13.596.325 1.13.602 1.684.602.47 0 .942 0 1.31-.11.692-.215 1.066-.728 1.08-.735.125-.083.11-.139.076-.291v.014Zm-5.065-1.15c-.07-.09-.208-.077-.325-.077-.479 0-.922-.249-1.372-.34-.45-.09-.964-.04-1.393-.22-.43-.181-.825-.465-1.213-.721-.388-.257-.852-.465-1.185-.797-.332-.333-.679-.693-.942-1.088-.263-.395-.222-.95-.402-1.386-.18-.436-.457-.825-.547-1.289a7.276 7.276 0 0 1-.118-1.406c0-.485.166-.922.256-1.38.09-.456.201-.9.382-1.33.18-.43.353-.859.616-1.247.264-.388.464-.838.797-1.17.333-.333.797-.507 1.185-.77s.762-.533 1.199-.72c.436-.188.88-.312 1.344-.41a6.72 6.72 0 0 1 1.4-.159c.485 0 .935.125 1.385.215.45.09.963.076 1.393.256.43.18.804.506 1.192.77.388.263.824.485 1.157.817.332.333.534.783.797 1.171s.388.832.568 1.268c.18.437.45.825.547 1.289.097.464.229.922.229 1.4 0 .478-.146.928-.236 1.379-.09.45-.166.921-.34 1.35-.172.43-.373.867-.63 1.255-.256.388-.63.686-.956 1.018-.325.333-.693.596-1.08.86-.389.263-.756.52-1.186.706-.097.042-.228.118-.263.215s.173.16.222.25c.284.512.589 1.22 1.33 1.586-.388.139-.845.167-1.4.125-.443-.035-.921-.097-1.385-.402-.36-.229-.693-.575-1.033-1.04l.007.022Z"/></g><defs><clipPath id="a"><path fill="#fff" d="M7 10.5h33.405v28H7z"/></clipPath></defs></svg>