<svg xmlns="http://www.w3.org/2000/svg" fill="none" viewBox="0 0 48 49"><path fill="currentColor" fill-rule="evenodd" d="m22.3 14.814-.515.008a.395.395 0 0 1-.012-.79l.542-.007c.042-.102.1-.2.171-.29l-.356-.372a.395.395 0 0 1 .57-.545l.426.446c.146-.062.305-.11.473-.138l.019-.48a.395.395 0 0 1 .788.03l-.017.456c.157.029.306.074.443.132l.286-.402a.395.395 0 0 1 .643.457l-.293.412c.085.107.15.223.194.346l.814.02a.394.394 0 0 1-.02.79l-.819-.022a1.038 1.038 0 0 1-.029.063l.674.492a.395.395 0 0 1-.465.637l-.761-.556a1.912 1.912 0 0 1-.204.105l.182.538a.394.394 0 0 1-.746.253l-.21-.615a2.233 2.233 0 0 1-.691-.076l-.443.501a.395.395 0 0 1-.59-.522l.312-.354a1.256 1.256 0 0 1-.366-.517Zm1.679-.987c-.298 0-.569.08-.764.22-.145.102-.25.235-.25.392 0 .157.105.29.25.393.195.138.466.22.764.22.297 0 .568-.082.763-.22.145-.103.25-.236.25-.393 0-.157-.105-.29-.25-.393a1.331 1.331 0 0 0-.763-.219Zm9.102 4.542-.176.03a.395.395 0 0 1-.132-.778l.213-.036a.395.395 0 0 1 .285-.603l.147-.018a.395.395 0 0 1 .775-.095l.13-.016a.395.395 0 0 1 .44.43l.074-.012a.394.394 0 0 1 .132.777l-.133.023a.395.395 0 0 1-.245.294l-.065.025.048.224a.395.395 0 0 1-.77.168l-.023-.104-.164.063a.395.395 0 0 1-.536-.372Zm-.005-3.018c.249.034.517.222.452.488-.05.208.055.349-.13.414-.17.06-.199.066-.199.066-.037-.002-.234.029-.27.016a1.028 1.028 0 0 0-.473-.03c-.28.07-.563.18-.745.411-.137.173-.218.231-.236.377-.021.165-.118.547-.015.858.189.565.767.788.767.788.177.036.399.15.407.33l-.013.16c.004.078-.05.128-.09.195 0 0-.002.113-.206.226-.178.096-.413.197-1.05.02-.402-.113-.89-.572-1.141-.919-.335-.461-.336-.601-.406-1.093-.054-.378.12-.847.327-1.195.276-.463.29-.613.71-.838 1.041-.558 1.243-.42 2.312-.274Z" clip-rule="evenodd"/><path fill="currentColor" d="M23.982 14.815c.25 0 .452-.177.452-.396 0-.218-.202-.395-.452-.395s-.452.177-.452.395c0 .219.203.396.452.396Z"/><path fill="currentColor" fill-rule="evenodd" d="m23.629 20.97-1.149-.42a.394.394 0 0 1-.052-.718l1.124-.608-.042-.948a.394.394 0 0 1 .53-.387l1.178.433.893-.483a.395.395 0 0 1 .58.312l.065.737 1.15.423a.394.394 0 0 1 .042.721l-1.044.532.091 1.039a.394.394 0 0 1-.528.405l-1.394-.51-.844.43a.394.394 0 0 1-.573-.334l-.027-.625Zm-.045-1.01-.265.134.276.1-.01-.233Zm2.375 1.086.27.098-.023-.224-.247.126Zm-1.017-.367 1.176-.6-.064-.61-.865-.317-.832.42.04.91.545.197ZM18.472 20.551a.395.395 0 0 1 .633.471l-3.075 4.132a.395.395 0 0 1-.633-.47l3.075-4.133Z" clip-rule="evenodd"/><path fill="currentColor" fill-rule="evenodd" d="M16.164 21.591a.395.395 0 0 1 .289-.734l3.306 1.3a.394.394 0 0 1-.29.734l-3.305-1.3ZM24.714 27.062c-.03.354-.21.708-.707.935-.742.338-1.354.054-1.849-.597a.394.394 0 0 1 .628-.477c.245.322.526.524.894.356.232-.106.265-.291.24-.45-.033-.225-.15-.412-.15-.412a.394.394 0 0 1 .467-.58c.15.053.276.08.382.079.081 0 .143-.017.183-.06.065-.069.079-.172.081-.27a.732.732 0 0 0-.044-.284 1.853 1.853 0 0 0-.32-.066c-.383-.027-.81.04-.81.04a.395.395 0 0 1-.12-.78s.717-.107 1.23-.018c.339.06.595.219.706.43.106.202.177.538.135.857a1.136 1.136 0 0 1-.341.689c.165.025.373-.012.629-.153a.39.39 0 0 1 .073-.031s.256-.08.522-.054l.084.012a1.512 1.512 0 0 1-.459-.316 1.466 1.466 0 0 1-.413-.831.395.395 0 0 1 .785-.077s.004.026.018.067l.205-.256a.394.394 0 0 1 .616.493l-.212.265c.065.014.137.024.216.028a.395.395 0 0 1-.04.788 2.205 2.205 0 0 1-.441-.066.762.762 0 0 1 .208.168.843.843 0 0 1 .198.486c.046.461 0 1.12-.48 1.527-.304.258-.8.438-1.62.342a.394.394 0 0 1 .09-.783c.511.06.83 0 1.02-.16.262-.223.23-.597.205-.849a.284.284 0 0 0-.009-.042.65.65 0 0 0-.105-.012.714.714 0 0 0-.125.016c-.54.283-.969.27-1.288.17a1.39 1.39 0 0 1-.282-.124Z" clip-rule="evenodd"/><path fill="currentColor" fill-rule="evenodd" d="m14.645 34.012-3.954-1.524a.393.393 0 0 1-.073-.038c-3.738-2.442-1.406-6.328-1.406-6.328a.422.422 0 0 1 .033-.046L22.02 10.44a.404.404 0 0 1 .053-.053c.477-.397.999-.205 1.142-.14l14.666 5.342c.063.023.12.063.164.114l.233.272a.394.394 0 0 1 .003.51c-.535.639-.542 1.747-.215 2.885.285.99 1.002 1.098 1.002 1.098a.394.394 0 0 1 .284.618L27.14 38.51a.394.394 0 0 1-.465.142l-8.709-3.359-1.883 2.582a.394.394 0 0 1-.713-.235l.012-1.543-1.818.831a.394.394 0 0 1-.491-.578l1.572-2.338Zm3.802.621 8.225 3.172 11.734-16.743c-.381-.203-.852-.62-1.098-1.473-.197-.686-.275-1.36-.228-1.966l-9.775 14.146a.394.394 0 0 1-.464.145L11.414 26.05c-.31-.1-.6.038-.845.215a3.32 3.32 0 0 0-.769.835.393.393 0 0 1-.247.177c-.375 1.071-.678 3.068 1.462 4.49l4.081 1.573.687-1.02-4.271-1.7a.395.395 0 0 1 .292-.734l4.43 1.764.723-1.076-5.505-2.147a.395.395 0 0 1 .287-.735l11.807 4.605a.394.394 0 0 1-.286.734l-2.838-1.106-.788 1.079 3.775 1.503a.394.394 0 0 1-.292.732l-3.962-1.577-.708.97Zm7.47-1.966a.395.395 0 0 1 .697.369s-.897 1.688.386 3.01a.395.395 0 0 1-.567.55c-1.673-1.727-.517-3.928-.517-3.928Zm11.217-16.51L22.93 10.985a.38.38 0 0 1-.056-.025s-.138-.073-.272.017L10.935 25.254c.238-.043.487-.033.74.053l.014.005 15.143 5.755 10.302-14.91Z" clip-rule="evenodd"/></svg>