<svg xmlns="http://www.w3.org/2000/svg" fill="none" viewBox="0 0 48 49"><path fill="currentColor" fill-rule="evenodd" d="m25.856 23.556 7.244 7.06c.452-1.01 2.296-5.127 2.76-6.24.564-1.354 1.99-2.523 1.99-2.523a.686.686 0 0 1 .016-.013l6.933-5.058a.394.394 0 0 1 .465.637l-6.925 5.052c-.113.094-1.279 1.075-1.751 2.209-.532 1.275-2.87 6.483-2.87 6.483a.392.392 0 0 1-.15.172c.144.486.256 1.345-.432 2.003-.517.494-1.114.547-1.575.478a.417.417 0 0 1-.013-.002l.001.014c.05.46-.014 1.057-.47 1.6-.383.456-.907.596-1.404.585a2.801 2.801 0 0 1-.473-.053c.028.374-.072.833-.51 1.291-.393.41-.889.55-1.347.56a2.783 2.783 0 0 1-.522-.039c.01.331-.066.62-.2.863-.323.59-1.009.931-1.753.931-.48 0-.976-.262-1.388-.6a5.544 5.544 0 0 1-.68-.676l-.483.462a1.8 1.8 0 0 1-3.031-1.082 1.801 1.801 0 0 1-2.62-1.794 1.953 1.953 0 0 1-2.483-1.904 1.98 1.98 0 0 1-1.914-3.29l-1.914-2.102c-.236-.169-1.061-.916-1.68-3.427-.628-2.543-1.826-3.415-1.826-3.415a.433.433 0 0 1-.04-.032l-4.068-3.75a.395.395 0 0 1 .535-.58l4.05 3.734c.188.14 1.452 1.17 2.114 3.854.614 2.49 1.366 2.97 1.366 2.97a.39.39 0 0 1 .099.078l1.932 2.122 1.132-1.083a1.981 1.981 0 0 1 3.349 1.497 1.953 1.953 0 0 1 2.33 2.353 1.798 1.798 0 0 1 2.059 1.805 1.8 1.8 0 0 1 1.663 3.038c.144.172.358.406.61.612.268.22.576.421.888.421.444 0 .87-.169 1.062-.52.127-.233.14-.536.015-.903a.394.394 0 0 1-.02-.153l-2.828-2.956a.395.395 0 0 1 .57-.545l3.113 3.254.008.009c.148.035.337.065.537.06.269-.006.565-.076.795-.317.537-.561.145-1.12.145-1.12a.396.396 0 0 1-.057-.109l-4.589-3.965a.395.395 0 0 1 .516-.597l4.816 4.163c.176.062.45.14.74.147.274.006.57-.052.782-.304.422-.503.313-1.08.224-1.354l-5.667-5.03a.395.395 0 0 1 .524-.59l5.517 4.897a.396.396 0 0 1 .11.042s.798.465 1.408-.118c.523-.5.252-1.196.162-1.39l-8.189-7.98c-.802-.013-1.162.22-1.162.22s-.796.727-2.862 1.924c-1.121.649-2.03.731-2.743.579-.728-.156-1.263-.563-1.624-.925-.295-.295-.373-.574-.366-.808.015-.519.53-.87.581-.904l-.024.016 7.337-5.228c-1.317-.096-3.8-.258-5.84-.282-2.99-.036-4.464-1.634-4.6-1.789l-3.987-4.023a.395.395 0 0 1 .56-.555l3.997 4.032a.441.441 0 0 1 .02.023s1.291 1.49 4.02 1.523c2.948.036 6.819.355 6.819.355l.013.002.39-.279c.027-.02.672-.51 3.832-.325 2.714.16 3.37-.649 3.37-.649a.4.4 0 0 1 .034-.041l7.216-7.64a.394.394 0 0 1 .573.541l-7.198 7.622c-.13.165-1.019 1.132-4.041.955-2.45-.145-3.279.162-3.334.184l-8.723 6.216a.424.424 0 0 1-.028.018s-.054.034-.109.09c-.038.04-.088.092-.09.161-.002.07.047.14.135.227.275.276.678.593 1.232.712.569.121 1.288.027 2.183-.491 1.82-1.054 2.606-1.72 2.714-1.814.084-.09.71-.66 2.57-.356 1.122.183 2.536.504 3.63-.265.453-.319.842-.83 1.136-1.608a.395.395 0 0 1 .738.28c-.363.96-.86 1.58-1.42 1.973-1.097.771-2.465.667-3.657.487Zm-10.74 9.883a1.165 1.165 0 0 0 1.827 1.398l1.611-1.544a1.165 1.165 0 0 0-1.553-1.732 1.977 1.977 0 0 1-.29.35l-1.596 1.528Zm5.553 1.91a1.011 1.011 0 0 0-1.459-1.398l-1.453 1.392a1.011 1.011 0 0 0 1.399 1.46l.593-.568c.025-.028.052-.055.08-.081l.84-.805Zm-4.284-4.294a1.193 1.193 0 0 0-1.869-1.435l-1.64 1.572a1.192 1.192 0 0 0 1.618 1.75c.082-.128.18-.247.293-.355l1.598-1.532Zm3.93 5.73a1.011 1.011 0 0 0 1.458 1.398l1.036-.993a1.012 1.012 0 0 0-1.398-1.46l-.176.169a1.88 1.88 0 0 1-.08.081l-.84.805Z" clip-rule="evenodd"/></svg>