<svg width="48" height="48" viewBox="0 0 48 48" fill="none" xmlns="http://www.w3.org/2000/svg">
<path fill-rule="evenodd" clip-rule="evenodd" d="M41.9643 9.15539H41.9286V8.93854L42 8.90313L41.9643 8.34847H41.9286C41.9182 8.27766 41.9643 8.27766 41.9643 8.27766L41.9286 7.7466H41.8929V7.67579H41.8572V7.46337H41.8156V7.25094L41.7442 7.21554V7.14473H41.7085V7.07392H41.6728V6.92641H41.6371V6.77889H41.6014C41.579 6.6948 41.643 6.683 41.6371 6.63137H41.6014V6.57827H41.5657V6.43075H41.53C41.4928 6.35257 41.521 6.34372 41.4586 6.28323C41.3961 6.22275 41.2265 6.28324 41.1016 6.24783V6.21242H40.9945L40.9588 6.14162H40.4233V6.10621H40.0306V6.14162H39.8164V6.10621C39.7316 6.08408 39.7242 6.13867 39.6676 6.14162V6.10621H39.5962V6.07081L38.9893 6.03541L38.9536 6.10621H38.5609V6.07081C38.5467 6.06614 38.5313 6.06724 38.5179 6.07388C38.5045 6.08051 38.4943 6.09214 38.4895 6.10621L38.204 6.07081V6.03541L38.0255 6V6.03541L37.6328 6.07081V6.10621C37.5359 6.08976 37.4404 6.06609 37.3472 6.03541H36.776V6.07081L36.5618 6.03541V6.07081H36.3565V6.10621H36.2851V6.14162H36.1364V6.17702L35.7437 6.21242V6.24783L35.3153 6.28323L35.2796 6.35404L35.1011 6.38945V6.43075H34.8869V6.46615H34.8512V6.43075H34.7024L34.6667 6.50156C34.5611 6.54434 34.4436 6.45288 34.3811 6.46615V6.50156H34.274V6.53696C34.2294 6.53696 34.2145 6.47943 34.1253 6.50156V6.53696H33.8575L33.8218 6.60777H33.6731V6.64318H33.6017L33.566 6.71399L33.3161 6.74939L33.2804 6.8202H33.0662C33.0662 6.8202 33.0662 6.85708 32.9948 6.8556C32.971 6.8379 32.9948 6.8025 32.9234 6.8202V6.8556H32.8163V6.891L32.495 6.96181V6.99722H32.4593V6.96181L32.138 7.03262V7.06802H32.0666L31.9179 7.24504H31.7156V7.28045H31.5014L31.4657 7.35125H31.3169V7.38666L31.2098 7.45747L31.1741 7.56368H31.1057V7.59909H30.9272V7.63449C30.7591 7.68759 30.7234 7.61384 30.6059 7.7407C30.5092 7.76725 30.5256 7.74808 30.4988 7.84691L30.3917 7.88232V7.91772H30.3203V7.95313H30.2489L30.2132 8.02393L29.9633 8.09474V8.13014L29.8562 8.16555L29.7848 8.27176H29.6361L29.6004 8.34257L29.3862 8.37797V8.44878L29.2374 8.48419L29.2017 8.55499L29.053 8.5904L29.0173 8.6612H28.8685L28.7614 8.80872H28.69L28.6543 8.91493L28.577 8.93854L28.5056 9.04475H28.4282L28.3568 9.15096H28.2497V9.18636H28.1783V9.23357C28.037 9.29553 28.0207 9.19374 27.9641 9.38109L27.8154 9.41649V9.4873C27.7068 9.51238 27.741 9.54188 27.7083 9.55811H27.5595V9.59351C27.4629 9.62006 27.4792 9.59351 27.4524 9.69972L27.3037 9.73513C27.2531 9.9151 27.1758 9.82954 27.1252 9.91215V9.97115C26.9393 10.0243 27.024 10.1349 26.8039 10.1836V10.2544C26.7013 10.2795 26.6864 10.2913 26.6552 10.4019L26.3339 10.5081L26.2625 10.6143H26.1911L26.1197 10.7205H26.0126L25.9412 10.8267H25.8341L25.4771 11.2162H25.4057V11.2516H25.3343L25.2629 11.3578C25.1424 11.4286 25.1424 11.2988 25.0844 11.5053C24.9966 11.5304 25.0264 11.523 24.9773 11.5761H24.9416V11.6469L24.8345 11.7178C24.7095 11.8918 24.6575 12.0526 24.4061 12.1072C24.3525 12.2754 24.3763 12.1456 24.2573 12.2134L24.1859 12.3196H24.1145L23.7575 12.7445C23.64 12.8168 23.6385 12.684 23.579 12.892C23.4764 12.9171 23.4615 12.9289 23.4303 13.0395C23.1908 13.072 23.3187 13.1546 23.2161 13.2165H23.1447L23.109 13.364H23.0376L23.0019 13.5116C22.7951 13.5691 22.9379 13.6163 22.8532 13.7594H22.8175C22.7356 13.87 22.6404 13.8612 22.6033 14.0072H22.5319V14.0426L22.4248 14.1134V14.1842L22.2106 14.3613H22.1808V14.4675C21.9785 14.525 22.1124 14.5693 22.0321 14.7153C21.9517 14.8613 21.7212 14.9543 21.6751 15.1401C21.5784 15.1667 21.5947 15.1401 21.568 15.2464C21.5113 15.2571 21.4584 15.2824 21.4146 15.3197C21.3708 15.3569 21.3375 15.4049 21.3181 15.4588H21.2467V15.5296L21.0682 15.6004L21.0325 15.7479L20.9254 15.8187V15.9957C20.915 16.0193 20.8793 15.9957 20.854 16.102C20.7513 16.127 20.7365 16.1388 20.7052 16.2495C20.5476 16.2893 20.5223 16.397 20.4553 16.5327H20.4196L20.3839 16.7451L20.2352 16.8513L20.1995 16.9575L20.0924 16.993L20.0567 17.0992L19.9496 17.1346L19.9139 17.2821L19.8425 17.3175L19.8068 17.4945L19.7354 17.5299V17.6361L19.664 17.6715L19.6283 17.819H19.5569L19.5212 17.9253L19.3427 18.0728V18.0846C19.1434 18.1362 19.2698 18.1451 19.194 18.2616L19.0869 18.3324V18.4386L19.0155 18.474V18.5802H18.9798C18.9307 18.6451 18.895 18.6614 18.8727 18.7573C18.6733 18.8089 18.7998 18.8192 18.7239 18.9343H18.6882L18.6168 19.0405C18.4945 18.9996 18.3752 18.9503 18.2598 18.893L17.8671 18.8576V18.8222H17.7957L17.76 18.7514L17.0163 18.716V18.7514H16.9806V18.716C16.8958 18.6879 16.8408 18.7042 16.7307 18.6805V18.6451C16.7158 18.6451 16.6042 18.7042 16.5165 18.6805V18.6451L15.8382 18.6097V18.6451H15.5526V18.6746L15.4455 18.6392V18.6038H15.1242V18.6392H14.8743V18.6746H14.7672V18.71H14.5887V18.7455L13.9818 18.7809V18.8222L13.8331 18.8576V18.893L13.5118 18.9638V18.9992H13.4404L13.4047 19.07L13.2262 19.0346V19.07H13.1548V19.1054L12.9406 19.1408L12.8692 19.247H12.7978V19.2824L12.649 19.3178V19.3532H12.5122V19.3886H12.4408V19.424L12.3337 19.4594V19.5302C12.2347 19.5547 12.1389 19.5904 12.0481 19.6365L11.941 19.784H11.8696V19.8194H11.7982L11.7268 19.8902H11.6554L11.584 20.0377H11.4353L11.3996 20.1085H11.3282L11.2211 20.2855H11.1497L11.0783 20.3917H11.0069V20.4271C10.9548 20.4758 10.9607 20.4448 10.9355 20.5334C10.7599 20.5452 10.7867 20.6042 10.6499 20.6396C10.6261 20.7355 10.6023 20.7192 10.5785 20.8166C10.4818 20.8431 10.4981 20.824 10.4714 20.9228C10.3821 20.9464 10.4134 20.9405 10.3643 20.9936H10.3286V21.0644L10.1798 21.1706V21.206L10.0311 21.2414L9.95967 21.3476H9.88827L9.81688 21.4539H9.74547V21.4775L9.59673 21.5837V21.6545L9.48963 21.7253L9.27543 21.9731C9.23378 22.0085 9.18767 21.9731 9.12668 22.0085V22.0439C9.03854 22.102 8.97501 22.1902 8.94818 22.2918C8.80687 22.3272 8.79944 22.395 8.73399 22.5042H8.69829V22.575H8.66259C8.61082 22.6228 8.5737 22.6842 8.55549 22.752H8.48409C8.46422 22.8288 8.42392 22.8989 8.3674 22.9549C8.31088 23.011 8.24022 23.0509 8.1628 23.0706C8.11073 23.2595 7.95604 23.3037 7.9129 23.5309H7.8415C7.74069 23.6948 7.66829 23.8743 7.6273 24.062H7.5559C7.54044 24.1239 7.51641 24.1835 7.4845 24.239L7.33576 24.2744L7.30006 24.3806C7.30761 24.3821 7.31471 24.3853 7.32083 24.3899C7.32695 24.3946 7.33192 24.4005 7.33536 24.4073C7.33881 24.4142 7.34063 24.4217 7.3407 24.4293C7.34077 24.437 7.33908 24.4445 7.33576 24.4514L7.26436 24.4868L7.22866 24.8054C7.26223 24.8972 7.28616 24.9921 7.30006 25.0887C7.42054 25.1241 7.36848 25.13 7.44881 25.1949V25.2303H7.5559V25.2657H7.9129V25.3011H8.06165V25.3365C8.12334 25.3418 8.18527 25.3296 8.24015 25.3011L8.27585 25.3719L8.70424 25.4073V25.4427H8.85299V25.4781H9.00173V25.5135H9.28733V25.5489H9.39443V25.5843C9.52384 25.6256 9.67705 25.5696 9.78712 25.6197L9.85852 25.5843L9.92992 25.6905H10.2155V25.7259H10.4297V25.7555H10.7272V25.7909H10.8343V25.8263H11.1913V25.8617H11.2627V25.8263H11.2984V25.8617H11.3698V25.903C11.4948 25.9354 11.4784 25.8454 11.5186 25.8322H11.6971L11.7327 25.9797H11.8398V26.0151H12.2325V26.0505L12.3396 26.0151L12.3753 26.0859L12.9465 26.1213L12.9822 26.1921H13.131V26.2275H13.3095V26.2629H13.7379V26.2983H13.9878V26.3337H14.0592V26.3691H14.559L14.6304 26.4753H14.7791V26.5107H15.1361L15.1718 26.5815H15.3503V26.6169C15.4306 26.6317 15.4857 26.5476 15.6002 26.5815V26.6169H15.7489L15.7846 26.6878H15.9334V26.7232H16.219L16.2904 26.8294L16.3975 26.8648C16.4882 26.9297 16.4674 27.0049 16.6117 27.0418V27.148H16.6474V27.1834H16.7961L16.8318 27.2542H16.9389C16.9493 27.2542 16.9731 27.3059 17.0103 27.325V27.3958L17.1174 27.4312V27.5021L17.2245 27.5729V27.6083H17.3316L17.403 27.7145H17.4744C17.4967 27.7292 17.5027 27.7617 17.5458 27.7853C17.498 27.9552 17.4126 28.1124 17.2959 28.2455V28.3163L17.1174 28.4226V28.5288L17.0103 28.5996V28.6704L16.9032 28.7412V28.8474H16.8318C16.8193 28.9381 16.7823 29.0237 16.7247 29.0952L16.6533 29.1306V29.2014L16.5462 29.2723V29.3785L16.4748 29.4139L16.4391 29.5614L16.332 29.6322V29.7384L16.2606 29.7738V29.8446H16.2249V29.9508L16.1178 30.0216L15.9393 30.5527H15.8679L15.8322 30.7002C15.7608 30.7209 15.8025 30.7002 15.7608 30.7356H15.7251V30.8831L15.6537 30.9185V31.0661H15.618L15.5823 31.2136C15.5109 31.2342 15.5526 31.2136 15.511 31.249H15.4752L15.4395 31.426H15.4039V31.4968H15.3682V31.5676L15.2611 31.6384V31.7859L15.1897 31.8213C15.1108 32.0028 15.2863 32.0072 15.154 32.14V32.317H15.1897V32.3524H15.2968C15.3235 32.4512 15.3607 32.4542 15.4039 32.5294C15.4767 32.5427 15.4752 32.5648 15.4752 32.5648H15.6537V32.6002H15.9036V32.6356H15.9334V32.671L16.5403 32.6356L16.576 32.5648L17.2186 32.4173V32.3819H17.29L17.3614 32.2757H17.4685L17.5042 32.2049H17.6113V32.1695H17.6827V32.1341H17.8671L17.9385 32.0279H18.0456L18.117 31.9217H18.2658V31.8863C18.3952 31.8213 18.4725 31.8272 18.5157 31.6738L18.6228 31.6384V31.603H18.6942L18.7299 31.5322H18.837V31.4968H18.9084L18.9441 31.426H19.0155L19.0869 31.3198H19.2356L19.307 31.2136C19.3992 31.1664 19.5078 31.2136 19.5926 31.1428C19.6908 31.1147 19.6744 31.1339 19.6997 31.0366C19.8306 31.0233 19.8484 31.0085 19.8782 30.889L19.9853 30.8536V30.8182H20.0924V30.7828C20.1906 30.7548 20.1742 30.774 20.1995 30.6766L20.3482 30.6412C20.3705 30.5704 20.3482 30.6102 20.3839 30.5704C20.4494 30.7091 20.4494 30.6692 20.5624 30.7474L20.5981 30.8182L20.7052 30.8536C20.7975 30.9407 20.732 30.9923 20.7766 31.0661L20.8837 31.1015L20.9194 31.1723H20.9908V31.2136L21.0979 31.249L21.1336 31.3198H21.205C21.324 31.4053 21.2333 31.485 21.4549 31.5322C21.466 31.6903 21.5022 31.8456 21.562 31.9925L21.5977 32.3111H21.562V32.3465H21.5977V32.5235H21.6334V32.6297H21.6691L21.6334 32.7359H21.6691V32.9484H21.7048V33.1313H21.7405V33.3083H21.7762L21.7405 33.5915H21.7762V33.7391H21.8119V33.8453H21.8476L21.8833 34.0577C21.8694 34.0627 21.8579 34.0729 21.8512 34.086C21.8446 34.0992 21.8433 34.1144 21.8476 34.1285H21.8833V34.276H21.919V34.3822H21.9547L21.9904 34.7717L22.0618 34.8071V34.9546H22.0975V35.167H22.1332C22.1436 35.2246 22.099 35.229 22.0975 35.2378L22.1332 35.6273H22.0975V35.8751H22.1332V35.9813H22.1689V36.1288H22.1808L22.2165 36.4829H22.2522V36.5242L22.3236 36.5596V36.7071H22.3593L22.3236 36.8133H22.2879L22.3236 37.4506H22.3593V37.5214H22.395L22.4307 37.8046C22.4172 37.8102 22.4061 37.8204 22.3996 37.8334C22.393 37.8464 22.3914 37.8613 22.395 37.8754H22.4307V38.0525H22.4664V38.1469H22.5021V38.2944H22.5378L22.5735 38.6838H22.6092V39.032H22.6449V39.1028H22.6806V39.2798C22.6806 39.2931 22.7327 39.2872 22.7163 39.3506H22.6806V39.386H22.7163V39.563H22.752C22.7877 39.6589 22.7639 39.7754 22.8234 39.8463C22.8234 40.0233 22.8502 40.0705 22.9722 40.1295H23.0733V40.1649C23.1596 40.2283 23.2027 40.3124 23.3232 40.3419V40.3773L23.5731 40.3065L23.6088 40.2357L23.823 40.1649V40.1295H23.9717L24.0788 39.9525H24.2276V39.9171L24.3763 39.8817V39.8463H24.4477L24.4834 39.7755H24.5548L24.6262 39.6692H24.6976L24.7333 39.5984H24.8047L24.8404 39.5276H24.9118V39.4922L25.0189 39.4568L25.0546 39.386H25.126L25.4116 39.0674C25.5485 38.9464 25.7433 38.9671 25.8043 38.7487C26.0155 38.703 26.0378 38.5525 26.1613 38.4301C26.2282 38.3637 26.3234 38.3342 26.3755 38.2531H26.4469C26.4722 38.1557 26.496 38.1719 26.5183 38.0761L26.6968 38.0407L26.8039 37.8931H26.8396V37.8223L26.911 37.7869C27.0324 37.6854 27.1196 37.5495 27.1609 37.3975H27.2323C27.253 37.3307 27.2898 37.27 27.3394 37.2205H27.3751L27.4108 37.0434L27.4822 37.008L27.6964 36.7248H27.7678C27.8079 36.5773 27.9269 36.4917 27.982 36.3708L28.0177 36.1937L28.0891 36.1583V36.0108L28.1605 35.9754V35.8279L28.2676 35.7571L28.3033 35.6509H28.339L28.3747 35.4385H28.4104V35.3676H28.4282V35.2614L28.5353 35.226C28.5844 35.1847 28.577 35.1124 28.6067 35.049H28.6424V34.8366H28.6781V34.7658H28.7138L28.7495 34.5888H28.7852V34.3409H28.8209L28.8566 34.1285H28.8923V34.0577H28.928V33.7745L28.9994 33.7391V33.5915H29.0351L29.0708 33.1667H29.1779C29.2174 33.0769 29.2415 32.9811 29.2493 32.8835H29.2136V32.7064C29.2925 32.4262 29.3534 31.9497 29.2493 31.6738H29.3207C29.3603 31.5725 29.3726 31.4627 29.3564 31.3552H29.3207V31.249H29.285L29.2493 30.2577H29.2136V30.1869L29.1422 30.1515V29.9744H29.1065C29.1032 29.9604 29.105 29.9456 29.1115 29.9326C29.118 29.9197 29.1289 29.9094 29.1422 29.9036C29.1511 29.8254 29.1065 29.8328 29.1065 29.8328V29.6558L29.0351 29.6204V29.5909H28.9994V29.4434L28.928 29.408C28.9355 29.3652 28.9935 29.3416 28.9637 29.2605H28.928V29.1896L28.8209 29.1188V28.9713H28.7852V28.9359L29.1065 28.8297L29.2553 28.6527H29.3207V28.6173H29.3921L29.4278 28.5465H29.4992V28.5111C29.5974 28.4491 29.5647 28.5435 29.6063 28.4049L29.7134 28.3695V28.334H29.7848V28.2986L29.9633 28.2632L30.1121 28.0862L30.2906 28.0508L30.3263 27.98L30.4334 27.9446V27.9092C30.4765 27.9166 30.4988 27.9726 30.5821 27.9446V27.9092H30.6535V27.8738H30.7249L30.9034 27.6614H30.9748L31.0105 27.5906H31.1057L31.1771 27.4843H31.2544L31.3258 27.3781H31.3972L31.5043 27.2306H31.6828V27.1952H31.7542L31.8256 27.089H31.897L31.9684 26.9828C32.0993 26.8928 32.2035 26.9149 32.254 26.735C32.3097 26.7269 32.3616 26.7022 32.4028 26.6642V26.6406H32.4742V26.6052L32.6229 26.4989L32.6586 26.4281L32.8074 26.3927V26.3573C32.9457 26.2791 33.0513 26.2423 33.1287 26.1095H33.2001C33.2506 25.9443 33.3637 26.0107 33.4143 25.8263C33.5184 25.7997 33.5333 25.7879 33.563 25.6787C33.7118 25.6374 33.6359 25.6065 33.7415 25.5312V25.4958C33.7787 25.4958 33.8441 25.5666 33.92 25.5312L34.277 25.1064H34.3484L34.3841 24.9589C34.6132 24.95 34.7084 24.7656 34.7768 24.6048H34.8244C34.8512 24.5016 34.8631 24.4868 34.9731 24.4573C35.0579 24.1401 35.4328 24.003 35.5086 23.7197H35.6871L35.7585 23.6135L35.8656 23.5781L35.9013 23.4719L36.0084 23.4011V23.3303L36.2583 23.1179L36.294 22.9703L36.3654 22.9349L36.4011 22.8287L36.5082 22.7579L36.5439 22.6104C36.59 22.5558 36.654 22.6104 36.7224 22.575C36.7898 22.5042 36.8405 22.4196 36.8712 22.3272H37.0199C37.0292 22.2723 37.054 22.2212 37.0913 22.1796H37.127C37.1783 22.0804 37.238 21.9856 37.3055 21.8964L37.4126 21.8256L37.4483 21.6781L37.5554 21.6073V21.5365L37.6625 21.4657V21.3949C37.7146 21.3063 37.78 21.2724 37.8113 21.147C37.9853 21.1057 37.96 21.0261 38.1326 20.9995C38.1434 20.9451 38.1679 20.8944 38.204 20.852H38.2396V20.7458H38.2456V20.7399H38.2813V20.6691L38.3527 20.6337C38.473 20.4895 38.5585 20.32 38.6026 20.138H38.674L38.7097 20.0318H38.7454V19.961H38.7811L38.8882 19.6424L38.9953 19.5715C39.0399 19.4845 38.9834 19.3931 39.031 19.3237L39.2452 19.1762V19.1054H39.2868V19.0346H39.3225V18.9284H39.3582V18.8576H39.3939V18.7868H39.4296V18.716H39.4653L39.501 18.6097H39.5367L39.501 18.5035C39.5873 18.4814 39.5799 18.4652 39.6498 18.4327C39.6899 18.2601 39.7866 18.1377 39.7985 17.9371C39.98 17.8869 39.9101 17.7895 39.977 17.6538H40.0127V17.583L40.0841 17.5476L40.1198 17.4001H40.1555L40.1793 17.1995H40.215C40.2613 17.152 40.2869 17.0885 40.2864 17.0225L40.3935 16.9871L40.4292 16.8395H40.4649V16.6271H40.5006V16.5209H40.5363V16.4147H40.572V16.3439H40.6077V16.1964H40.6434V16.1256H40.6791V16.0193H40.7148V15.7715H40.7505V15.624L40.8219 15.5886V15.3762L40.929 15.3054L40.9647 14.9159C41.0146 14.8149 41.0506 14.7077 41.0718 14.5973C41.1432 14.5752 41.1031 14.5973 41.1432 14.5619C41.2622 14.4424 41.1625 14.314 41.2146 14.137H41.2503V13.96H41.286C41.3187 13.8449 41.2369 13.7815 41.2503 13.7122H41.286V13.5116L41.3574 13.4762V13.364H41.3931V13.01H41.4288V12.9038L41.5002 12.8684L41.5359 12.4435H41.5716V12.296L41.643 12.2606V12.1131H41.6787V11.8889H41.7144V11.8535H41.6787V11.706H41.7144V11.6351H41.7501V11.4876H41.7858L41.7501 11.2398H41.7858V11.0274H41.8156V10.9566H41.8513V10.3901C41.9097 10.2814 41.9226 10.1541 41.887 10.0361L41.9941 10.0007V9.61121C41.9776 9.59945 41.9654 9.58287 41.9589 9.56381C41.9525 9.54476 41.9523 9.52418 41.9583 9.505H41.9941V9.23357H41.9643V9.15539ZM25.8608 12.2709C25.9881 12.1868 26.0973 12.0785 26.1821 11.9523H26.2535C26.3071 11.7827 26.2848 11.9139 26.4023 11.8461V11.8107L26.6165 11.6337V11.5629C26.7147 11.5348 26.6983 11.554 26.7236 11.4566C26.9051 11.4316 26.856 11.3549 27.0092 11.3091C27.0612 11.1292 27.1371 11.2132 27.1877 11.1321V11.0613C27.3885 11.0613 27.381 11.1026 27.4733 11.2088L27.5447 11.2442V11.3917H27.5804C27.6324 11.4581 27.625 11.4699 27.7291 11.498V11.5938L28.0504 11.8417V11.8889H28.1218C28.1371 11.981 28.1789 12.0668 28.2422 12.1359C28.3056 12.205 28.3877 12.2545 28.4788 12.2783V12.3491C28.6008 12.3845 28.5457 12.3919 28.6276 12.4553V12.4789H28.8061V12.5143H28.8417C28.8789 12.6147 28.8611 12.7002 28.9488 12.7622C28.9027 12.833 28.8328 12.8492 28.7703 12.9097L28.7346 12.9805H28.6276L28.5205 13.128H28.4282L28.3925 13.1988C28.2691 13.2682 28.272 13.1428 28.214 13.3463H28.1426V13.364H28.1069V13.4349L28.0355 13.4703V13.5411L27.8868 13.6119V13.6827L27.8154 13.7535H27.744L27.7083 13.8243H27.6369V13.8597C27.5402 13.9202 27.57 13.8258 27.5298 13.9659H27.4941C27.407 13.821 27.2987 13.6898 27.1728 13.5765V13.5116H27.1014V13.4762L26.9943 13.4053V13.3345L26.7801 13.1575V13.0867L26.5302 12.9097C26.4588 12.8123 26.49 12.7622 26.3517 12.7327C26.313 12.5852 26.3368 12.6884 26.2446 12.6265V12.5911L26.1375 12.5556V12.4789L25.9233 12.4081C25.904 12.3949 25.898 12.3595 25.8519 12.3373L25.8608 12.2709ZM29.6093 17.0859V17.1567H29.6807V17.3042C29.7789 17.3308 29.7625 17.3116 29.7878 17.4104C29.9603 17.4503 29.9588 17.5476 30.1091 17.5874C30.1314 17.673 30.1463 17.6656 30.1805 17.735H30.2132L30.1775 17.8412H30.1418V17.9887C30.0124 18.0211 30.0659 18.0521 29.8919 18.0595L29.8562 18.1657C29.7595 18.1923 29.7759 18.1731 29.7491 18.2719C29.6465 18.297 29.6316 18.3088 29.6004 18.4194H29.529C29.4873 18.4445 29.4858 18.5566 29.4576 18.5965H29.4219L29.3148 18.744C29.227 18.8104 29.2478 18.7041 29.2077 18.8502C29.0771 18.8828 28.9553 18.9432 28.8507 19.0272C28.8016 18.9402 28.7168 18.9107 28.6722 18.8502L28.6365 18.744L28.5294 18.6732V18.6024L28.4223 18.5316L28.3866 18.4253H28.3152L28.1664 18.2483L28.0593 18.2129V18.1421L27.9522 18.0713V17.9371L27.8451 17.9017L27.7737 17.7954L27.5952 17.76V17.7246C27.547 17.6793 27.4832 17.654 27.4167 17.6538C27.3781 17.5063 27.3082 17.5166 27.2025 17.4414L27.0954 17.2939L27.024 17.2585L26.9883 17.111L26.8396 17.0048V16.9339L26.7325 16.8631V16.7569L26.5838 16.7215V16.6507C26.5585 16.6079 26.4454 16.6079 26.4053 16.5799C26.3294 16.5253 26.3368 16.4324 26.2268 16.3675V16.3144C26.4127 16.2318 26.609 16.186 26.6552 15.9603C26.7935 15.9249 26.7637 15.8792 26.8337 15.7833H26.8693L26.9407 15.6771H27.0121V15.6063L27.1192 15.6417C27.2412 15.4942 27.448 15.4219 27.5476 15.2523H27.6845C27.7224 15.3675 27.7977 15.4671 27.8987 15.5355L27.9344 15.6063H28.0058V15.6417C28.0543 15.6927 28.1161 15.7295 28.1843 15.7479V15.8187H28.22L28.3985 16.0311H28.4699L28.5056 16.102L28.7555 16.3144V16.3852H28.8269V16.456C28.958 16.5023 29.0707 16.5892 29.1482 16.7038L29.2196 16.7392V16.81L29.6093 17.0859ZM16.4719 22.9276L16.4362 23.1046L16.3291 23.1754V23.3229L16.222 23.3937V23.4645L16.0732 23.5707V23.7182H16.0375V23.7891H16.0018V23.9366L15.9304 23.972V24.1195L15.859 24.1549V24.3319H15.8233V24.4027H15.7876L15.7519 24.8276H15.7162V24.9751H15.6805V25.0179H15.6448V25.4781H15.6091V25.5135C15.4676 25.5401 15.3223 25.5401 15.1807 25.5135V25.4781L14.9665 25.4427V25.4073C14.9523 25.404 14.9374 25.4058 14.9244 25.4122C14.9113 25.4187 14.901 25.4295 14.8951 25.4427L14.6809 25.4073V25.4427H14.4667V25.4073H14.3953V25.3719H14.2466L14.2109 25.3011C14.1335 25.2701 14.1172 25.3291 14.1038 25.3365H14.0681V25.3011H13.6873L13.6516 25.2303H13.4731L13.4374 25.1595L13.0804 25.1241V25.1654H13.0447V25.13L12.6163 25.0946V25.0592L12.2593 25.0238L12.2236 24.953L11.8666 24.9176V24.953L11.7595 24.9884V24.953L11.581 24.9176V24.8704C11.5052 24.8438 11.4724 24.9176 11.4323 24.9058L11.3966 24.8349L11.2181 24.7995V24.7641H11.1467V24.7287C11.0649 24.7007 11.0589 24.7523 11.0396 24.7641H11.0039V24.7287H10.6112L10.5755 24.6579H10.3613V24.6225L10.04 24.5871C10.04 24.5871 10.0281 24.6358 9.9686 24.6225V24.5871H9.7901V24.5517H9.68598V24.5163C9.58053 24.5427 9.47012 24.5427 9.36468 24.5163V24.4809H9.21593V24.4455H9.14453V24.4101L8.82324 24.3747V24.4101H8.79349V24.3747C8.71273 24.3459 8.62435 24.3459 8.54359 24.3747C8.59565 24.1814 8.77713 24.0443 8.90059 23.9144L8.97199 23.879V23.8082H9.00769V23.7374L9.07908 23.702L9.11478 23.5545L9.18618 23.5191V23.4483H9.22188C9.26812 23.4008 9.29375 23.3373 9.29328 23.2713H9.36468L9.47178 23.1238L9.57888 23.0884V22.9821C9.59821 22.9526 9.69193 22.9143 9.72763 22.8759H9.79902L9.83472 22.7284H9.90612L10.0846 22.4806H10.156L10.2274 22.3744H10.3345V22.3626C10.4 22.3109 10.4163 22.3198 10.4416 22.215H10.513L10.5487 22.1088L10.6558 22.038V21.9672H10.6915V21.8964L10.7629 21.861V21.7902H10.7986L10.87 21.684H10.9414V21.6486H11.0128C11.0664 21.4789 11.0426 21.6102 11.1616 21.5424L11.233 21.4362C11.3549 21.3654 11.3534 21.4937 11.4115 21.2886C11.52 21.2591 11.5483 21.2046 11.6256 21.1411V21.1057H11.7327V21.0703H11.8041L11.8398 20.9995H11.9469L12.0183 20.8933H12.0897L12.2385 20.6455L12.3456 20.6809V20.6455H12.417V20.6101L12.6312 20.5747L12.6669 20.5039H12.7383L12.8097 20.3976L12.9584 20.3622L13.0298 20.256H13.1012L13.1726 20.1498L13.3868 20.1144V20.079H13.4582L13.4939 20.0082H13.601L13.6367 19.9374H13.7081V19.902H13.7795V19.8666H13.9283V19.8548H14.1068V19.8194H14.3567V19.784H14.5054V19.7486H14.6542L14.6899 19.6778C14.6968 19.6747 14.7044 19.6733 14.712 19.6735C14.7196 19.6737 14.7271 19.6756 14.7339 19.6789C14.7407 19.6823 14.7467 19.6871 14.7514 19.693C14.7561 19.699 14.7595 19.7058 14.7613 19.7132C14.8475 19.7279 14.8535 19.6778 14.91 19.6778V19.7073H15.1242V19.6719L15.4455 19.6011V19.5597C15.4648 19.5597 15.5437 19.607 15.624 19.5951C15.6746 19.5951 15.6106 19.5538 15.6597 19.5597V19.5951L15.7668 19.6306V19.5951L15.981 19.6306V19.5951H16.2666V19.6306L16.4808 19.5951V19.6306C16.5656 19.6468 16.5775 19.5907 16.6295 19.5951V19.6306H16.7009V19.666C16.7619 19.6778 16.7634 19.632 16.7723 19.6306H17.0579V19.666L17.165 19.6306V19.666H17.2364V19.7073H17.3852L17.4209 19.7781L17.8493 19.8135V19.8548H17.8671L17.9028 19.9256H18.0813V19.961H18.1527C18.065 20.1085 17.9073 20.1896 17.8671 20.3858H17.7957C17.7556 20.4094 17.7496 20.5171 17.7243 20.5629H17.6886V20.6337H17.6529V20.7399L17.5815 20.7753V20.9523H17.5458L17.5101 21.0998C17.3287 21.1515 17.4387 21.181 17.3614 21.3122L17.29 21.3476V21.4539L17.1412 21.5601V21.6663L17.0698 21.7017V21.8492L16.9627 21.92V21.9908L16.814 22.097V22.2446L16.7426 22.28L16.7069 22.634L16.6355 22.6694V22.8169H16.5998C16.5629 22.8587 16.5382 22.9097 16.5284 22.9644L16.4719 22.9276ZM21.0057 28.8046L20.9343 28.84V28.9108L20.6844 29.0879V29.1587C20.5624 29.1911 20.5937 29.2339 20.4702 29.2649C20.4479 29.3534 20.4524 29.3224 20.3988 29.3711V29.4065H20.3274L20.256 29.5127H20.1846L20.1489 29.5835H20.0002L19.9645 29.6543H19.8931L19.786 29.8018H19.6789V29.8372H19.6075V29.8726L19.5004 29.908C19.4617 30.0482 19.4007 30.0246 19.2862 30.0851V30.1205H19.1791V30.1559H19.1077V30.181C19.0665 30.219 19.0146 30.2437 18.9589 30.2518V30.3285L18.8102 30.3639V30.4347H18.6614C18.6198 30.4583 18.6183 30.5822 18.59 30.6117L18.4829 30.6471L18.4472 30.7179C18.3729 30.7636 18.2985 30.7179 18.1973 30.7533V30.7887H18.1259V30.8241H18.0545L18.0188 30.8949H17.8701V30.9303L17.7213 30.9657L17.6499 31.072L17.3287 31.1782L17.2573 31.2844L17.1085 31.3198V31.3611H17.0014L16.9657 31.4319H16.8586V31.4673H16.6801V31.5027C16.5552 31.544 16.5507 31.4835 16.4659 31.5735H16.4302L16.4659 31.426H16.5373C16.5664 31.3407 16.6022 31.2579 16.6444 31.1782V31.0307L16.7158 30.9952V30.889L16.7872 30.8536V30.6766H16.8586L16.9657 30.358L17.0371 30.3226C17.1219 30.2363 17.1744 30.1239 17.1859 30.0039H17.2573C17.3032 29.8908 17.3632 29.7838 17.4358 29.6853L17.4714 29.5378L17.5785 29.467V29.3962L17.9355 29.0775L17.9712 28.9005H18.0069C18.0301 28.8772 18.0484 28.8495 18.0606 28.8191C18.0729 28.7887 18.0789 28.7562 18.0783 28.7235H18.1497C18.1929 28.6969 18.1929 28.5878 18.2211 28.5465L18.3282 28.4757V28.4108L18.3996 28.3754L18.4353 28.2278L18.5424 28.157V28.0862L18.6495 28.0154L18.6852 27.8679L19.0065 27.5847L19.0422 27.4371H19.0779C19.1166 27.3965 19.1416 27.345 19.1493 27.2896C19.2228 27.283 19.2917 27.2511 19.3438 27.1993C19.396 27.1476 19.4283 27.0793 19.4349 27.0064H19.5063V26.971L19.7205 26.794V26.7232H19.7562C19.8082 26.6755 19.8453 26.6141 19.8633 26.5461H19.9347L20.0061 26.4399H20.0775V26.4045L20.2263 26.2983V26.2275C20.2917 26.1375 20.375 26.1582 20.4048 26.0151C20.5877 25.962 20.4925 25.9089 20.5833 25.8381H20.6547L20.6904 25.7673H20.7618L20.7975 25.661H20.8332L20.9819 25.484H21.0533L21.2318 25.2362L21.446 25.2008V25.1654L21.6602 25.0946V25.0592H21.7316V25.0238H21.8387L21.9874 24.8467H22.0945L22.1302 24.7759L22.279 24.7405V24.7051H22.3504V24.6697H22.4218V24.6343H22.5289L22.6003 24.5281H22.7788V24.4927L22.9275 24.4573L22.9632 24.3865H23.0346V24.3511L23.1834 24.3157V24.2803H23.2905L23.4392 24.2449V24.2095H23.6177V24.1741H23.7962V24.1328L24.0104 24.0974V24.062H24.0461C23.997 24.2921 23.8527 24.4131 23.8319 24.6638C23.6668 24.7081 23.7159 24.7774 23.6534 24.9117H23.6177V24.9825H23.582V25.0887H23.5463V25.1949L23.4749 25.2303V25.3365C23.4243 25.4442 23.344 25.484 23.3262 25.6551L23.2191 25.6905L23.1834 25.7968H23.1477V25.8676H23.112L23.0049 26.1862L22.8978 26.257V26.3278L22.8264 26.3632L22.7907 26.5402L22.7193 26.5756L22.6836 26.6819H22.6479L22.6122 26.7881H22.5408L22.5051 26.8943L22.398 26.9651L22.2909 27.2837C22.2046 27.3044 22.212 27.3206 22.1421 27.3545V27.5021C21.9934 27.5434 22.096 27.5242 22.035 27.6083L21.9636 27.6437V27.7145L21.8565 27.7853L21.8208 27.9328L21.6423 28.0803L21.6066 28.2278L21.5352 28.2632V28.334L21.3567 28.4816L21.321 28.5524H21.2496L21.1783 28.6586H21.1069V28.694L20.9998 28.7648L21.0057 28.8046ZM28.2944 31.8848V31.9512H28.2587V32.1282H28.223V32.4822H28.1873V32.6592L28.1159 32.6946V32.9838H28.0802V33.0192H28.1159V33.0546H28.0802V33.2021H28.0445L28.0802 33.2729H28.0445V33.3437H28.0088C27.9835 33.4234 28.04 33.4381 28.0445 33.4912H28.0088L27.9731 33.8453H27.9374V33.9515H27.9017V34.099H27.866L27.8303 34.2465H27.7946V34.3527L27.6875 34.4235V34.5298L27.5804 34.6006V34.754H27.5357V34.8248H27.5L27.4643 35.0726H27.3929C27.3587 35.2629 27.1951 35.7335 27.0359 35.7807C27.017 35.8482 26.98 35.9094 26.9289 35.9577H26.8931L26.8575 36.1052L26.786 36.1406V36.2468H26.7504V36.3177H26.7147V36.4239L26.4648 36.6009V36.6717L26.3577 36.7425V36.8133L26.2506 36.8487L26.1792 36.9549C26.0765 37.0464 26.0408 36.9859 26.0007 37.1673H25.9293C25.9025 37.2854 25.8504 37.3031 25.8222 37.4152C25.7195 37.4403 25.7047 37.4521 25.6734 37.5627C25.5247 37.6025 25.6362 37.5878 25.5663 37.6689H25.5306V37.7043H25.4592L25.2807 37.9167H25.245V37.9875C25.1483 38.0141 25.1647 37.9949 25.1379 38.0938C25.01 38.1277 24.9431 38.2309 24.8523 38.3062V38.3416H24.7809L24.7095 38.4478H24.6024V38.4832L24.4239 38.5186L24.3168 38.6661H24.2454L24.2097 38.7369H24.174V38.8077L23.8527 38.9848V39.032C23.7605 39.0556 23.7501 39.0674 23.704 39.1382H23.5969L23.6326 39.1028L23.5969 38.9258H23.6326L23.5969 38.6071L23.5255 38.5717V38.3947H23.4898V37.7928H23.4541V37.6158L23.3827 37.5804V37.4329H23.347C23.3366 37.3724 23.3812 37.3709 23.3827 37.3621L23.347 36.831H23.3113V36.7602H23.2756L23.2399 36.5832L23.1685 36.5478C23.1239 36.443 23.2101 36.3737 23.2042 36.3V36.2645H23.1685C23.1075 36.0256 23.2444 35.8722 23.1685 35.6273H23.1328V35.4503H23.0971V35.344H23.0733V35.2378H23.0376V35.0608L22.9662 35.0254L22.9305 34.7422H22.8948C22.8844 34.6832 22.929 34.6787 22.9305 34.6714L22.8948 34.3881H22.9305L22.8948 33.8925H22.8591V33.8217H22.8234L22.7877 33.2906H22.752V33.2198H22.7163V33.0723H22.6806C22.6806 33.0384 22.7431 32.9513 22.7163 32.8599H22.6806V32.6474H22.6449V32.4704H22.6092V32.435H22.6449C22.6702 32.2137 22.4322 31.9172 22.5378 31.7977C22.5899 31.6281 22.5676 31.7564 22.6866 31.6915L22.7223 31.6207H22.7937V31.5853H22.9008L22.9364 31.5145H23.0852V31.4791H23.1566V31.4437L23.4422 31.4083L23.4779 31.3375H23.5493V31.3021H23.7278V31.2667H23.8349V31.2313H23.9063V31.2136L24.0848 31.1782L24.1562 31.072H24.2633L24.299 31.0011H24.4061V30.9657C24.5102 30.9067 24.4686 30.9938 24.5132 30.8595L24.7274 30.8241V30.7887L24.8761 30.7533V30.7179H25.0249V30.6825L25.2748 30.7179V30.6825H25.3462V30.6471H25.4176L25.4533 30.5763H25.5247L25.5604 30.5055H25.6675V30.476C25.7222 30.4471 25.7843 30.4348 25.846 30.4406L25.8817 30.3344L26.203 30.2282L26.2744 30.122L26.4231 30.0865L26.4588 30.0157C26.5912 29.9494 26.6343 30.0688 26.7801 30.0157V29.9803L26.9289 29.9449L27.0002 29.8387L27.3215 29.7679L27.4286 29.6204L27.5774 29.585L27.6131 29.5142H27.6845L27.7559 29.408L27.9701 29.3372L28.0415 30.1515H28.0772V30.2223L28.1843 30.2931V30.7533H28.1486L28.22 31.249H28.2557L28.22 31.5676H28.2557V31.78H28.2914L28.3271 31.8863L28.2944 31.8848ZM33.3994 24.5915H33.2923L33.2566 24.6624H33.2209L33.0424 24.981L32.8936 25.0164L32.8222 25.1226H32.7151L32.6794 25.1934H32.6081V25.2288C32.4876 25.2878 32.5173 25.1728 32.4593 25.335H32.3879L32.2808 25.4825H32.2094L32.1737 25.5534H32.1469V25.6242H32.0755L31.9684 25.7717L31.8613 25.8071V25.8779C31.6575 25.8882 31.7319 25.928 31.6114 25.9841H31.5043L31.3972 26.1316H31.3258L31.2901 26.2024H31.2187V26.2378C31.1221 26.2983 31.1533 26.2039 31.1116 26.344L30.9629 26.3794C30.9361 26.4783 30.8989 26.4812 30.8558 26.5565H30.8201V26.5919C30.7963 26.6007 30.7636 26.5402 30.6713 26.5919L30.6356 26.6627H30.5642V26.6981H30.4929L30.4572 26.7689H30.362L30.3263 26.8397H30.1775V26.8751C30.0808 26.9017 30.0972 26.8751 30.0704 26.9813C29.8324 27.0093 29.9336 27.1111 29.8205 27.2291V27.2646H29.6718L29.6361 27.3354L29.4219 27.3708V27.4416C29.3553 27.4411 29.2912 27.4665 29.2434 27.5124V27.5257L29.0946 27.5611V27.5965H28.9459L28.8745 27.7027L28.5532 27.7735L28.4461 27.921C28.3345 27.9889 28.3568 27.8576 28.2973 28.0272C28.1858 28.0552 28.1337 28.1364 28.0474 28.1747H27.8689V28.2101H27.8332C27.8184 28.1969 27.8228 28.1452 27.7618 28.1747L27.6131 28.3872H27.5417V28.4108H27.4703L27.4346 28.4816L27.2858 28.517V28.5583L27.1787 28.5937L27.143 28.6645H26.9645V28.7058H26.8931V28.7412H26.7444V28.7766H26.673L26.6373 28.8474H26.5659V28.8828H26.3874V28.9182H26.316L26.2803 28.989H26.1732L26.0661 29.1365H25.9947L25.959 29.2073L25.6377 29.2428V29.2782H25.5663L25.5306 29.349L25.3819 29.3844L25.3462 29.4552H25.2391L25.2034 29.526H25.0963V29.5614H25.0249V29.5909H24.8464L24.775 29.6971H24.6679L24.4894 29.9095H24.418V29.9449L24.2692 29.9803V30.0157H24.1621V30.0511H23.9836L23.9122 30.1574H23.7635V30.181H23.6921V30.2164L23.6207 30.181V30.2164H23.5493V30.2518H23.4422V30.2872L23.2934 30.3226V30.358H23.1863V30.3934H23.0376V30.4288H22.9662V30.476L22.8591 30.4406V30.476H22.7877L22.752 30.5468C22.7401 30.5468 22.6851 30.5025 22.6033 30.5468L22.5676 30.6176L22.2106 30.653V30.6884H22.1392C22.0535 30.7539 21.9568 30.8038 21.8536 30.8359L21.7465 30.6589L21.6751 30.6235L21.6394 30.5173L21.5323 30.4819L21.4966 30.3757H21.3895L21.3181 30.2695H21.2467V30.2341H21.0979L20.9908 30.0865H20.9551V30.0511C20.9998 30.0275 21.0042 29.9951 21.0265 29.9803H21.0979L21.1693 29.8741H21.3181L21.568 29.5909H21.6394L21.7108 29.4847H21.7465V29.4139C21.9443 29.3563 21.8164 29.3239 21.8952 29.2014L22.0737 29.0539V28.9831L22.1808 28.9477L22.2522 28.8002H22.3236L22.395 28.7294V28.6586L22.5021 28.5878V28.517L22.6509 28.4108V28.3045L22.758 28.2337V28.1275L22.8294 28.0921V28.0213L22.9008 27.9859V27.9505L22.9722 27.9151V27.8443H23.0733C23.1253 27.7966 23.1624 27.7352 23.1804 27.6673C23.3812 27.6112 23.2533 27.6083 23.3291 27.4903L23.4362 27.4194L23.4719 27.2424H23.5076V27.1716L23.6147 27.1008L23.6504 26.9946H23.7218C23.7665 26.8087 23.8974 26.6996 23.936 26.4989C24.1324 26.4458 24.0104 26.4414 24.0848 26.3219L24.1562 26.2865V26.2157H24.1919V26.0682H24.2276V25.9974H24.2633V25.9266L24.3347 25.8912V25.785L24.4061 25.7496L24.4418 25.602L24.5489 25.5312L24.5846 25.3542H24.6203V25.2834H24.656V25.1772H24.6917V25.0297L24.7631 24.9943V24.9235H24.7988L24.8345 24.7759H24.8583V24.6284L24.9297 24.593C24.9669 24.5075 24.891 24.4189 24.894 24.3806H24.9297V24.3098H24.9654V24.1328H25.007V24.062H25.0427L25.0784 23.8849H25.1141C25.1424 23.8023 25.0784 23.7905 25.0784 23.7374H25.1141V23.4542L25.1855 23.4188V23.3126L25.2569 23.2772L25.2212 23.1001C25.1563 23.0933 25.0945 23.0688 25.0427 23.0293L25.007 22.9231C24.9312 22.8685 24.8955 22.9305 24.8583 22.9231V22.8877L24.6798 22.8523V22.8169C24.531 22.8169 24.4968 22.8022 24.4656 22.9231L24.1086 22.8877V22.9231H24.0372V22.9585H23.8587L23.823 23.0293L23.6742 22.9939V23.0293H23.4957V23.1001H23.4243V23.1356H23.2458L23.1744 23.2418L23.0257 23.2772L22.99 23.348H22.8829L22.8472 23.4188H22.7758V23.4542L22.5259 23.4896V23.525H22.4545L22.4188 23.5958H22.3296V23.6312C22.2314 23.6666 22.157 23.6209 22.0797 23.6666L22.044 23.7374H21.9369L21.8655 23.8436H21.7941L21.7227 23.9498H21.5739L21.5382 24.0207H21.3597V24.0561C21.2984 24.1087 21.2248 24.1452 21.1455 24.1623V24.2331L21.0384 24.2685L20.9313 24.416H20.8599L20.6457 24.6638L20.5386 24.6992L20.4672 24.8054H20.3958V24.8408H20.3244L20.2887 24.9117C20.1564 24.9825 20.14 24.86 20.0745 25.0592H20.0031C19.96 25.0857 19.96 25.1949 19.9317 25.2362H19.896L19.7889 25.3837H19.6818L19.6104 25.4899H19.5033L19.4676 25.5607H19.4319V25.6315L19.2832 25.7378V25.8086L19.2118 25.844L19.1761 25.9502H19.1047L19.0333 26.0564H18.9262V26.0918L18.8548 26.1272V26.198L18.7061 26.3042V26.375H18.6347L18.599 26.4458H18.5633V26.5166L18.4145 26.6229V26.7704H18.3788C18.297 26.881 18.2018 26.8722 18.1646 27.0182C18.0459 26.9416 17.912 26.8913 17.7719 26.8707C17.7638 26.8154 17.7389 26.764 17.7005 26.7232H17.6648L17.6291 26.6169L17.522 26.5815L17.4863 26.4753L17.3376 26.4399V26.4045L17.1888 26.2983C17.0639 26.167 17.1487 26.1095 16.9389 26.0151V25.9443C16.8155 25.9103 16.8065 25.8513 16.6533 25.8381C16.6266 25.7407 16.6459 25.7569 16.5462 25.7318C16.5287 25.6793 16.5227 25.6237 16.5289 25.5687C16.5351 25.5137 16.5532 25.4606 16.5819 25.4132H16.6176V25.3424H16.6533C16.6935 25.2495 16.6623 25.127 16.7247 25.0592C16.753 24.9618 16.7337 24.978 16.8318 24.953C16.8409 24.8286 16.8775 24.7077 16.9389 24.5989V24.5635H16.9032V24.5281H16.9746V24.3806H17.0103V24.2331L17.0817 24.1977L17.1174 23.9853H17.1531V23.8377H17.1888V23.7669H17.2245V23.6961L17.2959 23.6607V23.5545H17.3316L17.3673 23.3421H17.403V23.2713H17.4387V23.1651L17.5458 23.0942V23.0234H17.5815V22.9526H17.6172V22.8464L17.7957 22.7756L17.9742 22.2446H18.0456L18.1527 21.9259C18.3253 21.8817 18.3015 21.7902 18.3669 21.6427H18.4026V21.5365H18.4383V21.4775H18.474L18.5097 21.3713H18.5811C18.6166 21.2702 18.6667 21.1748 18.7299 21.088V21.0172H18.7596L18.7953 20.8402L18.8667 20.8048V20.6986H18.9024L18.9381 20.5511H18.9738V20.4035H19.0095V20.2973L19.1583 20.1911V20.1203H19.194V20.0495H19.2297V19.9433L19.3011 19.9079L19.3367 19.7604L19.4081 19.725L19.4438 19.5774H19.5509V19.5597C19.6791 19.4348 19.7662 19.2744 19.8008 19.0995L19.9496 19.0641C19.9812 18.9824 20.0322 18.9096 20.0983 18.8517H20.134V18.7809H20.1697V18.71C20.2248 18.6083 20.2962 18.5758 20.3185 18.4268C20.4895 18.3752 20.3601 18.3973 20.4256 18.2793L20.497 18.2439V18.1731L20.6041 18.1023L20.6398 17.9548C20.6785 17.9076 20.7275 17.9548 20.7885 17.9194V17.884L20.8956 17.8131V17.7423L20.967 17.6715V17.6007H21.0027V17.5299H21.0384L21.0741 17.4237L21.1812 17.3529V17.2054L21.3954 17.0284C21.4519 16.9625 21.5017 16.8914 21.5442 16.8159V16.7451L21.6156 16.7097C21.6803 16.637 21.7307 16.553 21.7643 16.4619H21.9131C21.9592 16.3026 22.0692 16.3011 22.0916 16.1079H22.163L22.1987 16.0016L22.3474 15.8954V15.7892H22.3296C22.3583 15.7456 22.3709 15.6935 22.3653 15.6417C22.6018 15.5797 22.4262 15.5502 22.514 15.3939L22.5854 15.3585C22.6552 15.2896 22.7064 15.2043 22.7342 15.1106C22.9617 15.0826 22.9112 14.972 23.0198 14.8628C23.0763 14.8068 23.1135 14.8363 23.1685 14.7566C23.2651 14.7946 23.3508 14.8554 23.4184 14.9336V14.969H23.4898L23.5255 15.0398H23.5969V15.0752H23.6326C23.7025 15.1564 23.5939 15.1387 23.7397 15.1814C23.7784 15.329 24.0015 15.4765 24.1324 15.5355V15.6063H24.2395C24.2354 15.6661 24.2504 15.7257 24.2825 15.7766C24.3145 15.8275 24.3619 15.867 24.418 15.8895H24.4894V15.9249L24.5965 15.9957V16.0665C24.7586 16.1123 24.714 16.1905 24.8107 16.279L24.9178 16.3144V16.3498H24.9892V16.3852C25.0725 16.4516 25.1216 16.5327 25.2391 16.5622C25.258 16.6297 25.295 16.6909 25.3462 16.7392H25.3819L25.4176 16.8867H25.4533C25.48 16.9321 25.516 16.9713 25.5591 17.0018C25.6022 17.0323 25.6513 17.0534 25.7032 17.0638V17.1346C25.7924 17.1596 25.7612 17.1523 25.8103 17.2054H25.846V17.2762L25.9174 17.3116C26.0289 17.4281 26.1316 17.583 26.3101 17.6302L26.3458 17.7364H26.4945V17.7895C26.5838 17.853 26.6001 17.9164 26.7444 17.9371C26.7742 18.0477 26.8158 18.0521 26.8931 18.1141V18.1495L27.0002 18.1849C27.0731 18.2911 26.9378 18.3088 27.149 18.3619V18.5094L27.3275 18.6569V18.6746L27.4346 18.71L27.6131 18.9225H27.6845L27.7202 18.9933H27.7559L27.863 19.1408H27.9701L28.0772 19.2883L28.1843 19.3237L28.2557 19.3945V19.4653L28.3271 19.5007V19.5361H28.3985V19.5597H28.4342V19.666H28.5056V19.7368C28.6038 19.7604 28.5874 19.784 28.6841 19.8076C28.6942 19.8602 28.72 19.9086 28.7582 19.9465C28.7964 19.9844 28.8452 20.01 28.8983 20.02C29.0035 20.2157 29.165 20.3759 29.3624 20.4802C29.3862 20.675 29.4576 20.641 29.5766 20.7281L29.7253 20.9051L29.7967 20.9405V21.0467H29.8324L29.9812 21.2237H30.0526V21.2945L30.2311 21.4421V21.4775H30.3025V21.5129C30.3503 21.5647 30.4123 21.6016 30.481 21.6191C30.539 21.8094 30.5836 21.6766 30.6951 21.7666L30.7309 21.8728L30.8022 21.9082V21.979L30.951 22.0852L30.9867 22.156H31.0581L31.1295 22.2623H31.2009C31.2232 22.3331 31.2009 22.2918 31.2366 22.3331V22.3626H31.4151L31.4508 22.4334C31.5104 22.4885 31.5848 22.5253 31.665 22.5396C31.6837 22.5977 31.7161 22.6505 31.7596 22.6936C31.8031 22.7367 31.8563 22.7689 31.9149 22.7874V22.8582H31.9863V22.929C31.9982 22.9556 32.0666 22.9423 32.0577 22.9998H32.022C32.0369 23.2668 32.1559 23.2093 32.3076 23.3185V23.3539L32.4147 23.4247V23.4955L32.4861 23.5309V23.6017L32.5932 23.6725V23.7079H32.6646L32.7003 23.7787H32.7717L32.8074 23.8495C32.8924 23.9413 33.0051 24.0034 33.1287 24.0266L33.1644 24.1328H33.2001V24.239H33.2358L33.3072 24.3452C33.3934 24.4071 33.4633 24.3983 33.5214 24.4927C33.4262 24.5148 33.4128 24.5753 33.3934 24.5915H33.3994ZM32.6854 16.6964C32.7613 16.6758 32.8074 16.5637 32.8639 16.5194C32.9174 16.6006 32.9725 16.5784 33.0126 16.6256L33.0483 16.8027L33.4767 17.1213V17.1995L33.6909 17.2349L33.7623 17.3411H33.8337L33.8694 17.4119L34.1193 17.6243V17.6951L34.1907 17.7659H34.2621V17.7895L34.4406 17.9371V18.1495L34.7619 18.3973V18.4327H34.8244C34.8527 18.5286 34.8333 18.5124 34.9315 18.5389V18.6451L34.8244 18.6746L34.7887 18.7455C34.689 18.8133 34.6489 18.7868 34.6102 18.9225C34.4614 18.9608 34.4733 19.0287 34.396 19.1349L34.2175 19.2824V19.3532L34.0033 19.5302V19.6011L33.7891 19.7781V19.8135H33.7534V19.7427C33.6761 19.7279 33.685 19.7073 33.682 19.7073H33.5035L33.4678 19.6011L33.3964 19.5656C33.3116 19.4432 33.3741 19.4624 33.2179 19.3886V19.3178C33.0394 19.2765 33.0945 19.247 33.0037 19.1408L32.9323 19.1054V18.9992L32.6467 18.7868V18.716C32.498 18.6732 32.498 18.5758 32.3254 18.5389C32.3265 18.5061 32.3207 18.4735 32.3084 18.443C32.2961 18.4125 32.2776 18.3849 32.254 18.3619H32.2183V18.2911H32.1826C32.135 18.2395 32.1663 18.2409 32.0755 18.2203C32.0547 18.1495 32.0755 18.1893 32.0398 18.1495V18.1141C31.9669 18.0698 31.8212 18.1362 31.7899 18.1495L31.7185 17.9017L31.6114 17.8663V17.76L31.7185 17.6892V17.6184L31.9327 17.3706H32.0815L32.26 17.1582V17.0874L32.4742 16.9103V16.7333C32.492 16.6861 32.492 16.7451 32.5099 16.6979C32.559 16.6802 32.5709 16.6478 32.6586 16.6625V16.6979L32.6854 16.6964ZM35.2915 22.6797C35.1948 22.7063 35.2111 22.6871 35.1844 22.7859H35.0773V22.8213L35.0059 22.8567V22.9276L34.8571 23.0338V23.1813H34.8244L34.753 23.2875H34.6459L34.6102 23.3937L34.4614 23.4999V23.5707C34.3925 23.5852 34.3277 23.615 34.272 23.658C34.2164 23.7009 34.1713 23.7558 34.1402 23.8186H34.0688C34.0362 23.7634 34.0122 23.7037 33.9974 23.6415C33.9305 23.6201 33.8694 23.5838 33.8189 23.5353V23.4999L33.6047 23.4645L33.569 23.3583H33.5333C33.4708 23.2668 33.5719 23.289 33.4262 23.2521V23.1813L33.3191 23.1105V23.0397L33.2477 22.9689H33.1763L33.1049 22.8626C33.0573 22.8302 32.965 22.8376 32.9264 22.7918C32.8341 22.6783 32.852 22.5543 32.6765 22.5086C32.6556 22.4378 32.6765 22.4776 32.6408 22.4378V22.4024H32.4623C32.4623 22.4024 32.4623 22.3758 32.3909 22.367L32.3552 22.2608C32.4616 22.2062 32.5581 22.1344 32.6408 22.0484L32.6765 21.9775H32.7479L32.8193 21.8713L32.8907 21.8359V21.7651L32.9978 21.7297V21.6943L33.1049 21.6235V21.5527H33.1406C33.2298 21.4524 33.3206 21.4303 33.3548 21.2695C33.4096 21.2587 33.4608 21.2344 33.5035 21.1987V21.1633C33.6523 21.0998 33.5883 21.3004 33.7177 21.1279C33.8665 21.1692 33.8665 21.2754 34.039 21.3049C34.0762 21.4524 34.1535 21.4273 34.2175 21.5173V21.5881H34.2532L34.3603 21.7356H34.4317L34.5388 21.8831H34.6102C34.6652 22.0646 34.6846 21.9333 34.7887 22.0307C34.9464 22.1664 34.9717 22.4053 35.2171 22.4555C35.2317 22.5086 35.2559 22.5585 35.2885 22.603H35.3242L35.2915 22.6797ZM39.861 15.2449H39.8253V15.3924L39.7539 15.4278V15.4986H39.7182V15.5694L39.6468 15.6048V15.7818H39.6111V15.8526H39.5754V16.1005L39.504 16.1359L39.4683 16.2834L39.3969 16.3188V16.425H39.3612V16.5312H39.3255V16.7082H39.2868L39.2511 16.8558L39.1797 16.8912V16.9974L39.1083 17.0328L39.0726 17.2098L39.0012 17.2452V17.3927H38.9655V17.4635H38.9298V17.6111L38.8584 17.6465L38.8227 17.794C38.7513 17.8146 38.793 17.794 38.7513 17.8294H38.7156V17.9769H38.6799V18.0477H38.6442V18.1539H38.6085L38.5728 18.3014L38.4657 18.3722L38.43 18.4785H38.3586C38.317 18.6746 38.2188 18.7735 38.1802 19.0095C38.0314 19.0493 38.134 19.0198 38.0731 19.1157H38.0374V19.1865L37.966 19.2219V19.2927L37.7875 19.4403V19.5465L37.7161 19.5819V19.6527H37.6804C37.6278 19.6999 37.5905 19.7615 37.5733 19.8297H37.4662V19.7943L37.3591 19.7235V19.6527H37.3234C37.2743 19.5996 37.3055 19.607 37.2163 19.5819C37.1954 19.5111 37.2163 19.5509 37.1806 19.5111V19.4757L37.0021 19.4403V19.3694L36.895 19.2986V19.2278L36.8236 19.157H36.7522L36.6808 19.0862C36.6094 18.9903 36.6421 18.9387 36.5023 18.9092V18.8384L36.3238 18.803L36.2524 18.6968H36.181L36.0739 18.5493H36.0382C35.9534 18.4312 35.9965 18.3486 35.824 18.3014V18.2306C35.6752 18.1893 35.6425 18.0684 35.5384 17.9828V17.912H35.467L35.4313 17.8058L35.3242 17.735V17.6288H35.2885L35.2528 17.5579H35.1814L35.11 17.4517H35.0386V17.4163L34.8898 17.4517V17.4163C34.7753 17.3396 34.7902 17.2452 34.6399 17.2039V17.1331C34.4734 17.0947 34.4421 16.9856 34.3187 16.9207V16.8145H34.2473L34.0985 16.5312H34.0271C33.9914 16.4029 33.9141 16.3837 33.8784 16.248C33.8111 16.2275 33.7498 16.191 33.6999 16.1418V16.1064H33.5928C33.5823 16.1064 33.5585 16.0547 33.5214 16.0356V15.9648H33.45C33.4172 15.7273 33.3339 15.8541 33.2715 15.7523V15.6815H33.2001C33.1763 15.593 33.1822 15.624 33.1287 15.5753V15.5399H33.0573L32.9859 15.4337H32.8371L32.7657 15.3275H32.6943L32.5872 15.18H32.5515C32.4712 15.0679 32.495 14.972 32.3373 14.9321V14.8259H32.3016C32.2406 14.6283 32.2525 14.792 32.1231 14.7197V14.6843L32.016 14.6135C31.9669 14.5516 32.0443 14.5914 31.9803 14.5427V14.4719C31.925 14.4627 31.8734 14.4381 31.8316 14.4011V14.3657L31.6828 14.3303C31.6218 14.2297 31.572 14.1229 31.5341 14.0116H31.4627V13.9408C31.2812 13.8892 31.3764 13.8361 31.2842 13.7638H31.2544L31.183 13.693L31.1473 13.6222C31.0923 13.5883 31.0402 13.6355 30.9986 13.5868V13.4806L30.8915 13.4098V13.339H30.8558C30.8067 13.2859 30.8379 13.2918 30.7487 13.2682V13.1973C30.6 13.1649 30.5821 13.1059 30.4988 13.0203L30.4274 12.9849V12.9141L30.356 12.8433H30.2846L30.2132 12.7371H30.1418L29.9633 12.4893V12.4185L29.8562 12.3831V12.3476L29.7491 12.2768V12.206L29.642 12.1706L29.5349 12.0231H29.3564C29.3267 11.911 29.2746 11.8948 29.2493 11.7753C29.1378 11.7443 29.1333 11.706 29.0708 11.6278H29.0351V11.557L28.9637 11.5216V11.4862H28.8923C28.8417 11.3047 28.7867 11.3991 28.7138 11.3091V11.2383L28.6067 11.1675C28.5725 11.1115 28.6171 11.0643 28.571 11.02C28.4327 10.9035 28.2393 10.8607 28.1426 10.7014H27.9641V10.6306L28.0355 10.5952V10.5597H28.1069L28.2557 10.3827H28.3271L28.3628 10.3119C28.3985 10.2972 28.4312 10.3798 28.5115 10.3473L28.5472 10.2765L28.696 10.2411V10.1703H28.7674V10.0995C28.8227 10.0903 28.8743 10.0657 28.9161 10.0287V9.97115H28.9875V9.93575H29.0589L29.1303 9.82954H29.166L29.2374 9.72333H29.3207V9.68792C29.4511 9.64022 29.5633 9.55364 29.642 9.44009H29.7134V9.36929L29.8622 9.40469L29.8979 9.33388L30.0466 9.29848V9.23357C30.1686 9.19964 30.1388 9.15834 30.2608 9.12736V9.05655H30.4096L30.481 8.90903C30.5509 8.83675 30.6446 8.82495 30.7309 8.76151L30.7665 8.69071H30.8379L30.8736 8.6199C30.9655 8.6553 31.0674 8.6553 31.1592 8.6199V8.5845H31.2306L31.2663 8.51369L31.4151 8.47828V8.44288L31.5936 8.40748L31.6293 8.33667L31.665 8.37207L31.8792 8.33667V8.30126H31.9506L31.9863 8.23046H32.0577V8.20095H32.1469L32.1826 8.13014C32.2853 8.08146 32.4251 8.13014 32.4682 8.09474C32.7732 8.09474 32.6661 8.18325 32.8609 8.24226C32.866 8.28746 32.8865 8.3296 32.9189 8.36176C32.9513 8.39393 32.9938 8.41421 33.0394 8.41928C33.0796 8.5668 33.0513 8.46353 33.1465 8.52549V8.56089H33.2179L33.2536 8.66711H33.2893C33.3563 8.76908 33.4574 8.84432 33.5749 8.87953V8.93854C33.6463 8.95919 33.6061 8.93854 33.6463 8.97394H33.682L33.7177 9.18636H33.7832C33.8123 9.26413 33.86 9.33374 33.9221 9.38923C33.9843 9.44472 34.0591 9.48445 34.1402 9.505V9.57581L34.2473 9.61121L34.396 9.78823L34.4674 9.82364V9.97115C34.6133 10.0894 34.7685 10.196 34.9315 10.2898C34.9731 10.4491 35.0654 10.458 35.1814 10.5376L35.2171 10.6084H35.2885V10.6438L35.4372 10.75V10.8209C35.4876 10.8292 35.5373 10.8411 35.586 10.8563L35.6217 10.8209L35.8002 11.0333H35.8359V11.1395L35.9846 11.2457V11.2811H36.056L36.0917 11.3519H36.1274L36.1631 11.4994H36.1988C36.2259 11.5445 36.262 11.5834 36.3051 11.6139C36.3481 11.6444 36.397 11.6657 36.4487 11.6764C36.477 11.7723 36.4577 11.7561 36.5558 11.7827C36.5811 11.8785 36.6049 11.8623 36.6272 11.9597H36.6986V12.0305H36.7343L36.9128 12.2429H36.9842C37.0735 12.3063 37.0541 12.3904 37.1984 12.4199C37.2222 12.6619 37.3204 12.622 37.4483 12.7386V12.774L37.5554 12.8448V12.9156H37.5911L37.6625 13.0218H37.7339L37.7696 13.0926H37.841L37.9124 13.1988H37.9838C38.0418 13.4009 38.0478 13.2682 38.1623 13.3463L38.2456 13.5116C38.314 13.5838 38.4122 13.5927 38.4955 13.6591L38.5312 13.7299L38.7454 13.9069V13.9777L38.8168 14.0131L39.034 14.2491L39.1411 14.2845L39.1768 14.3908L39.4624 14.6386L39.5338 14.7448H39.6052L39.6409 14.8156L39.8908 14.9926C39.8975 15.0783 39.8853 15.1644 39.8551 15.2449H39.861ZM40.8606 8.51811H40.8963V8.55352H40.8606V8.62433H40.8249L40.8606 8.97836H40.8963C40.8996 8.99244 40.8978 9.00723 40.8913 9.02016C40.8848 9.0331 40.8739 9.04336 40.8606 9.04917C40.8457 9.12736 40.9052 9.15096 40.8963 9.19669H40.8606V9.2675H40.8249C40.8179 9.2866 40.8176 9.30749 40.8241 9.32678C40.8305 9.34607 40.8434 9.36261 40.8606 9.37371V9.65694H40.8249L40.8606 9.86937V10.4712C40.844 10.4828 40.8316 10.4994 40.8252 10.5185C40.8187 10.5376 40.8186 10.5583 40.8249 10.5774H40.8606L40.8249 10.7545H40.8606V11.0038H40.8963V11.0392H40.8606V11.2162H40.8249L40.7892 11.6056H40.7535V11.6764H40.7178V11.824H40.6821V11.8889H40.6464V11.9951H40.6821V12.0305H40.6464C40.6181 12.1898 40.7118 12.2473 40.6464 12.3845L40.575 12.4199V12.4789H40.5393C40.5185 12.5438 40.5676 12.5306 40.575 12.5497V12.5852H40.5393V12.833H40.5036V13.01H40.4679V13.0808H40.4322V13.4703H40.3965V13.5411L40.3251 13.5765C40.282 13.6487 40.3251 13.7343 40.2894 13.8243C40.2775 13.8494 40.2418 13.8243 40.218 13.9305C40.0514 13.8803 40.1198 13.7682 39.9324 13.7181V13.6591L39.7539 13.6237L39.7182 13.4762H39.6111C39.5709 13.336 39.6007 13.4304 39.504 13.3699V13.3345H39.4326L39.3255 13.187L39.2541 13.1516V13.0808L39.1054 12.9746V12.9038H39.0697C39.0206 12.8507 39.0518 12.8551 38.9626 12.833C38.9209 12.6855 38.9522 12.7887 38.8555 12.7268V12.6914H38.7841L38.7484 12.5852L38.6413 12.5143V12.4435L38.4925 12.3373V12.2665L38.314 12.119V12.0482L38.1653 11.9774L38.1296 11.8712H38.0582L37.9511 11.7237H37.8797C37.7889 11.6514 37.8797 11.5953 37.7012 11.5466C37.6595 11.3903 37.6164 11.4522 37.5227 11.3696L37.4513 11.2634H37.3799L37.3442 11.1572C37.3055 11.1115 37.2579 11.1572 37.1954 11.1218L37.0169 10.9094V10.8563L36.8682 10.8209C36.8399 10.7132 36.8027 10.6984 36.6897 10.6733C36.6644 10.5701 36.6525 10.5553 36.5409 10.5258C36.4874 10.3326 36.4517 10.4535 36.3268 10.3783V10.3429C36.286 10.3042 36.2339 10.2794 36.178 10.2721C36.1542 10.1497 36.1215 10.0877 35.9995 10.0597C35.9855 9.98001 35.9482 9.90617 35.8924 9.84724H35.8567V9.77643H35.821C35.7734 9.7248 35.8046 9.72775 35.7139 9.70563V9.63482L35.6068 9.59941L35.4997 9.42239H35.4283V9.31618H35.3926L35.3212 9.20997H35.2498L35.0713 8.99754L34.9226 8.96214C34.9049 8.89409 34.8677 8.8326 34.8155 8.78512H34.8244V8.71431L34.753 8.67891V8.6435L34.6816 8.6081V8.50189L34.5745 8.46648L34.4674 8.31896L34.2889 8.28356V8.24816L34.1818 8.17735V8.07114L34.0747 8.03573L33.9676 7.88822H33.8605L33.8248 7.78201C33.801 7.75103 33.7549 7.75693 33.7177 7.7112H33.682V7.67579L33.9319 7.60498V7.64039H34.1461V7.60498H34.2175V7.56958H34.3246L34.3603 7.49877L35.0029 7.39256V7.35716H35.0743V7.32175H35.223V7.31585H35.4015V7.28045H35.7169V7.24504H35.824V7.20964C35.9088 7.18456 35.9192 7.24799 35.9727 7.24504V7.20964H36.1869V7.16834H36.3654V7.13293L36.651 7.16834V7.13293H36.7998V7.09753H36.8355V7.13293H37.0854V7.16834H37.1211C37.1464 7.15358 37.1211 7.11818 37.1925 7.13293V7.16834L37.4067 7.13293V7.09753H37.9779V7.13293C38.0522 7.14326 38.0493 7.09753 38.0493 7.09753H38.3705V7.06212H38.3943V7.09753H39.0369V7.13293L39.501 7.09753V7.13293C39.5152 7.13622 39.5301 7.13448 39.5432 7.12801C39.5562 7.12155 39.5666 7.11076 39.5724 7.09753C39.6468 7.0872 39.6438 7.13293 39.6438 7.13293H40.0306L40.0663 7.20374H40.3162V7.16834H40.3519V7.20374C40.4024 7.20374 40.3385 7.18014 40.3876 7.16834L40.7803 7.20374V7.52237H40.816V7.55778H40.7803L40.7446 7.94722L40.816 7.98263C40.8085 8.02688 40.7535 8.04606 40.7803 8.13014H40.816V8.20095H40.8517V8.37797H40.8874C40.8933 8.42518 40.8383 8.43255 40.8546 8.51811H40.8606ZM10.7956 32.9115C10.8343 32.9189 10.8685 32.9793 10.9444 32.9469L10.9801 32.8761L11.0872 32.8407V32.8053C11.1353 32.7537 11.1972 32.7169 11.2657 32.6991C11.291 32.6017 11.3148 32.6179 11.3371 32.522C11.5468 32.494 11.5989 32.314 11.7298 32.2034V32.168H11.8012L11.8726 32.0618H11.944L11.9797 31.991L12.1939 31.814L12.3426 31.6015H12.414L12.4497 31.5307L12.5568 31.4599V31.3891L12.7056 31.2829V31.2136L12.8543 31.1428C12.8841 31.1044 12.8826 30.9952 12.9257 30.9657H13.0745V30.9303L13.1816 30.8595L13.2173 30.7533H13.366L13.7587 30.2931H13.8301C13.8792 30.119 13.9788 30.1456 14.08 30.0452L14.1871 29.8682C14.2719 29.7827 14.2808 29.8903 14.3358 29.7207H14.4072L14.556 29.5083H14.6274V29.4434C14.7761 29.405 14.672 29.4271 14.7345 29.3372H14.7702L14.8059 29.2309H14.8773L14.913 29.1247H14.9844C15.0186 29.0952 15.0112 29.0525 15.0558 29.0185C15.0335 28.8194 14.9636 28.902 14.907 28.8061V28.6586H14.8713L14.7999 28.5524H14.7285L14.6571 28.4462H14.5857V28.3754C14.5143 28.3532 14.556 28.3753 14.5143 28.3399C14.3656 28.3399 14.3284 28.3576 14.3001 28.4875C14.2337 28.4873 14.1697 28.5127 14.1216 28.5583V28.5937H14.0145L13.836 28.8415C13.7453 28.9241 13.6992 28.8622 13.6575 29.0185C13.5549 29.0436 13.54 29.0554 13.5088 29.166H13.4017L13.2946 29.3136H13.2232L13.1518 29.3844V29.4434L13.0447 29.5142L13.009 29.6204H12.9376L12.8662 29.7266H12.7591L12.652 29.9036H12.5806C12.5494 30.0423 12.4691 30.0924 12.4319 30.2223H12.3605L12.3248 30.3285L12.1463 30.4347V30.5055H12.0749L11.9678 30.653C11.9187 30.6855 11.8294 30.6766 11.7893 30.7238L11.7536 30.83C11.639 30.92 11.5141 30.9053 11.468 31.0779C11.2865 31.1177 11.3475 31.1516 11.2538 31.2549L11.1467 31.3257V31.3965L11.0396 31.4673L11.0039 31.5381H10.8968L10.7897 31.7151L10.6826 31.7505V31.8213C10.5532 31.8331 10.5338 31.8494 10.5041 31.9689C10.4327 31.9895 10.4743 31.9689 10.4327 32.0043H10.3613L10.3256 32.1105L10.1768 32.2167V32.3937L10.0281 32.4999L9.87935 32.6769H9.80795L9.77225 32.7477H9.66515L9.5164 32.9248H9.4093L9.33791 33.031H9.23081L9.19511 33.1372L9.01661 33.2847V33.3555C8.91397 33.3806 8.8991 33.3924 8.86786 33.503C8.62838 33.5355 8.7563 33.6181 8.65366 33.6801H8.58227C8.55847 33.7686 8.56442 33.7361 8.51087 33.7863V33.8217H8.43947L8.40377 33.9279C8.35766 33.9898 8.27733 34.0179 8.22527 34.1049H8.11817L8.08247 34.2524C7.9129 34.2996 7.93372 34.4191 7.76118 34.4648V34.5357C7.68383 34.5519 7.66003 34.5578 7.61243 34.6065H7.57673V34.7127C7.40269 34.7599 7.47707 34.8041 7.39823 34.9251L7.32683 34.9605V35.0313L7.21973 35.0667L7.14834 35.1729H7.07694L6.89844 35.3853H6.86274C6.82555 35.4532 6.87018 35.5122 6.82704 35.5624H6.79134L6.71994 35.6686C6.57119 35.7468 6.57119 35.5963 6.50574 35.8161C6.43925 35.8159 6.37529 35.8413 6.32725 35.8869V35.9223C6.21122 35.9887 6.19783 35.8692 6.14875 36.0698C6.06247 36.0905 6.06991 36.1067 6 36.1406L6.0357 36.4593L6.1428 36.5301V36.6363L6.2499 36.6717L6.3213 36.7779H6.39269V36.8133C6.46558 36.8546 6.47302 36.8133 6.54144 36.8841H6.82704V36.8487L6.97579 36.7425V36.6717L7.29708 36.3885V36.2822L7.51128 36.1052H7.58268L7.68978 35.9577L7.76118 35.9223V35.8515H7.79688L7.83257 35.7807H7.93967L8.04677 35.6332H8.08247V35.5624H8.29667V35.4916C8.41269 35.4621 8.43352 35.4104 8.47517 35.3145H8.54657C8.61053 35.0859 8.87827 35.0461 8.93926 34.8189C9.01952 34.7967 9.09352 34.7564 9.15545 34.7011C9.21738 34.6458 9.26558 34.5771 9.29626 34.5002H9.36766V34.4294C9.48489 34.3938 9.5859 34.3186 9.65325 34.217H9.68598V34.1462L9.75737 34.0754H9.83472L9.94182 33.9279H10.0132C10.0534 33.7568 10.153 33.7582 10.1917 33.6092H10.2988L10.3702 33.3614H10.4059C10.4654 33.2877 10.5219 33.2537 10.5547 33.149C10.6826 33.1136 10.7034 33.0325 10.8046 32.972L10.7956 32.9115ZM19.8693 33.3009C19.847 33.2154 19.8321 33.2228 19.7979 33.1534H19.6491V33.0826C19.519 33.0625 19.3865 33.0625 19.2564 33.0826V33.0472H19.2207L19.185 33.118H19.1493L19.1136 33.2655H19.0779L19.0422 33.478H19.0065L18.9351 33.5842H18.8637V33.6196C18.8117 33.6683 18.8161 33.6358 18.7923 33.7258C18.6956 33.7523 18.712 33.7332 18.6852 33.832C18.6199 33.8374 18.5578 33.8621 18.5067 33.9028V33.9736L18.358 34.0798V34.1152H18.2866L18.0367 34.3985H17.9296L17.8939 34.4693H17.8671V34.5401L17.6529 34.7171V34.7879H17.6172V34.8233C17.5131 34.8941 17.5265 34.7599 17.4685 34.9295H17.3614V34.9649H17.29L17.2543 35.0711L17.1055 35.1773V35.2482L17.0341 35.2836V35.3544C17.0014 35.3957 16.8675 35.4488 16.8199 35.5019C16.7027 35.6357 16.5954 35.7777 16.4986 35.9267H16.4629L16.4272 35.9975C16.3187 36.0654 16.335 35.9341 16.2785 36.1038C16.1208 36.12 16.0792 36.1982 16.0286 36.3162H15.9572C15.9171 36.459 15.8289 36.584 15.7073 36.6702L15.6716 36.741H15.6002L15.5288 36.8118V36.8826L15.4574 36.9181L15.386 37.0243C15.2849 37.0733 15.1892 37.1326 15.1004 37.2013H15.0647V37.3075H14.9933L14.8148 37.5199H14.7791V37.5907C14.6304 37.632 14.7419 37.6158 14.672 37.6969H14.6363V37.7323H14.5649L14.4935 37.8386H14.3864L14.2377 38.0156H14.1663L14.1306 38.1631C13.9565 38.2088 13.9729 38.3327 13.8807 38.4463L13.7736 38.4817C13.6625 38.6122 13.5667 38.7547 13.488 38.9066C13.4215 38.9064 13.3575 38.9318 13.3095 38.9774V39.0128H13.2024L13.1667 39.0836H13.131V39.1544H13.0953V39.1795C13.012 39.2488 13.0283 39.1397 12.9882 39.2857C12.9231 39.2918 12.8611 39.3164 12.8097 39.3565C12.7413 39.4347 12.8484 39.4199 12.7026 39.4627C12.6356 39.7032 12.4051 39.6383 12.3456 39.8522C12.2481 39.8885 12.1619 39.9495 12.0957 40.0292L12.06 40.1L11.9112 40.1354L11.8755 40.2062H11.7684L11.6614 40.3832L11.5543 40.4186L11.5186 40.5661L11.4472 40.6015V40.6724H11.4115L11.3044 40.8199H11.233L11.1259 40.9674H11.0188L10.9831 41.0382C10.8596 41.106 10.8596 40.9851 10.8046 41.1857C10.7183 41.2064 10.7257 41.2226 10.6558 41.2565C10.6558 41.4129 10.6647 41.4158 10.7272 41.5043H10.7629C10.8343 41.6312 10.7242 41.6666 10.9117 41.7168C10.9444 41.8451 11.0128 41.8525 11.1259 41.8938V41.9646L11.4115 42L11.4472 41.9292H11.5186V41.8348H11.5543L11.7327 41.6224H11.8041L11.8398 41.5516L12.0183 41.404L12.054 41.2978L12.1254 41.3332V41.2978H12.1968L12.2325 41.227H12.3634L12.649 40.873H12.6847V40.8022C12.7627 40.8074 12.8397 40.782 12.8989 40.7314V40.696H13.006V40.6606C13.0479 40.6235 13.0995 40.599 13.1548 40.5897C13.2039 40.4112 13.3467 40.3994 13.4761 40.3065L13.5832 40.159L13.6546 40.1236V40.0646L13.726 40.0292V39.9938H13.8331L13.9402 39.8463H13.9759V39.7755L14.2615 39.5276H14.2972V39.4214C14.3922 39.3902 14.4796 39.3393 14.5534 39.2722C14.6272 39.2051 14.6859 39.1232 14.7256 39.032C14.8743 39.0143 15.3369 38.5584 15.3682 38.4301C15.4277 38.4135 15.482 38.3819 15.5257 38.3385C15.5695 38.2951 15.6013 38.2413 15.618 38.1823C15.7936 38.1705 15.7668 38.11 15.9036 38.0761C15.9377 37.9588 16.0139 37.8581 16.1178 37.7928V37.7574H16.2249L16.2606 37.6866C16.3549 37.6116 16.4286 37.5142 16.4748 37.4034H16.5462V37.3326L16.6533 37.2972C16.6944 37.2465 16.7193 37.1849 16.7247 37.1201C16.9583 37.0921 16.9434 36.9431 17.046 36.8015C17.0907 36.7396 17.1769 36.7115 17.2245 36.6245H17.2959C17.342 36.4239 17.3792 36.477 17.5101 36.3767L17.76 36.058H17.8314L17.9028 35.9518H17.9742V35.9164C18.0768 35.8497 18.1526 35.7495 18.1884 35.6332C18.2866 35.6051 18.2702 35.6243 18.2955 35.527C18.3632 35.5074 18.4247 35.4708 18.474 35.4208V35.3853H18.5811L18.6168 35.3145L18.7656 35.2083V35.1375L18.837 35.1021V35.0667L19.0869 34.8543V34.754L19.3011 34.577L19.3367 34.4294H19.3724L19.4438 34.3232H19.5033L19.539 34.217L19.6878 34.1816L19.7235 34.0754H19.7592V34.0164H19.7949V33.9102L19.8663 33.8748V33.804L19.9734 33.7332L20.0805 33.4145C20.0488 33.385 20.0243 33.3487 20.0091 33.3083L19.8693 33.3009ZM11.3014 37.3016V37.2618C11.363 37.2653 11.4246 37.2537 11.4807 37.228C11.5368 37.2023 11.5855 37.1632 11.6227 37.1142L11.6584 37.0434H11.7655V37.008C11.8845 36.9431 11.9797 36.9048 12.0154 36.7602H12.0868L12.1582 36.654H12.2296L12.301 36.5832V36.5242H12.3367C12.3889 36.4767 12.4261 36.4152 12.4438 36.3472H12.5122L12.5836 36.2409H12.655L12.7264 36.1347H12.7621V36.0639L12.8692 36.0993L12.9049 36.0285H12.9763L13.0834 35.881L13.1905 35.8456V35.7866L13.2619 35.7158L13.4106 35.6804V35.6391L13.5594 35.5329V35.4621L13.6665 35.4267L13.7022 35.3558C13.7917 35.2905 13.865 35.2057 13.9164 35.108H13.9878C14.0428 34.9384 14.019 35.0711 14.1365 35.0018V34.9664L14.315 34.8189V34.754L14.4638 34.6478V34.577C14.5783 34.5489 14.5947 34.5298 14.6125 34.3999L14.791 34.3645C14.791 34.1418 14.8758 33.9308 14.791 33.7273H14.7553V33.6565C14.7464 33.6417 14.7062 33.624 14.6839 33.5856C14.5058 33.6027 14.3265 33.6027 14.1484 33.5856C14.0986 33.6485 14.0621 33.7208 14.0413 33.7981C13.9119 33.8099 13.8926 33.8261 13.8628 33.9456C13.7835 33.9624 13.7098 33.9989 13.6486 34.0518V34.0872H13.5415L13.5058 34.1934L13.4344 34.2288L13.2857 34.4058C13.1786 34.4973 13.1221 34.4058 13.0715 34.5829C13.016 34.5916 12.9643 34.6162 12.9227 34.6537V34.6891H12.8156V34.7245C12.7517 34.7761 12.7338 34.7673 12.7085 34.872H12.6371L12.6014 34.9782L12.53 35.0136L12.4229 35.1611H12.3515L12.2801 35.3086H12.2087C12.1864 35.4193 12.176 35.4562 12.06 35.4857C12.0332 35.5815 12.0526 35.5653 11.9529 35.5919C11.9083 35.7468 11.8681 35.6848 11.7744 35.7689L11.703 35.8751L11.5959 35.9105V35.9813L11.4472 36.0167L11.4115 36.0875H11.3044L11.1973 36.235L11.0902 36.2704L11.0545 36.3767C10.9503 36.4475 10.9637 36.3132 10.9057 36.4829C10.8194 36.5035 10.8269 36.5198 10.757 36.5537V36.7661H10.7272C10.7272 36.9003 10.7272 36.9136 10.8343 36.9431V37.0493C10.8522 37.0611 11.2255 37.3193 11.2954 37.3016H11.3014Z" fill="#222222"/>
</svg>
