<svg xmlns="http://www.w3.org/2000/svg" fill="none" viewBox="0 0 48 49"><path stroke="currentColor" stroke-linecap="round" stroke-width=".75" d="m19.774 11.743.716.804m1.116-1.911.657 1.471m1.738-2.033.003 1.834m2.33-1.186-.538 1.392m2.34-.371-.671.741"/><path fill="currentColor" fill-rule="evenodd" d="M17.708 17.554c.806-1.31 2.75-2.938 5.075-3.445 1.205-.264 2.503-.224 3.797.309 1.244.512 2.507 1.488 3.687 3.136-1.18 1.648-2.444 2.625-3.687 3.137-1.294.533-2.592.572-3.796.31-2.326-.509-4.27-2.137-5.076-3.447Zm-.754-.163a.367.367 0 0 0 .014.35c.838 1.521 3.027 3.402 5.659 3.976 1.33.29 2.783.25 4.233-.347 1.447-.596 2.867-1.735 4.152-3.599a.368.368 0 0 0 0-.434c-1.285-1.863-2.705-3.002-4.152-3.598-1.45-.597-2.903-.638-4.233-.348-2.636.576-4.827 2.46-5.663 3.982a.309.309 0 0 0-.01.018Z" clip-rule="evenodd"/><circle cx="24.023" cy="17.555" r="2.334" stroke="currentColor" stroke-width=".75"/><path stroke="currentColor" stroke-linecap="round" stroke-linejoin="round" stroke-width=".75" d="M27.175 26.446c.364-1.095 1.797-3.281 4.61-3.281 2.814 0 5.54 3.147 4.922 6.093-.533 2.554-2.436 3.638-3.104 4.247-.976.89-1.464 1.49-1.817 2.664-.206.68-.983 1.846-1.976 1.966-2.635.321-2.635-2.033-2.635-3.235"/><path stroke="currentColor" stroke-linecap="round" stroke-linejoin="round" stroke-width=".75" d="M34.02 30.92c.334-.892.64-.662.458-2.808-.181-2.146-3.205-3.365-4.402-2.415-.695.552-1.436 1.108-1.245 2.075.12.612.44 1.177.484 1.8.075 1.09-.16 1.586-.497 1.905-.244.23-.61.573-.61 1.082 0 .834.45.999.989 1.37"/><path fill="currentColor" d="M31.475 32.512a.375.375 0 0 0 .578.478l-.578-.478Zm-1.82-3.283c.202-.136.522-.18.907-.084.379.096.77.318 1.066.633.294.313.486.707.498 1.15.012.442-.152.98-.651 1.584l.578.478c.59-.714.84-1.423.823-2.083a2.493 2.493 0 0 0-.701-1.642 3.007 3.007 0 0 0-1.43-.847c-.51-.128-1.072-.106-1.51.19l.42.621Z"/><path stroke="currentColor" stroke-linecap="round" stroke-linejoin="round" stroke-width=".75" d="M18.827 27.259c.24-1.018 1.257-.755 1.403-.343.088.252.88 2.383.88 2.383s.803 2.189.416 5.435c-.018.416.513 2.463.513 2.463l-3.718.968c-.33-1.466-.49-1.804-.987-2.626-3.542-2.067-4.335-4.526-4.772-5.12-.48-.782-.589-.936-.065-1.12 1.023-.359 1.846.448 2.794 2.285l-1.248-3.415-1.48-3.715c-.277-.936 1.082-1.426 1.519-.498.437 1.147.937 2.466 1.482 3.905m3.263-.602c-.34-.416-1.1-.816-1.62.182m1.62-.182.555 1.606m-2.77 1.734c-.027-.097-.568-1.468-1.048-2.738m1.644-.42c-.41-.384-1.198-.597-1.644.42m1.644-.42.84 2.335"/><path stroke="currentColor" stroke-width=".24" d="M13.5 30.05c-.11-.39-.696-.342-.976-.27l.732 1.273c.126-.171.352-.612.243-1.002Z"/><path stroke="currentColor" stroke-linecap="round" stroke-width=".75" d="M15.407 25.036a2.27 2.27 0 1 0-3.27 1.07"/></svg>