<svg width="48" height="48" viewBox="0 0 48 48" fill="none" xmlns="http://www.w3.org/2000/svg">
<path d="M36.3161 8.4192C37.0409 8.11409 37.755 8.34426 38.4637 8.47272C38.9416 8.55837 39.4086 8.69219 39.8811 8.82066C42.2435 9.46834 43.4246 11.1491 43.8112 13.4401C44.085 15.0727 44.0796 16.7214 43.6716 18.3433C43.022 20.9447 41.7227 23.0752 39.2744 24.3705C38.061 25.0129 36.7671 25.2377 35.398 25.2377C32.9391 25.2377 30.4854 25.3073 28.0265 25.334C26.6198 25.3501 25.2078 25.3447 23.8011 25.4197C23.4843 25.4357 23.2535 25.5 23.1729 25.8479C23.1407 25.9871 23.0602 26.137 22.9582 26.2333C22.577 26.5759 22.6521 26.8917 22.8669 27.3146C24.6977 30.9759 23.6561 35.3652 20.3972 37.8596C16.3543 40.9535 10.3519 40.6752 6.82982 37.1423C2.51318 32.8172 3.17893 26.4474 8.52641 23.209C9.12773 22.845 9.76664 22.5399 10.4378 22.3311C10.7169 22.2455 10.7277 22.1545 10.6149 21.8922C9.09552 18.4289 9.0472 14.9978 11.0176 11.6844C12.0968 9.8698 13.7289 8.74036 15.8336 8.42455C17.1704 8.22114 18.5341 8.18903 19.8871 8.18367C24.032 8.16226 28.1768 7.87321 32.3216 8.06591C33.4974 8.11944 34.6732 8.18903 35.849 8.29073C35.9886 8.30143 36.2893 8.00168 36.3269 8.42455C36.0531 8.69754 35.7255 8.79389 35.339 8.72966C34.3618 8.55837 33.3686 8.59049 32.3861 8.55837C31.1243 8.51555 29.868 8.45667 28.6063 8.49413C24.6279 8.60654 20.6388 8.58513 16.6657 8.85812C14.7544 8.98659 13.1867 9.71457 11.9786 11.1866C9.36397 14.3662 9.3586 19.8474 11.9411 23.043C12.5155 23.755 13.2189 24.2795 14.0833 24.5846C14.69 24.7988 15.3235 24.8523 15.9624 24.8844C16.9073 24.9272 17.8577 24.9808 18.8026 24.9647C19.4147 24.954 19.5972 25.0236 19.6616 25.6284C19.7314 26.2975 19.6026 26.9452 19.3288 27.5608C19.216 27.8124 19.1033 28.064 18.9476 28.4065C19.8173 28.064 20.5797 27.7749 21.2508 27.2878C21.9381 26.79 22.3783 26.0941 22.8025 25.3876C22.9689 25.1092 23.1944 24.9486 23.5273 24.9486C25.1809 24.9326 26.8346 24.9112 28.4828 24.8951C30.7163 24.8683 32.9552 24.7666 35.1887 24.8362C37.5671 24.9112 39.5107 24.1082 41.0784 22.3686C43.0918 20.1365 43.634 17.4387 43.4515 14.5374C43.4407 14.3447 43.3495 14.1039 43.5911 13.9968C43.8756 13.8737 43.6662 13.6917 43.6018 13.6649C43.285 13.5151 43.285 13.2153 43.2045 12.953C42.7642 11.5024 42.0233 10.282 40.5898 9.61822C39.4999 9.11506 38.351 8.8153 37.1376 8.85812C36.7886 8.86883 36.445 8.85812 36.3215 8.43525L36.3161 8.4192ZM16.102 28.246C15.7745 28.2888 15.6242 28.1014 15.5758 27.8177C15.5275 27.5447 15.4148 27.245 15.7906 27.0898C15.8872 27.0523 15.9409 26.9934 15.9195 26.8756C15.8926 26.7418 15.9624 26.6134 16.0805 26.5759C16.4349 26.4688 16.6174 26.1905 16.8053 25.9121C16.9181 25.7516 17.0738 25.6873 17.2187 25.8211C17.5301 26.0995 17.7181 25.8747 17.9275 25.682C17.9865 25.6284 18.0832 25.5696 18.0295 25.4893C17.9382 25.3608 17.8684 25.4893 17.8093 25.5481C17.5731 25.789 17.3422 25.9014 17.1543 25.5053C17.1114 25.4143 17.0631 25.4357 16.9986 25.4625C16.8483 25.5214 16.7141 25.5 16.5798 25.409C16.4886 25.3447 16.3597 25.3287 16.2684 25.3876C16.1342 25.4732 16.2309 25.6124 16.2523 25.7194C16.4134 26.426 16.4188 26.426 15.7262 26.2761C15.7154 26.2761 15.6993 26.2761 15.6886 26.2761C15.5114 26.3082 15.3342 26.2868 15.3128 26.0834C15.2913 25.9121 15.404 25.7837 15.5812 25.7194C15.7262 25.6713 15.8228 25.5428 15.7906 25.409C15.753 25.2645 15.5866 25.334 15.4738 25.318C14.3034 25.1413 13.1437 24.9433 12.2525 24.0494C12.0807 23.8781 11.8981 23.7228 11.7156 23.5569C11.635 23.7978 11.5975 24.0601 11.2592 24.0172C11.1196 24.0012 11.1196 24.1082 11.0659 24.1832C10.9371 24.3705 10.7653 24.4294 10.5935 24.2528C10.4431 24.0975 10.2821 23.8834 10.5237 23.7014C10.8136 23.4766 10.6203 23.1983 10.5183 23.1126C10.3196 22.9467 10.2606 23.2411 10.1639 23.3589C9.94918 23.6211 9.86328 23.6158 9.71295 23.3107C9.67537 23.2357 9.72906 23.1126 9.56262 23.0698C9.65389 23.3321 9.48208 23.6318 9.80422 23.8245C9.90623 23.8834 9.87939 24.0547 9.82033 24.1671C9.75053 24.2956 9.64315 24.3652 9.48208 24.3331C9.40155 24.317 9.26733 24.1939 9.24585 24.3331C9.19753 24.6114 8.97203 24.6435 8.71969 24.7399C9.0472 24.9968 9.29417 25.2537 9.71832 25.4839C9.54114 25.0396 9.8257 24.7881 9.89549 24.4776C9.92234 24.3491 9.93845 24.2367 10.0834 24.1992C10.2391 24.1618 10.3519 24.226 10.4807 24.3277C10.7223 24.5258 10.8458 24.8362 11.0767 25.0075C11.4256 25.2698 11.4525 25.6231 11.4471 25.9657C11.4418 26.3297 11.0874 26.2975 10.8243 26.3243C10.8082 26.3243 10.7975 26.3618 10.7814 26.3832C10.921 26.5973 11.2163 26.9399 10.8888 27.0469C10.5129 27.17 10.3841 27.3467 10.2982 27.6679C10.2821 27.7321 10.1908 27.791 10.121 27.8231C9.54651 28.0747 9.117 28.4547 9.00962 29.1078C9.2888 29.2309 9.50893 29.5413 9.9116 29.5735C10.1156 29.5895 10.1854 29.825 10.0297 30.0231C9.83107 30.28 9.2888 30.2586 9.1331 29.9696C9.07404 29.8625 9.02572 29.8357 8.93445 29.825C8.59621 29.7876 8.56936 29.5681 8.68211 29.3326C8.76801 29.1506 8.68211 29.0649 8.59084 28.9418C8.32776 28.5992 7.98951 28.8134 7.68348 28.808C7.59221 28.808 7.44188 28.7438 7.42577 28.9151C7.41504 29.0863 7.39893 29.2737 7.45262 29.4289C7.47946 29.4985 7.6459 29.4289 7.74791 29.3861C7.8875 29.3379 8.10763 29.2469 8.14521 29.4075C8.24722 29.8357 8.75191 30.0873 8.63916 30.6333C8.92908 30.2426 9.32101 30.4567 9.64315 30.3817C10.3196 30.2211 10.6579 30.9545 11.2646 30.8902C11.2861 30.8902 11.3075 30.9545 11.3344 30.9812C11.7102 31.3934 12.1773 31.6771 12.6874 31.8805C13.1008 32.0411 13.1974 32.1803 13.0041 32.5496C12.8753 32.7958 12.8108 33.0421 12.7786 33.3097C12.7303 33.7219 12.5692 34.0698 12.0807 34.1287C11.984 34.1394 11.9303 34.1929 11.9035 34.2732C11.7746 34.6158 11.4686 34.8567 11.3559 35.2207C11.2914 35.4294 11.3559 35.6917 11.125 35.8416C10.7545 36.0878 10.7706 36.4786 10.7331 36.8479C10.7169 36.9924 10.7653 37.1423 10.7492 37.2922C10.7384 37.4367 10.7384 37.6026 10.5612 37.6615C10.4055 37.7151 10.266 37.6508 10.1478 37.5598C9.84717 37.335 9.65389 37.0245 9.6861 36.6552C9.76127 35.6596 9.55188 34.6907 9.5143 33.7058C9.50893 33.5345 9.49282 33.3365 9.34249 33.2776C8.81096 33.0742 8.79486 32.5603 8.61231 32.1481C8.5103 31.9287 8.4942 31.7092 8.64453 31.4951C8.84855 31.2061 8.75728 30.9973 8.44588 30.8795C7.43651 30.4941 6.59895 29.8893 5.98689 28.9793C5.94394 28.9204 5.89025 28.8936 5.82046 28.8776C5.68086 28.8455 5.63254 28.7438 5.56811 28.6099C5.42315 28.2941 5.33188 27.9408 5.08491 27.625C5.02048 27.7642 4.97216 27.8445 4.94532 27.9301C4.07018 30.4567 4.2742 32.8975 5.72381 35.1511C7.49557 37.9024 10.0941 39.3477 13.3531 39.6046C18.0456 39.9739 22.7005 36.9817 23.3125 31.9662C23.4199 31.099 23.4843 30.2533 22.6575 29.6484C22.5662 29.5788 22.5233 29.4503 22.4535 29.354C22.3622 29.2362 22.3193 28.9525 22.1475 29.0649C21.9649 29.1881 21.5622 29.1185 21.632 29.5413C21.6804 29.8464 21.6267 30.098 21.2401 30.1569C21.0951 30.1783 20.9985 30.3496 20.8213 30.355C20.7784 30.355 20.628 30.4192 20.7139 30.5048C21.1649 30.9384 20.7139 31.3078 20.5314 31.5433C20.2093 31.9501 20.1556 32.373 20.075 32.844C19.9784 33.3954 19.6079 33.8717 19.4952 34.4338C19.4952 34.4552 19.463 34.4766 19.4361 34.4873C19.1462 34.6051 18.9851 34.8674 18.765 35.0601C18.5288 35.2742 18.3033 35.3384 18.0563 35.0226C17.6429 34.4873 17.4926 33.8343 17.4765 33.2294C17.4604 32.6995 17.3047 32.2659 17.1167 31.8109C16.9879 31.4951 16.7087 31.3506 16.3919 31.3185C16.1664 31.2971 15.9356 31.2489 15.7101 31.2435C15.1785 31.2435 14.9638 30.8688 14.8457 30.4781C14.7007 30.0017 14.5396 29.4771 15.0228 29.0703C15.3718 28.7759 15.7369 28.5029 16.0966 28.2245C16.1718 28.2031 16.2523 28.1924 16.3275 28.1657C16.7463 27.9997 17.1221 27.8391 17.5194 28.2941C17.8093 28.626 18.4536 28.428 18.6362 27.9997C18.1583 28.2192 18.1852 27.7642 18.0241 27.5501C17.8899 27.9783 17.6859 28.0265 17.3798 27.7267C17.3154 27.6625 17.2563 27.5876 17.2026 27.5073C17.1006 27.3681 17.0362 27.3735 16.8537 27.443C16.451 27.5929 16.3597 27.9676 16.1127 28.2299L16.102 28.246ZM10.2069 24.5044C10.0834 24.863 9.92771 25.1788 9.88476 25.5481C9.86328 25.7783 9.60557 25.8907 9.38544 25.682C9.13847 25.4464 8.87539 25.243 8.61231 25.0289C8.37608 24.8309 8.39219 24.6221 8.65526 24.4294C8.98277 24.1939 9.21364 23.8888 9.29954 23.4873C9.31565 23.407 9.36934 23.3267 9.29954 23.2625C9.21901 23.1876 9.15458 23.2679 9.08478 23.3053C7.49557 24.119 6.3144 25.3501 5.39631 26.8596C5.32114 26.9881 5.18692 27.1433 5.24598 27.2664C5.45537 27.7107 5.64865 28.1817 5.95468 28.5564C6.2285 28.8936 6.5399 29.2202 6.85666 29.5306C7.2647 29.9321 7.74254 30.2372 8.28481 30.4567C8.1989 30.1944 7.96267 30.007 7.97878 29.718C7.97878 29.6698 7.91435 29.6484 7.84992 29.6591C7.62442 29.6966 7.39356 29.7608 7.18417 29.6056C6.90498 29.4022 7.21638 29.1613 7.14659 28.9311C7.06068 28.6635 7.21638 28.535 7.4902 28.5297C7.75865 28.519 8.0271 28.4868 8.30091 28.4708C8.4244 28.4601 8.55325 28.444 8.62842 28.5671C8.76801 28.7866 8.83781 28.6795 8.91834 28.519C9.07941 28.1871 9.26733 27.8445 9.61094 27.7C9.87402 27.5929 10.1156 27.5608 10.0888 27.1915C10.078 27.0523 10.2284 26.9452 10.3572 26.9185C10.6794 26.8489 10.7277 26.7311 10.4914 26.4849C10.4055 26.3992 10.2821 26.2815 10.368 26.1316C10.4485 25.9871 10.6096 26.0567 10.7331 26.0299C10.8726 26.0031 11.1411 26.1155 11.1142 25.8854C11.0928 25.6713 11.2431 25.3073 10.819 25.2537C10.7492 25.243 10.6525 25.227 10.6525 25.1628C10.6686 24.8255 10.3411 24.7345 10.1962 24.4936L10.2069 24.5044ZM17.7181 33.1438C17.8791 33.6523 17.9328 34.225 18.2281 34.7228C18.3946 35.0065 18.5395 35.0119 18.7382 34.7443C19.0227 34.3642 19.5167 34.0966 19.4361 33.5024C19.4254 33.4382 19.5328 33.3472 19.5972 33.2829C19.7153 33.1759 19.7905 33.0367 19.7959 32.8922C19.8066 32.3087 19.9838 31.7949 20.322 31.3185C20.3972 31.2114 20.467 31.0936 20.5368 30.9812C20.5905 30.8902 20.6603 30.7992 20.4884 30.7297C19.7368 30.4406 19.4683 29.7715 19.2643 29.081C19.1892 28.8401 19.1194 28.7759 18.8831 28.8508C18.3301 29.0275 17.8738 28.5992 17.353 28.5832C17.3315 28.5832 17.2993 28.5243 17.2885 28.4868C17.208 28.1657 16.9933 28.246 16.7785 28.3102C16.2309 28.4654 15.8121 28.8187 15.3879 29.1827C15.0443 29.4771 14.9155 29.809 15.1249 30.4031C15.243 30.735 15.4631 30.9919 15.8926 31.0027C16.2416 31.0134 16.5852 31.1044 16.9288 31.1632C17.0362 31.1846 17.1436 31.2489 17.1812 31.3506C17.3959 31.9287 17.9113 32.4104 17.7234 33.1384L17.7181 33.1438ZM10.3787 37.3243C10.4592 37.228 10.4163 37.1477 10.4217 37.0727C10.4539 36.6338 10.368 36.1627 10.6847 35.7934C11.1089 35.3063 11.1626 34.6211 11.6082 34.1394C11.7317 34.0056 11.7907 33.8182 12.0109 33.8075C12.2525 33.7915 12.376 33.6469 12.4082 33.4275C12.4565 33.1063 12.5692 32.8012 12.6874 32.5014C12.7196 32.4211 12.8269 32.2766 12.6444 32.2391C12.3545 32.1856 12.1934 31.8484 11.8444 31.8966C11.6726 31.9233 11.5867 31.752 11.5008 31.6022C11.329 31.2971 11.0767 31.0829 10.7062 31.0829C10.4431 31.0829 10.2713 30.9705 10.1425 30.7618C10.0619 30.6333 9.95455 30.537 9.81496 30.6494C9.63778 30.7939 9.47671 30.7564 9.29417 30.6708C9.19753 30.628 9.07941 30.6119 8.99351 30.7082C8.91297 30.7992 8.96666 30.8795 9.02035 30.9652C9.11163 31.1044 9.07941 31.2489 9.02035 31.3881C8.78412 31.9662 8.9613 32.6138 9.46061 32.9778C9.61631 33.0902 9.76127 33.2241 9.76664 33.4328C9.79885 34.4659 10.0619 35.4829 10.0243 36.5214C10.0136 36.8265 10.0673 37.1316 10.3841 37.3136L10.3787 37.3243ZM22.2495 27.0095C21.4549 27.6946 20.6227 28.2727 19.5757 28.6207C20.0536 28.9525 20.1824 29.4182 20.3811 29.8411C20.4348 29.9535 20.4723 30.1623 20.6227 30.1194C20.8643 30.0552 21.1059 29.9374 21.3099 29.7929C21.4549 29.6912 21.3528 29.4878 21.3528 29.3326C21.3528 29.263 21.3314 29.1988 21.3367 29.1292C21.369 28.8776 21.4602 28.6849 21.7502 28.8722C21.879 28.9579 21.9381 28.9044 22.024 28.8294C22.2548 28.6153 22.4213 28.7277 22.534 28.9579C22.679 29.2523 22.926 29.4396 23.2159 29.718C23.0817 28.6902 22.7327 27.8391 22.2495 27.0041V27.0095ZM18.3946 27.6679C18.663 27.5662 18.7435 27.3199 18.7811 27.0469C18.7865 26.9988 18.8241 26.9292 18.8617 26.9131C19.3234 26.699 19.2214 26.2761 19.2482 25.9014C19.259 25.7408 19.3126 25.4625 19.0871 25.4732C18.8455 25.4839 18.5395 25.3019 18.3355 25.6659C18.2066 25.8907 17.9489 26.062 17.7181 26.2065C17.557 26.3082 17.3906 26.153 17.2295 26.0834C17.1758 26.0567 17.063 26.0513 17.0416 26.0834C16.8161 26.3725 16.6335 26.699 16.2631 26.8382C16.4188 27.2182 16.0752 27.2236 15.8872 27.352C15.7477 27.4484 15.8121 27.5929 15.8497 27.7214C15.8711 27.7963 15.8926 27.9034 15.9839 27.8927C16.1074 27.882 16.1235 27.7374 16.1664 27.6518C16.4778 27.0683 17.0094 26.9827 17.4657 27.443C17.514 27.4966 17.5463 27.5876 17.6751 27.5501C17.659 27.4752 17.6483 27.4002 17.6268 27.3253C17.5838 27.1754 17.5516 27.0202 17.7234 26.9399C17.9221 26.8435 18.0295 26.9881 18.11 27.1326C18.2174 27.3146 18.3086 27.5126 18.3892 27.6679H18.3946ZM19.5972 28.9579C19.565 28.9793 19.5328 28.9953 19.5006 29.0168C19.7099 29.536 19.9891 30.007 20.3327 30.4513C20.365 30.4299 20.4025 30.4085 20.4348 30.3924L19.5972 28.9632V28.9579Z" fill="#222222"/>
<path d="M24.0588 17.2192C24.0588 16.8284 24.0373 16.4377 24.0588 16.0469C24.0856 15.5812 24.5581 15.3457 24.9286 15.6294C25.1057 15.7686 25.1916 15.7204 25.342 15.6401C25.8574 15.3725 26.3567 15.3618 26.8023 15.7846C26.9258 15.9024 26.9903 15.8649 27.0976 15.7739C27.554 15.3885 28.064 15.3082 28.6063 15.5759C29.1432 15.8382 29.2935 16.3146 29.2828 16.8552C29.2774 17.3691 29.2667 17.8829 29.2184 18.3915C29.1754 18.8893 29.0358 18.9696 28.5311 18.9481C28.0426 18.9267 28.1983 18.5681 28.1929 18.3219C28.1768 17.8508 28.2197 17.3798 28.2197 16.9087C28.2197 16.6625 28.1714 16.3842 27.8654 16.352C27.554 16.3199 27.2748 16.427 27.1621 16.7696C26.9741 17.3316 27.0762 17.9204 27.0117 18.4985C26.9741 18.8464 26.8238 18.9749 26.4909 18.916C26.3138 18.8839 26.2064 18.7876 26.1581 18.6056C26.099 18.3808 26.1044 18.1506 26.1205 17.9258C26.1473 17.6046 26.1795 17.2781 26.1742 16.9569C26.1742 16.534 26.0024 16.3627 25.6695 16.3735C25.2131 16.3895 24.95 16.6304 25.0037 17.0533C25.0682 17.5832 24.9286 18.1024 24.9554 18.627C24.9715 18.9267 24.7084 18.9 24.5259 18.9428C24.3219 18.991 24.1447 18.9321 24.0695 18.7126C24.0105 18.5306 23.989 18.3433 24.0051 18.1506C24.0266 17.8401 24.0481 17.5297 24.0695 17.2192C24.0695 17.2192 24.0588 17.2192 24.0534 17.2192H24.0588Z" fill="#222222"/>
<path d="M18.3623 17.626C18.5664 17.4226 18.6147 17.1764 18.6952 16.9569C18.969 16.1968 19.2428 15.4367 19.4952 14.6659C19.5811 14.409 19.7368 14.2966 19.9891 14.2645C20.1556 14.243 20.3327 14.2163 20.4455 14.3554C20.5475 14.4839 20.4186 14.607 20.3703 14.7301C19.9838 15.7365 19.5865 16.7374 19.1999 17.7491C19.0979 18.0168 19.0012 18.279 18.8187 18.5039C18.4805 18.9214 17.9436 18.8732 17.6912 18.4075C17.2617 17.6207 17.0684 16.7428 16.7624 15.9078C16.6389 15.5652 16.51 15.228 16.3651 14.8907C16.2684 14.6659 16.2094 14.4143 16.5369 14.3447C16.7946 14.2859 17.0899 14.0878 17.2617 14.5428C17.5838 15.3885 17.8738 16.245 18.1315 17.1068C18.1798 17.2727 18.212 17.4494 18.357 17.626H18.3623Z" fill="#222222"/>
<path d="M23.436 17.1282C23.4414 17.6207 23.2803 18.1185 23.4951 18.6056C23.5434 18.7126 23.5112 18.8679 23.3608 18.9C23.0978 18.9535 22.7327 19.1034 22.5931 18.8679C22.3568 18.4718 22.1743 18.7233 21.9649 18.825C21.5998 19.0017 21.2347 19.0606 20.8857 18.8197C20.5475 18.5842 20.3972 18.2416 20.4294 17.8348C20.4723 17.2781 20.9985 16.8231 21.6696 16.7428C21.8146 16.7267 21.9649 16.7321 22.1152 16.7267C22.2387 16.7214 22.3783 16.7 22.4213 16.5715C22.475 16.4216 22.3676 16.3146 22.2548 16.2343C21.9864 16.0362 21.7287 16.0469 21.4978 16.3039C21.428 16.3842 21.3797 16.4912 21.2938 16.5554C21.0898 16.716 20.8374 16.7107 20.6495 16.5876C20.4723 16.4698 20.6227 16.261 20.6871 16.1165C20.9126 15.6241 21.6213 15.2922 22.2387 15.3671C22.883 15.4474 23.2642 15.7954 23.3769 16.443C23.4145 16.6679 23.4092 16.898 23.4253 17.1282H23.436ZM22.2441 17.3851C22.0186 17.4119 21.8199 17.5457 21.6052 17.5992C21.3636 17.6635 21.2347 17.7705 21.3153 18.0221C21.3958 18.2683 21.5676 18.3968 21.8468 18.3272C22.1958 18.2362 22.3944 18.0007 22.5018 17.6742C22.577 17.4547 22.4588 17.3798 22.2495 17.3851H22.2441Z" fill="#222222"/>
<path d="M34.9685 19.2479C34.6518 19.2318 34.2115 19.0873 33.8518 18.7501C33.6585 18.5681 33.5457 18.3326 33.7659 18.1185C33.9592 17.9258 34.2008 17.7973 34.4638 18.081C34.6088 18.2362 34.8021 18.3486 34.99 18.4557C35.2048 18.5735 35.4141 18.5574 35.5376 18.3112C35.6665 18.0649 35.4625 17.9579 35.3014 17.8776C35.0007 17.7277 34.6786 17.6153 34.3726 17.4708C33.782 17.1924 33.6585 16.7856 33.9967 16.2236C34.2759 15.7632 34.7001 15.5384 35.2262 15.5973C35.7631 15.6562 36.1658 15.972 36.4665 16.4163C36.5685 16.5662 36.4718 16.6732 36.3698 16.7642C36.2302 16.8927 36.0853 17.0426 35.8759 16.9141C35.7148 16.8177 35.5645 16.7 35.4141 16.5876C35.2638 16.4805 35.1135 16.4056 34.9256 16.4859C34.845 16.518 34.786 16.5822 34.8074 16.6732C34.845 16.8552 35.0061 16.9141 35.1564 16.9783C35.4678 17.1121 35.7846 17.2299 36.0799 17.3851C36.6061 17.6635 36.6651 17.9846 36.3913 18.5199C36.1228 19.0391 35.7041 19.2533 34.9739 19.2426L34.9685 19.2479Z" fill="#222222"/>
<path d="M33.2075 17.3744C33.1968 18.4718 32.2196 19.371 31.2639 19.1569C30.3244 18.9481 29.6908 17.8401 29.9861 16.9141C30.0935 16.5769 30.276 16.2718 30.5123 16.0095C30.8881 15.5919 31.4572 15.4635 31.9995 15.6615C32.7136 15.9185 33.2129 16.625 33.2075 17.3691V17.3744ZM32.4075 17.4868C32.3914 17.2941 32.3646 17.1068 32.2787 16.9355C32.0746 16.5287 31.7418 16.3306 31.3391 16.3895C30.915 16.4537 30.7915 16.7749 30.7163 17.1336C30.6358 17.5029 30.6948 17.8562 30.8988 18.1773C31.1297 18.5413 31.5539 18.6323 31.9243 18.4022C32.2679 18.1934 32.3914 17.8615 32.4075 17.4868Z" fill="#222222"/>
<path d="M37.4597 14.4518C37.8355 14.3608 37.9805 14.5856 37.9644 14.8907C37.9161 15.7525 37.8355 16.609 37.7496 17.4654C37.7282 17.6581 37.6798 17.8883 37.3899 17.8562C37.1215 17.8294 37.0248 17.6367 37.0195 17.4012C37.0034 16.9408 37.0087 16.4859 36.998 16.0255C36.9926 15.6883 36.9872 15.3511 36.9604 15.0138C36.9228 14.4839 36.9121 14.4839 37.4651 14.4464L37.4597 14.4518Z" fill="#222222"/>
<path d="M15.855 18.8411C15.855 19.2051 15.855 19.4834 15.855 19.7671C15.855 19.9224 15.8336 20.0669 15.7315 20.1846C15.5973 20.3452 15.4309 20.3827 15.2215 20.3185C15.039 20.2596 15.0067 20.1365 15.0175 19.9759C15.0819 19.189 15.141 18.3968 15.2161 17.6099C15.2322 17.4494 15.2967 17.2567 15.4738 17.2406C15.6832 17.2245 15.7369 17.4226 15.7852 17.5992C15.9034 18.0382 15.8336 18.4825 15.8497 18.8411H15.855Z" fill="#222222"/>
<path d="M37.8946 18.461C37.9 18.7662 37.6423 19.0445 37.3362 19.0338C37.057 19.0284 36.9174 18.8679 36.9121 18.5949C36.9067 18.3112 37.1644 18.0435 37.449 18.0435C37.7174 18.0435 37.8785 18.1773 37.8892 18.461H37.8946Z" fill="#222222"/>
<path d="M15.5436 15.9345C15.8013 15.9666 16.0161 16.0844 16.0054 16.3574C15.9946 16.6679 15.7369 16.7856 15.4631 16.791C15.2108 16.791 15.0551 16.6411 15.0658 16.3788C15.0765 16.0791 15.2806 15.9666 15.549 15.9345H15.5436Z" fill="#222222"/>
<path d="M20.3005 33.8825C20.3864 33.572 20.4616 33.2615 20.5529 32.9564C20.5958 32.8119 20.6925 32.662 20.8696 32.7209C21.0414 32.7798 21.2562 32.8708 21.2186 33.101C21.1649 33.4275 21.0737 33.7486 20.9824 34.0698C20.9341 34.2357 20.8159 34.3642 20.6227 34.3107C20.424 34.2572 20.3005 34.1233 20.3059 33.8878L20.3005 33.8825ZM20.9019 33.0581C20.8696 33.0528 20.8428 33.0474 20.8106 33.0421C20.7354 33.3151 20.6495 33.5881 20.5797 33.8664C20.5636 33.9253 20.569 34.0109 20.6656 34.0109C20.7462 34.0109 20.7891 33.9467 20.7998 33.8825C20.8374 33.6095 20.8696 33.3365 20.9019 33.0635V33.0581Z" fill="#222222"/>
<path d="M10.3196 30.0552C10.3035 29.8839 10.368 29.7554 10.5612 29.7662C10.8565 29.7876 10.9263 30.0284 10.9532 30.2533C10.9747 30.4245 10.7975 30.4727 10.6686 30.462C10.4324 30.446 10.3089 30.2961 10.3196 30.0499V30.0552Z" fill="#222222"/>
</svg>
