<svg xmlns="http://www.w3.org/2000/svg" fill="none" viewBox="0 0 48 49"><path fill="#222" fill-rule="evenodd" d="M18.127 30.351h.985a2.251 2.251 0 0 1 2.25 2.25v4.826a2.199 2.199 0 0 1-2.197 2.198h-11.4a1.707 1.707 0 0 1-1.706-1.706v-5.74c0-1.009.82-1.828 1.827-1.828h7.204l2.027-2.592a.508.508 0 0 1 .908.29l.102 2.302Zm-2.572 1.017H7.886a.811.811 0 0 0-.81.81v5.74c0 .381.309.69.69.69h11.399c.652 0 1.181-.529 1.181-1.18v-4.826c0-.681-.553-1.234-1.234-1.234h-1.814a.507.507 0 0 1-.158-.346l-.07-1.554-1.4 1.792a.504.504 0 0 1-.115.108Z" clip-rule="evenodd"/><path fill="#222" d="M9.476 35.902h1.181l-.553-1.841-.628 1.841Zm2.155 1.533a.543.543 0 0 1-.352-.107c-.088-.07-.167-.199-.238-.383l-.189-.521H9.287l-.2.534c-.114.318-.29.477-.528.477a.62.62 0 0 1-.302-.075.432.432 0 0 1-.189-.201c.11-.046.208-.182.296-.409l1.357-3.475a.746.746 0 0 0-.207-.307.533.533 0 0 1 .452-.233c.193 0 .329.048.409.145.083.092.167.255.25.49l1.182 3.299c.092.247.214.408.365.484-.097.188-.277.282-.54.282ZM13.291 34.846h1.96a.365.365 0 0 1 .032.164c0 .352-.25.528-.748.528h-1.948a.416.416 0 0 1-.044-.189c0-.335.25-.503.748-.503ZM19.353 36.845c0 .352-.312.528-.937.528h-1.84a.892.892 0 0 1-.579-.183.597.597 0 0 1-.226-.49c0-.21.121-.434.364-.672l2.432-2.596c-.599.097-1.202.145-1.81.145-.607 0-.91-.174-.91-.521a.52.52 0 0 1 .138-.352c.176.058.431.088.766.088h1.785c.23 0 .42.06.572.182a.59.59 0 0 1 .232.49c0 .205-.123.431-.37.679l-2.426 2.601 1.942-.113c.31-.021.55-.08.722-.176a.568.568 0 0 1 .145.39Z"/><path fill="#222" fill-rule="evenodd" d="M23.1 26.51a9.897 9.897 0 0 1-1.284-1.72c-.12.016-.259.027-.406.02-.479-.02-1.013-.216-1.271-.861-.197-.494-.093-.963.12-1.346.136-.244.317-.449.465-.594a9.385 9.385 0 0 1-.215-2.003c0-5.428 4.647-9.847 10.386-9.847 5.738 0 10.386 4.419 10.386 9.847a9.392 9.392 0 0 1-1.185 4.568l1.8 3.893a.447.447 0 0 1-.593.594l-3.574-1.643c-1.826 1.515-4.217 2.435-6.834 2.435-2.158 0-4.16-.625-5.82-1.693a10.35 10.35 0 0 1-.638-.444.442.442 0 0 1 .017-.09l.706-2.32-1.423 1.252a.448.448 0 0 1-.607-.015l-.03-.032Zm-2.087-2.808c.032.05.07.088.112.118.211.174.545.233.876.128a1.12 1.12 0 0 0 .17-.069.147.147 0 0 1 .197.064c.307.59.68 1.142 1.112 1.65l2.27-1.999a.447.447 0 0 1 .723.466l-1 3.293a9.845 9.845 0 0 0 5.422 1.605c2.394 0 4.585-.838 6.256-2.222.126-.104.248-.21.367-.32a.446.446 0 0 1 .25.036l2.807 1.29-1.423-3.077a.446.446 0 0 1-.041-.176 8.501 8.501 0 0 0 1.275-4.483c0-4.949-4.26-8.953-9.491-8.953-5.232 0-9.492 4.004-9.492 8.953a8.497 8.497 0 0 0 .338 2.376.147.147 0 0 1-.105.184.922.922 0 0 0-.065.018c-.473.149-.76.576-.642.952.02.06.048.116.084.166Z" clip-rule="evenodd"/><path fill="#222" d="M23.82 21.706c.304-.137.404-.573.222-.974-.181-.401-.574-.615-.878-.478-.304.137-.403.574-.222.975.182.4.575.615.878.477Z"/></svg>