<svg viewBox="0 0 48 48" fill="none" xmlns="http://www.w3.org/2000/svg">
<path d="M5.67164 29.2338H6.25207V29.3168L6.41791 29.3997L6.8325 29.4826H7.49585V29.5655C7.8209 29.6816 8.24876 29.7347 8.65672 29.7313L10.0299 30.2952H11.1907V30.3781C11.3068 30.4046 11.1774 30.3615 11.2736 30.2952H11.3566V30.3781H12.1857C12.3118 30.4146 12.6799 30.5307 12.932 30.461V30.3781H13.4295V30.461L14.8391 30.3781V30.2952H15.3366C15.3366 30.2952 15.3201 30.1891 15.5025 30.2123C15.5257 30.2786 15.5987 30.3151 15.6683 30.2952V30.2123H15.9171V30.1294H16.0829V30.0464H16.3317L16.4146 29.8806H16.9121V29.7977L17.2438 29.7148V29.6318H17.4925C17.5191 29.5755 17.5489 29.5224 17.5755 29.466H17.9901V29.3831L18.4876 29.3002V29.2172H18.6534V29.1343L19.1509 29.0514V28.9685L19.7313 28.8856V28.8027L20.2289 28.7197V28.6368H20.3947V28.5539H20.6435V28.471L21.7214 28.3881V28.3051H21.8872V28.2222H22.136V28.1393L23.2969 28.0564V27.9735H23.6285V27.8905H23.7944V27.8076H24.0431V27.7247H24.3748V27.6418C24.8491 27.4959 26.1559 27.7015 26.2819 27.7247L27.194 27.6418V27.7247H27.4428V27.8076L28.0232 27.8905H28.3549V27.9735H28.6866V28.0564H29.0182V28.1393H29.267V28.2222H29.5987C29.6252 28.2786 29.6551 28.3317 29.6816 28.3881L31.0083 28.5539V28.6368H31.2571V28.7197H31.4229V28.8027H31.8275V28.8856L32.1592 28.9685V29.0514L32.6567 29.1343V29.2172H33.3201V29.3002H33.4859L33.5688 29.466L34.0663 29.5489V29.6318H34.6468C34.6468 29.6318 34.6269 29.728 34.8126 29.7148V29.6318H34.8955L35.8905 29.9635C35.9171 30.0199 35.9469 30.073 35.9735 30.1294H36.3881V30.2123L37.466 30.3781C37.466 30.3781 37.6053 30.3317 37.7977 30.3781H38.0464C38.325 30.3217 38.5439 30.4909 38.7098 30.5439H39.6219V30.6269H40.0365C40.063 30.6833 40.0929 30.7363 40.1194 30.7927C40.1194 30.7927 41.1078 30.7629 41.5954 30.6269H42.0929C42.209 30.6468 42.1758 30.6269 42.1758 30.6269H42.4245V30.5439L42.8391 30.461C42.8657 30.4046 42.8955 30.3516 42.9221 30.2952L43.5025 30.2123V30.0464L43.8342 29.9635V29.7977H44C43.9901 29.3599 43.9735 29.3599 43.6683 29.2172C43.6418 29.204 43.6053 29.0713 43.4196 29.1343C43.393 29.1907 43.3632 29.2438 43.3367 29.3002H42.5075V29.3831H42.1758V29.466H41.8441V29.5489L40.7662 29.6318C40.7662 29.6318 40.5506 29.6285 40.534 29.6318H40.1194V29.5489H39.1244V29.466H38.9585V29.3831H38.2952V29.3002H37.9635V29.2172H37.7148V29.1343H37.3831V29.0514H36.9685V28.9685L35.8076 28.8856V28.8027H35.6418V28.7197L34.9784 28.6368V28.5539H34.7297V28.471H34.4842V28.3881H34.2355V28.3051L33.1575 28.2222V28.1393L32.66 27.9735V27.8905H32.4113V27.8076H31.9138V27.7247H31.7479V27.6418H31.3333V27.5589H31.0846V27.476H30.9187V27.393L30.4212 27.3101V27.2272H29.9237V27.1443H29.592V27.0614L29.3433 26.9784H29.0945V26.8955H28.8458C28.7231 26.8093 28.6733 26.1061 28.597 25.9005H28.5141V25.6517H28.4312V25.3201H28.3483V24.9884H28.2653V24.7396H28.1824C28.1625 24.67 28.199 24.6003 28.2653 24.5738C28.209 24.325 28.1559 24.0763 28.0995 23.8275L27.9337 23.7446V23.4959H27.8507V23.1642H27.7678V23.0813C27.7678 23.0713 27.8939 23.0481 27.8507 22.9154H27.7678V22.7496H27.6849V22.4179H27.602V22.0862H27.5191V21.7546H27.4362C27.4096 21.3964 27.3798 21.0348 27.3532 20.6766H27.2703V20.4279H27.1874V20.0962L27.0216 20.0133V19.8474H26.9386L26.8557 19.1012H26.7728V18.7695H26.6899V18.4378L26.524 18.3549V18.0232H26.4411C26.4146 17.665 26.3847 17.3068 26.3582 16.9453H26.2753C26.2488 16.7794 26.2189 16.6136 26.1924 16.4478H26.1095V16.2819H26.0265V15.6186H25.9436C25.8043 15.1476 25.6683 14.6799 25.529 14.209L26.3582 13.9602L26.524 14.0431V13.9602H26.7728V13.8773H27.0216V13.7944H27.3532V13.7181H27.5191V13.6385L28.3483 13.5556V13.4726H28.5141V13.3897H28.7629V13.3068H29.4262V13.2239H29.7579V13.141H30.0896V13.058H30.4212V12.9751H30.5871V12.8922H30.8358V12.8093H31.0846V12.7264H31.2504V12.6434L32.3284 12.5605V12.4776H32.4942C32.5207 12.4212 32.5506 12.3682 32.5771 12.3118L33.4892 12.2289V12.1459H33.6551V12.063L34.2355 11.9801V11.8972H34.8159V11.8143H35.0647V11.7313H35.3134V11.6484H35.5622V11.5655H35.728V11.4826H35.9768C36.1857 11.3831 36.1924 11.2172 36.4743 11.1509C36.5605 10.8425 36.7363 10.7828 36.806 10.4046H36.9718C36.9983 10.2123 37.0282 10.0166 37.0547 9.82421H37.1376C37.1443 9.78109 36.8292 8.78275 36.806 8.74627H36.7231C36.6667 8.54063 36.6799 8.61028 36.5572 8.49751V8.41128H36.3914L36.2255 8.16252H36.0597V8.08292H35.8109V8L33.9038 8.16584V8.24876C33.791 8.25207 33.7711 8.12272 33.5721 8.16584V8.24876H33.4063V8.16584L33.1575 8.24876L32.9917 8.16584V8.24876H32.66V8.33167C32.3615 8.41791 31.7944 8.22222 31.665 8.24876V8.33167H31.4163V8.41459C31.2239 8.46766 31.1907 8.31509 31.0846 8.33167C31.0846 8.33167 31.0116 8.44776 30.8358 8.41459C30.7197 8.39138 30.869 8.31509 30.7529 8.33167V8.41459H30.4212V8.49751L30.0066 8.41459V8.49751H29.7579V8.58043H29.5091V8.49751H29.4262V8.58043H28.4312C28.3151 8.60365 28.4643 8.67993 28.3483 8.66335V8.58043H28.0995V8.66335C27.9934 8.66335 27.8905 8.52405 27.6849 8.58043V8.66335H27.1045V8.74627H27.0149V8.66335H26.6003V8.74627H26.1857V8.82919L23.0348 8.99502V9.07794H22.869C22.8425 9.13433 22.8126 9.1874 22.7861 9.24378L21.9569 9.3267L20.9619 10.1559V10.4876L20.7131 10.6534V10.8192H20.6302C20.6567 10.9585 20.6866 11.0945 20.7131 11.2338H20.6302V11.4826H20.5473L20.6335 12.3947L20.4677 12.4776V12.8093H20.3847C20.4113 13.141 20.4411 13.4726 20.4677 13.8043H20.3847V14.8823C20.4113 15.0481 20.5506 15.4262 20.4677 15.7114H20.3847V16.7894H20.4677V17.8673H20.3847V18.7794H20.4677V18.9453H20.3847V20.9353H20.4677V21.0182H20.3847V22.5937H20.3018V22.6766H20.3847V23.34H20.4677C20.4411 23.5058 20.4113 23.6716 20.3847 23.8375H20.4677C20.4842 23.9867 20.3847 24.0033 20.3847 24.0033C20.3483 24.209 20.4677 24.2521 20.4677 24.2521C20.5075 24.4411 20.3648 24.4876 20.3847 24.5837L20.4677 24.6667C20.3748 24.7164 20.3383 24.8093 20.3018 24.8325H20.136V24.9154L19.3897 25.0813V25.1642L19.2239 25.0813V25.1642L18.8922 25.2471V25.33H18.6434V25.4129L18.3118 25.4959V25.5788H18.1459V25.6617H17.9801V25.7446H17.8143V25.8275H17.6484V25.9104H17.4826V25.9934H17.3167V26.0763H17.068V26.1592H16.9022V26.2421H16.6534V26.325C16.5008 26.4312 16.4942 26.4643 16.2388 26.4909V26.6567C15.7247 26.6833 15.8043 26.743 15.4925 26.9055H15.3267V26.9884L14.9121 27.0713L14.8292 27.2371H14.5804V27.3201H14.4146V27.403H14.1658V27.4859H13.7512V27.5688H13.5854C13.5589 27.6252 13.529 27.6783 13.5025 27.7347H13.2537L13.1708 27.9005H13.005V27.9834H12.7562V28.0663H12.5904V28.1493H12.3416L12.2587 28.3151H12.01V28.398H11.7612V28.4809C11.5987 28.597 11.5025 28.6799 11.2637 28.7297C11.141 29.1277 10.9055 28.9055 10.6833 29.2272C10.4411 29.2007 10.199 29.1144 10.0199 29.0614H9.27695V28.9784H9.02819L8.69652 28.8955L8.53068 28.806C8.33499 28.733 7.70481 28.7231 7.70481 28.7231V28.6401H7.53897V28.5572H7.12438V28.4743H6.95854V28.3914L6.74627 28.2421V28.1592L6.33167 28.2421V28.1592H6.16584V28.0763H5.66832C5.66832 28.0763 5.53234 28.136 5.50249 28.0763C5.41957 28.0697 5.00497 28.0763 5.00497 28.0763C4.64677 28.073 4.24876 28.0697 4.00995 28.1592C4.03648 28.4643 4.06634 28.7662 4.09287 29.0713C4.49751 29.2206 5.67164 29.2338 5.67164 29.2338ZM12.262 29.2968L13.1741 28.9652V28.8823H13.34V28.7993H13.5058V28.7164L14.1692 28.6335V28.5506L14.5008 28.4677V28.3847H14.6667C14.7231 28.3018 14.7761 28.2189 14.8325 28.136L15.4129 28.0531V27.9701L15.7446 27.8872V27.8043H16.1592V27.7214L16.408 27.6385C16.4345 27.5556 16.4643 27.4726 16.4909 27.3897C17.3134 27.3532 17.7347 26.9022 18.3151 26.6434H18.5638V26.5605L18.8955 26.4776V26.3947H19.0614L19.1443 26.2289H19.476V26.1459L19.9735 25.9801V25.8972L20.3051 25.8143L20.471 25.5655C20.6169 25.4726 21.2338 25.3499 21.3002 25.2338V24.6534H21.3831V23.5755C21.3831 23.5721 21.257 23.5091 21.3002 23.3267H21.3831V22.8292H21.466C21.4395 22.5804 21.4096 22.3317 21.3831 22.0829H21.466C21.4395 21.476 21.4096 20.8657 21.3831 20.2587H21.466C21.6153 19.7313 21.3731 19.1211 21.3831 18.6833C21.4096 18.3781 21.4395 18.0763 21.466 17.7711H21.3831V17.3566H21.3002V17.2736H21.3831V16.7761H21.466V15.6153H21.3831V14.6202H21.466C21.539 14.3648 21.3731 13.7745 21.3831 13.7081H21.466C21.4395 13.1012 21.4096 12.4909 21.3831 11.8839H21.466V11.7181H21.5489C21.5755 11.4693 21.6053 11.2206 21.6318 10.9718L21.7977 10.8889V10.7231C21.9901 10.5572 22.1857 10.3914 22.3781 10.2255H22.5439V10.1426H22.7927V10.063H23.2902V9.99005H23.7048V9.90713H24.0365V9.82421H24.9486V9.74129H25.2803V9.65837C25.393 9.65506 25.4163 9.79436 25.6119 9.74129V9.65837C26.0929 9.5257 26.7993 9.68823 27.1874 9.57546H28.0995V9.49254H28.4312V9.40962L30.0066 9.3267V9.40962H30.0896V9.3267H30.8292V9.24378H31.2438V9.16086L31.9071 9.24378V9.16086H32.4046V9.07794H33.4826V8.99502H34.063V8.91211L34.3118 8.99502V8.91211C34.5837 8.83914 34.9022 8.97181 35.058 8.99502H35.5556V8.91211H35.6385V8.99502H35.8872V9.07794H36.0531C36.0962 9.10116 36.3449 9.78109 36.2189 9.99005H36.136C36.0862 10.1924 36.0498 10.1725 35.9702 10.3217H35.8043V10.4876L35.5556 10.5705V10.6534H35.3068V10.7363L34.9751 10.8192V10.9022H34.7264V10.9851H34.5605V11.068H34.1459V11.1509H33.9801V11.2338H33.5655V11.3167C33.4561 11.3167 33.4229 11.1708 33.2338 11.2338V11.3167L32.8192 11.3997V11.4826H32.6534V11.5655H31.9071V11.6484H31.6584V11.7313H31.4925V11.8143L30.995 11.8972V11.9801L30 12.063V12.1459H29.6683V12.2289H29.4196V12.3118H29.0879V12.3947H28.9221V12.4776L28.4245 12.5605V12.6434H27.927V12.7264L27.0149 12.8922V12.9751H26.7662V13.058H26.3516C25.8143 13.2438 25.2438 13.539 24.6103 13.6385C24.6103 14.2985 24.7032 14.6733 24.859 15.131V15.4627H24.942C24.9718 15.5755 24.9187 15.4627 24.859 15.5456V15.6285H24.942V16.0431H25.0249L25.1907 16.5406H25.2736C25.3035 16.6534 25.2471 16.5406 25.1907 16.6235L25.2736 17.4527L25.5224 17.6186V18.1161H25.6053V18.2819H25.6882L25.7711 19.1111H25.8541V19.4428H25.937V19.6915H26.0199V20.1061H26.1028C26.1294 20.4378 26.1592 20.7695 26.1857 21.1012H26.2687V21.3499H26.3516V21.5987H26.4345V21.8474L26.6003 21.9303V22.3449H26.6833V22.5937H26.7662V23.0912H26.8491V23.34H26.932V23.6716H27.0149V24.0862H27.0978V24.5837H27.1808V24.8325H27.2637V24.9983H27.3466V25.4959L27.5124 25.5788V26.0763C27.5788 26.272 27.7181 26.4876 27.7612 26.7396L25.8541 26.4909C25.8275 26.5473 25.7977 26.6003 25.7711 26.6567C25.6849 26.6833 24.8624 26.4643 24.6103 26.5738C24.5837 26.6302 24.5539 26.6833 24.5274 26.7396L23.2836 26.8226V26.9055H22.6202V26.9884H22.2886C22.262 27.0448 22.2322 27.0978 22.2056 27.1542H21.874V27.2371H21.2106V27.3201H20.8789V27.403H20.6302L20.5473 27.5688H19.8076V27.6517H19.393V27.7347H18.9784V27.8176H18.7297L18.5638 28.0663L17.7347 28.1493V28.2322H17.5688L17.3201 28.5638L17.1542 28.4809V28.5638L16.325 28.7297L16.2421 28.8955L15.4129 28.9784V29.0614H15.1642V29.1443H14.9154V29.2272C14.4345 29.3864 13.8541 29.1012 13.5058 29.393H12.2653V29.2968H12.262ZM36.2952 15.6252V15.7081H35.3002V15.791H34.9685V15.874H34.7197V15.9569L33.8905 16.1227V16.2056L33.393 16.3715V16.4544H33.2272V16.5373H33.0614V16.6202H32.8955V16.7032L32.398 16.869L32.1493 17.2007H31.9834C31.9569 17.257 31.927 17.3101 31.9005 17.3665H31.7347L31.2371 17.9469H31.0713L29.7446 19.4395V19.6882L29.5788 19.7711V19.937L29.4129 20.1028V20.2687H29.33V20.4345L29.1642 20.5174C29.1376 20.6833 29.1078 20.8491 29.0813 21.0149H28.9983V21.1808H28.9154V21.6783H28.8325C28.7761 21.9536 28.7231 22.2322 28.6667 22.5075H28.7496V22.7562H28.6667C28.6667 22.8292 28.8093 23.0282 28.7496 23.2537C28.7496 23.2537 28.6202 23.3201 28.6667 23.5025H28.7496V23.8342H28.8325V24.0829H28.9154V24.4975H28.9983C29.0249 24.607 29.0547 24.7197 29.0813 24.8292H29.1642L29.0813 24.995H29.1642V25.1609L29.33 25.2438V25.4096L29.4959 25.4925V25.6584H29.5788C29.675 25.7811 29.6982 25.8043 29.7446 25.9901C29.9702 26.0531 29.9337 26.01 29.9934 26.2388H30.1592C30.2255 26.4942 30.3184 26.5207 30.4909 26.6534V26.7363H30.7396L30.9055 26.9851H31.0713V27.068L31.6517 27.1509V27.2338L32.1493 27.3997V27.4826L33.393 27.5655V27.6484H33.7247V27.5655L33.9735 27.6484V27.5655L34.9685 27.4826V27.3997H35.2172V27.3168H35.5489V27.2338H35.7148V27.1509H36.2123V27.068H36.3781V26.9851H36.6269V26.9022H36.7927L36.8756 26.7363H37.0415C37.068 26.6799 37.0978 26.6269 37.1244 26.5705L37.4561 26.4876C37.4826 26.4312 37.5124 26.3781 37.539 26.3217L37.7877 26.2388V26.1559H38.0365L38.1194 25.9901H38.2852L39.4461 24.995V24.8292L39.6119 24.7463V24.5804L39.9436 24.3317C39.9702 24.2753 40 24.2222 40.0265 24.1658L40.2753 24.0829C40.3018 23.9735 40.3317 23.8607 40.3582 23.7512L40.524 23.6683V23.5025H40.607L40.6899 23.1708H40.7728V22.8391H40.8557V22.6733L41.0216 22.5904V22.2587H41.1045V22.01L41.2703 21.927L41.5191 19.937H41.4362V19.5224H41.3532V18.7761H41.2703L41.1874 18.3615H41.0216C41.0017 18.1459 40.9154 17.9436 40.7728 17.7811L40.607 17.6982C40.5804 17.5589 40.5506 17.4229 40.524 17.2836L39.9436 16.7861H39.7778V16.7032H39.6119L39.4461 16.4544H39.2803C39.2537 16.398 39.2239 16.3449 39.1973 16.2886H38.9486V16.2056L38.6998 16.1227V15.9569L38.2852 15.874V15.791H37.7877V15.7081L37.6219 15.791V15.7081H37.4561V15.6252H36.2952ZM37.539 21.2604V21.4262L37.7048 21.5091V21.675L37.8706 21.7579V21.9237L38.3682 22.3383L38.4511 22.7529L38.7828 23.0017C38.9851 23.2869 38.9619 23.4726 39.2803 23.665C39.1078 24.3118 38.4212 24.4776 38.1194 24.9917H38.0365V24.743H38.2023C38.2421 24.4378 38.5439 23.7413 38.3682 23.2504H38.2852V23.0846H38.2023C38.1758 22.9751 38.1459 22.8624 38.1194 22.7529C37.9138 22.4279 37.5622 22.1891 37.2902 21.9237L37.1244 21.675L36.5439 21.5091C36.5174 21.4527 36.4876 21.3997 36.461 21.3433L35.7977 21.4262V21.3433C35.6219 21.2007 35.7512 21.1741 35.466 21.0945V20.7629H35.5489V20.6799H35.4693V20.597H35.5522C35.5788 20.5141 35.6086 20.4312 35.6352 20.3483H35.5522L35.4693 19.6849H35.3864C35.33 19.5191 35.277 19.3532 35.2206 19.1874L35.0547 19.1045V18.9386L34.7231 18.6899C34.5605 18.4643 34.6302 18.3582 34.3085 18.2753V18.1095C34.1161 18.0564 34.1128 18.0365 33.9768 17.9436V17.8607L33.3134 17.7778V17.8607H33.2305V17.7778H33.0647C32.9254 17.9436 32.8657 17.8507 32.733 17.9436L32.6501 18.1095H32.5672C32.4212 18.3051 32.4444 18.4743 32.2355 18.607C32.209 18.9652 32.1791 19.3267 32.1526 19.6849H32.2355V19.9337H32.3184V20.0995H32.4013V20.2653L32.6501 20.4312C33.194 21.204 33.5622 21.7678 34.8889 21.5091C34.9619 21.665 34.995 21.7512 35.1376 21.8408C35.0116 22.0763 34.5605 22.7761 34.7231 23.2504H34.806V23.4163H34.8889V23.665C34.9884 23.8972 35.0912 23.8706 35.1376 24.2454H35.3035C35.3798 24.5307 35.4793 24.4577 35.5522 24.743L35.801 24.8259V24.9088H35.9668C35.9934 24.9652 36.0232 25.0182 36.0498 25.0746H36.2985V25.1575H36.4643V25.2405C36.5207 25.2139 36.5738 25.1841 36.6302 25.1575L36.7131 25.3234C36.8425 25.3665 36.8756 25.2405 36.8789 25.2405C37.0216 25.2206 37.0448 25.3234 37.0448 25.3234C37.2073 25.3499 37.2106 25.2405 37.2106 25.2405H37.4594V25.3234L37.7081 25.2405V25.0746H37.874V25.2405L37.6252 25.3234L37.5423 25.4892H37.3765L37.2106 25.738H37.0448V25.8209L36.7131 25.9038V25.9867H36.4643V26.0697H36.2985V26.1526H36.0498V26.2355L35.6352 26.3184L35.5522 26.4842H35.3035V26.5672H34.6401V26.6501L32.9818 26.733V26.6501L32.3184 26.5672V26.4842H31.8209V26.4013H31.6551C31.6285 26.3449 31.5987 26.2919 31.5721 26.2355L31.2405 26.1526L30.9917 25.8209H30.8259V25.738H30.66V25.6551L30.4942 25.5721V25.4063L30.1625 25.1575V24.9917L29.9967 24.8259V24.66H29.9138V24.4942L29.7479 24.4113C29.7214 23.9967 29.6915 23.5821 29.665 23.1675H29.5821V22.5871H29.665V21.9237H29.7479V21.7579H29.8308V21.5091H29.9138V21.2604H29.9967V21.0116H30.0796V20.597L30.2454 20.5141C30.272 20.4046 30.3018 20.2919 30.3284 20.1824L30.5771 20.0166V19.8507L30.743 19.7678C30.7695 19.6584 30.7993 19.5456 30.8259 19.4362L31.2405 19.1045V18.9386L31.5721 18.6899V18.524C31.6816 18.4411 31.7944 18.3582 31.9038 18.2753V18.1924H32.0697L32.1526 18.0265H32.3184L32.5672 17.6949L33.0647 17.529V17.4461L33.3134 17.3632C33.34 17.3068 33.3698 17.2537 33.3964 17.1973H33.6451V17.1144C33.8209 17.0249 33.8441 17.0945 33.9768 16.9486H34.3085C34.3416 16.9685 34.5904 17.4561 34.6401 17.529L34.806 17.6119V17.7778L35.2206 18.1095V18.2753L35.4693 18.4411L35.5522 18.7728L35.7181 18.8557V19.0216L35.8839 19.1045C35.9104 19.1874 35.9403 19.2703 35.9668 19.3532L36.2985 19.602V19.7678L36.6302 20.0166V20.2653C36.733 20.4743 36.8922 20.4809 36.9619 20.7629H37.1277C37.1542 20.8458 37.1841 20.9287 37.2106 21.0116L37.539 21.2604ZM36.9585 22.67V22.7529H37.0415V22.9187L37.2902 23.0846V23.2504H37.3731C37.4693 23.4196 37.3765 23.4328 37.539 23.5821C37.5357 24.1924 37.4129 24.2222 37.2073 24.5771C36.4245 24.5572 36.2919 24.2985 35.9635 23.8308H35.8806C35.7844 23.7081 35.7579 23.6849 35.7148 23.4992C35.6285 23.4063 35.5522 22.8856 35.6318 22.67H35.7148V22.5041H35.7977C35.8242 22.4212 35.8541 22.3383 35.8806 22.2554C36.0464 22.2056 35.9536 22.2653 36.0464 22.1725C36.534 22.1824 36.5108 22.335 36.7927 22.5041V22.67H36.9585ZM34.8027 20.0995C34.7629 20.4975 34.6169 20.5904 34.471 20.8458C33.6053 20.8425 32.9652 19.9436 32.9784 19.0216C33.0813 18.9386 33.2438 18.7264 33.3101 18.607H33.5589C33.7015 18.7794 33.8872 18.806 34.0564 18.9386L34.2222 19.2703C34.4411 19.4461 34.5506 19.3599 34.6368 19.6849H34.7197V20.0995H34.8027ZM43.8176 33.9071H43.7347H43.4859C43.4295 33.8275 43.2371 33.9071 43.2371 33.9071L43.0713 33.99L42.6567 34.073L41.9934 34.1559H41.33C41.33 34.1559 41.0846 34.1559 41.0813 34.1559H39.9204C39.9204 34.1559 39.5025 34.1891 39.34 34.1559V34.073L38.1161 33.9071L37.9502 33.8242V33.7413L37.2869 33.6584V33.5755H36.9552V33.4925H36.6235V33.4096H36.209V33.3267C36.0365 33.2869 35.9602 33.4096 35.9602 33.4096L35.3798 33.3267V33.2438H35.2139L35.131 33.0779H34.9652V32.995H34.7993V32.9121H34.5506V32.8292H34.3051V32.7463H34.0564V32.8292H33.9735V32.7463H33.7247V32.6633H33.5589L33.476 32.4975H33.2272L33.1443 32.3317H32.8955V32.2488C32.7032 32.1924 32.6667 32.3516 32.5638 32.3317V32.2488H32.1493V32.1658L31.8176 32.0829V32L31.5688 32.0829V32H31.2371V31.9171H30.9884V31.8342H30.5738V31.7512L29.7446 31.5025V31.5854C29.4859 31.6285 29.1642 31.4693 28.9983 31.4196H27.8375V31.3366H27.4262V31.4196H27.2604V31.5025C27.1443 31.5124 27.2935 31.4362 27.1774 31.4196L25.8507 31.3366V31.4196H24.9386V31.5025H24.607V31.5854L24.1924 31.5025V31.5854H23.8607V31.6683C23.7214 31.675 23.3798 31.5091 23.1144 31.5854V31.6683H22.534V31.7512H22.2852V31.8342C22.2156 31.8375 21.9867 31.6783 21.7877 31.7512V31.8342L21.4561 31.9171V32H20.8756V32.0829H20.5439V32.1658H20.2123V32.2488H20.0464V32.3317H19.7977V32.4146L18.8856 32.4975V32.5804H18.6368L18.5539 32.7463H18.3051V32.8292H17.9735V32.9121H17.7247V32.995H17.2272V33.0779H17.0614V33.1609H16.8126V33.2438H16.5638V33.3267H16.3151V33.4096H16.0663V33.4925H15.6517V33.5755H15.4859V33.6584H15.0713V33.7413C14.9154 33.7479 14.524 33.5755 14.2421 33.6584V33.7413C13.8607 33.8507 12.8491 33.7512 12.6667 33.7413H11.5058V33.6584H11.0083V33.7413L9.76451 33.6584L9.59867 33.5755L8.19237 33.4925V33.4096H7.77778V33.3267L7.28027 33.1609V33.0779H7.03151V32.995H6.86567L6.73632 33.0116V32.9287L5.16086 32.7629V32.6799H4.49751V32.7629C4.26202 32.9917 4.34494 33.4362 4.41459 33.7579C4.41459 33.7579 5.45937 33.8607 5.57546 33.8408H6.15589V33.9237H6.57048H6.6534L7.15091 34.0066V34.0896H7.39967V34.1725L8.06302 34.2554V34.3383H8.22886V34.4212H8.64345V34.5041H8.89221L10.3516 34.6534V34.7363L11.5954 34.8192V34.9022C11.7745 34.942 11.8441 34.8192 11.8441 34.8192H13.005V34.9022C13.3532 35.0017 13.7579 34.8292 14 34.8192L14.4975 34.9022V34.8192H14.8292V34.733H15.0779V34.6501L15.7413 34.5672V34.4842C15.8474 34.471 15.8806 34.6202 16.073 34.5672V34.4842H16.4046V34.4013L16.8192 34.4842V34.4013H16.9851V34.3184H17.3167V34.2355H17.6484V34.1526H17.8143V34.0697L18.2289 33.9867V33.9038H18.3947V33.8209L18.7264 33.738V33.6551L19.8872 33.4063L19.9701 33.2405L20.6335 33.1575V33.0746C20.7396 33.058 20.7728 33.2139 20.9652 33.1575V33.0746H21.2968V32.9917H21.5456V32.9088L21.9602 32.9917V32.9088H22.6235V32.8259H23.1211V32.743H23.8673C24.6567 32.5108 25.529 32.5771 26.5207 32.4942C26.743 32.4743 27.1078 32.3184 27.4328 32.4113V32.4942H28.7595V32.5771C28.9154 32.6036 28.9254 32.4942 28.9254 32.4942C29.1244 32.4544 29.1376 32.5738 29.257 32.5771C29.3002 32.5539 29.3101 32.4378 29.5058 32.4942V32.5771H29.7546V32.66L30.6667 32.743V32.8259H30.9154V32.9088L31.9104 32.9917V33.0746H32.1459C32.1725 33.131 32.2023 33.1841 32.2289 33.2405H32.3947C32.4212 33.2968 32.4511 33.3499 32.4776 33.4063H32.8093V33.4892H33.058V33.5721H33.141C33.194 33.5323 33.1509 33.4428 33.3068 33.4892V33.5721H33.5556L33.6385 33.738H33.8043C33.8607 33.8209 33.9138 33.9038 33.9702 33.9867H34.3847V34.0697L34.8823 34.1526V34.2355L35.131 34.1526V34.2355H35.4627V34.3184H35.6285V34.4013H35.9602V34.4842H36.126V34.5672L36.5406 34.6501V34.733H37.0381V34.8159L38.0332 34.9818C38.1393 34.995 38.6136 35.0647 38.6136 35.0647L39.9403 35.1476H40.0896H40.3383H41.5821H41.8308H42.66V35.0647H43.0746L43.2405 34.9818H43.4063V34.8988C43.5788 34.7993 43.7214 34.6567 43.8209 34.4842C43.8209 34.4842 43.8474 34.4146 43.8176 34.4013C43.8209 34.4046 43.9303 34.073 43.8176 33.9071ZM43.6517 38.995L43.403 39.0779C43.3897 39.0746 43.1542 39.1609 43.1542 39.1609L42.9055 39.2438L42.6567 39.3267L41.4129 39.4096C40.9619 39.4262 40.7562 39.5423 40.335 39.4096H39.4395L39.0249 39.3267L38.7761 39.2438L38.2786 39.1609V39.0779H37.9469V38.995H37.7811L37.4494 38.9121C37.4494 38.9121 37.2902 39.0448 37.0348 38.995L36.6202 38.8292V38.7463H36.4544V38.6634L35.1277 38.4975V38.4146L34.796 38.3317V38.2488H34.3814V38.1658H34.2156V38.0829H33.9702C33.9436 38.0265 33.9138 37.9735 33.8872 37.9171H33.7214V37.8342L33.141 37.7512V37.6683H32.9751V37.5854H32.7264V37.5025L32.3947 37.5854V37.5025H32.2289C32.2023 37.4461 32.1725 37.393 32.1459 37.3367L31.068 37.2537V37.1708H30.7363V37.0879H30.4876V37.005H30.1559V36.9221H29.9071V36.8391H29.6584V36.7562H29.4096V36.6733H28.995V36.5904H28.9121V36.6733H28.5804V36.5904H28.3317V36.5075L27.2537 36.5904V36.5075H26.2587V36.4245C25.8176 36.2985 25.1277 36.5108 24.8491 36.5904H24.1061V36.6733C23.7977 36.7595 23.3599 36.5572 23.194 36.5904V36.6733H22.9453V36.7562H22.2819V36.8391H21.2869V36.9221L20.6235 37.005V37.0879H20.4577V37.1708H20.209L20.126 37.3367L19.0481 37.4196V37.5025H18.7993L18.6335 37.7512H17.8905V37.8342L17.393 37.9171V38L17.0614 38.0829V38.1658L16.4809 38.2488V38.3317L14.9055 38.4975V38.5804H14.5738V38.6634H13.8275V38.7463H13.4129V38.8292H13.33V38.7463H12.335V38.8292L10.8425 38.7463L10.3449 38.8292V38.7463H9.84743L7.3665 38.5804V38.4975H7.20066V38.4146H6.95191L6.15589 38.2653V38.1824H5.99005L5.65838 38.0995V38.0166L4.08292 38.1824C4.01327 38.2753 4.09287 38.1957 4 38.2653C4.02653 38.5406 4.05638 38.8192 4.08292 39.0945L4.91211 39.1774V39.2604L5.74129 39.1774H6.23881H6.6534C6.93201 39.2537 7.33002 39.3698 7.64842 39.4262L8.36153 39.4925L8.85904 39.5755L9.02488 39.6584H9.60531C9.72139 39.6849 9.85406 39.7413 9.85406 39.7413H10.5174L10.6003 39.9071C10.9187 40.0431 12.0796 39.8275 12.0929 39.8242L12.7562 39.9071L13.3367 39.8242C13.3532 39.8275 13.3665 39.9337 13.5025 39.9071V39.8242H13.8342V39.7413H14.4975V39.6584H14.8292V39.5755L15.9071 39.4925V39.4096H16.1559V39.3267H16.4046V39.2438H16.6534C16.6799 39.1874 16.7098 39.1343 16.7363 39.0779H16.8192V39.1609C17.005 39.1575 16.9851 39.0779 16.9851 39.0779H17.4826V38.995H17.8143V38.9121H18.063V38.8292H18.3118V38.7463L19.141 38.5804V38.4975H19.6385V38.4146H19.9701V38.3317H20.136V38.2488L21.2139 38.1658V38.0829H21.7114V38H22.0431V37.9171H22.3748V37.8342H22.7065V37.7512H23.1211V37.8342C23.3035 37.874 23.3632 37.7512 23.3698 37.7512H24.2819V37.6683L26.8524 37.5854C27.0315 37.5556 27.4627 37.4129 27.7645 37.5025C28.0498 37.5887 28.262 37.6584 28.6766 37.6683V37.8342C28.9187 37.8607 29.1609 37.9469 29.34 38H29.9204V38.0829H30.0862V38.1658L31.0813 38.2488C31.1078 38.3051 31.1376 38.3582 31.1642 38.4146H31.4959V38.4975H31.6617V38.5804H32.1592L32.2421 38.7463L32.9055 38.8292V38.9121H33.0713V38.995L34.1493 39.1609V39.2438L34.4809 39.3267V39.4096L35.393 39.4925L35.5589 39.7413H35.8076V39.8242H35.9735V39.9071L37.0514 39.9901C37.0779 40.0464 37.1078 40.0995 37.1343 40.1559H37.466L37.7977 40.2388L37.9635 40.3217L38.6269 40.4046C38.6269 40.4046 38.7828 40.408 38.7927 40.4046H39.2073H40.2023C40.2023 40.4046 40.7993 40.2919 41.0149 40.3217C41.131 40.3383 41.5954 40.4046 41.5954 40.4046H41.6783H42.0929L42.4245 40.3217L42.6733 40.2388V40.1559L43.3367 40.073V39.9901C43.4959 39.8773 43.529 39.8043 43.7512 39.7413C43.7811 39.4395 43.8773 39.2803 43.6683 39.0779L43.6517 38.995Z" fill="#222222"/>
</svg>
