<svg xmlns="http://www.w3.org/2000/svg" fill="none" viewBox="0 0 48 49"><path fill="currentColor" fill-rule="evenodd" d="M9.777 36.713 4.18 33.24a.395.395 0 0 1-.152-.497l1.098-2.43c.055-.198.378-1.422.113-2.283-.318-1.033-1.828-6.992-1.828-6.992a.424.424 0 0 1-.003-.017s-.683-3.406 2.223-4.399l.008-.002 1.165-.37c.058-.096.118-.19.182-.28.282-.399.63-.705 1.011-.812 1.015-.285 6.851-1.84 6.851-1.84a.394.394 0 0 1 .108-.013l2.505-1.616a.391.391 0 0 1 .054-.03s1.375-.636 2.63.657c.019.02.036.041.05.064 0 0 .837 1.372-.065 2.431a.398.398 0 0 1-.096.082l-.828.5c.074.144.155.333.207.547.124.511.089 1.148-.523 1.665l-2.057 1.991 1.158-.289c.2-.05.406.063.47.259l1.183 3.576 3.665-.981a.395.395 0 0 1 .484.282l.729 2.82a.394.394 0 0 1-.26.474l-1.597.519c.286.198.543.504.707.973l.004.012s.142.452.095.974c-.05.565-.31 1.204-1.126 1.51a.483.483 0 0 1-.024.008l-9.634 2.9-2.173 4.193a.395.395 0 0 1-.738-.113ZM6.34 17.225l-.462.146c-2.204.76-1.735 3.308-1.7 3.482.064.25 1.506 5.94 1.815 6.945.345 1.121-.117 2.76-.117 2.76a.398.398 0 0 1-.02.053l-.966 2.141 5.18 3.216 1.994-3.846a.395.395 0 0 1 .236-.197l9.78-2.943c.443-.172.578-.527.606-.838.03-.33-.05-.62-.062-.664-.35-.982-1.381-.77-1.462-.752l-6.08 1.614a.377.377 0 0 1-.04.009c-.938.146-1.6-.07-2.056-.369a2.498 2.498 0 0 1-.924-1.106c-1.428-2.177.348-4.095.348-4.095a.368.368 0 0 1 .015-.015l2.357-2.282a.394.394 0 0 1 .294-.448l.228-.057 3.047-2.95a.408.408 0 0 1 .022-.02c.328-.273.34-.613.274-.883a1.753 1.753 0 0 0-.212-.497.393.393 0 0 1-.144-.136c-.325-.242-.703-.255-1.012-.207-.34.052-.606.179-.67.21l-6.699 4.551a.395.395 0 0 1-.443-.652l6.719-4.564a.377.377 0 0 1 .032-.02s.404-.222.941-.305c.464-.071 1.018-.038 1.513.29l.895-.542c.231-.305.225-.649.167-.918a1.925 1.925 0 0 0-.188-.504c-.753-.746-1.551-.509-1.69-.46L7.97 18.754a.395.395 0 0 1-.428-.663l5.3-3.42a698.37 698.37 0 0 0-4.63 1.247c-.32.09-.565.445-.771.809-.369.65-.572 1.389-.572 1.389a.395.395 0 0 1-.76-.21s.08-.29.232-.68Zm15.047 8.69a.391.391 0 0 1 .191-.135l2.088-.678-.537-2.076-3.64.974a.394.394 0 0 1-.477-.257l-1.185-3.582-2.126.531-.03.03 1.796 6.171 3.498-.93c.003 0 .006 0 .01-.002 0 0 .165-.039.412-.046Zm-6.358-4.573-2.047 1.982c-.102.115-1.32 1.544-.24 3.15a.39.39 0 0 1 .045.093s.46 1.255 2.113 1.008l1.804-.48-1.674-5.753Zm12.872 2.013a.4.4 0 0 1-.003-.056l.028-3.27-3.428-.2a.394.394 0 0 1-.372-.381l-.095-3.17a.395.395 0 0 1 .402-.405l6.23.12c-.03-.338.047-.757.39-1.203.11-.142.217-.266.32-.374-.118-.165-.32-.446-.32-.444-.073-.092-.342-.469-.268-.963.034-.23.14-.49.39-.754.346-.364.53-.498.62-.547a.573.573 0 0 1 .166-.063c.31-.188 1.065-.514 1.844.135l.018.016 2.686 2.521a.394.394 0 0 1 .355.028l5.078 3.091c.173.079.995.509 1.187 1.678a7.488 7.488 0 0 0 .998 1.007c.33.413.596.893.626 1.315.067.932.035 1.964-.564 3.529-.568 1.483-3.26 6.688-3.313 6.79-.02.039-.583 1.216-.128 2.952a.394.394 0 0 1-.201.45l-5.82 2.987a.395.395 0 0 1-.613.031.396.396 0 0 1-.13-.318l-1.386-4.922-1.997-.599c-.13-.031-1.312-.361-2.279-2.228a.404.404 0 0 1-.02-.048l-1.87-5.166.005.015c-.004-.012-.21-.555.09-.986.123-.176.328-.347.69-.434.212-.05.444-.102.684-.134Zm3.053-6.568-6.122-.118.072 2.394 3.443.201c.21.012.373.187.371.397l-.028 3.251 2.405.024.385-5.272a.393.393 0 0 1 .03-.126l-.553-.747-.003-.004Zm1.257 1.696-.357 4.88a.394.394 0 0 1-.397.366l-1.879-.02c.235.186.448.45.623.819l1.561 3.31c.133.135.874.796 2.27.204.835-.354 1.355-1.112 1.659-1.865.305-.755.398-1.512.327-1.881-.144-.748-1.184-2.264-1.264-2.38l-2.543-3.433ZM32 13.935c.102-.05.201-.083.298-.103.296-.06.584-.007.878.158.039.022.074.05.104.085l6.148 7.067a.395.395 0 0 1-.595.518l-6.099-7.01c-.338-.155-.625.062-1.055.621-.434.565-.096 1.04-.096 1.04a.133.133 0 0 1 .005.006l3.803 5.134a.352.352 0 0 1 .008.012s1.226 1.814 1.393 2.684c.088.455.006 1.394-.37 2.326-.377.935-1.046 1.856-2.081 2.295-2.191.928-3.223-.47-3.223-.47a.397.397 0 0 1-.045-.073l-1.585-3.36c-.49-1.033-1.44-.764-2.087-.609-.113.028-.188.062-.227.117-.073.105-.007.238-.007.238l.006.015 1.861 5.142c.811 1.55 1.754 1.802 1.754 1.802a.456.456 0 0 1 .026.007l2.218.665c.13.039.23.141.267.271l1.347 4.787 5.266-2.703c-.406-1.929.262-3.203.262-3.203l.001-.001s2.71-5.23 3.278-6.71c.542-1.415.574-2.348.514-3.19-.021-.288-.232-.6-.456-.88a5.595 5.595 0 0 0-.346-.391c-.014 1-.063 1.33-.063 1.33a.395.395 0 0 1-.78-.112s.059-.43.059-1.814c0-1.128-.768-1.473-.768-1.473a.41.41 0 0 1-.057-.028L38.74 16.41l2.31 2.168a.395.395 0 0 1 .114.197s.514 2.192.61 3.223a.394.394 0 0 1-.785.074c-.08-.858-.461-2.545-.566-3l-7.131-6.693c-.5-.408-.977-.023-.977-.023a.395.395 0 0 1-.191.086c-.071.06-.21.182-.376.357a.619.619 0 0 0-.182.326.463.463 0 0 0 .12.375l.315.435Z" clip-rule="evenodd"/></svg>