<svg xmlns="http://www.w3.org/2000/svg" fill="none" viewBox="0 0 48 49"><path fill="currentColor" fill-rule="evenodd" d="M17.622 32.45c.03.082.057.166.082.251.82 2.77-1.073 5.806-4.263 6.75-3.191.944-6.43-.573-7.25-3.343-.82-2.769 1.072-5.805 4.263-6.749 2.052-.607 4.123-.197 5.559.91l2.202-1.086a.395.395 0 0 1 .54.504l-1.133 2.763Zm-.815-.093.822-2.005-1.434.707c-.087.042-.26.044-.437.016a4.406 4.406 0 0 0-.481-.37c-1.232-.82-2.93-1.084-4.6-.59-2.745.813-4.435 3.386-3.73 5.77.706 2.383 3.524 3.622 6.27 2.81 2.746-.813 4.436-3.387 3.73-5.77a3.691 3.691 0 0 0-.167-.459.395.395 0 0 1 .027-.11ZM18.829 28.165c-.036-.007-.319-.369-.307-.461a12.552 12.552 0 0 1-.88-2.258c-.404-.068-.972-.286-1.168-.96-.135-.465.01-.845.24-1.132.15-.187.339-.33.49-.424l.037-.024a12.617 12.617 0 0 1-.035-.932c0-5.318 3.335-9.863 8.026-11.656a.414.414 0 0 1 .205-.077A12.438 12.438 0 0 1 29.68 9.5c6.885 0 12.475 5.59 12.475 12.474 0 6.885-5.59 12.474-12.475 12.474a12.454 12.454 0 0 1-9.73-4.67.395.395 0 0 1-.221-.592c.281-.313.556-.64.925-1.337.234-.587.21-.796.271-1.127a1.185 1.185 0 0 1-.099.138c-.088.097-.724.646-1.196.975l-.149.108a2.276 2.276 0 0 1-.347.205c-.091.062-.205.037-.305.017Zm-1.485-4.335a.675.675 0 0 0-.037.046.433.433 0 0 0-.076.39.515.515 0 0 0 .249.316c.053.03.108.051.161.066.19.055.36.04.36.04a.393.393 0 0 1 .429.451 11.6 11.6 0 0 0 .746 1.957c.428-.293.995-.688 1.07-.769.117-.128.591-1.032.591-1.032a.395.395 0 0 1 .736.116c.072.355.117.882.138 1.3-.058.812-.38 1.41-.38 1.41-.097.308-.745 1.188-.745 1.188a11.666 11.666 0 0 0 9.095 4.35c4.819 0 8.96-2.923 10.746-7.092-.12-.27-.531-1.212-.553-1.328-.02-.115-.341-.8-.341-.8a.315.315 0 0 1-.009-.02l-.348-.893a.394.394 0 0 1 .114-.444l.477-.402.152-1.035a.395.395 0 0 1 .174-.272l.37-.244c.03-.019.061-.034.095-.045l.753-.245c-.424-4.396-3.288-8.082-7.22-9.688a.394.394 0 0 1 .129.127l.503.803.716.26a.395.395 0 0 1 .218.194l.51 1.02a.394.394 0 0 1 .032.265l-.112.482a.394.394 0 0 1-.61.234l-.934-.656-.426.371a.394.394 0 0 1-.448.05l-.636-.35-.278.081-.55.85a.394.394 0 0 1-.377.178l-.842-.097-.18.93a.394.394 0 0 1-.157.245l-.566.408a.394.394 0 0 1-.525-.058l-.38-.426a.394.394 0 0 1-.1-.292l.067-.883-.02-.045-.994.08a.4.4 0 0 1-.105-.006l-1.033-.198-.275.696.165.161 1.276.1c.194.015.349.171.362.366l.046.668a.394.394 0 0 1-.154.34l-.074.057.416.432c.107.111.14.274.083.418l-.194.49.198.737a.394.394 0 0 1-.396.497l-.464-.019a.394.394 0 0 1-.3-.158l-.92-1.235-.383-.2a.41.41 0 0 1-.037-.021l-.946-.63a.395.395 0 0 1-.174-.361l.04-.498-.996-1.02a.395.395 0 0 1-.102-.19l-.149-.668a.394.394 0 0 1 .106-.365l.412-.411.17-.282-.183-1.184a.395.395 0 0 1 .183-.395l.388-.241-.01-.243a.394.394 0 0 1 .051-.209l.104-.185c-4.248 1.75-7.241 5.933-7.241 10.81 0 .279.01.556.03.831.016.018.03.038.04.062.008.02-.009.074-.026.127-.016.048-.032.095-.03.113l.002.013a.394.394 0 0 1-.238.392s-.188.082-.355.24a.928.928 0 0 0-.074.076Zm23.475 1.686a11.669 11.669 0 0 0 .542-3.864l-.509.166-.179.117-.148 1.007a.394.394 0 0 1-.136.244l-.375.317.242.621c.045.102.37.843.395.974.007.043.08.216.168.418ZM33.97 11.103a11.593 11.593 0 0 0-2.186-.625l.129.313a.395.395 0 0 1 .026.206l-.036.25.449.252.4-.401a.394.394 0 0 1 .33-.113l.854.112a.392.392 0 0 1 .034.006Zm-3.092-.753a11.66 11.66 0 0 0-4.832.516l.023.04a.395.395 0 0 1 0 .386l-.196.348.014.36a.394.394 0 0 1-.186.352l-.362.224.164 1.068a.395.395 0 0 1-.052.264l-.27.445a.394.394 0 0 1-.058.075l-.292.292.077.346 1.044 1.07c.08.082.12.194.11.308l-.036.445.735.49.444.231a.395.395 0 0 1 .135.114l.496.666a.398.398 0 0 1 .026-.111l.148-.376-.547-.569a.394.394 0 0 1 .045-.587l.257-.196-.008-.116-1.08-.085a.394.394 0 0 1-.245-.111l-.454-.445a.394.394 0 0 1-.091-.427l.491-1.243a.394.394 0 0 1 .441-.242l1.302.25 1.217-.098a.395.395 0 0 1 .39.23l.177.39c.027.06.039.126.034.192l-.062.816.032.036.15-.109.221-1.135a.394.394 0 0 1 .433-.317l.962.111.497-.768a.394.394 0 0 1 .221-.164l.575-.167c.1-.03.208-.017.3.033l.537.294.45-.394a.395.395 0 0 1 .487-.025l.452.317-.173-.345-.696-.252a.394.394 0 0 1-.2-.162l-.476-.76-.476-.062-.474.474a.394.394 0 0 1-.472.066l-.945-.529a.394.394 0 0 1-.198-.4l.058-.412-.264-.642Zm-2.597 10.509c.059-.27.16-.778.265-1.016.093-.21.238-.308.334-.337.122-.038.535-.162.872-.159.221.003.416.061.551.166.162.125.308.389.445.65.037.068.073.136.113.194.017.025.05.06.06.072.233.069.848.077 1.236.21.32.11.523.307.582.537.046.18.026.377-.018.568a9.442 9.442 0 0 0-.04.189c.507.1.965.373 1.233.64.15.148.246.302.289.43.05.153.044.458-.034.79-.071.3-.192.625-.315.859.055.043.122.092.181.13.483.306 1.173.651 1.313.791.187.187.436.567.534.85.078.224.063.418.008.535-.055.117-.177.47-.396.743-.2.249-.471.431-.814.446-.256.01-.52.015-.735.042a1.528 1.528 0 0 0-.172.034l-.007.072c-.021.177-.043.4-.091.603-.08.335-.25.608-.497.728-.44.214-.787.248-1.308.248l-1.209.001c-.116.05-.364.1-.608.165a2.375 2.375 0 0 0-.263.095c-.043.104-.081.215-.131.308a.781.781 0 0 1-.322.334.742.742 0 0 1-.558.046c-.166-.044-.313-.103-.455-.15-.118-.04-.228-.077-.36-.032-.31.107-.722.354-.907.568-.09.106-.337.246-.655.356-.558.192-1.357.363-1.357.363a.394.394 0 0 1-.453-.52l.51-1.402a.385.385 0 0 1 .027-.06l.486-.862.22-.778a.395.395 0 0 1 .099-.17l1.209-1.22.338-.819-.226-.405-.696-.654a.395.395 0 0 1-.113-.19s-.402-1.602-.473-2.194c-.057-.474.228-.944.555-1.24.241-.219.504-.333.644-.347.118-.012.487-.052.81-.122.102-.022.229-.063.3-.086Zm-1.806 9.819c.261-.293.81-.638 1.233-.783.27-.093.507-.074.748-.007.16.045.322.117.511.169.016-.03.036-.074.048-.103.023-.06.046-.122.071-.18.068-.155.227-.301.457-.397.184-.076.423-.129.614-.172.066-.015.159-.04.17-.044.086-.042.242-.08.443-.089.312-.015.778.013 1.1.013.38 0 .636-.012.956-.165a.715.715 0 0 0 .05-.098c.027-.074.044-.157.058-.24.051-.306.073-.614.126-.739.064-.153.208-.291.447-.368.265-.085.711-.099 1.14-.116.143-.006.226-.132.297-.243.094-.147.156-.305.197-.408-.045-.09-.234-.46-.35-.577-.078-.077-.366-.216-.663-.381-.378-.21-.771-.45-.948-.634-.273-.283-.236-.557-.078-.74.114-.13.23-.47.299-.765.033-.14.048-.34.05-.37-.025-.056-.093-.115-.172-.18a1.756 1.756 0 0 0-.763-.357c-.232-.043-.373-.134-.465-.231a.644.644 0 0 1-.174-.452 1.617 1.617 0 0 1 .058-.381c.018-.072.047-.146.047-.217a1.555 1.555 0 0 0-.222-.077c-.4-.091-.91-.108-1.104-.173-.202-.068-.386-.256-.532-.509-.068-.119-.132-.252-.198-.37-.032-.057-.058-.113-.094-.147a1.188 1.188 0 0 0-.179-.007 2.267 2.267 0 0 0-.404.079 3.028 3.028 0 0 0-.07.225c-.07.28-.129.603-.16.728-.032.127-.14.285-.365.389-.349.162-1.143.263-1.381.288a1.472 1.472 0 0 0-.216.15c-.153.139-.327.338-.3.56.056.474.336 1.62.426 1.984l.657.616c.03.027.055.06.075.096l.348.626a.394.394 0 0 1 .02.342l-.441 1.066a.394.394 0 0 1-.084.127l-1.192 1.203-.204.724a.39.39 0 0 1-.036.087l-.494.876-.248.681c.188-.05.387-.108.56-.168.132-.045.306-.13.33-.141Zm-7.907-8.844a.395.395 0 0 1 .758-.22l.25.863a.395.395 0 0 1-.757.22l-.25-.863Z" clip-rule="evenodd"/></svg>