<svg xmlns="http://www.w3.org/2000/svg" fill="none" viewBox="0 0 48 49"><g clip-path="url(#a)"><path fill="#000" d="M38.981 33.396c-.098-.21-.407-.08-.555-.013-.024.013-.043.019-.067.031a.7.7 0 0 0-.148-.216 1.216 1.216 0 0 1-.198-.283 2.54 2.54 0 0 1-.154-.37c-.037-.099-.068-.203-.166-.388a13.545 13.545 0 0 0-.191-.37 9.43 9.43 0 0 1-.191-.358 15.501 15.501 0 0 0-.185-.364c-.05-.092-.093-.184-.185-.37-.093-.184-.148-.277-.198-.363-.049-.093-.104-.179-.19-.358-.093-.178-.124-.271-.16-.37a3.421 3.421 0 0 0-.167-.382c-.093-.19-.154-.277-.21-.364-.055-.086-.11-.166-.203-.345-.093-.179-.124-.271-.16-.37a3.39 3.39 0 0 0-.167-.382c-.093-.185-.136-.277-.179-.37-.043-.092-.092-.185-.179-.37-.061-.13-.08-.234-.098-.326-.007-.05-.019-.093-.031-.142.074-.037.148-.074.222-.105.117-.05.265-.166.314-.302a.24.24 0 0 0 0-.185c-.074-.16-.363-.136-.53-.11-.086-.143-.086-.235-.086-.346 0-.117 0-.247-.093-.438a1.484 1.484 0 0 0-.234-.376 1.21 1.21 0 0 1-.21-.345c-.086-.191-.135-.284-.184-.382-.05-.093-.1-.185-.185-.37a1.748 1.748 0 0 0-.222-.376c-.062-.087-.124-.167-.204-.352a.71.71 0 0 1-.074-.388c0-.117 0-.253-.092-.456a1.305 1.305 0 0 0-.24-.37c-.069-.08-.136-.154-.216-.34a2.714 2.714 0 0 0-.198-.375 3.453 3.453 0 0 1-.19-.364c-.081-.172-.075-.277-.069-.388 0-.117.013-.253-.086-.463a.882.882 0 0 0-.283-.363.802.802 0 0 1-.24-.315 1.603 1.603 0 0 1-.1-.29.5.5 0 0 0-.221-.35c.012-.038.024-.069.03-.1.043-.295-.098-.4-.234-.499a.664.664 0 0 1-.265-.296 2.434 2.434 0 0 1-.154-.4c-.037-.105-.068-.216-.167-.42-.092-.197-.13-.302-.172-.4-.043-.105-.08-.21-.179-.407-.092-.204-.154-.302-.21-.395-.055-.098-.11-.185-.203-.382-.086-.185-.08-.296-.074-.413a.936.936 0 0 0-.086-.487.839.839 0 0 0-.32-.376.694.694 0 0 1-.272-.32c-.093-.198-.136-.296-.185-.395-.05-.099-.093-.204-.191-.407-.087-.185-.074-.29-.068-.413a.873.873 0 0 0-.08-.493.853.853 0 0 0-.32-.37c-.1-.074-.186-.13-.241-.29.105-.092.166-.246.098-.388-.092-.204-.258-.29-.419-.222-.19.08-.29.105-.394.135-.105.031-.21.056-.413.142-.21.087-.296.179-.382.265-.08.08-.148.154-.333.228a9.17 9.17 0 0 1-.389.155c-.098.037-.203.074-.4.154a1.095 1.095 0 0 1-.395.092c-.117.006-.24.012-.444.105-.19.08-.29.099-.394.123-.105.025-.216.05-.42.136a2.67 2.67 0 0 0-.388.197 2.51 2.51 0 0 1-.37.185 5.105 5.105 0 0 0-.388.185c-.093.05-.185.099-.376.179-.197.08-.296.117-.395.154-.098.037-.197.074-.394.16-.21.087-.296.179-.383.265-.08.08-.147.154-.332.228-.185.08-.29.087-.395.099a1.314 1.314 0 0 0-.438.111c-.185.08-.29.092-.394.105-.111.012-.228.03-.432.117-.203.086-.296.142-.388.197-.093.056-.179.111-.37.191s-.29.111-.395.148c-.098.031-.203.068-.4.148-.204.087-.296.16-.389.234-.08.068-.16.136-.345.21-.203.086-.296.16-.388.228a1.22 1.22 0 0 1-.352.204.637.637 0 0 1-.4.043.783.783 0 0 0-.481.055c-.191.08-.29.111-.395.142-.104.03-.21.068-.406.148-.204.086-.296.154-.389.222-.086.061-.166.123-.357.203a1.929 1.929 0 0 0-.475.315c-.086.067-.16.13-.247.185-.098.067-.215.104-.345.154-.173.061-.345.123-.475.246-.135.136-.222.309-.308.481-.05.105-.105.204-.16.29-.167.247-.29.524-.395.783-.024.061-.055.123-.08.185a2.826 2.826 0 0 0-.228.64c-.055.297-.055.611-.05.882v.18c0 .233 0 .474.056.708l.037.179c.05.228.099.468.197.684.093.204.173.29.247.376.068.08.136.154.222.34.086.184.111.283.136.381.024.105.055.216.148.414.086.184.117.283.148.382.03.105.061.21.154.407.092.197.166.29.24.376.068.08.13.16.216.339.086.185.105.283.123.388.019.111.043.222.136.42.092.197.16.29.222.375.061.087.123.167.203.352.086.185.111.283.136.382.024.105.055.216.148.407.086.19.13.29.166.382.043.099.08.197.173.388.092.198.16.29.228.377.068.086.13.16.21.345.086.185.11.283.135.382a1.9 1.9 0 0 0 .148.413c.099.21.216.29.314.364.1.067.185.13.266.296.086.178.098.283.11.388.019.11.031.228.124.431.08.18.092.284.105.389.012.117.024.234.117.438.092.197.166.29.234.376.068.08.13.16.216.345.086.185.11.283.142.382.03.105.055.21.148.407.086.191.123.283.166.382.037.099.08.197.166.389.087.19.142.29.192.382.049.092.098.185.184.376.099.21.204.29.296.363a.743.743 0 0 1 .253.309c.08.178.086.283.092.388.007.117.013.24.111.444.093.203.192.29.284.37a.783.783 0 0 1 .21.246c-.124.056-.13.062-.136.093 0 0-.006 0-.012.006-.025.025-.087.074-.056.142 0 .006.013.018.019.03.08.167.222.284.357.401.099.08.191.16.26.247.06.08.116.166.172.265.098.16.197.32.339.45.068.062.136.123.197.191.142.142.29.29.469.395.154.092.339.13.517.166.118.025.235.05.34.086.092.037.19.08.283.124.167.08.34.16.524.197.037 0 .068.006.105.006.136 0 .277-.043.407-.086.13-.043.246-.08.357-.08.124 0 .247.024.383.055.19.043.382.08.579.043.204-.043.388-.142.567-.24.099-.056.204-.111.308-.154.192-.08.29-.105.395-.13.105-.024.216-.055.413-.135.197-.087.296-.136.388-.185a3.81 3.81 0 0 1 .376-.179 2.09 2.09 0 0 0 .389-.203c.092-.056.179-.111.363-.192.18-.074.278-.061.401-.049a.882.882 0 0 0 .475-.062c.21-.086.296-.178.382-.265a.794.794 0 0 1 .333-.228c.191-.08.29-.11.394-.148.1-.03.204-.068.401-.154a3.24 3.24 0 0 0 .389-.19 2.65 2.65 0 0 1 .376-.186c.19-.08.29-.117.388-.154.099-.037.204-.074.4-.16.18-.074.284-.074.395-.074.124 0 .247 0 .456-.087.21-.086.296-.166.383-.24a.979.979 0 0 1 .345-.216c.191-.08.29-.105.394-.13.105-.024.216-.055.413-.14.21-.087.296-.167.383-.247.08-.075.16-.142.339-.216a.976.976 0 0 1 .394-.093c.117-.012.234-.018.444-.105.21-.086.296-.178.382-.258.08-.08.154-.155.333-.229.185-.08.29-.092.395-.104.11-.013.228-.025.438-.111.203-.087.295-.148.388-.216.086-.062.172-.117.357-.197.191-.08.29-.105.395-.13.105-.024.216-.055.42-.142.209-.086.301-.16.388-.228l.024-.018s.013-.013.019-.013c.074-.061.16-.11.302-.172l.043-.019c.13-.049.283-.117.333-.228a.173.173 0 0 0 0-.135h.018Zm-20.75 1.27c-.006.024-.019.049-.025.08-.018.061-.043.13-.055.197v.025c-.037-.074-.068-.142-.117-.247l-.08-.179a3.883 3.883 0 0 0-.204-.388c-.055-.099-.105-.185-.197-.376-.093-.197-.142-.296-.191-.395a7.989 7.989 0 0 1-.191-.388 8.005 8.005 0 0 0-.191-.388c-.05-.1-.1-.191-.185-.389-.087-.19-.111-.29-.142-.394a1.948 1.948 0 0 0-.148-.426c-.099-.21-.191-.296-.278-.382-.08-.074-.16-.148-.246-.333-.086-.185-.086-.29-.093-.4a.96.96 0 0 0-.11-.457l-.364-.783a5.681 5.681 0 0 0-.198-.394c-.049-.093-.098-.191-.19-.382-.093-.191-.13-.296-.167-.395a5.135 5.135 0 0 0-.173-.4.869.869 0 0 0-.308-.377.693.693 0 0 1-.259-.314.93.93 0 0 1-.098-.4 1.068 1.068 0 0 0-.118-.457c-.092-.203-.172-.296-.246-.382-.074-.087-.142-.16-.228-.352a4.416 4.416 0 0 1-.16-.394 4.366 4.366 0 0 0-.167-.413c-.093-.197-.13-.296-.173-.395-.043-.098-.08-.203-.172-.4a2.355 2.355 0 0 0-.216-.389 2.232 2.232 0 0 1-.204-.37.929.929 0 0 1-.098-.4c-.006-.124-.013-.247-.111-.456a3.431 3.431 0 0 1-.259-.783c-.012-.056-.025-.105-.03-.16a2.765 2.765 0 0 1-.087-.66c.006-.173.068-.333.135-.506.037-.092.074-.19.105-.29.037-.129.031-.277.031-.419 0-.172-.012-.333.056-.462.092-.167.24-.315.382-.456.061-.062.13-.13.185-.191.172-.185.382-.42.622-.592.062-.043.124-.087.185-.136.173-.13.352-.265.543-.345.197-.08.296-.105.4-.136a2.54 2.54 0 0 0 .426-.142c.191-.08.296-.086.407-.092a1.22 1.22 0 0 0 .45-.105c.203-.086.302-.13.4-.172l.395-.173c.191-.08.296-.105.4-.13.112-.024.223-.049.432-.135a.849.849 0 0 0 .383-.302.709.709 0 0 1 .32-.259c.191-.08.296-.105.4-.123.112-.025.223-.05.432-.136.204-.086.302-.136.401-.185.099-.05.191-.098.388-.179.21-.086.302-.148.401-.21.093-.06.179-.116.376-.197a.791.791 0 0 1 .296-.067h.11c.124.006.26.018.482-.068.21-.087.302-.16.394-.228.087-.068.173-.13.364-.21.191-.08.296-.098.4-.123.112-.019.229-.043.432-.13.216-.086.302-.172.395-.252.08-.074.16-.148.345-.228a1.08 1.08 0 0 1 .407-.1c.117-.011.24-.024.45-.11l.801-.34c.204-.085.302-.135.401-.184.099-.05.191-.099.388-.179.21-.086.303-.154.401-.216.093-.061.179-.117.37-.197.136-.055.222-.117.296-.16.142-.093.197-.13.438-.037.228.092.24.154.277.314.018.093.043.204.111.352.086.19.105.296.123.406.019.118.043.235.136.444.092.204.154.303.21.395.055.099.11.185.203.382.086.191.117.296.142.4.03.112.055.223.154.432.092.204.142.302.197.401.05.099.099.191.191.389.099.21.173.302.247.394.068.086.135.166.222.357.086.192.11.296.135.407.025.111.05.229.148.438.099.21.167.302.235.395.067.092.129.172.221.363.068.148.068.278.075.407 0 .154 0 .32.16.463 0 .21.086.326.185.45.061.08.13.166.19.296.093.203.18.29.26.37.074.073.148.147.228.326.08.179.098.277.11.382.02.111.032.228.124.426.092.197.16.29.228.376.062.086.123.166.21.345.086.179.105.277.123.382.025.105.043.216.136.413.092.204.178.29.259.37.074.074.148.148.228.327.086.19.135.283.185.376.049.092.092.185.185.37.086.19.129.283.172.382.043.092.086.191.173.382.08.179.086.278.092.389 0 .117.013.24.105.443.086.18.24.284.37.37.179.117.259.173.191.333a.183.183 0 0 1-.025.05.367.367 0 0 0-.333.129h-.036c-.142-.006-.309-.019-.488.055-.197.087-.302.13-.4.173-.099.043-.197.093-.395.173-.203.086-.302.135-.4.185-.1.049-.192.098-.389.184-.185.08-.29.08-.407.087a1.03 1.03 0 0 0-.462.099.953.953 0 0 0-.388.29.765.765 0 0 1-.327.246l-.802.333c-.203.086-.302.142-.4.197a3.049 3.049 0 0 1-.382.191c-.198.086-.296.111-.401.142-.105.03-.216.061-.42.148a6.073 6.073 0 0 0-.4.185c-.099.05-.191.098-.389.178-.19.08-.295.093-.4.111-.117.019-.234.031-.444.124-.191.08-.296.086-.407.098-.117.013-.24.025-.45.111a3.663 3.663 0 0 0-.4.192c-.1.049-.192.098-.389.184-.21.087-.302.173-.394.253a.956.956 0 0 1-.352.222c-.203.086-.302.13-.4.173l-.395.172c-.191.08-.296.099-.4.117-.112.019-.229.037-.439.124-.197.08-.296.104-.406.13-.111.024-.222.049-.426.135a1.39 1.39 0 0 0-.394.234c-.087.068-.173.13-.364.21-.08.037-.142.092-.204.148-.037.03-.067.067-.104.092a.163.163 0 0 0-.037-.03c-.062-.056-.117-.105-.18-.069a.587.587 0 0 0-.166.16c-.024.032-.055.062-.08.087-.024-.006-.055-.012-.086.006-.037.025-.08.056-.123.08a2.565 2.565 0 0 0-.216.142c-.05.043-.037.105-.025.16v.019a.518.518 0 0 1-.105.03c-.067.02-.147.032-.203.093-.05.05-.012.111.037.191.006.013.012.019.019.031a.611.611 0 0 1-.093.056c-.062.037-.13.074-.197.141-.019.013-.05.025-.068.05a.36.36 0 0 1-.105.08.388.388 0 0 0-.154.13c-.03.042-.012.092 0 .123-.024.024-.074.049-.11.074-.075.043-.155.08-.198.16-.03.062.018.11.068.166l.024.025c-.024.05-.043.105-.067.154l-.037.093-.031.08a.537.537 0 0 1-.099.123.535.535 0 0 0-.142.191c-.018.056.025.099.05.123l.049.007Zm.043.431s-.012.037-.025.056c-.024-.05-.049-.087-.067-.124a.274.274 0 0 0 .067.05c.007 0 .013.012.025.012v.006Zm.635-.296c.043-.154.148-.277.259-.413.074-.092.154-.185.21-.296.061-.11.098-.24.135-.363.05-.167.093-.321.191-.432.105-.11.253-.179.413-.253.111-.049.228-.104.333-.178.08-.056.16-.124.235-.185a1.88 1.88 0 0 1 .45-.309c.19-.08.29-.13.382-.172.092-.043.185-.093.376-.173.197-.086.29-.148.382-.21.086-.061.173-.117.358-.19.178-.075.277-.068.388-.062a.918.918 0 0 0 .456-.074c.203-.087.29-.154.382-.228.08-.068.16-.13.345-.204.198-.08.29-.135.383-.178.092-.05.178-.1.37-.18.172-.073.277-.061.388-.055a.857.857 0 0 0 .462-.068c.21-.086.29-.178.376-.27.074-.081.142-.155.321-.229.197-.086.29-.148.382-.21.087-.061.167-.117.352-.197.172-.074.27-.055.394-.037.123.019.265.043.475-.05l.382-.16c.099-.043.191-.08.382-.16a1.12 1.12 0 0 0 .376-.246.966.966 0 0 1 .333-.216c.179-.074.284-.086.389-.099.11-.012.228-.024.431-.11.197-.087.29-.149.382-.21.087-.062.167-.117.352-.198.185-.08.283-.092.388-.11.111-.019.222-.038.42-.124a1.06 1.06 0 0 0 .375-.246.964.964 0 0 1 .333-.216c.16-.068.253-.13.333-.179a.827.827 0 0 1 .277-.13c-.067.16-.11.34-.154.518-.018.08-.037.155-.055.229-.025.098-.074.19-.123.296-.08.172-.167.35-.173.554 0 .167.08.327.16.487.062.117.123.247.148.37.019.105.019.216.019.333 0 .173 0 .358.061.536.087.253.198.506.333.802.087.179.185.345.29.505.043.068.086.13.123.198.062.104.099.228.136.345.043.154.092.308.191.431.11.136.271.21.425.284.111.05.216.105.296.172.216.198.42.346.641.481.08.05.167.105.26.16.215.143.462.297.696.377-.105.068-.191.08-.302.098-.105.013-.228.031-.389.099-.19.08-.29.13-.382.179-.092.05-.185.092-.37.172a1.338 1.338 0 0 1-.382.105c-.11.013-.222.031-.425.111a1.042 1.042 0 0 1-.389.093 1.145 1.145 0 0 0-.431.104c-.197.08-.29.136-.382.185-.093.05-.18.099-.37.18-.204.085-.29.166-.376.246a.964.964 0 0 1-.333.215c-.191.08-.29.124-.382.167a10.16 10.16 0 0 1-.383.166 1.39 1.39 0 0 1-.382.105c-.11.019-.222.031-.419.117-.185.08-.284.099-.382.124-.105.024-.21.049-.413.129-.204.086-.29.154-.382.228-.08.068-.16.13-.346.204-.197.086-.29.148-.382.21a1.636 1.636 0 0 1-.351.196c-.179.074-.278.068-.389.068-.117 0-.246-.012-.456.08a2.13 2.13 0 0 0-.382.21 1.436 1.436 0 0 1-.351.191c-.192.08-.284.105-.383.136-.098.03-.203.061-.4.142-.111.049-.191.08-.253.11-.154.068-.228.105-.512.185l-.265.074c-.172.05-.265.074-.542.192-.124.049-.222.148-.32.24-.112.105-.217.203-.328.228-.259.055-.53.105-.783.111h-.006c-.13 0-.259-.062-.394-.123-.117-.05-.235-.105-.352-.124-.098-.018-.203-.024-.302-.03-.166-.013-.32-.019-.462-.068a3.85 3.85 0 0 1-.678-.34c-.056-.036-.117-.067-.179-.104a2.518 2.518 0 0 1-.462-.308 3.912 3.912 0 0 1-.524-.561c-.08-.111-.124-.253-.167-.401-.03-.105-.061-.216-.105-.314a.064.064 0 0 0-.061-.044H19.1c-.123-.27-.222-.499-.271-.74a3.63 3.63 0 0 1-.056-.85c.013-.253.062-.536.148-.839l-.012-.012ZM35.88 33.23a3.412 3.412 0 0 1-.733-.604c-.037-.043-.08-.08-.117-.123-.18-.185-.364-.376-.512-.598a7.51 7.51 0 0 1-.468-.845c-.08-.166-.105-.351-.136-.53a2.105 2.105 0 0 0-.074-.364c-.043-.135-.105-.265-.16-.382-.074-.166-.148-.32-.167-.468-.037-.272.006-.543.043-.77l.019-.13c.055-.37.142-.654.259-.857.098-.173.234-.34.407-.506.061.068.13.142.19.271.093.185.149.278.198.37.056.093.105.173.197.358.093.179.124.271.167.37.037.098.074.197.172.382.093.191.142.284.185.376.043.093.093.179.18.358.091.184.14.277.19.37.05.092.099.178.185.363.093.179.136.271.179.364.043.092.092.185.185.37.092.185.148.277.197.363.05.093.105.18.191.358.093.179.124.271.154.37.037.099.068.197.167.388.092.18.135.272.185.364.049.093.092.185.185.37.061.123.086.21.104.29.013.049.025.098.05.141h-.013c-.154 0-.308-.055-.462-.11-.105-.037-.216-.08-.32-.1l-.216-.036c-.21-.031-.432-.068-.617-.173h.006ZM18.644 22.72c.123-.013.271-.025.462-.105.191-.08.302-.173.395-.253.148-.123.228-.191.505-.123.327.08.389.19.494.376.061.11.141.252.302.413.215.228.308.302.456.24a.825.825 0 0 0 .197-.154c.037-.037.08-.074.13-.117.252-.228.357-.32.283-.475-.037-.08-.135-.197-.277-.345a2.869 2.869 0 0 0-.302-.271c-.074-.062-.148-.124-.284-.26a7.762 7.762 0 0 1-.271-.283 7.81 7.81 0 0 0-.278-.29c-.141-.141-.215-.203-.29-.27-.073-.069-.147-.13-.283-.272l-.56-.555c-.143-.142-.217-.21-.285-.277-.067-.068-.141-.136-.277-.271l-.13-.13c-.178-.185-.29-.296-.425-.327-.178-.043-.363.013-.709.16-.345.149-.499.253-.58.414-.08.154-.104.357-.08.702.02.24.032.364.05.481.018.117.03.235.05.469.018.234.012.351.012.474 0 .118 0 .24.012.487.019.24.03.364.043.481.012.117.025.234.043.475.013.228.025.345.031.462.006.124.012.247.031.494.018.221.025.338.068.431.05.105.142.142.314.142.068 0 .154 0 .247-.012.061 0 .11-.007.16-.013a.76.76 0 0 0 .265-.037c.148-.061.142-.216.111-.505a1.54 1.54 0 0 0-.123-.487c-.074-.204-.117-.315.043-.598.136-.247.24-.26.438-.272h.012Zm-.653-2.115c0-.117 0-.234-.025-.456l.672.69c.142.148.283.216.4.271.18.087.266.13.272.383 0 .185-.05.19-.302.203a1.8 1.8 0 0 0-.296.025c-.185.024-.296.142-.376.222-.105.105-.124.13-.222.037-.191-.173-.173-.265-.13-.444.025-.117.056-.26.037-.45-.024-.24-.024-.358-.03-.481Zm3.526.308c-.099-.21-.142-.314-.105-.413.037-.098.154-.148.376-.24l.025-.013c.197-.086.296-.13.4-.172.099-.043.198-.087.401-.173.456-.19.5-.179.684.228l.019.043c.092.204.142.302.098.401-.037.105-.148.148-.388.247-.197.086-.296.13-.395.172-.098.043-.197.087-.4.173-.179.074-.296.117-.382.117-.142 0-.21-.11-.333-.376v.006Zm1.19-3.36c-.1-.215-.16-.345-.118-.462.044-.117.185-.179.432-.284.203-.086.314-.123.42-.154.104-.037.203-.067.406-.154l.407-.172c.098-.044.197-.087.4-.167.204-.086.309-.123.407-.166.105-.037.204-.08.407-.16l.05-.019c.283-.123.339-.117.684.16.327.271.327.327.179.882-.056.222-.093.326-.124.438a5.045 5.045 0 0 0-.123.443c-.055.216-.08.327-.11.438-.026.111-.056.222-.112.45-.055.222-.074.333-.098.444a5.51 5.51 0 0 1-.1.45 1.17 1.17 0 0 1-.215.413c-.117.154-.166.222-.037.4.03.044.062.069.08.069.043 0 .099-.062.167-.124a1.09 1.09 0 0 1 .333-.246c.166-.068.246-.111.326-.148.08-.043.167-.08.34-.154.166-.074.252-.105.338-.136.087-.03.167-.068.34-.136.505-.21.554-.19.752.247l.03.061c.093.204.148.315.105.426-.043.11-.179.172-.431.277l-1.714.722c-.216.092-.327.135-.432.178-.104.044-.215.087-.431.18a.815.815 0 0 1-.302.085c-.123 0-.228-.073-.45-.258-.333-.272-.333-.333-.21-.783l.025-.105c.055-.228.08-.34.11-.45.025-.105.05-.216.106-.432.055-.222.086-.326.11-.437.031-.111.056-.222.111-.438.056-.216.08-.327.105-.438.025-.11.05-.222.105-.444.043-.178.148-.32.228-.431.142-.198.173-.253.012-.37-.184-.136-.252-.068-.406.092a1.195 1.195 0 0 1-.413.315l-.907.376c-.505.216-.567.19-.783-.271v-.007Zm-1.912 17.04a.385.385 0 0 1 .044-.37c.16-.247.314-.26.48-.265.1-.007.21-.013.346-.074.19-.08.283-.124.376-.167.092-.043.19-.086.382-.166.197-.08.29-.123.388-.16.093-.038.191-.08.383-.155.19-.08.29-.117.382-.16.098-.037.19-.08.382-.16.197-.08.302-.111.407-.136.105-.025.197-.05.382-.13s.271-.129.358-.19a2.532 2.532 0 0 1 .789-.339c.104-.025.197-.05.382-.13.191-.08.277-.123.37-.172.092-.05.185-.1.382-.18.191-.08.284-.123.382-.166.093-.043.191-.086.382-.166.191-.08.284-.13.37-.173a4.15 4.15 0 0 1 .383-.179c.197-.08.308-.104.412-.129.105-.025.198-.043.383-.123s.277-.13.37-.18c.092-.048.184-.104.382-.184.19-.08.283-.123.376-.166a10.3 10.3 0 0 1 .382-.167c.123-.05.203-.105.271-.148.142-.092.24-.154.543-.105.179.031.302.111.357.228.031.074.05.192-.049.34-.166.252-.308.27-.475.302-.092.012-.19.03-.32.086-.197.086-.308.105-.42.123a1.573 1.573 0 0 0-.382.111l-.764.32a2.7 2.7 0 0 0-.364.186 2.366 2.366 0 0 1-.382.19c-.197.08-.302.112-.4.142-.1.031-.198.056-.383.136-.191.08-.277.123-.37.173-.092.05-.185.098-.382.178-.197.08-.296.118-.394.148-.1.031-.198.062-.383.142-.185.08-.271.13-.363.179a2.372 2.372 0 0 1-.383.191c-.19.08-.283.123-.382.16-.099.044-.191.087-.382.167-.191.08-.29.123-.382.16-.099.037-.191.08-.383.16-.197.08-.302.111-.406.136-.105.025-.198.05-.383.13-.184.08-.265.135-.351.19-.092.062-.179.124-.382.21-.173.074-.284.093-.376.111-.117.025-.21.037-.4.16-.106.062-.174.124-.235.173-.123.099-.21.173-.4.173-.056 0-.112 0-.186-.019-.172-.03-.302-.123-.357-.253l-.006.007Zm10.881-1.85c.105-.024.197-.055.382-.13.142-.06.222-.135.29-.197.117-.11.228-.215.512-.16.154.025.265.105.308.216.05.117.025.253-.062.388-.166.253-.29.284-.456.315-.08.018-.172.037-.296.086-.197.08-.302.111-.4.142-.1.03-.198.055-.383.135-.185.08-.277.13-.37.18-.092.049-.184.104-.382.184-.197.08-.308.105-.413.13-.105.024-.197.043-.382.123-.185.074-.265.135-.351.197-.087.062-.18.13-.383.21-.197.086-.314.105-.419.123-.105.019-.203.03-.382.111-.185.074-.265.136-.351.197-.087.062-.18.13-.383.21-.19.08-.283.123-.382.166-.099.043-.19.087-.382.167-.197.08-.308.11-.407.13-.105.024-.197.049-.382.123a3.89 3.89 0 0 0-.37.172c-.093.05-.185.099-.382.179-.191.08-.29.117-.382.16-.1.037-.192.08-.389.16-.19.08-.283.124-.376.167-.092.043-.19.092-.382.173a3.287 3.287 0 0 1-.327.117c-.13.037-.216.068-.425.197-.093.055-.16.11-.216.154-.142.111-.234.179-.425.179-.056 0-.124-.006-.204-.019a.467.467 0 0 1-.357-.265.39.39 0 0 1 .043-.382c.16-.24.32-.24.487-.247.105 0 .222 0 .358-.061.184-.08.27-.13.357-.185.093-.056.185-.117.382-.197.197-.087.308-.105.413-.124.105-.018.204-.037.383-.117.184-.08.264-.135.35-.19.087-.063.18-.124.383-.21.197-.08.296-.118.395-.148.098-.031.197-.062.382-.142.197-.08.296-.117.4-.148.1-.031.198-.062.383-.142.19-.08.283-.123.376-.166.092-.044.19-.093.382-.173l.764-.32a3.89 3.89 0 0 0 .37-.173c.093-.05.185-.099.383-.179.197-.08.302-.111.4-.142.099-.03.197-.055.382-.135.185-.08.272-.13.358-.192.092-.055.185-.117.382-.203.191-.08.29-.117.389-.154.098-.037.197-.068.382-.148.197-.08.302-.111.407-.136l.018-.006Z"/></g><defs><clipPath id="a"><path fill="#fff" d="M11 10.5h28v29.745H11z"/></clipPath></defs></svg>