<svg width="1394" height="632" viewBox="0 0 1394 632" fill="none" xmlns="http://www.w3.org/2000/svg">
<path d="M223.016 389.81C223.381 390.049 223.603 390.748 223.37 390.865C223.253 390.923 223.164 391.039 223.191 391.096C223.312 391.352 222.702 391.781 220.869 392.753C220.365 393.023 219.881 393.372 219.804 393.516C219.728 393.66 219.529 393.813 219.37 393.857C219.211 393.902 219.02 394.033 218.93 394.149C218.84 394.264 218.652 394.323 218.502 394.275C218.31 394.213 218.223 394.257 218.189 394.415C218.15 394.522 218.047 394.609 217.932 394.596C217.589 394.557 216.963 394.836 216.781 395.139C216.659 395.341 216.638 395.334 216.672 395.176C216.698 395.04 216.628 394.969 216.541 395.013C216.453 395.057 216.39 395.229 216.399 395.401C216.427 395.651 216.345 395.745 215.984 395.82C215.724 395.881 215.503 396.026 215.485 396.141C215.452 396.299 215.364 396.342 215.151 396.273C214.98 396.218 214.821 396.263 214.803 396.378C214.746 396.6 213.804 397.09 213.745 396.926C213.718 396.869 213.521 396.95 213.336 397.131C213.13 397.305 212.844 397.502 212.655 397.561C212.466 397.62 212.377 397.736 212.46 397.835C212.521 397.927 212.416 398.086 212.19 398.181C211.986 398.284 211.77 398.286 211.738 398.179C211.684 398.066 211.626 398.095 211.534 398.282C211.442 398.469 211.333 398.506 211.234 398.45C211.135 398.394 210.976 398.439 210.873 398.526C210.762 398.634 210.567 398.644 210.447 398.581C210.292 398.482 210.242 398.49 210.288 398.625C210.32 398.732 210.244 398.876 210.106 398.928C209.88 399.023 209.894 399.052 210.123 399.078C210.352 399.104 210.336 399.147 210.052 399.272C209.856 399.353 209.591 399.556 209.464 399.708C209.337 399.859 209.213 399.939 209.186 399.882C209.159 399.826 208.397 400.085 207.465 400.482C206.221 401.018 205.655 401.196 205.189 401.166C204.766 401.15 204.368 401.261 203.864 401.532C203.477 401.744 203.105 401.913 203.041 401.892C202.977 401.871 202.534 402.041 202.038 402.29C201.52 402.532 201.085 402.68 200.994 402.602C200.895 402.546 200.765 402.576 200.704 402.677C201.143 402.65 194.865 405.484 186.736 408.946C184.785 409.784 183.044 410.57 182.867 410.729C182.69 410.888 182.472 410.962 182.344 410.921C182.237 410.886 182.065 410.903 181.975 411.018C181.774 411.242 178.606 412.674 178.486 412.611C178.422 412.59 177.498 412.965 176.391 413.45C173.624 414.698 169.985 416.242 168.037 417.008C167.142 417.369 166.195 417.809 165.93 418.012C165.665 418.216 165.381 418.341 165.282 418.285C165.24 418.271 164.557 418.508 163.517 418.942C162.477 419.376 161.051 419.95 159.509 420.583C156.417 421.87 153.129 423.239 152.176 423.629C149.753 424.651 147.948 425.415 146.711 425.93C145.83 426.32 145.363 426.554 145.353 426.647C145.322 426.733 145.176 426.806 144.976 426.766C144.704 426.726 144.58 426.806 144.338 427.209C144.103 427.591 143.97 427.693 143.691 427.675C143.441 427.642 143.295 427.715 143.182 427.895C143.068 428.075 143.01 428.104 142.884 427.991C142.758 427.878 142.708 427.886 142.666 428.065C142.601 428.309 142.288 428.449 141.881 428.389C141.753 428.348 141.562 428.479 141.486 428.623C141.409 428.767 141.24 428.904 141.117 428.913C140.995 428.922 140.73 429.125 140.529 429.349C140.12 429.818 138.945 430.426 138.72 430.257C138.643 430.208 138.534 430.245 138.452 430.338C138.264 430.591 137.805 430.804 137.826 430.617C137.857 430.531 137.721 430.511 137.525 430.592C137.358 430.659 137.247 430.767 137.303 430.809C137.359 430.852 137.043 431.063 136.613 431.261C135.987 431.54 135.735 431.579 135.545 431.445C135.299 431.269 135.299 431.269 135.399 431.518C135.445 431.653 135.441 431.796 135.374 431.847C134.287 432.411 133.363 432.786 133.251 432.702C133.174 432.652 133.038 432.632 132.958 432.655C132.871 432.699 132.868 432.77 132.967 432.826C133.066 432.882 133.056 432.976 132.976 432.998C132.889 433.042 132.739 432.994 132.662 432.944C132.571 432.867 132.311 432.927 132.069 433.066C131.828 433.204 131.589 433.271 131.511 433.222C131.434 433.173 131.333 433.189 131.28 433.268C131.227 433.347 130.988 433.414 130.752 433.41C130.393 433.414 130.318 433.486 130.346 433.736C130.372 434.058 129.964 434.263 129.667 434.095C129.59 434.046 129.215 434.093 128.867 434.197C128.134 434.441 127.977 434.415 128.21 434.104C128.352 433.91 128.36 433.888 128.142 433.962C128.004 434.014 127.848 434.18 127.772 434.324C127.693 434.54 127.6 434.534 127.45 434.292C127.305 434.101 127.177 434.059 127.008 434.197C126.897 434.306 126.825 434.307 126.856 434.22C126.95 433.962 126.476 433.76 126.104 433.929C125.849 434.039 125.815 434.004 125.907 433.817C126.069 433.436 126.008 433.343 125.561 433.392C125.237 433.431 125.202 433.396 125.344 433.201C125.495 432.985 125.452 432.971 125.128 433.01C124.673 433.08 124.571 432.902 124.87 432.541C125.049 432.311 125.044 432.261 124.815 432.235C124.666 432.186 124.451 431.924 124.279 431.483C124.106 431.041 123.934 430.793 123.769 430.788C123.596 430.804 123.535 430.712 123.586 430.44C123.606 430.254 123.582 430.125 123.502 430.147C123.255 430.236 122.679 429.592 122.83 429.376C122.928 429.239 122.874 429.125 122.636 428.928C122.195 428.568 121.696 427.515 121.761 427.078C121.791 426.799 121.75 426.714 121.585 426.709C121.42 426.703 121.394 426.646 121.534 426.523C121.682 426.379 121.655 426.322 121.415 426.196C121.196 426.077 121.183 426.048 121.361 426.082C121.489 426.123 121.563 426.051 121.531 425.944C121.485 425.809 121.248 425.804 120.977 425.958C120.89 426.002 120.855 425.966 120.37 424.942C120.182 424.544 119.916 424.096 119.806 423.94C119.64 423.742 119.652 423.578 119.818 423.318C119.969 423.102 119.975 422.887 119.879 422.76C119.775 422.654 119.795 422.467 119.935 422.344C120.157 422.127 120.157 422.127 119.82 422.138C119.359 422.158 118.853 421.127 119.246 420.965C119.443 420.884 119.437 420.834 119.274 420.757C119.082 420.695 119.066 420.545 119.133 420.23C119.206 419.964 119.151 419.657 118.993 419.438C118.834 419.218 118.796 419.061 118.934 419.009C119.043 418.972 118.982 418.88 118.798 418.796C118.606 418.734 118.445 418.586 118.413 418.479C118.367 418.344 118.417 418.336 118.543 418.449C118.711 418.576 118.756 418.518 118.835 418.302C118.921 418.065 118.865 418.023 118.583 418.076C118.331 418.115 118.24 418.038 118.273 417.88C118.321 417.751 118.312 417.579 118.314 417.507C118.316 417.436 118.297 417.358 118.326 417.343C118.334 417.321 118.29 417.114 118.247 416.908C118.182 416.694 118.148 416.394 118.16 416.229C118.173 416.065 118.142 415.886 118.094 415.822C117.944 415.581 117.985 414.944 118.15 414.949C118.35 414.99 118.393 414.088 118.182 413.948C118.104 413.899 118.165 413.798 118.282 413.739C118.428 413.666 118.459 413.58 118.368 413.502C118.256 413.418 118.293 413.382 118.487 413.372C118.652 413.377 118.755 413.29 118.715 413.205C118.675 413.12 118.762 413.076 118.877 413.089C119.034 413.116 119.036 413.044 118.897 412.903C118.723 412.726 118.76 412.69 119.061 412.715C119.268 412.734 119.399 412.704 119.379 412.625C119.287 412.355 119.798 411.87 120.163 411.915C120.506 411.954 121.005 411.634 120.815 411.5C120.681 411.409 121.852 410.945 122.044 411.007C122.129 411.034 122.262 410.933 122.325 410.76C122.387 410.588 122.578 410.457 122.722 410.455C122.866 410.454 123.07 410.351 123.21 410.228C123.543 409.902 124.695 409.36 124.741 409.495C124.8 409.659 125.363 409.359 125.69 408.984C125.817 408.832 126.271 408.569 126.656 408.429C127.07 408.274 127.369 408.106 127.35 408.027C127.323 407.971 127.483 407.926 127.69 407.945C127.97 407.963 128.108 407.911 128.221 407.731C128.305 407.566 128.414 407.529 128.513 407.585C128.591 407.634 128.859 407.552 129.145 407.356C129.527 407.094 129.686 407.049 129.868 407.204C130.05 407.36 130.129 407.337 130.266 407.093C130.35 406.927 130.629 406.752 130.876 406.664C131.115 406.596 131.377 406.465 131.43 406.385C131.602 406.176 132.32 406.168 132.406 406.388C132.46 406.502 132.511 406.494 132.616 406.336C132.79 406.055 134.051 405.475 134.015 405.705C133.983 405.791 134.271 405.787 134.632 405.712C134.972 405.629 135.289 405.611 135.315 405.668C135.342 405.725 135.566 405.701 135.834 405.619C136.102 405.537 136.469 405.512 136.653 405.595C136.93 405.685 136.994 405.706 137.052 405.483C137.101 405.283 137.189 405.239 137.46 405.278C137.503 405.292 137.67 405.226 137.997 405.115C138.331 404.982 138.825 404.805 139.443 404.547C140.985 403.914 143.146 403.024 145.699 401.972C150.843 399.831 157.618 396.942 164.41 394.01C171.201 391.078 177.994 388.074 183.158 385.747C185.729 384.58 187.908 383.575 189.503 382.863C191.222 382.071 191.697 381.815 191.829 381.713C192.044 381.518 192.577 381.232 192.991 381.078C193.434 380.908 193.646 380.784 193.489 380.757C193.282 380.738 193.292 380.645 193.508 380.378C193.688 380.147 193.834 380.074 193.896 380.166C193.965 380.237 194.233 380.155 194.57 379.951C194.936 379.732 195.255 379.642 195.468 379.711C195.766 379.808 195.782 379.765 195.539 379.518C195.338 379.284 195.369 379.198 195.642 378.973C196.068 378.653 196.544 378.591 196.506 378.891C196.46 379.214 196.969 378.8 197.073 378.449C197.167 378.19 197.175 378.168 197.283 378.396C197.383 378.645 197.888 378.568 197.998 378.266C198.084 378.029 198.784 377.678 198.756 377.885C198.713 378.136 198.837 378.056 199.305 377.557C199.535 377.319 200.084 376.991 200.557 376.806C201.008 376.615 201.411 376.36 201.45 376.252C201.505 376.102 201.563 376.072 201.668 376.178C201.759 376.256 201.902 376.254 202.021 376.124C202.162 376.001 202.212 375.993 202.178 376.151C202.153 376.287 202.23 376.336 202.376 376.263C202.514 376.211 202.582 376.089 202.555 376.032C202.536 375.954 202.698 375.837 202.937 375.77C203.176 375.703 203.433 375.521 203.502 375.399C203.646 375.133 204.048 375.142 204.004 375.393C203.971 375.551 204.599 375.2 205.071 374.823C205.166 374.758 205.267 374.742 205.3 374.849C205.34 374.934 205.412 374.933 205.472 374.833C205.525 374.753 205.632 374.788 205.686 374.902C205.766 375.072 205.838 375.071 206.06 374.854C206.386 374.55 207.259 374.183 207.741 374.17C207.935 374.16 208.163 373.993 208.321 373.755C208.487 373.496 208.641 373.401 208.74 373.457C208.838 373.513 208.931 373.52 208.992 373.419C209.045 373.339 209.138 373.346 209.178 373.431C209.259 373.602 209.967 373.229 210.207 372.897C210.268 372.796 210.404 372.816 210.495 372.894C210.599 373 210.801 372.969 211.101 372.801C211.342 372.662 211.618 372.559 211.696 372.608C211.781 372.635 212.138 372.703 212.51 372.727C213.027 372.75 213.189 372.826 213.274 373.119C213.358 373.411 213.456 373.467 213.69 373.35C213.916 373.254 214.001 373.282 214.05 373.539C214.08 373.717 214.156 373.838 214.235 373.815C214.315 373.793 214.374 373.957 214.381 374.2C214.393 374.493 214.466 374.685 214.608 374.755C214.736 374.796 214.991 375.144 215.203 375.478C215.415 375.811 215.795 376.272 216.068 376.504C216.487 376.857 216.541 376.971 216.474 377.286C216.403 377.48 216.426 377.68 216.49 377.701C216.554 377.722 216.806 378.141 217.043 378.603C217.287 379.043 217.604 379.483 217.745 379.553C217.908 379.629 217.948 379.715 217.839 379.752C217.664 379.84 218.247 381.184 218.468 381.232C218.532 381.253 218.733 381.486 218.904 381.735C219.068 382.004 219.302 382.345 219.433 382.508C219.564 382.671 219.643 382.913 219.588 383.064C219.493 383.322 220.014 384.575 220.16 384.502C220.189 384.487 220.555 385.184 220.937 386.03C221.681 387.716 222.071 388.348 222.439 388.516C222.567 388.557 222.736 388.877 222.799 389.162C222.862 389.447 223.031 389.767 223.151 389.83L223.016 389.81Z" fill="#93E892"/>
<path d="M197.912 330.325C198.011 330.742 197.752 331.453 197.519 331.402C197.406 331.366 197.281 331.422 197.276 331.492C197.193 331.778 196.56 331.79 194.782 331.552C194.282 331.486 193.777 331.492 193.644 331.569C193.511 331.646 193.293 331.672 193.15 331.602C193.019 331.559 192.816 331.542 192.691 331.598C192.566 331.653 192.424 331.583 192.335 331.482C192.243 331.332 192.149 331.302 192.054 331.391C191.985 331.465 191.857 331.472 191.787 331.377C191.579 331.141 190.994 331.024 190.709 331.173C190.523 331.281 190.485 331.269 190.615 331.142C190.711 331.053 190.704 330.955 190.611 330.924C190.517 330.894 190.387 331.02 190.287 331.181C190.163 331.405 190.046 331.44 189.762 331.3C189.544 331.205 189.333 331.209 189.238 331.299C189.135 331.41 189.052 331.407 188.938 331.202C188.846 331.051 188.734 331.015 188.638 331.105C188.474 331.268 187.583 331.124 187.627 330.946C187.651 330.881 187.474 330.848 187.237 330.868C186.991 330.909 186.687 330.882 186.537 330.834C186.387 330.785 186.27 330.819 186.241 330.955C186.221 331.069 186.069 331.14 185.882 331.079C185.694 331.019 185.56 330.927 185.573 330.835C185.62 330.705 185.556 330.709 185.377 330.796C185.218 330.888 185.116 330.88 185.099 330.754C185.075 330.649 184.943 330.607 184.807 330.635C184.671 330.663 184.537 330.572 184.501 330.44C184.463 330.259 184.425 330.246 184.37 330.397C184.331 330.505 184.198 330.582 184.067 330.54C183.853 330.495 183.845 330.516 183.993 330.685C184.122 330.847 184.096 330.862 183.836 330.827C183.668 330.772 183.358 330.816 183.196 330.86C183.025 330.925 182.905 330.91 182.91 330.84C182.933 330.775 182.259 330.557 181.448 330.367C180.322 330.122 179.842 329.943 179.549 329.655C179.285 329.401 178.956 329.271 178.475 329.211C178.087 329.182 177.761 329.101 177.739 329.045C177.717 328.99 177.308 328.906 176.861 328.809C176.388 328.728 176.021 328.585 175.977 328.475C175.953 328.371 175.848 328.313 175.742 328.375C175.688 328.406 175.384 328.379 174.892 328.292C174.696 328.253 174.456 328.223 174.204 328.166C173.637 328.055 173.033 327.931 172.391 327.796C171.088 327.518 169.619 327.236 168.001 326.904C161.506 325.524 152.555 323.638 142.283 321.469C137.369 320.408 132.934 319.526 132.399 319.497C131.846 319.463 131.325 319.342 131.15 319.189C130.986 319.064 130.611 318.942 130.299 318.938C129.617 318.91 121.611 317.306 121.418 317.147C121.362 317.128 120.773 316.962 119.823 316.751C118.873 316.54 117.589 316.268 116.204 315.988C109.201 314.564 100.017 312.627 95.175 311.541C92.9491 311.037 90.5152 310.586 89.7747 310.491C89.0262 310.417 88.3092 310.258 88.1563 310.16C88.0704 310.108 86.4303 309.722 83.8326 309.146C81.2271 308.591 77.6797 307.804 73.8089 306.984C66.0672 305.345 57.785 303.579 55.4122 303.076C49.5324 301.847 45.0946 300.916 42.0985 300.283C41.2721 300.136 40.8471 300.095 40.786 300.147C40.7171 300.221 40.586 300.179 40.4675 300.044C40.3085 299.848 40.1803 299.855 39.7892 300.065C39.4246 300.261 39.2698 300.283 39.0842 300.102C38.9283 299.955 38.7971 299.913 38.6109 300.021C38.4247 300.129 38.3685 300.111 38.3673 299.942C38.3661 299.773 38.3099 299.755 38.1799 299.882C37.9889 300.061 37.6998 299.991 37.4816 299.728C37.4114 299.633 37.2192 299.643 37.0941 299.699C36.9611 299.776 36.7688 299.786 36.683 299.734C36.5971 299.682 36.2955 299.705 36.0343 299.789C35.4854 299.973 34.3653 299.827 34.3048 299.591C34.2909 299.514 34.1785 299.477 34.0799 299.518C33.8109 299.623 33.3751 299.555 33.505 299.428C33.5661 299.376 33.4771 299.274 33.3194 299.247C33.1694 299.199 33.0443 299.255 33.0661 299.31C33.08 299.387 32.7675 299.382 32.3316 299.313C31.738 299.217 31.5662 299.113 31.5057 298.877C31.4423 298.592 31.4422 298.592 31.3745 298.835C31.3195 298.985 31.2537 299.109 31.1896 299.112C30.1365 299.012 29.2992 298.837 29.2714 298.684C29.2466 298.579 29.1687 298.506 29.0937 298.482C29.0187 298.457 28.9685 298.537 29.0012 298.62C29.026 298.725 28.9836 298.783 28.9087 298.759C28.8337 298.735 28.7449 298.634 28.7201 298.529C28.6953 298.425 28.4783 298.331 28.2486 298.328C28.0188 298.326 27.8018 298.232 27.7801 298.177C27.7661 298.1 27.6802 298.048 27.6004 298.095C27.5285 298.119 27.3224 298.053 27.1507 297.949C26.901 297.772 26.8183 297.769 26.6943 297.994C26.5468 298.283 26.1406 298.248 26.0475 297.929C26.0148 297.846 25.7572 297.69 25.4574 297.593C24.8202 297.387 24.7313 297.286 25.0723 297.156C25.2959 297.059 25.285 297.032 25.1085 296.999C24.9961 296.962 24.7881 297.015 24.666 297.12C24.4907 297.256 24.4424 297.217 24.443 296.928C24.4466 296.688 24.3764 296.593 24.2029 296.609C24.0669 296.637 24.0186 296.598 24.0797 296.545C24.2894 296.372 24.0621 295.961 23.7356 295.88C23.5029 295.828 23.492 295.801 23.6673 295.665C23.9834 295.43 23.9853 295.31 23.6528 295.13C23.4062 295.002 23.4031 294.953 23.6268 294.857C23.8317 294.755 23.8287 294.705 23.582 294.577C23.2387 294.37 23.2641 294.185 23.6504 294.045C23.8928 293.955 23.9085 293.912 23.7791 293.75C23.6794 293.621 23.7035 293.268 23.8232 292.825C23.9586 292.339 23.967 292.028 23.8625 291.97C23.747 291.885 23.7676 291.771 23.9211 291.58C24.0402 291.426 24.0873 291.296 24.0311 291.278C23.8171 291.233 23.7814 290.354 24.0051 290.258C24.149 290.208 24.1773 290.073 24.1217 289.766C24.0135 289.201 24.2564 288.075 24.5556 287.714C24.7358 287.508 24.7564 287.394 24.6409 287.308C24.5333 287.201 24.5412 287.18 24.7038 287.136C24.8664 287.092 24.89 287.028 24.8108 286.785C24.7237 286.564 24.7316 286.543 24.8579 286.656C24.9359 286.729 25.0188 286.732 25.0502 286.646C25.1052 286.495 24.9334 286.391 24.6741 286.355C24.5804 286.325 24.5805 286.325 24.8204 285.15C24.9026 284.695 24.9818 284.191 24.9697 283.994C24.9625 283.727 25.0736 283.594 25.3317 283.461C25.5367 283.359 25.6824 283.189 25.6733 283.042C25.6642 282.894 25.7755 282.761 25.9381 282.718C26.2101 282.661 26.218 282.64 25.9792 282.49C25.6624 282.267 25.8758 281.108 26.221 281.195C26.3896 281.25 26.4131 281.185 26.34 281.041C26.2481 280.891 26.3218 280.746 26.5365 280.503C26.7353 280.302 26.8563 280.028 26.8678 279.767C26.8871 279.484 26.9609 279.339 27.0546 279.37C27.1483 279.4 27.1688 279.286 27.066 279.108C26.982 278.937 26.9324 278.728 26.9717 278.62C27.0188 278.491 27.0376 278.497 27.0841 278.656C27.1228 278.838 27.179 278.856 27.3622 278.698C27.5454 278.541 27.5314 278.464 27.3223 278.348C27.1318 278.238 27.1071 278.134 27.2371 278.007C27.3326 277.918 27.4251 277.779 27.4674 277.721C27.491 277.656 27.5333 277.597 27.5599 277.582C27.5678 277.56 27.6759 277.379 27.7545 277.163C27.8331 276.948 27.9728 276.68 28.0653 276.541C28.1577 276.403 28.2393 276.236 28.2441 276.166C28.29 275.867 28.6631 275.362 28.752 275.463C28.8705 275.597 29.386 274.873 29.3256 274.637C29.2929 274.554 29.3806 274.486 29.5118 274.528C29.6429 274.571 29.7119 274.497 29.6949 274.371C29.6593 274.239 29.7125 274.208 29.8388 274.321C29.9543 274.407 30.0638 274.394 30.0952 274.308C30.1267 274.222 30.1907 274.218 30.2686 274.292C30.3575 274.393 30.3999 274.334 30.3799 274.159C30.3648 273.913 30.4101 273.904 30.5878 274.106C30.7142 274.219 30.8375 274.283 30.8502 274.191C30.9336 273.905 31.5684 273.773 31.7758 274.009C31.991 274.223 32.5066 274.245 32.4649 274.015C32.4371 273.862 33.4805 274.103 33.5724 274.253C33.6129 274.314 33.7599 274.314 33.9086 274.193C34.0494 274.094 34.2496 274.063 34.3463 274.142C34.443 274.222 34.6461 274.239 34.8009 274.217C35.2168 274.111 36.3025 274.294 36.2475 274.445C36.1846 274.617 36.7565 274.658 37.1803 274.53C37.3695 274.471 37.8024 274.49 38.1663 274.584C38.5302 274.678 38.8428 274.683 38.8664 274.618C38.89 274.554 39.0023 274.59 39.1474 274.709C39.3143 274.884 39.4533 274.905 39.6129 274.812C39.7459 274.734 39.8662 274.749 39.891 274.854C39.9158 274.958 40.1486 275.009 40.4503 274.986C40.8535 274.972 40.9846 275.015 41.0263 275.245C41.068 275.475 41.1244 275.494 41.3638 275.354C41.5233 275.262 41.7984 275.254 42.0233 275.327C42.2294 275.394 42.47 275.424 42.5685 275.383C42.7922 275.287 43.2946 275.69 43.2348 275.912C43.1955 276.02 43.2625 276.066 43.4034 275.967C43.6615 275.833 44.8676 276.031 44.7298 276.179C44.6688 276.232 44.8621 276.391 45.1541 276.509C45.4461 276.628 45.6662 276.771 45.6427 276.836C45.6191 276.901 45.7907 277.004 46.0156 277.077C46.2405 277.15 46.509 277.333 46.593 277.505C46.7097 277.76 46.7847 277.784 46.9303 277.614C47.0682 277.466 47.1431 277.49 47.31 277.665C47.3287 277.671 47.4974 277.726 47.7598 277.811C47.8909 277.853 48.0596 277.908 48.2549 277.947C48.7204 278.049 49.2421 278.17 49.8466 278.293C53.7175 279.113 59.1535 280.295 65.6486 281.675C78.6468 284.414 95.85 288.032 113.11 291.669C130.385 295.262 147.724 298.853 160.944 301.615C167.557 302.961 173.155 304.099 177.21 304.93C178.224 305.138 179.144 305.315 179.944 305.478C180.316 305.55 180.669 305.616 181.003 305.676C181.097 305.707 181.18 305.709 181.263 305.712C181.578 305.766 181.763 305.778 181.827 305.774C182.091 305.739 182.591 305.805 182.973 305.905C183.367 306.032 183.578 306.028 183.489 305.927C183.371 305.792 183.413 305.734 183.727 305.619C183.97 305.529 184.109 305.55 184.107 305.669C184.113 305.768 184.349 305.868 184.688 305.858C185.057 305.881 185.311 305.987 185.441 306.149C185.584 306.388 185.611 306.373 185.608 306.035C185.617 305.725 185.685 305.651 185.987 305.628C186.462 305.589 186.817 305.824 186.618 306.025C186.411 306.247 186.988 306.217 187.258 305.991C187.468 305.818 187.487 305.824 187.427 306.046C187.352 306.31 187.732 306.53 187.988 306.348C188.182 306.218 188.858 306.316 188.72 306.464C188.548 306.65 188.657 306.637 189.273 306.499C189.553 306.421 190.125 306.462 190.545 306.573C190.965 306.685 191.38 306.699 191.448 306.625C191.571 306.52 191.608 306.532 191.617 306.68C191.623 306.778 191.739 306.864 191.875 306.835C192.037 306.792 192.078 306.853 191.982 306.942C191.887 307.032 191.919 307.115 192.051 307.157C192.163 307.194 192.288 307.138 192.32 307.052C192.351 306.965 192.517 306.971 192.723 307.038C192.929 307.104 193.177 307.113 193.303 307.057C193.542 306.917 193.813 307.15 193.641 307.335C193.538 307.446 194.166 307.505 194.686 307.456C194.796 307.444 194.855 307.511 194.824 307.597C194.792 307.683 194.859 307.729 194.939 307.683C195.038 307.643 195.07 307.725 195.042 307.861C194.979 308.033 195.065 308.085 195.329 308.05C195.71 307.981 196.521 308.171 196.841 308.443C196.975 308.535 197.224 308.543 197.474 308.431C197.724 308.32 197.89 308.325 197.933 308.435C197.958 308.54 198.044 308.592 198.124 308.545C198.222 308.505 198.263 308.566 198.231 308.652C198.169 308.825 198.882 308.935 199.231 308.783C199.33 308.743 199.408 308.816 199.425 308.942C199.434 309.09 199.587 309.188 199.881 309.186C200.129 309.195 200.354 309.267 200.387 309.35C200.419 309.433 200.619 309.69 200.853 309.911C201.183 310.21 201.241 310.398 201.139 310.678C201.036 310.958 201.061 311.062 201.275 311.107C201.489 311.152 201.522 311.235 201.398 311.46C201.316 311.626 201.288 311.762 201.363 311.786C201.438 311.81 201.375 311.983 201.214 312.195C201.063 312.436 200.985 312.651 201.039 312.789C201.083 312.9 201.072 313.33 201.014 313.72C200.955 314.111 200.938 314.732 200.997 315.088C201.075 315.619 201.047 315.755 200.821 315.971C200.665 316.113 200.565 316.273 200.586 316.328C200.6 316.405 200.537 316.866 200.431 317.386C200.325 317.906 200.302 318.428 200.357 318.566C200.422 318.732 200.398 318.797 200.297 318.788C200.147 318.739 199.741 320.198 199.862 320.382C199.903 320.443 199.902 320.732 199.848 321.052C199.802 321.35 199.766 321.796 199.759 321.986C199.763 322.204 199.658 322.435 199.555 322.546C199.345 322.719 198.967 324.042 199.106 324.063C199.144 324.075 198.989 324.844 198.726 325.795C198.25 327.616 198.149 328.354 198.29 328.713C198.326 328.845 198.272 329.165 198.143 329.46C198.015 329.756 197.953 330.097 197.989 330.229L197.912 330.325Z" fill="#DFF9DE"/>
<path d="M216.24 187.349C216.219 187.799 215.762 188.398 215.53 188.251C215.409 188.188 215.295 188.175 215.242 188.254C215.084 188.492 214.431 188.256 212.672 187.326C212.192 187.074 211.667 186.88 211.494 186.896C211.342 186.919 211.108 186.843 210.982 186.73C210.857 186.617 210.651 186.527 210.529 186.535C210.385 186.537 210.238 186.417 210.2 186.26C210.148 186.075 210.071 186.026 209.933 186.078C209.845 186.121 209.717 186.08 209.656 185.988C209.529 185.682 208.944 185.324 208.62 185.363C208.397 185.387 208.375 185.381 208.55 185.293C208.667 185.234 208.699 185.148 208.621 185.099C208.544 185.05 208.355 185.109 208.215 185.232C208.03 185.413 207.894 185.393 207.65 185.146C207.455 184.962 207.242 184.893 207.125 184.952C206.979 185.025 206.902 184.976 206.837 184.762C206.785 184.577 206.673 184.492 206.585 184.536C206.36 184.632 205.484 184.156 205.59 183.997C205.613 183.932 205.459 183.834 205.216 183.78C204.974 183.725 204.64 183.593 204.515 183.48C204.368 183.36 204.216 183.384 204.185 183.47C204.145 183.578 203.959 183.565 203.762 183.453C203.564 183.341 203.483 183.171 203.536 183.091C203.605 182.969 203.562 182.955 203.339 182.979C203.137 183.01 203.038 182.954 203.056 182.839C203.066 182.746 202.94 182.633 202.783 182.607C202.655 182.565 202.508 182.445 202.513 182.302C202.512 182.109 202.498 182.081 202.4 182.218C202.34 182.319 202.167 182.335 202.055 182.25C201.857 182.138 201.828 182.153 201.936 182.38C202.03 182.58 202.001 182.594 201.739 182.461C201.563 182.356 201.265 182.26 201.078 182.247C200.892 182.235 200.764 182.194 200.788 182.129C200.811 182.065 200.215 181.607 199.399 181.101C198.307 180.435 197.866 180.075 197.648 179.691C197.444 179.336 197.128 179.09 196.662 178.866C196.272 178.692 195.962 178.495 195.935 178.438C195.909 178.382 195.551 178.121 195.092 177.876C194.611 177.624 194.282 177.349 194.279 177.228C194.276 177.106 194.185 177.029 194.062 177.037C194.459 177.454 188.346 173.886 180.467 169.408C178.569 168.336 176.824 167.433 176.582 167.379C176.339 167.325 176.142 167.213 176.117 167.084C176.092 166.956 175.959 166.864 175.802 166.837C175.488 166.784 172.336 165.161 172.319 165.011C172.293 164.955 171.412 164.428 170.31 163.855C167.569 162.414 163.946 160.518 162.061 159.474C161.186 158.998 160.21 158.537 159.903 158.462C159.576 158.38 159.285 158.262 159.26 158.134C159.255 158.084 158.606 157.705 157.589 157.159C156.58 156.592 155.174 155.871 153.648 155.088C150.588 153.543 147.287 151.873 146.34 151.397C145.11 150.782 144.035 150.266 143.109 149.797C142.21 149.386 141.482 149.03 140.874 148.736C140.031 148.367 139.57 148.194 139.511 148.223C139.424 148.267 139.282 148.197 139.18 148.02C139.051 147.785 138.894 147.758 138.453 147.856C138.012 147.954 137.855 147.928 137.697 147.708C137.56 147.495 137.411 147.447 137.222 147.506C137.012 147.558 136.956 147.516 136.968 147.352C136.981 147.187 136.946 147.152 136.771 147.239C136.537 147.357 136.255 147.217 136.042 146.883C135.967 146.763 135.797 146.707 135.616 146.745C135.457 146.79 135.257 146.749 135.166 146.672C135.075 146.594 134.761 146.541 134.474 146.544C133.862 146.587 132.691 146.136 132.663 145.886C132.652 145.786 132.553 145.73 132.431 145.738C132.107 145.778 131.675 145.59 131.828 145.495C131.895 145.444 131.833 145.352 131.649 145.268C131.478 145.213 131.35 145.171 131.362 145.271C131.359 145.343 131.032 145.261 130.592 145.094C129.989 144.851 129.807 144.696 129.779 144.446C129.767 144.153 129.746 144.146 129.63 144.398C129.575 144.548 129.45 144.629 129.386 144.608C128.278 144.249 127.429 143.83 127.412 143.68C127.401 143.58 127.326 143.459 127.241 143.431C127.156 143.404 127.111 143.462 127.1 143.555C127.112 143.655 127.046 143.705 126.982 143.685C126.896 143.657 126.829 143.515 126.818 143.415C126.814 143.293 126.603 143.153 126.348 143.07C126.113 142.994 125.894 142.875 125.883 142.775C125.872 142.675 125.794 142.626 125.715 142.648C125.635 142.671 125.416 142.552 125.271 142.36C125.028 142.113 124.935 142.107 124.771 142.295C124.562 142.54 124.136 142.402 124.088 142.074C124.077 141.974 123.804 141.741 123.508 141.573C122.852 141.216 122.777 141.095 123.159 141.026C123.412 140.987 123.42 140.966 123.214 140.875C123.086 140.834 122.879 140.815 122.711 140.881C122.494 140.955 122.459 140.92 122.518 140.626C122.562 140.375 122.509 140.261 122.322 140.249C122.157 140.244 122.13 140.187 122.21 140.165C122.465 140.054 122.286 139.563 121.94 139.403C121.713 139.305 121.686 139.248 121.904 139.174C122.289 139.034 122.293 138.891 121.986 138.623C121.748 138.425 121.742 138.375 121.995 138.336C122.247 138.298 122.242 138.248 122.004 138.05C121.654 137.768 121.724 137.574 122.171 137.526C122.445 137.495 122.482 137.458 122.366 137.252C122.278 137.103 122.353 136.766 122.561 136.328C122.776 135.867 122.836 135.574 122.731 135.468C122.606 135.355 122.645 135.247 122.873 135.08C123.034 134.963 123.103 134.841 123.017 134.813C122.791 134.716 122.884 133.807 123.136 133.768C123.309 133.752 123.356 133.622 123.331 133.301C123.306 132.715 123.736 131.601 124.096 131.333C124.324 131.166 124.363 131.058 124.246 130.923C124.128 130.789 124.165 130.753 124.33 130.758C124.524 130.748 124.548 130.684 124.498 130.427C124.441 130.192 124.457 130.149 124.545 130.298C124.628 130.397 124.714 130.424 124.745 130.338C124.8 130.187 124.661 130.046 124.384 129.956C124.277 129.922 124.293 129.879 124.723 128.765C124.88 128.334 125.039 127.832 125.067 127.624C125.111 127.373 125.23 127.243 125.541 127.175C125.794 127.137 125.971 126.977 125.975 126.834C125.988 126.67 126.12 126.568 126.307 126.58C126.615 126.584 126.615 126.584 126.393 126.343C126.08 126.025 126.481 124.926 126.849 125.094C127.041 125.156 127.07 125.141 126.997 124.949C126.945 124.763 127.014 124.641 127.292 124.466C127.533 124.328 127.699 124.068 127.751 123.796C127.811 123.502 127.9 123.387 128.021 123.449C128.127 123.484 128.159 123.398 128.072 123.177C127.999 122.985 127.985 122.763 128.045 122.663C128.092 122.533 128.149 122.576 128.158 122.747C128.18 122.947 128.244 122.968 128.477 122.851C128.711 122.734 128.705 122.684 128.489 122.493C128.307 122.338 128.274 122.231 128.428 122.136C128.553 122.056 128.685 121.954 128.73 121.897C128.754 121.832 128.841 121.788 128.87 121.773C128.892 121.78 129.034 121.586 129.126 121.399C129.247 121.197 129.435 120.944 129.567 120.843C129.678 120.734 129.805 120.583 129.837 120.496C129.939 120.216 130.405 119.789 130.501 119.917C130.603 120.094 131.283 119.471 131.255 119.221C131.244 119.121 131.345 119.106 131.473 119.147C131.622 119.196 131.702 119.173 131.685 119.023C131.669 118.873 131.74 118.873 131.858 119.007C131.963 119.113 132.09 119.154 132.13 119.047C132.161 118.961 132.254 118.967 132.329 119.087C132.405 119.208 132.463 119.179 132.462 118.986C132.484 118.728 132.527 118.742 132.699 118.99C132.809 119.146 132.95 119.216 132.974 119.151C133.097 118.878 133.821 118.92 134.028 119.204C134.234 119.487 134.804 119.624 134.768 119.395C134.759 119.224 135.877 119.754 135.95 119.946C135.99 120.032 136.155 120.037 136.322 119.971C136.49 119.904 136.719 119.93 136.823 120.036C136.927 120.142 137.133 120.233 137.306 120.217C137.779 120.225 138.942 120.698 138.865 120.842C138.803 121.014 139.4 121.208 139.889 121.173C140.083 121.164 140.581 121.301 140.955 121.519C141.337 121.714 141.686 121.803 141.701 121.76C141.725 121.696 141.858 121.787 141.99 121.95C142.148 122.17 142.289 122.24 142.499 122.187C142.68 122.149 142.787 122.184 142.798 122.284C142.809 122.384 143.049 122.51 143.398 122.599C143.862 122.7 143.974 122.785 143.981 123.028C143.987 123.271 144.043 123.313 144.312 123.232C144.492 123.194 144.807 123.247 145.018 123.388C145.229 123.528 145.506 123.618 145.607 123.603C145.881 123.571 146.352 124.109 146.252 124.317C146.213 124.425 146.248 124.461 146.42 124.444C146.731 124.376 148.014 124.912 147.823 125.043C147.757 125.094 147.923 125.292 148.233 125.489C148.542 125.685 148.743 125.919 148.728 125.962C148.704 126.027 148.864 126.175 149.097 126.322C149.337 126.448 149.573 126.717 149.646 126.91C149.73 127.202 149.815 127.229 149.977 127.113C150.159 127.004 150.237 127.053 150.387 127.294C150.401 127.323 150.577 127.428 150.852 127.589C151.191 127.771 151.658 127.995 152.237 128.303C153.835 129.085 156.055 130.189 158.72 131.51C164.05 134.151 171.076 137.702 178.053 141.382C185.031 145.063 191.999 148.836 197.27 151.771C199.902 153.249 202.146 154.482 203.748 155.386C205.533 156.373 205.957 156.583 206.128 156.638C206.413 156.706 206.944 156.95 207.302 157.211C207.681 157.478 207.908 157.576 207.841 157.433C207.76 157.263 207.826 157.212 208.156 157.222C208.435 157.24 208.577 157.31 208.559 157.425C208.52 157.533 208.765 157.709 209.12 157.848C209.509 158.022 209.747 158.219 209.834 158.44C209.939 158.739 209.968 158.724 210.036 158.409C210.124 158.1 210.212 158.057 210.553 158.167C211.043 158.326 211.362 158.694 211.099 158.826C210.808 158.972 211.434 159.151 211.782 159.047C212.05 158.965 212.071 158.972 211.942 159.195C211.805 159.44 212.132 159.786 212.443 159.718C212.682 159.651 213.36 160.015 213.185 160.103C212.951 160.22 213.079 160.262 213.758 160.361C214.072 160.414 214.675 160.658 215.075 160.932C215.476 161.206 215.916 161.373 216.025 161.336C216.163 161.284 216.227 161.305 216.193 161.462C216.154 161.57 216.28 161.683 216.437 161.71C216.615 161.744 216.65 161.779 216.504 161.852C216.387 161.911 216.377 162.004 216.511 162.095C216.631 162.158 216.767 162.178 216.819 162.099C216.851 162.013 217.056 162.103 217.267 162.244C217.47 162.406 217.74 162.517 217.87 162.487C218.173 162.441 218.385 162.774 218.151 162.891C218.006 162.965 218.627 163.286 219.219 163.43C219.325 163.464 219.387 163.556 219.334 163.636C219.303 163.722 219.33 163.779 219.423 163.785C219.516 163.791 219.556 163.876 219.488 163.999C219.382 164.157 219.431 164.221 219.737 164.296C220.158 164.384 220.946 164.904 221.235 165.287C221.345 165.443 221.622 165.533 221.896 165.501C222.184 165.497 222.376 165.56 222.379 165.681C222.39 165.781 222.452 165.873 222.545 165.879C222.638 165.886 222.686 165.949 222.634 166.029C222.528 166.187 223.227 166.558 223.629 166.568C223.751 166.559 223.805 166.673 223.779 166.809C223.724 166.96 223.885 167.108 224.189 167.255C224.437 167.359 224.661 167.528 224.673 167.628C224.684 167.728 224.824 168.063 225.001 168.361C225.267 168.808 225.268 169.001 225.06 169.247C224.851 169.493 224.862 169.593 225.073 169.733C225.284 169.874 225.295 169.974 225.089 170.148C224.948 170.271 224.893 170.422 224.971 170.471C225.035 170.492 224.921 170.672 224.723 170.824C224.495 170.991 224.352 171.186 224.369 171.336C224.394 171.464 224.245 171.874 224.082 172.255C223.898 172.629 223.728 173.224 223.666 173.59C223.584 174.141 223.516 174.264 223.232 174.388C223.036 174.469 222.874 174.586 222.872 174.657C222.87 174.729 222.683 175.174 222.417 175.642C222.172 176.117 221.962 176.627 222.001 176.784C222.031 176.962 221.978 177.042 221.879 176.986C221.724 176.887 220.88 178.156 220.967 178.376C220.986 178.455 220.905 178.742 220.752 179.03C220.621 179.324 220.45 179.727 220.38 179.921C220.309 180.115 220.137 180.324 219.999 180.376C219.731 180.457 218.955 181.603 219.089 181.695C219.132 181.709 218.729 182.421 218.207 183.264C217.186 184.885 216.85 185.547 216.887 185.968C216.903 186.118 216.722 186.421 216.521 186.645C216.32 186.869 216.138 187.171 216.126 187.336L216.24 187.349Z" fill="#93E892"/>
<path d="M328.958 197.069C328.737 197.604 327.984 198.119 327.834 197.828C327.758 197.682 327.644 197.645 327.545 197.704C327.262 197.916 326.748 197.355 325.487 195.46C325.143 194.924 324.714 194.481 324.553 194.429C324.392 194.377 324.202 194.194 324.113 194.014C324.048 193.841 323.891 193.639 323.753 193.594C323.615 193.549 323.537 193.342 323.56 193.137C323.603 192.878 323.564 192.774 323.396 192.811C323.262 192.828 323.176 192.71 323.18 192.559C323.214 192.115 322.808 191.468 322.463 191.356C322.233 191.282 322.21 191.274 322.434 191.225C322.591 191.216 322.654 191.114 322.592 191.003C322.53 190.892 322.316 190.914 322.139 190.978C321.863 191.101 321.758 191.037 321.624 190.629C321.529 190.326 321.349 190.115 321.214 190.133C321.024 190.162 320.984 190.058 321.037 189.772C321.071 189.54 321.028 189.375 320.894 189.392C320.634 189.399 320.019 188.411 320.193 188.285C320.269 188.218 320.157 188.031 319.934 187.868C319.721 187.677 319.469 187.383 319.413 187.183C319.335 186.976 319.197 186.931 319.089 187.017C318.993 187.138 318.819 187.051 318.705 186.802C318.58 186.58 318.568 186.333 318.643 186.266C318.762 186.153 318.726 186.111 318.519 186.044C318.312 185.977 318.24 185.893 318.322 185.738C318.372 185.602 318.329 185.437 318.188 185.33C318.07 185.231 318.025 185.004 318.084 184.842C318.173 184.597 318.183 184.57 318.019 184.669C317.91 184.755 317.75 184.703 317.651 184.55C317.504 184.32 317.481 184.312 317.464 184.641C317.457 184.942 317.411 184.927 317.238 184.628C317.126 184.44 316.887 184.181 316.69 184.087C316.493 183.993 316.408 183.874 316.484 183.808C316.559 183.741 316.167 182.916 315.643 181.958C314.943 180.639 314.684 180.009 314.656 179.454C314.64 178.933 314.47 178.484 314.139 177.982C313.871 177.592 313.658 177.189 313.665 177.1C313.695 177.019 313.433 176.54 313.125 176.046C312.804 175.517 312.598 175.026 312.67 174.897C312.72 174.762 312.678 174.596 312.563 174.559C312.494 174.537 312.274 174.223 311.953 173.694C311.642 173.139 311.259 172.499 310.824 171.721C310.277 170.755 309.655 169.644 308.971 168.421C306.235 163.53 302.497 156.738 298.287 148.913C296.265 145.164 294.399 141.829 294.11 141.493C293.822 141.157 293.619 140.727 293.62 140.515C293.62 140.303 293.502 139.992 293.312 139.809C292.919 139.408 289.57 133.379 289.59 133.112C289.607 132.996 288.645 131.198 287.486 129.094C284.56 123.808 280.832 116.776 278.888 113.022C277.998 111.308 276.976 109.46 276.613 108.979C276.226 108.489 275.938 107.941 275.939 107.729C275.945 107.64 275.291 106.336 274.26 104.303C273.219 102.298 271.802 99.5635 270.248 96.5724C267.152 90.625 263.83 84.2403 262.878 82.415C260.508 77.8556 258.705 74.42 257.478 72.081C256.944 71.1498 256.659 70.6631 256.57 70.6951C256.469 70.6925 256.38 70.5122 256.391 70.2728C256.417 69.9175 256.309 69.7914 255.85 69.6427C255.39 69.4939 255.282 69.3679 255.286 69.0051C255.293 68.704 255.205 68.5237 254.988 68.4839C254.782 68.417 254.732 68.3405 254.848 68.1654C254.963 67.9903 254.937 67.9212 254.756 67.9234C254.474 67.923 254.31 67.5969 254.341 67.091C254.354 66.9134 254.21 66.7453 254.049 66.6933C253.888 66.6412 253.721 66.4657 253.692 66.3349C253.672 66.1769 253.423 65.9446 253.154 65.7665C252.584 65.43 251.82 64.2121 251.962 63.894C252.002 63.7854 251.973 63.6546 251.845 63.5829C251.543 63.4245 251.258 62.9378 251.471 62.9159C251.573 62.9185 251.564 62.7335 251.475 62.5532C251.364 62.3654 251.269 62.274 251.206 62.3751C251.177 62.4565 250.901 62.155 250.64 61.6758C250.266 61.0089 250.185 60.7397 250.339 60.4561C250.514 60.1183 250.524 60.0911 250.241 60.303C250.1 60.4089 249.932 60.4457 249.873 60.3962C249.15 59.2821 248.636 58.2966 248.728 58.1141C248.778 57.9785 248.781 57.8279 248.742 57.7242C248.703 57.6205 248.604 57.6796 248.542 57.7807C248.492 57.9164 248.413 57.9212 248.341 57.8372C248.292 57.7606 248.315 57.5557 248.388 57.4275C248.437 57.2918 248.366 56.9956 248.195 56.7584C248.025 56.5212 247.92 56.2446 247.983 56.1435C248.022 56.035 248.016 55.9116 247.924 55.8819C247.832 55.8521 247.751 55.583 247.702 55.2941C247.657 54.8548 247.575 54.7979 247.299 54.9209C246.957 55.0833 246.685 54.6312 246.857 54.2317C246.906 54.096 246.818 53.7035 246.651 53.3158C246.305 52.5057 246.328 52.3009 246.699 52.4816C246.941 52.5905 246.951 52.5634 246.85 52.3486C246.775 52.2029 246.598 52.0545 246.427 52.0296C246.187 51.9824 246.194 51.8935 246.418 51.6322C246.632 51.398 246.645 51.2204 246.491 51.0795C246.35 50.9731 246.357 50.8843 246.449 50.914C246.744 50.949 246.903 50.3026 246.713 49.9075C246.576 49.6506 246.605 49.5692 246.822 49.609C247.255 49.6886 247.351 49.5678 247.256 49.0519C247.191 48.6667 247.211 48.6125 247.444 48.7485C247.697 48.8303 247.697 48.8304 247.642 48.4181C247.524 47.8947 247.718 47.7148 248.125 47.9376C248.381 48.0811 248.447 48.0416 248.467 47.7751C248.49 47.5703 248.766 47.2351 249.256 46.8779C249.746 46.5207 249.98 46.2323 249.97 46.0472C249.948 45.8275 250.056 45.7413 250.325 45.7071C250.539 45.6852 250.68 45.5793 250.631 45.5027C250.494 45.2458 251.168 44.3114 251.411 44.4203C251.572 44.4724 251.703 44.3936 251.888 44.0286C252.26 43.3603 253.342 42.4363 253.835 42.3531C254.137 42.2993 254.245 42.2131 254.236 42.0279C254.236 41.8157 254.269 41.796 254.433 41.9098C254.597 42.0235 254.663 41.9841 254.781 41.6585C254.89 41.36 254.9 41.3329 254.923 41.5526C254.919 41.7032 254.992 41.7872 255.067 41.7206C255.209 41.6147 255.206 41.3407 254.999 41.0616C254.937 40.9504 254.97 40.9307 256.062 39.9796C256.473 39.6273 256.956 39.1467 257.104 38.9519C257.305 38.6832 257.505 38.6267 257.794 38.7505C258.047 38.8323 258.283 38.8179 258.399 38.6428C258.514 38.4678 258.694 38.4655 258.858 38.5793C259.117 38.7845 259.127 38.7574 259.085 38.3797C259.024 37.8441 260.093 36.8855 260.305 37.2881C260.407 37.503 260.472 37.4636 260.529 37.2391C260.618 36.9949 260.749 36.9161 261.087 36.9042C261.38 36.8775 261.721 36.7151 261.945 36.4538C262.169 36.1925 262.333 36.0941 262.408 36.2398C262.471 36.3509 262.546 36.2843 262.632 35.9784C262.721 35.7342 262.82 35.4629 262.942 35.4112C263.083 35.3053 263.086 35.367 262.994 35.5495C262.905 35.7937 262.918 35.8284 263.191 35.8559C263.44 35.876 263.493 35.802 263.431 35.4786C263.382 35.1898 263.432 35.0541 263.612 35.0519C263.77 35.0423 263.96 35.0129 264.026 34.9735C264.092 34.9341 264.181 34.9022 264.227 34.917C264.25 34.9245 264.47 34.8137 264.7 34.6759C264.93 34.538 265.272 34.3756 265.439 34.3388C265.607 34.302 265.817 34.2184 265.879 34.1173C266.126 33.8634 266.829 33.6967 266.829 33.9089C266.809 34.1754 267.778 33.9127 267.933 33.6291C267.972 33.5206 268.087 33.5577 268.162 33.7034C268.237 33.8492 268.362 33.8593 268.412 33.7236C268.481 33.5337 268.54 33.5831 268.586 33.8102C268.618 34.0028 268.713 34.0942 268.789 34.0277C268.888 33.9686 268.946 34.0181 268.933 34.1957C268.92 34.3734 268.998 34.3686 269.123 34.1664C269.291 33.9174 269.337 33.9322 269.333 34.295C269.323 34.5344 269.389 34.7073 269.464 34.6407C269.747 34.4289 270.337 34.9233 270.336 35.3478C270.336 35.7723 270.712 36.2887 270.867 36.0051C270.936 35.8151 271.588 37.0575 271.522 37.3092C271.482 37.4177 271.623 37.524 271.817 37.5564C272.001 37.6159 272.177 37.7643 272.197 37.9222C272.216 38.0802 272.341 38.3025 272.505 38.4162C272.905 38.7278 273.599 39.9234 273.458 40.0293C273.283 40.1549 273.686 40.7404 274.096 41.0248C274.283 41.146 274.611 41.5858 274.813 42.0156C275.016 42.4453 275.259 42.7665 275.334 42.6999C275.4 42.6605 275.452 42.7988 275.455 43.0728C275.461 43.4084 275.536 43.5541 275.743 43.6211C275.927 43.6806 275.989 43.7917 275.94 43.9274C275.89 44.0631 276.018 44.3471 276.257 44.6066C276.581 44.9847 276.647 45.1575 276.502 45.414C276.347 45.6976 276.373 45.7667 276.649 45.856C276.833 45.9155 277.072 46.1749 277.176 46.4515C277.281 46.7281 277.441 46.9924 277.556 47.0296C277.812 47.1731 277.88 48.0444 277.673 48.1897C277.564 48.276 277.58 48.3723 277.741 48.4243C278.063 48.5284 278.822 49.8968 278.586 49.9113C278.484 49.9086 278.513 50.2518 278.647 50.6592C278.781 51.0666 278.833 51.4171 278.757 51.4837C278.691 51.5231 278.74 51.8119 278.868 52.0959C278.995 52.3799 279.04 52.8193 278.974 53.0709C278.869 53.4311 278.908 53.5348 279.121 53.5129C279.335 53.491 279.397 53.6022 279.38 53.9304C279.36 53.9847 279.472 54.1724 279.602 54.5181C279.668 54.691 279.779 54.8787 279.893 55.1281C280.106 55.5307 280.322 55.995 280.574 56.5013C282.106 59.4849 284.262 63.6417 286.834 68.6308C292.012 78.5894 298.944 91.6949 305.987 104.776C313.031 117.857 320.186 130.913 325.722 140.805C328.494 145.738 330.845 149.927 332.547 152.936C332.969 153.679 333.365 154.354 333.702 154.978C333.938 155.388 334.148 155.729 334.344 156.036C334.554 156.377 334.688 156.572 334.747 156.621C334.983 156.819 335.35 157.362 335.543 157.819C335.772 158.318 335.929 158.521 335.93 158.309C335.94 158.069 336.028 158.037 336.353 158.203C336.609 158.347 336.717 158.473 336.622 158.593C336.559 158.695 336.677 159.006 336.919 159.327C337.198 159.69 337.329 160.036 337.276 160.322C337.216 160.697 337.239 160.704 337.482 160.389C337.726 160.073 337.828 160.076 338.09 160.343C338.483 160.743 338.581 161.321 338.288 161.348C337.94 161.387 338.429 161.878 338.836 161.889C339.141 161.897 339.154 161.931 338.904 162.124C338.645 162.343 338.775 162.901 339.116 162.951C339.379 163.005 339.844 163.702 339.621 163.751C339.351 163.785 339.437 163.904 340.034 164.309C340.325 164.495 340.738 165.053 340.99 165.56C341.242 166.066 341.566 166.444 341.691 166.454C341.872 166.452 341.898 166.521 341.793 166.669C341.72 166.797 341.763 166.963 341.881 167.061C342.045 167.175 342.038 167.264 341.88 167.274C341.746 167.291 341.683 167.392 341.781 167.545C341.856 167.691 341.994 167.735 342.07 167.669C342.146 167.602 342.3 167.743 342.404 168.02C342.509 168.296 342.712 168.514 342.873 168.566C343.172 168.663 343.207 169.129 342.938 169.163C342.78 169.173 343.209 169.828 343.671 170.25C343.766 170.342 343.773 170.465 343.674 170.524C343.598 170.591 343.615 170.687 343.697 170.744C343.811 170.781 343.762 170.917 343.644 171.03C343.459 171.183 343.476 171.279 343.735 171.484C344.099 171.754 344.599 172.705 344.664 173.302C344.687 173.522 344.913 173.747 345.179 173.863C345.477 173.96 345.612 174.155 345.539 174.283C345.49 174.419 345.519 174.55 345.611 174.579C345.703 174.609 345.709 174.733 345.61 174.792C345.426 174.944 345.927 175.683 346.308 175.837C346.423 175.874 346.442 176.032 346.337 176.18C346.222 176.355 346.29 176.589 346.52 176.876C346.713 177.121 346.841 177.405 346.778 177.506C346.739 177.614 346.728 178.066 346.74 178.525C346.772 179.142 346.683 179.386 346.354 179.583C346.049 179.788 345.999 179.923 346.137 180.18C346.274 180.437 346.234 180.546 345.958 180.669C345.771 180.76 345.643 180.9 345.669 180.969C345.695 181.038 345.511 181.191 345.245 181.287C344.923 181.395 344.706 181.568 344.646 181.73C344.587 181.893 344.281 182.31 343.916 182.677C343.574 183.052 343.097 183.656 342.869 184.068C342.517 184.682 342.398 184.795 342.06 184.807C341.847 184.829 341.646 184.885 341.584 184.986C341.554 185.068 341.136 185.509 340.663 185.962C340.189 186.416 339.752 186.911 339.705 187.109C339.626 187.326 339.551 187.392 339.511 187.289C339.4 187.101 337.98 188.249 337.95 188.543C337.92 188.624 337.699 188.947 337.443 189.228C337.163 189.501 336.811 189.903 336.653 190.125C336.495 190.347 336.232 190.505 336.052 190.507C335.746 190.499 334.454 191.507 334.542 191.687C334.579 191.729 333.845 192.402 332.934 193.138C331.159 194.626 330.514 195.267 330.349 195.79C330.29 195.953 330 196.254 329.671 196.451C329.353 196.62 329.04 196.914 328.971 197.104L328.958 197.069Z" fill="#DFF9DE"/>
<path d="M1201.33 528.857C1201.05 528.441 1201.13 527.627 1201.43 527.621C1201.58 527.617 1201.69 527.533 1201.7 527.46C1201.71 527.135 1202.45 526.968 1204.69 526.767C1205.29 526.705 1205.91 526.569 1206.06 526.44C1206.2 526.311 1206.46 526.248 1206.63 526.273C1206.8 526.297 1207.05 526.259 1207.19 526.179C1207.33 526.099 1207.52 526.127 1207.67 526.249C1207.85 526.375 1207.95 526.389 1208.04 526.253C1208.11 526.138 1208.26 526.11 1208.37 526.201C1208.69 526.397 1209.44 526.355 1209.74 526.149C1209.94 526.003 1209.97 526.006 1209.87 526.167C1209.79 526.307 1209.83 526.387 1209.93 526.377C1210.05 526.394 1210.18 526.213 1210.24 526.02C1210.3 525.755 1210.44 525.699 1210.82 525.755C1211.11 525.798 1211.37 525.759 1211.44 525.644C1211.54 525.484 1211.63 525.498 1211.83 525.651C1211.99 525.774 1212.16 525.798 1212.22 525.708C1212.38 525.505 1213.51 525.419 1213.5 525.618C1213.49 525.691 1213.71 525.698 1214 525.59C1214.26 525.503 1214.64 525.434 1214.84 525.462C1215.05 525.493 1215.17 525.409 1215.14 525.28C1215.11 525.151 1215.27 525.05 1215.55 525.039C1215.8 525.026 1216.01 525.106 1215.99 525.228C1215.96 525.375 1216.07 525.365 1216.24 525.215C1216.41 525.089 1216.54 525.058 1216.59 525.19C1216.65 525.299 1216.81 525.323 1216.98 525.247C1217.13 525.194 1217.32 525.247 1217.42 525.387C1217.54 525.554 1217.59 525.561 1217.59 525.411C1217.61 525.289 1217.73 525.181 1217.9 525.181C1218.18 525.171 1218.18 525.146 1217.93 525.01C1217.73 524.88 1217.74 524.832 1218.08 524.832C1218.31 524.815 1218.64 524.738 1218.83 524.64C1219.02 524.543 1219.18 524.515 1219.19 524.592C1219.18 524.665 1220.06 524.718 1221.12 524.747C1222.58 524.758 1223.21 524.825 1223.64 525.063C1224.06 525.273 1224.49 525.336 1225.1 525.274C1225.58 525.218 1225.99 525.229 1226.06 525.288C1226.1 525.344 1226.62 525.369 1227.22 525.331C1227.82 525.293 1228.33 525.367 1228.38 525.5C1228.43 525.608 1228.58 525.629 1228.72 525.549C1227.28 525.391 1237.95 525.262 1251.27 525.618C1254.48 525.683 1257.37 525.727 1257.7 525.675C1258.06 525.602 1258.4 525.627 1258.51 525.742C1258.62 525.833 1258.88 525.896 1259.06 525.823C1259.5 525.711 1264.72 525.792 1264.87 525.915C1264.93 525.974 1266.46 526.045 1268.28 526.109C1272.84 526.221 1278.84 526.515 1282 526.748C1283.44 526.857 1285.02 526.887 1285.5 526.831C1285.98 526.776 1286.45 526.793 1286.56 526.884C1286.6 526.916 1287.69 527.049 1289.39 527.145C1291.08 527.265 1293.4 527.452 1295.92 527.618C1300.96 527.999 1306.35 528.404 1307.91 528.531C1311.8 528.845 1314.73 529.095 1316.71 529.257C1317.74 529.331 1318.3 529.339 1318.34 529.269C1318.4 529.178 1318.6 529.206 1318.78 529.332C1319.02 529.517 1319.17 529.49 1319.61 529.228C1320.03 528.963 1320.2 528.939 1320.47 529.103C1320.7 529.26 1320.87 529.26 1321.06 529.138C1321.26 529.016 1321.33 529.027 1321.4 529.187C1321.45 529.369 1321.52 529.38 1321.64 529.223C1321.83 528.999 1322.19 529.052 1322.54 529.328C1322.65 529.419 1322.88 529.402 1323.04 529.3C1323.18 529.196 1323.41 529.154 1323.53 529.22C1323.64 529.287 1324 529.214 1324.32 529.085C1324.95 528.827 1326.36 528.856 1326.49 529.125C1326.52 529.205 1326.67 529.251 1326.78 529.167C1327.1 529.014 1327.64 529.042 1327.51 529.223C1327.45 529.29 1327.59 529.384 1327.78 529.412C1327.97 529.44 1328.13 529.388 1328.09 529.308C1328.06 529.227 1328.46 529.186 1329 529.239C1329.73 529.295 1329.99 529.382 1330.1 529.624C1330.22 529.917 1330.25 529.921 1330.29 529.652C1330.32 529.481 1330.39 529.341 1330.46 529.351C1331.78 529.342 1332.85 529.472 1332.92 529.608C1332.98 529.717 1333.09 529.807 1333.19 529.821C1333.28 529.835 1333.32 529.766 1333.29 529.661C1333.23 529.553 1333.27 529.483 1333.36 529.497C1333.46 529.511 1333.59 529.605 1333.65 529.714C1333.71 529.822 1333.99 529.913 1334.26 529.903C1334.56 529.896 1334.82 529.959 1334.86 530.039C1334.9 530.12 1335.01 530.162 1335.09 530.123C1335.17 530.085 1335.44 530.148 1335.67 530.256C1336.01 530.431 1336.11 530.421 1336.2 530.159C1336.33 529.827 1336.85 529.852 1337.02 530.177C1337.07 530.285 1337.42 530.411 1337.81 530.492C1338.63 530.636 1338.75 530.755 1338.38 530.95C1338.13 531.065 1338.13 531.09 1338.35 531.121C1338.49 531.142 1338.73 531.076 1338.87 530.971C1339.07 530.825 1339.13 530.86 1339.16 531.164C1339.19 531.443 1339.3 531.534 1339.53 531.492C1339.68 531.44 1339.78 531.478 1339.69 531.541C1339.46 531.733 1339.83 532.188 1340.25 532.223C1340.54 532.265 1340.56 532.293 1340.39 532.443C1340.04 532.719 1340.07 532.848 1340.49 533.033C1340.81 533.156 1340.83 533.208 1340.59 533.323C1340.35 533.438 1340.36 533.491 1340.69 533.613C1341.15 533.806 1341.15 534.005 1340.69 534.214C1340.42 534.326 1340.39 534.395 1340.59 534.549C1340.72 534.668 1340.78 535.052 1340.69 535.566C1340.6 536.103 1340.67 536.439 1340.81 536.509C1340.97 536.582 1340.98 536.708 1340.82 536.935C1340.69 537.116 1340.66 537.263 1340.76 537.277C1341.03 537.316 1341.24 538.273 1341 538.388C1340.84 538.465 1340.81 538.611 1340.96 538.933C1341.18 539.541 1341.12 540.809 1340.84 541.193C1340.67 541.444 1340.65 541.566 1340.81 541.64C1340.97 541.738 1340.96 541.787 1340.78 541.86C1340.57 541.929 1340.58 542.006 1340.71 542.251C1340.85 542.471 1340.84 542.52 1340.69 542.398C1340.58 542.307 1340.48 542.317 1340.46 542.439C1340.43 542.61 1340.64 542.715 1340.96 542.712C1341.08 542.73 1341.08 542.754 1341.02 544.022C1340.99 544.518 1341.02 545.098 1341.03 545.3C1341.09 545.583 1340.99 545.744 1340.71 545.904C1340.47 546.044 1340.33 546.25 1340.38 546.407C1340.43 546.564 1340.33 546.725 1340.12 546.77C1339.81 546.85 1339.81 546.875 1340.1 547.042C1340.54 547.256 1340.48 548.524 1340.04 548.485C1339.82 548.453 1339.79 548.499 1339.94 548.67C1340.06 548.838 1340.03 548.984 1339.79 549.274C1339.6 549.498 1339.5 549.833 1339.53 550.112C1339.55 550.416 1339.5 550.584 1339.38 550.566C1339.26 550.549 1339.27 550.65 1339.41 550.846C1339.53 551.013 1339.64 551.254 1339.62 551.352C1339.6 551.499 1339.55 551.492 1339.48 551.331C1339.38 551.142 1339.31 551.132 1339.14 551.306C1338.96 551.481 1338.97 551.558 1339.25 551.673C1339.51 551.761 1339.56 551.869 1339.44 552.026C1339.35 552.138 1339.25 552.298 1339.21 552.368C1339.2 552.442 1339.14 552.508 1339.11 552.529C1339.1 552.553 1339.02 552.766 1338.96 553.007C1338.92 553.252 1338.79 553.559 1338.69 553.72C1338.59 553.856 1338.53 554.072 1338.55 554.149C1338.57 554.477 1338.2 555.074 1338.07 554.956C1337.89 554.83 1337.43 555.664 1337.54 555.905C1337.57 556.01 1337.51 556.076 1337.34 556.052C1337.17 556.027 1337.11 556.118 1337.16 556.251C1337.24 556.411 1337.16 556.425 1336.98 556.324C1336.82 556.25 1336.69 556.282 1336.68 556.355C1336.66 556.453 1336.56 556.463 1336.47 556.376C1336.34 556.282 1336.31 556.327 1336.37 556.537C1336.43 556.795 1336.4 556.816 1336.14 556.627C1335.96 556.501 1335.82 556.456 1335.8 556.554C1335.75 556.871 1335.02 557.066 1334.71 556.846C1334.4 556.626 1333.8 556.664 1333.89 556.901C1333.96 557.062 1332.64 556.921 1332.5 556.726C1332.44 556.642 1332.29 556.694 1332.12 556.82C1331.97 556.949 1331.74 556.991 1331.6 556.921C1331.47 556.851 1331.22 556.84 1331.04 556.889C1330.57 557.046 1329.24 556.978 1329.25 556.804C1329.28 556.608 1328.58 556.608 1328.1 556.813C1327.89 556.883 1327.37 556.907 1326.91 556.865C1326.45 556.798 1326.07 556.819 1326.08 556.896C1326.07 556.969 1325.93 556.923 1325.73 556.794C1325.48 556.633 1325.34 556.612 1325.15 556.734C1324.98 556.835 1324.86 556.842 1324.8 556.734C1324.74 556.626 1324.45 556.584 1324.1 556.632C1323.62 556.688 1323.45 556.639 1323.34 556.422C1323.23 556.181 1323.16 556.146 1322.94 556.313C1322.77 556.415 1322.42 556.463 1322.15 556.4C1321.89 556.362 1321.59 556.344 1321.48 556.403C1321.22 556.515 1320.56 556.168 1320.57 555.921C1320.6 555.774 1320.52 555.763 1320.36 555.864C1320.06 556.046 1318.61 555.961 1318.74 555.779C1318.8 555.713 1318.52 555.573 1318.17 555.472C1317.79 555.367 1317.49 555.223 1317.5 555.174C1317.51 555.101 1317.28 555.017 1316.99 554.95C1316.7 554.908 1316.36 554.733 1316.21 554.562C1316.01 554.307 1315.93 554.296 1315.8 554.478C1315.68 554.659 1315.58 554.645 1315.34 554.46C1315.31 554.457 1315.1 554.401 1314.76 554.351C1314.59 554.327 1314.37 554.295 1314.13 554.26C1313.77 554.208 1313.38 554.176 1312.91 554.133C1310.45 553.926 1307 553.626 1302.9 553.281C1294.66 552.611 1283.72 551.95 1272.75 551.484C1261.78 551.018 1250.75 550.793 1242.33 550.773C1238.12 550.763 1234.55 550.771 1231.99 550.8C1229.04 550.823 1228.81 550.889 1228.56 550.927C1228.27 551.011 1227.64 551.07 1227.18 551.027C1226.66 551.003 1226.43 551.044 1226.57 551.114C1226.75 551.216 1226.71 551.31 1226.38 551.488C1226.11 551.624 1225.96 551.652 1225.91 551.519C1225.88 551.414 1225.56 551.368 1225.16 551.41C1224.7 551.469 1224.36 551.42 1224.19 551.27C1223.93 551.056 1223.92 551.081 1224.02 551.42C1224.11 551.734 1224.05 551.825 1223.69 551.922C1223.14 552.069 1222.65 551.897 1222.82 551.646C1222.99 551.346 1222.32 551.523 1222.07 551.837C1221.88 552.061 1221.86 552.057 1221.85 551.806C1221.85 551.505 1221.32 551.379 1221.09 551.62C1220.9 551.819 1220.08 551.85 1220.19 551.665C1220.32 551.434 1220.19 551.466 1219.51 551.741C1219.19 551.87 1218.5 551.971 1217.98 551.971C1217.46 551.97 1216.98 552.05 1216.89 552.137C1216.79 552.274 1216.72 552.263 1216.67 552.106C1216.62 551.998 1216.47 551.952 1216.32 552.004C1216.13 552.077 1216.09 552.046 1216.16 551.906C1216.23 551.791 1216.19 551.711 1216.02 551.711C1215.87 551.69 1215.76 551.798 1215.74 551.871C1215.73 551.969 1215.52 552.014 1215.26 551.976C1214.99 551.937 1214.68 552.017 1214.57 552.101C1214.33 552.317 1213.94 552.135 1214.08 551.88C1214.18 551.744 1213.43 551.81 1212.82 552.023C1212.69 552.054 1212.6 551.991 1212.62 551.918C1212.63 551.82 1212.54 551.781 1212.43 551.841C1212.35 551.904 1212.26 551.816 1212.26 551.69C1212.26 551.491 1212.17 551.453 1211.85 551.582C1211.43 551.746 1210.41 551.748 1209.93 551.552C1209.74 551.475 1209.45 551.559 1209.2 551.723C1208.95 551.911 1208.75 551.957 1208.66 551.845C1208.61 551.737 1208.49 551.719 1208.4 551.782C1208.32 551.845 1208.25 551.81 1208.25 551.684C1208.25 551.485 1207.4 551.561 1207.04 551.809C1206.93 551.868 1206.81 551.826 1206.76 551.693C1206.68 551.533 1206.47 551.477 1206.14 551.553C1205.85 551.612 1205.56 551.57 1205.48 551.483C1205.42 551.399 1205.08 551.2 1204.74 551.025C1204.26 550.78 1204.11 550.633 1204.14 550.287C1204.19 549.969 1204.11 549.858 1203.84 549.868C1203.56 549.878 1203.5 549.794 1203.57 549.529C1203.6 549.333 1203.58 549.18 1203.5 549.169C1203.43 549.159 1203.42 548.956 1203.53 548.698C1203.63 548.411 1203.62 548.16 1203.54 548.023C1203.46 547.912 1203.34 547.468 1203.26 547.031C1203.18 546.595 1202.99 545.941 1202.83 545.592C1202.57 545.054 1202.54 544.9 1202.74 544.628C1202.86 544.446 1202.92 544.254 1202.88 544.174C1202.84 544.118 1202.76 543.58 1202.7 543.021C1202.64 542.462 1202.51 541.893 1202.39 541.75C1202.26 541.606 1202.26 541.505 1202.38 541.498C1202.58 541.502 1202.57 539.874 1202.37 539.72C1202.31 539.661 1202.21 539.346 1202.17 539.015C1202.12 538.683 1202.03 538.218 1201.96 538.009C1201.9 537.799 1201.92 537.502 1202.04 537.369C1202.23 537.146 1202.25 535.648 1202.05 535.668C1202 535.661 1201.94 534.802 1201.89 533.768C1201.82 531.732 1201.7 530.939 1201.42 530.572C1201.31 530.457 1201.28 530.076 1201.33 529.758C1201.38 529.44 1201.34 529.06 1201.27 528.923L1201.33 528.857Z" fill="#93E892"/>
<path d="M1200.37 428.414C1199.83 428.637 1199.12 428.308 1199.26 427.878C1199.35 427.665 1199.33 427.487 1199.26 427.452C1198.98 427.361 1199.15 426.16 1200.51 423.154C1200.89 422.333 1201.22 421.505 1201.23 421.282C1201.25 421.058 1201.38 420.702 1201.54 420.475C1201.7 420.273 1201.85 419.945 1201.88 419.749C1201.91 419.553 1202.1 419.306 1202.29 419.208C1202.53 419.093 1202.63 418.957 1202.58 418.8C1202.55 418.67 1202.63 418.482 1202.8 418.381C1203.23 418.143 1203.82 417.302 1203.86 416.859C1203.91 416.565 1203.92 416.541 1203.98 416.75C1204.03 416.908 1204.13 416.922 1204.22 416.785C1204.32 416.674 1204.28 416.419 1204.19 416.255C1204.03 416.006 1204.11 415.842 1204.49 415.472C1204.78 415.214 1204.95 414.914 1204.93 414.76C1204.88 414.579 1204.97 414.467 1205.26 414.383C1205.49 414.317 1205.64 414.163 1205.64 414.038C1205.61 413.734 1206.54 412.641 1206.69 412.764C1206.75 412.823 1206.94 412.6 1207.09 412.296C1207.26 411.971 1207.55 411.612 1207.72 411.437C1207.92 411.266 1207.98 411.099 1207.86 411.032C1207.75 410.966 1207.84 410.753 1208.05 410.508C1208.26 410.288 1208.5 410.198 1208.58 410.261C1208.69 410.352 1208.75 410.285 1208.79 410.041C1208.83 409.796 1208.95 409.688 1209.1 409.709C1209.22 409.727 1209.39 409.601 1209.49 409.441C1209.59 409.28 1209.78 409.158 1209.95 409.182C1210.17 409.214 1210.22 409.197 1210.11 409.081C1210.03 408.994 1210.09 408.802 1210.23 408.673C1210.46 408.456 1210.44 408.428 1210.16 408.512C1209.87 408.596 1209.88 408.547 1210.17 408.264C1210.38 408.069 1210.6 407.751 1210.69 407.513C1210.78 407.3 1210.9 407.168 1210.96 407.227C1211.03 407.287 1211.8 406.648 1212.69 405.877C1213.88 404.847 1214.44 404.453 1214.93 404.324C1215.4 404.192 1215.78 403.948 1216.2 403.508C1216.53 403.155 1216.87 402.88 1216.95 402.89C1217.02 402.901 1217.42 402.559 1217.86 402.171C1218.3 401.76 1218.74 401.473 1218.86 401.515C1218.98 401.533 1219.11 401.477 1219.16 401.334C1217.64 402.44 1226.78 394.431 1238.39 384.88C1241.2 382.559 1243.7 380.469 1243.95 380.155C1244.2 379.841 1244.51 379.61 1244.68 379.586C1244.86 379.586 1245.11 379.422 1245.24 379.241C1245.53 378.832 1250.06 375.06 1250.26 375.039C1250.33 375.05 1251.7 373.947 1253.3 372.652C1257.28 369.376 1262.6 365.143 1265.43 362.976C1266.74 361.964 1268.11 360.837 1268.5 360.443C1268.86 360.045 1269.28 359.706 1269.43 359.703C1269.51 359.713 1270.5 358.956 1272.02 357.801C1273.55 356.622 1275.64 355.048 1277.91 353.3C1282.47 349.831 1287.33 346.133 1288.72 345.058C1292.22 342.413 1294.88 340.396 1296.66 339.053C1297.49 338.397 1297.89 338.03 1297.88 337.954C1297.87 337.852 1298.04 337.751 1298.24 337.73C1298.54 337.699 1298.66 337.591 1298.79 337.109C1298.92 336.627 1299.04 336.494 1299.34 336.439C1299.62 336.404 1299.76 336.299 1299.82 336.083C1299.86 335.863 1299.97 335.804 1300.1 335.898C1300.26 335.996 1300.31 335.954 1300.32 335.755C1300.32 335.479 1300.63 335.249 1301.05 335.211C1301.2 335.207 1301.35 335.054 1301.41 334.862C1301.44 334.69 1301.59 334.512 1301.72 334.457C1301.85 334.425 1302.07 334.132 1302.22 333.828C1302.52 333.221 1303.61 332.279 1303.87 332.391C1303.97 332.405 1304.07 332.345 1304.14 332.23C1304.27 331.898 1304.72 331.563 1304.71 331.762C1304.7 331.86 1304.88 331.836 1305.04 331.71C1305.21 331.585 1305.28 331.469 1305.21 331.434C1305.14 331.424 1305.41 331.113 1305.84 330.775C1306.44 330.311 1306.68 330.196 1306.93 330.308C1307.24 330.427 1307.24 330.427 1307.07 330.203C1306.97 330.063 1306.95 329.909 1307.01 329.868C1307.99 328.985 1308.86 328.36 1309.03 328.409C1309.14 328.451 1309.27 328.444 1309.35 328.381C1309.44 328.319 1309.43 328.242 1309.31 328.2C1309.19 328.158 1309.18 328.081 1309.26 328.018C1309.35 327.955 1309.5 327.952 1309.62 327.994C1309.73 328.036 1310 327.9 1310.21 327.704C1310.41 327.509 1310.66 327.369 1310.75 327.408C1310.85 327.422 1310.95 327.387 1310.99 327.317C1311.01 327.22 1311.27 327.108 1311.51 327.017C1311.9 326.923 1311.94 326.829 1311.85 326.567C1311.73 326.249 1312.11 325.904 1312.49 326.033C1312.61 326.051 1312.95 325.925 1313.3 325.726C1314.02 325.28 1314.2 325.28 1314.03 325.657C1313.92 325.915 1313.94 325.919 1314.14 325.797C1314.27 325.717 1314.38 325.507 1314.41 325.336C1314.45 325.092 1314.53 325.078 1314.76 325.287C1314.96 325.466 1315.13 325.466 1315.24 325.281C1315.33 325.145 1315.41 325.106 1315.39 325.228C1315.34 325.522 1315.93 325.606 1316.26 325.355C1316.49 325.187 1316.56 325.198 1316.52 325.442C1316.45 325.882 1316.56 325.949 1316.99 325.785C1317.3 325.656 1317.35 325.687 1317.26 325.925C1317.17 326.187 1317.22 326.194 1317.53 326.065C1318.01 325.884 1318.16 326.03 1317.93 326.498C1317.81 326.781 1317.83 326.833 1318.08 326.82C1318.25 326.82 1318.56 327.065 1318.84 327.48C1319.14 327.9 1319.4 328.137 1319.56 328.085C1319.74 328.036 1319.82 328.124 1319.85 328.403C1319.87 328.606 1319.95 328.742 1320.03 328.679C1320.26 328.512 1321.05 329.078 1320.94 329.312C1320.87 329.476 1320.95 329.588 1321.27 329.735C1321.84 330.018 1322.65 330.986 1322.69 331.468C1322.72 331.748 1322.8 331.86 1322.99 331.811C1323.17 331.762 1323.21 331.818 1323.11 331.979C1323 332.164 1323.07 332.223 1323.33 332.286C1323.59 332.349 1323.61 332.377 1323.41 332.398C1323.26 332.401 1323.2 332.492 1323.26 332.576C1323.36 332.716 1323.59 332.65 1323.82 332.433C1323.91 332.346 1323.93 332.374 1324.77 333.346C1325.08 333.716 1325.48 334.125 1325.63 334.247C1325.86 334.405 1325.9 334.611 1325.8 334.922C1325.7 335.184 1325.72 335.411 1325.87 335.508C1326.01 335.603 1326.03 335.781 1325.92 335.966C1325.75 336.242 1325.75 336.266 1326.09 336.165C1326.56 336.033 1327.37 336.977 1327 337.249C1326.83 337.374 1326.85 337.427 1327.04 337.455C1327.26 337.486 1327.31 337.619 1327.33 337.972C1327.33 338.272 1327.48 338.569 1327.7 338.751C1327.93 338.961 1327.99 339.094 1327.87 339.177C1327.76 339.261 1327.85 339.324 1328.09 339.359C1328.31 339.391 1328.54 339.499 1328.6 339.583C1328.68 339.695 1328.63 339.712 1328.46 339.663C1328.25 339.583 1328.22 339.628 1328.18 339.897C1328.13 340.166 1328.23 340.205 1328.52 340.096C1328.75 340.006 1328.87 340.048 1328.89 340.226C1328.89 340.376 1328.94 340.558 1328.95 340.635C1328.99 340.715 1329 340.792 1328.99 340.816C1328.99 340.841 1329.08 341.054 1329.19 341.271C1329.3 341.487 1329.43 341.781 1329.47 341.962C1329.5 342.14 1329.59 342.329 1329.65 342.389C1329.86 342.619 1330 343.29 1329.82 343.314C1329.6 343.332 1329.82 344.264 1330.05 344.373C1330.14 344.411 1330.12 344.509 1330.01 344.617C1329.87 344.722 1329.87 344.823 1329.99 344.89C1330.12 344.96 1330.12 345.008 1329.91 345.054C1329.75 345.106 1329.66 345.193 1329.7 345.274C1329.76 345.358 1329.68 345.42 1329.58 345.431C1329.4 345.431 1329.42 345.507 1329.59 345.633C1329.82 345.791 1329.79 345.812 1329.46 345.864C1329.25 345.885 1329.09 345.961 1329.15 346.045C1329.34 346.297 1328.91 346.936 1328.53 347.005C1328.15 347.05 1327.7 347.511 1327.93 347.595C1328.1 347.668 1327 348.436 1326.79 348.404C1326.69 348.39 1326.59 348.527 1326.56 348.722C1326.53 348.918 1326.38 349.096 1326.24 349.152C1326.09 349.179 1325.89 349.35 1325.81 349.514C1325.54 349.951 1324.49 350.799 1324.39 350.659C1324.29 350.495 1323.77 350.969 1323.52 351.434C1323.41 351.619 1323.03 352.013 1322.64 352.282C1322.25 352.551 1321.98 352.812 1322.02 352.868C1322.06 352.924 1321.92 353.004 1321.69 353.046C1321.39 353.077 1321.27 353.185 1321.21 353.402C1321.18 353.598 1321.07 353.681 1320.95 353.639C1320.84 353.597 1320.61 353.765 1320.34 354.051C1320.01 354.428 1319.87 354.508 1319.64 354.4C1319.41 354.291 1319.33 354.33 1319.26 354.619C1319.22 354.815 1318.98 355.08 1318.74 355.22C1318.49 355.359 1318.26 355.551 1318.22 355.67C1318.1 355.928 1317.35 356.12 1317.21 355.924C1317.13 355.812 1317.07 355.854 1317.02 356.022C1316.92 356.357 1315.75 357.289 1315.74 357.062C1315.75 356.964 1315.45 357.02 1315.09 357.219C1314.74 357.393 1314.43 357.497 1314.39 357.442C1314.35 357.386 1314.11 357.476 1313.86 357.616C1313.61 357.78 1313.23 357.874 1313.01 357.842C1312.69 357.797 1312.61 357.835 1312.63 358.062C1312.64 358.265 1312.58 358.355 1312.25 358.383C1312.2 358.376 1312.03 358.502 1311.76 358.686C1311.37 358.955 1310.83 359.353 1310.15 359.855C1307.9 361.53 1304.74 363.899 1300.98 366.733C1293.48 372.427 1283.61 380.08 1273.88 387.952C1264.13 395.797 1254.47 403.83 1247.18 410.055C1243.55 413.182 1240.49 415.841 1238.27 417.747C1235.7 420.001 1235.66 420.096 1235.5 420.298C1235.33 420.574 1234.89 421.01 1234.5 421.303C1234.07 421.617 1233.92 421.795 1234.07 421.767C1234.28 421.722 1234.31 421.803 1234.18 422.159C1234.06 422.442 1233.94 422.55 1233.86 422.487C1233.77 422.424 1233.49 422.609 1233.22 422.919C1232.91 423.251 1232.61 423.457 1232.36 423.446C1232.04 423.449 1232.04 423.474 1232.33 423.666C1232.62 423.834 1232.62 423.96 1232.4 424.253C1232.08 424.707 1231.63 424.892 1231.58 424.609C1231.53 424.277 1231.12 424.842 1231.15 425.223C1231.18 425.527 1231.16 425.523 1230.97 425.321C1230.76 425.09 1230.32 425.327 1230.29 425.649C1230.28 425.897 1229.77 426.448 1229.7 426.238C1229.64 425.98 1229.55 426.092 1229.3 426.706C1229.18 426.989 1228.81 427.46 1228.46 427.76C1228.14 428.04 1227.89 428.378 1227.89 428.504C1227.92 428.658 1227.86 428.699 1227.75 428.633C1227.64 428.567 1227.52 428.65 1227.48 428.769C1227.43 428.937 1227.38 428.93 1227.33 428.797C1227.27 428.664 1227.2 428.654 1227.09 428.737C1227 428.825 1226.98 428.947 1227.04 429.006C1227.11 429.066 1227.01 429.226 1226.84 429.352C1226.67 429.477 1226.56 429.687 1226.57 429.813C1226.57 430.089 1226.26 430.169 1226.15 429.928C1226.07 429.791 1225.75 430.245 1225.6 430.699C1225.59 430.797 1225.49 430.807 1225.42 430.748C1225.36 430.688 1225.28 430.727 1225.29 430.804C1225.27 430.901 1225.2 430.891 1225.1 430.776C1224.95 430.629 1224.87 430.667 1224.83 430.912C1224.75 431.25 1224.29 431.735 1223.95 431.861C1223.82 431.917 1223.76 432.109 1223.8 432.315C1223.84 432.545 1223.82 432.668 1223.7 432.626C1223.61 432.612 1223.53 432.626 1223.54 432.702C1223.55 432.779 1223.5 432.797 1223.41 432.734C1223.26 432.611 1223.04 433.055 1223.12 433.341C1223.13 433.418 1223.05 433.457 1222.93 433.415C1222.76 433.365 1222.68 433.428 1222.62 433.62C1222.6 433.767 1222.48 433.9 1222.38 433.886C1222.29 433.872 1222.03 433.91 1221.79 434C1221.46 434.102 1221.28 434.101 1220.99 433.933C1220.72 433.769 1220.59 433.776 1220.55 433.895C1220.5 434.038 1220.4 434.024 1220.18 433.891C1220.02 433.793 1219.85 433.744 1219.85 433.768C1219.84 433.817 1219.63 433.737 1219.44 433.559C1219.2 433.373 1218.99 433.268 1218.84 433.272C1218.72 433.254 1218.29 433.191 1217.87 433.03C1217.44 432.893 1216.82 432.753 1216.43 432.746C1215.86 432.714 1215.7 432.665 1215.51 432.438C1215.39 432.295 1215.23 432.172 1215.16 432.162C1215.09 432.151 1214.59 432.029 1214.05 431.85C1213.51 431.672 1212.95 431.566 1212.8 431.619C1212.61 431.667 1212.52 431.629 1212.56 431.535C1212.61 431.367 1211.13 430.776 1210.93 430.898C1210.85 430.936 1210.53 430.915 1210.2 430.841C1209.86 430.768 1209.4 430.701 1209.18 430.694C1208.96 430.662 1208.71 430.55 1208.61 430.411C1208.48 430.141 1207.11 429.592 1207.03 429.781C1207.02 429.83 1206.19 429.609 1205.21 429.266C1203.28 428.611 1202.48 428.495 1202.02 428.729C1201.86 428.806 1201.5 428.753 1201.23 428.589C1200.96 428.424 1200.58 428.319 1200.42 428.396L1200.37 428.414Z" fill="#DFF9DE"/>
<path d="M1182.61 303.677C1182.11 303.68 1181.5 303.166 1181.67 302.914C1181.76 302.803 1181.76 302.653 1181.69 302.593C1181.42 302.429 1181.74 301.699 1182.9 299.765C1183.21 299.234 1183.45 298.644 1183.46 298.47C1183.44 298.291 1183.53 298.029 1183.65 297.897C1183.77 297.764 1183.88 297.53 1183.88 297.38C1183.91 297.233 1184.03 297.076 1184.19 297.024C1184.4 296.954 1184.46 296.864 1184.41 296.731C1184.35 296.623 1184.45 296.486 1184.56 296.427C1184.91 296.277 1185.33 295.638 1185.32 295.285C1185.31 295.034 1185.34 295.013 1185.41 295.198C1185.46 295.331 1185.55 295.369 1185.62 295.254C1185.68 295.164 1185.64 294.957 1185.49 294.811C1185.3 294.608 1185.35 294.465 1185.62 294.179C1185.83 293.983 1185.94 293.725 1185.89 293.592C1185.82 293.431 1185.88 293.34 1186.12 293.274C1186.32 293.229 1186.42 293.093 1186.39 292.988C1186.3 292.75 1186.9 291.787 1187.06 291.885C1187.13 291.92 1187.26 291.738 1187.33 291.473C1187.4 291.207 1187.58 290.858 1187.7 290.701C1187.83 290.544 1187.85 290.398 1187.74 290.331C1187.62 290.289 1187.63 290.09 1187.78 289.887C1187.92 289.682 1188.11 289.559 1188.2 289.622C1188.31 289.689 1188.34 289.643 1188.33 289.416C1188.32 289.214 1188.38 289.099 1188.51 289.092C1188.63 289.109 1188.75 288.977 1188.78 288.806C1188.81 288.634 1188.98 288.509 1189.15 288.509C1189.37 288.516 1189.4 288.471 1189.27 288.401C1189.18 288.338 1189.16 288.16 1189.25 288.023C1189.41 287.797 1189.39 287.793 1189.13 287.88C1188.89 287.971 1188.89 287.946 1189.06 287.671C1189.19 287.489 1189.32 287.157 1189.33 286.934C1189.37 286.714 1189.44 286.574 1189.48 286.63C1189.55 286.665 1190.1 285.995 1190.72 285.108C1191.56 283.928 1191.98 283.439 1192.42 283.178C1192.83 282.962 1193.13 282.63 1193.42 282.096C1193.66 281.68 1193.89 281.314 1193.97 281.3C1194.05 281.286 1194.36 280.881 1194.66 280.375C1195 279.848 1195.33 279.495 1195.45 279.488C1195.57 279.506 1195.7 279.373 1195.69 279.247C1195.7 279.174 1195.88 278.849 1196.19 278.319C1196.62 277.68 1197.21 276.765 1197.94 275.645C1199.53 273.348 1201.71 270.185 1204.21 266.544C1205.41 264.816 1206.46 263.217 1206.5 262.997C1206.54 262.752 1206.69 262.574 1206.84 262.571C1206.96 262.564 1207.08 262.431 1207.1 262.309C1207.15 262.016 1209.04 259.136 1209.18 259.132C1209.26 259.143 1209.84 258.301 1210.5 257.32C1212.15 254.807 1214.38 251.578 1215.6 249.878C1216.17 249.11 1216.72 248.212 1216.81 247.926C1216.91 247.615 1217.08 247.364 1217.21 247.333C1217.25 247.34 1217.7 246.753 1218.34 245.845C1218.98 244.938 1219.86 243.688 1220.82 242.327C1222.71 239.597 1224.75 236.664 1225.33 235.847C1226.79 233.683 1227.9 232.067 1228.65 230.95C1229.22 230.08 1229.49 229.595 1229.46 229.515C1229.42 229.41 1229.52 229.274 1229.73 229.179C1230.03 229.047 1230.08 228.904 1230.06 228.401C1230.04 227.922 1230.1 227.73 1230.39 227.598C1230.64 227.458 1230.73 227.322 1230.72 227.095C1230.71 226.868 1230.77 226.802 1230.94 226.826C1231.13 226.854 1231.16 226.809 1231.09 226.624C1231.01 226.362 1231.21 226.065 1231.61 225.873C1231.75 225.817 1231.85 225.608 1231.83 225.43C1231.81 225.252 1231.9 225.039 1232.01 224.955C1232.12 224.871 1232.25 224.539 1232.28 224.218C1232.39 223.558 1233.09 222.308 1233.36 222.322C1233.45 222.336 1233.55 222.225 1233.55 222.075C1233.55 221.725 1233.85 221.268 1233.94 221.457C1233.98 221.537 1234.11 221.481 1234.22 221.296C1234.35 221.115 1234.37 220.968 1234.27 220.978C1234.2 220.968 1234.33 220.612 1234.63 220.154C1235.03 219.512 1235.23 219.341 1235.5 219.355C1235.82 219.376 1235.82 219.376 1235.6 219.195C1235.47 219.1 1235.39 218.964 1235.43 218.894C1236.06 217.735 1236.68 216.848 1236.85 216.873C1236.97 216.89 1237.11 216.81 1237.14 216.74C1237.21 216.65 1237.17 216.594 1237.05 216.576C1236.92 216.558 1236.88 216.503 1236.95 216.412C1237.01 216.321 1237.15 216.265 1237.27 216.283C1237.39 216.3 1237.6 216.08 1237.74 215.826C1237.85 215.567 1238.06 215.347 1238.14 215.358C1238.23 215.372 1238.32 215.285 1238.31 215.183C1238.33 215.086 1238.51 214.887 1238.71 214.74C1239.02 214.51 1239.06 214.416 1238.87 214.213C1238.64 213.954 1238.88 213.514 1239.28 213.497C1239.4 213.515 1239.7 213.232 1239.94 212.942C1240.47 212.293 1240.63 212.216 1240.61 212.639C1240.59 212.911 1240.62 212.915 1240.75 212.733C1240.84 212.597 1240.88 212.377 1240.83 212.195C1240.8 211.965 1240.88 211.927 1241.16 212.018C1241.42 212.105 1241.55 212.074 1241.61 211.857C1241.63 211.686 1241.72 211.648 1241.72 211.749C1241.78 212.032 1242.34 211.914 1242.59 211.575C1242.76 211.324 1242.81 211.331 1242.84 211.561C1242.92 211.998 1243.04 212.04 1243.41 211.719C1243.67 211.482 1243.72 211.489 1243.73 211.764C1243.73 212.04 1243.78 212.047 1244.04 211.81C1244.42 211.489 1244.6 211.566 1244.57 212.062C1244.52 212.355 1244.59 212.415 1244.8 212.321C1244.96 212.244 1245.33 212.398 1245.76 212.685C1246.18 212.996 1246.51 213.094 1246.64 213.014C1246.79 212.909 1246.9 212.951 1247.03 213.22C1247.12 213.409 1247.23 213.5 1247.29 213.433C1247.45 213.206 1248.41 213.445 1248.39 213.717C1248.36 213.888 1248.49 213.982 1248.83 214.007C1249.47 214.074 1250.55 214.707 1250.76 215.137C1250.88 215.406 1251 215.448 1251.14 215.368C1251.3 215.266 1251.35 215.298 1251.29 215.49C1251.26 215.686 1251.3 215.741 1251.6 215.71C1251.88 215.676 1251.9 215.703 1251.74 215.78C1251.61 215.836 1251.57 215.93 1251.66 215.993C1251.79 216.088 1251.99 215.941 1252.16 215.665C1252.22 215.574 1252.24 215.578 1253.33 216.211C1253.76 216.449 1254.27 216.697 1254.48 216.753C1254.74 216.841 1254.86 216.984 1254.85 217.333C1254.86 217.609 1254.97 217.826 1255.14 217.85C1255.31 217.875 1255.38 218.06 1255.35 218.256C1255.3 218.574 1255.3 218.574 1255.57 218.389C1255.97 218.096 1257.06 218.704 1256.8 219.092C1256.67 219.273 1256.71 219.329 1256.91 219.284C1257.12 219.239 1257.23 219.329 1257.37 219.675C1257.47 219.941 1257.71 220.175 1257.99 220.291C1258.27 220.406 1258.39 220.525 1258.3 220.637C1258.23 220.752 1258.33 220.79 1258.56 220.724C1258.77 220.679 1259.01 220.714 1259.12 220.78C1259.23 220.871 1259.2 220.892 1259.03 220.892C1258.81 220.885 1258.77 220.955 1258.86 221.192C1258.91 221.451 1259.01 221.465 1259.24 221.248C1259.44 221.077 1259.57 221.071 1259.64 221.256C1259.69 221.389 1259.79 221.553 1259.83 221.609C1259.87 221.665 1259.93 221.724 1259.92 221.773C1259.92 221.797 1260.09 221.972 1260.26 222.122C1260.46 222.276 1260.67 222.531 1260.77 222.671C1260.87 222.811 1260.99 222.954 1261.09 222.993C1261.36 223.133 1261.74 223.713 1261.55 223.786C1261.34 223.88 1261.85 224.68 1262.12 224.694C1262.22 224.709 1262.23 224.81 1262.15 224.949C1262.06 225.086 1262.09 225.19 1262.24 225.212C1262.41 225.236 1262.4 225.285 1262.2 225.407C1262.06 225.512 1262.02 225.63 1262.08 225.69C1262.17 225.753 1262.13 225.847 1262 225.903C1261.84 225.98 1261.88 226.036 1262.1 226.067C1262.36 226.106 1262.35 226.179 1262.05 226.336C1261.86 226.434 1261.74 226.566 1261.81 226.601C1262.05 226.787 1261.88 227.537 1261.55 227.715C1261.23 227.893 1260.96 228.48 1261.2 228.49C1261.37 228.515 1260.6 229.604 1260.4 229.649C1260.29 229.66 1260.24 229.827 1260.28 230.034C1260.33 230.215 1260.24 230.453 1260.1 230.533C1259.97 230.613 1259.83 230.844 1259.8 231.015C1259.72 231.528 1258.98 232.673 1258.83 232.575C1258.67 232.477 1258.32 233.078 1258.26 233.595C1258.23 233.815 1258 234.307 1257.71 234.691C1257.43 235.075 1257.27 235.428 1257.34 235.463C1257.41 235.498 1257.31 235.634 1257.1 235.728C1256.83 235.864 1256.73 236 1256.74 236.227C1256.76 236.405 1256.69 236.545 1256.57 236.527C1256.45 236.51 1256.29 236.761 1256.13 237.114C1255.93 237.585 1255.81 237.693 1255.57 237.683C1255.3 237.644 1255.24 237.71 1255.26 238.014C1255.28 238.217 1255.15 238.549 1254.97 238.748C1254.79 238.946 1254.64 239.226 1254.62 239.348C1254.6 239.645 1253.94 240.074 1253.73 239.945C1253.62 239.878 1253.56 239.92 1253.59 240.098C1253.6 240.451 1252.8 241.736 1252.69 241.495C1252.65 241.414 1252.4 241.578 1252.13 241.864C1251.86 242.151 1251.58 242.36 1251.54 242.304C1251.47 242.269 1251.27 242.416 1251.09 242.664C1250.9 242.887 1250.57 243.114 1250.36 243.159C1250.03 243.211 1249.99 243.281 1250.08 243.494C1250.18 243.683 1250.11 243.773 1249.82 243.906C1249.7 243.99 1249.36 244.44 1248.49 245.69C1247.54 247.055 1246.22 248.964 1244.63 251.237C1241.5 255.814 1237.34 261.891 1233.2 267.973C1229.08 274.082 1224.93 280.212 1221.79 284.887C1220.24 287.24 1218.93 289.226 1217.97 290.664C1216.96 292.194 1216.64 292.773 1216.56 292.937C1216.46 293.248 1216.15 293.803 1215.84 294.184C1215.52 294.589 1215.41 294.822 1215.55 294.742C1215.74 294.645 1215.8 294.728 1215.74 295.095C1215.69 295.388 1215.61 295.553 1215.5 295.511C1215.38 295.493 1215.19 295.716 1214.98 296.087C1214.77 296.505 1214.53 296.746 1214.29 296.837C1213.98 296.941 1213.97 296.966 1214.33 297.067C1214.66 297.166 1214.69 297.27 1214.56 297.626C1214.35 298.147 1213.92 298.485 1213.82 298.22C1213.67 297.898 1213.44 298.565 1213.55 298.956C1213.62 299.243 1213.62 299.267 1213.4 299.11C1213.15 298.949 1212.75 299.316 1212.79 299.647C1212.85 299.906 1212.4 300.643 1212.32 300.43C1212.21 300.188 1212.13 300.328 1211.99 301.034C1211.94 301.376 1211.61 302.004 1211.29 302.434C1210.98 302.863 1210.75 303.331 1210.78 303.436C1210.83 303.593 1210.8 303.663 1210.63 303.614C1210.51 303.596 1210.37 303.701 1210.34 303.872C1210.31 304.067 1210.23 304.081 1210.18 303.949C1210.13 303.816 1210.03 303.826 1209.93 303.962C1209.83 304.099 1209.84 304.224 1209.9 304.284C1209.97 304.343 1209.89 304.532 1209.7 304.755C1209.52 304.954 1209.4 305.261 1209.4 305.412C1209.42 305.715 1209.06 305.963 1208.93 305.694C1208.86 305.533 1208.47 306.204 1208.27 306.825C1208.25 306.947 1208.14 307.007 1208.06 306.944C1207.97 306.881 1207.91 306.923 1207.89 307.045C1207.87 307.167 1207.77 307.178 1207.66 307.111C1207.48 306.985 1207.41 307.076 1207.32 307.362C1207.19 307.82 1206.59 308.658 1206.14 308.944C1205.98 309.045 1205.85 309.352 1205.85 309.653C1205.85 309.977 1205.77 310.166 1205.62 310.169C1205.5 310.152 1205.41 310.239 1205.39 310.361C1205.38 310.459 1205.32 310.501 1205.23 310.438C1205.08 310.316 1204.61 311.073 1204.59 311.496C1204.57 311.618 1204.45 311.702 1204.31 311.656C1204.14 311.632 1203.97 311.757 1203.82 312.086C1203.68 312.365 1203.49 312.588 1203.39 312.599C1203.29 312.585 1202.92 312.755 1202.57 312.954C1202.07 313.233 1201.87 313.254 1201.61 313.041C1201.37 312.831 1201.25 312.838 1201.09 313.065C1200.92 313.292 1200.82 313.302 1200.63 313.1C1200.51 312.956 1200.35 312.883 1200.31 312.953C1200.25 313.019 1200.09 312.921 1199.94 312.673C1199.75 312.421 1199.56 312.267 1199.4 312.295C1199.25 312.299 1198.83 312.162 1198.44 311.98C1198.05 311.798 1197.41 311.606 1197.02 311.55C1196.42 311.462 1196.31 311.395 1196.18 311.077C1196.12 310.868 1196 310.7 1195.92 310.714C1195.85 310.703 1195.37 310.483 1194.89 310.214C1194.39 309.941 1193.85 309.738 1193.67 309.762C1193.47 309.783 1193.41 309.724 1193.47 309.633C1193.6 309.476 1192.26 308.581 1192.02 308.647C1191.94 308.685 1191.61 308.587 1191.32 308.419C1191.02 308.276 1190.58 308.087 1190.37 308.031C1190.15 307.975 1189.94 307.769 1189.89 307.611C1189.81 307.325 1188.61 306.5 1188.51 306.66C1188.5 306.709 1187.73 306.272 1186.86 305.72C1185.15 304.646 1184.44 304.293 1183.99 304.327C1183.83 304.355 1183.52 304.184 1183.28 303.95C1183.05 303.715 1182.73 303.544 1182.55 303.544L1182.61 303.677Z" fill="#93E892"/>
</svg>
