<svg width="1512" height="915" viewBox="0 0 1512 449" fill="none" xmlns="http://www.w3.org/2000/svg">
<path d="M-16.9063 395.711C40.2565 381.827 99.415 366.995 147.136 330.849C167.163 315.682 184.878 297.112 197.318 275.174C208.765 254.978 219.763 225.207 201.626 205.388C194.918 198.055 184.737 193.097 174.662 194.644C163.048 196.429 155.892 206.364 150.186 215.711C136.304 238.439 125.201 265.661 128.374 292.795C131.144 316.482 145.896 336.08 166.556 347.466C190.162 360.47 217.574 361.684 243.562 356.364C299.036 345.004 352.085 311.4 392.297 272.361C431.394 234.404 466.824 177.516 527.723 176.769C555.724 176.426 580.613 192.419 588.657 219.808C596.271 245.755 585.352 272.765 562.072 286.455C541.218 298.721 500.865 300.092 498.816 268.105C497.005 239.934 520.69 222.639 545.288 216.318C559.206 212.739 573.58 211.561 587.787 209.714C602.53 207.806 617.151 205.133 631.613 201.696C661.961 194.477 691.501 184.181 720.32 172.302C734.615 166.411 748.761 160.151 762.783 153.645C775.689 147.666 789.36 142.153 801.317 134.371C819.155 122.765 826.918 103.73 816.895 84.0432C808.491 67.5397 789.633 55.3884 770.819 59.4594C752.005 63.5303 739.037 81.722 736.03 100.186C732.795 120.013 740.76 138.653 756.532 150.893C773.368 163.949 795.338 167.686 815.902 170.438C840.729 173.762 865.759 175.582 889.004 185.72C914.165 196.693 935.836 214.322 954.325 234.404C995.698 279.36 1019.83 336.476 1054.36 386.294C1069.89 408.715 1087.56 430.819 1113.45 441.493C1137.53 451.42 1164.91 450.805 1189.67 443.718C1243.03 428.436 1279.84 383.524 1311.08 340.318C1346.24 291.669 1379.67 240.725 1400.3 183.996C1417.58 136.508 1430.46 72.6569 1394.6 30.0748C1380.67 13.5362 1359.98 2.00919 1338.31 0.215522C1328.2 -0.619765 1317.91 0.962885 1308.65 5.13932C1305.44 6.59008 1301.74 7.73311 1300.75 11.2765C1299.61 15.3562 1301.51 21.4054 1303.12 25.0983C1311.16 43.5449 1334.74 51.3703 1352.8 55.1862C1385.26 62.0356 1418.18 67.1704 1450.81 73.1229C1465.39 75.787 1481.07 77.1411 1495.17 81.7396C1504.91 84.9136 1524.28 94.6997 1516.63 107.546C1514.45 111.203 1520.16 114.518 1522.33 110.878C1531.56 95.3767 1514.9 82.7155 1501.98 77.273C1490.68 72.5162 1478 71.4084 1466.03 69.219L1424.16 61.5784C1398.54 56.9007 1371.92 53.8234 1346.78 46.9476C1329.61 42.2524 1306.44 32.484 1307.36 11.2853L1305.72 14.134C1324.41 3.11705 1346.94 5.20966 1365.64 15.1364C1385.85 25.8632 1399.56 44.0637 1405.94 65.8867C1420.5 115.696 1400.79 171.555 1379.63 216.52C1357.53 263.472 1327.96 306.933 1296.99 348.434C1267.31 388.22 1231.06 427.592 1180.8 439.207C1156.81 444.747 1130.49 443.604 1108.44 431.918C1084.94 419.459 1068.9 396.476 1054.55 374.829C1025.89 331.587 1003.77 284.002 970.932 243.565C942.843 208.976 906.262 179.371 861.706 170.298C842.074 166.297 821.977 165.312 802.284 161.725C782.969 158.208 762.686 151.886 750.431 135.462C738.176 119.037 739.371 97.4781 750.282 81.5285C762.256 64.0139 784.551 60.1891 800.877 74.2483C818.047 89.0373 819.928 112.768 800.877 126.74C791.101 133.905 779.382 138.609 768.48 143.753C756.04 149.618 743.53 155.333 730.896 160.767C679.887 182.721 627.982 198.135 572.832 204.966C551.645 207.587 528.752 211.016 511.617 224.881C498.456 235.529 490.394 253.87 492.477 270.805C494.79 289.629 510.157 300.092 528.277 301.359C547.689 302.713 567.311 294.158 580.543 280.107C607.779 251.189 601.089 201.986 567.522 180.778C528.954 156.414 480.389 177.006 449.416 203.92C430.928 219.984 415.367 238.993 398.531 256.693C380.816 275.324 361.246 292.056 339.829 306.309C318.413 320.561 295.731 332.396 271.8 341.259C246.269 350.711 217.855 356.83 190.9 350.016C168.886 344.451 147.813 330.277 139.083 308.621C129.174 284.029 136.507 256.385 147.821 233.63C153.044 223.132 159.743 207.929 170.908 202.707C182.073 197.484 195.234 205.327 200.773 215.412C213.591 238.765 194.61 270.11 180.588 288.697C150.178 329.02 103.907 353.173 56.8902 368.771C32.0979 376.992 6.71663 383.217 -18.6471 389.371C-22.7703 390.374 -21.0208 396.731 -16.8975 395.728L-16.9063 395.711Z" fill="#93E892"/>
</svg>
