<svg width="1512" height="915" viewBox="0 0 1512 915" fill="none" xmlns="http://www.w3.org/2000/svg">
<path d="M-16.9063 628.71C40.2565 614.827 99.415 599.994 147.136 563.848C167.163 548.681 184.878 530.111 197.318 508.174C208.765 487.977 219.763 458.206 201.626 438.388C194.918 431.055 184.737 426.096 174.662 427.643C163.048 429.428 155.892 439.364 150.186 448.71C136.304 471.439 125.201 498.66 128.374 525.794C131.144 549.481 145.896 569.079 166.556 580.466C190.162 593.47 217.574 594.683 243.562 589.364C299.036 578.004 352.085 544.399 392.297 505.36C431.394 467.403 466.824 410.515 527.723 409.768C555.724 409.425 580.613 425.419 588.657 452.807C596.271 478.754 585.352 505.765 562.072 519.455C541.218 531.72 500.865 533.092 498.816 501.105C497.005 472.933 520.69 455.639 545.288 449.317C559.206 445.738 573.58 444.56 587.787 442.714C602.53 440.806 617.151 438.133 631.613 434.695C661.961 427.476 691.501 417.18 720.32 405.302C734.615 399.411 748.761 393.15 762.783 386.644C775.689 380.665 789.36 375.152 801.317 367.371C819.155 355.765 826.918 336.729 816.895 317.042C808.491 300.539 789.633 288.388 770.819 292.459C752.005 296.53 739.037 314.721 736.03 333.185C732.795 353.013 740.76 371.653 756.532 383.892C773.368 396.949 795.338 400.685 815.902 403.438C840.729 406.761 865.759 408.581 889.004 418.719C914.165 429.692 935.836 447.321 954.325 467.403C995.698 512.359 1019.83 569.475 1054.36 619.293C1069.89 641.714 1087.56 663.819 1113.45 674.493C1137.53 684.419 1164.91 683.804 1189.67 676.717C1243.03 661.436 1279.84 616.524 1311.08 573.317C1346.24 524.668 1379.67 473.725 1400.3 416.996C1417.58 369.507 1430.46 305.656 1394.6 263.074C1380.67 246.535 1359.98 235.008 1338.31 233.215C1328.2 232.38 1317.91 233.962 1308.65 238.139C1305.44 239.589 1301.74 240.732 1300.75 244.276C1299.61 248.355 1301.51 254.405 1303.12 258.098C1311.16 276.544 1334.74 284.37 1352.8 288.185C1385.26 295.035 1418.18 300.17 1450.81 306.122C1465.39 308.786 1481.07 310.14 1495.17 314.739C1504.91 317.913 1524.28 327.699 1516.63 340.545C1514.45 344.202 1520.16 347.517 1522.33 343.877C1531.56 328.376 1514.9 315.715 1501.98 310.272C1490.68 305.515 1478 304.408 1466.03 302.218L1424.16 294.578C1398.54 289.9 1371.92 286.823 1346.78 279.947C1329.61 275.252 1306.44 265.483 1307.36 244.285L1305.72 247.133C1324.41 236.116 1346.94 238.209 1365.64 248.136C1385.85 258.863 1399.56 277.063 1405.94 298.886C1420.5 348.695 1400.79 404.554 1379.63 449.519C1357.53 496.471 1327.96 539.932 1296.99 581.433C1267.31 621.219 1231.06 660.592 1180.8 672.207C1156.81 677.746 1130.49 676.603 1108.44 664.918C1084.94 652.459 1068.9 629.475 1054.55 607.828C1025.89 564.586 1003.77 517.001 970.932 476.565C942.843 441.975 906.262 412.371 861.706 403.297C842.074 399.296 821.977 398.311 802.284 394.724C782.969 391.207 762.686 384.885 750.431 368.461C738.176 352.037 739.371 330.477 750.282 314.528C762.256 297.013 784.551 293.188 800.877 307.248C818.047 322.037 819.928 345.768 800.877 359.739C791.101 366.905 779.382 371.609 768.48 376.752C756.04 382.617 743.53 388.332 730.896 393.766C679.887 415.721 627.982 431.134 572.832 437.966C551.645 440.586 528.752 444.015 511.617 457.881C498.456 468.528 490.394 486.87 492.477 503.804C494.79 522.629 510.157 533.092 528.277 534.358C547.689 535.712 567.311 527.157 580.543 513.106C607.779 484.188 601.089 434.985 567.522 413.778C528.954 389.413 480.389 410.006 449.416 436.919C430.928 452.983 415.367 471.993 398.531 489.692C380.816 508.323 361.246 525.055 339.829 539.308C318.413 553.561 295.731 565.395 271.8 574.258C246.269 583.71 217.855 589.83 190.9 583.015C168.886 577.45 147.813 563.276 139.083 541.62C129.174 517.028 136.507 489.384 147.821 466.629C153.044 456.131 159.743 440.929 170.908 435.706C182.073 430.483 195.234 438.326 200.773 448.411C213.591 471.764 194.61 503.109 180.588 521.697C150.178 562.019 103.907 586.172 56.8902 601.77C32.0979 609.991 6.71663 616.216 -18.6471 622.371C-22.7703 623.373 -21.0208 629.73 -16.8975 628.728L-16.9063 628.71Z" fill="#A0B6F2"/>
</svg>
