<svg width="1512" height="915" viewBox="0 0 1512 915" fill="none" xmlns="http://www.w3.org/2000/svg">
<path d="M-16.9063 628.711C40.2565 614.827 99.415 599.995 147.136 563.849C167.163 548.682 184.878 530.112 197.318 508.174C208.765 487.978 219.763 458.207 201.626 438.388C194.918 431.055 184.737 426.097 174.662 427.644C163.048 429.429 155.892 439.364 150.186 448.711C136.304 471.439 125.201 498.661 128.374 525.795C131.144 549.482 145.896 569.08 166.556 580.466C190.162 593.47 217.574 594.684 243.562 589.364C299.036 578.004 352.085 544.4 392.297 505.361C431.394 467.404 466.824 410.516 527.723 409.769C555.724 409.426 580.613 425.419 588.657 452.808C596.271 478.755 585.352 505.765 562.072 519.455C541.218 531.721 500.865 533.092 498.816 501.105C497.005 472.934 520.69 455.639 545.288 449.318C559.206 445.739 573.58 444.561 587.787 442.714C602.53 440.806 617.151 438.133 631.613 434.696C661.961 427.477 691.501 417.181 720.32 405.302C734.615 399.411 748.761 393.151 762.783 386.645C775.689 380.666 789.36 375.153 801.317 367.371C819.155 355.765 826.918 336.73 816.895 317.043C808.491 300.54 789.633 288.388 770.819 292.459C752.005 296.53 739.037 314.722 736.03 333.186C732.795 353.013 740.76 371.653 756.532 383.893C773.368 396.949 795.338 400.686 815.902 403.438C840.729 406.762 865.759 408.582 889.004 418.72C914.165 429.693 935.836 447.322 954.325 467.404C995.698 512.36 1019.83 569.476 1054.36 619.294C1069.89 641.715 1087.56 663.819 1113.45 674.493C1137.53 684.42 1164.91 683.805 1189.67 676.718C1243.03 661.436 1279.84 616.524 1311.08 573.318C1346.24 524.669 1379.67 473.725 1400.3 416.996C1417.58 369.508 1430.46 305.657 1394.6 263.075C1380.67 246.536 1359.98 235.009 1338.31 233.216C1328.2 232.38 1317.91 233.963 1308.65 238.139C1305.44 239.59 1301.74 240.733 1300.75 244.276C1299.61 248.356 1301.51 254.405 1303.12 258.098C1311.16 276.545 1334.74 284.37 1352.8 288.186C1385.26 295.036 1418.18 300.17 1450.81 306.123C1465.39 308.787 1481.07 310.141 1495.17 314.74C1504.91 317.914 1524.28 327.7 1516.63 340.546C1514.45 344.203 1520.16 347.518 1522.33 343.878C1531.56 328.377 1514.9 315.716 1501.98 310.273C1490.68 305.516 1478 304.408 1466.03 302.219L1424.16 294.578C1398.54 289.901 1371.92 286.823 1346.78 279.948C1329.61 275.252 1306.44 265.484 1307.36 244.285L1305.72 247.134C1324.41 236.117 1346.94 238.21 1365.64 248.136C1385.85 258.863 1399.56 277.064 1405.94 298.887C1420.5 348.696 1400.79 404.555 1379.63 449.52C1357.53 496.472 1327.96 539.933 1296.99 581.434C1267.31 621.22 1231.06 660.592 1180.8 672.207C1156.81 677.747 1130.49 676.604 1108.44 664.918C1084.94 652.459 1068.9 629.476 1054.55 607.829C1025.89 564.587 1003.77 517.002 970.932 476.565C942.843 441.976 906.262 412.371 861.706 403.298C842.074 399.297 821.977 398.312 802.284 394.725C782.969 391.208 762.686 384.886 750.431 368.462C738.176 352.037 739.371 330.478 750.282 314.529C762.256 297.014 784.551 293.189 800.877 307.248C818.047 322.037 819.928 345.768 800.877 359.74C791.101 366.905 779.382 371.609 768.48 376.753C756.04 382.618 743.53 388.333 730.896 393.767C679.887 415.721 627.982 431.135 572.832 437.966C551.645 440.587 528.752 444.016 511.617 457.881C498.456 468.529 490.394 486.87 492.477 503.805C494.79 522.629 510.157 533.092 528.277 534.359C547.689 535.713 567.311 527.158 580.543 513.107C607.779 484.189 601.089 434.986 567.522 413.778C528.954 389.414 480.389 410.006 449.416 436.92C430.928 452.984 415.367 471.993 398.531 489.693C380.816 508.324 361.246 525.056 339.829 539.309C318.413 553.561 295.731 565.396 271.8 574.259C246.269 583.711 217.855 589.83 190.9 583.016C168.886 577.451 147.813 563.277 139.083 541.621C129.174 517.029 136.507 489.385 147.821 466.63C153.044 456.132 159.743 440.929 170.908 435.707C182.073 430.484 195.234 438.327 200.773 448.412C213.591 471.765 194.61 503.11 180.588 521.697C150.178 562.02 103.907 586.173 56.8902 601.771C32.0979 609.992 6.71663 616.217 -18.6471 622.371C-22.7703 623.374 -21.0208 629.731 -16.8975 628.728L-16.9063 628.711Z" fill="#DEB7D5"/>
</svg>
