<svg fill="none" height="41" width="37" xmlns="http://www.w3.org/2000/svg"><g clip-path="url(#a)"><path d="m36.276 36.398-.546-6.078-.263-3.015-.117-4.595c0-.234-.01-1.717-.185-2.254-.137-.42-.429-.576-.634-.605-.546-.078-1.239-.098-1.99-.078l-1.015.039.4-3.102.8-8.839.176-3.259c0-.146.029-.839-.058-1.112a.76.76 0 0 0-.312-.429 1.799 1.799 0 0 0-.683-.224c-.371-.049-.829-.039-1.063-.068l-4.693-.156-4.283-.312c-3.356-.332-6.703-.8-10.068-1.024l-4.468-.283C7.095.983 6.237.798 5.876.798a.823.823 0 0 0-.585.215 2.14 2.14 0 0 0-.361.605c-.137.351-.234.79-.312 1.024L3.505 5.92H1.583s-.234 0-.322.01a.65.65 0 0 0-.459.351C.588 6.74.5 7.52.51 8.418c.02 1.551.302 3.493.312 4.361.02 2.361.098 4.732.224 7.102.185 3.541.459 7.083.741 10.605l.517 5.512c.02.205-.049 1.2.02 1.61.049.283.176.459.273.536.127.107.371.215.683.264.507.068 1.307.02 1.59.029l4.995.41a3.05 3.05 0 0 0 .039.419c.039.283.127.537.244.702a.77.77 0 0 0 .449.302c.205.049.732.068.829.078l2.702.332c1.62.146 3.259.156 4.888.078 2.41-.107 4.829-.38 7.21-.585l7.356-.741c.224-.02 1.59-.02 2.137-.127.38-.068.576-.283.644-.39.088-.166.156-.419.146-.742 0-.566-.215-1.434-.234-1.766v-.01zM5.808 3.062l.312-.966.966.156 4.576.293c3.356.224 6.683.693 10.029 1.024 1.454.146 2.898.263 4.351.322l4.615.156.995.078v.507l-.166 3.132-.8 8.829a72.455 72.455 0 0 1-.429 3.307c-.546.039-1.073.068-1.551.078l-.517-10.156-.244-2.683c-.02-.098-.078-.663-.166-.878a.688.688 0 0 0-.498-.459 7.343 7.343 0 0 0-1.288-.146c-.907-.02-1.902.078-2.712.029a126.72 126.72 0 0 0-5.454-.176c-1.824-.02-3.639 0-5.463.049l-7.541.332.956-2.829h.029zm3.688 21.561a.69.69 0 0 0-.517.644l.488 8.224.302 4.088-4.859-.4c-.205 0-.966-.029-1.356-.039v-1.249l-.517-5.502-.741-10.566a141.84 141.84 0 0 1-.215-7.044c0-.878-.283-2.82-.312-4.371 0-.468 0-.898.068-1.229h2.107l8.488-.361c1.795-.059 3.6-.068 5.405-.049s3.61.088 5.405.176c.819.039 1.824-.059 2.741-.029a5 5 0 0 1 .673.049l.059.371.224 2.585.507 10.059c-.439-.01-.898-.02-1.327.058a2.755 2.755 0 0 0-1.005.351c-.566.332-1.132.907-1.659 1.561-.585.722-1.132 1.551-1.58 2.205l-9.249.146-2.468.205s-.498.078-.663.137v-.02zm23.951 13.561-7.327.741c-2.361.195-4.771.468-7.161.585-1.581.068-3.151.068-4.712-.078l-2.624-.322s-.263-.029-.449-.039l-.098-1.073-.341-4.546-.459-7.688.107-.02 2.234-.185 9.21-.156a.63.63 0 0 0 .839-.176c.468-.673 1.093-1.649 1.776-2.498.429-.527.868-.995 1.327-1.268.234-.137.507-.195.8-.215.546-.049 1.122 0 1.62 0 1.19 0 2.907-.176 4.4-.215.507-.01.995-.01 1.415.02l.117 1.688.117 4.634a37.09 37.09 0 0 0 .273 3.122l.537 6 .215 1.6-1.795.097-.02-.01zM14.071 22.223c-1.61.068-3.219.166-4.82.293a.63.63 0 0 1-.673-.576.63.63 0 0 1 .576-.673c1.61-.127 3.239-.215 4.858-.293l7.278-.234c.341 0 .634.263.644.615a.638.638 0 0 1-.615.644l-7.259.234.01-.01zm7.239-4.722-13.863.059a.638.638 0 0 1-.644-.615c0-.341.263-.634.615-.644l13.902-.058a.63.63 0 0 1 .624.634.624.624 0 0 1-.634.624zM7.212 12.427a.63.63 0 0 1-.663-.585.63.63 0 0 1 .585-.663 137.62 137.62 0 0 1 6.966-.224c2.322-.02 4.654.019 6.966.117.341.01.615.302.605.654s-.302.615-.654.605a162.65 162.65 0 0 0-6.907-.117c-2.302.02-4.615.088-6.898.224v-.01zm25.415 19.132v-.107c-.039-.195-.088-.517-.127-.673a1.19 1.19 0 0 0-.78-.829c-.351-.107-.751-.137-1.21-.088a6.79 6.79 0 0 0-1.005.205 5.417 5.417 0 0 1-.683.146l-3.961.039a1.12 1.12 0 0 0-.927.82 1.03 1.03 0 0 0-.068.595l.478 2.868c0 .049.02.137.02.234.019.195.039.429.078.595.058.264.166.498.312.654.127.146.273.254.449.332.049.02.215.088.722.127h1.249l3.688-.205h.283c.254 0 .585 0 .849-.039.293-.049.556-.156.742-.312.234-.185.39-.459.439-.761.049-.263 0-.663-.068-1.015l-.478-2.595v.01zm-.41 3.444c-.02.088-.049.137-.088.166a.765.765 0 0 1-.302.117c-.195.029-.468.029-.683.029h-.351l-3.649.205h-1.19a3.42 3.42 0 0 1-.39-.059c-.039-.01-.059-.029-.088-.059a.7.7 0 0 1-.098-.234c-.029-.137-.039-.312-.058-.468a5.99 5.99 0 0 0-.029-.312l-.468-2.937.039-.117s.049-.098.059-.107l3.951-.039a6.74 6.74 0 0 0 .859-.176c.293-.068.595-.146.878-.176.107-.01.205-.02.302-.02.195 0 .361.02.507.068.02 0 .098.039.127.156s.068.38.088.537l.478 2.605.02.117c.078.468.078.644.068.703h.02z" fill="#000"></path></g><defs><clipPath id="a"><path d="M.51.798h36v40h-36z" fill="#fff"></path></clipPath></defs></svg>