<svg width="48" height="48" viewBox="0 0 48 48" fill="none" xmlns="http://www.w3.org/2000/svg">
<path d="M40.4 24.4C40.5 27.1 38.9 27.2 37.9 28.1L34.4 30.4L30.7 32.4C29.4 32.8 28.5 34.4 26.5 33.5C26.1 30.7 28.3 30.8 29 29.8L32.3 27.3L35.1 25.7C34 25.7 32.8 25.6 31.8 25.8L23.7 26L15.6 25.8C12.9 25.6 10.2 26.3 7.5 24C10.2 21.7 12.9 22.5 15.6 22.3L23.7 22.2L31.8 22.6C33.1 22.8 34.8 22.7 36.4 22.8C36.3 22.8 36.3 22.7 36.2 22.7L32.5 20.7L29 18.3C27.9 17.4 26.3 17.2 26.3 14.5C28.7 13.4 29.5 14.7 30.8 15.3L34.4 17.5L37.8 20C38.2 20.5 38.9 20.8 39.6 21.4C40.2 21.9 40.7 22.8 40.4 23.8" fill="#222222"/>
</svg>
