<svg xmlns="http://www.w3.org/2000/svg" fill="none" viewBox="0 0 48 48" height="48" width="48">
<g id="Icon=Arrow-down">
<path fill="black" d="M32.3511 30.2246L30.1568 33.8622L27.609 37.2788C27.123 37.7059 26.8137 38.4275 26.2541 39.0755C25.7092 39.7088 24.855 40.2242 23.8094 39.9002C23.7652 39.7088 23.7505 39.5615 23.721 39.3848C23.6916 39.3553 23.6621 39.3112 23.6179 39.2817C23.559 39.4732 23.5001 39.6646 23.397 39.8708H23.3823C20.7314 39.9444 20.5694 38.3981 19.6858 37.323L17.3589 33.8622L15.3855 30.1657C15.0321 28.9139 13.3974 27.9271 14.2368 25.939C17.0202 25.5266 16.8877 27.6915 17.9628 28.472L20.4811 31.8151L22.1305 34.5985C22.1452 33.4498 22.2336 32.3158 22.0569 31.3438L21.7771 23.2292L21.9685 15.1146C22.1894 12.4343 21.4678 9.69505 23.7358 7C25.989 9.70978 25.2821 12.4048 25.4294 15.0852L25.4883 23.1998L25.1348 31.3144C24.9287 32.6398 25.0759 34.2745 24.9581 35.8798C24.9876 35.8061 25.0317 35.7325 25.0465 35.6441L27.0641 31.9035L29.4646 28.3984C30.3924 27.3233 30.5397 25.7181 33.2347 25.7328H33.1905C34.3392 28.1333 32.9991 28.958 32.3953 30.2393L32.3511 30.2246Z" id="Vector"></path>
</g>
</svg>
