<svg width="48" height="48" viewBox="0 0 48 48" fill="none" xmlns="http://www.w3.org/2000/svg">
<path d="M8.08967 23.3706C7.98967 20.6706 9.58967 20.5706 10.5897 19.6706L14.0897 17.3706L17.7897 15.3706C19.0897 14.9706 19.9897 13.3706 21.9897 14.2706C22.3897 17.0706 20.1897 16.9706 19.4897 17.9706L16.1897 20.4706L13.3897 22.0706C14.4897 22.0706 15.6897 22.1706 16.6897 21.9706L24.7897 21.6706L32.8897 21.8706C35.5897 22.0706 38.2897 21.3706 40.9897 23.6706C38.2897 25.9706 35.5897 25.1706 32.8897 25.3706L24.7897 25.4706L16.6897 25.0706C15.3897 24.8706 13.6897 24.9706 12.0897 24.8706C12.1897 24.8706 12.1897 24.9706 12.2897 24.9706L15.9897 26.9706L19.4897 29.3706C20.5897 30.2706 22.1897 30.4706 22.1897 33.1706C19.7897 34.2706 18.9897 32.9706 17.6897 32.3706L14.0897 30.1706L10.6897 27.6706C10.2897 27.1706 9.58967 26.8706 8.88967 26.2706C8.28967 25.6706 7.78967 24.7706 8.08967 23.7706" fill="#222222"/>
</svg>
