<svg width="21" height="22" viewBox="0 0 21 22" fill="none" xmlns="http://www.w3.org/2000/svg">
<g id="Icon / System">
<path id="Vector" d="M10.5996 4.28921C11.7808 4.24546 11.8246 4.94546 12.2183 5.38296L13.2246 6.91421L14.0996 8.53296C14.2746 9.10171 14.9746 9.49546 14.5808 10.3705C13.3558 10.5455 13.3996 9.58296 12.9621 9.27671L11.8683 7.83296L11.1683 6.60796C11.1683 7.08921 11.1246 7.61421 11.2121 8.05171L11.3433 11.5955L11.2558 15.1392C11.1683 16.3205 11.4746 17.5017 10.4683 18.683C9.46206 17.5017 9.81206 16.3205 9.72456 15.1392L9.68081 11.5955L9.85581 8.05171C9.94331 7.48296 9.89956 6.73921 9.94331 6.03921C9.94331 6.08296 9.89956 6.08296 9.89956 6.12671L9.02456 7.74546L7.97456 9.27671C7.58081 9.75796 7.49331 10.458 6.31206 10.458C5.83081 9.40796 6.39956 9.05796 6.66206 8.48921L7.62456 6.91421L8.71831 5.42671C8.93706 5.25171 9.06831 4.94546 9.33081 4.63921C9.59331 4.37671 9.98706 4.15796 10.4246 4.28921" fill="#222222"/>
</g>
</svg>
