<svg xmlns="http://www.w3.org/2000/svg" width="30" height="30" fill="#000"><path d="M13.4802 7.06477c-1.2-.46-.8-1.22-.45-1.88.2-.33.53-.65.96-.84.42-.18.86-.21 1.25-.14.76.19 1.4.83 1.6 1.49.03.31.17.63.16.97-.01.33-.19.66-.71.75-.62-.36-.78-.49-.81-.65-.03-.15.03-.33-.13-.38 0 0-.12-.16-.22-.18-.12-.05-.24-.03-.24-.03-.15-.03-.13-.11-.28.02-.22.14.1.41-1.12.87h-.01z"></path><path d="M14.0603 7.20489c-.48.66-.82.99-1.22 1.24-.39.25-.82.45-1.16.8-.71.64-1.28 1.47001-1.63 2.37001-.43003.89-.68003 1.9-.78003 2.95-.25.95.3 2.22-.49 3.31-1.51-.74-.97-2.33-1.16-3.37 0 0-.01-.9.13-1.81.13-.91.45-1.81.45-1.81.51-1.17001 1.27-2.22001 2.25003-3.03001.51-.37 1.02-.79 1.64-1 .61-.21 1.35-.19 1.96.36l.01-.01z"></path><path d="M8.81999 17.4847c.53 1.16 0 1.14-.23 1.49l-.77.89-.9.8c-.38.16-.3.81-1.3.57-.94-1.06-.04-1.11-.02-1.56l.34-.55.36-.55.95-.89c.38-.22.44-.81 1.57-.2z"></path><path d="M6.16992 21.5347c1.54-1.2 3.08-.82 4.61998-.9l4.62-.02 4.62.2c1.36.21 3.29-.23 4.62.73-1.31 1.37-3.24.67-4.62.92l-4.62.15-4.62-.11c-1.52998-.12-3.09998.26-4.61998-.96v-.01z"></path><path d="M21.6203 17.5247c1.16-.5 1.12.04 1.43.28l.76.85.59 1c.06.39.71.46.19 1.34-1.24.65-1.03-.17-1.44-.26l-.85-.77-.66-.94c-.15-.37-.7-.41-.02-1.49v-.01z"></path><path d="M16.2207 7.18461c1.35-.9 2.46-.23 3.6.4.56.36 1.09.84 1.48 1.43s.61 1.22999.75 1.84999c.19 1.26.13 2.36.1 3.5-.18.99.19 2.45-.86 3.32-1.27-1.04-.52-2.32-.79-3.3l-.14-1.6c-.08-.8-.26-1.48-.26-1.48-.17-.94-.54-1.61999-1.29-2.14999-.73-.61-1.83-.52-2.59-1.97zM12.0201 21.255c.56.5.81.74.97 1.04.16.28.26.61.52.83.44.49 1.02.72 1.67.69.64.04 1.35-.19 1.82-.66.28-.17.42-.55.57-.92.16-.38.34-.75.82-1.13.68.4.78 1.02.64 1.58-.15.57-.53 1.05-.76 1.52 0 0-.13.18-.37.42-.24.23-.59.5-.97.71-.77.43-1.68.49-1.68.49-1.19.03-2.42-.54-3.14-1.45-.33-.46-.68-.94-.8-1.51-.12-.55.04-1.22.7-1.6l.01-.01z"></path></svg>