<svg viewBox="0 0 718.23 788.12" xmlns="http://www.w3.org/2000/svg" id="Layer_2">
  <defs>
    <style>
      .cls-1 {
        fill: #222;
      }
    </style>
  </defs>
  <g id="Layer_1-2">
    <path d="m717.88,253.73c-.95-4.95-.62-9.7.01-14.55-.63-.54-1.81-1.09-1.8-1.61.26-9.92.75-19.83.98-29.75.05-2.37-1.07-4.78-.94-7.13.45-8.01,1.41-15.99,1.75-24,.11-2.64-1.17-5.33-1.65-8.02-1.2-6.7-2.32-13.42-3.49-20.3-4.25-1.08-8.51-3.01-12.81-3.09-10.41-.18-20.83.64-31.25.77-4.41.06-8.87-.31-13.22-1.02-4.6-.75-7.31-4.27-7.27-8.58.07-8.86,1.12-17.71,1.46-26.58.26-6.78-2.43-12.59-5.78-18.49-4.83-8.5-12.35-10.55-21.02-11.28-19.45-1.65-38.9-3.4-59.07-5.17.9-22.72,3.08-46.47-3.56-69.81-3.09,0-5.6.2-8.06-.06-2.36-.25-5.67,1.67-6.68-2.57-.09-.36-2.13-.36-3.27-.36-8-.03-16-.1-24,.06-1.52.03-2.99,1.11-4.53,1.52-1.08.29-2.58.79-3.3.31-5.18-3.47-10.92-1.66-16.38-1.82-10.16-.3-20.34-.34-30.49-.01-9.68.32-19.34,1.73-29.02,1.78-7.96.04-15.94-1.15-23.89-1.94-.83-.08-1.56-1.21-1.67-1.3-2.63.53-4.75,1.34-6.86,1.34-37.33.08-74.66-.03-111.99.14-5.67.03-11.32,1.47-17.01,1.76-2.46.13-4.96-1.13-7.48-1.52-3.54-.55-7.11-.98-10.68-1.28-5.07-.43-10.39-1.82-15.18-.8-7.79,1.67-15.74.55-23.27,2.05-7.85,1.56-15.24,5.44-22.8,8.41-3.35,1.32-8.35,2.08-9.52,4.55-2.15,4.54-9.11,3.61-9.37,9.67-.05,1.28-2.67,2.45-3.06,2.78-1.95,2.96-3.54,4.79-4.46,6.92-.81,1.88-.84,4.09-1.24,6.15-.31,1.57-.11,3.83-1.08,4.6-7.3,5.85-2.59,13.79-3.87,20.64-.27,1.44-.04,2.96-.04,3.18-4.81,2.7-8.9,4.99-12.99,7.28-.29.16-.6.44-.88.42-7.28-.47-11.02,4.93-15.7,9.06-3.26,2.88-5.73,5.86-6.45,10.18-.12.75-.36,1.91-.86,2.11-8.22,3.43-6.4,11.52-7.9,17.77-1.51,6.3-1.51,12.96-2.19,19.64-6.42.45-12.79,1.03-19.17,1.32-13.03.58-25.98,1.42-38.45,5.79-3.3,1.16-7,2.36-10.33,1.98-4.51-.52-6.05,3.04-9.03,4.49-3.82,1.86-8.32,2.3-12.73,3.41-.75,8.07-1.54,16.53-2.31,24.99-.06.66.27,1.64-.07,1.95-6.24,5.89-.56,11.87-.33,17.81.08,1.91-1.38,3.84-1.55,5.81-.51,6.07-.98,12.17-1.03,18.26-.4,51.25-.71,102.5-1.04,153.75-4.12,12.55-1.31,25.5-2.25,38.23-.15,2-2,3.46-.96,6.13.96,2.46.47,5.62.13,8.41-.34,2.81-1.8,5.55-1.81,8.33-.04,5.58.27,11.2,1.01,16.73.59,4.43,1.27,8.27-.69,12.97-1.56,3.74.18,8.99.86,13.51.45,2.98,1.95,5.85-1.04,8.38-.36.31-.15,1.27-.26,1.91-.83,4.77,1.85,9.95-1.82,14.52-.46.57,1.84,2.87,1.7,4.26-.59,6.08,1.96,12.43-1.61,18.28-.52.86-.11,2.29-.11,3.45,0,19.33.01,38.66-.02,57.99,0,2.45.91,5.12-2.41,6.74-.87.43-.42,3.36-.75,5.11-1.31,6.93,4.07,13.51,1.03,20.51,4.44,5.65,1.38,12.18,2.07,18.28.46,4.11.92,8.53-.06,12.45-3.29,13.04-1.52,26.24-2.01,39.35-6.48,6.89.49,17.33-6.37,24.1-.8.79-1.75,1.44-2.63,2.15v15c.34,1.14,1.12,2.35.96,3.42-2.05,13.62,4.38,24.07,12.09,34.33,3.93,5.23,8.13,8.96,14.64,10.84,3.22.93,5.57,4.84,8.31,7.41h20c2.11-.41,4.22-1.11,6.35-1.17,5.75-.18,11.53.1,17.27-.18,7.81-.37,15.6-1.24,23.41-1.52,1.29-.05,2.64,1.86,3.97,2.87h1c2.96-3.35,6.9-3.04,10.83-3.02,16.16.06,32.33.07,48.49-.05,1.67-.01,3.34-1.05,5.01-1.59.44-.14,1-.44,1.34-.29,9.37,4.17,19.46,2.67,28.76,1.5,11.7-1.46,23,.76,34.46.37,5.69-.19,11.34-1.47,17.03-1.77,3.72-.2,7.6.01,11.22.84,14.4,3.27,28.98,1.6,43.48,1.99,4.01.11,7.3-2.72,11.77-2.16,8.48,1.05,17.12,1.12,25.69,1.07,7.55-.04,15.1-1.02,22.66-1.19,9.21-.21,18.44-.01,27.66.04,1.48,0,2.96.25,4.44.25,10.83.02,21.66.06,32.49,0,73.4-.37,146.8-.75,220.19-1.23,3.25-.02,6.52-1.75,9.74-1.64,6.84.24,13.64,1.29,20.47,1.76,1.88.13,3.82-.53,5.73-.9,3.3-.64,6.57-1.63,9.9-1.9,3.07-.24,4.61-1.47,4.63-4.49.04-5.83.65-11.76-.19-17.46-.67-4.52-3.17-8.78-4.88-13.14-.03-.08-.44-.04-.45-.11-1.84-8.82-7.02-17.03-3.66-26.79,1.62-4.7,1.24-10.05,2.27-15,1.04-5,2.41-10.05,8.26-11.9.69-.22,1.34-1.15,1.65-1.9,1.13-2.77-.06-6.74,4.28-7.87.31-.08.22-1.87.23-2.86.02-5.33.02-10.66,0-16-.02-9.27.6-18.5,1.39-27.74.28-3.26-.67-6.63-1.13-10.49.34-.37,2.11-1.39,2.14-2.45.21-10,.15-20,.12-30-.04-13.54-.14-27.07-.2-40.61-.02-4.5.02-9,.02-13.5,0-8.16-.15-16.33.04-24.49.22-9.57,1.16-19.14,1.01-28.69-.18-11.01-1.69-22-1.74-33-.05-10.68,1.02-21.37,1.61-32.05.04-.82.22-1.63.23-2.45.34-18.41.72-36.83.92-55.24.02-1.43-1.24-2.87-1.87-4.32-.37-.87-1.06-1.82-.94-2.64,3.99-28.02,2.56-56.21,2.98-84.35.02-1.55,1.18-3.07,1.81-4.61.05-4.12.74-8.36-.01-12.33Zm-551.91,127.69c.39-11.25.59-22.51,1.1-33.75.15-3.34,1.17-6.63,1.68-9.96.16-1.08,0-2.22-.11-3.32-.16-1.46-.75-2.96-.57-4.37.5-3.95-.44-8.44.35-11.68,3.8-15.64-.2-31.44,2.1-46.86,1.03-6.89-.13-13.17-.35-19.74-.1-3.02,2.12-6.07,2.23-9.14.32-9.15.04-18.33.17-27.49.03-1.87.8-3.74,1.28-5.85-.17-.09-1.68-.53-1.67-.9.26-5.35.7-10.69,1.14-16.04.19-2.27.29-4.56.74-6.78.39-1.91,1.22-3.72,2.09-6.27-.15-.12-1.22-.95-2.63-2.05,1.22-1.09,2.14-1.9,3.02-2.68-.75-1.44-2.21-3.06-2.36-4.79-.18-2.1.75-4.3,1.21-6.46.2-.93.89-2.13.54-2.73-1.53-2.6-3.74-4.97.81-6.97.55-.24.24-2.5.27-3.83.34-14.58.64-29.17,1.01-43.75.29-11.25.51-22.51,1.04-33.75.45-9.51.98-19.04,2.19-28.47.27-2.13,3.36-4.07,5.42-5.77,5.35-4.43,11.3-7.85,17.33-11.34,8.51-4.94,17.33-5.45,26.19-6.37,10.83-1.13,21.83-1.28,32.73-1.03,6.74.15,13.42,2.16,20.18,2.7,2.9.23,5.91-1.53,8.91-1.69,2.33-.13,4.71,1.15,7.08,1.22,4.61.15,9.24-.08,13.85-.23,1.06-.03,2.34-.85,3.12-.47,6.53,3.16,13.49,2.46,20.3,2.16,2.73-.12,5.4-2.69,8.08-2.67,5.36.04,10.8.69,16.03,1.85,10.56,2.34,21.28,2.9,31.67.66,5.33-1.15,10.3-.31,15.41-.58,12.4-.64,24.83-.85,37.25-1.04,3.08-.05,6.45,1.54,9.19.72,5.64-1.7,10.62,1.24,15.85,1.11,10.68-.27,21.33-1.45,32.01-1.78,5.56-.17,11.15.9,16.73,1.02,9.31.19,18.62.05,28.59.05-1.69,8.77-4.08,17.32-.22,26.75-.15.59-1.04,2.55-1.05,4.51-.11,16.16.28,32.34-.2,48.49-.27,8.94-2.06,17.83-2.9,26.77-.25,2.6-.57,6.18.86,7.74,2.65,2.88,1.91,5.4,1.48,8.49-.93,6.62-1.94,13.29-2.04,19.96-.28,17.99.02,35.99-.14,53.99-.1,10.93-.75,21.85-.93,32.77-.37,22.57-.53,45.14-.9,67.71-.09,5.58-2.4,11.12-.15,16.75.23.57.31,1.66-.02,1.94-6.04,5.12-1.97,10.86-1.22,16.47.36,2.72-.08,5.55-.11,8.33-.03,3.33,0,6.66,0,10.07-15.2-.66-29.37-1.89-43.53-1.76-22.16.2-44.32,1.33-66.48,2.03-10.12.32-20.25,1.04-30.34.69-8.77-.3-17.5-2.76-26.23-2.69-27.5.21-55,1.35-82.5,1.75-12.24.17-24.51-1.08-36.75-.76-10.93.29-21.82,1.98-32.74,2.77-3.05.22-6.22-1.11-9.24-.79-9.03.94-18.14,1.76-26.95,3.81-5.02,1.17-9.46,4.75-14.24,7.07-1.53.74-3.32.93-5.68,1.55.5-2.46.99-3.85,1.04-5.25Zm371.15,7.94c-1.16,17.61-2.32,35.23-3.49,52.84-5.99-8.44-10.3-17.76-8.39-28.15,1.65-8.95,3.26-18.48,10.28-25.22.53.18,1.06.35,1.59.53Zm-372.68,31.87c.03-.79.65-1.62.51-2.34-1.87-9.8,7.19-13.61,11.25-20.1.85-1.36,4.49-.82,6.74-1.49,4.26-1.27,8.35-3.25,12.68-4.09,7.13-1.39,14.37-2.59,21.6-2.97,6.55-.34,13.16.84,19.74.79,11.41-.08,22.82-.77,34.24-.86,6.25-.05,12.5.83,18.75.82,2.63,0,5.25-1.25,7.91-1.81.95-.2,2.21-.4,2.94.05,6.02,3.7,12.6,1.52,18.88,1.71,4.44.13,8.91-1.62,13.38-1.7,3.46-.06,6.95,1.81,10.4,1.72,6.17-.17,12.32-1.18,18.48-1.83.49-.05,1.04-.15,1.49-.01,5.46,1.63,10.88.37,16.36.3,44.47-.58,88.94-.33,134.08-.33-4.54,11.4-6.87,22.88-5.72,34.8.28,2.86,2.24,5.54,3.26,8.37.42,1.17.39,2.5.58,3.75.67,4.3.94,8.72,2.18,12.85.68,2.25,3,4.01,4.58,5.99-.3.47-.6.93-.89,1.4-8.26,0-16.53-.06-24.79.01-37.29.31-74.59.68-111.88.98-38.13.31-76.26.41-114.38.92-16.17.22-32.32,1.63-48.49,1.79-9.66.09-19.51-.32-28.94-2.19-5.88-1.17-11.17-5.44-16.63-8.48-.57-.32-.46-1.79-.75-2.69-.28-.85-.43-2.03-1.05-2.43-8.95-5.75-6.82-14.6-6.5-22.93Zm-42.92,136.65c.88-4.82,6.72-9.29,11.19-12.79,9.04-7.08,19.11-3.45,29.07-1.83,6.47,1.05,14.51,2.94,19.43.17,5.59-3.15,9.17-.86,13.73-.43,1.93.18,3.96-.87,5.97-1.25,1.22-.23,2.49-.43,3.71-.31,2.03.2,4.03.68,6.26.52,1.77.34,3.68,1.3,5.29.93,10.92-2.49,21.4,1.42,32.09,1.86,7.48.31,15.02,1.57,22.23-2.22,1.98-1.04,4.92-.63,7.35-.35,13.95,1.63,27.79,1.95,41.75-.66,4.5-.84,9.89-2.45,14.32,1.58.65.59,2.26.21,3.42.16,9.23-.37,18.45-1.09,27.68-1.08,12.25.01,24.51.86,36.76.81,6.35-.03,12.69-1.74,19.04-1.73,5.62.01,11.25,1.3,16.86,2.13,4.98.74,9.83,1.85,14.76-.87,1.61-.89,4.16-.12,6.27-.05,4.78.18,9.56.48,14.34.57,5.82.11,11.66-.19,17.46.12,5.29.28,10.14,1.75,15.81-.65,4.52-1.91,10.5-.38,15.83-.38,10.16,0,20.33-.06,30.49.06,2.92.03,5.85.47,8.73.94,12.5,2.05,24.89.99,37.3-.86,2.91-.44,5.94-.06,9.5-.06-5.39,20.84-4.81,40.82,4.98,61.19-3.24-.64-5.17-1.23-7.14-1.36-10.66-.71-21.32-1.57-31.99-1.78-3.77-.07-7.56,1.62-11.36,2.41-.64.13-1.4-.37-2.09-.34-8.51.37-17.01,1.14-25.51,1.11-10.21-.04-20.42-.77-30.64-1.17-2.82-.11-5.64-.09-8.45-.15-7.96-.16-15.93-.31-23.89-.51-.96-.02-1.92-.5-2.87-.5-18.16-.03-36.33-.25-54.49.07-10.51.18-21,1.43-31.52,1.83-4.57.17-9.17-.82-13.75-.84-3.92-.02-7.84.86-11.76.85-4.25-.01-8.5-.87-12.76-.85-4.75.01-9.5.9-14.25.85-8.75-.09-17.5-.72-26.25-.83-1.97-.03-3.98,1.67-5.93,1.61-2.96-.1-5.89-1.04-8.87-1.64-1.65.44-3.51,1.28-5.41,1.36-4.82.2-9.82.87-14.47-.07-23.57-4.73-47.36-1.63-71.03-2.32-13.46-.4-26.98,1.35-40.49,1.86-2.29.09-4.61-1.24-6.94-1.77-.95-.22-2.35-.48-2.93,0-3.6,3.04-8.52,1.99-10.86.31-5.04-3.6-9.94-8.36-12.86-13.75-4.99-9.23-4.94-20.05-3.14-29.92Zm558.59,203.53c-2.53.13-5.76.39-7.82.17-5.88-.63-11.49,1.56-17.27.55-12.96-2.28-25.64,1.9-38.49,1.88-10.24-.02-20.48-.67-30.72-1.11-.61-.03-1.58-.52-1.73-1-.94-3.13-1.84-2.62-3.28-.26-.34.55-1.77.54-2.71.6-1.49.09-3,.02-4.5.03-50.28.28-100.56.49-150.84.86-25.25.18-50.5.59-75.74,1-9.92.16-19.84.93-29.75.9-12.58-.03-25.17-.73-37.75-.89-12.67-.17-25.35-.38-38,.1-7.44.28-14.82,2.61-22.25,2.68-9.66.09-19.33-1.3-29.01-1.74-3.9-.18-7.84.7-11.76.73-7.44.07-14.88-.23-22.32-.17-4.64.04-9.28.62-13.93.64-3.48.02-6.96-.46-10.44-.76-.43-.04-.85-.44-1.25-.4-5.41.54-10.81,1.18-16.23,1.7-6.1.59-12.2,1.18-18.31,1.6-1.79.12-3.67-.11-5.42-.53-6.22-1.52-11.69,2.47-17.79,2.18-6.48-.31-12.99.05-19.49-.11-3.76-.09-7.64-.16-11.22-1.14-2.36-.64-6.41.09-6.46-4.39,0-.14-.52-.27-.81-.41-14.02-6.66-10.81-19.38-10.74-30.93,0-1.25,1.34-2.5,2.28-4.12-.49-.54-1.47-1.62-2.72-2.99,3.4-2.34,3.56-5.01,2.58-8.98-2.18-8.78,3.2-15.6,12.15-15.92,22.08-.79,44-4.77,66.2-3.11,6.9.52,13.83.94,20.75.96,5.92.02,11.85-1.02,17.75-.83,10.52.33,21.01,1.56,31.53,1.77,5.3.11,10.63-1.82,15.93-1.73,9.22.16,18.7,2.76,27.54,1.24,5.17-.89,10.14,1.89,15.51-.98,3.42-1.83,8.85.2,13.39.33,1.39.04,2.84-.84,4.17-.67,6.12.79,12.18-.97,18.57,1.5,4.09,1.58,9.95-.48,14.74-1.88,9.48-2.77,18.74-1.15,28.14.06,4.25.55,8.62.1,12.94.1,17.66,0,35.33.13,52.99-.08,4.72-.06,9.44-1.72,14.14-1.62,7.5.16,14.97,1.32,22.48,1.77,2.38.14,4.82-.87,7.23-.9,8-.1,16.02-.3,23.99.16,5.2.3,10.38,2.57,15.31-1.02.45-.33,1.29-.11,1.95-.14,4.08-.16,8.16-.42,12.25-.45,10.66-.07,21.79-1.93,31.86.51,9.72,2.35,19.06,1.62,28.46,1.56,16.32-.1,32.62-2.11,48.94-2.33,26.81-.35,53.64.2,80.46.12,5.28-.02,10.56-1.18,15.95-1.83-.43,3.29-.73,5.85-1.12,8.4-.91,5.99-4.97,11.32-3.46,17.85,2.75,11.93,5.2,23.93,8.02,35.84,1.09,4.63-.06,5.38-4.88,5.64Zm17.58-518.75c-.06,4.89-2.42,9.75-2.51,14.64-.11,5.58,1.24,11.18,1.76,16.79.18,1.93-.29,3.91-.32,5.87-.06,3.88-3.44,7.95.87,11.69.5.43-.86,3-1.9,4.45,1.6,10.85,2.3,21.85-.52,32.87-.32,1.25-.05,2.66-.08,3.99-.28,12.57-.11,25.16-1.06,37.68-.43,5.69,1.03,10.89,1.42,16.32.52,7.3.35,14.67.03,21.99-.15,3.41,1.89,7.43-2.25,10.24-.71.48-.28,2.87-.12,4.35.59,5.35,1.86,10.68,1.81,16.02-.06,5.67-1.57,11.31-2,17-.46,6.05-.82,12.17-.45,18.21.37,5.96,3.4,12.21,2.26,17.71-2.13,10.35,1.49,20.55-1.25,30.98-1.76,6.7.45,14.4.55,21.65.16,11.16.09,22.33,0,33.49-.02,2.24-.16,4.67-1.04,6.66-1.6,3.61-1.43,6.82-.08,10.47.55,1.5-.77,3.7-1.27,5.58-.07.27-.5.63-.43.74,3.7,5.83-1.2,11.78.08,17.32,1.49,6.46-.08,12.55-.19,18.8-.12,6.83-1.05,13.87.26,20.44,1.28,6.38.32,12.16-.78,19.2-10.15-.89-20.24-1.97-30.37-2.57-4.04-.24-8.14.69-12.22.86-3.98.16-7.97.03-11.95.03-5.17,0-10.43-.64-15.48.13-8.57,1.3-16.79.71-25.31-.8-4.99-.88-10.6-1.79-15.9,1.29-2.24,1.3-5.83.33-8.8.34-6.83.02-14.06,1.44-20.42-.29-12.39-3.38-25.03-2.82-36.93-1.22-25.7,3.46-51.29.18-76.87,1.55-2.59.14-5.17.97-7.75.91-8.59-.18-17.17-.73-25.76-.84-1.81-.02-3.64,1.22-5.47,1.85-1.06.37-2.17,1.08-3.2.99-8.95-.8-17.86-2.11-26.82-2.55-9.8-.48-19.98-1.76-29.39.2-10.58,2.2-20.68.49-30.99.43-1.49,0-3.12-.24-4.44.28-7.36,2.87-14.78-.1-22.15.41-5.1.35-10.22.5-15.33.72-1.33.06-2.66.07-4,.07-24.5,0-49-.16-73.5.07-12.41.12-24.86.51-37.2,1.66-4.62.43-8.2-.77-12.41-1.78-6.62-1.58-13.91-.66-20.89-.33-5.52.25-11.09.82-16.49,1.95-4.78,1-9.11-1.22-13.64-.98-7.12.38-14.21,1.56-21.33,1.8-3.88.13-7.81-1.5-11.7-1.43-5.94.11-11.95.6-17.77,1.75-2.91.58-5.45,2.98-9.18,5.15.48-7.58.13-13.8,1.54-19.6.81-3.34-1.08-5.2-1.29-7.74-.4-4.8-.24-9.66-.07-14.49.14-4.09.67-8.17.94-12.26.38-5.91-.2-12.04,1.17-17.71,5.16-21.42,1.07-43.06,2.26-64.56.53-9.58-.1-19.22.15-28.82.21-7.84,2.18-15.84,1.1-23.45-1.16-8.17.1-15.96.33-23.92.36-12.42-.58-25.03,1.29-37.22,3.17-20.71,1.3-41.39,1.36-62.05.02-6.13.85-12.25.45-18.41-.43-6.64-.1-13.33-.1-19.99s-1.03-13.53.21-19.96c2.68-13.83.78-27.78,2.32-41.5.77-6.82.35-13.08-.27-19.73-.58-6.19,1.77-12.61,1.54-18.88-.23-6.48-1.33-12.87.09-19.36.29-1.35-.81-2.98-1.19-4.5-.22-.88-.73-2.18-.35-2.63,4.63-5.44,2.6-11.66,2.04-17.61-.66-7.05-1.14-14.06,2.63-20.41,2.23-3.76,4.44-8.18,7.88-10.41,3.86-2.5,9.04-3.16,13.75-4.06,7.07-1.36,13.91-3.34,21.51-2.36,7.39.95,15.09-.43,23.31-.81,0,10.57.1,20.81-.05,31.04-.05,3.64.26,7.09-1.92,10.87-1.61,2.8.15,7.6.57,11.49.55,5.02,1.57,10,1.83,15.03.35,6.65.28,13.32.11,19.98-.04,1.57-1.2,3.12-1.88,4.67-.34.78-1.05,1.52-1.1,2.3-.41,6.58-.74,13.17-1.04,19.76-.36,7.75-.99,15.51-.89,23.26.06,5.04,1.3,10.05,1.83,15.09.19,1.76-.02,3.61-.31,5.38-.81,5.11-2.34,10.17-2.53,15.29-.62,16.41-.83,32.83-1.03,49.25-.02,1.67,1.04,3.34,1.57,5.02.14.44.43,1.05.25,1.33-4.44,7-1.19,14.7-1.97,22.02-.49,4.61.6,9.45-.21,13.97-4.22,23.8-.83,47.76-1.78,71.61-.23,5.66-.56,11.06-2.61,16.47-.87,2.3.5,5.41.65,8.16.4,7.42,1.08,14.85.91,22.26-.15,7-1.29,13.97-1.9,20.97-.42,4.91-.73,9.82-.98,14.74-.31,6.29,1.21,11.76,7.12,15.19.44.26.9.99.88,1.48-.39,9.47,8.51,13.28,12.34,20.16.41.75,1.93.93,2.97,1.27.91.3,2.59.28,2.68.68,1.34,6.17,7.36,4.59,11.01,5.99,5.26,2.01,11.43,1.58,17.18,2.39,2.51.36,4.93,1.64,7.42,1.74,1.77.07,3.59-1.7,5.38-1.68,5.58.06,11.16.48,16.73.93,6.67.55,13.34,1.88,20,1.81,10.97-.12,21.92-1.42,32.89-1.59,10.58-.17,21.51,2.18,31.67.23,8.97-1.72,17.67-1.39,26.45-1.46,6.77-.05,13.55,1.62,20.32,2.5,1.46.19,3.13.85,4.35.38,9.98-3.84,20.12-.1,30.19-.74,11.99-.76,24.06-.09,36.09-.23,9.28-.11,18.56-.77,27.83-.73,16.44.08,32.89.71,49.33.71,12.75,0,25.5-.66,38.26-.92,11.92-.24,23.79.94,35.79-.68,7.07-.96,14.56,1.23,21.85,2.03.79.09,1.56.57,2.34.6,10.25.37,20.51.99,30.75.92,7.02-.05,14.26-.19,20.95-1.98,4.79-1.28,9.21,1.29,13.89-.68,3.18-1.34,7.07-.99,11.95-1.55.45-7.58,1-15.33,1.27-23.09.03-.86-1.4-1.85-2.27-2.65-2.17-1.96-4.46-3.79-6.63-5.75-3.8-3.42-4.06-7.84-3.9-12.63.27-8.66-.07-17.33.2-25.99.05-1.7,1.36-3.79,2.72-4.96,6.65-5.73,12.32-12.42,14.63-20.79,1.1-3.97-.93-8.9-1.88-13.33-.61-2.85-2.15-5.42,1.35-7.75.75-.5-.3-3.47-.23-5.29.08-1.92.18-3.95.86-5.71.92-2.37-.95-11.04-1.51-13.34-1.01-4.18-1.2-8.72-.86-13.04.57-7.29,2.34-14.5,2.68-21.79.45-9.81-.13-19.66-.01-29.48.24-20.26.58-40.51,1-60.76.13-6.09.47-12.19,1.03-18.26.32-3.5,2.31-7.14,1.71-10.38-1.04-5.6.86-10.94.23-16.39-.67-5.82-1.86-11.64-1.86-17.46,0-9.23.76-18.45,1.25-27.68.05-.96.55-1.89.58-2.85.37-10.25.76-20.5,1.01-30.75.4-16.76.7-33.51,1-50.27.09-4.82.11-9.65-.02-14.47-.08-2.76.91-3.9,3.75-3.87,10.67.09,21.35-.38,31.99.2,5,.27,9.9,2.43,13.99,3.52-.23,12.31-.66,24.93-.64,37.55.02,12.78.78,25.56.63,38.33Zm-490.56,109.16c-.13-20.43-.71-40.89.09-61.29.53-13.47,3.24-26.85,4.62-40.3.25-2.41-1.76-4.99-1.74-7.48.17-20.91.52-41.82.94-62.73.1-5.09.46-10.19,1.01-15.25.57-5.25,1.85-10.44,2.22-15.7.4-5.64-1.23-11.72.33-16.91,5.24-17.47.84-35.16,2.4-52.65.92-10.28,1.91-20.56,2.97-31.85,3.61-.17,7.71-.18,11.76-.6,2.87-.3,4.15,1.23,4.17,3.5.16,16.53.22,33.05.12,49.58-.03,5.09-.97,10.17-.97,15.26.02,17.05,1.23,34.27-.67,51.08-1.14,10.08,1.03,20.4-1.77,29.84-2.53,8.52.15,16.1.23,24.1.01,1.23-1.23,2.46-1.8,3.72-.42.93-.95,1.92-1,2.9-.4,6.88-1.41,13.84-.83,20.65.68,8.08-1.24,15.95-.69,24,.56,8.29.54,16.68-.01,24.97-.4,5.98,1.59,11.92-2.05,18.17-1.99,3.42.55,9.48,1.04,14.34.34,3.38,1.91,6.86-1.38,9.87-.8.74-.84,2.4-1.07,3.66-.93,5.14-1.8,10.3-2.9,16.62-5.13-1.27-9.24-2.04-13.13-3.42-1.01-.36-1.89-2.65-1.9-4.06ZM352.82,82.97c-13.14-.41-26.26-1.43-39.6-2.19v-14.41c9.56-.42,18.94-1.31,28.29-1.15,17.01.3,34.01,1.46,51.03,1.81,10.95.23,21.93-.78,32.87-.43,10.32.33,20.92-.12,30.59,5.27,0,1.24.03,2.57,0,3.89-.14,6.4-1.08,7.12-7.38,7.4-11.67.51-23.32,1.36-34.99,1.89-2.02.09-4.09-.69-6.13-1.11-1.1-.23-2.31-1.01-3.25-.75-5.03,1.42-9.88.62-15,.22-12.08-.94-24.29-.05-36.43-.44Zm-41.74,30.4c-.26-1.9-.22-3.84-.35-6.42,9.16-5.68,19.73-3.5,30.34-2.99,15,.72,30.06.19,45.08.63,4.85.14,9.62,1.98,14.48,2.53,8.82.98,17.68,1.58,26.75,2.35.03.04.41.25.44.5.33,2.89,1.85,7.53.67,8.37-3.38,2.41-7.8,4.34-11.91,4.58-10.62.61-21.31.46-31.96.14-12.84-.39-25.67-1.2-38.5-1.96-9.51-.56-19-1.72-28.51-1.81-4.68-.04-6.02-2.18-6.52-5.91Zm337.53,592.73c.63.11,1.29.07,2.16.12v13.89c-8.14,0-16.25,0-24.35,0-1.33,0-3.29-.44-3.88.24-4.51,5.26-9.93,1.34-14.84,1.57-5.72.27-11.48-.7-17.23-.76-12.33-.14-24.66-.19-36.99.03-4.64.08-9.26,1.39-13.9,1.48-11.99.22-24-.23-35.98.16-12.09.39-24.16,1.6-36.25,2.1-2.42.1-4.88-1.98-7.36-2.07-7.65-.29-15.32-.14-22.99-.09-4.88.03-9.85-.85-14.35,2.29-1.32.92-3.42.97-5.17,1.01-14.16.27-28.21-.39-42.27-2.7-6.67-1.09-13.78.55-20.69.98-3.11.19-6.22.65-9.33.67-14.5.07-29.06-.8-43.45.43-5.91.5-12.15-1.12-17.96,1.51-.71.32-2.21-1.58-3.33-1.58-6.23.02-12.46.28-18.68.57-.89.04-1.79,1.15-2.62,1.08-5.17-.45-10.32-1.09-15.48-1.66-.81-.09-1.93-.55-2.4-.18-4.67,3.65-10.39,2.68-14.97,1.62-10.57-2.43-20.78,1.81-31.12.27-3.32-.49-6.59-1.72-9.9-1.79-4.73-.11-9.49.43-14.22.88-5.68.54-11.33,1.69-17.01,1.86-14.79.45-29.59.66-44.39.67-13.62,0-27.24-.31-40.86-.62-6.59-.15-13.18-.51-19.74-1.1-1.08-.1-2.64-1.72-2.91-2.88-.97-4.11-1.47-8.33-2.33-13.62,6.54,0,12.51.32,18.42-.11,3.9-.28,8.19,1.99,11.84-1.95.87-.94,4.22.53,6.44.7,6.75.5,13.5,1.1,20.26,1.31,7.49.22,14.99.11,22.49,0,1.49-.02,2.97-.72,5.47-1.36.38.11,2.08,1.01,3.77.99,31.88-.25,63.76-.51,95.63-.99,10.62-.16,21.39-.06,31.77-1.9,3.7-.66,5.81,1.45,9.04,1.22,13.71-.96,27.49-1.23,41.24-1.19,20.08.06,40.16.94,60.24.82,15.17-.1,30.32-1.43,45.5-1.84,19.74-.53,39.49-.74,59.24-.95,3.42-.04,6.87.96,10.27.8,3.03-.14,6.02-1.78,9.02-1.76,3.79.03,7.5,1.87,11.41,0,.67-.32,2.18,1.14,3.21.35,4.45-.08,9.26-1.28,13.29-.02,11.54,3.61,22.61,2.07,34.17.04,8.89-1.56,18.26-.74,27.39-.46,6.69.2,13.35,1.27,20.03,1.91,1.32.13,2.74.33,3.98,0,13.57-3.58,27.11-2.34,40.66.04Zm-24.18,32.14c7.04.18,14.06,1.1,21.31,1.7v12.87c-4.56.4-9.29,1.04-14.02,1.17-7.33.2-14.67-.19-21.99.15-3.98.18-7.9,1.71-11.89,1.96-5.3.33-10.69.43-15.95-.15-4.39-.48-8.61-3.63-13.03.08-.59.49-1.94.07-2.94.07-24.66,0-49.33.08-73.99-.09-3.35-.02-6.67-1.62-10.04-1.8-3.23-.17-6.49.77-9.75.85-17.25.41-34.51.66-51.76,1.09-1.83.05-3.63,1.28-5.47,1.36-1.98.09-3.99-.53-5.99-.85-1.1-.18-2.24-.26-3.29-.59-5.46-1.72-10.91-.07-16.36-.03-18.33.14-36.66.02-54.99.09-2.41.01-4.82.77-7.24.85-3.56.12-7.11-.17-10.66-.5-11.56-1.06-23.3-.74-34.94-.27-6.79.27-13.5,2.21-20.3,2.71-4.18.31-8.48-.48-12.66-1.14-3.39-.54-6.64-3.37-10.04.19-.56.59-2.25.11-3.41.11-27.66,0-55.33.2-82.99-.15-6.21-.08-12.38.47-18.59.22-6.82-.27-13.66-.05-20.49-.06-6.83-.01-13.67.04-20.49-.11-2.42-.05-4.83-.9-7.24-.85-11.56.22-23.11.63-34.66.95-1.97.06-3.95,0-6.07,0-.85-4.56-1.65-8.81-2.59-13.83,2.97-.69,6-1.36,9.02-2.1,2.64-.64,5.28-1.96,7.89-1.87,3.32.12,6.59,1.92,9.89,1.95,3.87.03,7.73-1.17,11.62-1.61,1.21-.14,2.51.46,2.38.43,2.81,0,4.3.07,5.79-.02,1.89-.11,3.77-.33,5.65-.54.47-.05.92-.39,1.38-.39,8.98.05,17.97.16,26.95.2,3.17.01,6.35-.21,9.52-.22,29.5-.02,58.99.2,88.49-.07,25.56-.24,51.11-1.21,76.68-1.48,9.22-.1,18.45,1.07,27.69,1.37,3.74.12,7.49-.71,11.25-.8,16.25-.4,32.49-.8,48.74-1,12.99-.16,25.99-.06,38.99,0,1.57,0,3.14.53,4.5.77,1.15-.55,2.46-1.73,3.77-1.72,13.99.11,27.9-.4,41.87,2.49,8.01,1.66,16.76-.2,25.16-.6,12.67-.6,25.33-1.51,38.01-1.92,9.32-.3,18.66-.11,27.99.02,19.77.27,39.54.53,59.3,1.04Zm-466.47-153c.14-3.48.03-6.97.03-10.91,14.05-2.23,27.97-3.19,42.09-1.33,9.9,1.31,19.79.71,29.78-.62,8.67-1.15,17.99-1.78,26.34.22,7.4,1.77,13.86-.02,20.74-.46,5.42-.35,10.83-.95,16.25-.99,17.49-.13,34.98-.16,52.48-.02,31.57.25,63.15.5,94.72,1.05,11.85.21,23.69,1.39,35.54,1.82,2.44.09,4.91-1.72,7.39-1.77,8.32-.18,16.64-.02,24.96.13,2.11.04,4.21.71,6.32.72,19.16.06,38.32-.02,57.47.08,4.09.02,8.2.49,12.26,1.06.97.14,2.31,1.36,2.55,2.32.87,3.43,1.47,6.95,1.85,10.47.07.6-1.36,1.84-2.23,1.99-4.8.84-9.65,2.02-14.48,2-18.41-.07-36.82-.78-55.23-.82-13.58-.03-27.16.67-40.74.84-1.71.02-3.44-1.17-5.18-1.81-1.47.44-3.32,1.47-5.17,1.47-68.8.08-137.61.12-206.41.04-21.79-.03-43.58-.32-65.37-.64-10.75-.16-21.49-.71-32.24-.92-2.87-.06-3.82-1.19-3.71-3.92Zm5.58-24.87c-1.71-7.95-.29-10.2,7.8-10.25,40.61-.23,81.21-.5,121.82-.63,30.68-.1,61.36.02,92.03-.04,13.48-.02,26.96-.18,40.44-.35,20.91-.27,41.82-.79,62.73-.86,12.93-.04,25.86.41,38.78.91,12.68.49,25.34,1.28,38.01,2.04,2.43.15,4.83.76,7.66,1.23v11.13c-17.82,4.15-35.79,3.51-53.72,3.59-5.9.03-11.8.77-17.71.92-6.5.17-13.01.24-19.49-.07-3.32-.16-7.32-2.75-9.76-1.59-6.05,2.86-12.07,1.18-18.06,1.59-1.77.12-3.61-1.18-5.46-1.64-1.08-.27-2.32-.44-3.39-.2-15.77,3.49-31.75,2.65-47.69,2.27-7.24-.17-14.46-1.23-21.69-1.25-9.77-.03-19.54.8-29.31.76-4.81-.02-9.62-1.82-14.41-1.71-14.17.33-28.33,1.55-42.51,1.71-5.84.07-11.61-2.44-17.68-.92-2.98.75-6.18,1.09-9.24.92-3.49-.2-6.93-1.66-10.41-1.72-5.24-.08-10.5.56-15.74.92-4.76.33-9.51.92-14.26.99-9.33.14-18.66.12-27.99-.06-8.09-.16-16.16-.63-24.25-.97-4.3-.19-5.67-2.76-6.53-6.73Zm35.7-111.26v-18c1.82,0,3.6,0,5.38,0,47.49,0,94.98.04,142.47-.05,7.58-.01,15.25-1.45,22.74-.76,12.03,1.11,24.3-.38,36.13,3.58,2.6.87,6.08-.53,9.06-1.28,5.79-1.46,11.38-2.98,17.33-.04,1.52.75,4.22-1.32,6.39-1.37,7.83-.19,15.79-.92,23.45.24,4.68.71,9.02-1.3,13.5.02,4.65,1.36,9.41,2.34,13.99,3.88,1.06.36,2.26,2.4,2.17,3.57-.19,2.47,1.77,5.49-2.13,7.27-11.9,5.44-24.2,4.58-36.61,2.98-.33-.04-.67-.03-1-.04-15.08-.33-30.16-.68-45.25-.96-.67-.01-1.35.61-2.03.94-.28.27-.57.53-.85.8-9.93-.23-19.86-.66-29.78-.65-9.11.01-18.22.89-27.32.7-13-.28-25.99-1.62-38.99-1.73-15.74-.13-31.5.72-47.25.85-20.38.17-40.77.04-61.39.04Zm5.96-32.43c-1.24-3.79-3.01-8.87-1.43-11.65,1.19-2.09,5.48-5.64,10.24-4.45,3.6.9,7.39,1.47,11.1,1.47,53.31.09,106.62.1,159.94,0,4.65,0,9.31-1.42,13.95-1.35,22.27.32,44.55.79,66.81,1.49,7.86.25,15.69,1.32,23.6,2.02.34.51.5.64.51.78.68,11.86.07,12.94-11.93,13.98-9.7.84-19.49,1.22-29.23,1.06-26.16-.43-52.32-1.75-78.48-1.81-53.12-.14-106.24.34-159.35.45-1.99,0-5.34-.79-5.73-1.98Z" class="cls-1"></path>
  </g>
</svg>