<svg xmlns="http://www.w3.org/2000/svg" width="30" height="30" fill="#000"><path d="M14.6497 20.6576c-2.13.06-2.265-1.185-2.97-2.055l-1.87495-2.79-1.59-2.97c-.285-1.005-1.605-1.8-.93-3.40503 2.235-.33 2.13 1.41003 2.99995 2.04003l2.025 2.685 1.71 2.895c.465 1.035 1.56 1.665.645 3.6h-.015z"></path><path d="M22.5398 9.27275c.93 1.92005-.15 2.58005-.645 3.61505l-1.77 2.925-2.055 2.745c-.39.345-.645.93-1.095 1.44-.435.51-1.125.93-1.965.66-.225-1.11-.165-1.56.135-2.025.285-.45.72-.855.84-1.395l1.62-3.015 1.935-2.82c.75-.87.87-2.16004 3.03-2.14504l-.03.01499z"></path></svg>