<svg width="48" height="48" viewBox="0 0 48 48" fill="none" xmlns="http://www.w3.org/2000/svg">
<path d="M32.8713 12.3153C33.3713 15.9153 30.5713 15.7153 29.5713 17.1153L25.2713 20.3153L20.6713 23.0153C19.9713 23.3153 19.3713 23.8153 18.6713 24.2153C19.2713 24.6153 19.7713 25.1153 20.4713 25.3153L25.2713 27.9153L29.7713 31.0153C31.1713 32.2153 33.2713 32.4153 33.1713 35.8153C30.0713 37.3153 29.0713 35.6153 27.3713 34.8153L22.6713 32.0153L18.4713 28.6153C17.8713 28.0153 16.9713 27.6153 16.1713 26.8153C15.4713 26.2153 14.7713 25.2153 15.0713 24.0153C14.9713 20.6153 16.9713 20.4153 18.3713 19.2153L22.8713 16.2153L27.6713 13.7153C29.0713 13.3153 30.3713 11.2153 32.8713 12.3153Z" fill="currentColor"/>
</svg>
