<svg width="48" height="48" viewBox="0 0 48 48" fill="none" xmlns="http://www.w3.org/2000/svg">
<path d="M16.1999 35.9001C15.6999 32.3001 18.4999 32.5 19.4999 31.1L23.7999 27.9L28.3999 25.2001C29.0999 24.9001 29.6999 24.4 30.3999 24C29.7999 23.6 29.2999 23.1 28.5999 22.9L23.7999 20.3L19.2999 17.2001C17.8999 16.0001 15.7999 15.8 15.8999 12.4C18.9999 10.9 19.9999 12.6 21.6999 13.4L26.3999 16.2001L30.7999 19.5001C31.3999 20.1 32.2999 20.5 33.0999 21.3C33.7999 21.9 34.4999 22.9001 34.1999 24.1C34.2999 27.5 32.2999 27.7 30.8999 28.9L26.3999 31.9L21.5999 34.4001C20.0999 34.9001 18.7999 37.0001 16.1999 35.9001Z" fill="currentColor"/>
</svg>
