<svg xmlns="http://www.w3.org/2000/svg" width="30" height="30" fill="#000"><path d="M7.46018 20.7272c-.93-1.92.15-2.58.645-3.615l1.77-2.925 2.05502-2.745c.39-.345.645-.93 1.095-1.44.435-.50996 1.125-.92996 1.965-.65996.225 1.10996.165 1.55996-.135 2.02496-.285.45-.72.855-.84 1.395l-1.62 3.015-1.935 2.82c-.75002.87-.87002 2.16-3.03002 2.145l.03-.015z"></path><path d="M15.3503 9.34242c2.13-.06 2.265 1.18498 2.97 2.05498l1.875 2.79 1.59 2.97c.285 1.005 1.605 1.8.93 3.405-2.235.33-2.13-1.41-3-2.04l-2.025-2.685-1.71-2.895c-.465-1.035-1.56-1.665-.645-3.59998h.015z"></path></svg>