<svg fill="none" viewBox="0 0 30 30" height="30" width="30" xmlns="http://www.w3.org/2000/svg"><path d="M15.097 18.75c1.467.208 1.003.417 1.1.625l.025.625-.245.625c-.256.185.282.446-.892.625-1.674-.177-.819-.439-1.124-.625L13.777 20l.135-.625c.146-.208-.318-.419 1.173-.625h.012ZM15.097 10c1.467.624 1.003 1.251 1.1 1.875l.025 1.875-.245 1.875c-.256.554.282 1.338-.892 1.875-1.674-.533-.819-1.316-1.124-1.875l-.184-1.875.135-1.875c.146-.624-.318-1.256 1.173-1.875h.012Z" fill="currentColor"></path><path clip-rule="evenodd" d="M21.009 24.818c1.593.174 3.225.351 4.991-.123-.179-.435-.343-.857-.504-1.27-.347-.893-.676-1.737-1.094-2.553A744.703 744.703 0 0 0 17.49 7.395C16.972 6.41 16.323 5.4 14.804 5a26.95 26.95 0 0 0-2.021 2.653c-2.16 3.692-4.265 7.4-6.346 11.121-.587 1.048-1.118 2.12-1.677 3.25-.245.495-.496 1.003-.76 1.524 2.82.68 5.725.99 8.619.918 1.859.005 3.67.077 5.562.151l.892.035c.643.025 1.287.095 1.936.166Zm-2.38-2.23c1.383.122 3.118.274 4.316-.088-.203-.552-.677-1.257-1.123-1.92-.35-.518-.682-1.012-.852-1.386a559.325 559.325 0 0 0-4.39-9.626c-.328-.703-.615-1.156-1.58-1.443-.195.254-.405.466-.613.674-.287.29-.569.572-.795.953a479.786 479.786 0 0 0-4.029 7.944c-.241.485-.663 1.133-1.103 1.81-.537.828-1.103 1.699-1.404 2.369 1.79.486 4.274.677 6.11.625.478.001.973-.006 1.475-.013.931-.013 1.887-.027 2.804.013.34.015.744.05 1.183.089Z" fill-rule="evenodd" fill="currentColor"></path></svg>