<svg width="48" height="48" viewBox="0 0 48 48" fill="none" xmlns="http://www.w3.org/2000/svg">
<path d="M40.9 29.3L40.8 35.1C40.6 37 41.1 39 39.5 40.9C37.9 39 38.4 37 38.3 35.1V29.3L38.6 23.5C38.9 21.8 38.3 19.3 39.6 17.7C41.4 19.4 40.5 21.8 40.8 23.5L40.9 29.3ZM27 38.9L21.2 39.1C20.1 39.3 18.8 39 17.5 39.2C17.8 37.7 17.6 36.1 17.8 34.8L17.9 32.5C18.1 32.3 18.2 32.1 18.4 31.8C18.3 31.5 18.1 31.3 18 31.2L18.1 28.8V22.8C18 20.8 18.1 17.4 16.5 15.5C14.9 17.5 15.7 20.9 15.6 22.8L15.5 28.8L15.6 30.5L13.4 30.4L10.8 30.6C10.3 30.8 9.7 30.5 9.1 30.8C9.4 29.3 9.2 27.6 9.4 26.3L9.7 20.3V14.3C9.6 12.3 10.1 10.3 8.5 8.4C10.3 9.8 12.2 9.4 14.1 9.5L19.9 9.6L25.7 9.4C26.9 9.2 28.5 9.6 29.9 9.2C29.9 9.3 29.9 9.4 29.8 9.5L29.5 12.1V14.7C29.5 15 29.5 15.3 29.5 15.6L27.1 15.5H21.3C19.4 15.6 19.6 14.9 17.6 16.5C19.5 18.1 19.4 17.8 21.3 18L27.1 18.1L37.8 18.6C39.5 18.3 38.3 18.3 39.9 16.5C38.2 15.2 34.6 16 32.9 15.7H32C32 15.4 32 15 32 14.7L32.1 12.1L31.9 9.6C31.6 8.8 32.5 7.7 30.7 7C30.4 7.2 30.2 7.4 30 7.6C28.5 7.2 26.8 7.5 25.5 7.3L19.8 7H14C12.1 7.1 10.1 6.6 8.2 8.2C8.3 8.2 8.3 8.3 8.4 8.3C6.8 10.3 7.3 12.3 7.1 14.3L7 20.3L7.2 26.3C7.5 28.1 6.6 30.6 8.4 32.3C8.4 32.3 8.4 32.2 8.5 32.2C9.2 33 10.1 32.6 10.8 32.8L13.4 33.1H15.7L15.8 34.8C16.1 36.2 15.5 38.2 16.3 39.7C16.1 39.9 15.8 40 15.6 40.3C17.3 41.6 19.7 41 21.4 41.3L27.2 41.6H33C34.9 41.5 36.9 42 38.8 40.4C36.9 38.8 34.9 39.3 33 39.1L27 38.9Z" fill="#222222"/>
</svg>
