<svg fill="none" height="26" width="23" xmlns="http://www.w3.org/2000/svg"><g clip-path="url(#a)"><path d="M23 13.002c.02-1-.06-1.67-.11-2.11l-.03-.27c-.02-.15-.03-.3-.03-.43l-.02-.25-.08-.19a6.86 6.86 0 0 1-.22-.61c-.13-.4-.32-.84-.5-1.19l-.23-.41-.11-.14v-.02l-.04-.02.09-.14-.23-.19-.07-.1a10.27 10.27 0 0 0-.87-1.07l-2.34-2.26c-.79-.69-1.44-1.15-2.11-1.5-1.41-.72-2.87-1.07-4.77-1.14-.9 0-1.8.11-2.68.32a11.826 11.826 0 0 0-3.92 1.77c-.72.51-1.35 1.06-1.93 1.69l-.22.24c-.46.53-.86 1.1-1.2 1.69s-.62 1.19-.82 1.79c-.3.87-.48 1.74-.54 2.62l-.03.94c-.01 1.21.08 2.25.28 3.15.11.51.26 1.02.47 1.54.44 1.16 1.06 2.2 1.62 3.1l.25.38.07.11.66-.38-.61.45.57.79.85-.53-.55.43-.29.14.22.3c.05.06.13.13.24.24l.48.42.52.53.08-.08c.42.29.87.55 1.35.79.2.1.38.17.52.22.15.06.23.08.29.09l.87.22h.05c.23.08.59.16.99.22.17.03.59.09.85.09l.89-.04.25-.03h.28l.19-.04.33.04.19.02c.12.02.28.04.44.09l.44.08.77.2.04-.02.31.21.4-.09h.07c.17.29.49.48.86.48.55 0 1-.45 1-1 0-.25-.09-.47-.24-.64l.71-.66.34-.32c.05-.04.12-.11.19-.15.16-.09.32-.19.57-.36l.39-.25.06.06.9-.78.25-.21a4.48 4.48 0 0 0 .33-.3l.02-.02.44-.5 1.29-1.69c.38-.57.64-1.06.86-1.6a8.03 8.03 0 0 0 .46-1.63l.08-.57.05-.39-.09-.13.07-.02h-.07l-.12-.16.26-.27.02-.55zm-18.78 7.74.36-.31-.24.24-.11.07h-.01zm16.56-6.38c.02.08.05.16.08.23 0 .05-.02.1-.03.16-.1.58-.21.91-.34 1.23-.17.41-.37.78-.68 1.25-.37.55-.77 1.05-1.17 1.53-.11.14-.2.24-.28.32l-.6.52-.08.07-.06.05c-.17.15-.29.23-.33.26-.22.12-.43.26-.64.4l-.39.25-.09.05c-.17.1-.34.26-.47.37l-.37.34-.91.85-.4.35-.62-.13c-.05-.02-.1-.03-.16-.05l-.08-.02h-.04l-.16-.04c-.04 0-.1-.01-.17-.02a4.86 4.86 0 0 0-.63-.12l-.58-.07c-.13-.01-.24 0-.31 0l-.28.04h-.33c-.13.01-.25.04-.27.04-.16.02-.34.02-.6.02-.09 0-.28-.02-.53-.06l-.75-.17-.99-.25-.07-.02-.36-.15c-.76-.37-1.41-.81-1.93-1.3l-.06-.06-.03-.04h-.01s-.03-.02-.04-.04l-.24.22-.42.27.63-.58-.21-.29-.81.59.71-.73-.29-.4a8.52 8.52 0 0 0-.33-.5c-.49-.78-1.04-1.72-1.43-2.73-.16-.42-.29-.83-.38-1.25-.17-.76-.25-1.64-.24-2.7l.03-.83c.05-.69.19-1.39.43-2.09.17-.48.39-.96.67-1.44s.61-.95.97-1.36l.2-.22c.48-.52 1-.98 1.6-1.4.54-.37 1.12-.7 1.72-.96.5-.22 1.02-.39 1.52-.51.72-.17 1.47-.26 2.18-.27 1.55.05 2.75.34 3.88.91.52.27 1.05.65 1.72 1.24.66.57 1.36 1.25 2.19 2.12.32.34.53.61.65.78.01.04.03.08.05.13.08.19.19.36.32.52a1.9 1.9 0 0 1 .11.21 6.27 6.27 0 0 1 .37.88l.23.66c0 .13.02.27.03.4l.03.29.1 1.67c-.29.47-.37 1.03-.22 1.57l-.01.01zm-10.46-2.69c-.17.33-.25.7-.25 1.13a2.29 2.29 0 0 0 .26 1.1c.17.33.41.59.72.78s.65.29 1.05.29c.27 0 .53-.03.76-.1a2.11 2.11 0 0 0 .64-.31c.2-.14.38-.31.55-.51l1.36 1.66c-.36.45-.86.81-1.5 1.08a5.39 5.39 0 0 1-2.05.4c-.81 0-1.54-.19-2.19-.57-.64-.38-1.16-.9-1.53-1.56-.38-.66-.56-1.41-.56-2.24s.19-1.58.56-2.24a4.24 4.24 0 0 1 1.53-1.56c.65-.38 1.37-.57 2.19-.57.75 0 1.44.13 2.07.4s1.13.63 1.5 1.11l-1.38 1.65a3.44 3.44 0 0 0-.52-.48 2.51 2.51 0 0 0-.67-.35c-.24-.08-.5-.13-.76-.13-.4 0-.76.09-1.06.28a1.82 1.82 0 0 0-.71.77l-.01-.03z" fill="#222"></path></g><defs><clipPath id="a"><path d="M0 .982h23v24.17H0z" fill="#fff"></path></clipPath></defs></svg>