<svg width="32" height="32" viewBox="0 0 32 32" fill="none" xmlns="http://www.w3.org/2000/svg">
<path d="M8.58234 6.02511C9.53267 5.86665 10.4337 6.47421 10.655 7.39729C10.6629 7.41146 10.6732 7.42902 10.6863 7.45047C10.7218 7.50847 10.7642 7.5725 10.8245 7.66198L10.8415 7.68715C10.8925 7.76272 10.9639 7.86857 11.0271 7.97028C11.1765 8.21075 11.3662 8.45392 11.6141 8.74651C11.6823 8.82695 11.7636 8.9209 11.8515 9.0226C12.0407 9.24122 12.2608 9.49569 12.4485 9.72897C13.3982 10.9096 14.5093 11.9381 15.7489 12.994C15.9092 12.8295 16.0713 12.6613 16.2377 12.4888L16.2392 12.4872C16.6644 12.0461 17.1173 11.5762 17.5926 11.1197C17.6834 11.0325 17.7762 10.9428 17.8708 10.8513C18.3924 10.347 18.9724 9.78626 19.6073 9.26951C19.8099 9.10459 20.0311 8.93762 20.219 8.79576C20.275 8.75347 20.3281 8.71337 20.3768 8.67627C20.6114 8.49762 20.7928 8.35285 20.9434 8.21287C21.0516 8.11243 21.1563 8.03307 21.2373 7.97563C21.3203 7.91682 21.3998 7.86596 21.4651 7.82563C21.5304 7.78525 21.5947 7.74728 21.6456 7.7174L21.6751 7.70006C21.7161 7.67591 21.7483 7.65699 21.7808 7.63745L21.788 7.6331C22.3192 7.00873 23.2257 6.80206 23.9916 7.18516C24.8924 7.63574 25.2575 8.73155 24.8071 9.63273C24.5955 10.056 24.286 10.3212 24.1319 10.4437C23.955 10.5841 23.7747 10.6954 23.6605 10.7641C23.5753 10.8154 23.5304 10.8415 23.4947 10.8622C23.4584 10.8833 23.4317 10.8989 23.3817 10.9298L23.3704 10.9368C23.0999 11.183 22.8224 11.3992 22.5858 11.5795C22.5101 11.6371 22.4402 11.6899 22.3743 11.7397C22.2007 11.8708 22.0554 11.9805 21.9089 12.0998C21.405 12.5099 20.9527 12.9467 20.4299 13.4515C20.329 13.5489 20.2253 13.6489 20.1183 13.7517C19.7019 14.1517 19.2968 14.5713 18.8644 15.0199L18.8413 15.0438C18.7206 15.1691 18.5976 15.2967 18.4726 15.4255C19.2334 16.1648 19.9637 16.9285 20.6731 17.7154C21.1303 18.2225 21.6058 18.711 22.0731 19.1186C22.2041 19.2328 22.3428 19.3369 22.5429 19.4869L22.6687 19.5813C22.9084 19.7617 23.2311 20.0085 23.532 20.3095C23.5833 20.3608 23.6154 20.3887 23.6706 20.4366C23.7189 20.4786 23.7848 20.5359 23.8967 20.6376C24.0709 20.796 24.3439 21.0555 24.5766 21.4047C25.1353 22.243 24.9089 23.3757 24.0709 23.9345C23.2373 24.4905 22.1126 24.2692 21.551 23.4417L21.55 23.4407C21.5423 23.4324 21.5131 23.4007 21.4438 23.3377C21.4049 23.3023 21.3721 23.2735 21.3299 23.2364C21.305 23.2145 21.2768 23.1897 21.2421 23.1589C21.1628 23.0886 21.0588 22.9952 20.9532 22.8894C20.8501 22.7863 20.7094 22.6725 20.4764 22.4972L20.3819 22.4264C20.1841 22.2785 19.9194 22.0807 19.6765 21.8688C19.0582 21.3295 18.4747 20.7246 17.9649 20.1591C17.3054 19.4277 16.6329 18.7245 15.9379 18.049C15.4661 18.5688 14.9568 19.1296 14.4135 19.667C14.0361 20.0404 13.6662 20.4215 13.2812 20.8182L13.1688 20.934C12.7483 21.3671 12.3098 21.8169 11.8544 22.2595C11.2697 22.8277 10.8139 23.4063 10.3855 24.1173C9.86554 24.9802 8.74484 25.258 7.88234 24.7378C7.01984 24.2176 6.74215 23.0964 7.26209 22.2336C7.84621 21.2642 8.49551 20.4371 9.31319 19.6424C9.72641 19.2408 10.1316 18.8255 10.5527 18.3918L10.6674 18.2737C11.0481 17.8813 11.4439 17.4735 11.8493 17.0725C12.3065 16.6202 12.742 16.1424 13.212 15.6248C11.9667 14.5567 10.7146 13.3932 9.60719 12.0164C9.45631 11.8289 9.3188 11.6703 9.16082 11.4881C9.06205 11.3743 8.95527 11.2511 8.83223 11.1059C8.54558 10.7677 8.22063 10.3646 7.92995 9.8969C7.90452 9.85599 7.87171 9.80728 7.80782 9.71243L7.79999 9.7008C7.74002 9.61175 7.65722 9.48846 7.57568 9.35519C7.43516 9.1255 7.17534 8.67628 7.08342 8.12451C6.91785 7.13068 7.58894 6.19074 8.58234 6.02511Z" fill="black"/>
</svg>
