<svg xmlns="http://www.w3.org/2000/svg" fill="none" viewBox="0 0 5 5" height="5" width="5">
<path fill="#575756" d="M2.752 4.32C2.42133 4.32 2.10667 4.23467 1.808 4.064C1.52 3.89333 1.29067 3.664 1.12 3.376C0.949333 3.088 0.864 2.77333 0.864 2.432C0.864 2.06933 0.949333 1.744 1.12 1.456C1.29067 1.168 1.52 0.938666 1.808 0.768C2.096 0.597333 2.41067 0.512 2.752 0.512C3.11467 0.512 3.44 0.597333 3.728 0.768C4.02667 0.938666 4.26133 1.168 4.432 1.456C4.60267 1.744 4.688 2.06933 4.688 2.432C4.688 2.77333 4.60267 3.088 4.432 3.376C4.26133 3.664 4.02667 3.89333 3.728 4.064C3.44 4.23467 3.11467 4.32 2.752 4.32Z"></path>
</svg>
