<svg xmlns="http://www.w3.org/2000/svg" width="30" height="30" fill="#000"><path d="M7.42676 24.4136c1.26724-1.2069 2.53448-.8247 3.81174-.9052l3.8118-.0201 3.8118.2011c1.1264.2112 2.7155-.2313 3.8118.7342-1.0762 1.3779-2.6753.6739-3.8118.9253l-3.8118.1509-3.8118-.1107c-1.2672-.1206-2.55456.2615-3.81174-.9655v-.01z"></path><path d="M22.4624 24.6149c-1.2069-.4224-.8247-.8449-.9052-1.2673l-.0201-1.2672.2012-1.2673c.2112-.3721-.2314-.9051.7342-1.2672 1.3778.3621.6738.8951.9252 1.2672l.1509 1.2673-.1106 1.2672c-.1207.4224.2615.8549-.9655 1.2673h-.0101zm-14.88479-5.069c1.2069.4224.81465.8247.88506 1.2371v1.227l-.22126 1.2169c-.21121.3621.22126.875-.75431 1.2069-1.36782-.362-.6638-.8649-.90518-1.237l-.13075-1.2271.13075-1.2169c.13075-.4023-.25144-.8247.98563-1.2069h.01006zm7.50299 2.5043c-.4828-1.2471.1911-1.408.533-1.8908l1.1768-1.2874 1.3376-1.1364c.5029-.2314.6738-1.0661 1.7299-.7644.6638 1.2974-.342 1.3477-.513 1.9008l-1.0862 1.3679-1.2672 1.1968c-.4828.3319-.6034 1.0359-1.8908.6135h-.0201z"></path><path d="M10.1421 16.9611c1.2873-.3922 1.408.2816 1.8908.6437l1.2873 1.2371 1.1365 1.408c.2314.523 1.0862.7644.7342 1.8104-1.3477.5733-1.3477-.4325-1.9008-.6336l-1.3678-1.1466-1.2069-1.3477c-.3319-.5129-1.05608-.694-.5633-1.9713h-.01z"></path><path d="M15.1507 4.5c1.2069 1.44828.8247 2.90661.9051 4.35489l.0201 4.35491-.2011 4.3549c-.2112 1.2873.2313 3.1077-.7342 4.3548-1.3779-1.237-.6738-3.0574-.9253-4.3548l-.1508-4.3549.1106-4.35491c.1207-1.44828-.2615-2.91667.9655-4.35489h.0101z"></path></svg>