<svg xmlns="http://www.w3.org/2000/svg" fill="none" viewBox="0 0 48 48" height="48" width="48">
<g id="Icon=Edit">
<path fill="currentcolor" d="M30.9732 9.72362C30.2834 10.2409 28.7791 11.5526 28.7789 11.9182C28.6578 12.1607 29.1818 12.542 29.6811 12.9053C29.9354 13.0904 30.1834 13.2708 30.3364 13.4259C32.0309 15.1712 33.7401 16.9014 35.464 18.6163C35.8428 18.9932 36.2748 19.3621 36.9065 19.3167C36.958 19.0648 37.3025 18.7705 37.6802 18.4479C38.0592 18.1242 38.4715 17.772 38.6547 17.4056C39.6899 16.6528 40.7689 15.0665 40.4847 13.5645C40.3475 12.8396 39.9362 12.1013 39.2046 11.3696C38.4811 10.8873 38.3055 10.6772 38.1703 10.5154C38.1005 10.4318 38.0414 10.3611 37.923 10.2723C37.3184 9.51072 36.98 9.33159 36.6512 9.15747C36.4271 9.03886 36.2075 8.92259 35.9111 8.62613C35.1113 7.98967 34.3926 7.78642 33.3512 8.26035C32.5278 8.3975 32.0135 8.84334 31.4991 9.28917C31.3276 9.4378 31.1561 9.58643 30.9732 9.72362ZM26.8207 18.7587C26.6545 18.919 26.4882 19.0861 26.3354 19.2772L20.9635 24.9288L14.3426 32.0203C14.0652 32.1689 13.7177 32.4192 13.3203 32.7056C12.8264 33.0615 12.2554 33.473 11.6458 33.8135L11.542 34.6453L11.4857 35.8347C11.4823 36.1406 11.4751 36.4428 11.464 36.7443C11.5934 36.731 11.7227 36.7174 11.852 36.7037C12.5635 36.7557 13.2619 36.7955 13.9698 36.798C14.0846 36.7984 14.1971 36.7816 14.3097 36.7596C14.4653 36.6003 14.6272 36.4498 14.7844 36.3037C15.1723 35.9431 15.531 35.6097 15.6929 35.2388L23.0429 27.7138L28.5814 22.2301C28.844 22.0357 29.0702 21.805 29.2965 21.5742C29.3391 21.5308 29.3816 21.4874 29.4244 21.4443C29.0201 21.07 28.6074 20.7141 28.1946 20.3583C27.7476 19.8071 27.3008 19.2738 26.8207 18.7587ZM15.5297 39.8204C16.2971 39.5839 17.0893 38.9302 18.7365 37.571L19.0179 37.3388L25.6388 30.2473L31.0107 24.5957C31.1989 24.3604 31.4163 24.1537 31.6338 23.9469C32.3712 23.2457 33.1093 22.5438 32.7114 20.7261C32.7289 20.2128 32.4809 19.9568 32.2343 19.7024C32.1108 19.575 31.9877 19.448 31.8986 19.2892C31.3977 18.6997 30.8973 18.1462 30.3627 17.5931L29.4181 16.9544L28.517 15.9203C28.4224 15.8494 28.3367 15.7754 28.2548 15.7047C28.0368 15.5165 27.8456 15.3515 27.5856 15.3297C26.0016 14.9207 25.3139 15.594 24.6066 16.2864C24.3845 16.5039 24.1605 16.7232 23.9061 16.9116L18.3676 22.3953L11.0176 29.9203C10.6978 30.2401 10.3814 30.5122 10.0884 30.7642C9.62487 31.1629 9.21973 31.5113 8.95158 31.9185C8.21353 32.6283 8.19091 33.2097 8.16829 33.7909C8.16346 33.9148 8.15864 34.0388 8.14688 34.1639C8.1268 34.8716 8.06967 35.5686 8 36.2785C8.05455 36.958 8.10909 37.6375 8.12632 38.3311C8.2523 38.9684 8.64504 39.8565 9.35248 40.0374C9.45571 40.0652 9.56173 40.072 9.67632 40.0795C9.80276 40.0877 9.93964 40.0966 10.0948 40.1349C10.8674 40.1737 11.6134 40.188 12.3825 40.1773L13.7062 40.1349L14.8655 39.9779L14.8986 39.9721C15.1291 39.9319 15.3419 39.8948 15.5297 39.8204Z" clip-rule="evenodd" fill-rule="evenodd" id="Vector"></path>
</g>
</svg>
