<svg xmlns="http://www.w3.org/2000/svg" width="30" height="30" fill="#000"><path d="M7.60999 7.20872c.13449 1.13399.31382 1.77337.47073 2.41274.15691.61524.38106 1.18224.88542 1.54414.47072.374 1.08716.567 1.64756.5067.538-.0483 1.2216-.3981 1.67-.8203.4819-.3981.7621-.90482.7845-1.44769 0-.27746-.0336-.45841-.1905-.72382-.1457-.25333-.4371-.56699-.7173-.88064-.4596-.62732-1.0199-.92891-1.7036-.96511-.69491-.04825-1.35617.04826-2.23038.18096-.06724-1.15812 1.08716-2.05083 2.24158-2.01464.5828 0 1.1768.16889 1.6924.45842.5043.28953.8854.63938 1.2328.86859l.1794.16889.4707.45842c.2017.21715.4483.50668.6724.91685.2242.42223.3587.94097.3923 1.43558.0673.98919-.2914 1.94229-.6612 2.50929-.3699.579-.6949.8565-.6949.8565-.863.7359-1.7933 1.2064-2.9365 1.3149-1.14317.0845-2.23033-.3016-3.09333-1.0254-.82938-.7359-1.52427-1.8337-1.59151-3.01591-.11208-1.14606.4371-2.38862 1.49064-2.72641l-.01121-.01206zm5.52961 7.86278l-2.8771 1.7677c-.54442.44-1.01034.9212-1.14532 1.5715-.16215.6241-.07793 1.3011.23431 1.8049.2901.4883.94711.9723 1.57071 1.1985.6146.2696 1.247.2961 1.7997.0606.2773-.1312.443-.2487.6378-.5233.1877-.2583.3702-.6835.5577-1.0981.4204-.7332.4699-1.4083.1987-2.0749-.2642-.683-1.2182-1.4408-1.7439-2.2085 1.1273-.6117 3.0988.2379 3.5817 1.3518.262.5537.3602 1.1979.3027 1.8246-.0627.6162-.241 1.1437-.3139 1.5822l-.0882.2502-.2465.6641c-.1264.2943-.3049.6655-.6141 1.0725-.3212.4127-.7792.7858-1.2585 1.0517-.9585.5318-2.0723.6419-2.8053.5587-.745-.0775-1.16847-.2551-1.16847-.2551-1.12352-.4718-2.01201-1.133-2.63451-2.1677-.59838-1.0462-.70132-2.2616-.36586-3.4239.36263-1.136 1.14745-2.3154 2.29887-2.9385 1.09507-.6486 3.08447-1.2098 3.89567-.3687l.1838.2997z"></path><path d="M24.3516 18.8546c-1.4988.7782-2.0448-.0618-2.8747-.4306l-4.6941-2.6875-2.2173-1.5655c-.2816-.301-.7501-.4899-1.1636-.8347-.4131-.333-.7607-.8697-.5656-1.5403.8734-.2025 1.2308-.165 1.6053.0621.3624.2156.6924.5509 1.1224.634l2.4214 1.2154 4.6147 2.8203c.7049.5743 1.7283.6408 1.764 2.3502l-.0125-.0234z"></path><path d="M24.4464 9.11502c-.0755 1.68708-1.076 1.73988-1.8103 2.27418l-4.6745 2.7215-2.4645 1.1375c-.4014.0934-.7993.4047-1.3046.5903-.4949.1913-1.1335.224-1.6167-.2803.2613-.8576.4725-1.1484.8565-1.3592.3678-.206.8232-.3242 1.1101-.655l2.2633-1.4892 4.7498-2.58634c.8498-.32335 1.4191-1.17636 2.9174-.35258l-.0265-.00086z"></path></svg>