<svg width="48" height="48" viewBox="0 0 48 48" fill="none" xmlns="http://www.w3.org/2000/svg">
<g id="Icon=Error">
<path id="Vector" d="M7.82477 23.5799C7.79665 24.9861 7.90914 25.9282 7.97945 26.5469L8.02163 26.9265C8.04975 27.1374 8.06381 27.3484 8.06381 27.5311L8.09194 27.8827L8.20443 28.1498C8.30285 28.3889 8.41534 28.6842 8.51377 29.0076C8.69657 29.57 8.96373 30.1887 9.21683 30.6809C9.34338 30.934 9.45587 31.1308 9.54024 31.2574L9.69491 31.4542V31.4823L9.75116 31.5105L9.62461 31.7073L9.94802 31.9745L10.0464 32.1151C10.3699 32.5791 10.7776 33.0853 11.2698 33.6197C12.5072 34.9273 13.5477 35.9257 14.5601 36.7975C15.6709 37.7677 16.5849 38.4145 17.527 38.9067C19.5096 39.9191 21.5626 40.4112 24.2342 40.5096C25.4997 40.5096 26.7652 40.355 28.0026 40.0597C28.8744 39.8488 29.7462 39.5535 30.6039 39.1879C31.6304 38.7379 32.6147 38.2036 33.5146 37.5709C34.527 36.8537 35.4129 36.0804 36.2284 35.1945L36.5378 34.857C37.1846 34.1118 37.747 33.3103 38.2251 32.4807C38.7032 31.6511 39.0969 30.8074 39.3781 29.9637C39.8 28.7404 40.0531 27.5171 40.1374 26.2797C40.1656 25.8438 40.1796 25.4079 40.1796 24.9579C40.1937 23.2565 40.0671 21.7942 39.7859 20.5287C39.6312 19.8115 39.4203 19.0944 39.125 18.3632C38.5063 16.7321 37.6345 15.2698 36.8471 14.0043C36.7206 13.8215 36.594 13.6387 36.4956 13.4699L36.3971 13.3153L35.4691 13.8496L36.3268 13.2168L35.5254 12.106L34.3301 12.8512L35.1035 12.2466L35.5113 12.0498L35.2019 11.6279C35.1316 11.5436 35.0191 11.4451 34.8645 11.2905C34.6536 11.0936 34.4286 10.8967 34.1895 10.6999L33.4584 9.95464C33.4162 9.99682 33.388 10.0249 33.3459 10.0671C32.7553 9.65935 32.1225 9.29376 31.4476 8.95629C31.1664 8.81568 30.9133 8.71725 30.7164 8.64695C30.5055 8.56258 30.393 8.53446 30.3086 8.5204L29.0853 8.21105C29.0853 8.21105 29.0431 8.21105 29.015 8.21105C28.6916 8.09856 28.1854 7.98607 27.623 7.9017C27.3839 7.85952 26.7933 7.77515 26.4277 7.77515C25.8794 7.77515 25.5278 7.77515 25.1763 7.8314L24.8248 7.87358H24.4311L24.1639 7.92982C24.0373 7.91576 23.9389 7.9017 23.6999 7.87358L23.4327 7.84546C23.264 7.81734 23.039 7.78921 22.814 7.71891L22.1953 7.60642C20.1912 7.08585 18.1569 8.41045 16.6833 9.74372C16.5146 9.91245 16.3459 10.0671 16.2053 10.1937C16.1349 10.2499 16.0365 10.3484 15.9381 10.4046C15.7131 10.5311 15.4881 10.6718 15.1366 10.9108C14.9819 11.0092 14.7991 11.1358 14.5882 11.2623L14.5038 11.178L13.2383 12.2747C13.1258 12.3732 12.9852 12.4857 12.8868 12.57C12.7321 12.6966 12.5775 12.8372 12.4228 12.9919L12.3947 13.02C12.1978 13.2309 11.9869 13.4559 11.776 13.723C11.1854 14.4261 10.5526 15.1995 9.96208 16.0994C9.42775 16.9009 9.06216 17.5899 8.75281 18.3492C8.45753 19.0804 8.27473 19.7412 8.106 20.6412C8.04976 20.9927 8.00757 21.2458 7.99351 21.4426L7.9232 21.991L8.04975 22.1738L7.95132 22.202H8.04975L8.21849 22.4269L7.8529 22.8066L7.82477 23.5799ZM34.2317 12.6966L33.7255 13.1325L34.063 12.795L34.2177 12.6966H34.2317ZM10.9464 21.6676C10.9182 21.5551 10.8761 21.4426 10.8339 21.3442C10.8339 21.2739 10.862 21.2036 10.8761 21.1192C11.0167 20.3037 11.1713 19.8397 11.3541 19.3897C11.5932 18.8132 11.8744 18.2929 12.3103 17.6321C12.8306 16.8587 13.393 16.1556 13.9555 15.4807C14.1101 15.2838 14.2367 15.1432 14.3492 15.0307L15.1928 14.2996C15.1928 14.2996 15.2772 14.2292 15.3053 14.2011L15.3897 14.1308C15.6287 13.9199 15.7975 13.8074 15.8537 13.7652C16.1631 13.5965 16.4584 13.3996 16.7536 13.2028C16.9646 13.0622 17.1333 12.9497 17.302 12.8512L17.4286 12.7809C17.6676 12.6403 17.9067 12.4153 18.0895 12.2607C18.2441 12.1201 18.4269 11.9513 18.6097 11.7826C19.7568 10.7237 20.6104 10.2364 22.1813 10.4608C22.5047 10.5452 22.8281 10.6015 23.0671 10.6296L23.8827 10.728C24.0655 10.7421 24.2201 10.728 24.3186 10.728L24.7123 10.6718C24.867 10.6718 25.0216 10.6718 25.1763 10.6718C25.3591 10.6577 25.5278 10.6155 25.556 10.6155C25.7809 10.5874 26.034 10.5874 26.3996 10.5874C26.5262 10.5874 26.7933 10.6155 27.1449 10.6718C27.5386 10.7421 27.9042 10.8124 28.1995 10.9108C28.551 11.0092 29.1837 11.178 29.5915 11.2623L29.6899 11.2905C29.8306 11.3467 30.0134 11.417 30.1962 11.5014C31.2648 12.0216 32.1788 12.6403 32.91 13.3293C32.9381 13.3575 32.9662 13.3856 32.9943 13.4137L33.0365 13.4699H33.0506C33.0506 13.4699 33.0928 13.4981 33.1068 13.5262L33.4443 13.2168L34.0349 12.8372L33.149 13.6527L33.4443 14.0605L34.5833 13.2309L33.5849 14.2574L33.9927 14.8198C34.1192 15.0307 34.288 15.2838 34.4567 15.5229C35.1457 16.6197 35.9191 17.9414 36.4675 19.3616C36.6924 19.9522 36.8752 20.5287 37.0018 21.1192C37.2408 22.1879 37.3533 23.4253 37.3392 24.9158C37.3392 25.3095 37.3252 25.7032 37.2971 26.0828C37.2268 27.0531 37.0299 28.0374 36.6924 29.0216C36.4534 29.6966 36.144 30.3715 35.7503 31.0465C35.3566 31.7214 34.8926 32.3823 34.3864 32.9588L34.1052 33.2681C33.4302 33.9993 32.699 34.6461 31.8554 35.2367C31.0961 35.757 30.2805 36.221 29.4368 36.5866C28.7338 36.8959 28.0026 37.135 27.2995 37.3037C26.2871 37.5427 25.2325 37.6693 24.2342 37.6833C22.0547 37.613 20.3674 37.2053 18.7785 36.4038C18.0473 36.0241 17.302 35.4898 16.3599 34.6602C15.4319 33.8587 14.4476 32.9025 13.2805 31.6792C12.8306 31.2011 12.5353 30.8215 12.3665 30.5824C12.3525 30.5262 12.3244 30.4699 12.2962 30.3996C12.1837 30.1325 12.0291 29.8934 11.8463 29.6685C11.8041 29.5981 11.7478 29.4997 11.6916 29.3732C11.5088 29.0216 11.2979 28.5295 11.1713 28.1358C11.0729 27.8124 10.9604 27.503 10.8479 27.2077C10.8479 27.0249 10.8198 26.8281 10.8057 26.6453L10.7636 26.2375C10.7073 25.6891 10.623 24.9579 10.623 23.8893C11.0307 23.2284 11.1432 22.441 10.9323 21.6817L10.9464 21.6676Z" fill="#222222"/>
<path id="Vector_2" fill-rule="evenodd" clip-rule="evenodd" d="M29.9999 28.2357C29.9188 28.1141 29.8783 27.9925 29.7567 27.9114C29.554 27.7087 29.3513 27.506 29.108 27.3438C28.9864 27.3033 28.8648 27.2627 28.7431 27.2222C28.7431 27.2222 28.7431 27.2222 28.7431 27.1816C28.7431 27.1411 28.7837 27.06 28.7431 27.06C28.6215 26.8979 28.4999 26.7762 28.3783 26.6546C28.3377 26.6141 28.3377 26.6141 28.2972 26.5735C28.2566 26.533 28.2161 26.533 28.1756 26.4924C28.0945 26.4519 28.0134 26.4114 28.0134 26.2897C28.0134 26.2087 27.9323 26.2087 27.8512 26.2087C27.7702 26.2087 27.6891 26.2087 27.6891 26.1276C27.6485 25.9654 27.5675 25.8438 27.4458 25.7222C27.3242 25.6005 27.2026 25.4789 27.2026 25.3168C26.635 24.8303 26.0269 24.3438 25.4593 23.8573C26.1485 23.1681 26.8377 22.56 27.5675 21.9113C27.8918 21.6275 28.2161 21.3437 28.581 21.0599C28.8648 20.8167 29.1486 20.614 29.4323 20.3707C29.635 20.2086 29.7567 20.0464 29.8783 19.8032C29.9999 19.5599 29.8783 19.3167 29.5134 18.8302C28.8648 18.0599 28.7837 18.0194 28.3377 18.1004C28.2567 18.1004 28.2161 18.1004 28.1756 18.141C27.3647 18.5464 26.635 19.114 25.9863 19.8032C25.5404 20.2491 25.135 20.6951 24.689 21.141C24.5269 21.3032 24.3647 21.4653 24.2025 21.587C24.0809 21.7086 23.9593 21.8302 23.7971 21.9518C23.716 22.0329 23.635 22.114 23.5539 22.1951C22.9052 21.5464 22.2971 20.8978 21.689 20.2086C21.4457 19.9248 21.162 19.6005 20.9187 19.3167C20.716 19.0734 20.5133 18.8302 20.3106 18.5869C20.1484 18.3842 19.9457 18.2221 19.7025 18.1004C19.4998 17.9788 19.2971 18.141 18.9727 18.4653C18.3241 19.1545 18.3241 19.195 18.4457 19.6815C18.4457 19.7221 18.4862 19.8032 18.5268 19.8437C18.9727 20.614 19.4998 21.3032 20.1079 21.9113C20.2701 22.0735 20.4322 22.2356 20.5944 22.3978C20.9998 22.7627 21.4052 23.1681 21.7701 23.5329C21.8917 23.6546 22.0539 23.8167 22.1755 23.9384C22.0944 24.06 22.0133 24.1816 21.8917 24.3032C21.6079 24.6681 21.3241 25.033 20.9187 25.2762C20.6755 25.4384 20.4728 25.6411 20.2701 25.8843C20.1484 26.0059 20.0268 26.1681 19.9052 26.2897C19.6214 26.533 19.3376 26.7762 19.0944 27.0195C18.77 27.3033 18.4457 27.5871 18.1619 27.8708C18.0808 27.9519 18.0403 28.033 18.0403 28.1546C18.0403 28.1952 17.9998 28.2763 17.9998 28.3168C18.5673 28.7627 18.9727 29.3303 19.3782 29.9384C19.4187 29.979 19.4592 30.0195 19.4592 30.0601C19.8646 30.0195 20.1079 29.7357 20.3106 29.4519C20.3917 29.3303 20.5133 29.1682 20.6349 29.0871C20.6755 29.0465 20.6755 28.9654 20.6755 28.8844C20.6755 28.8438 20.6755 28.8033 20.6755 28.8033C20.716 28.8033 20.7565 28.8033 20.7971 28.8438C20.8376 28.8438 20.9187 28.8844 20.9187 28.8438C21.0809 28.7222 21.2025 28.6006 21.3241 28.4384C21.3241 28.4384 21.3241 28.4384 21.3647 28.3979C21.4457 28.3168 21.5268 28.2357 21.6079 28.1546C21.8106 27.9519 22.0539 27.7087 22.216 27.4654C22.2566 27.3843 22.3377 27.3843 22.4187 27.3438C22.4998 27.3438 22.5809 27.3033 22.6214 27.2627C23.1079 26.6951 23.5539 26.087 24.0404 25.5195C24.2025 25.6411 24.3647 25.7627 24.5269 25.8843C25.0539 26.3708 25.5404 26.8573 26.0674 27.3438C26.1891 27.4654 26.3107 27.5871 26.4323 27.7087C26.635 27.9114 26.8377 28.1141 26.9999 28.3573C27.1215 28.5195 27.2837 28.6411 27.4053 28.8033C27.6485 29.0465 27.8918 29.3303 28.1756 29.5736C28.2566 29.6546 28.3783 29.7357 28.4999 29.8168C28.5404 29.8574 28.6215 29.8979 28.6621 29.8979C28.7431 29.8168 28.8242 29.6952 28.9053 29.6141C29.0675 29.4114 29.1891 29.2492 29.3513 29.0871C29.5134 28.9249 29.6756 28.7627 29.8783 28.6006C29.9594 28.5195 30.0405 28.4384 30.1215 28.3573C30.0405 28.3168 29.9999 28.2763 29.9999 28.2357ZM18.8106 27.9114L18.8917 27.8303L18.9322 27.8708L18.8106 27.9114ZM19.743 27.3438C19.743 27.3843 19.7025 27.3843 19.6619 27.4249C19.4998 27.2222 19.4592 27.2627 19.4187 27.3033C19.3782 27.3438 19.3376 27.3438 19.2971 27.3033L19.7836 26.9384C19.7836 27.0195 19.743 27.0195 19.743 27.06C19.6619 27.1006 19.6214 27.1411 19.743 27.3438ZM20.4322 26.3708L20.5538 26.2087L20.5944 26.2492L20.4322 26.3708ZM20.6755 26.533L20.6349 26.4924L20.7971 26.3708V26.4114L20.6755 26.533ZM27.5675 28.5195C27.4458 28.3979 27.2837 28.2357 27.162 28.1141C27.1215 28.1141 27.1215 28.0735 27.081 28.0735C27.0404 28.0735 26.9999 28.0735 26.9999 28.033C26.9999 28.033 26.9999 27.9925 26.9999 27.9114C26.9999 27.8708 26.9999 27.8708 26.9999 27.8303C27.1215 27.8303 27.162 27.9114 27.2026 27.9925C27.2837 28.1141 27.3647 28.2357 27.608 28.0735C27.4864 28.3168 27.5675 28.3979 27.6485 28.479C27.6891 28.5195 27.7702 28.6006 27.7702 28.6817C27.7296 28.6817 27.6485 28.6006 27.5675 28.5195Z" fill="#222222"/>
</g>
</svg>
