<svg width="48" height="48" viewBox="0 0 48 48" fill="none" xmlns="http://www.w3.org/2000/svg">
<path d="M22.9457 35.9899C22.2018 38.0913 20.9181 37.7734 19.7853 38.1657L16.3115 38.9986L12.7621 39.4875C12.2192 39.4511 11.5972 39.6913 10.8876 39.7314C10.1891 39.7827 9.37017 39.5784 8.95387 38.7558C9.61354 37.7733 9.99205 37.4874 10.558 37.3688C11.1017 37.2501 11.7222 37.2759 12.2117 36.9685L15.6423 35.958L19.1593 35.3248C20.3567 35.2432 21.4035 34.3849 22.9789 36.0012L22.9457 35.9899Z" fill="#222222"/>
<path d="M22.1124 25.36C22.643 28.0676 21.0503 28.6267 20.0794 29.7999L16.8636 33.0581L13.3541 36.019C12.129 36.6956 11.3544 38.6364 9.13683 38.2638C8.22792 35.5028 10.5115 35.0889 11.1432 33.7969L14.1987 30.3765L17.588 27.294C18.826 26.391 19.4055 24.7767 22.1124 25.36Z" fill="#222222"/>
<path d="M8.68941 38.4884C7.08037 36.9494 7.90648 35.9347 8.03525 34.7717L8.73158 31.329L9.77102 27.966C10.3086 27.016 9.92992 25.4511 11.6185 24.7739C13.5053 26.1925 12.1351 27.3925 12.3059 28.5018L11.7977 31.9788L10.9022 35.376C10.4745 36.4818 10.8105 37.7583 8.70043 38.4995L8.68941 38.4884Z" fill="#222222"/>
<path d="M25.2394 11.3715C25.9832 9.27016 27.267 9.58804 28.3997 9.19573L31.8736 8.36282L35.423 7.87391C35.9658 7.91035 36.5879 7.67019 37.2974 7.63004C37.996 7.57874 38.8149 7.78306 39.2312 8.60564C38.5715 9.58814 38.193 9.87406 37.6271 9.99264C37.0833 10.1113 36.4628 10.0855 35.9734 10.393L32.5428 11.4035L29.0258 12.0366C27.8284 12.1183 26.7815 12.9765 25.2062 11.3602L25.2394 11.3715Z" fill="#222222"/>
<path d="M26.0726 22.0014C25.542 19.2939 27.1348 18.7348 28.1057 17.5615L31.3214 14.3034L34.831 11.3424C36.0561 10.6659 36.8307 8.72509 39.0482 9.09767C39.9571 11.8587 37.6735 12.2726 37.0419 13.5646L33.9864 16.9849L30.5971 20.0674C29.359 20.9704 28.7796 22.5848 26.0726 22.0014Z" fill="#222222"/>
<path d="M39.4956 8.8731C41.1047 10.412 40.2786 11.4268 40.1498 12.5897L39.4535 16.0324L38.414 19.3955C37.8765 20.3454 38.2551 21.9104 36.5666 22.5876C34.6797 21.1689 36.05 19.969 35.8792 18.8597L36.3873 15.3826L37.2829 11.9854C37.7106 10.8797 37.3745 9.60316 39.4846 8.86195L39.4956 8.8731Z" fill="#222222"/>
</svg>
