<svg xmlns="http://www.w3.org/2000/svg" width="30" height="30" fill="#000"><path d="M15.6865 7.2741c.4454-1.26986 1.232-1.08033 1.9143-1.30776l2.1038-.50226 2.1417-.29377c.3316.02843.7107-.12319 1.1371-.15162.417-.02843.9193.08528 1.1751.59702-.398.59702-.6254.76759-.9666.83393-.3222.07581-.7107.05686-.995.23691l-2.0754.61597-2.1227.37907c-.7297.04738-1.3551.55911-2.3028-.40749h-.0095z"></path><path d="M12.2751 17.3762c.1706-1.7816 1.4025-2.4829 2.3217-3.5063l2.9093-2.9093 3.0609-2.75767c1.0046-.72021 1.9333-2.22698 3.4116-2.40703.0853 1.74368-1.611 2.48284-2.3123 3.51578l-2.8335 2.99462-3.004 2.824c-1.0519.8813-1.7911 2.1227-3.5632 2.2459h.0095z"></path><path d="M24.3005 5.76758c.9666.9287.4644 1.54467.398 2.25541l-.4169 2.07531-.6255 2.0375c-.3222.5686-.0948 1.5257-1.1182 1.9332-1.1372-.8529-.3127-1.5921-.4075-2.2554l.3032-2.10379.5402-2.05641c.2653-.66335.0569-1.44043 1.3362-1.88582h-.0095zm-10.954 1.6675c-.6065 1.13719-1.2035.77708-1.81.85289l-1.81003.01895-1.81001-.18953c-.53069-.199-1.28881.21796-1.81001-.69178.51173-1.29828 1.26985-.63493 1.81001-.87184l1.81001-.14215 1.81003.10424c.597.11372 1.213-.24639 1.81.90975v.00947z"></path><path d="M6.13479 6.96143c1.13718 1.40252.77707 2.81452.85289 4.21707l.01895 4.217-.18953 4.2171c-.19901 1.2414.21796 3.0135-.69179 4.217-1.29828-1.194-.63492-2.9661-.87183-4.217l-.14215-4.2171.10424-4.217c.11372-1.40255-.24639-2.8335.90974-4.21707h.00948z"></path><path d="M6.30566 23.9622c1.36462-1.1372 2.72924-.7771 4.09384-.8529l4.0939-.019 4.0938.1896c1.2035.199 2.9188-.218 4.0939.6917-1.1562 1.2983-2.8714.635-4.0939.8719l-4.0938.1421-4.0939-.1042c-1.35513-.1137-2.74817.2464-4.09384-.9098v-.0094z"></path><path d="M22.6052 23.9147c-1.1371-.6065-.777-1.213-.8528-1.8195l-.019-1.8195.1895-1.8195c.199-.5402-.2179-1.2983.6918-1.8195 1.2983.5118.6349 1.2793.8719 1.8195l.1421 1.8195-.1042 1.8195c-.1138.6065.2463 1.2225-.9098 1.8195h-.0095z"></path></svg>