<svg xmlns="http://www.w3.org/2000/svg" fill="none" viewBox="0 0 17 28" height="28" width="17">
<g clip-path="url(#clip0_1875_3397)" id="facebook 1">
<g id="Layer 1">
<path fill="#141414" d="M10.0953 27.9997C10.0651 27.9997 10.0349 27.9997 10.0048 27.997L8.57019 27.8928H5.85188L4.40358 27.9703C4.06071 27.989 3.72606 27.8661 3.47919 27.6363C3.23232 27.4039 3.09517 27.0833 3.10066 26.7466L3.12809 25.384V24.0455C3.12809 24.0054 3.12809 23.9627 3.13357 23.9226L3.26524 22.6749V21.4966L3.10889 20.2035C3.10614 20.1741 3.1034 20.142 3.10066 20.1127L3.0458 18.8035C3.0458 18.7875 3.0458 18.7714 3.0458 18.7554V17.4195C3.0458 17.3875 3.0458 17.3554 3.04854 17.3233V17.2859H2.85379C2.83185 17.2859 2.80716 17.2859 2.78521 17.2859L1.304 17.2058C0.697796 17.1737 0.206801 16.7169 0.143712 16.1264L0.00656208 14.8172C0.00107609 14.7691 -0.0016669 14.7211 0.00107609 14.673L0.028506 13.3104C0.028506 13.273 0.031249 13.2329 0.036735 13.1955L0.1876 11.9317L0.0641649 10.668C0.031249 10.3367 0.140969 10.0108 0.365894 9.75961C0.59082 9.51113 0.91175 9.36152 1.25188 9.35083L2.81539 9.29739C2.84556 9.29739 2.87299 9.29739 2.90316 9.29739L3.31736 9.31075L3.33381 9.16915C3.33656 9.13709 3.34204 9.10503 3.34753 9.07564L3.84127 6.51075C3.87144 6.34777 3.94001 6.19281 4.03602 6.05388L4.77937 4.9932L5.41574 3.93518C5.44317 3.89243 5.4706 3.84968 5.50352 3.80961L6.32642 2.76762C6.41419 2.65541 6.52117 2.5619 6.64186 2.48709L7.84878 1.739C7.8817 1.71762 7.91461 1.69892 7.95027 1.68289L10.5095 0.421821C10.6576 0.349684 10.8222 0.306936 10.9895 0.296249L12.3528 0.218768L13.7462 0.0611344C13.7736 0.0584626 13.8011 0.0557908 13.8312 0.0557908L15.0025 -0.000316031C15.3454 -0.0163466 15.6745 0.106554 15.9214 0.338997C16.1655 0.57144 16.3027 0.889379 16.2945 1.22335L16.267 2.6661V4.00732L16.2945 5.40197C16.2945 5.42602 16.2945 5.44739 16.2945 5.47144L16.2396 6.86075C16.2149 7.518 15.6553 8.03098 14.9778 8.01762L13.9849 7.99625L13.941 8.00961C13.8504 8.039 13.7544 8.0577 13.6584 8.06571L12.66 8.15121L12.0181 8.50121L11.4942 9.41495L11.486 9.46571L12.6051 9.51113L13.8011 9.43633L15.1835 9.32945C15.5868 9.30007 15.9818 9.46304 16.2369 9.77029C16.492 10.0775 16.577 10.4863 16.4645 10.8657L16.0256 12.3352C16.0092 12.3913 15.9872 12.4474 15.9626 12.5008L15.4057 13.6817L15.211 14.9295C15.2 15.0096 15.1781 15.0871 15.1506 15.1619L14.6295 16.5512C14.4512 17.0241 13.9876 17.342 13.4692 17.342H12.2897C12.2897 17.342 12.2705 17.342 12.2595 17.342L11.2995 17.318V17.3527C11.305 17.4008 11.305 17.4462 11.2995 17.4943L11.2199 18.7581L11.2967 19.9951C11.2967 20.0352 11.2995 20.0753 11.2967 20.1153L11.2419 21.4779L11.2144 22.739L11.2419 24.0241C11.2419 24.0482 11.2419 24.0722 11.2419 24.0962L11.1897 25.376L11.3187 26.6852C11.3543 27.0378 11.2281 27.3878 10.973 27.6417C10.7399 27.8741 10.4217 28.0024 10.0898 28.0024L10.0953 27.9997ZM5.59678 24.1069V25.4989L5.74765 25.4909C5.76959 25.4909 5.79428 25.4909 5.81622 25.4909H8.61407C8.64425 25.4909 8.67442 25.4909 8.70459 25.4936H8.72654C8.72379 25.4508 8.72379 25.4081 8.72654 25.3627L8.77865 24.0375L8.75122 22.763C8.75122 22.747 8.75122 22.731 8.75122 22.7149L8.77865 21.4058L8.83077 20.0806L8.75122 18.8329C8.74848 18.7848 8.74848 18.7367 8.75122 18.6859L8.83077 17.4195L8.75122 16.1024C8.72928 15.7577 8.86369 15.4211 9.11604 15.1779C9.3684 14.9348 9.71401 14.8092 10.0706 14.8333L11.2227 14.9108L12.6051 14.9375L12.7889 14.4512L12.9891 13.1554C13.0056 13.0432 13.0385 12.9337 13.0879 12.8321L13.546 11.8623L12.6984 11.9157C12.6545 11.9184 12.6106 11.9184 12.5667 11.9157L11.3159 11.865L10.0377 11.8917C9.67561 11.8997 9.31628 11.7447 9.0749 11.4722C8.83351 11.1997 8.73202 10.8363 8.79511 10.481L9.09684 8.79778C9.12153 8.66419 9.16816 8.53594 9.23399 8.41839L10.0295 7.02907C10.1419 6.83403 10.3065 6.67373 10.5067 6.56419L11.6862 5.92297C11.8398 5.84014 12.0072 5.78938 12.18 5.77602L13.2964 5.68251L13.4061 5.64777C13.5377 5.60503 13.6776 5.58632 13.8175 5.58632L13.823 5.41533L13.7956 4.03404V2.65007L13.7983 2.47907L12.5914 2.61533C12.5695 2.61533 12.5448 2.62068 12.5228 2.62068L11.3763 2.68747L9.1133 3.80159L8.13954 4.40541L7.49768 5.22029L6.87776 6.24892C6.86405 6.27297 6.84759 6.29701 6.83113 6.32106L6.20847 7.20808L5.77233 9.47907L5.64067 10.6867C5.5721 11.3146 5.02075 11.7848 4.37066 11.7608L2.85105 11.71L2.64258 11.718L2.65355 11.8356C2.66178 11.9184 2.66178 12.0039 2.65355 12.0894L2.49446 13.4226L2.46977 14.6543L2.49171 14.8707L2.88671 14.892H4.38987C4.73548 14.892 5.06464 15.031 5.2978 15.2795C5.53095 15.5279 5.6489 15.8566 5.62147 16.1905L5.51449 17.4783V18.742L5.56661 19.9817L5.7257 21.2989C5.73119 21.3443 5.73393 21.3924 5.73393 21.4405V22.7497C5.73393 22.7898 5.73393 22.8325 5.72845 22.8726L5.59678 24.1203V24.1069Z" id="Vector"></path>
</g>
</g>
<defs>
<clipPath id="clip0_1875_3397">
<rect fill="white" height="28" width="16.5128"></rect>
</clipPath>
</defs>
</svg>
