<svg width="48" height="48" viewBox="0 0 48 48" fill="none" xmlns="http://www.w3.org/2000/svg">
<g id="Icon=Filter">
<g id="vector">
<path d="M10.9766 15.5128C11.8957 15.5128 12.3553 15.5385 12.8149 15.5641C13.01 15.5641 13.2052 15.5729 13.4338 15.5832C13.7571 15.5978 14.1473 15.6154 14.6992 15.6154C15.5044 15.6154 15.9907 15.5592 16.4092 15.5108C16.4803 15.5026 16.5495 15.4946 16.618 15.4872C16.6907 15.4789 16.7634 15.4699 16.838 15.4606C17.2233 15.413 17.6596 15.359 18.4103 15.359C19.2953 15.359 19.7321 15.434 20.1744 15.5099L20.1912 15.5128C20.6738 15.5897 21.1678 15.6667 22.133 15.6667C23.0981 15.6667 23.5462 15.6667 24.0172 15.6154C24.2076 15.6154 24.398 15.6066 24.621 15.5963C24.9364 15.5817 25.3171 15.5641 25.8556 15.5641C26.7747 15.5641 27.2688 15.5385 27.7513 15.4872C28.2109 15.4615 28.6705 15.4359 29.5782 15.4359H33.3008C34.2428 15.4359 34.6796 15.4359 35.1391 15.4872C35.3342 15.4872 35.5294 15.4916 35.758 15.4967C36.0812 15.504 36.4715 15.5128 37.0234 15.5128C37.5634 15.5128 38 14.5385 38 13.3333C38 12.1282 37.5634 11.1538 37.0234 11.1538C36.1042 11.1538 35.6446 11.1538 35.1851 11.1026C34.9899 11.1026 34.7948 11.0982 34.5662 11.093C34.2429 11.0857 33.8527 11.0769 33.3008 11.0769H29.5782C28.636 11.0769 28.165 11.1026 27.6824 11.1538C27.2228 11.1795 26.7632 11.2051 25.8556 11.2051C24.9479 11.2051 24.4424 11.2051 23.9713 11.2564C23.7809 11.2564 23.5905 11.2652 23.3675 11.2755C23.0521 11.2901 22.6714 11.3077 22.133 11.3077C21.2357 11.3077 20.8092 11.2344 20.3726 11.1593L20.3406 11.1538C19.858 11.0769 19.3754 11 18.4103 11C17.5993 11 17.1371 11.0543 16.7307 11.1021C16.6535 11.1112 16.5783 11.12 16.5031 11.1282C16.431 11.1365 16.3589 11.1454 16.2849 11.1545C15.8989 11.2022 15.4609 11.2564 14.6992 11.2564C13.7915 11.2564 13.3205 11.2308 12.8609 11.2051C12.6658 11.2051 12.4706 11.1963 12.242 11.186C11.9188 11.1714 11.5285 11.1538 10.9766 11.1538C10.4366 11.1538 10 12.1282 10 13.3333C10 14.5385 10.4366 15.5128 10.9766 15.5128Z" fill="#222222"/>
<path d="M19.3488 36.6049C20.0372 36.6049 20.6034 36.6933 21.2397 36.7927L21.3023 36.8025C21.5814 36.846 22.4795 36.9149 22.7054 36.7531C22.9614 36.7351 23.2102 36.7091 23.449 36.6843C24.1921 36.6068 24.8374 36.5396 25.2987 36.7531C25.3361 36.7531 25.3932 36.7593 25.467 36.7673C25.6012 36.7819 25.7907 36.8025 26.0158 36.8025H26.6775C26.7032 36.7945 26.729 36.7859 26.7554 36.7771C26.8932 36.7312 27.0497 36.679 27.3217 36.679H28.6512C28.8441 36.679 29 35.7407 29 34.5802C29 33.4197 28.8441 32.4815 28.6512 32.4815H27.3217C26.8747 32.4815 26.4327 32.4629 25.9909 32.4444C25.5496 32.4259 25.1083 32.4074 24.6627 32.4074C24.3139 32.4074 24.1703 32.4074 24.0062 32.358C23.9365 32.358 23.8668 32.3538 23.7851 32.3488C23.6697 32.3418 23.5303 32.3333 23.3332 32.3333C23.094 32.3333 22.867 32.3579 22.6393 32.3825C22.4102 32.4072 22.1804 32.4321 21.9368 32.4321C21.7264 32.4321 21.5184 32.4259 21.3101 32.4198C21.1009 32.4136 20.8912 32.4074 20.6783 32.4074H19.3488C19.1559 32.4074 19 33.3457 19 34.5062C19 35.6666 19.1559 36.6049 19.3488 36.6049Z" fill="#222222"/>
<path d="M17.3566 26.0386H14.6976C14.3119 26.0386 14 25.1053 14 23.9509C14 22.7965 14.3119 21.8632 14.6976 21.8632H17.3566C18.0049 21.8632 18.3332 21.814 18.6533 21.7649C19.5963 21.6272 20.5134 21.6142 21.419 21.9368C21.4604 21.9496 21.5013 21.9627 21.5424 21.9759C21.8193 22.0648 22.1091 22.1579 22.6664 22.1579C23.3065 22.1579 23.6348 22.1088 23.9549 22.0597C24.2995 21.986 24.6524 21.9368 25.3254 21.9368C25.7196 21.9368 25.9984 21.9537 26.2293 21.9677C26.3926 21.9775 26.5319 21.986 26.6713 21.986C26.9996 22.0105 27.3361 22.0351 27.9844 22.0351C28.5284 22.0351 28.8413 21.9832 29.117 21.9375C29.1699 21.9287 29.2214 21.9202 29.2729 21.9123C29.3306 21.9041 29.3881 21.8951 29.4471 21.886C29.7402 21.8405 30.0695 21.7895 30.6434 21.7895C31.3328 21.7895 31.6775 21.8632 32.0222 21.9368C32.3422 22.0105 32.6623 22.0842 33.3024 22.0842C33.6881 22.0842 34 23.0175 34 24.1719C34 25.3263 33.6881 26.2596 33.3024 26.2596C32.613 26.2596 32.2684 26.186 31.9237 26.1123L31.9118 26.1095C31.5958 26.0368 31.2837 25.9649 30.6434 25.9649C30.0994 25.9649 29.7865 26.0168 29.5108 26.0625C29.4579 26.0713 29.4064 26.0798 29.3549 26.0877C29.3 26.0956 29.2447 26.104 29.1881 26.1127C28.8895 26.1585 28.55 26.2105 27.9844 26.2105C27.5902 26.2105 27.3114 26.1937 27.0805 26.1797C26.9172 26.1698 26.7779 26.1614 26.6385 26.1614C26.3102 26.1368 25.9655 26.1123 25.3254 26.1123C24.6853 26.1123 24.357 26.1614 24.0369 26.2105C23.1012 26.4105 22.1494 26.3773 21.2466 26.0632C21.2012 26.0492 21.1568 26.0348 21.1122 26.0203C20.8421 25.9326 20.5638 25.8421 20.0074 25.8421C19.3591 25.8421 19.039 25.8912 18.7189 25.9404C18.3825 25.9895 18.0377 26.0386 17.3566 26.0386Z" fill="#222222"/>
</g>
</g>
</svg>
