<svg xmlns="http://www.w3.org/2000/svg" width="30" height="30" fill="#000"><path d="M9.5174 20.9379c-.88942 0-1.70746-.1483-2.45413-.4447-.73569-.3075-1.37256-.7302-1.9106-1.2683s-.9553-1.1694-1.25178-1.8941c-.28549-.7247-.42823-1.5098-.42823-2.3553s.14823-1.6251.4447-2.3389c.30746-.7247.7357-1.3506 1.28472-1.8776.56-.5381 1.21334-.95532 1.96001-1.25179s1.56472-.44471 2.45414-.44471c.61487 0 1.20237.08235 1.76237.24706s1.0706.38981 1.5318.6753.8455.61494 1.1529.98824l-1.5318 1.6141c-.2855-.2745-.5819-.5051-.8894-.6917-.3074-.1977-.6368-.3459-.9882-.4447-.3404-.1099-.69179-.1648-1.05415-.1648-.51608 0-.99373.0934-1.43295.28-.42823.1867-.80706.4448-1.13647.7742s-.58746.7192-.77413 1.1694c-.17568.4502-.26353.9388-.26353 1.4659 0 .5161.09334 1.0047.28 1.4659.19765.4502.46118.8455.7906 1.1859.34039.3294.73569.5929 1.18589.7906.4502.1866.93334.28 1.44942.28.37332 0 .71922-.0549 1.03762-.1648.3294-.1098.6149-.2635.8565-.4611.2526-.2087.4447-.4502.5765-.7247.1427-.2746.2141-.5655.2141-.873v-.3953l.3294.4612H9.41858v-2.0588h5.33652l.0329.4447c.022.1757.033.3513.033.527l.0164.3953c0 .7467-.1372 1.433-.4117 2.0589-.2636.6258-.6369 1.1639-1.12 1.6141-.4722.4502-1.0322.8016-1.68 1.0541-.6479.2416-1.3506.3624-2.1083.3624zm11.4363 0c-.8894 0-1.6855-.1922-2.3882-.5765-.6918-.3953-1.2408-.9333-1.6471-1.6141-.3953-.6808-.5929-1.4604-.5929-2.3389s.1976-1.658.5929-2.3388c.4063-.6808.9553-1.2133 1.6471-1.5977.7027-.3953 1.4988-.5929 2.3882-.5929.8785 0 1.6636.1976 2.3553.5929.7028.3844 1.2518.9169 1.6471 1.5977s.5929 1.4604.5929 2.3388-.1976 1.6581-.5929 2.3389-.9443 1.2188-1.6471 1.6141c-.6917.3843-1.4768.5765-2.3553.5765zm0-2.0424c.4283 0 .8126-.1043 1.153-.3129.3404-.2196.6039-.5161.7906-.8895.1976-.3843.2909-.8125.28-1.2847.0109-.4831-.0824-.9113-.28-1.2847-.1867-.3843-.4502-.6808-.7906-.8894-.3404-.2196-.7247-.3294-1.153-.3294-.4392 0-.829.1098-1.1694.3294s-.6094.5161-.8071.8894-.2909.8016-.28 1.2847c-.0109.4722.0824.9004.28 1.2847.1977.3734.4667.6699.8071.8895.3404.2086.7302.3129 1.1694.3129z"></path></svg>