<svg fill="currentColor" viewBox="0 0 30 30" xmlns="http://www.w3.org/2000/svg"><path d="M3 13.578c.34155-.4967.70457-.5861 1.08278-.5775l7.50262.1719 7.8101.3884 5.9709.1718c.3689.0397.7349.1491 1.0927.3266.3218.1392.5194.7802.4837 1.404l-.0081.6875.0653.6444c-.1899.0858-.383.1433-.5776.1719-1.4583.0086-2.9193.0859-4.3758-.031l-4.5878-.1512-10.49248-.3781c-.86283-.0361-1.72386-.1856-2.5849-.3042-.22268-.0342-.44308-.1102-.65807-.2268-.47478-.2509-.70099-.8593-.7153-1.8114L3 13.578zm23.0683.7029v.1168h.2575v-.1409l-.2575.0241zm.0295 1.9402c.1172-.6204.1172-.6204-.0786-.5963l.0742.5963h.0044zm-6.2785.2561l-.0188.0842h.4471v-.0842h-.4283zm-.1493-1.1154l-.0134-.0567h-.237v.0567h.2504zm6.8195 1.3904l.0152-.0946h-.3353v.0946h.3201zM6.21366 9.77849c-.09438.08499-.23327.30111-.3443.29661-.77375-.0307-1.6161.4411-2.34076-.17983.21078-1.21929.43715-2.37324.31641-3.55993.2648-.1159.51092-.31282.73241-.30616l3.69514.18847c.71967.02761 1.46566-.13506 2.16594.01406s1.4157.0672 2.1343-.0121l2.9184-.4244c.8083-.06689 1.6006.01433 2.4017.01835l3.8979-.01228c1.4228-.04947 2.8173.14334 4.1732.57703.082.03778.1611.09022.2368.15693.5899.41927.6094.52001.4721 2.08499-.0834.94058-.2235 1.32428-.6417 1.46257-.374.1121-.7425.1479-1.1014.107l-3.6808-.33032-4.4463-.17903c-1.0938.00128-2.2027.13119-3.3066.22476l-3.4497.33789c-.23912.0257-.4086-.2744-.67171-.228-.67134.1251-1.3279.067-1.98961.0779-.3179.0039-.6361.0101-.95013-.0203-.06728-.0093-.12252-.1629-.22129-.29421zm.17999-3.0755c.07275.31944.3917-.1245.2991.56426.05148.00822.10416.00749.15766-.00216.08809-.56084.27424-.25404.46276-.43496l-.91952-.12714zm2.55422.25731l.01005-.07269-.32261-.04461-.01005.07269.32261.04461zm-.20663.33092l-.01301.09407.28456-.01077.00621-.0449-.27776-.0384zm1.31076.2161l.0015-.01069-.23726-.0328-.00148.01069.23724.0328zm-4.71716-.61084L5.344 6.8302l-.15527-.02147-.01597.03919.16208.04856zM24.2169 19.8866c.174-.1213.3524-.2125.5333-.2727.4379-.0653.8758-.1083 1.3136-.1008.2838 0 .5675.1139.8837.1867l-.0789 1.6231c.0088.5136.0789 1.0105.1314 1.6324-.2907.0542-.5859.1457-.8819.1588h-1.6402l-2.2516-.1065c-1.3618 0-2.7235-.0261-4.0845.0523-.9247.0523-1.846.325-2.7708.3848-.9414.0597-1.8846-.0449-2.826-.0374l-3.58358.0859c-1.32687.0435-2.65343-.122-3.96888-.4949-.08643-.0231-.17212-.0574-.25659-.1028-.64367-.3511-.68921-.4706-.733-1.8864-.02189-.7172.07444-1.0889.40723-1.1935.38815-.1207.78059-.1669 1.17261-.1382l3.27441.2914 5.3324.1345c.9301 0 1.8601-.1719 2.7893-.2634l3.4872-.3399c.4694.3586.9817.0093 1.4371.3287.2382.1663.3328-.3735.5526-.1868.1594.142.3722 0 .5613 0l1.0413.0243c.0657.0056.1331.1849.1585.2204zm-1.2479 2.6335c.0989.1065.1585.226.2163.2204.0875 0 .1751-.1475.2671-.1513h1.3652c-.2898-.2241-.6279.1551-.8573-.4781-.2583.734-.6314.1382-.9913.409zm-2.2656-.5883v.0392h1.3329v-.0392h-1.3329z"></path></svg>