<svg xmlns="http://www.w3.org/2000/svg" width="30" height="30" fill="#000"><path d="M24.1727 12.3657c-1.4254.3035-1.9679-.5609-2.7679-1.0759l-2.2713-1.71955-2.1426-1.8759c-.5517-.66208-1.7472-1.06669-1.8483-2.26211 1.4069-.50576 1.9586.72645 2.777 1.06669l2.3449 1.62762 2.1978 1.81153c.6804.66212 1.6644.97472 1.7195 2.43682l-.0091-.0092zm-18.3729-.2394c.26668-1.4253 1.24141-1.6 1.99545-2.17015l2.32645-1.57244 2.3725-1.51728c.7816-.35862 1.4253-1.41612 2.6207-1.26899.1932 1.48049-1.1586 1.76556-1.6919 2.46442l-1.1127.92876-1.1311.90117L8.724 11.4091c-.86438.4138-1.53566 1.2322-2.915.7264l-.0092-.0092zm7.0983 11.7157c-.5977 1.1035-1.1771.7448-1.7564.8092H9.38536l-1.75637-.1931c-.51495-.1931-1.25059.2023-1.74715-.6897.50575-1.2506 1.2322-.6069 1.75635-.8276l1.75636-.1195 1.75635.1195c.5793.1196 1.177-.2299 1.7472.9012z"></path><path d="M5.77177 23.722c-1.10347-.9563-.75404-1.9126-.8276-2.8598l-.01839-2.8598.18391-2.8599c.19311-.8459-.2115-2.0414.67128-2.8598 1.2598.8092.61611 2.0139.846 2.8598l.13793 2.8599-.10115 2.8598c-.11035.9472.23908 1.9219-.88278 2.8598h-.0092zM24.2275 12.3472c1.1035.9655.754 1.931.8276 2.8966l.0184 2.8966-.1839 2.8966c-.1931.8552.2115 2.0598-.6713 2.8966-1.2598-.8184-.6161-2.0322-.846-2.8966l-.1379-2.8966.1011-2.8966c.1104-.9656-.2391-1.9403.8828-2.8966h.0092z"></path><path d="M12.7331 23.6395c-.5517-1.0391-.7449-2.0874-.8-3.1265l-.0184-1.5633v-2.9333l6.3357-.0828v2.1702l-.1103 2.9058-.046 1.4529v.3586l-.0184.1655v.0276l-.0276.1379h.0736c-.0919.0644.6437.0736 1.1311.0736h1.646c1.1126.0368 2.2069.1563 3.1081.5977-.8828.6345-1.9771.7908-3.0897.8184-.5518.0184-1.1127 0-1.646-.0092l-1.9219.0552h-.8368l-.1012-6.5932v-.3127h.0092l.0092-.0184c-.0184 0 .0552 0-.2115 0h-2.2621l-.2299-.0184h-.0919v.0368l-.0276.046v1.1494l-.046 1.5725c-.0644 1.0483-.2575 2.0874-.8184 3.1173l-.0092-.0276z"></path></svg>