<svg width="48" height="49" viewBox="0 0 48 49" fill="none" xmlns="http://www.w3.org/2000/svg">
<path d="M40.3559 24.1387C40.384 22.7326 40.2715 21.7905 40.2012 21.1718L40.159 20.7921C40.1309 20.5812 40.1169 20.3703 40.1169 20.1875L40.0887 19.8359L39.9762 19.5688C39.8778 19.3297 39.7653 19.0345 39.6669 18.7111C39.4841 18.1486 39.2169 17.5299 38.9638 17.0378C38.8373 16.7847 38.7248 16.5878 38.6404 16.4613L38.4858 16.2644V16.2363L38.4295 16.2082L38.5561 16.0113L38.2326 15.7441L38.1342 15.6035C37.8108 15.1395 37.403 14.6333 36.9109 14.099C35.6735 12.7913 34.633 11.7929 33.6206 10.9211C32.5097 9.95092 31.5958 9.3041 30.6537 8.81196C28.671 7.79956 26.6181 7.30741 23.9465 7.20898C22.681 7.20898 21.4154 7.36366 20.1781 7.65894C19.3063 7.86986 18.4345 8.16515 17.5767 8.53074C16.5503 8.9807 15.566 9.51502 14.6661 10.1478C13.6537 10.8649 12.7678 11.6383 11.9523 12.5241L11.6429 12.8616C10.9961 13.6068 10.4336 14.4083 9.95556 15.2379C9.47748 16.0675 9.08377 16.9112 8.80254 17.7549C8.38071 18.9782 8.1276 20.2015 8.04324 21.4389C8.01511 21.8748 8.00105 22.3107 8.00105 22.7607C7.98699 24.4621 8.11354 25.9245 8.39477 27.19C8.54944 27.9071 8.76036 28.6242 9.05564 29.3554C9.67434 30.9865 10.5461 32.4489 11.3336 33.7144C11.4601 33.8972 11.5867 34.08 11.6851 34.2487L11.7835 34.4034L12.7116 33.869L11.8538 34.5018L12.6553 35.6126L13.8505 34.8674L13.0771 35.472L12.6694 35.6689L12.9787 36.0907C13.049 36.1751 13.1615 36.2735 13.3162 36.4282C13.5271 36.625 13.7521 36.8219 13.9911 37.0187L14.7223 37.764C14.7645 37.7218 14.7926 37.6937 14.8348 37.6515C15.4254 38.0593 16.0581 38.4249 16.7331 38.7623C17.0143 38.9029 17.2674 39.0014 17.4642 39.0717C17.6752 39.156 17.7877 39.1842 17.872 39.1982L19.0953 39.5076C19.0953 39.5076 19.1375 39.5076 19.1657 39.5076C19.4891 39.6201 19.9953 39.7326 20.5577 39.8169C20.7968 39.8591 21.3873 39.9435 21.7529 39.9435C22.3013 39.9435 22.6528 39.9435 23.0044 39.8872L23.3559 39.8451H23.7496L24.0168 39.7888C24.1433 39.8029 24.2417 39.8169 24.4808 39.8451L24.748 39.8732C24.9167 39.9013 25.1417 39.9294 25.3666 39.9997L25.9853 40.1122L27.0681 40.3934L27.1243 40.3653L27.5602 40.6606L28.1226 40.534H28.2211C28.4601 40.9418 28.9101 41.209 29.4303 41.209C30.2037 41.209 30.8365 40.5762 30.8365 39.8029C30.8365 39.4513 30.7099 39.142 30.499 38.9029C30.8646 38.5655 31.202 38.2421 31.4973 37.9749C31.6661 37.8062 31.8348 37.6515 31.9754 37.525C32.0457 37.4687 32.1441 37.3703 32.2426 37.314C32.4676 37.1875 32.6925 37.0469 33.0441 36.8078C33.1987 36.7094 33.3815 36.5828 33.5925 36.4563L33.6768 36.5407L34.9423 35.4439C35.0548 35.3455 35.1954 35.233 35.2939 35.1486C35.4485 35.0221 35.6032 34.8814 35.7579 34.7268L35.786 34.6986C35.9829 34.4877 36.1938 34.2627 36.4047 33.9956C36.9953 33.2925 37.628 32.5192 38.2186 31.6192C38.7529 30.8178 39.1185 30.1288 39.4279 29.3694C39.7231 28.6383 39.9059 27.9774 40.0747 27.0775C40.1309 26.7259 40.1731 26.4728 40.1872 26.276L40.2575 25.7276L40.1309 25.5448L40.2293 25.5167H40.1309L39.9622 25.2917L40.3278 24.912L40.3559 24.1387ZM13.9489 35.0221L14.4551 34.5862L14.1177 34.9236L13.963 35.0221H13.9489ZM37.2343 26.051C37.2624 26.1635 37.3046 26.276 37.3468 26.3744C37.3468 26.4447 37.3187 26.515 37.3046 26.5994C37.164 27.4149 37.0093 27.879 36.8265 28.3289C36.5875 28.9054 36.3063 29.4257 35.8704 30.0866C35.3501 30.8599 34.7877 31.563 34.2252 32.2379C34.0705 32.4348 33.944 32.5754 33.8315 32.6879L32.9878 33.4191C32.9878 33.4191 32.9035 33.4894 32.8753 33.5175L32.791 33.5878C32.5519 33.7987 32.3832 33.9112 32.3269 33.9534C32.0176 34.1221 31.7223 34.319 31.427 34.5159C31.2161 34.6565 31.0474 34.769 30.8786 34.8674L30.7521 34.9377C30.513 35.0783 30.274 35.3033 30.0912 35.458C29.9365 35.5986 29.7537 35.7673 29.5709 35.936C29.2054 36.2735 28.7554 36.7094 28.2914 37.1312C28.0805 37.314 27.8977 37.4828 27.7289 37.6234L26.8571 37.4406C26.7868 37.4125 26.7165 37.3984 26.6322 37.3703L26.5197 37.3422H26.4634L26.2384 37.2859C26.1822 37.2859 26.0978 37.2718 25.9994 37.2578C25.676 37.1734 25.3526 37.1172 25.1135 37.0891L24.298 36.9906C24.1152 36.9766 23.9605 36.9906 23.8621 36.9906L23.4684 37.0469C23.3137 37.0469 23.159 37.0469 23.0044 37.0469C22.8216 37.0609 22.6528 37.1031 22.6247 37.1031C22.3997 37.1312 22.1466 37.1312 21.781 37.1312C21.6545 37.1312 21.3873 37.1031 21.0358 37.0469C20.6421 36.9766 20.2765 36.9063 19.9812 36.8078C19.6297 36.7094 18.9969 36.5407 18.5891 36.4563L18.4907 36.4282C18.3501 36.3719 18.1673 36.3016 17.9845 36.2173C16.9159 35.697 16.0019 35.0783 15.2707 34.3893C15.2426 34.3612 15.2145 34.3331 15.1863 34.3049L15.1441 34.2487H15.1301C15.1301 34.2487 15.0879 34.2206 15.0738 34.1924L14.7364 34.5018L14.1458 34.8814L15.0317 34.0659L14.7364 33.6581L13.5974 34.4877L14.5958 33.4613L14.188 32.8988C14.0614 32.6879 13.8927 32.4348 13.724 32.1958C13.035 31.099 12.2616 29.7772 11.7132 28.357C11.4882 27.7665 11.3054 27.19 11.1789 26.5994C10.9398 25.5307 10.8274 24.2934 10.8414 22.8029C10.8414 22.4092 10.8555 22.0154 10.8836 21.6358C10.9539 20.6656 11.1508 19.6813 11.4882 18.697C11.7273 18.0221 12.0366 17.3471 12.4303 16.6722C12.824 15.9972 13.2881 15.3364 13.7943 14.7599L14.0755 14.4505C14.7504 13.7193 15.4816 13.0725 16.3253 12.4819C17.0846 11.9617 17.9001 11.4977 18.7438 11.1321C19.4469 10.8227 20.1781 10.5837 20.8811 10.4149C21.8935 10.1759 22.9481 10.0493 23.9465 10.0353C26.1259 10.1056 27.8133 10.5134 29.4022 11.3149C30.1334 11.6945 30.8786 12.2288 31.8207 13.0584C32.7488 13.8599 33.7331 14.8161 34.9001 16.0394C35.3501 16.5175 35.6454 16.8972 35.8141 17.1362C35.8282 17.1924 35.8563 17.2487 35.8844 17.319C35.9969 17.5862 36.1516 17.8252 36.3344 18.0502C36.3766 18.1205 36.4328 18.2189 36.4891 18.3455C36.6719 18.697 36.8828 19.1891 37.0093 19.5828C37.1078 19.9063 37.2202 20.2156 37.3327 20.5109C37.3327 20.6937 37.3609 20.8905 37.3749 21.0733L37.4171 21.4811C37.4733 22.0295 37.5577 22.7607 37.5577 23.8293C37.1499 24.4902 37.0374 25.2776 37.2484 26.0369L37.2343 26.051Z" fill="#222222"/>
<path d="M25.0902 16.3788C25.0902 16.5537 25.2295 16.949 25.4051 17.0458L25.6686 17.8304L25.493 18.6149C25.3173 18.8765 25.9321 19.138 23.912 19.3995C21.8919 19.138 22.5945 18.8765 22.4189 18.6149L22.3311 17.8304L22.6824 17.0458C22.858 16.9199 22.7702 16.7552 22.858 16.6003C22.858 16.4597 23.0544 16.1725 23.8242 16.2128" fill="#222222"/>
<path d="M25.0902 21.7444C25.0902 22.3503 25.2295 23.7197 25.4051 24.0553L25.6686 26.7732L25.493 29.4912C25.3173 30.3972 25.9321 31.3031 23.912 32.2091C21.8919 31.3031 22.5945 30.3972 22.4189 29.4912L22.3311 26.7732L22.6824 24.0553C22.858 23.6191 22.7702 23.0486 22.858 22.5118C22.858 22.025 23.0544 21.0299 23.8242 21.1696" fill="#222222"/>
</svg>
