<svg xmlns="http://www.w3.org/2000/svg" fill="none" viewBox="0 0 28 28" height="28" width="28">
<g clip-path="url(#clip0_1875_918)" id="Instagram 1">
<g id="Layer 1">
<g id="Group">
<path fill="#141414" d="M12.0766 21.2681L13.8814 21.4816C13.9079 21.4843 13.9318 21.487 13.9584 21.487C13.9902 21.487 14.0247 21.487 14.0566 21.479L15.8348 21.2121C15.8825 21.204 15.9303 21.1934 15.9754 21.1747L17.6209 20.5341C17.6793 20.5127 17.7324 20.4807 17.7828 20.4433L19.216 19.3489C19.2611 19.3142 19.3009 19.2769 19.3354 19.2315L20.4501 17.8168C20.4846 17.7714 20.5138 17.7234 20.5377 17.6727L21.2808 15.9911C21.31 15.927 21.3286 15.8576 21.3339 15.7882L21.5197 13.9732C21.525 13.9171 21.525 13.8611 21.517 13.8077L21.2516 12.0193C21.2463 11.9766 21.2357 11.9339 21.2198 11.8912L20.6094 10.1829C20.5855 10.1135 20.551 10.0521 20.5058 9.99337L19.3912 8.57869C19.3593 8.53865 19.3221 8.50128 19.2823 8.46925L17.8757 7.34819C17.8279 7.31082 17.7748 7.27879 17.7165 7.25476L16.0444 6.56077C15.9887 6.53675 15.9303 6.52073 15.8693 6.51539L14.0645 6.30186C14.0088 6.29652 13.9557 6.29652 13.9 6.30186L12.0952 6.54208C12.0395 6.55009 11.9838 6.56344 11.928 6.58746L10.256 7.28145C10.1896 7.30815 10.1286 7.34552 10.0755 7.39356L8.72196 8.56801C8.69807 8.58937 8.67419 8.61339 8.65295 8.63741L7.48518 9.99871C7.43475 10.0574 7.39494 10.1242 7.3684 10.1962L6.73144 11.8778C6.71551 11.9232 6.70224 11.9686 6.69428 12.0166L6.42888 13.805C6.42091 13.8664 6.41826 13.9305 6.42888 13.9918L6.66774 15.8069C6.6757 15.8736 6.69428 15.9377 6.72347 15.9964L7.4666 17.6246C7.48253 17.6567 7.49845 17.6887 7.51968 17.7181L8.50167 19.1861C8.54679 19.2529 8.60253 19.3116 8.66888 19.357L10.1286 20.3979C10.1631 20.422 10.2003 20.4433 10.2401 20.462L11.8856 21.2094C11.9466 21.2387 12.013 21.2548 12.082 21.2628L12.0766 21.2681ZM12.4429 9.31272L13.9504 9.00843L15.495 9.36077L16.9202 10.0307L18.0243 11.1171L18.6533 12.5264L18.9134 14.0666L18.656 15.5934L17.9766 16.9627L16.907 18.0864L15.5375 18.7644L13.9769 19.002L12.4164 18.8151L11.0655 18.0651L9.94016 16.9814L9.26603 15.58L9.02982 14.0079L9.21561 12.4464L9.98528 11.1091L11.0389 9.97736L12.4429 9.31806V9.31272Z" id="Vector"></path>
<path fill="#141414" d="M19.7921 7.08127C19.8585 7.2441 19.9832 7.37489 20.1425 7.44429L21.3633 7.97813C21.4482 8.0155 21.5385 8.03418 21.6287 8.03418C21.7189 8.03418 21.8065 8.0155 21.8888 7.9808L23.1362 7.44696C23.2954 7.38022 23.4202 7.2521 23.4865 7.09195L23.9908 5.89081C24.0598 5.72798 24.0598 5.54381 23.9935 5.38099L23.4892 4.12646C23.4202 3.95563 23.2822 3.8195 23.1123 3.75277L21.8649 3.27231C21.711 3.21359 21.5411 3.21359 21.3845 3.27231L20.1637 3.75277C19.9885 3.82217 19.8532 3.96097 19.7868 4.13447L19.3091 5.389C19.2507 5.54648 19.2507 5.71998 19.3117 5.87479L19.7895 7.07594L19.7921 7.08127Z" id="Vector_2"></path>
<path fill="#141414" d="M27.9982 12.3691C27.9982 12.3344 27.9982 12.297 27.9902 12.2623L27.7328 10.506L27.7832 8.73894L27.8097 6.92388C27.8097 6.88918 27.8097 6.85448 27.8018 6.81978L27.5364 4.95134C27.5284 4.90062 27.5151 4.84724 27.4966 4.79919L26.78 2.98413C26.7349 2.87202 26.6632 2.77593 26.5677 2.70119L25.0549 1.52674C25.0257 1.50272 24.9938 1.48403 24.962 1.46535L23.3165 0.58451C23.2501 0.547141 23.1758 0.523118 23.0988 0.512442L21.2676 0.245521C21.2676 0.245521 21.2463 0.242852 21.2357 0.240182L19.5371 0.0800298C19.5106 0.0800298 19.4814 0.0773606 19.4549 0.0800298L17.6607 0.133414L15.8719 0.160106L14.0858 0.21349H12.3261L10.54 0.106722C10.54 0.106722 10.5134 0.106722 10.5002 0.106722H8.71401L6.93846 -4.64253e-05C6.88007 -0.00271563 6.81903 -4.64253e-05 6.76064 0.0132996L4.90282 0.413681C4.84709 0.424358 4.79401 0.443042 4.74623 0.469734L3.10074 1.29719C3.03969 1.32922 2.9813 1.36926 2.93353 1.4173L1.60652 2.72522C1.5614 2.76792 1.52424 2.81864 1.49239 2.87469L0.563484 4.5296C0.518366 4.60701 0.491825 4.69509 0.481209 4.78318L0.268887 6.67831C0.266233 6.70501 0.263579 6.73437 0.263579 6.76373L0.290119 8.58947L0.3432 10.3538L0.136186 12.0941C0.136186 12.1128 0.133532 12.1342 0.130878 12.1529L0.077797 13.9679C0.077797 13.9679 0.077797 13.9866 0.077797 13.9973L0.104337 15.7963L0.157418 17.5927V19.4051L-0.00182387 21.1881C-0.00713193 21.2522 -0.00182387 21.3163 0.00879224 21.3776L0.380356 23.2461C0.393626 23.3075 0.414859 23.3689 0.444053 23.4249L1.31988 25.1065C1.35173 25.1653 1.39154 25.2213 1.43931 25.2694L2.71325 26.5506C2.75571 26.5933 2.80348 26.6307 2.85656 26.66L4.50206 27.5942C4.56841 27.6316 4.64273 27.6583 4.71704 27.6716L6.6014 27.9919C6.65183 28 6.70225 28.0026 6.75003 28L8.51495 27.8959L10.2799 28C10.2799 28 10.3064 28 10.3197 28C10.3436 28 10.3648 28 10.3887 27.9973L12.1404 27.8158L13.892 27.9199C13.9106 27.9199 13.9318 27.9199 13.9504 27.9199L15.7419 27.8665L17.5333 27.8932C17.5333 27.8932 17.5519 27.8932 17.5625 27.8932L19.3328 27.8398L21.103 27.9706C21.1561 27.9759 21.2118 27.9706 21.2649 27.9626L23.1227 27.6423C23.1864 27.6316 23.2475 27.6129 23.3032 27.5836L24.9752 26.7561C25.0442 26.7214 25.1079 26.676 25.161 26.62L26.435 25.2854C26.4695 25.248 26.5013 25.208 26.5252 25.1653L27.4276 23.6438C27.4727 23.5691 27.5019 23.4837 27.5151 23.3956L27.7805 21.5271C27.7859 21.5004 27.7859 21.4711 27.7885 21.4417L27.815 19.656L27.9982 17.8703C28.0008 17.8409 28.0008 17.8116 28.0008 17.7822L27.9478 15.9805L28.0008 12.3664L27.9982 12.3691ZM8.65031 25.1973H8.63969L6.89865 25.224L5.27438 24.9357L3.91552 24.1296L3.1432 22.7149L2.7796 21.1614L2.67609 17.6247L2.75571 15.8951L2.78225 14.08C2.78225 14.064 2.78225 14.048 2.78225 14.032L2.67875 12.257L2.78225 10.4819C2.78225 10.4472 2.78225 10.4099 2.78225 10.3752L2.60178 8.61349L2.70263 6.88918L2.99192 5.19957L3.90491 3.84361L5.216 2.91206L6.88273 2.67183L8.5813 2.59442L10.2587 2.62112L12.0342 2.80529C12.0634 2.80796 12.0926 2.80796 12.1218 2.80796L13.9132 2.75458L17.5068 2.80796C17.544 2.80796 17.5785 2.80796 17.613 2.79995L19.3593 2.54104L21.0181 2.59176L22.6875 2.95744L24.1313 3.79824L24.8956 5.23961L25.4477 6.80911L25.3972 8.49871C25.3972 8.49871 25.3972 8.5174 25.3972 8.52808L25.4238 10.3191L25.3176 12.1102C25.3176 12.1288 25.3176 12.1502 25.3176 12.1689L25.3707 14.0053L25.4768 15.7723L25.5299 17.5687V19.3651L25.4291 21.1134L25.0973 22.7603L24.1286 24.0575L22.8308 25.0371L21.2145 25.4135L19.5053 25.3868L17.7138 25.28C17.6873 25.28 17.6607 25.28 17.6368 25.28L15.8454 25.3868L14.0459 25.4135L12.289 25.4669L10.532 25.2587C10.5134 25.2587 10.4922 25.256 10.4736 25.2533L8.66889 25.2C8.66889 25.2 8.65562 25.2 8.65031 25.2V25.1973Z" id="Vector_3"></path>
</g>
</g>
</g>
<defs>
<clipPath id="clip0_1875_918">
<rect fill="white" height="28" width="28"></rect>
</clipPath>
</defs>
</svg>
