<svg xmlns="http://www.w3.org/2000/svg" width="57" height="50" fill="currentColor">
  <path d="M54.83 23.531a.803.803 0 0 1-.62-.95c.513-2.462.85-4.492.674-6.397-.172-1.869-.842-3.659-2.432-5.61-1.83-2.246-3.442-4.167-6.044-4.927a.803.803 0 1 1 .45-1.54c3.141.916 5.04 3.247 6.822 5.433l.017.02c1.778 2.182 2.582 4.27 2.785 6.477.2 2.17-.188 4.413-.702 6.873a.803.803 0 0 1-.95.621Z"/>
  <path d="M49.579 20.794a.802.802 0 1 0 1.507.552c1.783-4.873-1.378-10.824-6.752-11.593a.803.803 0 0 0-.228 1.589c4.286.613 6.933 5.46 5.473 9.452ZM6.316 31.603a.802.802 0 0 1 .518 1.01c-1.3 4.046 1.538 8.785 5.845 9.227a.802.802 0 0 1-.164 1.596c-5.401-.554-8.797-6.374-7.209-11.314a.802.802 0 0 1 1.01-.519Z"/>
  <path d="M1.465 30.086a.802.802 0 0 1 .658.924c-.415 2.481-.67 4.523-.419 6.42.246 1.86.987 3.622 2.653 5.508 1.918 2.17 3.606 4.027 6.237 4.682a.803.803 0 0 1-.388 1.558c-3.176-.791-5.167-3.045-7.034-5.158L3.154 44C1.291 41.89.404 39.837.113 37.64c-.286-2.16.013-4.417.428-6.895a.802.802 0 0 1 .924-.66Z"/>
  <path fill-rule="evenodd" d="M20.767.03c.707.116 1.302.582 1.85 1.05.512.403.825 1.024 1.033 1.619.218.622.361 1.334.466 2.026.103.687.174 1.386.234 1.994l.003.023c.063.632.114 1.134.18 1.477.58 3.027 1.453 7.047 2.383 10.178.111-.4.195-.92.251-1.513.114-1.192.101-2.396.094-3.138-.003-.267-.005-.474 0-.6.094-2.586.25-5.333.485-7.949l.009-.103.035-.098c.244-.675.59-1.179 1.035-1.509.45-.334.935-.443 1.365-.434a2.685 2.685 0 0 1 1.434.464c.093.036.201.088.317.164.243.16.485.402.698.763.414.699.73 1.85.787 3.787.26 3.194.173 5.598.101 7.593-.023.63-.044 1.219-.052 1.778-.035 2.314.14 4.213 1.294 6.766.142.277.28.569.4.825l.179.377.064.129a6.71 6.71 0 0 0 .089-.2c.183-.433.363-.92.56-1.451l.057-.154a37.19 37.19 0 0 1 .72-1.83c.529-1.222 1.218-2.497 2.236-3.393l.12-.105c.44-.39 1.026-.909 1.696-1.274.757-.413 1.7-.675 2.755-.343.715.224 1.278.454 1.657.743.2.153.388.352.504.612.12.271.134.541.093.782-.065.385-.289.761-.445 1.024l-.028.046-.006.011c-.186.312-.371.625-.522 1.003a225.723 225.723 0 0 1-2.352 5.59c-1.473 3.415-2.92 6.77-4.064 10.314-.932 2.89-3.553 4.84-6.538 5.873-2.997 1.036-6.514 1.206-9.499.409-2.98-.796-5.062-3.623-6.703-6.425-.595-1.015-1.156-2.074-1.687-3.076-.212-.4-.42-.792-.623-1.168-.726-1.345-1.394-2.496-2.065-3.317-3.074-3.76-4.377-6.8-5.949-10.465-.392-.915-.802-1.87-1.26-2.884-.61-1.35.005-2.714 1.08-3.276a2.352 2.352 0 0 1 1.856-.142c.651.22 1.228.712 1.677 1.447l.002.003c.41.678.79 1.457 1.16 2.213.116.237.23.471.345.7.493.987.99 1.893 1.58 2.607l.028.033.023.036c.67 1.01 1.194 1.793 1.696 2.477a82.447 82.447 0 0 0-1.321-3.895c-.167-.452-.47-1.104-.845-1.91l-.27-.582c-.486-1.051-1.034-2.268-1.467-3.467-.427-1.184-.768-2.418-.795-3.489-.026-1.07.267-2.2 1.362-2.784a2.35 2.35 0 0 1 1.793-.201c.564.16 1.055.51 1.475.918.832.812 1.552 2.033 2.142 3.245.598 1.23 1.096 2.526 1.462 3.545.176.49.323.92.434 1.248l.013.039a40.692 40.692 0 0 0 .193.551c.378.794.662 1.607.93 2.375l.08.23c.264.754.524 1.468.863 2.155a23.242 23.242 0 0 0-.13-1.737 47.2 47.2 0 0 0-.715-4.458c-.28-1.302-.812-3.821-1.081-6.326-.135-1.251-.206-2.523-.14-3.652.063-1.103.261-2.183.755-2.965l.083-.131.126-.091C19.277.21 19.988-.1 20.767.029ZM19.19 4.015c.054-.936.208-1.633.438-2.074.503-.34.739-.352.877-.33.214.036.498.2 1.083.7l.016.014.017.012c.15.116.338.387.514.89.17.485.295 1.085.394 1.737.098.647.164 1.313.226 1.93l.003.029c.06.594.117 1.172.199 1.597.656 3.421 1.694 8.17 2.787 11.511l.129.395.396.122c.468.145.93.067 1.308-.21.334-.246.544-.605.684-.931.283-.659.425-1.54.504-2.372.125-1.313.108-2.817.1-3.493-.001-.172-.002-.29 0-.339.091-2.529.243-5.206.47-7.755.157-.398.328-.585.447-.674a.58.58 0 0 1 .376-.118c.143.003.291.046.411.1l.017.008.063.14.362.1.025.007.017.005.008.006c.018.012.096.067.197.238.215.363.512 1.203.564 3.037v.022l.003.02c.253 3.1.171 5.385.1 7.372a89.522 89.522 0 0 0-.055 1.866c-.037 2.47.156 4.626 1.445 7.47l.008.018.009.017c.135.264.25.508.364.75.069.146.137.291.209.44.165.338.373.745.634 1.018.136.143.36.329.677.388.352.067.661-.05.888-.219.206-.154.365-.363.49-.568a5.75 5.75 0 0 0 .385-.769c.198-.468.39-.989.585-1.512l.059-.159c.217-.584.44-1.176.688-1.752.504-1.164 1.079-2.17 1.823-2.824l.104-.091c.463-.409.918-.81 1.42-1.084.515-.28.998-.38 1.506-.221.62.194.947.344 1.11.45l-.016.032c-.05.1-.117.215-.212.375l-.02.035c-.18.302-.42.707-.619 1.202-.728 1.82-1.508 3.631-2.291 5.448-1.494 3.463-2.996 6.949-4.161 10.559-.719 2.227-2.81 3.906-5.535 4.849-2.713.938-5.904 1.085-8.56.375-2.284-.61-4.082-2.866-5.733-5.685a80.569 80.569 0 0 1-1.637-2.986c-.216-.407-.43-.812-.646-1.21-.723-1.34-1.455-2.616-2.235-3.57-2.92-3.572-4.126-6.383-5.685-10.013-.4-.93-.822-1.915-1.303-2.98-.24-.533-.003-1.004.36-1.193a.748.748 0 0 1 .6-.044c.22.074.522.275.82.761.368.61.704 1.297 1.065 2.035.122.249.246.503.376.763.492.985 1.049 2.02 1.752 2.88 1.328 2.004 2.153 3.218 3.422 4.564.1.105.24.24.418.33.181.092.605.225.992-.087a1 1 0 0 0 .349-.666 2.066 2.066 0 0 0 0-.44c-.049-.518-.25-1.305-.484-2.109-.482-1.647-1.197-3.66-1.501-4.486-.192-.52-.534-1.255-.91-2.064l-.255-.547c-.484-1.046-1.006-2.21-1.413-3.338-.412-1.14-.68-2.178-.7-2.984-.02-.807.2-1.161.513-1.328a.75.75 0 0 1 .597-.074c.216.062.483.221.794.524.627.612 1.25 1.627 1.82 2.798.56 1.154 1.037 2.39 1.394 3.385.172.478.315.898.426 1.226l.033.095c.094.276.184.54.243.665.338.71.594 1.442.867 2.223l.077.223c.298.85.624 1.75 1.093 2.634l.07.139c.14.274.408.806.658 1.16.08.113.184.245.307.357.088.08.35.306.732.295.506-.016.752-.397.84-.605.068-.162.1-.34.117-.506.144-.432.175-1.002.172-1.544-.003-.65-.06-1.419-.146-2.215a48.792 48.792 0 0 0-.741-4.623c-.28-1.301-.796-3.747-1.055-6.16-.13-1.207-.191-2.383-.133-3.389Z" clip-rule="evenodd"/>
</svg>
