<svg width="40" height="40" viewBox="0 0 40 40" fill="none" xmlns="http://www.w3.org/2000/svg">
<g id="light-bulb-outlined-hand-drawn-tool 1">
<path id="Vector 3" d="M27.0928 7.44185C28.28 6.0631 29.5712 4.65439 30.5811 3.13953" stroke="#222222" stroke-linecap="round"/>
<path id="Vector 4" d="M31.8604 16.5116C33.8482 16.2228 35.794 16.1628 37.7906 16.1628" stroke="#222222" stroke-linecap="round"/>
<path id="Vector 5" d="M28.3721 23.2558L33.3721 26.0465" stroke="#222222" stroke-linecap="round"/>
<path id="Vector 9" d="M10.3492 25C9.82703 26.1717 9.15142 27.211 8.30788 28.1783C8.08059 28.4389 7.82671 28.6497 7.6748 28.9535" stroke="#222222" stroke-linecap="round"/>
<path id="Vector 10" d="M6.16315 17.907C4.40902 17.8061 2.78708 17.911 1.04688 18.0233" stroke="#222222" stroke-linecap="round"/>
<path id="Vector 11" d="M11.279 9.06976C11.2519 8.85358 10.6651 8.59898 10.5361 8.50774C9.33049 7.65552 8.17955 6.82238 6.86035 6.16278" stroke="#222222" stroke-linecap="round"/>
<path id="Vector 12" d="M17.0928 37.2093C17.0928 38.6458 19.6535 39.9974 20.762 38.8889C21.2775 38.3734 21.6325 37.8925 21.8602 37.2093" stroke="#222222" stroke-linecap="round"/>
<path id="Vector 13" d="M14.8836 34.186C14.3138 34.2493 14.4988 35.491 14.5347 35.8139C14.5666 36.1007 16.3303 36.4586 16.6794 36.5051C18.2551 36.7152 19.8779 36.8009 21.4598 36.5891C22.5448 36.4439 24.1859 36.2538 24.1859 34.8902C24.1859 34.5358 23.8762 34.3058 23.837 33.9535C23.8231 33.8282 23.4882 33.5858 23.4882 33.7209" stroke="#222222" stroke-linecap="round"/>
<path id="Vector 14" d="M14.8835 31.1628C14.3511 31.7618 14.7123 33.1421 15.2259 33.553C16.4468 34.5297 18.5217 33.9535 19.9481 33.9535C21.0014 33.9535 22.2936 33.8355 23.3202 33.5788C23.5978 33.5094 24.093 33.4539 24.3021 33.2558C25.0565 32.5411 24.0956 31.5862 23.7207 30.9302" stroke="#222222" stroke-linecap="round"/>
<path id="Vector 16" d="M15.6981 28.1395C15.0445 28.1395 14.3027 28.9392 14.3027 29.593C14.3027 29.884 14.5004 30.1142 14.7162 30.2907C16.1547 31.4677 18.3907 31.1765 20.1296 31.1046C21.4222 31.0512 22.9184 31.0237 24.1348 30.5814C25.1607 30.2083 23.8739 29.597 23.4823 29.4703C22.5171 29.158 21.7065 28.8783 20.6981 28.7468C19.9316 28.6468 19.1555 28.3119 18.3983 28.2558C17.1064 28.1601 16.1594 27.5602 14.8841 28.2558" stroke="#222222" stroke-linecap="round"/>
<path id="Vector 17" d="M17.9073 27.3256C18.0139 25.5136 17.9143 23.7782 16.9771 22.1641C16.4737 21.2971 15.8946 20.5195 15.5171 19.593C15.3269 19.1261 14.9337 18.3111 14.4189 18.1395" stroke="#222222" stroke-linecap="round"/>
<path id="Vector 2" d="M18.3723 6.27905C18.3331 4.64522 18.0234 3.02624 18.0234 1.39532" stroke="#222222" stroke-linecap="round"/>
<path id="Vector 18" d="M20 28.3721C20 27.8175 20.1913 27.3016 20.2261 26.7442C20.3027 25.5192 20.4904 24.3001 20.5749 23.0749C20.7144 21.0523 20.888 18.8564 21.5116 16.9121C21.8145 15.968 22.5274 15.1531 23.1395 14.4186" stroke="#222222" stroke-linecap="round"/>
<path id="Vector 20" d="M15.4656 23.7209C15.4656 22.9892 15.4159 22.2408 15.472 21.5116C15.6448 19.2652 19.0558 19.591 20.5819 19.2442C21.908 18.9428 23.0212 18.6123 23.4888 17.2093" stroke="#222222" stroke-linecap="round"/>
<path id="Vector 21" d="M15.6978 27.5581C15.6978 26.9314 15.7056 26.4273 15.4652 25.8398C14.6404 23.8236 12.3647 22.804 11.0983 21.0982C9.99442 19.6113 10.0589 17.4996 10.3748 15.7623C10.8421 13.1919 12.7598 11.5652 15.1164 10.7235C18.8222 9.40002 22.3009 9.66125 25.5298 11.9574C27.2675 13.1931 27.7908 14.587 27.7908 16.5698C27.7908 17.8574 27.037 19.1067 26.6732 20.3101C26.0865 22.2507 24.6826 23.7537 23.4303 25.2842C22.618 26.2771 22.3651 27.4752 22.2094 28.7209" stroke="#222222" stroke-linecap="round"/>
</g>
</svg>
