<svg width="32" height="32" viewBox="0 0 32 32" fill="none" xmlns="http://www.w3.org/2000/svg">
<g clip-path="url(#clip0_3923_3114)">
<path d="M21.498 7.04329C22.4182 5.97475 23.4189 4.883 24.2015 3.70898" stroke="#FFE555" stroke-width="2" stroke-linecap="round"/>
<path d="M25.1924 14.0725C26.733 13.8486 28.241 13.8021 29.7883 13.8021" stroke="#FFE555" stroke-width="2" stroke-linecap="round"/>
<path d="M22.4893 19.2968L26.3643 21.4595" stroke="#FFE555" stroke-width="2" stroke-linecap="round"/>
<path d="M7.74455 19.875C7.33985 20.7831 6.81625 21.5886 6.16251 22.3382C5.98636 22.5402 5.7896 22.7035 5.67188 22.939" stroke="#FFE555" stroke-width="2" stroke-linecap="round"/>
<path d="M5.27664 13.6036C3.91719 13.5254 2.66018 13.6067 1.31152 13.6938" stroke="#FFE555" stroke-width="2" stroke-linecap="round"/>
<path d="M9.2418 6.75504C9.22086 6.5875 8.76609 6.39019 8.66606 6.31948C7.73174 5.65901 6.83976 5.01333 5.81738 4.50214" stroke="#FFE555" stroke-width="2" stroke-linecap="round"/>
<path d="M13.7471 29.3372C13.7471 30.4505 15.7316 31.498 16.5907 30.6389C16.9902 30.2394 17.2653 29.8667 17.4418 29.3372" stroke="#222222" stroke-linecap="round"/>
<path d="M12.0354 26.9942C11.5938 27.0432 11.7372 28.0056 11.765 28.2558C11.7897 28.478 13.1566 28.7554 13.4272 28.7915C14.6483 28.9543 15.906 29.0207 17.1319 28.8566C17.9728 28.744 19.2447 28.5967 19.2447 27.5399C19.2447 27.2653 19.0047 27.087 18.9743 26.8139C18.9635 26.7169 18.704 26.529 18.704 26.6337" stroke="#222222" stroke-linecap="round"/>
<path d="M12.0344 24.6512C11.6218 25.1154 11.9017 26.1851 12.2998 26.5036C13.246 27.2605 14.854 26.814 15.9595 26.814C16.7758 26.814 17.7772 26.7225 18.5729 26.5236C18.788 26.4698 19.1718 26.4268 19.3339 26.2733C19.9185 25.7194 19.1738 24.9793 18.8833 24.4709" stroke="#222222" stroke-linecap="round"/>
<path d="M12.6654 22.3081C12.1588 22.3081 11.584 22.9279 11.584 23.4346C11.584 23.6601 11.7372 23.8385 11.9044 23.9753C13.0193 24.8875 14.7522 24.6618 16.0998 24.6061C17.1016 24.5647 18.2612 24.5434 19.2038 24.2006C19.9989 23.9115 19.0016 23.4376 18.6982 23.3395C17.9501 23.0975 17.3219 22.8807 16.5404 22.7787C15.9464 22.7013 15.3449 22.4417 14.7581 22.3983C13.7568 22.3241 13.0229 21.8591 12.0346 22.3983" stroke="#222222" stroke-linecap="round"/>
<path d="M14.3783 21.6774C14.4609 20.273 14.3837 18.9282 13.6574 17.6772C13.2672 17.0053 12.8184 16.4027 12.5259 15.6846C12.3785 15.3227 12.0737 14.6911 11.6748 14.5582" stroke="#222222" stroke-linecap="round"/>
<path d="M15.5135 5.36563C15.4831 4.09942 15.2432 2.84471 15.2432 1.58075" stroke="#FFE555" stroke-width="2" stroke-linecap="round"/>
<path d="M16 22.4884C16 22.0586 16.1482 21.6588 16.1752 21.2268C16.2346 20.2774 16.3801 19.3326 16.4456 18.3831C16.5537 16.8156 16.6882 15.1137 17.1715 13.6069C17.4062 12.8752 17.9587 12.2437 18.4331 11.6744" stroke="#222222" stroke-linecap="round"/>
<path d="M12.4854 18.8837C12.4854 18.3166 12.447 17.7366 12.4904 17.1715C12.6244 15.4306 15.2679 15.683 16.4505 15.4143C17.4783 15.1807 18.341 14.9246 18.7035 13.8372" stroke="#222222" stroke-linecap="round"/>
<path d="M17.5504 22.975L12.5129 22.2C12.5129 21.8125 12.4352 20.805 12.1247 19.875C11.7365 18.7125 9.02537 16.775 8.63787 16C8.32787 15.38 8.76704 12.9 9.02537 11.7375C9.41287 10.575 11.2729 8.25 15.6129 8.25C19.9529 8.25 21.8129 11.6083 22.2004 13.2875L21.4254 16L19.1004 19.1L17.9379 21.425L17.5504 22.975Z" fill="#FFE555"/>
</g>
<g clip-path="url(#clip1_3923_3114)">
<path d="M21.4971 6.26747C22.4172 5.19894 23.4179 4.10718 24.2006 2.93317" stroke="white" stroke-linecap="round"/>
<path d="M25.1914 13.2965C26.732 13.0727 28.24 13.0262 29.7873 13.0262" stroke="white" stroke-linecap="round"/>
<path d="M22.4883 18.5233L26.3633 20.686" stroke="white" stroke-linecap="round"/>
<path d="M8.51994 19.875C8.11524 20.7831 7.59164 21.5886 6.9379 22.3382C6.76175 22.5402 6.56499 22.7035 6.44727 22.939" stroke="white" stroke-linecap="round"/>
<path d="M5.27664 14.3779C3.91719 14.2997 2.66018 14.381 1.31152 14.468" stroke="white" stroke-linecap="round"/>
<path d="M9.24083 7.52909C9.21988 7.36155 8.76512 7.16424 8.66508 7.09353C7.73076 6.43306 6.83879 5.78737 5.81641 5.27618" stroke="white" stroke-linecap="round"/>
<path d="M13.7471 29.3372C13.7471 30.4505 15.7316 31.498 16.5907 30.6389C16.9902 30.2394 17.2653 29.8667 17.4418 29.3372" stroke="white" stroke-linecap="round"/>
<path d="M12.0354 26.9942C11.5938 27.0432 11.7372 28.0056 11.765 28.2558C11.7897 28.478 13.1566 28.7554 13.4272 28.7915C14.6483 28.9543 15.906 29.0207 17.1319 28.8566C17.9728 28.744 19.2447 28.5967 19.2447 27.5399C19.2447 27.2653 19.0047 27.087 18.9743 26.8139C18.9635 26.7169 18.704 26.529 18.704 26.6337" stroke="white" stroke-linecap="round"/>
<path d="M12.0344 24.6512C11.6218 25.1154 11.9017 26.1851 12.2998 26.5036C13.246 27.2605 14.854 26.814 15.9595 26.814C16.7758 26.814 17.7772 26.7225 18.5729 26.5236C18.788 26.4698 19.1718 26.4268 19.3339 26.2733C19.9185 25.7194 19.1738 24.9793 18.8833 24.4709" stroke="white" stroke-linecap="round"/>
<path d="M12.6654 22.3081C12.1588 22.3081 11.584 22.9279 11.584 23.4346C11.584 23.6601 11.7372 23.8385 11.9044 23.9753C13.0193 24.8875 14.7522 24.6618 16.0998 24.6061C17.1016 24.5647 18.2612 24.5434 19.2038 24.2006C19.9989 23.9115 19.0016 23.4376 18.6982 23.3395C17.9501 23.0975 17.3219 22.8807 16.5404 22.7787C15.9464 22.7013 15.3449 22.4417 14.7581 22.3983C13.7568 22.3241 13.0229 21.8591 12.0346 22.3983" stroke="white" stroke-linecap="round"/>
<path d="M14.3783 21.6774C14.4609 20.273 14.3837 18.9282 13.6574 17.6772C13.2672 17.0053 12.8184 16.4027 12.5259 15.6846C12.3785 15.3227 12.0737 14.6911 11.6748 14.5582" stroke="#222222" stroke-linecap="round"/>
<path d="M14.7381 5.3663C14.7077 4.10009 14.4678 2.84538 14.4678 1.58142" stroke="white" stroke-linecap="round"/>
<path d="M16 22.4884C16 22.0586 16.1482 21.6588 16.1752 21.2268C16.2346 20.2774 16.3801 19.3326 16.4456 18.3831C16.5537 16.8156 16.6882 15.1137 17.1715 13.6069C17.4062 12.8752 17.9587 12.2437 18.4331 11.6744" stroke="#222222" stroke-linecap="round"/>
<path d="M12.4854 18.8837C12.4854 18.3166 12.447 17.7366 12.4904 17.1715C12.6244 15.4306 15.2679 15.683 16.4505 15.4143C17.4783 15.1807 18.341 14.9246 18.7035 13.8372" stroke="#222222" stroke-linecap="round"/>
<path d="M12.6658 21.8576C12.6658 21.3719 12.6719 20.9812 12.4856 20.5259C11.8464 18.9633 10.0827 18.1731 9.10123 16.8511C8.24572 15.6988 8.2957 14.0622 8.54051 12.7158C8.9027 10.7237 10.3889 9.46301 12.2152 8.81074C15.0872 7.78503 17.7833 7.98749 20.2857 9.76697C21.6324 10.7246 22.0379 11.8049 22.0379 13.3416C22.0379 14.3395 21.4538 15.3077 21.1718 16.2403C20.7171 17.7443 19.629 18.9092 18.6586 20.0953C18.029 20.8648 17.833 21.7933 17.7123 22.7587" stroke="white" stroke-linecap="round"/>
</g>
<defs>
<clipPath id="clip0_3923_3114">
<rect width="31" height="31" fill="white" transform="translate(0.5 0.5)"/>
</clipPath>
<clipPath id="clip1_3923_3114">
<rect width="31" height="31" fill="white" transform="translate(0.5 0.5)"/>
</clipPath>
</defs>
</svg>
