<svg xmlns="http://www.w3.org/2000/svg" fill="none" viewBox="0 0 26 28" height="28" width="26">
<g clip-path="url(#clip0_1875_3865)" id="linked in 1">
<g id="Layer 1">
<g id="Group">
<path fill="#141414" d="M7.36356 15.4062C7.36356 15.3891 7.36356 15.3719 7.36356 15.3573L7.29307 13.8093L7.40974 12.2369C7.41217 12.1929 7.4146 12.1489 7.40974 12.1049L7.33682 10.5154C7.31008 9.91378 6.8045 9.45404 6.20898 9.46627L4.75543 9.51273L3.30188 9.41736C3.26056 9.41492 3.21924 9.41492 3.17792 9.41736L1.71951 9.49072C1.12399 9.52007 0.662158 10.0238 0.681604 10.6254L0.727787 12.1244L0.586807 13.6968C0.581946 13.7506 0.581946 13.8069 0.586807 13.8607L0.681604 15.416L0.611114 17.0202C0.611114 17.0202 0.611114 17.0422 0.611114 17.0519L0.586807 18.683V20.3043L0.5625 21.9183C0.5625 21.9403 0.5625 21.9623 0.5625 21.9843L0.635421 23.6326L0.659727 25.2465L0.708341 26.8361C0.725356 27.4083 1.17746 27.8729 1.74624 27.9023L3.18035 27.9756C3.21681 27.9756 3.25327 27.9756 3.28973 27.9756L4.74328 27.9047L6.19683 27.9756C6.21384 27.9756 6.23329 27.9756 6.2503 27.9756C6.5274 27.9756 6.79478 27.8705 6.99895 27.6773C7.21528 27.4743 7.33925 27.1882 7.34411 26.8923L7.36842 25.2465L7.41703 23.6326C7.41703 23.5934 7.41703 23.5567 7.41703 23.5176L7.29793 21.9036L7.3198 20.3704L7.43891 18.7637C7.44134 18.7197 7.44377 18.6757 7.43891 18.6317L7.36842 17.0422V15.4037L7.36356 15.4062ZM5.10545 22.0161L5.22212 23.6228L5.17594 25.1976L5.16865 25.7234L4.79189 25.7063C4.75543 25.7063 4.7214 25.7063 4.68494 25.7063L3.23139 25.7772L2.85707 25.7576L2.81574 23.5861C2.81574 23.5861 2.81574 23.5641 2.81574 23.5543L2.74526 21.9232L2.76956 20.3264V18.705L2.79387 17.1082L2.86679 15.46C2.86679 15.4209 2.86679 15.3842 2.86679 15.345L2.77442 13.8142L2.91297 12.2589C2.91783 12.2149 2.91783 12.1709 2.91783 12.1269L2.90325 11.6402L3.22653 11.6231L4.67036 11.7161C4.70439 11.7161 4.74085 11.7185 4.77731 11.7161L5.20511 11.7014L5.22455 12.1391L5.10788 13.7115C5.10545 13.7555 5.10302 13.7995 5.10788 13.8436L5.17837 15.4331V17.0715C5.17837 17.0886 5.17837 17.1057 5.17837 17.1204L5.24886 18.6684L5.13219 20.2408C5.13219 20.2628 5.12976 20.2848 5.12976 20.3068L5.10545 21.9208C5.10545 21.9526 5.10545 21.9868 5.10788 22.0186L5.10545 22.0161Z" id="Vector"></path>
<path fill="#141414" d="M25.8835 20.4192V18.8053C25.8835 18.793 25.8835 18.7808 25.8835 18.7686L25.8349 17.3258C25.8349 17.3087 25.8349 17.2891 25.8324 17.272L25.7109 15.8047C25.7036 15.7167 25.6866 15.6311 25.6574 15.548L25.1956 14.1541C25.181 14.1076 25.1616 14.0612 25.1397 14.0171L24.5077 12.7211C24.4664 12.6355 24.4129 12.5548 24.3521 12.4839L23.3799 11.359C23.2972 11.2636 23.1976 11.1829 23.0882 11.1193L21.6055 10.2879C21.5325 10.2463 21.4572 10.2145 21.377 10.1925L19.6998 9.70343C19.639 9.68632 19.5783 9.67409 19.5175 9.66675L17.7917 9.47112C17.6459 9.454 17.5 9.46867 17.3615 9.5078L15.7086 9.99688C15.6381 10.0189 15.5676 10.0458 15.502 10.0825L15.3513 10.1632C15.3027 10.0189 15.2249 9.8844 15.118 9.76946C14.9187 9.55182 14.6416 9.42466 14.3474 9.41488L12.8161 9.36597C12.7821 9.36597 12.7456 9.36597 12.7116 9.36597L11.2483 9.46134L9.73643 9.43688C9.45447 9.43199 9.16522 9.54448 8.95861 9.74745C8.74957 9.95042 8.63047 10.2292 8.62561 10.5202L8.6013 12.1342C8.6013 12.1342 8.6013 12.1562 8.6013 12.1684L8.62561 13.824L8.67422 15.4208V17.0421L8.6013 18.6316C8.6013 18.6757 8.6013 18.7197 8.6013 18.7637L8.71554 20.319L8.6013 21.8498C8.59644 21.9036 8.59644 21.9599 8.6013 22.0137L8.72041 23.6447L8.74471 25.2025L8.6961 26.792C8.67908 27.3911 9.14091 27.8949 9.73643 27.9242L11.2191 27.9976C11.2362 27.9976 11.2556 27.9976 11.2726 27.9976C11.2848 27.9976 11.2969 27.9976 11.3091 27.9976L12.7894 27.9487L14.294 27.9731C14.5954 27.9731 14.8871 27.8582 15.0961 27.6406C15.3076 27.4229 15.4169 27.127 15.4048 26.8238L15.3343 25.2612L15.4048 23.8208C15.4048 23.7841 15.4048 23.7499 15.4048 23.7132L15.3343 22.2337L15.3586 20.8203L15.4315 19.3213C15.4315 19.287 15.4315 19.2552 15.4315 19.221L15.3659 17.6828L15.6624 16.6117L16.275 15.9392L17.1962 15.7901L18.1782 16.0175L18.8296 16.6435L19.0994 17.6804L19.0557 19.062C19.0557 19.0963 19.0557 19.133 19.0557 19.1672L19.148 20.6467L19.0776 22.1261C19.0776 22.1506 19.0776 22.1726 19.0776 22.1971L19.1019 23.6961V25.244L19.0776 26.858C19.0727 27.1539 19.1869 27.4376 19.3911 27.6479C19.5977 27.8582 19.8772 27.9756 20.1714 27.9756H21.6784C21.6784 27.9756 21.7027 27.9756 21.7124 27.9756L23.2097 27.9267L24.707 27.9756C24.9987 27.9854 25.2855 27.8753 25.497 27.6723C25.7085 27.4694 25.8324 27.1882 25.8349 26.8923L25.8835 23.6399C25.8835 23.613 25.8835 23.5836 25.8835 23.5567L25.7911 22.0332L25.8835 20.4853C25.8835 20.4633 25.8835 20.4413 25.8835 20.4192ZM23.6959 20.385L23.6011 21.9647C23.5986 22.0088 23.5986 22.0552 23.6011 22.0992L23.6959 23.6472L23.6643 25.738L23.2437 25.7258C23.2219 25.7258 23.1976 25.7258 23.1733 25.7258L21.6589 25.7747H21.2798L21.287 25.2612V23.679L21.2627 22.1971L21.3332 20.6907C21.3332 20.6491 21.3332 20.61 21.3332 20.5684L21.2384 19.0792L21.2846 17.5899C21.287 17.4847 21.2749 17.3771 21.2482 17.2769L20.8592 15.7852C20.8082 15.5871 20.7037 15.4086 20.5578 15.2692L19.464 14.2177C19.3206 14.0807 19.1456 13.9854 18.9536 13.9413L17.4709 13.599C17.3323 13.5672 17.1913 13.5623 17.0528 13.5843L15.5458 13.8288C15.3027 13.868 15.0791 13.9902 14.9138 14.1712L13.8686 15.3206C13.7519 15.4477 13.6668 15.6018 13.6207 15.7681L13.2074 17.2598C13.1758 17.3723 13.1637 17.4872 13.1686 17.6021L13.239 19.265L13.1686 20.7323C13.1686 20.7323 13.1686 20.7543 13.1686 20.7665L13.1443 22.2337C13.1443 22.2582 13.1443 22.2802 13.1443 22.3047L13.2147 23.767L13.1443 25.2049C13.1443 25.2392 13.1443 25.2734 13.1443 25.3076L13.1637 25.7527L12.7942 25.7478C12.7772 25.7478 12.7578 25.7478 12.7408 25.7478L11.2775 25.7943L10.9105 25.7771L10.9275 25.2416C10.9275 25.2245 10.9275 25.2074 10.9275 25.1927L10.9032 23.5787C10.9032 23.5567 10.9032 23.5371 10.9007 23.5151L10.7841 21.933L10.8983 20.4021C10.9032 20.3483 10.9032 20.2921 10.8983 20.2383L10.7816 18.6659L10.8521 17.1179C10.8521 17.1008 10.8521 17.0837 10.8521 17.0666V15.4037C10.8521 15.4037 10.8521 15.3817 10.8521 15.3695L10.8035 13.7726L10.7792 12.1513L10.7865 11.6549L11.2483 11.6622C11.2775 11.6622 11.3067 11.6622 11.3358 11.6622L12.7894 11.5668L13.1564 11.5791L13.1394 11.9532C13.1199 12.3494 13.3144 12.726 13.6474 12.9363C13.9804 13.149 14.4009 13.1637 14.7485 12.9778L16.4232 12.0779L17.7577 11.6842L19.1723 11.8456L20.6405 12.2736L21.8461 12.9509L22.5996 13.8215L23.1368 14.9219L23.533 16.1202L23.6424 17.4285L23.6886 18.8248V20.3875L23.6959 20.385Z" id="Vector_2"></path>
<path fill="#141414" d="M7.95624 3.72188L7.56733 2.27909C7.51628 2.09079 7.41663 1.91717 7.27565 1.78022L6.20615 0.728696C6.07489 0.601534 5.91446 0.506163 5.73945 0.457254L4.28347 0.041534C4.09874 -0.00981972 3.90429 -0.0147106 3.71956 0.0317523L2.26114 0.398565C2.05697 0.449918 1.8698 0.559962 1.72639 0.716469L0.705506 1.81691C0.588833 1.94407 0.501329 2.09568 0.455146 2.26197L0.0419293 3.70477C-0.0139764 3.90284 -0.0139764 4.11559 0.0419293 4.31367L0.455146 5.75647C0.501329 5.92031 0.583972 6.06948 0.698214 6.1942L1.7191 7.31909C1.86008 7.47559 2.04238 7.58564 2.24413 7.63944L3.70254 8.0307C3.79491 8.05516 3.8897 8.06739 3.9845 8.06739C4.0793 8.06739 4.17166 8.05516 4.2616 8.0307L5.74432 7.63944C5.93634 7.58808 6.11135 7.48782 6.2499 7.34354L7.3194 6.24311C7.45552 6.10372 7.55031 5.93009 7.59893 5.7418L7.96353 4.27455C8.00971 4.09114 8.00728 3.9004 7.95867 3.71944L7.95624 3.72188ZM5.54743 4.92014L4.89601 5.59018L3.98693 5.82983L3.11675 5.59752L2.48477 4.90057L2.22955 4.01044L2.48234 3.1252L3.10459 2.45516L3.96749 2.23752L4.87899 2.49673L5.53771 3.14232L5.77348 4.01778L5.54986 4.91769L5.54743 4.92014Z" id="Vector_3"></path>
</g>
</g>
</g>
<defs>
<clipPath id="clip0_1875_3865">
<rect fill="white" height="28" width="25.8868"></rect>
</clipPath>
</defs>
</svg>
