<svg xmlns="http://www.w3.org/2000/svg" fill="none" height="50" width="60"><path d="M13.8492 18.9733l-.3099-.2186c.0847-.136.186-.2611.3017-.3726l2.8055-2.0774 5.49-4.6083 1.8985-1.75143c.0718-.06884.0739-.20247.1046-.31991.0537-.25381.13-.50246.2279-.74309.3283-.65804-.0657-1.41733-.8107-1.41733-.3556.00562-.7041.09889-1.0138.27132-1.0118.56896-2.0196.51631-3.0314.05265-.4761-.2207-.903-.55681-1.3873-.75119s-1.0043-.28398-1.5263-.26408-1.0336.14927-1.5009.37949c-1.4531.66412-2.8857.70462-4.2956-.15388-.3189-.19709-.5898-.46113-.7934-.77331s-.33498-.6648-.38468-1.03277C9.10828 2.32177 11.3802.479242 13.9518.841674c.7048.111217 1.3989.280536 2.075.506186.7457.22134 1.5498.14273 2.237-.21867 1.5228-.718793 2.939-.514288 4.2258.45962.8353.6297 1.6644.94758 2.7378.78762.6547-.09718 1.3894-.06276 1.9559.40496.5008.39139.913.88179 1.2103 1.43971s.4729 1.17101.5157 1.79989c.0554.78156 0 1.53679-.5911 2.17864-.1293.14376-.0185.49809-.0185.77953l3.0991-.73094 1.5988-.35636 3.4459-.90101 3.2939-.8099c.1047-.0243.2341.05467.3531.08504-.0677.11743-.1129.31181-.2052.33611l-1.9354.4414c-.2454.03851-.4927.06284-.7409.07289.0349.66209.4105.73093.9338.64387-.0698-.47177.1211-.59325.5315-.35636.1601-.32396.8805-.60743 1.4367-.53656-.1663.56693-.708.55479-1.1083.71879.0862.6621-.0369.82002-.706.73093-.9297-.12553-1.7506.18426-2.5695.52441l-3.567 1.51043-2.5367 1.0671c-.0668.0344-.1249.0832-.17.1428s-.0761.1284-.0906.2014l-.0308 1.96-.0164 3.0189c-.0883 1.5813.3981 3.027.9071 4.4909l1.7671 5.5397c.022.1294.0901.2468.1921.3311s.2311.1299.3641.1285l6.7173.6986 6.861.7754 3.8768.3625 6.664.7512c.552.066 1.1.1606 1.6419.2834.3982.0871.4228.324.1806.6297-.1415.1986-.2716.4048-.3899.6176l1.0507.087c.4372 0 .4844.1519.2545.4799-.1149.162-.2052.3361-.3591.569.1618.0142.3224.0406.4802.0789.1737.0319.3346.112.4639.2308.0513.0709-.0719.3078-.1704.4273l-2.9308 3.5514-3.1893 3.9422-5.9025 7.2891c-.2976.3665-.5583.7836-.9174 1.0792-.2755.2334-.6261.3625-.9892.3645l-4.4187-.5386-5.644-.7492-5.2293-.654-4.8723-.5953-3.959-.5163-4.4618-.571-4.8209-.6256-4.47415-.5345-7.049822-.9051c-.102617-.0142-.26677-.1053-.272927-.1721.000132-.0622.013076-.1238.03813-.1809s.061684-.1085.107578-.1512c.205231-.2024.455591-.3543.683401-.5325.15203-.108.26498-.2613.32223-.4373l-1.040555-.0972c-.120599-.0335-.23592-.0832-.342725-.1478.039354-.1175.098335-.2277.174469-.326.248334-.2268.519251-.4293.878411-.7188l-1.061097-.1701C.292217 40.7817.143244 40.7241 0 40.6544c.0420864-.1465.111707-.2838.205234-.4049l2.115976-1.8972 3.50948-3.0797 7.11961-6.2241 3.6572-3.1464c.2461-.193.554-.2928.8682-.2815l6.5675.6601 1.7363.247c-1.1473-4.1082-2.1139-8.1314-2.7296-12.2315l-.1642-.1033-5.2253 3.847c-.4248.3098-.8681.5933-1.3135.8747s-.7019.5872-.5828 1.1217c.0213.0659.0213.1367 0 .2025-.1314.2693-.2053.6662-.4331.7613-.3612.162-.5418-.2227-.6957-.5041-.0636-.1154-.1088-.239-.1642-.3645l-1.3115.8099c-.0965.0674-.2074.1117-.3242.1296-.1062-.0147-.2085-.049-.3017-.1012.041-.0952.0574-.2288.1313-.2815.5562-.3867 1.1144-.7734 1.6994-1.1176.0964-.0567.3776.0546.4741.17.1275.1959.2295.4067.3037.6277.1659-.4977.2921-1.0075.3776-1.5246.0226-.2309-.2319-.488-.3551-.7229l-1.3278.8828.0123-.0304zm13.802-13.92824l.0103.01215.2463-.65805c-.2381-.31991-.5727-.63172-1.096-.51833-.587.12958-1.295.08302-1.4079.95973-.0357.24799-.169.4721-.3711.62372s-.4567.21852-.7084.18619c-.1047 0-.2894.02631-.3058.07896-.0228.12817-.0085.26007.041.38065.0734.21473.1612.42442.2627.62768.1252.24904.236.66209.4105.70056.5664.11541.9235.51631 1.373.78561.2027.12869.4444.1841.6839.15678s.462-.13567.6296-.30661c-.4104-.24702-.8476-.48797-1.256-.76941-.0472-.05584-.0826-.12044-.1041-.18998s-.0287-.14265-.0211-.21497c0-.05265.1744-.14579.2729-.14579.6999-.01417 1.3977 0 2.196 0l-.2052-1.6036-.6506-.10529zM25.5168 32.2598l-3.3925 2.9804-5.9929 5.4081c-.16.093-.336.1562-.5192.1863.0616-.1802.0677-.4171.1908-.5305 1.0262-.9536 2.0914-1.8789 3.134-2.8225l6.6065-6.0115c.1319-.1469.2219-.3258.2606-.5183.3266-1.1207.3619-2.3044.1026-3.4421-.0841-.3523-.2216-.5062-.5992-.5446l-7.4849-.7836c-.2193-.0376-.4446-.0218-.6563.046s-.4035.1854-.5588.3427c-1.4181 1.2817-2.8855 2.5107-4.3283 3.7661l-5.16169 4.5172-5.36069 4.6569c-.29349.2552-.57057.5305-.888683.8282l2.858903.4555 6.02981.8099 6.83225.9982 7.1421 1.0266 8.154 1.1784c.905.1493 1.825.1901 2.7399.1215.9701-.097 1.9087-.3945 2.7545-.8731s1.58-1.1277 2.1547-1.9049c.2462-.3179.4843-.3908.7942-.087.2849.2877.5872.5581.9051.8099.9139.7137 1.9808 1.2123 3.1196 1.4578 1.8963.3887 3.1298-.7755 4.2155-1.962 1.332-1.4538 2.4628-3.0797 3.6942-4.6326l4.037-5.1449 1.6234-2.1139-.4474-.0668-5.1309-.5366-6.4566-.735-9.525-.9617-3.61-.405c-.1806-.0182-.5172.079-.5398.1762-.1334.575-.1929 1.1662-.2914 1.8405.1264-.133.2691-.25.4248-.3483.1339-.0336.2726-.0452.4104-.0344-.009.1384-.038.2747-.0862.405-.0595.1133-.2052.1781-.2832.2875-.2257.3401-.5336.6681-.63 1.0448-.2053.8099-.3202 1.6521-.4536 2.4843-.0205.1316 0 .3604.0718.405.4556.2531.9174.5406 1.4162.6479.1929.0425.5007-.3361.7244-.5548l3.5937-3.519c.1272-.1215.3776-.1174.5726-.1701-.0657.1863-.076.4252-.2053.5507l-2.8733 2.8043-1.1062 1.0873c.6034.1883 1.1391.3118 1.6419.5244.429.1823.4228.6075.3715 1.0023s-.3838.3908-.6711.3827l-2.6537-.1053c-.2052 0-.4495-.0243-.5808.0789-.5028.405-.9667.8383-1.451 1.2675.4617.4536.5849.9355.3509 1.2696-.1765.2531-.6691.2935-1.0262.4171-.0923.0324-.2052 0-.3037.0243-.3325.1012-.7306.1336-.9749.3401-.6834.5751-1.295 1.2351-1.9579 1.8365-.1273.1154-.3633.1113-.55.162.0407-.1839.1137-.3593.2155-.5184.5623-.5689 1.1513-1.1136 1.7896-1.7231-.8414-.1336-1.5536-.2024-2.2411-.3705-.6157-.1498-1.4182-.1802-1.1473-1.2675l-.9708.9112-2.3786 2.2839c-.0944.0871-.2894.0709-.4372.1012.0308-.1397.0165-.3239.1027-.4049.7634-.7897 1.5249-1.5814 2.3232-2.3346.8907-.8423 1.7404-1.6724 1.9148-2.9804.1457-1.144.4146-2.2738.6527-3.517zm3.3125-13.5659c-1.3772.6884-2.7625 1.0995-4.31.9577.0719.3341.1232.6075.2053.8869l1.7034 6.6452c.1704.6986.3715 1.4538.2668 2.1402-.2832 1.879-.7121 3.7357-1.1041 5.5964-.1724.8099-.392 1.6198-.5931 2.4439 1.1144-.4839 1.4469-.8484 1.7958-1.8648l2.0523-5.9204c.1396-.4049.3858-.8605.3181-1.2472-.4289-2.452-.9441-4.8918-1.4038-7.3398-.0493-.2571.0534-.7795.1108-.7835.4905-.0324.3859.415.4413.6884l1.2027 6.0965c.0308.1063.072.2094.1231.3078.1949.4657.5541.9334.5521 1.3991 0 1.5104-.1458 3.0189-.234 4.5293l-.0636 1.0124c.8435-.4373.8907-.5224 1.057-1.5975l.6998-4.4869c.0297-.2827-.0017-.5684-.0924-.8382l-1.7383-5.4891c-.3448-1.0347-.6609-2.0754-.9892-3.1384v.002zm30.428 14.3434l-.0739-.1701c-.2422.0628-.5746.0486-.708.2025l-4.6075 5.4061-3.9262 4.7136-3.8625 4.5051c-.0935.1375-.2264.2444-.3817.3072s-.3261.0784-.4905.0451l-3.1955-.4414-11.3577-1.5186-5.6871-.7066-6.2288-.8706-7.9693-1.0489-7.62029-.9617c-.66085-.083-1.02621.1255-1.37716.7977l5.79176.7613 3.81319.4435 5.525.7511 7.2632.8808 5.5249.7492 6.0975.737 9.8512 1.2432c.2017.04.4108.0193.6004-.0594s.3508-.2118.4628-.382l6.237-7.607 4.2771-5.2765 2.0421-2.5006zM1.46124 41.7437l5.36075.7209 7.16061.9091 8.9236 1.2432 6.6475.8423 6.5942.8544 3.7086.4556 5.373.737c.1783.011.354-.0463.4906-.16.2117-.2129.4072-.4409.5848-.6823l4.5378-5.4668 6.2001-7.3823 1.607-1.8992c-.8538-.2956-.8825-.2896-1.3812.3442l-3.0334 3.8713-4.0472 5.1996c-.4905.6236-.94 1.308-1.5434 1.802-.9933.8099-2.0092 1.634-3.2591 2.0551-.8517.2876-1.7014.6439-2.5798.7715-2.4812.3563-4.9687.2025-7.4459-.1256l-7.0888-1.0002-9.2745-1.3505-4.1047-.573-4.1375-.6398-7.38848-1.0529c-.69369-.0911-1.35659-.2045-1.89636.5305l-.00822-.0041zm38.58406.8322c-.6752.5912-1.2314 1.1885-1.9025 1.636s-1.4079.7249-2.118 1.0792c0 .0527.0123.1053.0164.1579 1.4038.0689 2.8076.2025 4.2093.1823s2.8056-.0345 4.191-.6743c-1.6681-.3485-3.1947-1.1755-4.388-2.377l-.0082-.0041zm-10.6496-9.4698c-1.0487.9922-2.0708 1.8-2.3171 3.1971-.0657.3807.0226.6075.3243.7249.6547.2754 1.3258.5183 1.9969.7552.0599.0233.1243.0332.1885.029s.1268-.0224.183-.0533c.3797-.3503.7327-.7309 1.1903-1.1966h-.6731c-.8004 0-1.0878-.2713-1.0467-1.0407l.1621-2.4115-.0082-.0041zm-2.7665 4.0313c-.2564.0955-.506.2078-.7471.3361-.3034.1872-.5904.3992-.8579.6338-.1255.1167-.1992.2775-.2052.4474 0 .1033.2052.2552.3448.2774.9153.1811 1.8394.3162 2.7686.405.7122.0506 1.4367-.0608 2.155-.1012l.0882-.2207c-.1887-.1778-.395-.3365-.6157-.4738-.2821-.1169-.573-.2116-.8702-.2835-.3817-.1215-.7593-.3199-1.1185.079-.0575.0648-.2648 0-.4105 0 .0053-.1206.021-.2405.0472-.3584.0416-.0748.0941-.143.156-.2025-.234.0162-.4105.2025-.5603.2025-.6157-.0425-.1252-.3908-.1662-.737l-.0082-.0041zm4.3468-2.7962c-.4105.239-.8209.3827-1.1.65-.0766.0834-.1282.1861-.1491.2968s-.0101.2248.0309.3298.111.1966.2018.2648.1989.11.3125.121l4.2237.3563c.1621.0122.3345-.1215.5028-.1863-.1395-.1559-.2504-.4049-.4228-.4515-.6629-.2025-1.3422-.3746-2.0216-.5224-.1909-.0091-.3815.0233-.5582.0952-.1826.0486-.3591.1235-.5377.1883l-.0677-.3766h-.5624c.0452-.1903.0801-.3766.156-.7613l-.0082-.0041zm-1.2663-5.3372h-.1314l-1.611 4.5435.1765.1134 1.059-1.1419c.1398-.1204.2417-.2778.2935-.4536.0985-1.0205.1539-2.0389.2216-3.0574l-.0082-.004z" fill="#000"></path></svg>