<svg width="48" height="48" viewBox="0 0 48 48" fill="none" xmlns="http://www.w3.org/2000/svg">
<path d="M8.23936 28.3715C8.98321 26.2702 10.267 26.588 11.3997 26.1957L14.8736 25.3628L18.423 24.8739C18.9658 24.9104 19.5879 24.6702 20.2974 24.63C20.996 24.5787 21.8149 24.7831 22.2312 25.6056C21.5715 26.5881 21.193 26.8741 20.6271 26.9926C20.0833 27.1113 19.4628 27.0855 18.9734 27.393L15.5428 28.4035L12.0258 29.0366C10.8284 29.1183 9.78152 29.9765 8.20619 28.3602L8.23936 28.3715Z" fill="#222222"/>
<path d="M9.07263 39.0014C8.54205 36.2939 10.1348 35.7348 11.1057 34.5615L14.3214 31.3034L17.831 28.3424C19.0561 27.6659 19.8307 25.7251 22.0482 26.0977C22.9571 28.8587 20.6735 29.2726 20.0419 30.5646L16.9864 33.9849L13.5971 37.0674C12.359 37.9704 11.7796 39.5848 9.07263 39.0014Z" fill="#222222"/>
<path d="M22.4956 25.8731C24.1047 27.412 23.2786 28.4268 23.1498 29.5897L22.4535 33.0324L21.414 36.3955C20.8765 37.3454 21.2551 38.9104 19.5666 39.5876C17.6797 38.1689 19.05 36.969 18.8792 35.8597L19.3873 32.3826L20.2829 28.9854C20.7106 27.8797 20.3745 26.6032 22.4846 25.862L22.4956 25.8731Z" fill="#222222"/>
<path d="M39.9457 18.9899C39.2018 21.0913 37.9181 20.7734 36.7853 21.1657L33.3115 21.9986L29.7621 22.4875C29.2192 22.4511 28.5972 22.6913 27.8876 22.7314C27.1891 22.7827 26.3702 22.5784 25.9539 21.7558C26.6135 20.7733 26.992 20.4874 27.558 20.3688C28.1017 20.2501 28.7222 20.2759 29.2117 19.9685L32.6423 18.958L36.1593 18.3248C37.3567 18.2432 38.4035 17.3849 39.9789 19.0012L39.9457 18.9899Z" fill="#222222"/>
<path d="M39.1124 8.36002C39.643 11.0676 38.0503 11.6267 37.0794 12.7999L33.8636 16.0581L30.3541 19.019C29.129 19.6956 28.3544 21.6364 26.1368 21.2638C25.2279 18.5028 27.5115 18.0889 28.1432 16.7969L31.1987 13.3765L34.588 10.294C35.826 9.39101 36.4055 7.77667 39.1124 8.36002Z" fill="#222222"/>
<path d="M25.6894 21.4884C24.0804 19.9494 24.9065 18.9347 25.0352 17.7717L25.7316 14.329L26.771 10.966C27.3086 10.016 26.9299 8.45108 28.6185 7.77389C30.5053 9.19253 29.1351 10.3925 29.3059 11.5018L28.7977 14.9788L27.9022 18.376C27.4745 19.4818 27.8105 20.7583 25.7004 21.4995L25.6894 21.4884Z" fill="#222222"/>
</svg>
