<svg xmlns="http://www.w3.org/2000/svg" fill="none" viewBox="0 0 48 48"><path fill="currentColor" fill-rule="evenodd" d="m37.36 23.804-1.045.754-1.611 1.482c-.119.2-.303.33-.493.464-.418.294-.867.61-.731 1.733.658.337 1.089-.006 1.488-.325.185-.148.364-.29.555-.356l1.782-1.164 1.673-1.373c.117-.115.244-.21.371-.303.445-.33.89-.66.862-1.872v-.01a2.562 2.562 0 0 0-.233-.12 1.077 1.077 0 0 0-.034-.052c.137-.059.284-.146.447-.268l.007-.005c-.08-1.19-.539-1.473-.997-1.755a2.958 2.958 0 0 1-.418-.292l-1.756-1.21-1.858-.96c-.201-.026-.385-.156-.576-.29-.417-.295-.865-.611-1.595.094.09.864.55 1.147.975 1.41.197.122.387.24.53.409l1.717 1.3 1.598.956a1.775 1.775 0 0 1-.387-.059l-9.205-.2-2.503.048c-.189.023-.378.019-.566.015-.298-.006-.595-.012-.891.084a3.367 3.367 0 0 0-.684-.04c-.199.001-.398.003-.596-.026l-2.502-.096-8.936.17 1.047-.754 1.61-1.483c.12-.2.304-.329.494-.463.418-.294.867-.61.73-1.733-.657-.337-1.088.006-1.487.325-.185.147-.364.29-.555.356l-1.782 1.164-1.674 1.373a3.322 3.322 0 0 1-.37.303c-.445.33-.89.659-.863 1.871v.011c.082.047.16.087.234.12.01.018.022.035.034.051-.137.06-.285.147-.447.269l-.008.005c.08 1.19.54 1.473.998 1.755.143.088.286.176.417.292l1.757 1.21 1.858.96c.2.026.385.155.575.29.417.294.866.61 1.595-.094-.089-.864-.548-1.148-.974-1.41-.197-.122-.388-.24-.53-.409l-1.717-1.301-1.597-.955c.137.009.267.025.386.06l9.206.198 2.503-.047a4.11 4.11 0 0 1 .566-.014c.297.006.595.012.891-.085.228.045.456.043.683.04.2-.001.398-.003.596.027l2.502.095 8.935-.17Z" clip-rule="evenodd"/><path fill="currentColor" fill-rule="evenodd" d="m23.628 35.679-.753-1.044-1.482-1.611c-.2-.119-.33-.303-.464-.494-.293-.417-.61-.866-1.733-.73-.337.657.007 1.088.325 1.487.148.186.29.364.356.556l1.164 1.781 1.373 1.674c.115.116.21.244.303.37.33.446.66.891 1.872.863h.01a2.58 2.58 0 0 0 .121-.234l.05-.034c.06.137.147.285.269.448l.005.008c1.19-.08 1.473-.54 1.755-.998.088-.143.176-.286.292-.417l1.21-1.757.96-1.858c.026-.2.156-.385.29-.576.295-.417.611-.865-.094-1.595-.864.09-1.147.55-1.41.975-.122.197-.24.387-.409.53l-1.3 1.717-.957 1.6c.008-.138.024-.269.059-.39l.2-9.205-.048-2.503a4.093 4.093 0 0 1-.015-.566c.006-.297.012-.594-.084-.89.044-.228.042-.455.04-.681a3.77 3.77 0 0 1 .026-.596l.096-2.503-.17-8.935.754 1.047 1.482 1.61c.2.119.33.303.464.494.294.417.61.866 1.733.73.337-.657-.006-1.088-.325-1.487-.148-.186-.29-.364-.356-.555l-1.164-1.782L26.7 8.454a3.316 3.316 0 0 1-.303-.37c-.33-.446-.66-.89-1.872-.863h-.01a2.57 2.57 0 0 0-.12.233l-.052.034a2.24 2.24 0 0 0-.268-.447l-.005-.007c-1.19.08-1.473.539-1.755.997a2.948 2.948 0 0 1-.292.418l-1.21 1.757-.96 1.857c-.026.201-.156.385-.29.576-.294.417-.611.866.094 1.595.864-.09 1.147-.549 1.41-.975.122-.197.24-.387.409-.53l1.3-1.717.955-1.597a1.773 1.773 0 0 1-.059.387l-.199 9.205.048 2.503c.022.189.018.378.014.566-.006.298-.012.595.084.89a3.373 3.373 0 0 0-.04.681c.002.2.004.399-.026.597l-.095 2.502.17 8.933Z" clip-rule="evenodd"/></svg>