<svg width="33" height="33" viewBox="0 0 33 33" fill="none" xmlns="http://www.w3.org/2000/svg">
<path d="M0.782715 16.7949C0.782715 7.95837 7.94616 0.794922 16.7827 0.794922C25.6193 0.794922 32.7827 7.95837 32.7827 16.7949C32.7827 25.6315 25.6193 32.7949 16.7827 32.7949C7.94616 32.7949 0.782715 25.6315 0.782715 16.7949Z" fill="#222222"/>
<path d="M11.0216 22.7381C10.6247 21.3952 10.9958 20.196 11.0468 18.9963C11.0979 17.7965 11.1542 16.6705 11.1577 15.5095C11.1148 13.9464 11.2988 12.3767 11.7032 10.8535C12.7177 11.3203 13.6438 11.7137 14.54 12.17C16.7514 13.2939 18.9547 14.431 21.1482 15.5981C21.6944 15.9295 22.2209 16.294 22.7249 16.6898C22.4865 17.5105 21.8865 17.8611 21.302 18.1405C18.6425 19.4118 15.973 20.6567 13.2936 21.875C12.585 22.205 11.8406 22.4317 11.0216 22.7381Z" fill="white"/>
</svg>
