<svg xmlns="http://www.w3.org/2000/svg" width="30" height="30" fill="#000"><path d="M17.9354 9.20025c-.9794 1.54625-1.9587 1.05665-2.938 1.15975l-2.9379.0257-2.93796-.2577c-.86335-.27058-2.10038.2964-2.93795-.94064.83757-1.76534 2.06172-.86334 2.93795-1.18548l2.93796-.19329 2.9379.14175c.9793.15463 1.9715-.33503 2.938 1.23702v.01289zm.8375 5.23145c-.2062-1.6107.3866-1.3788.7602-1.7138.3995-.2449.7861-.5155 1.1598-.8118.4252-.2062.8504-.451 1.2628-.7087.5025-.1031.5025-.902 1.7138-.3995 1.0179 1.5076-.1418 1.4174-.2706 1.9586l-.567.6185-.5928.5928c-.4767.2964-.9664.567-1.456.7989-.5412.1289-.8505.8633-1.9844-.3479l-.0258.0129z"></path><path d="M24.3655 10.5534c1.5462.7216 1.0308 1.4174 1.121 2.1133v2.0875l-.3092 2.0874c-.2706.6186.2706 1.4948-.9794 2.0746-1.7524-.6185-.8375-1.4818-1.1468-2.1132l-.1546-2.1004.1804-2.0875c.1675-.6958-.3093-1.4045 1.2757-2.0746l.0129.0129z"></path><path d="M23.9146 19.135c-1.4303.8118-1.5205.0902-2.0102-.1933l-1.2628-1.0566-1.0824-1.2757c-.1932-.5155-1.0824-.5412-.6314-1.7911 1.5077-1.0309 1.4432.103 2.0231.1804l1.3659.9277 1.1468 1.1855c.3093.4768 1.0566.4639.4381 2.0102l.0129.0129z"></path><path d="M18.3477 9.23884c1.5463 2.92506 1.0309 5.83726 1.1211 8.74936-.0258.7216.0515 1.7912-.7345 2.8607-.3866.5025-.9407.8504-1.4432 1.0308s-.9793.2577-1.4046.2835l-2.2936.0258h-2.1906l-2.19056-.0902c-.73449-.0516-1.39166.0129-2.40963-.1804-.47677-.1031-1.0824-.3479-1.5334-.8376s-.64428-1.0953-.70871-1.5592c-.11597-.9793-.02577-1.6107-.03866-2.358.11597-1.2886.01289-2.8478.03866-4.407.03866-.786 0-1.4947.24483-2.4096.20617-.91487 1.23703-1.7009 1.99728-1.36587-.33503.23194-.451.5412-.50254.82468s-.02577.50259 0 .78599l.21906 2.1262.11597 4.4198c.06443-.1804-.16752 2.9508.64428 2.4998.32215.0644.83757.0387 1.36589.0258l1.40453-.0258 1.3659-.0258 2.1906.0516 2.0875.0258c.6185-.0258 1.005-.1804 1.121-.348.1546-.1417.2706-.67.2577-1.3658.1675-2.8993-.3092-5.863 1.2757-8.73656z"></path></svg>