<svg width="32" height="32" viewBox="0 0 32 32" fill="none" xmlns="http://www.w3.org/2000/svg">
<g id="Icon / System">
<path id="Vector" d="M16.6224 20.3922C16.8241 20.6771 16.9131 21.0034 16.8775 21.3357C16.8538 21.6858 16.6283 22.0655 16.3316 22.2554C16.1121 22.386 15.8807 22.4512 15.6374 22.4512C15.5484 22.4512 15.4653 22.4453 15.3763 22.4275C15.0084 22.3741 14.6643 22.1427 14.5159 21.8401C14.4151 21.5908 14.332 21.2467 14.4329 20.9025C14.4803 20.6949 14.6405 20.4872 14.8482 20.3804C14.8601 20.3804 14.8719 20.3685 14.8779 20.3626C14.8779 20.3507 14.8838 20.3388 14.8897 20.327C15.05 19.9591 15.4356 19.7751 15.8451 19.8641C16.1358 19.9235 16.4088 20.1074 16.6224 20.3863V20.3922ZM17.9693 9.88963C17.1564 9.4802 16.2545 9.3734 15.2814 9.58108C14.2667 9.82436 13.4775 10.3169 12.9969 10.9992C12.3857 11.8359 12.273 12.7971 12.6943 13.5448C12.6943 13.5744 12.7062 13.6041 12.718 13.6338C12.7596 13.7228 12.8486 13.7881 12.9435 13.8059C13.0622 13.8296 13.169 13.7762 13.2343 13.6812C13.258 13.6516 13.2699 13.616 13.2817 13.5804L13.3648 13.4676C13.792 12.898 14.0768 12.5242 14.4091 12.1741C14.688 11.8893 15.133 11.5333 15.673 11.468C16.1477 11.379 16.6817 11.4443 17.0437 11.646C17.4353 11.8596 17.7142 12.2631 17.7557 12.542C17.7636 12.5895 17.7636 12.629 17.7557 12.6607C17.7498 12.7022 17.7379 12.7556 17.732 12.8505C17.7201 12.9989 17.465 13.3312 17.2751 13.5744C17.2158 13.6516 17.1623 13.7347 17.103 13.8118C16.925 14.0669 16.7351 14.334 16.5334 14.4942C16.4384 14.5713 16.3791 14.6069 16.3257 14.6425C16.2426 14.6959 16.1536 14.7493 15.9815 14.9095C15.8629 15.0341 15.7086 15.1706 15.5365 15.313C15.1212 15.6572 14.6109 16.0844 14.326 16.7608C14.1302 17.2296 14.0946 17.7874 14.237 18.2977C14.3913 18.8614 14.8126 19.2648 15.311 19.3242C15.3229 19.3242 15.3348 19.3242 15.3466 19.3242C15.4238 19.3242 15.495 19.2945 15.5484 19.2411C15.6137 19.1818 15.6433 19.0928 15.6374 19.0038C15.6137 18.6774 15.6255 18.446 15.6789 18.2324C15.7383 18.0188 15.8391 17.7814 15.9875 17.4966C16.1833 17.0991 16.6105 16.6778 17.1623 16.3514C17.3048 16.2446 17.459 16.1437 17.6252 16.0369C18.0643 15.7462 18.5627 15.4198 18.9781 14.9392C19.251 14.6188 19.4824 14.2093 19.6723 13.7287C19.8681 13.2303 19.9274 12.6607 19.8266 12.1266C19.5774 10.9458 18.6695 10.2575 17.9515 9.88369L17.9693 9.88963ZM27.5878 15.936C27.5878 16.8261 27.5285 17.5559 27.4039 18.173C27.303 18.6893 27.0716 19.158 26.8461 19.609C26.7393 19.8226 26.6384 20.0303 26.5494 20.2439C26.3002 20.8373 25.9501 21.3594 25.606 21.8579L25.3568 22.2317C24.977 22.7954 24.5913 23.3769 24.087 23.8812L23.8852 24.0889C23.4402 24.534 22.9833 24.9968 22.4433 25.3647C21.9212 25.7148 21.3337 25.9521 20.7641 26.1835L20.4437 26.3141C19.8859 26.5455 19.2985 26.6523 18.7288 26.7591L18.3135 26.8362C18.0702 26.8837 17.8269 26.9608 17.5718 27.0439C17.1208 27.1863 16.6521 27.3347 16.1477 27.3347C15.5069 27.3347 14.8897 27.2041 14.2964 27.0854L13.9463 27.0142C13.347 26.8956 12.7952 26.6582 12.2611 26.4268L11.8695 26.2607C11.288 26.0174 10.7836 25.6732 10.2971 25.3469L9.99446 25.1392C9.40703 24.7476 8.873 24.3025 8.3271 23.7566C8.22029 23.6498 8.11942 23.549 8.01261 23.4481C7.60912 23.0505 7.18783 22.647 6.85554 22.1427L6.79621 22.0537C6.41645 21.49 6.02483 20.9025 5.75188 20.2439C5.49673 19.6327 5.37212 18.986 5.24752 18.3511L5.20005 18.1137C5.15258 17.8645 5.06357 17.6153 4.97457 17.3483C4.82029 16.8973 4.66602 16.4345 4.66602 15.936C4.66602 15.3367 4.79062 14.7612 4.91523 14.1975C4.95083 14.0373 4.98643 13.8771 5.0161 13.7228C5.12291 13.2006 5.34839 12.7319 5.56794 12.275C5.66287 12.0732 5.76375 11.8715 5.84682 11.6697C5.94176 11.4324 6.0189 11.1891 6.09603 10.9458C6.23844 10.4889 6.38678 10.0142 6.66567 9.59888C7.11069 8.9343 7.58539 8.34687 8.07195 7.86031C8.45764 7.47462 8.9264 7.18387 9.37736 6.90499C9.54944 6.79818 9.72745 6.69137 9.89359 6.57863C10.487 6.18108 11.1515 5.90219 11.7924 5.63518L11.8636 5.60551C12.0831 5.5165 12.3027 5.40376 12.5222 5.29102C12.9613 5.06554 13.4123 4.83413 13.9166 4.73326C14.4151 4.63239 14.9254 4.66799 15.4178 4.69766C15.6611 4.71546 15.9044 4.72732 16.1418 4.72732C16.7529 4.72732 17.3226 4.85193 17.8744 4.97061C18.0168 5.00027 18.1592 5.02994 18.3016 5.05961C19.0315 5.20202 19.7257 5.34443 20.4081 5.62331C20.6276 5.71232 20.859 5.78945 21.0845 5.86659C21.5533 6.02087 22.0339 6.18701 22.4552 6.47183L22.6451 6.60237C23.1969 6.97026 23.7665 7.35001 24.2412 7.82471C24.5973 8.18073 24.8346 8.61982 25.066 9.04111C25.1906 9.26659 25.3152 9.49207 25.4517 9.70568C25.9205 10.4059 26.2587 11.017 26.5138 11.6341C26.7215 12.1326 26.8046 12.6607 26.8877 13.171C26.9173 13.3727 26.9529 13.5744 26.9945 13.7762C27.0419 14.0313 27.1428 14.2865 27.2437 14.5594C27.4098 14.9926 27.576 15.4436 27.576 15.936H27.5878ZM24.8583 13.9483C24.7278 13.3668 24.4548 12.8149 24.1997 12.2868L23.992 11.8596C23.7309 11.3137 23.4877 10.8034 23.1376 10.3643L22.9299 10.0973C22.5798 9.65228 22.2178 9.19539 21.7966 8.85717C21.4939 8.61389 21.1082 8.47741 20.6988 8.32907C20.4555 8.24006 20.2004 8.15106 19.9571 8.03238L19.6901 7.90184C19.1679 7.6467 18.6754 7.40341 18.1295 7.27881L17.7913 7.20167C17.2573 7.07706 16.7055 6.94059 16.1536 6.94059H15.9341C15.8629 6.94059 15.7917 6.94059 15.7145 6.94059C15.1686 6.94059 14.6168 6.95245 14.1302 7.06519C13.4479 7.21947 12.7833 7.45088 12.2018 7.72977C11.7093 7.96711 11.2465 8.34094 10.8014 8.70289L10.5522 8.90464C10.0301 9.31999 9.58504 9.88369 9.18748 10.3762L9.08661 10.5067C8.70092 10.9874 8.30336 11.4858 8.04228 12.0258C7.88207 12.358 7.84054 12.7556 7.799 13.171C7.77526 13.4439 7.7456 13.7228 7.68033 13.9957C7.64472 14.1381 7.60912 14.2806 7.57352 14.4289C7.44891 14.9392 7.32431 15.4198 7.32431 15.936C7.32431 16.1556 7.31244 16.3751 7.30057 16.5888C7.27684 17.0694 7.2531 17.5263 7.34804 17.9416C7.43705 18.3392 7.65659 18.7011 7.888 19.0809C8.01855 19.2945 8.14909 19.5141 8.25589 19.7336C8.52884 20.2914 8.86113 20.8195 9.31802 21.3832C9.4367 21.5315 9.54944 21.6858 9.66218 21.8401C9.95886 22.2376 10.2377 22.6114 10.5997 22.9022C11.1219 23.3175 11.6559 23.7448 12.2552 24.0355C12.6231 24.2135 13.0444 24.2729 13.4894 24.3441C13.7327 24.3797 13.97 24.4153 14.2074 24.4687C14.4269 24.5162 14.6405 24.5814 14.8601 24.6467C15.3051 24.7772 15.7205 24.9018 16.1596 24.9018C16.8123 24.9018 17.4828 24.8247 18.1533 24.6704C18.7466 24.534 19.3578 24.3085 20.0343 23.9821C20.2004 23.905 20.3725 23.8278 20.5386 23.7507C20.9955 23.549 21.4643 23.3354 21.8322 23.0446C22.111 22.8191 22.3069 22.4809 22.5086 22.1189C22.651 21.8638 22.7993 21.6027 22.9833 21.3713C23.4343 20.8076 23.7487 20.2083 23.992 19.698C24.0929 19.4963 24.1997 19.2945 24.3124 19.0987C24.5379 18.7011 24.7515 18.3273 24.8465 17.912L24.8999 17.6865C25.0304 17.1109 25.1728 16.5175 25.1728 15.9301C25.1728 15.2596 25.0185 14.595 24.8702 13.9423L24.8583 13.9483Z" fill="#222222"/>
</g>
</svg>
