<svg width="48" height="48" viewBox="0 0 48 48" fill="none" xmlns="http://www.w3.org/2000/svg">
<g clip-path="url(#clip0_2483_9392)">
<path d="M19.1818 13.3614C19.6306 13.8872 19.8101 14.4451 19.7652 15.1248C19.7332 15.5224 19.5985 16.1252 19.1626 16.7665C18.701 17.459 18.2137 17.9079 17.6239 18.1773C17.034 18.453 16.457 18.5556 16.0467 18.5941C16.0659 18.7031 16.0851 18.8057 16.1044 18.9083C16.1621 19.2225 16.2134 19.5367 16.2518 19.8574C16.2903 20.2101 16.0403 20.5243 15.6876 20.5692C15.662 20.5692 15.6364 20.5692 15.6107 20.5692C15.2902 20.5692 15.0145 20.3255 14.976 20.0049C14.9439 19.7099 14.8927 19.4213 14.8414 19.1328C14.7837 18.8185 14.7324 18.5107 14.6939 18.1965C14.6939 18.1709 14.6939 18.1452 14.6939 18.1196C14.6939 17.645 15.2389 17.3436 15.521 17.3436C15.7966 17.3308 16.457 17.3051 17.0917 17.0102C17.4572 16.8434 17.7777 16.5356 18.1047 16.0483C18.3932 15.6314 18.4701 15.2595 18.4958 15.0222C18.515 14.7401 18.4766 14.4964 18.2201 14.195L18.1239 14.0796C17.8739 13.7846 17.6623 13.5281 17.3802 13.4447C16.9314 13.3165 16.4057 13.2716 16.0018 13.3357C15.7582 13.3742 15.5274 13.5601 15.2645 13.7782C15.1555 13.868 15.0465 13.9577 14.9375 14.0347C14.5529 14.3168 14.3477 14.5477 14.2323 14.8427C14.0977 15.1697 13.7258 15.33 13.3988 15.1954C13.0718 15.0607 12.9116 14.6888 13.0462 14.3617C13.3155 13.7012 13.7963 13.2908 14.181 13.0022C14.2708 12.9381 14.3605 12.8612 14.4503 12.7906C14.7901 12.5085 15.2196 12.1622 15.8095 12.0724C16.3929 11.9826 17.1174 12.0403 17.7393 12.2199C18.3932 12.4059 18.7907 12.8804 19.1113 13.2588L19.201 13.3678L19.1818 13.3614ZM16.8353 22.0569C16.9122 22.2621 16.9122 22.5122 16.8224 22.711C16.7391 22.897 16.5788 23.0381 16.3865 23.115C16.2647 23.1791 16.1364 23.2176 16.0018 23.2176C15.8672 23.2176 15.7325 23.1856 15.6043 23.115C15.4312 23.0188 15.3094 22.8649 15.2453 22.6854C15.1555 22.5379 15.0337 22.2814 15.117 21.9607C15.1812 21.7299 15.3671 21.5183 15.5787 21.4221C15.6107 21.4092 16.3544 21.0822 16.7904 21.9607C16.8032 21.9928 16.8224 22.0249 16.8353 22.0633V22.0569ZM16.2006 22.897L16.1493 22.6597L16.0018 22.4096L15.3863 22.7046C15.5081 22.8649 15.8608 23.0188 16.2006 22.8906V22.897ZM38.3067 19.3636C38.2297 19.479 38.1464 19.5881 38.0566 19.7035C37.954 19.8381 37.8515 19.9728 37.7553 20.1139C37.6591 20.2614 37.5758 20.4153 37.4924 20.5692C37.4347 20.6846 37.377 20.8 37.3001 20.9091L36.2807 22.4417C36.2294 22.5122 36.1461 22.602 36.0563 22.6918C35.9281 22.82 35.7742 22.9675 35.6524 23.1599C35.5755 23.2817 35.4921 23.3972 35.4088 23.519C35.3126 23.6537 35.2228 23.7883 35.1331 23.923C35.0113 24.109 34.9471 24.3014 34.8894 24.4681C34.851 24.5835 34.8125 24.6925 34.7676 24.7567C34.6843 24.8785 34.6009 24.9939 34.5176 25.1094C34.4214 25.2376 34.3253 25.3723 34.2355 25.5069C34.165 25.6095 34.0816 25.6993 33.9983 25.7891C33.8829 25.9173 33.7482 26.0584 33.6392 26.2252C33.5815 26.3149 33.5303 26.4047 33.4854 26.4945C33.4277 26.4432 33.3636 26.3983 33.3059 26.3534L32.6134 25.8212C32.5044 25.7378 32.3955 25.648 32.2929 25.5582C32.1775 25.4621 32.0557 25.3659 31.9403 25.2697C31.8313 25.1863 31.7287 25.0965 31.6261 25.0132C31.5043 24.9106 31.3889 24.8144 31.2607 24.7182C31.1388 24.622 31.017 24.5322 30.8888 24.4424C30.7798 24.3591 30.6644 24.2821 30.5554 24.1923C30.2733 23.9743 29.8758 24.0256 29.6578 24.3078C29.4399 24.5899 29.4911 24.9875 29.7732 25.2055C29.8951 25.2953 30.0169 25.3851 30.1323 25.4749C30.2477 25.5582 30.3567 25.6416 30.4721 25.7314C30.5875 25.8212 30.6901 25.9109 30.799 26.0007C30.9144 26.0969 31.0299 26.1931 31.1453 26.2829C31.2542 26.3662 31.3632 26.456 31.4658 26.5458C31.5812 26.642 31.703 26.7382 31.8184 26.8344L32.5109 27.3666C32.6199 27.45 32.7288 27.5398 32.8378 27.6295C32.9532 27.7257 33.0751 27.8219 33.1584 27.886C33.2866 28.0015 33.4533 28.0592 33.6392 28.0592C33.6713 28.0592 33.7098 28.0592 33.7482 28.0528C33.9726 28.0271 34.1521 27.9181 34.2675 27.745C34.3701 27.5911 34.4535 27.4243 34.5304 27.264C34.5817 27.155 34.633 27.0396 34.7035 26.937C34.774 26.8344 34.8574 26.7446 34.9407 26.6548C35.0561 26.5266 35.1908 26.3855 35.2998 26.2187C35.3831 26.0969 35.4665 25.9815 35.5498 25.866C35.646 25.7378 35.7421 25.6031 35.8319 25.4685C35.9665 25.2697 36.0371 25.0645 36.0948 24.8977C36.1332 24.7887 36.1717 24.6861 36.2102 24.622C36.2871 24.5002 36.3704 24.3847 36.4538 24.2629C36.55 24.1282 36.6397 23.9936 36.7295 23.8589C36.7744 23.7883 36.8641 23.6986 36.9603 23.6088C37.0885 23.4805 37.2296 23.3395 37.3514 23.1599L38.3708 21.6273C38.4669 21.4798 38.5503 21.3259 38.6336 21.172C38.6913 21.0566 38.749 20.9411 38.826 20.8321C38.9029 20.7167 38.9863 20.6077 39.076 20.4922C39.1786 20.3576 39.2812 20.2229 39.3773 20.0818C39.5761 19.7868 39.4927 19.3893 39.1978 19.1905C38.9029 18.9917 38.5054 19.075 38.3067 19.37V19.3636ZM38.7875 32.0222C38.3131 32.0222 38.0759 32.0094 37.8386 31.9901C37.5822 31.9709 37.3257 31.9581 36.8128 31.9581H28.9334C28.4333 31.9581 28.1897 31.9581 27.9396 31.9581C27.696 31.9581 27.4524 31.9645 26.9651 31.9645C26.4778 31.9645 26.2406 31.9517 25.997 31.9453C25.747 31.9324 25.4969 31.926 24.9968 31.926C24.6955 31.926 24.4519 32.1697 24.4519 32.4711C24.4519 32.7725 24.6955 33.0162 24.9968 33.0162C25.4777 33.0162 25.7149 33.029 25.9585 33.0354C26.2086 33.0482 26.465 33.0546 26.9651 33.0546C27.4652 33.0546 27.7088 33.0546 27.9588 33.0546C28.2025 33.0546 28.4461 33.0482 28.9334 33.0482H36.8128C37.2873 33.0482 37.5245 33.0611 37.7617 33.0803C38.0182 33.0995 38.2746 33.1124 38.7875 33.1124C39.0888 33.1124 39.3325 32.8687 39.3325 32.5673C39.3325 32.2659 39.0888 32.0222 38.7875 32.0222ZM38.7875 34.5231C38.2874 34.5231 38.031 34.5296 37.7809 34.5424C37.5373 34.5488 37.2937 34.5552 36.8128 34.5552C36.2999 34.5552 36.0435 34.5744 35.7806 34.5937C35.5434 34.6129 35.3062 34.6257 34.8382 34.6257H32.8699C32.4019 34.6257 32.1775 34.6065 31.9338 34.5809C31.6774 34.5552 31.4209 34.536 30.9016 34.536C30.3823 34.536 30.1451 34.5488 29.8951 34.5616C29.6578 34.5744 29.4142 34.5809 28.9334 34.5809C28.4525 34.5809 28.2089 34.5744 27.9717 34.5616C27.7216 34.5488 27.4716 34.5424 26.9651 34.5424C26.4586 34.5424 26.2342 34.5424 25.9906 34.5296C25.7405 34.5296 25.4969 34.5231 25.0032 34.5231C24.7019 34.5231 24.4583 34.7668 24.4583 35.0682C24.4583 35.3696 24.7019 35.6133 25.0032 35.6133C25.4841 35.6133 25.7277 35.6133 25.9713 35.6261C26.2214 35.6261 26.4714 35.6325 26.9715 35.6325C27.4716 35.6325 27.696 35.6389 27.9332 35.6518C28.1832 35.6646 28.4333 35.671 28.9398 35.671C29.4463 35.671 29.6963 35.6582 29.9463 35.6454C30.1836 35.6325 30.4272 35.6261 30.908 35.6261C31.3889 35.6261 31.6005 35.6454 31.8441 35.671C32.1005 35.6967 32.357 35.7159 32.8763 35.7159H34.8446C35.3511 35.7159 35.6075 35.6967 35.864 35.6774C36.1012 35.6582 36.3384 35.6454 36.8192 35.6454C37.3193 35.6454 37.5758 35.6389 37.8258 35.6261C38.0694 35.6197 38.3131 35.6133 38.7939 35.6133C39.0952 35.6133 39.3389 35.3696 39.3389 35.0682C39.3389 34.7668 39.0952 34.5231 38.7939 34.5231H38.7875ZM43.9999 40.5254C43.9999 40.6985 43.9358 40.8589 43.8139 40.9807C43.6921 41.1025 43.5319 41.1667 43.3587 41.1667H20.4192C20.0666 41.1667 19.778 40.8781 19.778 40.5254V26.9177C19.6755 26.9177 19.5601 26.9305 19.4126 26.937C19.0087 26.9562 18.8292 27.0139 18.6176 27.0716C18.3676 27.1422 18.0855 27.2191 17.5469 27.2512C17.0853 27.2768 16.8481 27.2832 16.6173 27.2832C16.3801 27.2832 16.1557 27.2897 15.6812 27.3217C15.3607 27.341 15.1363 27.341 14.9504 27.3345C15.1619 27.6552 15.3735 27.9758 15.5851 28.29C15.8223 28.6427 16.0595 29.0018 16.2903 29.3545C16.4762 29.6367 16.6558 29.9124 16.8417 30.1946C16.9827 30.3741 16.9956 30.6563 16.8673 30.9192C16.7391 31.1693 16.5083 31.3232 16.2518 31.3232C15.553 31.2912 14.7452 31.1308 13.9438 30.8743C13.3027 30.6691 12.6038 30.3357 11.8665 29.8804C11.2575 29.502 10.7317 29.1109 10.2958 28.7197L10.0008 28.4504C9.60975 28.0977 9.24431 27.7706 8.96862 27.4372C8.80834 27.4436 8.64165 27.4564 8.48137 27.4628C8.16721 27.4756 7.85947 27.4949 7.54532 27.5141C7.26322 27.5333 6.97471 27.5846 6.66697 27.6359C6.32076 27.7001 5.96173 27.7642 5.58988 27.7834C5.31419 27.8027 5.06415 27.6359 4.96157 27.3794C4.89746 27.2191 4.91028 27.0332 4.98722 26.8664C4.96798 26.5394 4.93593 26.1867 4.90387 25.8596C4.83335 25.1414 4.79488 24.6925 4.85258 24.3783C4.85258 24.3334 4.84617 24.2629 4.83976 24.1667C4.82052 23.8525 4.78205 23.3266 4.76923 22.5828C4.76923 22.3519 4.75 22.0954 4.73718 21.8132C4.71794 21.4798 4.69871 21.1143 4.6923 20.7167C4.6923 20.4345 4.6923 20.1395 4.6923 19.8189C4.6923 19.5111 4.6923 19.1905 4.6923 18.8506C4.6923 18.5941 4.67947 18.3312 4.66665 18.0554C4.65383 17.7091 4.64101 17.3564 4.6346 16.9845C4.6346 16.6959 4.65383 16.4074 4.67306 16.0996C4.69871 15.7469 4.73076 15.3813 4.71153 15.0094C4.6923 14.5798 4.64742 14.1373 4.60254 13.6692L4.54484 13.0343C4.51919 12.7393 4.45508 12.4251 4.39097 12.0916C4.32685 11.7646 4.25633 11.4247 4.21786 11.072C4.18581 10.7963 4.16016 10.5205 4.14093 10.2448C4.11528 9.91134 4.08964 9.57147 4.03835 9.21236C4.00629 9.08411 4.0127 8.95586 4.05758 8.8276C4.11528 8.66729 4.2371 8.53262 4.39097 8.46208C5.21802 8.07732 5.47447 8.07091 6.16689 8.09656C6.2823 8.09656 6.41052 8.10297 6.5708 8.10938L7.07088 8.12221C7.57096 8.13504 7.7056 8.14145 8.43649 8.08373L8.8981 8.05167C9.42382 8.01319 9.55846 8.00037 10.3663 7.94907C10.8215 7.917 11.0587 7.88494 11.2831 7.85288C11.546 7.8144 11.8152 7.77593 12.3538 7.75028L13.3219 7.69897C13.5783 7.68615 13.8284 7.66691 14.3349 7.64126C15.3222 7.58996 15.3222 7.64126 16.316 7.58996C16.8481 7.56431 17.1174 7.57713 17.3866 7.59637C17.6239 7.6092 17.8483 7.62844 18.3035 7.59637C18.7587 7.57072 18.9766 7.53225 19.2074 7.48736C19.4575 7.44247 19.7396 7.38475 20.2781 7.3591C20.7526 7.33345 20.9898 7.3078 21.227 7.28215C21.4835 7.2565 21.7399 7.22444 22.2528 7.19879C22.8106 7.17314 23.1119 7.21161 23.3748 7.25009C23.612 7.28215 23.8107 7.31421 24.2403 7.29498C24.6699 7.26933 24.875 7.22444 25.1058 7.16672C25.3623 7.1026 25.6572 7.03206 26.2086 6.99999C26.356 6.99358 26.5035 7.03847 26.6253 7.12183C26.8369 7.27574 26.9459 7.5579 26.9459 7.75669C26.9651 8.25046 26.9651 8.50697 26.9651 8.76348C26.9651 9.01998 26.9651 9.25725 26.9843 9.75103C27.0036 10.2576 27.0164 10.5013 27.0356 10.7578C27.042 10.8989 27.0549 11.0464 27.0613 11.2324L43.301 11.1169C43.4613 11.1041 43.6344 11.1811 43.7562 11.3029C43.8781 11.4247 43.9422 11.585 43.9486 11.7582L44.0191 40.519L43.9999 40.5254ZM26.8625 25.4107C26.8625 25.4107 26.824 25.4107 26.8048 25.4107H26.8625ZM20.2397 25.616C20.4897 25.6095 20.7205 25.5967 21.2206 25.5647C21.7527 25.5326 22.0412 25.5647 22.2913 25.5967C22.5093 25.6224 22.708 25.648 23.1119 25.6288C23.6825 25.5967 23.9005 25.5839 24.2018 25.5647L24.984 25.5134C25.5674 25.4749 25.7918 25.4685 26.0932 25.4492H26.2791C26.2791 25.2248 26.2791 25.0581 26.2791 24.8913C26.2791 24.6476 26.2919 24.404 26.2791 23.9166C26.2599 23.3779 26.2599 23.115 26.2599 22.8457C26.2599 22.6084 26.2599 22.3647 26.247 21.8902C26.2278 21.39 26.2086 21.1463 26.1829 20.8962C26.1573 20.6461 26.138 20.3832 26.1188 19.8766L26.0868 18.8827C26.0803 18.6262 26.0675 18.3761 26.0483 17.863C26.029 17.3949 26.0034 17.1512 25.9778 16.914C25.9521 16.6446 25.9201 16.3817 25.9072 15.8431C25.8944 15.3493 25.8944 15.0928 25.8944 14.8427C25.8944 14.5862 25.8944 14.3425 25.8752 13.8231C25.8559 13.3229 25.8431 13.0728 25.8303 12.8291C25.8175 12.5726 25.8047 12.3225 25.7854 11.8159C25.7662 11.3285 25.7534 11.0784 25.7341 10.8348C25.7149 10.5783 25.7021 10.3153 25.6828 9.79591C25.6636 9.27649 25.6636 9.01998 25.6636 8.75706C25.6636 8.62881 25.6636 8.50056 25.6636 8.33383C25.5674 8.35307 25.4841 8.3723 25.3943 8.39795C25.1379 8.46208 24.843 8.53262 24.2916 8.56468C23.7338 8.59033 23.4325 8.54545 23.1696 8.51338C22.9324 8.48132 22.7337 8.44926 22.3041 8.46849C21.8297 8.49414 21.5924 8.5198 21.3552 8.54545C21.0988 8.5711 20.8423 8.60316 20.3294 8.62881C19.8806 8.65446 19.6626 8.69294 19.4318 8.73783C19.1818 8.78271 18.8933 8.84043 18.3547 8.86608C17.8226 8.89173 17.5469 8.8789 17.2841 8.85967C17.0468 8.84684 16.8224 8.8276 16.3672 8.85967C15.3735 8.91097 15.3735 8.85967 14.3862 8.91097C13.8797 8.93662 13.636 8.94944 13.3796 8.96868L12.4051 9.01998C11.9242 9.04563 11.6934 9.0777 11.4498 9.10976C11.1997 9.14824 10.9369 9.1803 10.4368 9.21236C9.64181 9.26366 9.50717 9.27649 8.98145 9.31497L8.51983 9.34703C7.72483 9.40474 7.55173 9.39833 7.026 9.3855L6.53234 9.37268C6.36564 9.37268 6.231 9.36627 6.10919 9.35985C5.73734 9.34062 5.58988 9.34062 5.35266 9.42398C5.3783 9.66125 5.39754 9.8921 5.41677 10.123C5.43601 10.3859 5.45524 10.6424 5.4873 10.8989C5.52576 11.2131 5.58988 11.5209 5.64758 11.8159C5.7181 12.1686 5.78863 12.5341 5.82709 12.8932L5.8848 13.5217C5.92967 14.009 5.97455 14.4772 6.0002 14.9196C6.02584 15.3749 5.98738 15.8046 5.96173 16.1765C5.9425 16.4458 5.91685 16.6959 5.92326 16.9332C5.92967 17.2987 5.9425 17.6514 5.95532 17.9849C5.96814 18.267 5.97455 18.5364 5.98096 18.7993C5.98096 19.152 5.98096 19.4919 5.98096 19.8125C5.98096 20.1139 5.98096 20.396 5.98096 20.6654C5.98096 21.0501 6.00661 21.4028 6.02584 21.7171C6.03867 22.012 6.0579 22.2878 6.0579 22.5315C6.07072 23.2369 6.10278 23.7435 6.12842 24.0449C6.14766 24.3462 6.15407 24.4424 6.12842 24.5707C6.10278 24.7246 6.15407 25.2889 6.19254 25.6993C6.21177 25.9173 6.23742 26.1482 6.25665 26.3726C6.32076 26.3598 6.39129 26.347 6.4554 26.3342C6.78238 26.2765 7.12858 26.2123 7.48762 26.1931C7.80818 26.1739 8.12233 26.161 8.43649 26.1418C8.76987 26.1226 9.10967 26.1097 9.44306 26.0905C9.66104 26.0777 9.87903 26.1803 10.0073 26.3662C10.097 26.5009 10.1227 26.6292 10.1227 26.7446C10.3278 26.9626 10.5971 27.2063 10.8792 27.4628L11.1805 27.7321C11.5524 28.072 12.014 28.4119 12.5589 28.7517C13.2065 29.1493 13.8156 29.4443 14.3541 29.6175C14.6041 29.7008 14.8606 29.7649 15.1106 29.8227C14.9247 29.5341 14.7388 29.2519 14.5464 28.9698C14.2964 28.6043 14.0528 28.2259 13.8091 27.854L13.2834 27.0588C13.059 26.751 13.136 26.4688 13.2065 26.3342C13.3155 26.1161 13.5463 25.9815 13.7835 25.9815C14.2579 25.9558 14.5272 25.9815 14.7708 26.0007C15.0016 26.02 15.2004 26.0328 15.6299 26.0135C16.1364 25.9815 16.3737 25.9815 16.6237 25.9751C16.8417 25.9751 17.0661 25.9687 17.5085 25.943C17.906 25.9238 18.0855 25.866 18.297 25.8083C18.5471 25.7378 18.8292 25.6544 19.3741 25.6288C19.8101 25.6031 20.0473 25.5967 20.2653 25.5903L20.2397 25.616ZM42.7176 39.8841L42.6535 12.4123L27.0997 12.5213C27.0997 12.6111 27.1061 12.7009 27.1126 12.7842C27.1254 13.0343 27.1382 13.2908 27.1574 13.7974C27.1767 14.3361 27.1767 14.599 27.1767 14.8683C27.1767 15.1056 27.1767 15.3493 27.1895 15.8238C27.2023 16.3176 27.228 16.5549 27.2536 16.7985C27.2793 17.055 27.3049 17.318 27.3305 17.831C27.3498 18.3504 27.3562 18.6005 27.369 18.857L27.4011 19.8446C27.4203 20.3191 27.4395 20.5564 27.4652 20.7936C27.4908 21.063 27.5165 21.3259 27.5293 21.8645C27.5485 22.3583 27.5421 22.6148 27.5421 22.8649C27.5421 23.1214 27.5421 23.3651 27.5613 23.8781C27.5806 24.404 27.5742 24.6669 27.5678 24.9298C27.5678 25.1735 27.5549 25.4107 27.5678 25.8981C27.5678 26.456 27.2215 26.6997 26.8946 26.6997L26.1509 26.7382C25.8495 26.751 25.6315 26.7638 25.0545 26.8023L24.2724 26.8536C23.971 26.8728 23.7466 26.8857 23.1696 26.9177C22.6503 26.9434 22.3682 26.9177 22.1246 26.8792C21.9002 26.8536 21.7078 26.8279 21.2911 26.8536C21.2014 26.8536 21.1308 26.8664 21.0539 26.8664V39.8905H42.7112L42.7176 39.8841Z" fill="#222222"/>
</g>
<defs>
<clipPath id="clip0_2483_9392">
<rect width="40" height="34.1667" fill="white" transform="translate(4 7)"/>
</clipPath>
</defs>
</svg>
