<svg fill="none" height="38" width="45" xmlns="http://www.w3.org/2000/svg"><g clip-path="url(#a)"><path d="M16.889 7.075c.5.585.699 1.205.649 1.961-.036.443-.186 1.113-.67 1.826-.514.77-1.056 1.27-1.712 1.57a5.355 5.355 0 0 1-1.755.463l.065.35.164 1.055a.718.718 0 0 1-.628.791h-.086a.715.715 0 0 1-.706-.627l-.15-.97-.164-1.041v-.086c0-.528.607-.863.92-.863.307-.014 1.042-.043 1.748-.37.406-.186.763-.529 1.127-1.07a2.44 2.44 0 0 0 .435-1.142c.021-.314-.022-.585-.307-.92l-.107-.128c-.278-.328-.513-.614-.827-.706-.5-.143-1.084-.193-1.534-.122-.27.043-.527.25-.82.493l-.364.285c-.428.314-.656.57-.784.899a.712.712 0 1 1-1.32-.535c.3-.735.835-1.191 1.263-1.512l.3-.236c.377-.314.855-.699 1.511-.799.65-.1 1.455-.035 2.147.165.728.206 1.17.734 1.526 1.155l.1.121-.021-.007zm-2.61 9.671a.986.986 0 0 1-.015.728.883.883 0 0 1-.485.449.915.915 0 0 1-.428.114.876.876 0 0 1-.842-.592c-.1-.164-.235-.45-.142-.806a.976.976 0 0 1 .514-.599c.035-.014.863-.378 1.348.6l.05.113v-.007zm-.707.934-.057-.263-.164-.279-.684.328c.135.179.527.35.905.207v.008zm24.592-3.93-.278.379-.335.456c-.107.164-.2.335-.293.506a2.84 2.84 0 0 1-.214.379l-1.134 1.704a2.58 2.58 0 0 1-.25.278c-.142.143-.313.307-.449.52l-.27.4-.307.45c-.136.207-.207.42-.271.606-.043.128-.086.25-.136.32l-.278.393a9.926 9.926 0 0 0-.314.442 2.74 2.74 0 0 1-.264.314c-.128.143-.278.3-.4.485l-.17.3c-.065-.057-.136-.107-.2-.157l-.77-.592a7.042 7.042 0 0 1-.357-.293l-.392-.32-.35-.286a9.115 9.115 0 0 0-.406-.328 8.9 8.9 0 0 0-.414-.307l-.37-.278a.708.708 0 1 0-.87 1.127l.399.3.378.285.363.3.385.313.357.293.392.32.77.593.364.292.357.285a.782.782 0 0 0 .535.193c.035 0 .078 0 .121-.007.25-.029.45-.15.578-.343.114-.17.207-.356.292-.534.057-.122.114-.25.193-.364s.171-.214.264-.314c.128-.143.278-.3.4-.485l.277-.392.314-.442c.15-.222.228-.45.292-.635a1.9 1.9 0 0 1 .129-.307l.27-.4.308-.449c.05-.078.15-.178.256-.278.143-.143.3-.3.435-.5l1.134-1.704c.107-.164.2-.335.293-.506.064-.128.128-.257.214-.378a6.41 6.41 0 0 1 .278-.378l.335-.457a.714.714 0 1 0-1.191-.791v-.007zm.535 14.08c-.528 0-.792-.015-1.056-.036a13.84 13.84 0 0 0-1.14-.036H26.63l-1.084.007c-.542 0-.806-.014-1.077-.021a20.38 20.38 0 0 0-1.112-.021.606.606 0 1 0 0 1.212l1.07.021 1.12.022h1.105l1.084-.007h8.765l1.056.035 1.14.036a.606.606 0 1 0 0-1.213zm0 2.781-1.12.021-1.077.015-1.148.043-1.048.035h-2.19c-.52 0-.77-.021-1.041-.05a10.32 10.32 0 0 0-1.149-.05l-1.12.029-1.07.021a19.04 19.04 0 0 1-1.069-.021 20.505 20.505 0 0 0-1.12-.022c-.563 0-.813 0-1.084-.014-.278 0-.549-.007-1.098-.007a.606.606 0 1 0 0 1.212l1.077.015 1.112.007 1.07.021 1.12.022 1.12-.029 1.07-.021 1.04.05c.286.028.571.05 1.15.05h2.189l1.134-.043 1.062-.036 1.12-.021a34.92 34.92 0 0 1 1.077-.015.606.606 0 1 0 0-1.212H38.7zm5.798 6.676a.706.706 0 0 1-.713.713H18.265a.715.715 0 0 1-.713-.713V22.152c-.114 0-.242.015-.406.022-.45.021-.65.085-.885.15a4.929 4.929 0 0 1-1.19.2l-1.035.035-1.041.043a8.325 8.325 0 0 1-.813.014l.706 1.063.784 1.184.614.934c.157.2.17.513.028.806-.143.278-.4.45-.684.45-.778-.037-1.677-.215-2.568-.5-.713-.228-1.49-.6-2.31-1.106a12.493 12.493 0 0 1-1.748-1.29l-.328-.3-1.149-1.127-.542.029-1.04.057c-.315.021-.636.078-.978.135a9.137 9.137 0 0 1-1.198.164.704.704 0 0 1-.7-.45.725.725 0 0 1 .03-.57 29.616 29.616 0 0 0-.093-1.12c-.079-.798-.122-1.298-.057-1.647 0-.05-.008-.128-.015-.235l-.078-1.762-.036-.856-.05-1.22V13.18l-.028-.884a59.267 59.267 0 0 1-.036-1.191l.043-.985.043-1.212-.122-1.49-.064-.708c-.028-.328-.1-.677-.17-1.048L.242 4.528a20.041 20.041 0 0 1-.085-.92L.043 2.46a.732.732 0 0 1 .021-.428.717.717 0 0 1 .371-.407c.92-.428 1.205-.435 1.976-.406l.449.014.556.014c.557.014.706.021 1.52-.043l.513-.035 1.633-.114 1.02-.107L9.293.833 10.37.777l1.127-.064 2.204-.057a8.853 8.853 0 0 1 1.19.007c.265.014.514.036 1.02 0a6.477 6.477 0 0 0 1.006-.121c.279-.05.592-.114 1.191-.143l1.056-.085 1.141-.093c.62-.028.956.014 1.248.057.264.036.485.071.963.05a4.53 4.53 0 0 0 .963-.143A5.92 5.92 0 0 1 24.706 0a.768.768 0 0 1 .463.135.937.937 0 0 1 .357.707l.021 1.12.022 1.098.057 1.12.028.527L43.72 4.58a.673.673 0 0 1 .506.207.743.743 0 0 1 .214.506l.079 31.988-.022.007zm-19.064-16.81h-.064.064zm-7.367.227 1.09-.056c.593-.036.914 0 1.192.035.242.029.464.057.913.036l1.212-.072.87-.057 1.234-.07h.207v-1.706l-.021-1.19-.015-1.063a15.794 15.794 0 0 0-.07-1.106l-.072-1.134-.036-1.105-.043-1.134a13.78 13.78 0 0 0-.078-1.056l-.079-1.19-.014-1.113-.021-1.134a68.079 68.079 0 0 0-.05-1.106l-.05-1.127-.057-1.091a29.851 29.851 0 0 1-.057-1.155L24.1 1.954v-.47a3.69 3.69 0 0 0-.3.07c-.285.072-.613.15-1.227.186-.62.029-.956-.021-1.248-.057-.264-.036-.485-.071-.963-.05l-1.055.086-1.141.093a6.44 6.44 0 0 0-.999.12c-.278.05-.6.115-1.198.143a8.83 8.83 0 0 1-1.191-.007c-.264-.014-.514-.035-1.02 0l-2.204.057-1.12.064-1.084.058-1.062.1-1.127.114-1.62.114-.513.035-1.662.043-.549-.014a8.63 8.63 0 0 1-.47-.014c-.414-.022-.578-.022-.842.07l.071.778.079.863c.042.35.114.692.178 1.02l.2 1.198.064.7.128 1.554c.029.507-.014.984-.043 1.398l-.042.842.035 1.17.029.905v2.075l.05 1.17.035.906.079 1.683c.021.335.028.442 0 .585-.029.171.028.799.071 1.255l.072.75.22-.044 1.149-.157 1.055-.057 1.12-.057a.716.716 0 0 1 .756.728c.228.242.528.513.842.799l.335.3c.414.377.927.755 1.533 1.133.72.442 1.398.77 1.997.963.278.093.564.164.842.228l-.628-.948-.82-1.241-.585-.885c-.25-.342-.164-.656-.085-.806a.723.723 0 0 1 .642-.392c.527-.029.827 0 1.098.021a6.37 6.37 0 0 0 .956.015l1.105-.043.984-.036c.443-.021.642-.085.878-.15.278-.078.592-.17 1.198-.2l.991-.042-.028.029zm25.005 15.87L43 6.019l-17.303.122a73.636 73.636 0 0 1 .064 1.42l.022 1.19.014 1.063.071 1.084.086 1.148.043 1.141.035 1.099.072 1.055.07 1.191.015 1.113.022 1.127.007 1.17v1.076c0 .62-.385.892-.75.892l-.826.043-1.22.071-.87.057-1.227.071c-.578.029-.891 0-1.162-.043-.25-.028-.464-.057-.928-.028-.1 0-.178.014-.264.014v14.486h24.093l.007-.008z" fill="#000"></path></g><defs><clipPath id="a"><path d="M0 0h44.497v38H0z" fill="#fff"></path></clipPath></defs></svg>