<svg xmlns="http://www.w3.org/2000/svg" width="30" height="30" fill="#000"><path d="M20.4422 11.458c-.4769.6359-1.3141.5405-1.7909.1378-.4981-.4133-.7525-1.0809-.7949-1.78036 0-1.39887 1.028-2.57519 2.501-2.68116 1.4095.04239 2.5011 1.15512 2.5117 2.4904-.0742.54052-.2014 1.19752-.6783 1.67442-.4557.4557-1.1233.5616-1.5896.1377.1802-.7842.2755-1.0597.3815-1.2187.0954-.1271.2755-.33908.1378-.50864 0-.01059-.0424-.22254-.2756-.37091-.2437-.15896-.4451-.09538-.4239-.09538-.1801-.07418-.604.26494-.604.55108-.0636.14836.0636.29675.1483.48745.1166.1908.0848.4981.4663 1.1763h.0106zm4.5149-6.63404c-1.9605.24374-3.6137.71003-5.0974 1.48364-1.4624.77362-2.7659 2.01352-4.0164 3.43358-1.2823 1.38832-2.5222 2.74472-3.3594 4.27082-.869 1.5048-1.1445 3.1792-.2226 4.0376.4239.4239.8266.5299 1.5155.2967.6676-.2331 1.4624-.8054 2.2678-1.314l4.6947-3.1157c1.3141-.922 2.9355-2.2467 3.5078-3.8469.6146-1.6426.3709-3.64553.5934-5.33052.4981.73122.8902 1.57902 1.0916 2.57518.2013.98557.2225 2.13009-.1484 3.25344-.3603 1.1445-1.1233 2.0771-1.8545 2.7977l-2.1301 1.9394-1.4625 1.0915-3.2322 2.2361-1.8122 1.1975c-.6464.3815-1.4412.6888-2.2254.6782-.7843 0-1.4413-.3073-1.791-.5511-.3709-.2543-.5299-.4344-.5299-.4344-.92198-.922-1.27169-2.2997-1.13393-3.4548.11658-1.1657.57223-2.1725 1.07033-3.0627 1.0174-1.8016 2.4056-3.24282 3.6985-4.62049 1.3247-1.32469 2.6918-2.91431 4.6629-3.7833 1.9182-.85839 4.2072-.8372 5.9028.20136l.0106.02119z"></path><path d="M14.2109 9.4657c-1.526 1.2505-3.1474.816-4.5675.8902-.30732.0212-.45569.053-.63584.159s-.37091.2755-.56167.5192c-.37091.4663-.76302 1.1764-1.16573 1.8228l-.95376 1.3989-.4345.6464c-.07419.1166-.06359.0848-.08478.1484 0 .0636.03179.1377.12717.1695.28613.1908 1.2505-.0424 2.03471-.0741.81601-.053 1.64261-.0106 2.3526.4239-.56162.7948-1.34584 1.0597-2.15124 1.1869-.40271.0636-.81601.0847-1.20812.1271-.3921.0318-.86899.106-1.39886.053.0106 0-.14837-.0106-.48749-.1589-.30732-.1484-.89018-.4663-1.10213-1.2929-.04239-.2014-.07419-.4557-.0212-.7419.04239-.2649.20135-.6358.28613-.8054l.57227-1.0173.66764-1.1763c.43449-.6359.78421-1.2823 1.37767-2.00296.29673-.34972.66764-.71003 1.15512-.97496.47689-.27554 1.10214-.38151 1.54723-.38151 1.63198.13776 3.12628-.23315 4.64168 1.08093h.0106zm.7738 10.3854c.6041.816.7948 1.6108.8372 2.395.0212.3921 0 .7948-.0212 1.1869l-.0212.4769s0 .0106.0106.0106h.0212l.5935-.3497 1.9499-1.1763c.6782-.3815 1.4942-.7524 1.7804-1.0492.2861-.2331.4133-.8478.4345-1.6214.2331-1.3777-.4557-3.1368.1801-4.6629.869.4663 1.2187 1.3035 1.3565 2.1725s.0742 1.7592.2014 2.4904c0 0 .0211.2968 0 .816-.0212.4875-.1272 1.3565-.7313 2.0771-.5828.6677-1.1763.9432-1.5154 1.187l-.6253.4027-1.9817 1.1233-.5193.2861c-.1483.0848-.551.2862-.8901.3497-.6889.1484-1.4307-.0636-1.844-.604-.0636-.0848-.1272-.1802-.1696-.2756-.1483-.3179-.2013-.6782-.1907-1.0491l.0212-.6888.0847-1.187c.106-.7842.3604-1.5684 1.028-2.3208l.0106.0106z"></path></svg>