<svg xmlns="http://www.w3.org/2000/svg" width="30" height="30" fill="#000"><path d="M9.96973 5.40726c.51847 1.12665.04987 1.02694-.13958 1.29614l-.66801.63811-.79763.50849c-.339.05982-.27917.6381-1.1765.1994-.82754-1.11668-.02991-.95715 0-1.33603l.60819-.80759.8076-.59823c.32902-.11964.34896-.64807 1.36593.09971z"></path><path d="M5.05469 7.7502c.15952-1.20641.35893-.82754.54837-.9073l.5683-.02991.56832.18944c.1695.1994.39882-.23929.57828.71786-.12961 1.36594-.37887.67799-.54837.92724l-.55834.15953-.56831-.0997c-.18944-.11965-.3689.2692-.58825-.94719V7.7502zm20.08991.05007c-.668 1.19645-1.3261.8076-1.9841.8774h-1.9742l-1.9741-.21935c-.5783-.20938-1.4058.21935-1.9642-.74778.5684-1.35597 1.3959-.65804 1.9842-.89733l1.9741-.12962 1.9741.12962c.6581.12961 1.3261-.24926 1.9642.97709v.00997z"></path><path d="M24.786 7.8999c1.2662.75775.9273 1.64511 1.0369 2.4926l.0598 2.5723-.2592 2.5624c-.2393.7378.1296 1.8445-.8874 2.4926-1.2961-.8176-.5384-1.8046-.7577-2.5624l-.0299-1.2463-.0598-1.2463.0698-2.4925c.0897-.83755-.339-1.64515.8175-2.56243l.01-.00997zm-.1797 10.3494c-1.6651 1.1665-3.2903.7378-4.9354.7777l-4.9054-.0997-4.89544-.2892c-1.4457-.2193-3.47966.1895-4.89545-.7876 1.37591-1.346 3.44974-.6282 4.91538-.8575l2.46271-.0399h2.4527l4.9054.2094c1.6252.1595 3.3002-.1795 4.8855 1.0768l.01.01z"></path><path d="M5.19399 7.73047c1.19644.83751.81756 1.67502.89733 2.50253l.01994 2.5026-.20938 2.5026c-.20938.7378.22932 1.7846-.7378 2.5025-1.35597-.7079-.65805-1.7647-.90731-2.5025l-.13958-2.5026.11964-2.5026c.12961-.82751-.25923-1.68496.96712-2.50253h-.00996zm9.95071 2.66213c1.1765 1.2662.7777 2.5025.8375 3.7488l-.0399 3.729-.2592 3.7289c-.2194 1.0967.1894 2.6621-.7877 3.7189-1.346-1.0768-.6281-2.6322-.8574-3.7488l-.0898-3.729.1695-3.7289c.1396-1.2363-.2193-2.5025 1.017-3.7189h.01z"></path><path d="M20.0195 20.4127c.4288 1.2662-.2592 1.4157-.6181 1.8943l-1.2463 1.2663-1.3959 1.1166c-.5184.2294-.7278 1.0569-1.7747.7379-.6082-1.3161.4088-1.356.6082-1.9044l1.1566-1.356 1.336-1.1765c.5085-.329.658-1.0269 1.9342-.5782z"></path><path d="M10.0899 20.3328c1.2163-.5384 1.4058.1495 1.8744.4885l1.2463 1.2164 1.0169 1.4158c.1795.5185.9771.8076.5285 1.7847-1.366.4686-1.2563-.4886-1.7648-.7079l-.5982-.5683-.6182-.5484-1.0867-1.2363c-.3191-.4686-.97712-.5484-.5982-1.8346v-.0099zm-.419-14.87565c.3888-1.20641.8076-.83751 1.2164-.91727L12.1236 4.5l1.2363.17947c.3689.1994.8774-.24926 1.2463.70789-.319 1.36594-.8574.67799-1.2163.93722l-1.2264.16949-1.2363-.08973c-.4088-.11965-.8176.27917-1.24632-.93721l-.00998-.00998z"></path><path d="M14.2471 5.2777c.2492-.57828.5782-.69792.8076-.66801.2393.02991.3988.20937.5882.28914.349.21934.6182.45863.8674.67798l.5584.79763c.0598.33899.6481.28914.1994 1.1765-1.1267.81757-.9372.03988-1.3161.02991l-.7877-.5384-.5384-.58825c-.0598-.11964-.1894-.10967-.2392-.20937-.0698-.09971-.0499-.32903-.1297-.94719l-.0099-.01994z"></path></svg>