<svg xmlns="http://www.w3.org/2000/svg" width="32" height="32" fill="none">
  <path fill="currentColor" fill-rule="evenodd" d="M26.292 12.878c.07-1.111-.298-2.176-.577-2.988a13.655 13.655 0 0 1-.2-.616c-.226-.738-.494-1.616-1.341-2.348a4.88 4.88 0 0 0-.47-.396 9.416 9.416 0 0 0-1.015-.662c-.837-.475-2.01-.983-3.41-1.17-.666-.089-1.285.024-1.808.165-.262.071-.517.154-.746.23l-.085.028c-.203.068-.385.128-.565.18-.818.24-1.566.523-2.196 1.032-.65.524-1.087 1.217-1.437 2.124a29.9 29.9 0 0 1-.288.707c-.232.557-.484 1.16-.64 1.72-.248.894-.325 1.869.068 2.959.05.139.098.278.146.418.165.477.332.96.594 1.466.195.378.441.77.777 1.218-.883.942-1.754 1.898-2.62 2.849-.46.505-.918 1.008-1.375 1.506-.43.47-.868.91-1.318 1.363l-.447.451c-.6.61-1.213 1.252-1.786 1.966a1 1 0 0 0 1.56 1.252c.507-.632 1.062-1.216 1.651-1.814l.422-.426c.456-.46.931-.939 1.39-1.439.47-.511.935-1.021 1.397-1.529.824-.904 1.642-1.803 2.478-2.696.367.24.819.479 1.26.674.517.227 1.117.44 1.627.506.56.073 1.338.09 2.078.06.732-.03 1.523-.107 2.092-.255l.146-.038.129-.08c1.124-.7 1.904-1.21 2.534-1.839.645-.645 1.091-1.37 1.65-2.418.24-.452.293-.934.31-1.283.007-.17.008-.34.008-.48v-.024c0-.155 0-.27.007-.373Zm-2.54-2.543.038.108c.31.91.55 1.613.506 2.31-.01.173-.01.35-.011.495v.009c0 .152 0 .28-.006.403-.013.264-.049.384-.078.438-.54 1.012-.872 1.518-1.298 1.943-.424.424-.98.808-2.038 1.469-.366.077-.92.135-1.528.16-.681.026-1.335.007-1.74-.045-.23-.03-.624-.153-1.079-.354a6.789 6.789 0 0 1-1.008-.541c-.795-.902-1.175-1.463-1.412-1.922-.19-.366-.296-.672-.447-1.109-.054-.158-.115-.334-.188-.535-.217-.601-.19-1.135-.021-1.744.123-.443.292-.847.494-1.328.114-.273.239-.57.371-.915.27-.698.536-1.052.829-1.289.312-.252.746-.445 1.502-.667.216-.063.435-.136.634-.202l.082-.027c.229-.076.436-.143.64-.198.407-.11.732-.152 1.02-.113 1.08.144 2.008.54 2.688.926.338.192.608.378.797.52.129.097.203.162.233.188.02.017.02.017.005 0l.05.058.06.049c.397.334.484.606.7 1.285.057.179.123.385.206.628Z" clip-rule="evenodd"/>
</svg>
