<svg xmlns="http://www.w3.org/2000/svg" width="30" height="30" fill="#000"><path d="M6 18.8368c-.38068.8966-.75568.6052-1.13068.6575h-1.125l-1.125-.1644c-.32955-.1569-.80114.1644-1.11932-.5603.32386-1.0162.79546-.4932 1.13069-.6725L3.75568 18l1.125.0971c.375.0972.75568-.1868 1.11932.7322v.0075zm0-3c-.38068.8966-.75568.6052-1.13068.6575h-1.125l-1.125-.1644c-.32955-.1569-.80114.1644-1.11932-.5603.32386-1.0162.79546-.4932 1.13069-.6725L3.75568 15l1.125.0971c.375.0972.75568-.1868 1.11932.7322v.0075zm0-3c-.38068.8966-.75568.6052-1.13068.6575h-1.125l-1.125-.1644c-.32955-.1569-.80114.1644-1.11932-.5603.32386-1.0162.79546-.4932 1.13069-.6725L3.75568 12l1.125.0971c.375.0972.75568-.1868 1.11932.7322v.0075zm20.9468-4.23805c-1.6238 1.16681-3.2476.77787-4.8714.84593h-4.8617l-4.8423-.15557c-1.439-.17502-3.41289.35977-4.8714-.457 1.27377-1.43907 3.3935-.87511 4.8325-1.14736l2.4503-.10696L17.2234 7.5l4.8715.13613c1.614.1264 3.267-.23336 4.8617.96262h-.0098z"></path><path d="M18.0017 14.9768c-.0475-1.6851.9374-1.7919 1.6257-2.3496l2.2073-1.4834 2.3496-1.25786c.7951-.22547 1.424-1.26976 2.6938-.73575.2611 1.76821-1.1155 1.68511-1.6139 2.37341l-2.1242 1.602-2.2903 1.3528c-.8188.3679-1.3172 1.2342-2.848.5103v-.0119z"></path><path d="M18.0738 15.0649c-1.519.7357-2.0411-.1187-2.86-.5103l-2.314-1.4003-2.1716-1.6258c-.273-.3085-.73579-.5102-1.13926-.8662-.40348-.3442-.73575-.89006-.52215-1.55461.87815-.178 1.23411-.13053 1.60201.10681.356.22547.6764.56961 1.1036.66454l2.3853 1.28166 2.231 1.5308c.6882.5933 1.7088.6883 1.6969 2.3971l-.0118-.0237z"></path><path d="M8.58 8c1.2 1.16436.82 2.3287.9 3.5L9.5 15l-.2 3.5c-.21 1.0327.23 2.495-.73 3.5-1.37-.9911-.67-2.4535-.92-3.5L7.5 15l.11-3.5c.12-1.1644-.26-2.34257.96-3.5h.01z"></path><path d="M7.5 21.8946c1.60436-1.1669 3.199-.7974 4.8034-.8752L17.1067 21l4.8034.1945c1.4196.2042 3.4227-.2237 4.8034.7098-1.3613 1.3321-3.374.6514-4.8034.8945l-4.8034.1459-4.8033-.107c-1.5947-.1167-3.21848.2528-4.8034-.9334v-.0097z"></path><path d="M26.42 22c-1.2-1.1667-.82-2.3333-.9-3.5L25.5 15l.2-3.5c.21-1.0347-.23-2.49306.73-3.5 1.37.99306.67 2.4583.92 3.5l.15 3.5-.11 3.5c-.12 1.1597.26 2.3472-.96 3.5h-.01z"></path></svg>