<svg xmlns="http://www.w3.org/2000/svg" width="30" height="30" fill="#000"><path d="M18.095 20.1957c.1106-1.1923.7743-2.1633 1.8683-2.7164 1.1185-.5531 2.5074-.5654 3.7857.0615.6391.3319 1.1553.9095 1.4626 1.4995s.4671 1.18.5531 1.7577c.1598 1.1553.0123 2.3722-.5285 3.4784-.5654 1.0939-1.6347 2.0157-2.827 2.3353-1.1799.3688-2.6426.1721-3.6382-.6637-.8112-.7621-1.5118-1.856-1.6593-3.0728-.1598-1.1923.1844-2.2985.9218-2.9745.6515.971.7498 1.856.9219 2.6549.1352.7621.4793 1.561 1.0324 1.7822 0 0 .1844.1475.4917.2336.295.086.7743.0983 1.2291-.0861.9587-.3318 1.3275-1.3028 1.3275-1.3028.6637-1.1185.4547-3.2326-.3934-3.6382-.4424-.3319-1.1922-.2705-1.8436-.0615-.7006.1967-1.5119.5408-2.7041.7129z"></path><path d="M11.8755 15.7578c1.3889-.8235 1.6593-.0614 2.2616.2458l1.6347 1.1185 1.475 1.3521c.3318.5408 1.3151.5777 1.0939 1.8805-1.4258 1.0448-1.6101-.1352-2.2739-.2212l-1.7207-.9956-1.5365-1.2537c-.4547-.504-1.2659-.504-.9341-2.1141v-.0123z"></path><path d="M10.8312 11.9849c-1.02019.4793-1.83141.5408-2.43368.6514-.58998.0983-1.03247.2089-1.38891.6637-.76206.8604-.63915 2.0526.25811 2.7655.40561.3811.89726.5777 1.45037.5532s1.15537-.295 1.57331-.7375c.4547-.3196.6268-.9956.6022-1.6716-.0245-.7006-.1475-1.3398-.2458-2.2493 1.1185-.1475 2.0035.9218 2.1141 2.0649.1598 1.1677-.3687 2.3353-.9095 3.1588 0 0-.2459.3442-.7375.7375-.4917.381-1.24144.7867-2.08953.9219-.8481.1475-1.78223-.0369-2.35992-.3196-.60227-.2704-.92184-.5531-.92184-.5531-.87268-.7375-1.47495-1.8191-1.56099-3.0237-.07374-1.2045.38103-2.3353 1.14309-3.1588.74976-.7989 1.9543-1.4012 3.03593-1.3152 1.08163.0615 1.90516.5777 2.49516 1.5241l-.0246-.0122z"></path><path d="M11.4953 12.7837c-.295-1.6102.5531-1.6225 1.0816-2.0895l1.7454-1.16772 1.9174-.87267c.6514-.08604 1.1554-.99559 2.2493-.24582.295 1.74531-.8481 1.41348-1.2168 1.99121l-1.6348 1.2045-1.7699.9833c-.6515.2458-.9341 1.0202-2.3476.1967h-.0246z"></path><path d="M21.8561 3.5772l-1.4012 1.83139c-.381.45477-.762.95871-.8481 1.52411-.1352.54081-.0245 1.14308.1844 1.4012.1598.24582.6514.46707 1.2906.50394.6514.09833 1.2537.03687 1.6224-.18437.3811-.22124.7006-.72518.7867-1.31516.172-.51623-.0492-1.15537-.4302-1.74535-.3811-.60227-.8481-1.16767-1.18-2.01576 1.0079-.41791 2.0404.06145 2.6918.92184.676.84809.885 2.05263.9341 3.01135 0 0 0 .40561-.172 1.00788-.1721.58998-.5777 1.38891-1.3152 1.95433-.7498.5777-1.6102.7497-2.1878.7989-.59.0492-.9588.0123-.9588.0123-.5039-.0492-1.0324-.1598-1.561-.3933s-1.0693-.6269-1.4503-1.15539c-.7252-1.09392-.7498-2.2616-.5162-3.28177.2949-1.00788.7866-1.97889 1.5978-2.61803.7867-.63914 1.9666-.89726 2.8885-.24582l.0245-.01229z"></path></svg>