<svg xmlns="http://www.w3.org/2000/svg" width="30" height="30" fill="#000"><path d="M10.0283 22.9083c-.54533.5299-1.14411.6182-1.66804.5103-.54531-.1374-.91955-.2846-1.61456-.7654-.68432-.5495-.96232-1.4621-.58809-2.1882.18178-.3631.50255-.6672.88748-.8635.38493-.2061.90886-.2846 1.17617-.2944.63086.0098 1.00509.0883 1.48625.1374l1.36859.157c.802.2355 1.9782-.1472 2.7159.8243-.8447 1.305-1.9674.5789-2.7907.7849l-1.37933.0197h-.94093l-.33147.0392h-.14969-.04277c-.03208.0098-.05347.0589-.02139.0981.02139.108.52393.2748.84471.4416.35285.1864.66293.471 1.03717 1.1186l.0107-.0196z"></path><path d="M7.34377 20.2689c-.38492.6868-1.49694.6083-1.9781-.0589-.52393-.7065-.33147-1.57.16038-2.1784.09624-.1079.20316-.1962.31009-.2845.66293-.4612 1.29378-.471 1.73218-.4907l1.18686-.0196 2.56622.1766c.7591.1963 1.8284-.2453 2.5662.6967-.7057 1.3443-1.7857.6673-2.5448.9224l-2.55554.1668-1.1441-.0392c-.33146-.0197-.53462.0294-.53462.0294h-.02139c-.09623 0-.03207.1177-.08554.1374-.02138.0588-.17107.3925.35286.9518l-.0107-.0098z"></path><path d="M8.47713 18.1099c-.50255.5593-1.30448.5593-1.87118.0981-.2887-.2355-.49186-.5691-.5774-.9224-.09623-.3827-.07484-.7752.05347-1.1382.04277-.0982.08554-.1963.14969-.2944.20316-.3042.49186-.5691.83401-.7359.31009-.157.59878-.2257.86609-.2748.54532-.0981.95163-.0883 1.35795-.1079l2.63034.2257c.7485.2355 1.9033-.108 2.5234.9125-.8874 1.2462-1.8284.4906-2.5982.6967l-1.2511.0393-1.24029.0785c-.39562 0-.78055-.0197-1.02648.0098-.1283.0098-.23523.0392-.28869.0588-.02139 0-.04277 0-.05346.0197h-.0107c-.08554.0392-.01069.1079.02139.2453.05346.1472.12831.4514.50254 1.0892h-.02138z"></path><path d="M14.8079 16.1472c-.5774-.1374-1.2296-.3238-1.6894-.942-.5026-.6672-.3635-1.8938.5667-2.355.3635-.1962.8126-.2551 1.2617-.1864.2032.0294.4919.1177.6095.1668l.417.1766 1.251.6869 2.47 1.57c.6415.5102 1.2617 1.2069 1.6252 1.9723.3742.7556.556 1.5504.6309 2.3255s.0427 1.521-.0214 2.2373l-.0962 1.0597c-.0428.3729-.107.8243-.3422 1.3149-.2245.4906-.7912.9911-1.2938 1.1775-.5025.2159-.9089.2748-1.2617.3631l-2.2989.4513c-1.5611.2454-3.2291.314-4.8544-.0392-.7057-.1864-1.4862-.4318-2.24538-.8243-.53462-.2747-1.1441-.6672-1.35794-1.148-.26732-.471-.11762-1.1284.33146-1.4621.21385-.1766.49186-.3042.81263-.3827.32077-.0686.67362-.1079.93023-.1275.417-.0295.834-.0295 1.2296 0 .802.0589 1.5505.2453 2.1706.5495-.6843.2649-1.3793.4415-2.0957.5985l-1.0799.2257c-.1497.0295-.1497.0491-.1925.0589-.0321.0196-.0642.0294-.0962.0491-.139.0981-.0214.2453.139.314.5774.3041 1.2189.5004 1.8284.5593 0 0 .4918.0981 1.2617.1275s1.8177-.0588 2.8656-.2649l1.5504-.3533 1.2831-.363c.2887-.108.3314-.1766.3635-.2257.0428-.0491.0642-.1177.0642-.1177.1604-.265.2138-1.05.2887-1.7074.0641-.6673.0962-1.3149.0534-1.9233s-.1817-1.1971-.4277-1.7171c-.2352-.5201-.5988-.9519-1.0906-1.364-.5881-.5299-1.3686-.9518-2.1813-1.413l-1.1654-.6868-.3208-.1767c-.0428-.0294-.1069-.049-.1711-.049-.1711 0-.3742.1472-.3742.4906.0213.3925.3421.8733.6522 1.3541z"></path><path d="M12.7656 15.5487c-.556.4121-1.0265.3925-1.358.2355-.3421-.1668-.5667-.4612-.834-.6967-.2459-.2649-.4705-.5397-.66292-.9224-.18177-.3827-.32077-.8439-.20315-1.413.14969-.5397.54527-1.0008 1.06927-1.2167.5239-.2257 1.1548-.2061 1.5718-.0589.7698.3533 1.7215.7654 1.2617 1.727-.7271.2551-1.0479.157-1.2403.0392s-.2994-.2943-.4491-.1962h-.107c-.0427.0098-.0534.0294-.0534.0589 0 .049.0428.0588.0428.0588-.0749-.0196 0 .4024.2993.7556.107.2061.3208.314.4598.5004.1497.1963.2139.471.2032 1.1383v-.0098z"></path><path d="M12.1233 12.0557c-.7485.2061-1.3259-.1079-1.6253-.5396-.2887-.471-.4277-.8635-.3849-1.70741.0748-.57893.417-1.09899.9409-1.38356.4063-.21587.8982-.28456 1.3793-.19625.4598.05888 1.0051.38269 1.2083.52988.6843.59856 1.2403 1.18731 1.7749 1.84474.3315.6476 1.3901 1.2462.8875 2.3157-1.5932.1669-1.529-.9125-2.2133-1.256 0 0-.4063-.3826-.8554-.7261l-.8982-.6378c-.1925-.1472-.0855-.0785-.1176-.1177 0-.0098-.0214-.0295-.0428-.0295-.0321 0-.0534.0098-.0748.0393-.0856-.0491.0427.3238.1069.5593.0748.2747.0321.5986-.0749 1.305h-.0106zm8.8862-1.4525c-.9089-.3827-.8875-1.76624.1711-2.33536 1.0478-.5495 2.2881-.22569 3.0152.63781.3208.42194.4277.8635.4919 1.20695.0641.363.0641.6182.0855.9224l.1176 1.7466-.0213 1.7662c-.0428.6084-.1177 1.2756-.385 1.9331-.3101.5593-.6629 1.2265-1.2617 1.7172-.5774.4906-1.4114.7457-2.0957.4415.2887-.785.5774-1.148.9409-1.5013.3529-.3434.7271-.7359.7378-1.148 0 0 .0535-.157.0856-.4122.0427-.2551.0534-.628.032-1.0303-.0107-.3925-.0641-.834-.0962-1.1382l-.0535-.5299-.0427-1.6877c0-.5888-.0535-1.1285-.1604-1.23641 0-.14719-.3529-.17663-.4812-.157s-.6522.04906-1.0585.80461h-.0214z"></path><path d="M14.9038 7.62025c-.2993-.14718-.5132-.30418-.6522-.52006-.139-.22568-.1818-.60837-.0962-.90274.171-.628.7805-1.07938 1.4435-1.15788.1817-.01962.3742-.02943.556 0 .3849.04907.7484.21588 1.0692.45138.3635.26494.4063.33362.5988.49062l.9195.83406 1.5184 1.92325c.2887.65743 1.3151 1.22656.8447 2.30592-1.5932.1963-1.5611-.9224-2.2241-1.30505l-.8233-.80462-.8554-.76538-.8019-.82424-.3101-.30419c0-.01963-.0214-.03925-.0428-.04906 0-.01963-.0214-.02944-.0427-.02944-.0642 0-.0642.04906-.1818.04906-.0642.01963-.1497 0-.2994.13738-.1497.12756-.3422.314-.6095.50043l-.0107-.02944z"></path><path d="M12.7545 9.05287c-.3957 0-.7164-.06869-.9944-.2355-.139-.0785-.2566-.18644-.3529-.314-.1069-.13738-.2138-.36306-.2673-.55931-.2245-.84387.2673-1.66812.9623-2.07043.2246-.12757.4812-.19625.7378-.22569.3529-.02944.7164.02944 1.0586.18644.171.0785.3314.17662.4918.28456l.3849.30418.8768.76538 1.8712 2.0508c.4063.7065 1.5718 1.3738 1.1548 2.5414-1.636.1276-1.7001-1.0499-2.47-1.462l-.9944-.87333-1.0478-.84388-.8233-.78499c-.0856-.0785-.0642-.06869-.0642-.06869v-.01963s-.0321-.02943-.0535-.03925h-.0534c-.0963-.01962-.0642.0785-.1283.13738-.0107.02944-.0428.02944-.0535.10794l-.0321.28456c-.0321.22568-.0748.51025-.2031.86349v-.02943z"></path></svg>