<svg width="48" height="48" viewBox="0 0 48 48" fill="none" xmlns="http://www.w3.org/2000/svg">
<g clip-path="url(#clip0_2483_9389)">
<path d="M43.8168 10.4876C43.8168 9.92487 43.856 9.65658 43.9018 9.36867C43.9477 9.04805 44 8.71433 44 8.05344C44 7.56923 43.5878 7.23552 42.9989 7.23552C42.5016 7.23552 42.2594 7.23552 42.0108 7.22897C41.7556 7.22897 41.507 7.22243 40.9966 7.22243C40.5189 7.22243 40.2768 7.20934 40.0412 7.18971C39.7795 7.17008 39.5177 7.15699 38.9943 7.15699C38.5362 7.15699 38.3138 7.13082 38.0717 7.0981C37.8034 7.06539 37.5285 7.03267 36.992 7.03267C36.4554 7.03267 36.1544 7.07193 35.8992 7.11119C35.6571 7.14391 35.4477 7.17662 34.9897 7.17662C34.4858 7.17662 34.2307 7.17662 33.9755 7.17662C33.7268 7.17662 33.4782 7.17662 32.9874 7.17662C32.4966 7.17662 32.2742 7.16354 32.0386 7.14391C31.7769 7.12428 31.5151 7.11119 30.9917 7.11119C30.5074 7.11119 30.2653 7.0981 30.0232 7.08502C29.7615 7.07193 29.5063 7.05884 28.9894 7.05884C28.5117 7.05884 28.2696 7.04576 28.034 7.02613C27.7723 7.0065 27.5106 6.99341 26.9871 6.99341C26.4636 6.99341 26.1757 7.02613 25.9074 7.0523C25.6653 7.07847 25.4428 7.10465 24.9848 7.10465C24.4679 7.10465 24.2061 7.12428 23.9509 7.13736C23.7088 7.15045 23.4733 7.17008 22.989 7.17008C22.5048 7.17008 22.302 7.14391 22.0664 7.11119C21.7981 7.07847 21.5233 7.04576 20.9867 7.04576C20.3978 7.04576 20.0838 7.13736 19.8089 7.21588C19.5799 7.28132 19.3967 7.33367 18.991 7.33367C18.5199 7.33367 18.2778 7.31404 18.0422 7.30095C17.7805 7.28132 17.5187 7.26169 16.9953 7.26169C16.5699 7.26169 16.3736 7.21588 16.1381 7.16354C15.8698 7.10465 15.5688 7.03921 14.9995 7.03921C14.5022 7.03921 14.247 7.03921 13.9984 7.03921C13.7497 7.03921 13.5011 7.03921 13.0038 7.03921C12.5065 7.03921 12.2382 7.0523 11.983 7.06539C11.7409 7.07847 11.4988 7.08502 11.008 7.08502C10.4191 7.08502 10.1116 7.16354 9.84329 7.23552C9.60772 7.29441 9.4245 7.34675 9.01227 7.34675C8.54769 7.34675 8.31867 7.32712 8.07656 7.30095C7.81482 7.27478 7.54654 7.2486 7.01652 7.2486C6.4865 7.2486 6.21822 7.27478 5.95649 7.30095C5.72747 7.32712 5.50499 7.34675 5.07312 7.34675C4.7983 7.26823 4.59545 7.35984 4.47113 7.45145C4.301 7.57577 4.18976 7.83097 4.18976 8.04036C4.18976 8.59655 4.1505 8.87137 4.10469 9.15928C4.05235 9.48646 4 9.82017 4 10.4745C4 11.1289 4.0458 11.456 4.08506 11.7767C4.12433 12.0646 4.16359 12.3394 4.16359 12.9087C4.16359 13.3471 4.43187 13.9687 5.02078 13.9687C5.57042 13.9687 5.86488 13.9229 6.12007 13.8836C6.36218 13.8444 6.57157 13.8182 7.02307 13.8182C7.36332 13.8182 7.5858 13.8182 7.77556 13.8313C7.77556 14.0799 7.78865 14.2566 7.79519 14.4333C7.80173 14.695 7.81482 14.9502 7.81482 15.4672C7.81482 15.9841 7.80173 16.2327 7.78865 16.4879C7.77556 16.7628 7.75593 17.0376 7.75593 17.5807C7.75593 18.0911 7.7363 18.3397 7.72321 18.5949C7.70358 18.8697 7.68395 19.1446 7.68395 19.7008C7.68395 20.2177 7.67087 20.4729 7.66432 20.7346C7.65123 21.0094 7.63815 21.2777 7.63815 21.8208C7.63815 22.3639 7.65778 22.6518 7.67741 22.9267C7.69704 23.1819 7.71667 23.4305 7.71667 23.9409C7.71667 24.4513 7.71013 24.7196 7.70358 24.9813C7.69704 25.2496 7.68395 25.5244 7.68395 26.061C7.68395 26.5583 7.66432 26.8004 7.63815 27.0621C7.61197 27.3369 7.5858 27.6248 7.5858 28.181C7.5858 28.7372 7.62506 29.0448 7.66432 29.3261C7.69704 29.5748 7.72976 29.8169 7.72976 30.3077C7.72976 30.7984 7.70358 31.0471 7.67741 31.3023C7.65123 31.5771 7.61852 31.865 7.61852 32.4343C7.61852 32.9054 8.01767 33.2784 8.52805 33.2784C9.07116 33.2784 9.33944 33.2587 9.60772 33.2391C9.85637 33.2195 10.0985 33.2064 10.5892 33.2064C11.1127 33.2064 11.3744 33.1999 11.6362 33.1868C11.8914 33.1802 12.14 33.1671 12.6504 33.1671C13.1608 33.1671 13.4095 33.1737 13.6581 33.1868C13.9198 33.1999 14.1816 33.2064 14.7116 33.2064C15.1566 33.2064 15.3659 33.2522 15.608 33.298C15.8829 33.3569 16.1904 33.4223 16.7728 33.4223C17.3224 33.4223 17.5973 33.3962 17.8721 33.37C18.1207 33.3438 18.3563 33.3176 18.834 33.3176H20.8951C21.4382 33.3176 21.7131 33.298 21.9813 33.2784C22.23 33.2587 22.4721 33.2326 22.9563 33.2326C23.2573 33.2326 23.4602 33.2326 23.6368 33.2391V35.5489C22.8909 35.6471 22.5048 35.9154 22.0402 36.3211C21.7981 36.5305 21.5233 36.766 21.0653 37.0212C20.3586 37.4138 19.9987 37.5905 19.6323 37.7672C19.2593 37.9504 18.8667 38.1401 18.1207 38.5524C17.3682 38.9712 17.0083 39.2329 16.6615 39.4815C16.3278 39.7237 16.0203 39.9461 15.3267 40.3322C15.0126 40.5089 14.8948 40.908 15.0715 41.2221C15.1893 41.438 15.4117 41.5624 15.6473 41.5624C15.752 41.5624 15.8632 41.5362 15.9614 41.4838C16.727 41.0651 17.0869 40.8033 17.4337 40.5481C17.7608 40.306 18.0749 40.0835 18.7554 39.704C19.4687 39.3049 19.822 39.1347 20.2015 38.9515C20.5745 38.7683 20.9606 38.5851 21.6934 38.1729C22.2693 37.8522 22.6161 37.5578 22.8909 37.3222C23.3097 36.9623 23.4667 36.8249 24.2912 36.8249C25.1157 36.8249 25.2204 36.9427 25.5868 37.2895C25.8223 37.512 26.1495 37.8195 26.6926 38.1401C27.3862 38.5458 27.7527 38.7356 28.106 38.9188C28.4593 39.102 28.7931 39.2722 29.454 39.6582C30.0952 40.0377 30.4355 40.2406 30.7561 40.4303C31.1094 40.6463 31.4497 40.8491 32.1695 41.2679C32.4836 41.4511 32.8827 41.3464 33.0659 41.0323C33.2491 40.7183 33.1444 40.3191 32.8304 40.1359C32.1171 39.7171 31.7834 39.5143 31.4301 39.3049C31.1094 39.1086 30.7692 38.9057 30.1214 38.5262C29.4278 38.114 29.0613 37.9308 28.708 37.7475C28.3547 37.5643 28.0209 37.3942 27.3601 37.0081C26.9413 36.7595 26.7123 36.5435 26.4898 36.3342C26.0579 35.9285 25.698 35.6471 24.9455 35.5489V33.2653C24.9455 33.2653 24.9979 33.2653 25.0306 33.2653C25.5868 33.2653 25.8681 33.2326 26.143 33.1999C26.3916 33.1737 26.6206 33.141 27.0983 33.141C27.576 33.141 27.7788 33.1737 28.0275 33.2129C28.2892 33.2522 28.5902 33.3045 29.1595 33.3045C29.7288 33.3045 29.9971 33.2718 30.2719 33.2326C30.5205 33.1999 30.7495 33.1737 31.2272 33.1737C31.7049 33.1737 31.9143 33.2064 32.1629 33.2457C32.4312 33.2849 32.7257 33.3307 33.2949 33.3307C33.7792 33.3307 34.0082 33.3569 34.2568 33.3831C34.5251 33.4092 34.8065 33.442 35.3627 33.442C35.9189 33.442 36.1741 33.4223 36.4423 33.4027C36.691 33.3831 36.9331 33.3634 37.4239 33.3634C37.9146 33.3634 38.1633 33.3831 38.4054 33.4027C38.6736 33.4223 38.9485 33.442 39.4916 33.442C39.8973 33.442 40.303 33.1213 40.303 32.4146C40.303 31.8715 40.2899 31.6033 40.2833 31.3284C40.2768 31.0667 40.2637 30.8115 40.2637 30.2946C40.2637 29.7776 40.2637 29.4963 40.2637 29.228C40.2637 28.9662 40.2637 28.698 40.2637 28.1745C40.2637 27.7034 40.303 27.4809 40.3488 27.2257C40.3946 26.9509 40.4469 26.6433 40.4469 26.0544C40.4469 25.544 40.46 25.2888 40.4731 25.0336C40.4862 24.7588 40.5058 24.484 40.5058 23.9344C40.5058 23.3324 40.4338 23.0117 40.3749 22.7304C40.3226 22.4817 40.2702 22.2723 40.2702 21.8143C40.2702 21.317 40.2964 21.0749 40.3226 20.8197C40.3488 20.5449 40.3749 20.2569 40.3749 19.6942C40.3749 19.1315 40.3619 18.8763 40.3488 18.6015C40.3357 18.3463 40.3226 18.0845 40.3226 17.5741C40.3226 17.0179 40.2964 16.7366 40.2768 16.4618C40.2572 16.2 40.231 15.9579 40.231 15.4475C40.231 14.9371 40.2441 14.6754 40.2572 14.4137C40.2637 14.2697 40.2702 14.1257 40.2768 13.9425C40.4665 13.9556 40.689 13.9622 41.0162 13.9622C41.5331 13.9622 41.7883 13.9491 42.0435 13.936C42.2856 13.9229 42.5277 13.9098 43.0119 13.9098C43.5681 13.9098 43.9215 13.3078 43.9215 12.8956C43.9215 12.2609 43.8953 11.9402 43.8757 11.6262C43.856 11.3252 43.8299 11.0438 43.8299 10.4614L43.8168 10.4876ZM39.1579 24.9813C39.1448 25.2561 39.1251 25.5309 39.1251 26.0806C39.1251 26.5517 39.0859 26.7742 39.0401 27.0294C38.9943 27.3042 38.9419 27.6118 38.9419 28.2007C38.9419 28.7307 38.9419 28.999 38.9419 29.2672C38.9419 29.529 38.9419 29.7973 38.9419 30.3207C38.9419 30.8442 38.955 31.1321 38.9616 31.4069C38.9681 31.6098 38.9746 31.8061 38.9746 32.1529C38.7783 32.1464 38.6344 32.1333 38.4904 32.1267C38.2221 32.1071 37.9473 32.0875 37.4042 32.0875C36.8611 32.0875 36.5928 32.1071 36.3246 32.1267C36.0759 32.1464 35.8338 32.166 35.343 32.166C34.8523 32.166 34.6298 32.1398 34.3812 32.1136C34.1129 32.0875 33.8315 32.0548 33.2753 32.0548C32.8107 32.0548 32.5883 32.022 32.3396 31.9828C32.0713 31.9435 31.7769 31.8977 31.2076 31.8977C30.6383 31.8977 30.3635 31.9304 30.0887 31.9697C29.8466 32.0024 29.611 32.0286 29.1399 32.0286C28.6687 32.0286 28.4659 31.9959 28.2172 31.9566C27.949 31.9173 27.648 31.865 27.0787 31.865C26.5094 31.865 26.2411 31.8977 25.9663 31.9304C25.7176 31.9566 25.4886 31.9893 25.011 31.9893C24.5006 31.9893 24.2454 31.9828 23.9967 31.9762C23.735 31.9697 23.4667 31.9566 22.9432 31.9566C22.4198 31.9566 22.1253 31.9828 21.857 32.0024C21.6084 32.022 21.3663 32.0482 20.8821 32.0482H18.8209C18.2712 32.0482 17.9964 32.0678 17.7216 32.1006C17.4729 32.1267 17.2374 32.1529 16.7597 32.1529C16.3147 32.1529 16.1053 32.1071 15.8632 32.0613C15.5884 32.0024 15.2809 31.937 14.6985 31.937C14.2012 31.937 13.946 31.9304 13.6974 31.9173C13.4356 31.9043 13.1673 31.8977 12.6373 31.8977C12.1073 31.8977 11.8456 31.9043 11.5838 31.9173C11.3286 31.9239 11.08 31.9304 10.5761 31.9304C10.0396 31.9304 9.77131 31.9501 9.50303 31.9697C9.3329 31.9828 9.16931 31.9959 8.92066 32.0024C8.9272 31.7865 8.94683 31.636 8.95992 31.4789C8.98609 31.2041 9.01881 30.9162 9.01881 30.3469C9.01881 29.7776 8.97955 29.4766 8.94029 29.1953C8.90757 28.9466 8.87486 28.7111 8.87486 28.2203C8.87486 27.7295 8.89449 27.4809 8.92066 27.2192C8.94683 26.9443 8.97301 26.6564 8.97301 26.1002C8.97301 25.5833 8.97955 25.3216 8.98609 25.0598C8.99264 24.7915 9.00573 24.5167 9.00573 23.9802C9.00573 23.4436 8.9861 23.1491 8.96646 22.8743C8.94683 22.6191 8.9272 22.3705 8.9272 21.8601C8.9272 21.3497 8.94029 21.088 8.94683 20.8262C8.95992 20.5514 8.97301 20.2831 8.97301 19.74C8.97301 19.2296 8.99264 18.981 9.00573 18.7258C9.02536 18.451 9.04499 18.1761 9.04499 17.6199C9.04499 17.1096 9.05807 16.8544 9.07116 16.5992C9.08425 16.3243 9.10388 16.0495 9.10388 15.4999C9.10388 14.9502 9.09079 14.6885 9.08425 14.4137C9.08425 14.2632 9.07116 14.1061 9.07116 13.8902C9.56846 13.8902 9.83674 13.8575 10.0854 13.8313C10.3275 13.8051 10.55 13.7789 11.0146 13.7789C11.5119 13.7789 11.7605 13.7789 12.0092 13.7789C12.2644 13.7789 12.513 13.7789 13.0168 13.7789C13.1673 13.7789 13.2917 13.7789 13.4095 13.7724C13.4683 13.7789 13.5207 13.792 13.5796 13.7986C13.8479 13.8444 14.1489 13.8967 14.7247 13.8967H16.5241C16.6681 13.9098 16.8251 13.9229 17.0214 13.9229C17.5056 13.9229 17.7478 13.936 17.9899 13.9425C18.2451 13.9556 18.5068 13.9687 19.0237 13.9687C19.5407 13.9687 19.7958 13.9556 20.051 13.9491C20.2931 13.9425 20.5418 13.9294 21.026 13.9294C21.556 13.9294 21.8243 13.9033 22.086 13.8836C22.3216 13.864 22.5572 13.8444 23.0283 13.8444C23.5518 13.8444 23.8135 13.8248 24.0752 13.8051C24.1865 13.7986 24.2977 13.7855 24.4351 13.7789C24.6053 13.792 24.8016 13.7986 25.0633 13.7986C25.2923 13.7986 25.469 13.7986 25.6195 13.792C25.7373 13.8051 25.842 13.8182 25.9467 13.8313C26.2019 13.864 26.4898 13.9033 27.0329 13.9033C27.576 13.9033 27.8835 13.8509 28.1453 13.8051C28.3808 13.7659 28.5902 13.7266 29.0286 13.7266C29.467 13.7266 29.7091 13.7528 29.9513 13.7789C30.213 13.8117 30.4878 13.8444 31.0244 13.8444C31.5086 13.8444 31.7507 13.8509 31.9993 13.864C32.2545 13.8771 32.5097 13.8836 33.0201 13.8836C33.1706 13.8836 33.2949 13.8836 33.4062 13.8836H35.3692C35.8731 13.8836 36.1217 13.9033 36.3704 13.9164C36.6386 13.9294 36.9004 13.9425 37.4304 13.9425H38.955C38.955 14.1192 38.9419 14.2566 38.9354 14.394C38.9223 14.6689 38.9092 14.9371 38.9092 15.4868C38.9092 16.0364 38.9354 16.3374 38.955 16.6123C38.9746 16.874 39.0008 17.1161 39.0008 17.6134C39.0008 18.1565 39.0139 18.4313 39.027 18.7062C39.0401 18.9613 39.0532 19.2231 39.0532 19.7335C39.0532 20.2439 39.027 20.4729 39.0008 20.7281C38.9746 21.0029 38.9485 21.2908 38.9485 21.8535C38.9485 22.4555 39.0204 22.7762 39.0793 23.0575C39.1317 23.3062 39.184 23.5156 39.184 23.9736C39.184 24.484 39.1709 24.7392 39.1579 24.9944V24.9813ZM42.6062 9.17237C42.5604 9.493 42.5081 9.82671 42.5081 10.4876C42.5081 11.1485 42.5343 11.4429 42.5539 11.7505C42.5735 11.9991 42.5932 12.2282 42.5932 12.6273C42.3183 12.6273 42.1417 12.6404 41.9584 12.6535C41.7163 12.6666 41.4808 12.6797 40.9966 12.6797C40.5124 12.6797 40.2833 12.66 40.0478 12.6469C39.8907 12.6338 39.7206 12.6273 39.4981 12.6142C39.4981 12.6142 39.4916 12.6142 39.485 12.6142C39.3476 12.6142 39.1971 12.6077 39.0074 12.6077C38.5362 12.6077 38.3007 12.588 38.0717 12.5684C37.8099 12.5488 37.5416 12.5226 37.0116 12.5226C36.5274 12.5226 36.2853 12.5095 36.0432 12.4964C35.788 12.4833 35.5263 12.4703 35.0159 12.4703C34.5055 12.4703 34.2176 12.4964 33.9558 12.5226C33.7857 12.5422 33.6221 12.5553 33.3866 12.5619H33.3146C32.8238 12.5619 32.5752 12.5422 32.3265 12.5292C32.0582 12.5095 31.79 12.4899 31.2534 12.4899C30.7888 12.4899 30.5729 12.4572 30.3242 12.4179C30.0559 12.3787 29.7615 12.3328 29.1922 12.3328C28.6229 12.3328 28.3743 12.359 28.106 12.3787C27.8639 12.3983 27.6152 12.4179 27.131 12.4179C26.5945 12.4179 26.3262 12.4375 26.0579 12.4506C25.9336 12.4572 25.8158 12.4637 25.6588 12.4703C25.4886 12.4572 25.2923 12.4506 25.0306 12.4506C24.795 12.4506 24.6118 12.4506 24.4613 12.4637C24.337 12.4506 24.2257 12.4441 24.1145 12.431C23.8397 12.3983 23.5583 12.3656 22.9956 12.3656C22.4328 12.3656 22.1515 12.3983 21.8767 12.4375C21.6345 12.4703 21.399 12.4964 20.9279 12.4964C20.4044 12.4964 20.1426 12.4964 19.8875 12.503C19.6323 12.503 19.3771 12.503 18.8667 12.503C18.3301 12.503 18.0618 12.5226 17.787 12.5422C17.5384 12.5619 17.2897 12.5815 16.799 12.5815H16.5961C16.4456 12.5619 16.3213 12.5292 16.1904 12.4964C15.9156 12.4245 15.608 12.3394 15.0257 12.3394C14.4891 12.3394 14.2143 12.3721 13.946 12.4048C13.8021 12.4245 13.6516 12.4375 13.4618 12.4506C13.259 12.4245 13.0103 12.4048 12.657 12.4048C12.1597 12.4048 11.911 12.3917 11.6624 12.3787C11.3941 12.3656 11.1258 12.3459 10.5892 12.3459H8.52151C8.35793 12.3459 8.15508 12.431 8.02421 12.5422C7.77556 12.5292 7.51382 12.5226 7.01652 12.5226C6.46687 12.5226 6.17242 12.5684 5.91723 12.6077C5.77327 12.6273 5.6424 12.6469 5.46573 12.66C5.45264 12.1758 5.41992 11.8944 5.38066 11.6196C5.3414 11.3317 5.30214 11.0569 5.30214 10.4876C5.30214 9.91832 5.3414 9.65658 5.38721 9.36867C5.41992 9.16583 5.45264 8.94989 5.47227 8.65544C5.72747 8.6489 5.90414 8.62927 6.08081 8.60964C6.32292 8.58346 6.54539 8.56383 7.00998 8.56383C7.47456 8.56383 7.70358 8.58346 7.94569 8.60964C8.20743 8.63581 8.47571 8.66198 9.00573 8.66198C9.58809 8.66198 9.89563 8.58346 10.1639 8.51148C10.3995 8.45259 10.5827 8.40025 11.0015 8.40025C11.5184 8.40025 11.7736 8.38716 12.0353 8.37407C12.2774 8.36099 12.5195 8.35444 12.9972 8.35444C13.4749 8.35444 13.7497 8.35444 13.9984 8.35444C14.247 8.35444 14.4957 8.35444 14.993 8.35444C15.4183 8.35444 15.6146 8.40025 15.8502 8.45259C16.1184 8.51148 16.4194 8.57692 16.9887 8.57692C17.4598 8.57692 17.7019 8.59655 17.9375 8.60964C18.1992 8.62927 18.461 8.6489 18.9845 8.6489C19.5734 8.6489 19.8875 8.55729 20.1623 8.47877C20.3913 8.41333 20.5745 8.36099 20.9802 8.36099C21.4382 8.36099 21.6607 8.38716 21.8963 8.41988C22.1646 8.45259 22.4394 8.48531 22.9825 8.48531C23.5256 8.48531 23.7677 8.46568 24.0294 8.45259C24.265 8.43951 24.5071 8.41988 24.9782 8.41988C25.5083 8.41988 25.7831 8.38716 26.0448 8.36099C26.2869 8.33481 26.5094 8.30864 26.9805 8.30864C27.4517 8.30864 27.7003 8.32172 27.9424 8.34135C28.2042 8.36099 28.4659 8.37407 28.9828 8.37407C29.467 8.37407 29.7091 8.38716 29.9513 8.40025C30.213 8.41333 30.4682 8.42642 30.9851 8.42642C31.4628 8.42642 31.7049 8.43951 31.947 8.45914C32.2087 8.47877 32.4639 8.49185 32.9809 8.49185C33.4978 8.49185 33.7334 8.49185 33.9886 8.49185C34.2372 8.49185 34.4858 8.49185 34.9831 8.49185C35.5328 8.49185 35.8207 8.45259 36.0759 8.41333C36.318 8.38062 36.5274 8.3479 36.9854 8.3479C37.4435 8.3479 37.6725 8.37407 37.9081 8.40679C38.1763 8.43951 38.4512 8.47222 38.9877 8.47222C39.4654 8.47222 39.7075 8.48531 39.9431 8.50494C40.2048 8.52457 40.4665 8.53766 40.99 8.53766C41.4873 8.53766 41.7294 8.53766 41.9781 8.5442C42.1678 8.5442 42.3641 8.55074 42.6717 8.55074C42.6586 8.81248 42.6259 8.98915 42.5997 9.17891L42.6062 9.17237ZM17.5973 16.5795C17.5973 16.5795 17.5711 16.5795 17.558 16.5795C16.9691 16.5795 16.6812 16.5534 16.3736 16.5206C16.053 16.4879 15.7258 16.4618 15.078 16.4618C14.4302 16.4618 14.1358 16.4683 13.8217 16.4814C13.5141 16.4879 13.2132 16.501 12.5981 16.501C12.1858 16.501 11.8652 16.8413 11.8652 17.2797C11.8652 17.9275 11.8652 18.2481 11.8521 18.5753C11.8521 18.9025 11.839 19.2296 11.839 19.884C11.839 20.5383 11.839 20.8524 11.8259 21.173C11.8194 21.5002 11.8129 21.8339 11.8129 22.4948C11.8129 23.1557 11.8063 23.4698 11.7998 23.7904C11.7932 24.1176 11.7801 24.4513 11.7801 25.1056C11.7801 25.76 11.8129 26.1329 11.8456 26.4667C11.8783 26.7873 11.911 27.0948 11.911 27.7165C11.911 28.2988 12.3429 28.4559 12.5981 28.4559C13.187 28.4559 13.4749 28.482 13.7824 28.5148C14.1031 28.5475 14.4302 28.5736 15.078 28.5736C15.7258 28.5736 16.0595 28.5409 16.3736 28.5082C16.6746 28.4755 16.9625 28.4428 17.558 28.4428C17.7936 28.4428 17.9506 28.3446 18.0357 28.253C18.2254 28.0633 18.2254 27.8408 18.2189 27.7165V25.1122C18.2189 24.4709 18.2254 24.1437 18.232 23.8231C18.2385 23.4959 18.2516 23.1622 18.2516 22.5013V19.8905C18.2516 19.2493 18.2647 18.9286 18.2712 18.608C18.2843 18.2743 18.2974 17.9471 18.2974 17.2862C18.2974 16.9525 18.0553 16.6123 17.5907 16.5861L17.5973 16.5795ZM17.1719 18.5622C17.1588 18.8959 17.1458 19.2231 17.1458 19.884V22.4948C17.1458 23.1426 17.1392 23.4698 17.1327 23.7904C17.1261 24.1176 17.113 24.4513 17.113 25.1056V27.3304C16.7401 27.3435 16.498 27.3697 16.2689 27.3893C15.9679 27.422 15.68 27.4547 15.0846 27.4547C14.4891 27.4547 14.2012 27.4285 13.8937 27.3958C13.6516 27.3697 13.4095 27.35 13.0234 27.3369C13.0103 26.8854 12.9841 26.6106 12.958 26.3423C12.9252 26.0217 12.8925 25.7142 12.8925 25.0925C12.8925 24.4709 12.8991 24.1241 12.9056 23.8035C12.9122 23.4763 12.9252 23.1426 12.9252 22.4817C12.9252 21.8208 12.9252 21.5067 12.9383 21.1861C12.9383 20.8589 12.9514 20.5318 12.9514 19.8709C12.9514 19.21 12.9514 18.9025 12.9645 18.5753C12.9645 18.307 12.971 18.0387 12.971 17.6003C13.3637 17.6003 13.6058 17.5872 13.8479 17.5807C14.1554 17.5741 14.4564 17.561 15.0715 17.561C15.6866 17.561 15.9549 17.5872 16.2624 17.6199C16.511 17.6461 16.7662 17.6657 17.185 17.6788C17.185 18.0649 17.1719 18.3135 17.1654 18.5557L17.1719 18.5622ZM36.7826 18.4837C36.7826 18.7912 36.5339 19.0399 36.2264 19.0399C35.6898 19.0399 35.4216 19.0399 35.1533 19.0333C34.8915 19.0333 34.6298 19.0202 34.1063 19.0202C33.5829 19.0202 33.308 19.0202 33.0398 19.0202C32.778 19.0202 32.5163 19.0202 31.9863 19.0202C31.4562 19.0202 31.201 19.0268 30.9459 19.0333C30.6776 19.0399 30.4093 19.053 29.8662 19.053C29.3231 19.053 29.081 19.0595 28.8192 19.066C28.551 19.066 28.2827 19.0791 27.7461 19.0791C27.2096 19.0791 26.9151 19.0595 26.6403 19.0399C26.3851 19.0202 26.1299 19.0006 25.626 19.0006C25.1222 19.0006 24.8605 19.0137 24.6053 19.0333C24.3304 19.053 24.0556 19.066 23.5125 19.066C22.9694 19.066 22.7077 19.066 22.4394 19.053C22.1777 19.053 21.9159 19.0399 21.3924 19.0399C21.0849 19.0399 20.8363 18.7912 20.8363 18.4837C20.8363 18.1761 21.0849 17.9275 21.3924 17.9275C21.929 17.9275 22.1973 17.9275 22.4656 17.9406C22.7273 17.9406 22.989 17.9537 23.5125 17.9537C24.036 17.9537 24.2846 17.9406 24.5398 17.9209C24.8147 17.9013 25.0829 17.8882 25.626 17.8882C26.1691 17.8882 26.4505 17.9079 26.7253 17.9275C26.9805 17.9471 27.2357 17.9667 27.7461 17.9667C28.2565 17.9667 28.5313 17.9602 28.7931 17.9537C29.0613 17.9537 29.3296 17.9406 29.8662 17.9406C30.4027 17.9406 30.6514 17.934 30.9066 17.9275C31.1749 17.9209 31.4432 17.9079 31.9863 17.9079C32.5294 17.9079 32.7846 17.9079 33.0528 17.9079C33.3146 17.9079 33.5763 17.9079 34.1063 17.9079C34.6363 17.9079 34.9112 17.9079 35.1795 17.9144C35.4412 17.9144 35.7029 17.9275 36.2264 17.9275C36.5339 17.9275 36.7826 18.1761 36.7826 18.4837ZM36.7826 23.1753C36.7826 23.4829 36.5339 23.7315 36.2264 23.7315C35.6768 23.7315 35.4019 23.7119 35.1271 23.6922C34.8719 23.6726 34.6167 23.653 34.1063 23.653C33.5959 23.653 33.3342 23.6661 33.079 23.6857C32.8042 23.7053 32.5294 23.7184 31.9863 23.7184C31.4432 23.7184 31.1814 23.7184 30.9131 23.7053C30.6514 23.7053 30.3897 23.6922 29.8662 23.6922C29.3427 23.6922 29.0941 23.7053 28.8389 23.7184C28.564 23.7315 28.2958 23.7511 27.7461 23.7511C27.1965 23.7511 26.8955 23.7184 26.6141 23.6792C26.3589 23.6464 26.1168 23.6203 25.626 23.6203C25.1353 23.6203 24.8605 23.6334 24.5987 23.6464C24.3239 23.6595 24.0556 23.6726 23.5125 23.6726H21.3924C21.0849 23.6726 20.8363 23.424 20.8363 23.1164C20.8363 22.8089 21.0849 22.5602 21.3924 22.5602H23.5125C24.0294 22.5602 24.2846 22.5471 24.5464 22.5341C24.8147 22.521 25.0895 22.5079 25.626 22.5079C26.1626 22.5079 26.4701 22.5406 26.7515 22.5799C27.0067 22.6126 27.2488 22.6388 27.7461 22.6388C28.2434 22.6388 28.5182 22.6257 28.7734 22.6126C29.0483 22.5995 29.3165 22.5799 29.8662 22.5799C30.4158 22.5799 30.671 22.5799 30.9393 22.5929C31.201 22.5929 31.4628 22.606 31.9863 22.606C32.5097 22.606 32.7584 22.5929 33.0136 22.5733C33.2884 22.5537 33.5632 22.5406 34.1063 22.5406C34.6494 22.5406 34.9308 22.5602 35.2056 22.5799C35.4608 22.5995 35.716 22.6191 36.2264 22.6191C36.5339 22.6191 36.7826 22.8678 36.7826 23.1753ZM36.6975 27.2977C36.6975 27.6052 36.4489 27.8539 36.1413 27.8539H34.0213C33.5109 27.8539 33.2491 27.867 32.9939 27.8866C32.7191 27.9062 32.4443 27.9193 31.9012 27.9193C31.3581 27.9193 31.0702 27.8997 30.7954 27.8735C30.5402 27.8539 30.285 27.8342 29.7811 27.8342C29.2446 27.8342 28.9763 27.8342 28.708 27.8277C28.4463 27.8277 28.1845 27.8146 27.661 27.8146C27.1376 27.8146 26.9216 27.8408 26.6599 27.8735C26.3851 27.9062 26.0972 27.9389 25.541 27.9389C24.9848 27.9389 24.7034 27.9128 24.4351 27.8866C24.1734 27.8604 23.9313 27.8342 23.4275 27.8342H21.3074C20.9998 27.8342 20.7512 27.5856 20.7512 27.278C20.7512 26.9705 20.9998 26.7219 21.3074 26.7219H23.4275C23.9836 26.7219 24.2716 26.748 24.5398 26.7742C24.795 26.8004 25.0371 26.8265 25.541 26.8265C26.0448 26.8265 26.2738 26.8004 26.5356 26.7677C26.8104 26.7349 27.0983 26.7022 27.661 26.7022C28.2238 26.7022 28.4659 26.7022 28.7342 26.7088C28.9959 26.7088 29.2576 26.7219 29.7811 26.7219C30.3308 26.7219 30.6121 26.7415 30.887 26.7677C31.1422 26.7873 31.3973 26.8069 31.9012 26.8069C32.405 26.8069 32.6733 26.7938 32.9285 26.7742C33.2033 26.7546 33.4782 26.7415 34.0213 26.7415H36.1413C36.4489 26.7415 36.6975 26.9901 36.6975 27.2977Z" fill="#222222"/>
</g>
<defs>
<clipPath id="clip0_2483_9389">
<rect width="40" height="34.582" fill="white" transform="translate(4 7)"/>
</clipPath>
</defs>
</svg>
