<svg fill="none" height="48" width="48" xmlns="http://www.w3.org/2000/svg"><g clip-path="url(#a)"><path d="M43.817 10.488c0-.563.039-.831.085-1.12.046-.32.098-.654.098-1.315 0-.484-.412-.817-1.001-.817-.497 0-.74 0-.988-.007-.255 0-.504-.007-1.014-.007-.478 0-.72-.013-.956-.032l-1.047-.033c-.458 0-.68-.026-.922-.059a7.719 7.719 0 0 0-1.08-.065 6.55 6.55 0 0 0-1.093.078c-.242.033-.451.066-.91.066h-2.002a9.98 9.98 0 0 1-.948-.033l-1.047-.033c-.485 0-.727-.013-.969-.026l-1.034-.026a10.36 10.36 0 0 1-.955-.033 12.7 12.7 0 0 0-1.047-.033c-.523 0-.811.033-1.08.06-.242.025-.464.052-.922.052l-1.034.032-.962.033c-.484 0-.687-.026-.923-.059a7.716 7.716 0 0 0-1.08-.065c-.588 0-.902.091-1.177.17a2.49 2.49 0 0 1-.818.118c-.471 0-.713-.02-.949-.033l-1.047-.04c-.425 0-.621-.045-.857-.097A4.636 4.636 0 0 0 15 7.039h-1.995l-1.021.026-.975.02c-.589 0-.896.079-1.165.15-.235.06-.418.112-.83.112-.465 0-.694-.02-.936-.046a9.206 9.206 0 0 0-1.06-.052l-1.06.052a6.919 6.919 0 0 1-.884.046.667.667 0 0 0-.602.104c-.17.125-.281.38-.281.59a6.24 6.24 0 0 1-.085 1.118A7.02 7.02 0 0 0 4 10.475c0 .654.046.981.085 1.302.04.288.079.562.079 1.132 0 .438.268 1.06.857 1.06.55 0 .844-.046 1.1-.085.241-.04.45-.066.902-.066l.753.013.02.602.019 1.034-.026 1.02-.033 1.094-.033 1.014-.039 1.106-.02 1.034-.026 1.086.04 1.106.039 1.014-.013 1.04-.02 1.08-.046 1.001-.052 1.119c0 .556.04.864.078 1.145.033.249.066.49.066.982s-.026.74-.053.994c-.026.275-.058.563-.058 1.132 0 .471.399.844.91.844l1.079-.039.981-.033 1.047-.02 1.014-.019 1.008.02 1.054.02c.445 0 .654.045.896.091a4.85 4.85 0 0 0 1.165.124l1.1-.052c.248-.026.483-.052.961-.052h2.061l1.086-.04.975-.045.68.006v2.31c-.745.098-1.131.366-1.596.772-.242.21-.517.445-.975.7l-1.433.746-1.511.785c-.753.42-1.113.68-1.46.93-.333.242-.64.464-1.334.85a.656.656 0 0 0 .32 1.23.676.676 0 0 0 .314-.078 11.25 11.25 0 0 0 1.473-.936 10.57 10.57 0 0 1 1.321-.844l1.447-.752 1.491-.78c.576-.32.923-.614 1.198-.85.419-.36.576-.497 1.4-.497s.93.118 1.296.464c.235.223.563.53 1.106.851l1.413.779 1.348.74 1.302.771 1.413.838a.653.653 0 1 0 .661-1.132l-1.4-.831-1.309-.779-1.413-.779-1.348-.739c-.419-.248-.648-.465-.87-.674-.432-.406-.792-.687-1.544-.785v-2.284h.085c.556 0 .837-.032 1.112-.065.249-.026.478-.059.955-.059s.68.033.93.072c.261.04.562.091 1.132.091s.837-.032 1.112-.071a6.26 6.26 0 0 1 .955-.06 4.94 4.94 0 0 1 .936.073c.268.039.563.085 1.132.085.484 0 .713.026.962.052.268.026.55.059 1.106.059l1.08-.04.98-.039.982.04 1.087.039c.405 0 .811-.32.811-1.027l-.02-1.087-.02-1.033v-2.121c0-.47.04-.693.086-.948.046-.275.098-.583.098-1.172l.026-1.02.033-1.1c0-.602-.072-.922-.131-1.204-.052-.248-.105-.458-.105-.916 0-.497.026-.74.053-.994l.052-1.126-.026-1.092a17.345 17.345 0 0 1-.026-1.028l-.046-1.112-.046-1.014.026-1.034.02-.471.74.02 1.026-.027.969-.026c.556 0 .91-.602.91-1.014l-.046-1.27-.046-1.165-.013.027zm-4.66 14.493-.032 1.1c0 .47-.04.693-.085.948-.046.275-.098.583-.098 1.172v2.12l.02 1.086.013.746-.485-.026-1.086-.04-1.08.04-.981.039c-.49 0-.713-.026-.962-.052-.268-.026-.55-.06-1.106-.06-.464 0-.687-.032-.935-.071-.269-.04-.563-.085-1.132-.085s-.845.032-1.12.072a6.237 6.237 0 0 1-.948.059c-.471 0-.674-.033-.923-.072-.268-.04-.569-.092-1.138-.092s-.838.033-1.113.065c-.248.027-.477.06-.955.06a31.08 31.08 0 0 1-1.014-.014l-1.054-.02-1.086.046-.975.046h-2.061l-1.1.053c-.248.026-.484.052-.961.052-.445 0-.655-.046-.897-.092a4.848 4.848 0 0 0-1.165-.124 17.91 17.91 0 0 1-1-.02l-1.06-.02-1.054.02-1.008.013-1.073.04-.582.032.039-.523c.026-.275.059-.563.059-1.132s-.04-.87-.079-1.152c-.032-.248-.065-.484-.065-.975l.046-1 .052-1.12.013-1.04.02-1.08-.04-1.106-.039-1.014.02-1.034.026-1.086.033-1.014.039-1.106.026-1.02.033-1.1-.02-1.086-.013-.524c.497 0 .766-.033 1.014-.059.242-.026.465-.052.93-.052h2.002l.393-.007.17.027c.268.045.569.098 1.145.098h1.8l.496.026.969.02 1.034.026 1.027-.02.975-.02 1.06-.045.942-.04 1.047-.039.36-.026.628.02.556-.007.328.04c.255.032.543.071 1.086.071s.85-.052 1.112-.098c.236-.04.445-.078.884-.078a7.5 7.5 0 0 1 .922.052 7.51 7.51 0 0 0 1.073.065l.975.02 1.021.02h2.349l1.001.032 1.06.027h1.525l-.02.451-.026 1.093.046 1.125.046 1.001.026 1.093.026 1.027c0 .51-.026.74-.052.995a10.32 10.32 0 0 0-.052 1.125c0 .602.071.923.13 1.204.053.25.105.459.105.917l-.026 1.02v-.013zm3.45-15.809c-.047.321-.099.655-.099 1.316l.046 1.263.04.876-.636.026-.961.027c-.485 0-.714-.02-.95-.033l-.549-.033h-.013c-.137 0-.288-.006-.478-.006a9.29 9.29 0 0 1-.935-.04l-1.06-.045c-.485 0-.727-.014-.969-.027a17.363 17.363 0 0 0-1.027-.026l-1.06.053-.57.039h-.071c-.491 0-.74-.02-.988-.033l-1.074-.04c-.464 0-.68-.032-.929-.071-.268-.04-.563-.085-1.132-.085l-1.086.046-.975.039-1.073.033-.4.02a8.155 8.155 0 0 0-.627-.02l-.57.013-.346-.033a8.17 8.17 0 0 0-1.12-.065c-.562 0-.844.032-1.118.072a6.225 6.225 0 0 1-.95.058l-1.04.007h-1.02l-1.08.04-.988.039h-.203c-.15-.02-.275-.053-.406-.086-.274-.072-.582-.157-1.164-.157a7.72 7.72 0 0 0-1.08.066l-.484.046a6.145 6.145 0 0 0-.805-.046c-.497 0-.746-.013-.995-.026l-1.073-.033H8.522a.847.847 0 0 0-.498.196l-1.007-.02c-.55 0-.845.046-1.1.086l-.451.052a8.241 8.241 0 0 0-.085-1.04c-.04-.288-.079-.563-.079-1.132s.04-.831.085-1.12l.085-.713.609-.045c.242-.027.464-.046.929-.046l.936.046c.261.026.53.052 1.06.052a3.97 3.97 0 0 0 1.158-.15c.236-.06.419-.112.838-.112l1.033-.026.962-.02h1.996c.425 0 .622.046.857.099.268.058.57.124 1.139.124l.948.033 1.047.039c.59 0 .903-.092 1.178-.17a2.49 2.49 0 0 1 .818-.118c.458 0 .68.026.916.059.269.033.543.065 1.087.065l1.046-.032.95-.033c.53 0 .804-.033 1.066-.059.242-.026.464-.052.935-.052l.962.032 1.04.033.97.026 1.033.026.962.033 1.034.033h2.002a6.4 6.4 0 0 0 1.093-.079c.242-.032.451-.065.91-.065a5.9 5.9 0 0 1 .922.059c.268.033.543.065 1.08.065l.955.033 1.047.033.988.006.694.007c-.013.261-.046.438-.072.628l.006-.007zm-25.01 7.407h-.039c-.589 0-.877-.026-1.184-.058-.321-.033-.648-.06-1.296-.06l-1.256.02-1.224.02c-.412 0-.733.34-.733.779l-.013 1.295-.013 1.309-.013 1.289-.013 1.322-.013 1.295-.02 1.316.066 1.36c.032.321.065.629.065 1.25 0 .583.432.74.687.74.589 0 .877.026 1.184.059.321.032.648.059 1.296.059s.982-.033 1.296-.066c.3-.032.588-.065 1.184-.065a.639.639 0 0 0 .478-.19c.19-.19.19-.412.183-.537v-2.604l.013-1.289.02-1.322v-2.61l.02-1.283.025-1.322c0-.334-.242-.674-.706-.7l.006-.006zm-.425 1.983-.026 1.322v2.61l-.013 1.296-.02 1.316v2.224l-.844.06c-.301.032-.589.065-1.184.065a9.79 9.79 0 0 1-1.191-.06 11.012 11.012 0 0 0-.87-.058l-.066-.995c-.033-.32-.066-.628-.066-1.25l.014-1.288.02-1.322.012-1.296.013-1.315.013-1.296.007-.975.877-.02 1.223-.019 1.191.059.923.059-.02.877.007.006zm19.61-.078a.556.556 0 0 1-.556.556c-.536 0-.804 0-1.073-.007-.261 0-.523-.013-1.047-.013h-2.12l-1.04.013-1.08.02-1.047.013-1.073.013a13.47 13.47 0 0 1-1.106-.04l-1.014-.038-1.02.032-1.094.033c-.543 0-.804 0-1.073-.013-.261 0-.523-.013-1.047-.013a.556.556 0 1 1 0-1.113l1.074.014 1.046.013 1.028-.033 1.086-.033 1.1.04 1.02.039 1.047-.013 1.073-.013 1.04-.014 1.08-.02h2.12l1.073.007 1.047.013c.308 0 .557.25.557.557zm0 4.691a.556.556 0 0 1-.556.556c-.55 0-.824-.02-1.099-.039l-1.02-.039-1.028.033-1.093.032c-.543 0-.805 0-1.073-.013-.262 0-.523-.013-1.047-.013l-1.027.026-1.093.033c-.55 0-.85-.033-1.132-.072a6.776 6.776 0 0 0-.988-.059l-1.027.026-1.087.027h-2.12a.556.556 0 1 1 0-1.113h2.12l1.034-.026 1.08-.026c.537 0 .844.033 1.125.072.256.033.498.059.995.059l1.027-.026 1.093-.033 1.073.013 1.047.013 1.028-.033 1.092-.032 1.1.039 1.02.04c.308 0 .557.248.557.555zm-.084 4.123a.556.556 0 0 1-.557.556h-2.12l-1.027.033-1.093.032c-.543 0-.83-.02-1.106-.046l-1.014-.039c-.536 0-.805 0-1.073-.006-.262 0-.523-.013-1.047-.013s-.74.026-1.001.058a8.247 8.247 0 0 1-1.119.066c-.556 0-.838-.026-1.106-.052-.262-.027-.504-.053-1.008-.053h-2.12a.556.556 0 1 1 0-1.112h2.12l1.113.052c.255.026.497.052 1.001.052a6.97 6.97 0 0 0 .995-.058 8.263 8.263 0 0 1 1.125-.066l1.073.007 1.047.013 1.106.046 1.014.039 1.027-.033 1.093-.033h2.12c.308 0 .556.25.556.557z" fill="#000"></path></g><defs><clipPath id="a"><path d="M4 7h40v34.582H4z" fill="#fff"></path></clipPath></defs></svg>