<svg width="48" height="48" viewBox="0 0 48 48" fill="none" xmlns="http://www.w3.org/2000/svg">
<g id="Icon=Success">
<g id="Vector">
<path d="M41.3827 23.9043C41.3827 25.2394 41.2937 26.3342 41.1068 27.2598C40.9555 28.0342 40.6084 28.7373 40.2702 29.4137C40.1099 29.7342 39.9586 30.0457 39.8251 30.3661C39.4513 31.2562 38.9262 32.0394 38.4099 32.787L38.0361 33.3478C37.4665 34.1933 36.888 35.0656 36.1314 35.8221L35.8288 36.1336C35.1613 36.8012 34.4759 37.4954 33.666 38.0472C32.8827 38.5724 32.0016 38.9284 31.1471 39.2755L30.6665 39.4713C29.8298 39.8185 28.9487 39.9787 28.0942 40.1389L27.4712 40.2546C27.1063 40.3258 26.7414 40.4415 26.3586 40.5661C25.6822 40.7797 24.9791 41.0022 24.2225 41.0022C23.2613 41.0022 22.3356 40.8064 21.4455 40.6284L20.9204 40.5216C20.0215 40.3436 19.1937 39.9876 18.3927 39.6404L17.8052 39.3912C16.933 39.0263 16.1764 38.5101 15.4466 38.0205L14.9927 37.709C14.1115 37.1216 13.3105 36.4541 12.4916 35.6352C12.3314 35.475 12.1801 35.3237 12.0199 35.1724C11.4147 34.576 10.7827 33.9708 10.2843 33.2143L10.1953 33.0808C9.62565 32.2352 9.03822 31.3541 8.6288 30.3661C8.24607 29.4493 8.05916 28.4792 7.87225 27.5268L7.80105 27.1708C7.72984 26.797 7.59634 26.4232 7.46283 26.0226C7.23141 25.3462 7 24.652 7 23.9043C7 23.0054 7.18691 22.142 7.37382 21.2965C7.42723 21.0562 7.48063 20.8158 7.52513 20.5844C7.68534 19.8012 8.02356 19.098 8.35288 18.4127C8.49529 18.1101 8.6466 17.8075 8.7712 17.5048C8.91361 17.1488 9.02932 16.7839 9.14503 16.419C9.35864 15.7336 9.58115 15.0216 9.99948 14.3986C10.667 13.4017 11.3791 12.5205 12.1089 11.7907C12.6874 11.2122 13.3906 10.776 14.067 10.3577C14.3251 10.1975 14.5921 10.0373 14.8414 9.86819C15.7314 9.27186 16.7283 8.85353 17.6895 8.45301L17.7963 8.40851C18.1257 8.275 18.455 8.10589 18.7843 7.93678C19.4429 7.59856 20.1194 7.25144 20.8759 7.10013C21.6236 6.94882 22.389 7.00223 23.1277 7.04673C23.4927 7.07343 23.8576 7.09123 24.2136 7.09123C25.1304 7.09123 25.9848 7.27814 26.8126 7.45615C27.0262 7.50065 27.2398 7.54516 27.4534 7.58966C28.5482 7.80327 29.5895 8.01688 30.6131 8.43521C30.9424 8.56872 31.2895 8.68442 31.6277 8.80013C32.3309 9.03154 33.0518 9.28076 33.6838 9.70798L33.9686 9.9038C34.7963 10.4556 35.6508 11.0253 36.3628 11.7373C36.8969 12.2713 37.2529 12.93 37.6 13.5619C37.7869 13.9001 37.9738 14.2383 38.1785 14.5588C38.8817 15.609 39.389 16.5258 39.7717 17.4514C40.0832 18.1991 40.2079 18.9912 40.3325 19.7567C40.377 20.0593 40.4304 20.3619 40.4927 20.6645C40.5639 21.0473 40.7152 21.43 40.8665 21.8394C41.1157 22.4891 41.3649 23.1656 41.3649 23.9043H41.3827ZM37.2885 20.9226C37.0927 20.0504 36.6832 19.2226 36.3005 18.4305L35.989 17.7897C35.5974 16.9708 35.2325 16.2054 34.7073 15.5467L34.3958 15.1462C33.8707 14.4787 33.3277 13.7933 32.6958 13.286C32.2419 12.9211 31.6633 12.7164 31.0492 12.4938C30.6843 12.3603 30.3016 12.2268 29.9366 12.0488L29.5361 11.853C28.7529 11.4703 28.0141 11.1054 27.1953 10.9185L26.688 10.8027C25.8869 10.6158 25.0592 10.4111 24.2314 10.4111H23.9021C23.7953 10.4111 23.6885 10.4111 23.5728 10.4111C22.7539 10.4111 21.9262 10.4289 21.1963 10.598C20.1728 10.8295 19.1759 11.1766 18.3037 11.5949C17.5649 11.9509 16.8707 12.5116 16.2031 13.0546L15.8293 13.3572C15.0461 13.9802 14.3785 14.8258 13.7822 15.5645L13.6309 15.7603C13.0524 16.4813 12.456 17.2289 12.0644 18.0389C11.8241 18.5373 11.7618 19.1336 11.6995 19.7567C11.6639 20.1661 11.6194 20.5844 11.5215 20.9938C11.4681 21.2075 11.4147 21.4211 11.3613 21.6436C11.1743 22.409 10.9874 23.13 10.9874 23.9043C10.9874 24.2336 10.9696 24.563 10.9518 24.8834C10.9162 25.6043 10.8806 26.2897 11.023 26.9127C11.1565 27.509 11.4859 28.052 11.833 28.6216C12.0288 28.942 12.2246 29.2713 12.3848 29.6007C12.7942 30.4373 13.2927 31.2294 13.978 32.075C14.156 32.2975 14.3251 32.5289 14.4942 32.7603C14.9393 33.3567 15.3576 33.9174 15.9005 34.3535C16.6838 34.9766 17.4848 35.6174 18.3838 36.0535C18.9356 36.3205 19.5675 36.4096 20.2351 36.5164C20.6 36.5698 20.956 36.6232 21.312 36.7033C21.6414 36.7745 21.9618 36.8724 22.2911 36.9703C22.9586 37.1661 23.5817 37.353 24.2403 37.353C25.2194 37.353 26.2251 37.2373 27.2309 37.0059C28.1209 36.8012 29.0377 36.463 30.0524 35.9734C30.3016 35.8577 30.5597 35.742 30.8089 35.6263C31.4942 35.3237 32.1974 35.0033 32.7492 34.5671C33.1675 34.2289 33.4613 33.7216 33.7639 33.1787C33.9775 32.7959 34.2 32.4043 34.4759 32.0572C35.1524 31.2116 35.6241 30.3127 35.989 29.5473C36.1403 29.2446 36.3005 28.942 36.4696 28.6483C36.8079 28.052 37.1283 27.4912 37.2707 26.8682L37.3508 26.53C37.5466 25.6666 37.7602 24.7766 37.7602 23.8954C37.7602 22.8897 37.5288 21.8928 37.3063 20.9137L37.2885 20.9226Z" fill="#222222"/>
<path d="M31.5848 16.3613L31.6367 16.2575H31.6886L31.5848 16.3613ZM32 16.7246C32 18.3852 31.6367 19.1637 31.1697 20.0459C31.014 20.3054 30.9102 20.6167 30.7545 20.9281L28.523 24.9759L25.9802 28.7643C25.7207 29.0237 25.5131 29.3351 25.3055 29.7503C25.0979 30.0616 24.8904 30.4249 24.6309 30.7363C24.2157 31.3071 23.593 31.7742 22.8146 31.7742H22.7627C21.9842 31.7742 21.4653 31.6704 21.0501 31.4109C20.635 31.2033 20.3755 30.892 20.116 30.6325C20.0122 30.5287 19.9603 30.4249 19.8565 30.373L18.2997 28.5048L16.9504 26.5328C16.8985 26.3252 16.7428 26.1695 16.5352 25.9619C16.3795 25.7543 16.172 25.4949 16.0682 25.2354C15.9644 24.924 15.9644 24.6127 16.172 24.1975V24.1456H16.2239C16.8985 24.0937 17.3137 24.1456 17.625 24.3532C17.9364 24.5089 18.144 24.7683 18.2997 25.0278C18.4554 25.2354 18.611 25.443 18.8186 25.5468L18.7667 25.6506L18.8186 25.5987L20.5312 27.3631L21.9842 29.2832C22.0361 29.3351 22.0361 29.387 22.088 29.4389C22.3994 29.2832 22.6589 29.0237 22.9702 28.5567C23.2816 28.1934 23.6449 27.6745 24.2676 27.1036L26.7586 22.952L28.8344 18.8004C29.042 18.489 29.3015 18.1776 29.509 17.8663C29.8204 17.3992 30.1318 16.9322 30.4431 16.6208C30.7545 16.3094 31.1178 16.1018 31.5329 16.3094L31.481 16.4132L31.5848 16.3613L32 16.7246Z" fill="#222222"/>
</g>
</g>
</svg>
