<svg xmlns="http://www.w3.org/2000/svg" width="30" height="30" fill="#000"><path d="M22.5 12.2549c.3354.3554.573.5331.8525.6677.2725.1346.5729.2423.8105.4307.4961.3446.8944.7915 1.139 1.2761.3004.4792.4751 1.023.545 1.5884.1747.5115-.2097 1.1953.3424 1.7822 1.0551-.3984.6777-1.2545.8105-1.8145 0 0 .007-.4846-.0908-.9746-.0909-.49-.3145-.9745-.3145-.9745-.3563-.63-.8874-1.1954-1.5721-1.6315-.3564-.1992-.7128-.4254-1.146-.5384-.4262-.1131-.9433-.1023-1.3695.1938l-.007-.0054zm-15 0c-.3354.3554-.57297.5331-.85246.6677-.27251.1346-.57297.2423-.81054.4307-.49611.3446-.89439.7915-1.13895 1.2761-.30046.4792-.47514 1.023-.54502 1.5884-.17468.5115.20962 1.1953-.34238 1.7822-1.0551-.3984-.67778-1.2545-.81054-1.8145 0 0-.00699-.4846.09084-.9746.09083-.49.31443-.9745.31443-.9745.35636-.63.8874-1.1954 1.57217-1.6315.35635-.1992.71271-.4254 1.14593-.5384.42623-.1131.9433-.1023 1.36953.1938L7.5 12.2549zm9.0934-7.07618l-2.6693 1.65662c-.5051.41244-.9374.86336-1.0626 1.47284-.1504.58489-.0723 1.2193.2174 1.6915.2691.45762.8787.91122 1.4573 1.12322.5702.2526 1.1569.2775 1.6697.0568.2572-.123.411-.2332.5917-.4905.1741-.242.3434-.6405.5174-1.02904.39-.68721.436-1.31985.1843-1.9446-.2451-.64008-1.1301-1.35025-1.6179-2.06978 1.0459-.57325 2.875.22304 3.323 1.26691.2431.51891.3343 1.12265.2808 1.71002-.0581.5774-.2235 1.07176-.2912 1.48269l-.0818.2346-.2287.6223c-.1172.2759-.2829.6237-.5697 1.0051-.298.3868-.723.7365-1.1676.9857-.8893.4984-1.9226.6015-2.6027.5235-.6912-.0726-1.0841-.239-1.0841-.239-1.0424-.4421-1.8667-1.0618-2.4442-2.0315-.5552-.9805-.6507-2.11954-.3394-3.20877.3364-1.06465 1.0645-2.16998 2.1328-2.75393 1.016-.60782 2.8616-1.13383 3.6143-.34555l.1705.28087z"></path><path d="M8.58579 11.8238c-.47689.6358-1.31409.5404-1.79098.1377-.49808-.4133-.75242-1.0809-.79481-1.7803C6 8.78229 7.02796 7.60597 8.501 7.5c1.40947.04239 2.501 1.15512 2.5116 2.4904-.0742.5405-.2013 1.1975-.6782 1.6744-.45572.4557-1.12336.5617-1.58965.1378.18016-.7842.27553-1.0598.3815-1.2187.09538-.1272.27554-.3392.13777-.5087 0-.0106-.04239-.22256-.27553-.37092-.24374-.15897-.4451-.09538-.4239-.09538-.18016-.07419-.60406.26494-.60406.5511-.06358.1483.06359.2967.14836.4875.11658.1907.08479.498.4663 1.1763h.0106zM6 20.42c1.54-1.2 3.08-.82 4.62-.9l4.62-.02 4.62.2c1.36.21 3.29-.23 4.62.73-1.31 1.37-3.24.67-4.62.92l-4.62.15-4.62-.11c-1.53-.12-3.1.26-4.62-.96v-.01z"></path><path d="M13.5 12.3824c-.4472.533-.764.7996-1.1366 1.0015-.3634.2019-.764.3634-1.0807.6461-.6615.5169-1.1926 1.1872-1.51863 1.9141-.40062.7188-.63353 1.5345-.72669 2.3826-.23292.7672.27949 1.793-.45652 2.6733-1.40679-.5977-.9037-1.8818-1.08071-2.7218 0 0-.00932-.7269.12111-1.4618.12112-.735.41925-1.4619.41925-1.4619.47514-.9449 1.1832-1.793 2.09619-2.4471.4752-.2989.9503-.6381 1.5279-.8077.5684-.1696 1.2578-.1535 1.8261.2908l.0093-.0081zm3-.0228c1.3583-.7406 2.4752-.1892 3.6222.3292.5635.2962 1.0967.6912 1.4891 1.1767s.6138 1.0122.7547 1.5224c.1911 1.0368.1308 1.942.1006 2.8801-.1811.8147.1912 2.0161-.8653 2.732-1.2779-.8558-.5232-1.9091-.7949-2.7155l-.1409-1.3167c-.0805-.6583-.2616-1.2178-.2616-1.2178-.171-.7736-.5433-1.3331-1.2979-1.7693-.7345-.5019-1.8413-.4279-2.606-1.6211zm5.5858-.5358c-.4769.6358-1.3141.5404-1.791.1377-.4981-.4133-.7524-1.0809-.7948-1.7803 0-1.39891 1.028-2.57523 2.501-2.6812 1.4095.04239 2.501 1.15512 2.5116 2.4904-.0742.5405-.2013 1.1975-.6782 1.6744-.4557.4557-1.1234.5617-1.5897.1378.1802-.7842.2756-1.0598.3816-1.2187.0953-.1272.2755-.3392.1377-.5087 0-.0106-.0424-.22256-.2755-.37092-.2438-.15897-.4451-.09538-.4239-.09538-.1802-.07419-.6041.26494-.6041.5511-.0636.1483.0636.2967.1484.4875.1166.1907.0848.498.4663 1.1763h.0106z"></path></svg>