<svg width="32" height="32" viewBox="0 0 32 32" fill="none" xmlns="http://www.w3.org/2000/svg">
<path fill-rule="evenodd" clip-rule="evenodd" d="M25.9417 6.20369C26.887 6.67926 27.2702 7.83581 26.7975 8.78693C26.7859 8.81034 26.7736 8.83531 26.7605 8.86169C26.5948 9.19715 26.3165 9.76045 25.9388 10.246C25.1875 11.2118 24.6105 12.3019 23.9546 13.5408C23.7756 13.8791 23.5906 14.2285 23.3946 14.5894C23.0752 15.1779 22.7514 15.8218 22.4132 16.4943C21.5344 18.2418 20.5584 20.1828 19.3079 21.8476C18.2594 23.2436 16.7801 24.8604 14.8662 25.7725C14.5449 25.9256 14.2447 25.9678 14.0962 25.9836C13.914 26.003 13.737 26.0037 13.5781 25.9936C13.4213 25.9836 13.2362 25.9603 13.043 25.9116C12.9222 25.8811 12.6347 25.8028 12.3326 25.6025C12.3244 25.5985 12.3153 25.5943 12.3055 25.5897C12.2853 25.5803 12.2656 25.5714 12.2476 25.5634C11.8954 25.4059 11.6448 25.1892 11.478 25.0122C11.3736 24.9014 11.2894 24.7917 11.2329 24.7134C10.7212 24.3367 10.3387 23.8554 10.0978 23.5322C9.93777 23.3175 9.79114 23.1029 9.67205 22.9276C9.65699 22.9054 9.64251 22.884 9.62856 22.8635C9.52276 22.7076 9.44744 22.5966 9.37939 22.5034C9.17864 22.2285 8.9533 21.9353 8.71481 21.6249C7.85836 20.5104 6.83238 19.1752 6.16732 17.6795C5.73571 16.7088 6.16792 15.5699 7.1327 15.1357C8.09748 14.7014 9.22948 15.1363 9.66109 16.107C10.1226 17.1449 10.7624 17.9806 11.5529 19.0132C11.8374 19.3848 12.1414 19.7819 12.4636 20.2231C12.5745 20.3748 12.6916 20.5476 12.791 20.6943C12.8052 20.7152 12.819 20.7355 12.8324 20.7552C12.9498 20.9282 13.055 21.0811 13.1599 21.2218C13.2653 21.3632 13.3511 21.4659 13.4196 21.5371C13.4543 21.5731 13.4759 21.592 13.4844 21.5991C13.6484 21.6986 13.7827 21.8083 13.8898 21.9105C14.7301 21.343 15.5276 20.4935 16.2543 19.526C17.288 18.1497 18.0142 16.7031 18.8235 15.0908C19.197 14.3468 19.5883 13.5674 20.0356 12.7435C20.1834 12.4712 20.3361 12.1818 20.4948 11.8808C21.1655 10.6096 21.9447 9.13248 22.9246 7.87269C23.0459 7.71673 23.1629 7.48979 23.3742 7.06477C23.8468 6.11365 24.9964 5.72813 25.9417 6.20369Z" fill="black"/>
</svg>
