<svg xmlns="http://www.w3.org/2000/svg" fill="none" viewBox="0 0 32 28" height="28" width="32">
<g id="twitter bird thicker 1">
<path fill="black" d="M23.128 4.2646L22.9089 3.89416L22.555 4.111L21.8052 4.58083L21.7293 4.62601L21.6788 4.70732L21.1058 5.55663L19.9937 5.20426L19.8842 5.16812L19.7746 5.19522L18.9573 5.40303L18.5698 5.50242L18.6372 5.91804L18.7804 6.82155L18.8141 7.05647L19.0163 7.15586L19.8842 7.59858L19.9263 7.62569H19.9768L20.8952 7.84253L20.971 7.8606L21.0469 7.84253L21.7715 7.71604L21.8726 7.69797L21.9568 7.62569L22.9258 6.82155L23.0016 6.75831L23.0437 6.66796L23.5998 5.47531L23.7093 5.24944L23.5829 5.03259L23.128 4.25557V4.2646ZM31.8399 6.36076L31.3597 5.66505L31.2417 5.50242L31.0479 5.48435L29.1438 5.33075L27.9726 4.9332L28.7056 4.03872L30.0958 2.84608L30.2643 2.70152V2.47564L30.2306 1.59923V1.30106L29.9695 1.19264L29.3207 0.912552L29.2027 0.858341L29.0764 0.885447L27.6019 1.19264L26.1274 1.49984H26.0853L26.0516 1.52694L24.8805 2.04195L23.8273 0.975799L23.7514 0.903517L23.6503 0.876412L22.0579 0.388512L20.4402 0.0180703L20.3728 0H20.3054L18.6625 0.216844H18.6119L18.5613 0.24395L16.9942 0.867377L16.9184 0.894482L16.8594 0.948693L15.4102 2.32204L15.3934 2.34011L15.3765 2.36722L14.1211 3.92126L14.0621 3.99355L14.0369 4.09293L13.5061 6.0626L13.4892 6.12585V6.18909L13.5061 7.75218L12.2001 7.5263L10.515 6.94805L8.89731 6.15295L7.32175 5.29461L5.86414 4.25557L4.65929 2.89126L3.58926 1.33721L3.51343 1.22878L3.4039 1.18361L2.84781 0.948693L2.6119 0.849306L2.41811 1.03001L2.00527 1.41852L1.92101 1.49984L1.88731 1.6173L1.38178 3.32494V3.35205L1.36493 3.37915L1.07846 5.16812V5.18619V5.21329L0.960506 7.02033V7.0655V7.11068L1.17114 8.85447L1.10374 10.5983V10.6615L1.11216 10.7247L1.52501 12.4595V12.4866L1.54186 12.5137L2.1485 14.1671L2.67088 15.8296L2.68773 15.8838L2.71301 15.929L3.60611 17.4288L3.63138 17.474L3.66509 17.5102L4.84466 18.7751L5.93997 20.0581L6.79094 21.0158L6.18431 21.7838L4.92048 22.3711L3.4713 22.6692L1.97156 22.8951H1.89573L1.82833 22.9493L0.454976 23.7806L0 24.0516L0.337019 24.4672L1.47446 25.8677L1.54186 25.949L1.63454 25.9852L3.25224 26.6809L4.86993 27.3585L4.90363 27.3766H4.93734L6.62243 27.747H6.66456H6.70669H8.41706L10.3465 28H10.3718H10.3971L12.1327 27.9729L13.8599 27.7922H13.8852H13.9021L15.5703 27.4308H15.6209L15.6714 27.3946L17.2133 26.5905L18.7467 25.8496L20.297 25.0726L20.3391 25.0545L20.3728 25.0274L21.7209 23.9161L21.7462 23.898L21.7715 23.8709L22.951 22.5518L22.9679 22.5337L22.9847 22.5156L24.0211 21.0971L25.0574 19.6425L25.0743 19.6244V19.6063L25.9758 18.0252L25.9926 17.9981V17.9619L26.6582 16.2543L27.3323 14.5828V14.5557L27.3491 14.5286L27.8041 12.7667L28.217 10.9687V10.9326L28.2254 10.8964L28.3265 9.29719L29.7167 8.61052L31.3007 7.72507L31.4018 7.67086L31.4608 7.56244L31.8483 6.89384L32 6.63182L31.8315 6.38787L31.8399 6.36076ZM26.6919 7.59858L26.6414 7.77928L26.4729 8.3485L25.9421 10.2188V10.2459L25.9337 10.273L25.5966 12.1613L25.2006 13.9593L24.4508 15.6489L23.7262 17.3927L23.0269 19.1004L21.9568 20.5189L20.6087 21.7296L19.3449 23.0849L17.8536 23.9703L16.2359 24.6841L14.6266 25.3346L12.9415 25.5605L11.2143 25.7412L9.54608 25.7864L7.85255 25.4792L6.14218 25.172L4.43181 24.919L4.04423 24.7293L4.64244 24.5847L6.42865 24.0336L6.48763 24.0155L6.53818 23.9793L8.10532 22.8951L8.18115 22.8409L8.2317 22.7596L9.21748 21.0791L9.31859 20.9164L9.26804 20.7267L9.04897 19.8503L9.01527 19.6967L8.89731 19.6063L7.49868 18.495L6.29384 17.1488L5.10585 15.7754L4.32228 14.14L3.69036 12.4143L3.34492 10.5983L3.22696 8.71894V8.69184V8.66473L2.92364 6.95708L3.20169 5.24944L3.29437 4.52662L3.66509 5.11391L3.70721 5.17715L3.76619 5.22233L5.11427 6.30655L6.50448 7.32752L7.94523 8.26718H7.96209L7.97894 8.28525L9.49552 9.06228L9.5545 9.08938H9.61348L11.248 9.37851L12.8067 9.91158L12.8741 9.93869H12.95L14.6182 9.85737H14.6603L14.7025 9.84834L15.1827 9.72185L15.4355 9.6586L15.4945 9.38754L15.6124 8.81833L15.6293 8.75508V8.69184L15.5029 6.92094L15.6798 5.25847L16.6572 3.94837L17.921 2.88222L19.4123 2.24072L20.9879 2.19555L22.4539 2.82801L23.6756 3.99355L23.7514 4.06583L23.8526 4.09293L24.5519 4.27364L24.6698 4.30074L24.7878 4.25557L26.06 3.80381L26.1527 3.78574L25.2512 4.77961L25.1585 4.87899L25.1332 5.01452L25.0405 5.61084L24.9984 5.87286L25.1838 6.0355L25.5966 6.3969L25.664 6.45111L25.7399 6.47822L27.307 6.99322L27.703 7.08357L26.8605 7.5263L26.7004 7.60762L26.6919 7.59858Z" id="Vector"></path>
</g>
</svg>
