<svg xmlns="http://www.w3.org/2000/svg" width="30" height="22" fill="none">
  <g fill="currentColor" clip-path="url(#a)">
    <path d="M29.044 3.938c-.009-.567-.022-1.138-.022-2.277 0-.75-.622-1.41-1.33-1.41-1.28 0-1.928.016-2.554.033-.622.017-1.266.03-2.532.03s-1.936.03-2.567.064c-.617.03-1.261.06-2.518.06-1.258 0-1.897-.034-2.515-.068-.63-.034-1.283-.073-2.566-.073-1.284 0-1.91.009-2.545.017-.635.009-1.266.017-2.536.017s-1.906 0-2.545.009c-.635 0-1.27.004-2.536.004-.74 0-1.392.614-1.392 1.317 0 1.16.052 1.753.1 2.324.052.58.1 1.125.1 2.247v9.14c0 1.12-.061 1.662-.122 2.242-.06.571-.126 1.164-.126 2.328 0 .72.709 1.424 1.435 1.424 1.284 0 1.932-.03 2.563-.06.617-.03 1.261-.056 2.523-.056 1.261 0 1.914-.008 2.549-.017.635-.008 1.266-.017 2.536-.017a39.2 39.2 0 0 1 2.514.069c.631.034 1.284.072 2.567.072 1.283 0 1.945-.055 2.58-.11.026 0 .047 0 .074-.005h.017c.022 0 .04-.009.06-.009a23.94 23.94 0 0 1 2.35-.098c1.253 0 1.866.043 2.51.09.63.043 1.288.09 2.57.09h.005c.762 0 1.218-.7 1.218-1.378 0-1.142-.004-1.718-.008-2.289-.005-.571-.01-1.138-.01-2.28 0-1.143.04-1.676.08-2.256.038-.567.078-1.155.078-2.315s.004-1.71.008-2.28c.005-.572.013-1.147.013-2.29 0-1.142-.008-1.718-.021-2.293l-.005.004ZM2.278 1.197c1.27 0 1.905 0 2.545-.009.635 0 1.27-.004 2.536-.004s1.91-.009 2.545-.017c.635-.009 1.265-.017 2.536-.017 1.27 0 1.896.034 2.514.068.63.034 1.283.073 2.567.073 1.283 0 1.931-.03 2.562-.064.622-.03 1.261-.06 2.523-.06 1.261 0 1.927-.017 2.553-.034.623-.017 1.266-.03 2.532-.03.222 0 .461.294.461.558 0 1.147.01 1.718.022 2.294.009.567.022 1.138.022 2.277 0 1.138-.005 1.709-.009 2.28-.004.572-.013 1.147-.013 2.29 0 1.142-.039 1.675-.078 2.255-.04.567-.079 1.155-.079 2.315s.005 1.718.01 2.289v.021c-1.297 0-1.958 0-2.62.009-.665 0-1.335.008-2.666.008s-2.001-.021-2.654-.042a72.216 72.216 0 0 0-2.684-.043c-1.34 0-2.027.038-2.688.073-.648.034-1.323.072-2.645.072-1.031 0-1.666-.017-2.206-.038a.428.428 0 0 0-.439-.017h-.004c-.662-.03-1.344-.06-2.684-.06s-2.023.021-2.68.038c-.361.009-.73.022-1.214.03-.017 0-.034-.013-.056-.013h-.035c-.026 0-.044.009-.07.013-.252 0-.535.004-.857.009v-.017c.061-.572.127-1.164.127-2.328V6.232c0-1.16-.048-1.753-.096-2.32-.052-.58-.1-1.125-.1-2.25 0-.23.265-.465.522-.465Zm7.39 19.141s-.025.034-.038.047c-.505.004-1.075.013-1.993.013.305-.26.522-.473.74-.682.339-.329.66-.64 1.313-1.151.462.017.984.034 1.758.042-.235.226-.409.41-.574.589-.292.315-.57.61-1.205 1.142Zm-7.96-.396c0-.584.017-1.01.04-1.369 1.113 0 1.735-.021 2.335-.038.261-.009.53-.017.844-.021-.313.247-.544.426-.766.6-.391.303-.765.598-1.535 1.224a.414.414 0 0 0-.122.175h-.23c-.244 0-.566-.324-.566-.571Zm3.089.516c-.305.012-.614.025-.997.038.379-.303.635-.507.9-.712.362-.281.74-.575 1.454-1.155a.396.396 0 0 0 .109-.133h.474c.709 0 1.23.01 1.661.022-.252.221-.448.41-.635.592-.37.358-.717.695-1.505 1.296-.613.013-1.044.03-1.461.047v.005Zm6.129-.081c.243-.23.418-.418.591-.601.292-.316.57-.61 1.206-1.143.008-.004.008-.013.017-.021a39.35 39.35 0 0 0 2.031-.069c.079 0 .157-.008.235-.012-.26.23-.46.405-.66.58-.349.302-.697.61-1.389 1.223-.013.013-.017.026-.03.038h-.483c-.64 0-1.118 0-1.518.005Zm3.25.025c.304-.273.526-.465.748-.656.348-.303.696-.61 1.387-1.224.013-.013.018-.03.03-.042.305-.005.653-.009 1.07-.009.549 0 .98 0 1.35.009-.34.255-.592.439-.845.622-.413.298-.83.605-1.64 1.223a.4.4 0 0 0-.126.171c-.448-.013-.796-.034-1.135-.051-.261-.013-.526-.03-.835-.043h-.005Zm3.27.111c.414-.311.701-.52.984-.725.422-.307.84-.614 1.67-1.249.009-.008.013-.017.022-.021a74.88 74.88 0 0 0 2.514.043c-.465.379-.783.57-1.113.771-.405.243-.827.495-1.497 1.079-.643.055-1.248.11-2.497.11h-.078l-.004-.008Zm4.116-.205c.143-.09.274-.17.413-.251.43-.256.875-.52 1.618-1.185.096-.086.14-.2.14-.316.726 0 1.209-.004 1.688-.008h.626c-.27.213-.483.388-.687.554-.392.324-.766.63-1.545 1.21a45.632 45.632 0 0 0-1.205-.016c-.404 0-.744.004-1.044.017l-.004-.005Zm6.125.162c-1.253 0-1.866-.042-2.51-.09h-.044c.318-.246.553-.438.78-.626.378-.311.765-.63 1.548-1.215h.574v1.407c0 .252-.135.524-.348.524Z"/>
    <path d="M11.505 9.271c0 .746-.005 1.117-.014 1.488-.008.35-.013.7-.013 1.347a.45.45 0 0 0 .005.252c.1.29.304.336.426.336.03 0 .057 0 .07-.004a.431.431 0 0 0 .27-.153c.46-.188.948-.35 1.417-.508a22.769 22.769 0 0 0 1.658-.605c.552-.234 1.079-.533 1.583-.823.44-.251.862-.49 1.297-.69a.44.44 0 0 0 .47-.184.42.42 0 0 0-.096-.567c-.03-.025-.061-.047-.091-.068a.459.459 0 0 0-.188-.08c-.482-.235-.978-.44-1.461-.64-.54-.222-1.1-.452-1.614-.72a48.695 48.695 0 0 0-1.649-.802 44.379 44.379 0 0 1-1.44-.695l-.013-.039a.434.434 0 0 0-.483-.277.429.429 0 0 0-.36.422c0 .78.06 1.177.117 1.56.052.372.104.721.108 1.442v.008Zm1.7-1.645c.536.251 1.088.511 1.619.784.548.286 1.126.524 1.683.75.235.094.47.192.705.294-.248.133-.496.273-.735.41-.505.29-.983.562-1.492.776-.514.217-1.062.405-1.597.58-.34.114-.691.23-1.035.357 0-.332.008-.57.013-.81.009-.375.017-.754.013-1.509 0-.78-.061-1.176-.117-1.56-.027-.179-.053-.354-.07-.567.34.166.683.328 1.013.482v.013Z"/>
  </g>
  <defs>
    <clipPath id="a">
      <path fill="#fff" d="M.838.25h28.228v21.115H.838z"/>
    </clipPath>
  </defs>
</svg>
