<svg xmlns="http://www.w3.org/2000/svg" width="32" height="32" fill="none">
  <path fill="currentColor" fill-rule="evenodd" d="m16.506 23.253.027-.01a1.147 1.147 0 0 0 .744-1.167 1.475 1.475 0 0 0-.231-.739 1.464 1.464 0 0 0-.59-.513c-.522-.257-1.02-.067-1.288.132-.26.194-.546.57-.52 1.078.014.303.104.52.16.646l.026.056a1 1 0 0 0 1.672.517Zm-.636-1.896c.003 0 .003 0 0 0Z" clip-rule="evenodd"/>
  <path fill="currentColor" d="M16.957 13.116a1 1 0 1 0-1.997.1c.04.814.002 1.635-.04 2.514l-.002.022c-.04.856-.084 1.77-.038 2.69a1 1 0 1 0 1.997-.1c-.04-.814-.002-1.636.04-2.516l.001-.023c.041-.856.085-1.768.04-2.687Z"/>
  <path fill="currentColor" fill-rule="evenodd" d="M16.601 5.784a1 1 0 0 0-1.835.56 7.055 7.055 0 0 1-.116.15l-.006.006c-.031.04-.069.087-.105.135-.069.09-.181.24-.264.417-.465.996-1.09 2.029-1.705 3.033-.818 1.335-1.547 2.714-2.254 4.07l-.256.493v.001c-.622 1.195-1.231 2.368-1.89 3.513l-.126.218c-.743 1.29-1.488 2.583-2.217 3.889-.153.274-.297.55-.434.81l-.017.032c-.144.275-.28.535-.423.79a3.532 3.532 0 0 1-.154.233l-.041.06c-.067.096-.147.212-.222.327a4.142 4.142 0 0 0-.281.494 2.038 2.038 0 0 0-.185.611 1 1 0 0 0 .98 1.366c.507-.025 1.006-.088 1.462-.144l.014-.002c.472-.06.9-.112 1.322-.133.471-.024.902-.029 1.353-.033a49.79 49.79 0 0 0 1.098-.02c.851-.028 1.707.006 2.606.042h.003c.888.035 1.818.072 2.755.04.53-.018 1.064-.004 1.631.012l.07.002c.537.016 1.105.032 1.676.018.223-.006.449.01.732.029h.008c.266.02.586.041.92.03.415-.013.838.01 1.313.035l.05.003c.48.025 1.012.052 1.55.025l1.854-.093c-.016.001-.008.002.051.006l.175.012c.164.013.384.029.604.036.211.007.472.008.708-.023.114-.015.276-.044.44-.11.139-.058.467-.217.637-.605a.996.996 0 0 0 .08-.499 1 1 0 0 0-.285-1.072 3.003 3.003 0 0 1-.08-.162 10.452 10.452 0 0 1-.086-.194v-.001l-.058-.13a5.057 5.057 0 0 0-.08-.173 1.934 1.934 0 0 0-.116-.206 6.864 6.864 0 0 1-.224-.374l-.073-.126a5.846 5.846 0 0 0-.426-.654c-.348-.454-.664-.939-.999-1.453v-.001a89.827 89.827 0 0 0-.311-.476c-.982-1.487-1.796-3.07-2.634-4.7-.28-.544-.561-1.092-.853-1.644-1.239-2.344-2.717-4.552-4.163-6.71-.395-.59-.788-1.176-1.173-1.76Zm9.188 19.01a8.34 8.34 0 0 0-.014-.03l.01.015-.006-.01a9.538 9.538 0 0 1-.296-.494l-.055-.094a3.894 3.894 0 0 0-.282-.436c-.399-.522-.772-1.094-1.114-1.62a74.335 74.335 0 0 0-.277-.425c-1.048-1.587-1.932-3.308-2.782-4.961-.27-.526-.537-1.045-.804-1.55-1.185-2.244-2.588-4.337-4.024-6.482l-.26-.39c-.488.976-1.079 1.946-1.61 2.813-.778 1.27-1.48 2.593-2.185 3.95l-.252.484-.003.005c-.619 1.192-1.25 2.406-1.932 3.59l-.125.216a339.71 339.71 0 0 0-2.205 3.87c-.14.249-.273.503-.413.771l-.011.022c-.13.248-.266.507-.41.767.326-.038.666-.072 1.01-.09.475-.023 1.005-.03 1.51-.037.346-.004.68-.008.977-.018.923-.03 1.839.007 2.715.042l.036.002c.9.035 1.756.068 2.608.04a27.89 27.89 0 0 1 1.757.011l.05.002c.552.015 1.071.03 1.587.017.322-.008.634.014.893.032l.03.002c.28.02.504.034.723.027.503-.017 1.005.01 1.457.034l.078.005c.488.026.923.046 1.343.025l1.854-.093c.092-.005.193.001.245.005l.191.013a3.35 3.35 0 0 0-.014-.03Z" clip-rule="evenodd"/>
</svg>
