<svg width="48" height="48" viewBox="0 0 48 48" fill="none" xmlns="http://www.w3.org/2000/svg">
<g clip-path="url(#clip0_2481_9383)">
<path d="M11.2138 15.6053C12.5099 15.6053 13.1616 15.6127 13.806 15.6201C14.4577 15.6201 15.1094 15.6349 16.4055 15.6349C16.8721 15.6349 17.2646 15.2276 17.2646 14.7388C17.2646 13.4427 17.2794 12.7984 17.2942 12.1541C17.309 11.5024 17.3238 10.8506 17.3238 9.54716C17.3238 9.13242 17.0128 8.80656 16.5684 8.74731C16.5166 8.7325 16.4647 8.72509 16.4129 8.72509C15.1168 8.72509 14.4725 8.71028 13.8282 8.69547C13.1764 8.68066 12.5247 8.66584 11.2213 8.66584C10.7547 8.66584 10.3547 9.06577 10.3547 9.54716C10.3547 10.8506 10.3622 11.5024 10.3696 12.1541C10.377 12.7984 10.3844 13.4501 10.3844 14.7388C10.3844 15.2276 10.7547 15.6053 11.2213 15.6053H11.2138ZM13.7912 9.95449C14.3836 9.96931 14.9761 9.98412 16.0574 9.98412C16.0574 10.9913 16.0426 11.5616 16.0352 12.1245C16.0204 12.7095 16.013 13.302 16.0056 14.3759C14.9761 14.3759 14.3984 14.3685 13.8208 14.3611C13.2431 14.3611 12.6654 14.3463 11.636 14.3463C11.636 13.302 11.6286 12.7244 11.6212 12.1393C11.6212 11.5542 11.6064 10.9765 11.6064 9.92487C12.6432 9.92487 13.2135 9.93968 13.7912 9.95449ZM18.8643 10.5396C18.8643 10.1915 19.1457 9.91006 19.4938 9.91006C20.0196 9.91006 20.2788 9.91006 20.538 9.91006C20.7973 9.91006 21.0639 9.91006 21.5897 9.91006H23.6856C24.2188 9.91006 24.4929 9.91746 24.7595 9.93228C25.0187 9.93968 25.2779 9.95449 25.7889 9.95449H27.8922C28.2403 9.95449 28.5218 10.2285 28.5218 10.5766C28.5218 10.9247 28.2403 11.2061 27.8922 11.2061H25.7889C25.2483 11.2061 24.9743 11.2061 24.7076 11.1913C24.4484 11.1765 24.1966 11.1691 23.6856 11.1691H21.5897C21.0713 11.1691 20.8121 11.1691 20.5529 11.1691C20.2862 11.1691 20.027 11.1691 19.4938 11.1691C19.1457 11.1691 18.8643 10.8877 18.8643 10.5396ZM18.8643 14.8277C18.8643 14.4796 19.1457 14.1982 19.4938 14.1982C20.027 14.1982 20.2936 14.1982 20.5603 14.213C20.8195 14.213 21.0713 14.2278 21.5897 14.2278C22.1081 14.2278 22.3525 14.213 22.6117 14.2056C22.8784 14.1907 23.1524 14.1833 23.6856 14.1833C24.2188 14.1833 24.4929 14.1982 24.7669 14.213C25.0187 14.2278 25.2779 14.2426 25.7889 14.2426C26.2999 14.2426 26.5518 14.2278 26.811 14.2204C27.085 14.2056 27.3516 14.1907 27.8922 14.1907C28.2403 14.1907 28.5218 14.4722 28.5218 14.8203C28.5218 15.1683 28.2403 15.4498 27.8922 15.4498C27.3812 15.4498 27.1294 15.4646 26.8702 15.472C26.5962 15.4868 26.3296 15.5016 25.7889 15.5016C25.2483 15.5016 24.9743 15.4868 24.7002 15.472C24.4484 15.4572 24.1892 15.4424 23.6856 15.4424C23.182 15.4424 22.9228 15.4572 22.6636 15.4646C22.397 15.4794 22.1229 15.4868 21.5897 15.4868C21.0565 15.4868 20.7973 15.4868 20.5306 15.472C20.2714 15.472 20.0122 15.4572 19.4938 15.4572C19.1457 15.4572 18.8643 15.1757 18.8643 14.8277ZM17.2646 28.1067C17.5386 28.1215 17.8126 28.1437 18.3607 28.1437C18.9087 28.1437 19.1605 28.1141 19.4345 28.0919C19.7308 28.0623 20.0344 28.0326 20.6343 28.0326H22.908C23.4931 28.0326 23.7819 28.0474 24.0781 28.0623C24.3596 28.0771 24.6336 28.0919 25.189 28.0919C25.7445 28.0919 26.0259 28.0771 26.2999 28.0697C26.5888 28.0548 26.885 28.04 27.4701 28.04C27.8182 28.04 28.0996 28.3215 28.0996 28.6695C28.0996 29.0176 27.8182 29.2991 27.4701 29.2991C26.9146 29.2991 26.6332 29.3139 26.3592 29.3213C26.0704 29.3361 25.7741 29.3509 25.189 29.3509C24.604 29.3509 24.3077 29.3361 24.0115 29.3213C23.7375 29.3065 23.456 29.2917 22.908 29.2917H20.6343C20.0937 29.2917 19.8345 29.3213 19.5605 29.3435C19.2642 29.3731 18.9606 29.4027 18.3607 29.4027C17.7608 29.4027 17.4794 29.3805 17.1831 29.3657C16.9091 29.3509 16.6351 29.3287 16.087 29.3287C15.4945 29.3287 15.1983 29.3065 14.9021 29.2842C14.628 29.262 14.3614 29.2472 13.8134 29.2472C13.2653 29.2472 13.0283 29.2842 12.7543 29.3213C12.4581 29.3657 12.147 29.4027 11.5323 29.4027C11.1842 29.4027 10.9028 29.1213 10.9028 28.7732C10.9028 28.4251 11.1842 28.1437 11.5323 28.1437C12.0581 28.1437 12.3099 28.1067 12.5766 28.0697C12.8802 28.0252 13.1913 27.9882 13.806 27.9882C14.4207 27.9882 14.6947 28.0104 14.9909 28.0326C15.265 28.0548 15.5316 28.0697 16.0796 28.0697C16.6721 28.0697 16.9609 28.0919 17.2572 28.1067H17.2646ZM14.9835 33.9649C14.6873 33.9797 14.3984 34.0019 13.8134 34.0019C13.2283 34.0019 12.9395 33.9945 12.6506 33.9797C12.3692 33.9723 12.0952 33.9575 11.5397 33.9575C11.1916 33.9575 10.9102 33.676 10.9102 33.3279C10.9102 32.9799 11.1916 32.6984 11.5397 32.6984C12.1174 32.6984 12.4062 32.7058 12.6951 32.7206C12.9765 32.7281 13.2579 32.7429 13.8134 32.7429C14.3688 32.7429 14.6354 32.7281 14.9095 32.7132C15.2057 32.6984 15.4945 32.6762 16.087 32.6762C16.6795 32.6762 16.9683 32.691 17.2646 32.7132C17.5386 32.7281 17.8126 32.7429 18.3607 32.7429C18.9458 32.7429 19.2346 32.7503 19.5234 32.7651C19.7974 32.7725 20.0789 32.7873 20.6343 32.7873C21.1602 32.7873 21.4194 32.7503 21.6934 32.7132C21.9896 32.6688 22.3007 32.6318 22.908 32.6318C23.5153 32.6318 23.7893 32.654 24.0855 32.6762C24.3596 32.6984 24.6336 32.7132 25.189 32.7132C25.7815 32.7132 26.0778 32.7355 26.3666 32.7503C26.6406 32.7651 26.9146 32.7873 27.4701 32.7873C27.8182 32.7873 28.0996 33.0687 28.0996 33.4168C28.0996 33.7649 27.8182 34.0463 27.4701 34.0463C26.8776 34.0463 26.5814 34.0241 26.2925 34.0093C26.0185 33.9945 25.7445 33.9723 25.189 33.9723C24.5966 33.9723 24.3003 33.9501 23.9967 33.9278C23.7226 33.9056 23.4486 33.8908 22.908 33.8908C22.3673 33.8908 22.1303 33.9278 21.8637 33.9649C21.5601 34.0093 21.249 34.0463 20.6343 34.0463C20.0196 34.0463 19.7604 34.0389 19.4716 34.0241C19.1976 34.0167 18.9161 34.0019 18.3607 34.0019C17.7682 34.0019 17.4794 33.9871 17.1831 33.9649C16.9091 33.9501 16.6351 33.9352 16.087 33.9352C15.539 33.9352 15.265 33.9501 14.9909 33.9649H14.9835ZM42.1266 36.046C42.1266 35.5053 42.1489 35.2313 42.1711 34.9647C42.1933 34.6684 42.2229 34.3648 42.2229 33.7575C42.2229 33.2317 42.2525 32.9725 42.2896 32.7058C42.3266 32.4022 42.3636 32.0911 42.3636 31.469C42.3636 30.8469 42.3192 30.5359 42.2822 30.2322C42.2451 29.9656 42.2155 29.7064 42.2155 29.1806C42.2155 28.6547 42.2377 28.3585 42.2525 28.0919C42.2748 27.7956 42.297 27.492 42.297 26.8921C42.297 26.2922 42.297 26.0256 42.2896 25.7368C42.2896 25.4553 42.2896 25.1739 42.2896 24.6036C42.2896 23.9889 42.2525 23.6779 42.2229 23.3816C42.1933 23.1076 42.1637 22.8484 42.1637 22.3152C42.1637 21.8264 42.2155 21.6042 42.2748 21.3376C42.3488 21.0339 42.4303 20.6858 42.4303 20.0267C42.4303 19.4712 42.4377 19.1898 42.4525 18.9084C42.4673 18.6196 42.4747 18.3233 42.4747 17.7382V15.4498C42.4747 14.8351 42.4451 14.524 42.4155 14.2204C42.3859 13.9463 42.3562 13.6871 42.3562 13.1613C42.3562 12.6355 42.371 12.3466 42.3933 12.0726C42.4155 11.7764 42.4303 11.4801 42.4303 10.8802C42.4303 10.2359 42.3636 9.89525 42.3044 9.5916C42.2525 9.32498 42.2081 9.08799 42.2081 8.59178C42.2081 7.74749 41.6453 7.52531 41.312 7.52531C40.7195 7.52531 40.4233 7.5105 40.127 7.49569C39.8086 7.48088 39.4975 7.45866 38.868 7.45866C38.2385 7.45866 37.9422 7.45866 37.6312 7.47347C37.3275 7.47347 37.0239 7.48088 36.424 7.48088C35.8241 7.48088 35.476 7.49569 35.165 7.51791C34.8687 7.53272 34.5725 7.54753 33.98 7.54753C33.5727 7.54753 33.2394 7.8808 33.2394 8.28814C33.2394 8.69547 33.5727 9.02874 33.98 9.02874C34.6095 9.02874 34.928 9.01393 35.239 8.99171C35.5353 8.9769 35.8315 8.96208 36.424 8.96208C37.0165 8.96208 37.3498 8.96208 37.6608 8.94727C37.9645 8.94727 38.2681 8.93987 38.868 8.93987C39.4679 8.93987 39.7567 8.95468 40.053 8.96949C40.2529 8.9843 40.4529 8.99171 40.7417 8.99911C40.7639 9.39163 40.8084 9.64344 40.8528 9.87303C40.9047 10.1396 40.9491 10.3766 40.9491 10.8802C40.9491 11.4283 40.9343 11.7023 40.9121 11.9763C40.8898 12.2726 40.875 12.5688 40.875 13.1613C40.875 13.7538 40.9121 14.0797 40.9417 14.3833C40.9713 14.6573 41.0009 14.9165 41.0009 15.4498V17.7382C41.0009 18.2937 40.9861 18.5751 40.9713 18.8565C40.9565 19.1454 40.9491 19.4416 40.9491 20.0267C40.9491 20.5155 40.8972 20.7377 40.838 21.0043C40.7639 21.3079 40.6825 21.656 40.6825 22.3152C40.6825 22.9299 40.7195 23.2409 40.7491 23.5372C40.7787 23.8112 40.8084 24.0704 40.8084 24.6036C40.8084 25.1813 40.8084 25.4701 40.8158 25.759C40.8158 26.0404 40.8158 26.3218 40.8158 26.8921C40.8158 27.4624 40.7936 27.7142 40.7787 27.9808C40.7565 28.277 40.7343 28.5807 40.7343 29.1806C40.7343 29.7805 40.7787 30.1137 40.8158 30.4174C40.8528 30.684 40.8824 30.9432 40.8824 31.469C40.8824 31.9949 40.8528 32.2541 40.8158 32.5207C40.7787 32.8243 40.7417 33.1354 40.7417 33.7575C40.7417 34.2981 40.7195 34.5722 40.6973 34.8388C40.6751 35.135 40.6454 35.4387 40.6454 36.046C40.6454 36.7273 40.7565 37.0902 40.8528 37.4087C40.9343 37.6679 40.9935 37.8753 40.9935 38.3344C40.9935 38.8454 40.9565 39.0898 40.9121 39.3639C40.8676 39.6601 40.8158 40.0008 40.8158 40.6303C40.8158 41.1561 40.7787 41.4079 40.7417 41.682C40.7121 41.9041 40.6825 42.1411 40.6677 42.5114H38.9569C38.4162 42.5114 38.1496 42.4818 37.8682 42.4522C37.5571 42.4151 37.2387 42.3781 36.6091 42.3781C35.9796 42.3781 35.6612 42.4077 35.3575 42.4374C35.0761 42.467 34.8095 42.4966 34.2614 42.4966C33.7134 42.4966 33.4171 42.4818 33.1357 42.4596C32.8321 42.4374 32.521 42.4226 31.9137 42.4226C31.3435 42.4226 31.0546 42.4151 30.7658 42.4003C30.4621 42.3855 30.1659 42.3781 29.566 42.3781C29.018 42.3781 28.7439 42.3559 28.4625 42.3263C28.1589 42.2967 27.8404 42.2744 27.2183 42.2744C26.5962 42.2744 26.2407 42.3189 25.937 42.3633C25.663 42.4003 25.4038 42.4374 24.8706 42.4374C24.3077 42.4374 24.0189 42.4226 23.7375 42.4077C23.4338 42.3929 23.1302 42.3707 22.5229 42.3707C21.9156 42.3707 21.5675 42.4077 21.2564 42.4522C20.975 42.4892 20.7158 42.5188 20.1752 42.5188C19.6345 42.5188 19.3531 42.4966 19.0642 42.467C18.7606 42.4374 18.4421 42.4151 17.82 42.4151C17.2572 42.4151 16.9757 42.3929 16.7017 42.3707C16.4573 42.3559 16.2203 42.3337 15.8278 42.3263C15.85 42.23 15.8722 42.1411 15.8945 42.0448C15.9685 41.756 16.0574 41.4227 16.0574 40.7932C16.0574 40.2304 16.0352 39.9489 16.013 39.6675C15.9981 39.4527 15.9759 39.238 15.9759 38.8677C16.0352 38.8677 16.0796 38.8677 16.1463 38.8677C16.6943 38.8677 16.9683 38.8751 17.2424 38.8899C17.5312 38.8973 17.82 38.9121 18.3977 38.9121C18.9754 38.9121 19.3086 38.8751 19.6049 38.8454C19.8715 38.8158 20.1233 38.7862 20.6491 38.7862C21.1972 38.7862 21.4786 38.7936 21.7526 38.801C22.0415 38.8084 22.3303 38.8232 22.9006 38.8232C23.4708 38.8232 23.7745 38.8084 24.0633 38.7936C24.3373 38.7788 24.604 38.764 25.152 38.764C25.663 38.764 25.9148 38.801 26.174 38.838C26.4629 38.8751 26.7887 38.9195 27.4034 38.9195C28.0181 38.9195 28.307 38.8899 28.5958 38.8677C28.8698 38.8454 29.1216 38.8158 29.6549 38.8158C30.1881 38.8158 30.4547 38.838 30.7213 38.8603C31.0176 38.8825 31.3138 38.9047 31.9063 38.9047H31.9359C32.2618 38.9047 32.4618 38.7492 32.5506 38.6529C32.795 38.4011 32.7802 38.09 32.7802 37.9345C32.7802 37.8604 32.7802 37.8086 32.7802 37.7419C32.8024 37.7419 32.8247 37.7568 32.8469 37.7568C33.5579 37.7568 33.9208 37.7493 34.2762 37.7345C34.6243 37.7271 34.9724 37.7123 35.676 37.7123C36.3796 37.7123 36.7276 37.7123 37.0757 37.7271C37.4312 37.7345 37.7867 37.7419 38.5051 37.7419C38.8087 37.7419 39.0605 37.4901 39.0605 37.1865C39.0605 36.8828 38.8087 36.631 38.5051 36.631C37.8015 36.631 37.4534 36.631 37.1054 36.6162C36.7499 36.6088 36.3944 36.6014 35.676 36.6014C34.9576 36.6014 34.6021 36.6088 34.2466 36.6236C33.8985 36.631 33.5505 36.6459 32.8617 36.6459C32.8913 36.3866 32.9135 36.083 32.9135 35.5868C32.9135 34.9795 32.8987 34.6684 32.8765 34.3648C32.8617 34.0834 32.8469 33.8019 32.8469 33.2465C33.5579 33.2465 33.9133 33.2465 34.2688 33.2317C34.6169 33.2317 34.9724 33.2243 35.676 33.2243H38.5051C38.8087 33.2243 39.0605 32.9725 39.0605 32.6688C39.0605 32.3652 38.8087 32.1134 38.5051 32.1134H35.676C34.965 32.1134 34.6095 32.1134 34.254 32.1282C33.9059 32.1282 33.5505 32.1356 32.8469 32.1356C32.8321 32.1356 32.8247 32.1356 32.8099 32.143C32.8099 32.0985 32.8099 32.0541 32.8024 32.0097C32.7802 31.7282 32.758 31.4542 32.758 30.8988C32.758 30.3433 32.795 30.1063 32.8321 29.8397C32.8765 29.5435 32.9283 29.2028 32.9283 28.5659C32.9283 28.477 32.9283 28.4029 32.9283 28.3215C33.5727 28.3215 33.9134 28.3215 34.2466 28.3363C34.6021 28.3437 34.9576 28.3511 35.676 28.3511H38.5051C38.8087 28.3511 39.0605 28.0993 39.0605 27.7956C39.0605 27.492 38.8087 27.2402 38.5051 27.2402H35.676C34.9724 27.2402 34.6243 27.2402 34.2762 27.2254C33.943 27.218 33.6023 27.2106 32.9802 27.2106C32.995 26.9662 33.0024 26.6847 33.0024 26.2256C33.0024 25.6405 33.0024 25.3516 33.0024 25.0628C33.0024 24.7666 33.0024 24.4777 33.0024 23.8852C33.0024 23.7075 33.0024 23.5594 33.0024 23.4261H35.6686C36.3796 23.4261 36.7351 23.4261 37.0905 23.4261C37.446 23.4261 37.7941 23.4187 38.4977 23.4187C38.8013 23.4187 39.0531 23.1669 39.0531 22.8632C39.0531 22.5596 38.8013 22.3078 38.4977 22.3078C37.7867 22.3078 37.4312 22.3078 37.0757 22.3152C36.7276 22.3152 36.3722 22.3226 35.6686 22.3226H33.0468C33.0468 22.1152 33.0542 21.8782 33.0542 21.5449C33.0542 20.9599 33.0542 20.671 33.0542 20.3822C33.0542 20.086 33.0542 19.7971 33.0542 19.2046C33.0542 19.1158 33.0542 19.0417 33.0542 18.9676C33.6097 18.9676 33.943 18.9676 34.254 18.9602C34.6095 18.9602 34.9576 18.9602 35.6612 18.9602C36.3647 18.9602 36.7276 18.9602 37.0831 18.9602C37.4386 18.9602 37.7867 18.9602 38.4903 18.9602C38.7939 18.9602 39.0457 18.7084 39.0457 18.4048C39.0457 18.1011 38.7939 17.8493 38.4903 17.8493C37.7793 17.8493 37.4238 17.8493 37.0683 17.8493C36.7128 17.8493 36.3647 17.8493 35.6612 17.8493C34.9576 17.8493 34.5947 17.8493 34.2392 17.8567C33.9208 17.8567 33.5801 17.8567 32.995 17.8567C32.9728 17.6123 32.958 17.3457 32.958 16.8643C32.958 16.2126 32.8987 15.8719 32.8469 15.5683C32.8024 15.2868 32.758 15.0424 32.758 14.524C32.758 14.3759 32.758 14.25 32.7654 14.1389C32.7876 14.1389 32.8099 14.1537 32.8321 14.1537C33.5356 14.1537 33.8837 14.1537 34.2318 14.1685C34.5873 14.1759 34.9428 14.1833 35.6612 14.1833C36.3796 14.1833 36.7276 14.1833 37.0905 14.1685C37.4386 14.1685 37.7941 14.1537 38.4903 14.1537C38.7939 14.1537 39.0457 13.9019 39.0457 13.5983C39.0457 13.2946 38.7939 13.0428 38.4903 13.0428C37.7793 13.0428 37.4238 13.0428 37.0609 13.0576C36.7128 13.0576 36.3573 13.0724 35.6612 13.0724C34.965 13.0724 34.6095 13.0724 34.2614 13.0576C33.9134 13.0502 33.5653 13.0428 32.8987 13.0428C32.9209 12.8206 32.9432 12.554 32.9432 12.1837C32.9432 11.6283 32.9654 11.3468 32.9802 11.0654C33.0024 10.7618 33.0246 10.4581 33.0246 9.8434C33.0246 9.19167 32.9654 8.85099 32.9135 8.54735C32.8691 8.26592 32.8247 8.02152 32.8247 7.5031C32.8247 6.93283 32.8395 6.6514 32.8469 6.36257C32.8617 6.05892 32.8765 5.76268 32.8765 5.16279C32.8765 4.59993 32.4544 4.16297 31.9137 4.16297C31.3731 4.16297 31.0842 4.16297 30.8028 4.14816C30.514 4.14075 30.2326 4.13335 29.6549 4.13335C29.0772 4.13335 28.7736 4.14816 28.4773 4.17038C28.2033 4.18519 27.9367 4.2 27.396 4.2C26.811 4.2 26.5221 4.21482 26.2259 4.23703C25.9519 4.25185 25.6852 4.26666 25.1446 4.26666C24.641 4.26666 24.4114 4.22963 24.1374 4.18519C23.8485 4.13335 23.5153 4.08151 22.8932 4.08151C22.2711 4.08151 21.96 4.12594 21.6712 4.16297C21.4046 4.2 21.1528 4.22963 20.6417 4.22963C20.1011 4.22963 19.8271 4.21482 19.5605 4.2C19.2642 4.18519 18.9754 4.16297 18.3903 4.16297C17.8052 4.16297 17.4794 4.2 17.1757 4.23703C16.9091 4.26666 16.6573 4.29628 16.1389 4.29628C15.6723 4.29628 15.4575 4.24444 15.1983 4.17779C14.8946 4.09632 14.5466 4.00745 13.8874 4.00745C13.2875 4.00745 12.9765 4.03707 12.6877 4.0741C12.421 4.10372 12.1618 4.12594 11.636 4.12594C11.0731 4.12594 10.7991 4.12594 10.5177 4.12594C10.2363 4.12594 9.95482 4.12594 9.38456 4.12594C8.76986 4.12594 8.4514 4.17038 8.16256 4.20741C7.89595 4.24444 7.64414 4.27406 7.13312 4.27406C6.06665 4.25925 6.03703 5.06651 6.03703 5.15538C6.03703 5.73305 6.02962 6.02189 6.02222 6.30332C6.01481 6.59956 6 6.90321 6 7.5031C6 8.17704 6.08147 8.53253 6.15553 8.85099C6.21478 9.11761 6.27402 9.3546 6.27402 9.85081C6.27402 10.347 6.22959 10.5988 6.17034 10.8802C6.11109 11.1913 6.04444 11.532 6.04444 12.1911V14.5314C6.04444 15.1609 6.08147 15.4868 6.1259 15.7979C6.16293 16.0719 6.19256 16.3385 6.19256 16.8717C6.19256 17.405 6.15553 17.6642 6.1185 17.9382C6.07406 18.2344 6.02222 18.5751 6.02222 19.212C6.02222 19.849 6.06665 20.1674 6.10368 20.4785C6.14071 20.7525 6.17774 21.0117 6.17774 21.5523C6.17774 22.093 6.14812 22.3522 6.11109 22.6336C6.07406 22.9447 6.03703 23.2631 6.03703 23.8927C6.03703 24.4851 6.03703 24.774 6.04444 25.0702C6.04444 25.359 6.04444 25.6479 6.04444 26.233C6.04444 26.818 6.03703 27.0921 6.02222 27.3735C6.00741 27.6697 6 27.9734 6 28.5733C6 29.1732 6.03703 29.5138 6.06665 29.8249C6.09628 30.1063 6.1259 30.3729 6.1259 30.9136C6.1259 31.4542 6.11109 31.7579 6.08887 32.0393C6.06665 32.3429 6.05184 32.6466 6.05184 33.2539C6.05184 33.8982 6.10368 34.2389 6.15553 34.5425C6.19996 34.824 6.23699 35.0684 6.23699 35.5942C6.23699 36.12 6.19256 36.357 6.14812 36.6384C6.09628 36.9421 6.02962 37.2902 6.02962 37.9345C6.02962 38.4307 6.51102 39.0306 7.1035 39.0306C7.69598 39.0306 8.02185 38.9936 8.31809 38.9565C8.58471 38.9269 8.83651 38.8973 9.36234 38.8973C9.88817 38.8973 10.1696 38.9195 10.4436 38.9343C10.7399 38.9565 11.0361 38.9788 11.6212 38.9788C12.2063 38.9788 12.4951 38.9639 12.7913 38.9417C13.0654 38.9269 13.332 38.9121 13.8726 38.9121C14.1244 38.9121 14.3096 38.9121 14.4725 38.9121C14.4725 39.3194 14.4947 39.5638 14.5169 39.8008C14.5392 40.0526 14.5614 40.297 14.5614 40.8006C14.5614 41.2376 14.5095 41.4376 14.4503 41.682C14.3762 41.9708 14.2874 42.3041 14.2874 42.9262C14.2874 43.1335 14.3688 43.8149 15.4575 43.8149C16.0204 43.8149 16.3018 43.8371 16.5758 43.8593C16.8869 43.8815 17.1905 43.9038 17.8126 43.9038C18.3681 43.9038 18.6421 43.926 18.9309 43.9556C19.2346 43.9852 19.553 44.0075 20.1677 44.0075C20.7824 44.0075 21.1231 43.9704 21.4342 43.926C21.7156 43.889 21.9748 43.8593 22.5155 43.8593C23.0561 43.8593 23.3672 43.8741 23.6486 43.889C23.9522 43.9038 24.2559 43.926 24.8632 43.926C25.4705 43.926 25.8334 43.8815 26.137 43.8371C26.411 43.8001 26.6777 43.7631 27.2109 43.7631C27.7441 43.7631 28.0404 43.7853 28.3218 43.8149C28.6254 43.8445 28.9365 43.8667 29.5586 43.8667C30.1289 43.8667 30.4177 43.8741 30.7065 43.889C31.0102 43.9038 31.3064 43.9112 31.9063 43.9112C32.4692 43.9112 32.7506 43.926 33.032 43.9482C33.3357 43.9704 33.6467 43.9852 34.254 43.9852C34.8613 43.9852 35.1946 43.9556 35.4982 43.926C35.7797 43.8964 36.0463 43.8667 36.6017 43.8667C37.1572 43.8667 37.4164 43.8964 37.6978 43.926C38.0089 43.963 38.3274 44 38.9495 44H41.2972C41.5342 44 41.7489 43.9112 41.9045 43.7408C42.1637 43.4668 42.1415 43.1335 42.1341 42.9336C42.1341 42.4077 42.1711 42.1559 42.2081 41.8819C42.2451 41.5931 42.2896 41.2598 42.2896 40.6377C42.2896 40.1193 42.3266 39.8749 42.371 39.6009C42.4155 39.3046 42.4673 38.9713 42.4673 38.3418C42.4673 37.6605 42.3562 37.305 42.26 36.9865C42.1785 36.7273 42.1192 36.5199 42.1192 36.0534L42.1266 36.046ZM12.7099 37.4679C12.4358 37.4827 12.1692 37.4975 11.6286 37.4975C11.0879 37.4975 10.8287 37.4753 10.5547 37.4605C10.2585 37.4383 9.96223 37.4161 9.36975 37.4161C8.77726 37.4161 8.4514 37.4531 8.15516 37.4901C7.97001 37.5124 7.79226 37.5346 7.53305 37.542C7.54786 37.268 7.57749 37.0902 7.61452 36.8977C7.66636 36.594 7.73301 36.2459 7.73301 35.6016C7.73301 34.9573 7.68117 34.6166 7.62933 34.3129C7.58489 34.0315 7.54786 33.7871 7.54786 33.2613C7.54786 32.6984 7.56267 32.417 7.58489 32.1356C7.60711 31.8319 7.62192 31.5283 7.62192 30.921C7.62192 30.3137 7.58489 29.9804 7.55527 29.6694C7.52564 29.3879 7.49602 29.1213 7.49602 28.5807C7.49602 28.04 7.50343 27.7216 7.51824 27.4401C7.53305 27.1439 7.54046 26.8403 7.54046 26.2404C7.54046 25.6405 7.54046 25.359 7.53305 25.0628C7.53305 24.774 7.53305 24.4851 7.53305 23.9001C7.53305 23.3594 7.56267 23.1002 7.5997 22.8188C7.63673 22.5077 7.67376 22.1893 7.67376 21.5598C7.67376 20.9302 7.62933 20.6044 7.5923 20.2933C7.55527 20.0193 7.51824 19.7601 7.51824 19.2194C7.51824 18.6788 7.55527 18.427 7.5923 18.153C7.63673 17.8567 7.68858 17.5161 7.68858 16.8791C7.68858 16.2422 7.65155 15.9238 7.60711 15.6127C7.57008 15.3387 7.54046 15.0721 7.54046 14.5388V12.1985C7.54046 11.6875 7.58489 11.4505 7.64414 11.1691C7.70339 10.858 7.77004 10.5174 7.77004 9.85821C7.77004 9.19908 7.68858 8.83618 7.61452 8.51772C7.54786 8.2437 7.49602 8.01411 7.49602 7.5105C7.49602 6.93283 7.50343 6.644 7.51083 6.36257C7.51083 6.17741 7.52564 5.99226 7.52564 5.74046C7.89595 5.72565 8.14034 5.69602 8.35512 5.6664C8.62174 5.62937 8.87354 5.59974 9.38456 5.59974C9.94742 5.59974 10.2214 5.59974 10.5029 5.59974C10.7843 5.59974 11.0657 5.59974 11.636 5.59974C12.2359 5.59974 12.5469 5.57012 12.8358 5.53309C13.1024 5.50347 13.3616 5.48125 13.8874 5.48125C14.354 5.48125 14.5688 5.53309 14.828 5.59974C15.1316 5.68121 15.4797 5.77008 16.1389 5.77008C16.7462 5.77008 17.0498 5.73305 17.3535 5.69602C17.6201 5.6664 17.8719 5.63677 18.3903 5.63677C18.9087 5.63677 19.205 5.65159 19.4716 5.6664C19.7678 5.68121 20.0567 5.70343 20.6417 5.70343C21.2268 5.70343 21.5749 5.65899 21.8637 5.62196C22.1303 5.58493 22.3822 5.55531 22.8932 5.55531C23.4042 5.55531 23.6264 5.59234 23.9004 5.63677C24.1892 5.68862 24.5225 5.74046 25.1446 5.74046C25.7297 5.74046 26.0185 5.72565 26.3148 5.70343C26.5888 5.68862 26.8554 5.6738 27.396 5.6738C27.9811 5.6738 28.27 5.65899 28.5662 5.63677C28.8402 5.62196 29.1142 5.60715 29.6549 5.60715C30.1955 5.60715 30.4844 5.60715 30.7658 5.62196C30.9509 5.62196 31.1361 5.62937 31.3953 5.63677C31.3953 5.9108 31.3805 6.10335 31.3731 6.29591C31.3583 6.59956 31.3435 6.8958 31.3435 7.49569C31.3435 8.14742 31.4027 8.4881 31.4545 8.79175C31.499 9.07317 31.5434 9.31757 31.5434 9.836C31.5434 10.3914 31.5212 10.6729 31.5064 10.9543C31.4842 11.258 31.462 11.5616 31.462 12.1763C31.462 12.7021 31.4249 12.9539 31.3805 13.2354C31.3361 13.539 31.2842 13.8797 31.2842 14.5166C31.2842 15.1535 31.3435 15.509 31.3953 15.8127C31.4397 16.0941 31.4842 16.3385 31.4842 16.8569C31.4842 17.4716 31.5064 17.7827 31.536 18.0863C31.5582 18.3678 31.5805 18.6418 31.5805 19.1972C31.5805 19.7823 31.5805 20.0711 31.5805 20.36C31.5805 20.6562 31.5805 20.9451 31.5805 21.5375C31.5805 22.13 31.5656 22.3892 31.5582 22.6781C31.5434 22.9817 31.5286 23.278 31.5286 23.8778C31.5286 24.4777 31.5286 24.7518 31.5286 25.0406C31.5286 25.3368 31.5286 25.6257 31.5286 26.2181C31.5286 26.8106 31.5138 27.0624 31.4916 27.3439C31.4694 27.6475 31.4545 27.9512 31.4545 28.5585C31.4545 29.0917 31.4175 29.3509 31.3805 29.6249C31.3361 29.9212 31.2842 30.2618 31.2842 30.8988C31.2842 31.5357 31.3064 31.8171 31.3286 32.1282C31.3509 32.4096 31.3731 32.6836 31.3731 33.2391C31.3731 33.8464 31.3879 34.15 31.4101 34.4537C31.4249 34.7351 31.4397 35.0239 31.4397 35.5868C31.4397 36.1496 31.4101 36.394 31.3805 36.6755C31.3583 36.8828 31.3286 37.0976 31.3212 37.4087C31.1361 37.4013 30.9954 37.3865 30.8473 37.379C30.551 37.3568 30.2548 37.3346 29.6623 37.3346C29.0698 37.3346 28.7587 37.3642 28.4699 37.3865C28.1959 37.4087 27.9441 37.4383 27.4109 37.4383C26.8776 37.4383 26.648 37.4013 26.3888 37.3642C26.1 37.3272 25.7741 37.2828 25.1594 37.2828C24.5447 37.2828 24.2855 37.2976 23.9967 37.3124C23.7226 37.3272 23.456 37.342 22.908 37.342C22.3599 37.342 22.0785 37.3346 21.8045 37.3272C21.5156 37.3198 21.2268 37.305 20.6565 37.305C20.0493 37.305 19.7456 37.342 19.4494 37.3716C19.1827 37.4013 18.9309 37.4309 18.4051 37.4309C17.8571 37.4309 17.583 37.4235 17.309 37.4087C17.0202 37.4013 16.7313 37.3865 16.1537 37.3865C15.576 37.3865 15.2872 37.4013 14.9983 37.4087C14.7243 37.4161 14.4503 37.4309 13.9022 37.4309C13.3172 37.4309 13.0283 37.4457 12.7321 37.4679H12.7099ZM28.5884 19.7453C28.5884 20.0934 28.307 20.3748 27.9589 20.3748H25.8556C25.3149 20.3748 25.0409 20.3748 24.7743 20.36C24.5151 20.3526 24.2633 20.3378 23.7523 20.3378H19.5605C19.2124 20.3378 18.9309 20.0637 18.9309 19.7156C18.9309 19.3676 19.2124 19.0861 19.5605 19.0861H23.7523C24.2855 19.0861 24.5521 19.0861 24.8261 19.1009C25.0854 19.1084 25.3446 19.1232 25.8556 19.1232H27.9589C28.307 19.1232 28.5884 19.3972 28.5884 19.7453ZM28.5884 23.8927C28.5884 24.2407 28.307 24.5222 27.9589 24.5222C27.4479 24.5222 27.1961 24.537 26.9369 24.5444C26.6628 24.5592 26.3962 24.574 25.8556 24.574C25.3149 24.574 25.0409 24.5592 24.7669 24.5444C24.5151 24.5296 24.2559 24.5148 23.7523 24.5148C23.2487 24.5148 22.9894 24.5296 22.7302 24.537C22.4636 24.5518 22.1896 24.5592 21.6564 24.5592C21.1231 24.5592 20.8639 24.5592 20.5973 24.5444C20.3381 24.5444 20.0789 24.5296 19.5605 24.5296C19.2124 24.5296 18.9309 24.2481 18.9309 23.9001C18.9309 23.552 19.2124 23.2705 19.5605 23.2705C20.0937 23.2705 20.3603 23.2705 20.6269 23.2854C20.8861 23.2854 21.1379 23.3002 21.6564 23.3002C22.1748 23.3002 22.4192 23.2854 22.6784 23.278C22.945 23.2631 23.219 23.2557 23.7523 23.2557C24.2855 23.2557 24.5595 23.2705 24.8335 23.2854C25.0854 23.3002 25.3446 23.315 25.8556 23.315C26.3666 23.315 26.6184 23.3002 26.8776 23.2928C27.1516 23.278 27.4183 23.2631 27.9589 23.2631C28.307 23.2631 28.5884 23.5446 28.5884 23.8927ZM13.88 25.285C14.5243 25.285 15.1761 25.2776 16.4647 25.2776C16.9535 25.2776 17.3312 24.9073 17.3312 24.4333C17.3312 23.1298 17.3164 22.4707 17.309 21.819C17.2942 21.1746 17.2868 20.5303 17.2868 19.2417C17.2868 18.7381 16.9239 18.3455 16.4647 18.3455C15.1687 18.3455 14.5169 18.3455 13.8652 18.3381C13.2135 18.3381 12.5692 18.3381 11.2731 18.3381C10.8065 18.3381 10.4066 18.7529 10.4066 19.2491C10.4066 20.5451 10.4066 21.1969 10.4066 21.8486C10.4066 22.5003 10.3992 23.1446 10.3992 24.4407C10.3992 24.9073 10.7991 25.3072 11.2805 25.3072C12.584 25.3072 13.2357 25.3072 13.8874 25.2998L13.88 25.285ZM11.6582 21.8412C11.6582 21.2487 11.6582 20.6636 11.6656 19.5823C12.7025 19.5823 13.2801 19.5823 13.8578 19.5823C14.4281 19.5823 15.0057 19.5823 16.0278 19.5823C16.0278 20.6488 16.0426 21.2339 16.05 21.819C16.0574 22.3966 16.0722 22.9669 16.0722 23.9963C15.028 23.9963 14.4503 23.9963 13.8652 24.0037C13.2801 24.0037 12.7025 24.0112 11.6508 24.0112C11.6508 22.9743 11.6508 22.3966 11.6508 21.819L11.6582 21.8412Z" fill="#222222"/>
</g>
<defs>
<clipPath id="clip0_2481_9383">
<rect width="36.4747" height="40" fill="white" transform="translate(6 4)"/>
</clipPath>
</defs>
</svg>
