<svg fill="none" height="48" width="48" xmlns="http://www.w3.org/2000/svg"><g clip-path="url(#a)"><path d="m11.214 15.605 2.592.015 2.6.015c.466 0 .859-.408.859-.896l.03-2.585.029-2.607c0-.415-.311-.74-.756-.8a.564.564 0 0 0-.155-.022 96.35 96.35 0 0 1-2.585-.03l-2.607-.03c-.466 0-.866.4-.866.882l.015 2.607.014 2.585c0 .488.37.866.837.866h-.007zm2.577-5.65 2.266.029-.022 2.14a119.01 119.01 0 0 0-.03 2.252c-1.029 0-1.607-.008-2.184-.015-.578 0-1.156-.015-2.185-.015l-.015-2.207-.015-2.214 2.185.03zm5.073.584a.63.63 0 0 1 .63-.63h4.192l1.073.023 1.03.022h2.103c.348 0 .63.274.63.622a.63.63 0 0 1-.63.63H25.79c-.54 0-.815 0-1.081-.015l-1.022-.022h-4.193a.629.629 0 0 1-.629-.63zm0 4.289a.63.63 0 0 1 .63-.63l1.066.015 1.03.015 1.022-.023 1.074-.022 1.08.03 1.023.03 1.022-.023 1.081-.03a.63.63 0 1 1 0 1.26l-1.022.022-1.081.03c-.54 0-.815-.015-1.089-.03l-1.014-.03-1.022.022-1.074.023c-.534 0-.793 0-1.06-.015-.259 0-.518-.015-1.036-.015a.629.629 0 0 1-.63-.63zm-1.6 13.279 1.097.037 1.073-.052c.297-.03.6-.06 1.2-.06h2.274l1.17.03 1.111.03 1.11-.022 1.171-.03a.629.629 0 1 1 0 1.259l-1.11.022-1.171.03c-.585 0-.881-.015-1.177-.03l-1.104-.03h-2.274l-1.073.052c-.297.03-.6.06-1.2.06s-.882-.023-1.178-.037l-1.096-.037c-.592 0-.889-.023-1.185-.045l-1.089-.037c-.548 0-.785.037-1.059.074a7.366 7.366 0 0 1-1.222.082.629.629 0 1 1 0-1.26c.526 0 .778-.036 1.045-.073a7.542 7.542 0 0 1 1.229-.082l1.185.044 1.089.038 1.177.037h.008zm-2.28 5.858-1.17.037c-.586 0-.874-.008-1.163-.022l-1.111-.023a.629.629 0 1 1 0-1.259l1.155.023 1.118.022 1.096-.03 1.178-.037 1.178.037 1.096.03 1.162.022 1.111.022c.526 0 .785-.037 1.06-.074a7.328 7.328 0 0 1 1.214-.081l1.177.044 1.104.037 1.178.037 1.103.037a.629.629 0 1 1 0 1.26c-.592 0-.889-.023-1.177-.038l-1.104-.037c-.592 0-.889-.022-1.192-.044a12.245 12.245 0 0 0-1.089-.037c-.54 0-.778.037-1.044.074a7.528 7.528 0 0 1-1.23.081c-.614 0-.874-.007-1.162-.022l-1.111-.022c-.593 0-.882-.015-1.178-.037l-1.096-.03-1.096.03h-.008zm27.143 2.08.044-1.08.052-1.208c0-.526.03-.785.067-1.051a8.83 8.83 0 0 0 .074-1.237c0-.622-.045-.933-.082-1.237a6.707 6.707 0 0 1-.066-1.052l.036-1.088.045-1.2-.007-1.155v-1.133c0-.615-.038-.926-.067-1.223-.03-.273-.06-.533-.06-1.066 0-.489.053-.71.112-.978a4.86 4.86 0 0 0 .155-1.31l.023-1.119.022-1.17V15.45l-.06-1.23c-.03-.274-.059-.533-.059-1.059l.037-1.088.037-1.193a5.82 5.82 0 0 0-.126-1.289 4.452 4.452 0 0 1-.096-1c0-.844-.563-1.066-.896-1.066a20.08 20.08 0 0 1-1.185-.03l-1.259-.036-1.237.014-1.207.008-1.259.037-1.185.03a.743.743 0 0 0-.74.74c0 .407.333.74.74.74l1.259-.036 1.185-.03 1.237-.015 1.207-.007 1.185.03.689.029c.022.393.066.644.11.874a4.41 4.41 0 0 1 .097 1.007l-.037 1.096-.037 1.185c0 .593.037.918.067 1.222.03.274.059.533.059 1.067v2.288l-.03 1.118-.022 1.17c0 .49-.052.712-.111.978a4.861 4.861 0 0 0-.156 1.311c0 .615.037.926.067 1.222.03.274.06.533.06 1.067l.007 1.155v1.133l-.037 1.089-.045 1.2c0 .6.045.933.082 1.236.037.267.066.526.066 1.052s-.03.785-.066 1.052a8.803 8.803 0 0 0-.074 1.236l-.045 1.082-.052 1.207c0 .681.111 1.044.208 1.363.081.259.14.466.14.925 0 .511-.037.756-.08 1.03-.045.296-.097.637-.097 1.266 0 .526-.037.778-.074 1.052l-.074.83h-1.711c-.54 0-.807-.03-1.089-.06a9.188 9.188 0 0 0-1.259-.074l-1.252.06c-.28.029-.547.058-1.096.058s-.844-.014-1.125-.037a15.274 15.274 0 0 0-1.222-.037c-.57 0-.86-.007-1.148-.022l-1.2-.022c-.548 0-.822-.022-1.104-.052-.303-.03-.622-.052-1.244-.052a7.92 7.92 0 0 0-1.281.09c-.274.036-.533.073-1.066.073a18.41 18.41 0 0 1-1.133-.03l-1.215-.036c-.607 0-.956.037-1.267.081-.281.037-.54.067-1.08.067a9.71 9.71 0 0 1-1.112-.052c-.303-.03-.622-.052-1.244-.052-.563 0-.844-.022-1.118-.044l-.874-.045.067-.281c.074-.29.162-.622.162-1.252l-.044-1.126-.037-.8h.17l1.096.023 1.156.022c.577 0 .91-.037 1.207-.067.267-.03.518-.059 1.044-.059l1.104.015 1.148.022 1.162-.03 1.089-.03c.511 0 .763.038 1.022.075.289.037.615.081 1.23.081l1.192-.051c.274-.023.526-.052 1.059-.052l1.066.044 1.185.045h.03a.824.824 0 0 0 .615-.252c.244-.252.23-.563.23-.719v-.192c.021 0 .044.015.066.015l1.43-.023 1.399-.022 1.4.015 1.43.015a.56.56 0 0 0 .554-.556.56.56 0 0 0-.555-.555c-.704 0-1.052 0-1.4-.015a58.84 58.84 0 0 0-2.858.008l-1.385.022c.03-.26.051-.563.051-1.06l-.036-1.221-.03-1.119 1.422-.015 1.407-.007h2.83a.56.56 0 0 0 .554-.555.56.56 0 0 0-.555-.556h-2.829l-1.422.015-1.407.008c-.015 0-.022 0-.037.007 0-.045 0-.089-.008-.133l-.044-1.111c0-.556.037-.793.074-1.06.044-.296.096-.636.096-1.273v-.245l1.319.015 1.429.015h2.83a.56.56 0 0 0 .554-.555.56.56 0 0 0-.555-.556h-2.829c-.704 0-1.052 0-1.4-.015a50.88 50.88 0 0 0-1.296-.015l.022-.985v-2.799h4.089l1.407-.007a.56.56 0 0 0 .555-.556.56.56 0 0 0-.555-.555l-1.422.007-1.407.008h-2.622l.007-.778v-2.577l1.2-.008h4.236a.56.56 0 0 0 .556-.555.56.56 0 0 0-.556-.556h-2.829l-1.422.008h-1.244a10.27 10.27 0 0 1-.037-.993c0-.652-.06-.992-.111-1.296-.045-.281-.089-.526-.089-1.044l.007-.385c.023 0 .045.015.067.015l1.4.014 1.43.015 1.428-.015 1.4-.014a.56.56 0 0 0 .556-.556.56.56 0 0 0-.556-.555l-1.43.014-1.399.015c-.696 0-1.052 0-1.4-.014a55.256 55.256 0 0 0-1.362-.015 8.14 8.14 0 0 0 .044-.86l.037-1.118.045-1.222c0-.651-.06-.992-.111-1.296-.045-.281-.09-.526-.09-1.044l.023-1.14.03-1.2c0-.563-.423-1-.963-1s-.83 0-1.111-.015l-1.148-.015-1.178.037-1.081.03-1.17.037-1.081.03a5.28 5.28 0 0 1-1.008-.082 6.312 6.312 0 0 0-1.244-.104c-.622 0-.933.045-1.222.082a6.528 6.528 0 0 1-1.03.067 16.6 16.6 0 0 1-1.08-.03l-1.17-.037a8.86 8.86 0 0 0-1.215.074c-.267.03-.519.06-1.037.06-.467 0-.681-.053-.94-.12a4.454 4.454 0 0 0-1.312-.17c-.6 0-.91.03-1.2.067-.266.03-.525.052-1.051.052H9.385c-.615 0-.934.044-1.222.081a6.529 6.529 0 0 1-1.03.067c-1.066-.015-1.096.792-1.096.881l-.015 1.148L6 7.503c0 .674.081 1.03.156 1.348.059.266.118.503.118 1s-.044.748-.104 1.03c-.059.31-.126.65-.126 1.31v2.34a7.93 7.93 0 0 0 .082 1.267c.037.274.067.54.067 1.074s-.037.792-.074 1.066c-.045.296-.097.637-.097 1.274s.045.955.082 1.266c.037.274.074.534.074 1.074s-.03.8-.067 1.082a9.2 9.2 0 0 0-.074 1.258l.007 1.178v1.163l-.022 1.14-.022 1.2c0 .6.037.94.067 1.252.03.281.059.548.059 1.088l-.037 1.126-.037 1.215a6.77 6.77 0 0 0 .104 1.288c.044.282.081.526.081 1.052s-.044.763-.089 1.044c-.052.304-.118.652-.118 1.296 0 .497.481 1.097 1.074 1.097s.918-.038 1.214-.075c.267-.03.519-.059 1.044-.059l1.082.037 1.177.045 1.17-.037 1.082-.03h.6c0 .407.022.652.044.889l.044 1c0 .436-.052.636-.11.88-.075.29-.164.623-.164 1.245 0 .207.082.889 1.17.889l1.119.044 1.237.045 1.118.051c.304.03.622.052 1.237.052s.955-.037 1.266-.081a7.16 7.16 0 0 1 1.081-.067l1.134.03 1.214.037c.608 0 .97-.045 1.274-.089.274-.037.54-.074 1.074-.074l1.11.052c.304.03.615.052 1.238.052l1.147.022 1.2.022 1.126.037 1.222.037 1.244-.06c.282-.029.548-.058 1.104-.058s.814.03 1.096.059A9.16 9.16 0 0 0 38.95 44h2.347a.806.806 0 0 0 .608-.26c.259-.273.236-.607.23-.806 0-.526.036-.778.073-1.052.037-.289.082-.622.082-1.244a5.57 5.57 0 0 1 .081-1.037c.044-.297.096-.63.096-1.26 0-.68-.11-1.036-.207-1.355a2.621 2.621 0 0 1-.14-.933l.007-.007zM12.71 37.469l-1.081.03c-.541 0-.8-.023-1.074-.038a13.6 13.6 0 0 0-1.185-.044 8.7 8.7 0 0 0-1.215.074l-.622.052a4.24 4.24 0 0 1 .082-.645c.051-.303.118-.651.118-1.295s-.052-.985-.104-1.29a5.71 5.71 0 0 1-.081-1.05l.037-1.127.037-1.214c0-.607-.037-.94-.067-1.252-.03-.281-.059-.548-.059-1.088l.022-1.141.022-1.2-.007-1.177V23.9c0-.54.03-.8.067-1.081.037-.311.074-.63.074-1.26s-.045-.955-.082-1.266c-.037-.274-.074-.533-.074-1.074s.037-.792.074-1.066c.045-.296.097-.637.097-1.274s-.037-.955-.082-1.266a7.057 7.057 0 0 1-.067-1.074v-2.34c0-.512.045-.749.104-1.03.06-.311.126-.652.126-1.31s-.081-1.023-.155-1.341a3.606 3.606 0 0 1-.119-1.008l.015-1.148.015-.622c.37-.014.614-.044.83-.074A6.529 6.529 0 0 1 9.384 5.6h2.252c.6 0 .91-.03 1.2-.067a8.44 8.44 0 0 1 1.051-.052c.467 0 .682.052.941.119.304.081.652.17 1.31.17.608 0 .912-.037 1.215-.074.267-.03.519-.06 1.037-.06l1.082.03 1.17.037c.585 0 .933-.044 1.222-.081a6.53 6.53 0 0 1 1.03-.067c.51 0 .732.037 1.006.082a6.31 6.31 0 0 0 1.245.103l1.17-.037 1.081-.03 1.17-.036 1.089-.03 1.11.015.63.015-.022.659-.03 1.2c0 .651.06.992.111 1.296.045.281.09.525.09 1.044l-.038 1.118-.044 1.222a5.87 5.87 0 0 1-.081 1.06c-.045.303-.097.644-.097 1.28s.06.993.111 1.296c.045.282.09.526.09 1.045l.051 1.23.044 1.11v2.34l-.022 1.14-.03 1.2v2.341l-.036 1.126-.038 1.214c0 .534-.037.793-.073 1.067-.045.296-.097.637-.097 1.274l.045 1.229.044 1.111.037 1.215.03 1.133c0 .563-.03.807-.06 1.088l-.059.734-.474-.03-1.185-.044-1.192.051-1.06.052c-.532 0-.762-.037-1.021-.074-.289-.037-.615-.081-1.23-.081l-1.162.03-1.089.029c-.548 0-.83-.008-1.104-.015l-1.147-.022c-.608 0-.911.037-1.208.066-.266.03-.518.06-1.044.06a19.83 19.83 0 0 1-1.096-.022l-1.155-.023-1.156.023-1.096.022-1.17.037h-.022zm15.878-17.723a.63.63 0 0 1-.63.63h-2.102c-.541 0-.815 0-1.082-.015l-1.022-.022h-4.191a.623.623 0 0 1-.63-.623.63.63 0 0 1 .63-.629h4.191l1.074.015 1.03.022h2.103c.348 0 .63.274.63.622zm0 4.147a.63.63 0 0 1-.63.63l-1.021.022-1.081.03c-.541 0-.815-.015-1.09-.03a14.9 14.9 0 0 0-1.014-.03l-1.022.023-1.074.022c-.533 0-.792 0-1.059-.015-.259 0-.518-.015-1.037-.015a.629.629 0 1 1 0-1.259l1.067.015 1.03.015 1.021-.022 1.074-.022 1.082.03 1.022.029 1.022-.022 1.08-.03a.63.63 0 0 1 .63.63zM13.88 25.285l2.585-.008c.488 0 .866-.37.866-.844l-.022-2.614-.022-2.578c0-.503-.363-.896-.822-.896-1.296 0-1.948 0-2.6-.007h-2.592c-.466 0-.866.415-.866.91v2.6l-.008 2.593c0 .466.4.866.882.866l2.606-.007-.007-.015zm-2.222-3.444.008-2.259h4.362l.022 2.237.022 2.177-2.207.008-2.214.007v-2.192l.007.022z" fill="#000"></path></g><defs><clipPath id="a"><path d="M6 4h36.475v40H6z" fill="#fff"></path></clipPath></defs></svg>