<svg width="1512" height="1024" viewBox="0 0 1512 1024" fill="none" xmlns="http://www.w3.org/2000/svg">
<path d="M142.064 725.816C142.43 726.055 142.652 726.753 142.419 726.87C142.302 726.929 142.212 727.044 142.239 727.101C142.361 727.357 141.751 727.786 139.918 728.759C139.414 729.029 138.93 729.378 138.853 729.522C138.777 729.666 138.578 729.818 138.419 729.863C138.259 729.908 138.069 730.039 137.979 730.154C137.889 730.27 137.7 730.329 137.551 730.281C137.359 730.218 137.272 730.262 137.238 730.42C137.199 730.528 137.095 730.615 136.981 730.602C136.638 730.563 136.011 730.842 135.83 731.144C135.708 731.346 135.687 731.339 135.721 731.181C135.747 731.045 135.677 730.975 135.589 731.019C135.502 731.062 135.439 731.235 135.448 731.406C135.476 731.656 135.394 731.75 135.033 731.826C134.772 731.886 134.552 732.032 134.534 732.146C134.501 732.304 134.413 732.348 134.2 732.279C134.029 732.224 133.87 732.268 133.852 732.383C133.795 732.605 132.853 733.096 132.794 732.932C132.767 732.875 132.57 732.956 132.385 733.137C132.179 733.311 131.892 733.507 131.704 733.567C131.515 733.626 131.425 733.741 131.508 733.841C131.57 733.933 131.465 734.091 131.239 734.187C131.035 734.289 130.819 734.292 130.787 734.185C130.733 734.071 130.675 734.101 130.582 734.288C130.49 734.475 130.382 734.512 130.283 734.455C130.184 734.399 130.025 734.444 129.921 734.531C129.81 734.64 129.616 734.649 129.496 734.586C129.341 734.488 129.291 734.496 129.337 734.631C129.369 734.738 129.293 734.882 129.155 734.933C128.929 735.029 128.943 735.057 129.172 735.083C129.401 735.109 129.385 735.152 129.101 735.277C128.905 735.358 128.64 735.562 128.513 735.713C128.386 735.865 128.261 735.945 128.235 735.888C128.208 735.831 127.446 736.09 126.514 736.487C125.269 737.024 124.704 737.202 124.238 737.172C123.815 737.155 123.416 737.267 122.913 737.537C122.525 737.749 122.154 737.918 122.09 737.897C122.026 737.877 121.583 738.046 121.086 738.295C120.569 738.537 120.134 738.685 120.043 738.608C119.944 738.552 119.814 738.582 119.753 738.683C120.192 738.656 113.914 741.489 105.785 744.952C103.834 745.79 102.093 746.575 101.916 746.735C101.739 746.894 101.521 746.968 101.393 746.927C101.286 746.892 101.114 746.908 101.024 747.024C100.823 747.248 97.6544 748.679 97.5343 748.616C97.4704 748.595 96.5467 748.971 95.4401 749.456C92.6724 750.704 89.0338 752.248 87.0854 753.014C86.1909 753.375 85.2437 753.815 84.9788 754.018C84.7139 754.221 84.43 754.346 84.3313 754.29C84.2886 754.276 83.6062 754.513 82.5658 754.947C81.5254 755.381 80.1001 755.955 78.558 756.588C75.466 757.876 72.1776 759.244 71.2247 759.634C68.8016 760.656 66.9969 761.421 65.7601 761.936C64.8791 762.325 64.4121 762.559 64.402 762.653C64.3706 762.739 64.2247 762.812 64.0249 762.771C63.7533 762.732 63.6288 762.812 63.3864 763.215C63.1518 763.597 63.0193 763.698 62.7399 763.68C62.4896 763.647 62.3437 763.721 62.2303 763.901C62.117 764.081 62.0585 764.11 61.9328 763.997C61.8071 763.884 61.7567 763.892 61.7152 764.071C61.6501 764.315 61.3369 764.454 60.9295 764.395C60.8016 764.353 60.6108 764.484 60.5344 764.628C60.4581 764.772 60.2886 764.91 60.1663 764.919C60.044 764.927 59.7791 765.13 59.5782 765.354C59.1685 765.824 57.9934 766.431 57.769 766.262C57.6916 766.213 57.5826 766.25 57.5007 766.344C57.3133 766.596 56.8543 766.809 56.8745 766.623C56.9059 766.537 56.7701 766.517 56.5737 766.598C56.4065 766.664 56.2954 766.773 56.3515 766.815C56.4076 766.857 56.0921 767.068 55.6623 767.266C55.036 767.545 54.7836 767.584 54.5939 767.45C54.3481 767.275 54.3482 767.275 54.448 767.524C54.494 767.659 54.4895 767.802 54.4233 767.853C53.3357 768.416 52.4121 768.792 52.2999 768.707C52.2225 768.658 52.0867 768.638 52.007 768.66C51.9195 768.704 51.9171 768.776 52.0159 768.832C52.1146 768.888 52.1046 768.981 52.0249 769.003C51.9374 769.047 51.7881 768.999 51.7106 768.95C51.6197 768.872 51.3594 768.933 51.1181 769.071C50.8768 769.21 50.6377 769.277 50.5603 769.228C50.4828 769.179 50.3818 769.194 50.329 769.273C50.2763 769.353 50.0373 769.42 49.8005 769.415C49.4414 769.42 49.3672 769.492 49.3952 769.742C49.421 770.063 49.0125 770.268 48.7162 770.1C48.6388 770.051 48.2639 770.098 47.916 770.203C47.1832 770.447 47.0261 770.42 47.2584 770.11C47.401 769.915 47.4089 769.894 47.1911 769.968C47.0531 770.019 46.897 770.186 46.8207 770.33C46.7421 770.545 46.649 770.539 46.4987 770.298C46.3539 770.106 46.226 770.065 46.0565 770.203C45.9454 770.311 45.8735 770.312 45.905 770.226C45.9993 769.967 45.5245 769.765 45.153 769.934C44.8982 770.044 44.8635 770.009 44.9555 769.822C45.1183 769.441 45.0565 769.349 44.6098 769.397C44.2855 769.437 44.2507 769.401 44.3933 769.207C44.5437 768.99 44.501 768.976 44.1767 769.016C43.7222 769.086 43.6201 768.908 43.9186 768.547C44.0982 768.316 44.0926 768.266 43.8637 768.24C43.7144 768.192 43.5002 767.93 43.3274 767.488C43.1546 767.047 42.9829 766.799 42.8179 766.794C42.6451 766.81 42.5833 766.718 42.635 766.445C42.6552 766.259 42.6305 766.131 42.5508 766.153C42.3039 766.242 41.7283 765.598 41.8787 765.381C41.9764 765.244 41.9225 765.131 41.6846 764.933C41.2436 764.574 40.7453 763.521 40.8093 763.084C40.8397 762.805 40.7993 762.719 40.6343 762.714C40.4693 762.709 40.4424 762.652 40.5827 762.529C40.7309 762.384 40.704 762.327 40.4638 762.201C40.245 762.082 40.2316 762.054 40.41 762.088C40.538 762.129 40.612 762.057 40.5795 761.95C40.5335 761.814 40.2966 761.81 40.0261 761.963C39.9386 762.007 39.9038 761.972 39.4191 760.948C39.2306 760.549 38.9646 760.102 38.8547 759.946C38.6886 759.748 38.701 759.583 38.8671 759.324C39.0176 759.107 39.0243 758.893 38.9278 758.765C38.8235 758.659 38.8436 758.473 38.9839 758.35C39.2061 758.133 39.2062 758.133 38.8684 758.144C38.4083 758.163 37.9021 757.132 38.2949 756.97C38.4914 756.89 38.4858 756.84 38.3231 756.763C38.1312 756.701 38.1144 756.551 38.1817 756.235C38.2547 755.97 38.1998 755.663 38.0415 755.443C37.8833 755.223 37.8451 755.066 37.9832 755.015C38.092 754.978 38.0304 754.885 37.8463 754.802C37.6544 754.74 37.4939 754.591 37.4614 754.484C37.4154 754.349 37.4659 754.341 37.5916 754.454C37.7599 754.581 37.8049 754.523 37.8834 754.308C37.9699 754.071 37.9137 754.029 37.632 754.082C37.3795 754.121 37.2886 754.043 37.3222 753.885C37.3694 753.756 37.3605 753.585 37.3627 753.513C37.365 753.442 37.3459 753.363 37.375 753.348C37.3829 753.327 37.3392 753.12 37.2955 752.913C37.2304 752.699 37.1967 752.399 37.2091 752.235C37.2214 752.07 37.1912 751.892 37.143 751.828C36.9926 751.587 37.0341 750.95 37.1991 750.955C37.3988 750.995 37.4417 750.094 37.2307 749.953C37.1533 749.904 37.2138 749.803 37.3305 749.745C37.4764 749.672 37.5078 749.585 37.4169 749.508C37.3047 749.423 37.3418 749.387 37.536 749.378C37.701 749.383 37.8042 749.296 37.7638 749.211C37.7234 749.125 37.811 749.081 37.9254 749.094C38.0826 749.121 38.0848 749.05 37.9456 748.908C37.7717 748.731 37.8088 748.695 38.1096 748.72C38.3172 748.739 38.4474 748.709 38.4283 748.631C38.3363 748.36 38.8469 747.875 39.2117 747.921C39.5551 747.96 40.0534 747.639 39.8638 747.506C39.7303 747.414 40.9008 746.95 41.0927 747.012C41.178 747.04 41.3105 746.938 41.3734 746.766C41.4362 746.594 41.627 746.463 41.7707 746.461C41.9143 746.459 42.1186 746.357 42.2589 746.234C42.5922 745.908 43.7437 745.365 43.7897 745.501C43.8491 745.664 44.4114 745.365 44.7392 744.989C44.866 744.837 45.3195 744.575 45.7044 744.434C46.1186 744.279 46.4183 744.111 46.3992 744.033C46.3723 743.976 46.5316 743.931 46.7392 743.95C47.0186 743.969 47.1567 743.917 47.2701 743.737C47.3542 743.571 47.4632 743.534 47.5619 743.59C47.6394 743.64 47.9076 743.558 48.1938 743.361C48.5754 743.1 48.7348 743.055 48.9166 743.21C49.0984 743.365 49.178 743.343 49.3149 743.098C49.3991 742.933 49.6775 742.758 49.9244 742.669C50.1634 742.602 50.4261 742.47 50.4788 742.391C50.6506 742.182 51.3689 742.173 51.4553 742.394C51.5091 742.508 51.5596 742.5 51.6651 742.341C51.839 742.06 53.0994 741.481 53.0635 741.71C53.032 741.796 53.3194 741.793 53.6807 741.717C54.0208 741.635 54.3374 741.617 54.3643 741.674C54.3912 741.73 54.6145 741.706 54.8827 741.625C55.1509 741.543 55.518 741.517 55.702 741.601C55.9792 741.691 56.0432 741.711 56.1005 741.489C56.1499 741.288 56.2373 741.244 56.5089 741.284C56.5516 741.298 56.7188 741.231 57.0454 741.12C57.3799 740.988 57.8737 740.81 58.4921 740.553C60.0342 739.92 62.1947 739.03 64.748 737.977C69.8916 735.837 76.6671 732.948 83.4584 730.015C90.2496 727.083 97.0431 724.079 102.207 721.753C104.778 720.586 106.957 719.581 108.551 718.868C110.271 718.076 110.746 717.82 110.878 717.719C111.092 717.523 111.626 717.238 112.04 717.083C112.483 716.913 112.695 716.789 112.538 716.763C112.33 716.744 112.341 716.65 112.557 716.383C112.737 716.152 112.883 716.079 112.944 716.172C113.014 716.242 113.282 716.16 113.619 715.956C113.985 715.738 114.304 715.648 114.517 715.717C114.815 715.814 114.831 715.771 114.588 715.523C114.387 715.289 114.418 715.203 114.691 714.978C115.117 714.659 115.593 714.596 115.555 714.897C115.509 715.219 116.017 714.806 116.122 714.454C116.216 714.196 116.224 714.174 116.332 714.402C116.432 714.651 116.936 714.573 117.046 714.272C117.133 714.035 117.833 713.683 117.805 713.891C117.761 714.142 117.886 714.062 118.354 713.563C118.584 713.324 119.133 712.996 119.606 712.812C120.057 712.621 120.46 712.366 120.499 712.258C120.554 712.107 120.612 712.078 120.717 712.184C120.808 712.261 120.951 712.26 121.07 712.13C121.21 712.006 121.261 711.999 121.227 712.156C121.201 712.293 121.279 712.342 121.425 712.269C121.563 712.217 121.631 712.095 121.604 712.038C121.585 711.959 121.747 711.843 121.986 711.776C122.225 711.709 122.482 711.527 122.55 711.405C122.695 711.138 123.097 711.148 123.053 711.399C123.02 711.556 123.648 711.206 124.119 710.829C124.215 710.763 124.316 710.748 124.348 710.854C124.389 710.94 124.461 710.939 124.521 710.838C124.574 710.759 124.681 710.793 124.735 710.907C124.815 711.078 124.887 711.077 125.109 710.86C125.435 710.556 126.308 710.188 126.789 710.175C126.984 710.166 127.211 709.999 127.37 709.761C127.536 709.502 127.69 709.407 127.788 709.463C127.887 709.519 127.98 709.525 128.041 709.424C128.094 709.345 128.187 709.351 128.227 709.436C128.308 709.607 129.016 709.234 129.256 708.902C129.317 708.802 129.453 708.821 129.544 708.899C129.648 709.005 129.85 708.974 130.15 708.806C130.391 708.668 130.667 708.564 130.745 708.613C130.83 708.641 131.187 708.708 131.559 708.733C132.076 708.755 132.238 708.832 132.322 709.124C132.407 709.416 132.505 709.472 132.739 709.355C132.964 709.26 133.05 709.287 133.099 709.544C133.129 709.723 133.204 709.843 133.284 709.821C133.364 709.799 133.423 709.962 133.43 710.205C133.442 710.499 133.515 710.691 133.657 710.761C133.785 710.802 134.039 711.149 134.251 711.483C134.464 711.817 134.844 712.277 135.117 712.51C135.536 712.863 135.59 712.976 135.523 713.292C135.452 713.486 135.475 713.686 135.538 713.706C135.602 713.727 135.855 714.146 136.092 714.608C136.336 715.049 136.653 715.488 136.794 715.558C136.957 715.635 136.997 715.72 136.888 715.757C136.713 715.845 137.296 717.19 137.517 717.238C137.581 717.258 137.781 717.492 137.953 717.74C138.117 718.01 138.35 718.351 138.482 718.513C138.613 718.676 138.692 718.919 138.637 719.069C138.542 719.328 139.063 720.581 139.209 720.507C139.238 720.493 139.604 721.189 139.986 722.036C140.73 723.722 141.12 724.354 141.488 724.521C141.616 724.563 141.785 724.882 141.848 725.168C141.911 725.453 142.08 725.773 142.2 725.836L142.064 725.816Z" fill="#A0B6F2"/>
<path d="M210.271 600.742C210.439 601.137 210.302 601.882 210.064 601.87C209.947 601.853 209.833 601.929 209.84 601.999C209.805 602.296 209.183 602.413 207.391 602.475C206.887 602.494 206.39 602.583 206.272 602.682C206.153 602.78 205.942 602.842 205.79 602.797C205.654 602.777 205.451 602.793 205.336 602.869C205.222 602.945 205.071 602.9 204.966 602.815C204.85 602.682 204.753 602.668 204.674 602.772C204.618 602.857 204.493 602.885 204.408 602.803C204.164 602.605 203.567 602.587 203.311 602.782C203.146 602.919 203.107 602.914 203.214 602.767C203.293 602.663 203.27 602.567 203.173 602.553C203.076 602.539 202.969 602.685 202.896 602.86C202.812 603.102 202.702 603.156 202.398 603.065C202.169 603.008 201.961 603.047 201.882 603.152C201.799 603.278 201.716 603.289 201.57 603.106C201.454 602.973 201.338 602.956 201.258 603.06C201.124 603.249 200.222 603.256 200.235 603.073C200.248 603.005 200.068 603.002 199.837 603.061C199.602 603.142 199.297 603.167 199.141 603.144C198.985 603.122 198.875 603.175 198.87 603.313C198.869 603.429 198.731 603.524 198.536 603.496C198.341 603.467 198.194 603.4 198.191 603.306C198.216 603.171 198.153 603.185 197.992 603.3C197.85 603.419 197.748 603.427 197.71 603.306C197.669 603.207 197.532 603.187 197.403 603.238C197.273 603.288 197.126 603.22 197.068 603.096C197 602.924 196.961 602.918 196.932 603.076C196.911 603.189 196.793 603.287 196.657 603.267C196.438 603.259 196.434 603.281 196.608 603.422C196.763 603.561 196.739 603.581 196.478 603.589C196.302 603.563 196.004 603.658 195.851 603.729C195.694 603.821 195.573 603.827 195.566 603.756C195.578 603.689 194.877 603.586 194.046 603.534C192.895 603.481 192.392 603.385 192.055 603.15C191.752 602.944 191.406 602.87 190.921 602.892C190.534 602.928 190.199 602.902 190.168 602.851C190.138 602.8 189.72 602.785 189.263 602.765C188.783 602.764 188.397 602.685 188.336 602.583C188.294 602.484 188.181 602.445 188.087 602.523C188.04 602.563 187.735 602.588 187.235 602.584C187.036 602.578 186.794 602.589 186.536 602.574C185.959 602.559 185.342 602.539 184.686 602.512C183.355 602.457 181.86 602.423 180.21 602.367C173.575 602.091 164.435 601.727 153.945 601.305C148.922 601.079 144.402 600.951 143.871 601.012C143.319 601.071 142.785 601.039 142.587 600.917C142.405 600.821 142.015 600.764 141.706 600.811C141.029 600.898 132.868 600.654 132.651 600.529C132.592 600.521 131.984 600.455 131.012 600.405C130.041 600.356 128.729 600.303 127.316 600.258C120.174 600.024 110.796 599.648 105.84 599.387C103.561 599.262 101.086 599.224 100.34 599.254C99.5901 599.306 98.8565 599.269 98.6894 599.198C98.5961 599.161 96.9145 599.054 94.257 598.92C91.5955 598.809 87.9664 598.625 84.0131 598.464C76.1063 598.141 67.6455 597.784 65.2219 597.684C59.2195 597.454 54.6885 597.278 51.6288 597.155C50.7895 597.148 50.3635 597.178 50.3121 597.24C50.2565 597.325 50.1201 597.305 49.9808 597.192C49.7913 597.025 49.666 597.053 49.3156 597.326C48.9888 597.579 48.8398 597.627 48.6267 597.48C48.4484 597.361 48.312 597.341 48.1465 597.479C47.981 597.617 47.9225 597.609 47.8931 597.442C47.8636 597.276 47.8052 597.267 47.6982 597.414C47.5398 597.622 47.2432 597.602 46.984 597.379C46.899 597.297 46.7111 597.339 46.5971 597.415C46.4789 597.513 46.291 597.555 46.1977 597.518C46.1044 597.482 45.8108 597.554 45.5674 597.681C45.0569 597.954 43.9281 597.997 43.829 597.774C43.8024 597.701 43.6855 597.684 43.5951 597.74C43.3475 597.889 42.9063 597.894 43.0133 597.747C43.0647 597.685 42.9601 597.601 42.8 597.6C42.6441 597.578 42.5301 597.654 42.5608 597.704C42.5873 597.778 42.2784 597.825 41.8371 597.83C41.2358 597.835 41.0491 597.761 40.95 597.538C40.8397 597.267 40.8397 597.267 40.8136 597.518C40.7845 597.676 40.7402 597.809 40.6776 597.823C39.6226 597.9 38.7679 597.868 38.7148 597.721C38.6729 597.622 38.5838 597.563 38.5058 597.551C38.4279 597.54 38.3917 597.627 38.4378 597.703C38.4796 597.802 38.4477 597.867 38.3697 597.856C38.2917 597.844 38.1874 597.76 38.1455 597.661C38.1036 597.562 37.8738 597.505 37.647 597.542C37.4201 597.578 37.1904 597.521 37.1597 597.47C37.1332 597.397 37.0398 597.36 36.9689 597.419C36.9021 597.456 36.6877 597.424 36.5011 597.351C36.2253 597.218 36.1433 597.229 36.0587 597.471C35.9616 597.781 35.5552 597.815 35.4101 597.515C35.364 597.439 35.0841 597.329 34.7722 597.283C34.1095 597.186 34.005 597.101 34.3194 596.916C34.5238 596.784 34.5085 596.758 34.3289 596.755C34.2119 596.738 34.0158 596.825 33.9129 596.949C33.7628 597.112 33.7086 597.081 33.6609 596.796C33.6244 596.559 33.5393 596.477 33.3709 596.522C33.2415 596.573 33.1873 596.542 33.2387 596.48C33.4167 596.274 33.1238 595.907 32.7884 595.881C32.5503 595.87 32.535 595.844 32.6851 595.681C32.9576 595.396 32.9394 595.278 32.5815 595.156C32.3169 595.071 32.3057 595.023 32.5102 594.891C32.6951 594.756 32.6839 594.708 32.4194 594.623C32.0461 594.476 32.0403 594.289 32.3978 594.087C32.6218 593.958 32.6301 593.912 32.4754 593.774C32.3556 593.664 32.3203 593.311 32.3643 592.855C32.4166 592.353 32.373 592.045 32.2602 592.005C32.1321 591.94 32.1334 591.825 32.2528 591.611C32.3445 591.439 32.3694 591.303 32.3109 591.295C32.0924 591.286 31.9103 590.426 32.1148 590.293C32.2483 590.22 32.2537 590.082 32.1475 589.789C31.9464 589.25 31.9979 588.099 32.2326 587.693C32.3757 587.46 32.377 587.344 32.2489 587.279C32.1249 587.191 32.129 587.169 32.2821 587.098C32.4351 587.028 32.4475 586.961 32.3289 586.735C32.2062 586.532 32.2103 586.509 32.3538 586.599C32.443 586.659 32.5251 586.648 32.5417 586.557C32.5708 586.4 32.3841 586.326 32.1224 586.334C32.0249 586.32 32.025 586.32 32.0653 585.121C32.0703 584.659 32.0641 584.148 32.0193 583.956C31.9675 583.694 32.0549 583.545 32.2872 583.37C32.4721 583.235 32.5875 583.044 32.5539 582.9C32.5203 582.756 32.6079 582.607 32.7609 582.536C33.0197 582.435 33.0238 582.413 32.7633 582.305C32.4138 582.138 32.4304 580.959 32.7854 580.988C32.9608 581.014 32.9732 580.946 32.877 580.816C32.7613 580.683 32.8099 580.528 32.9807 580.252C33.1433 580.021 33.2168 579.731 33.1844 579.471C33.1563 579.189 33.2048 579.034 33.3023 579.049C33.3997 579.063 33.4009 578.947 33.2699 578.789C33.1583 578.634 33.0746 578.436 33.0953 578.323C33.1202 578.188 33.1397 578.191 33.2122 578.341C33.2807 578.513 33.3392 578.521 33.4934 578.335C33.6477 578.15 33.6211 578.076 33.3956 577.997C33.1894 577.92 33.1476 577.822 33.2546 577.675C33.3338 577.571 33.4018 577.419 33.4338 577.354C33.4462 577.286 33.4782 577.221 33.5018 577.202C33.506 577.179 33.5822 576.982 33.6237 576.756C33.6652 576.531 33.7582 576.243 33.8262 576.091C33.8942 575.939 33.9468 575.761 33.9398 575.691C33.9352 575.389 34.2186 574.828 34.3231 574.913C34.4624 575.026 34.8497 574.226 34.7506 574.003C34.7046 573.927 34.7797 573.845 34.9161 573.865C35.0525 573.885 35.1081 573.8 35.0704 573.679C35.0131 573.555 35.0604 573.515 35.2039 573.606C35.332 573.671 35.4379 573.64 35.4545 573.55C35.4711 573.46 35.5336 573.446 35.6228 573.505C35.7273 573.59 35.7593 573.525 35.7104 573.356C35.6544 573.116 35.6974 573.099 35.9064 573.269C36.0499 573.359 36.1822 573.402 36.1793 573.309C36.2138 573.012 36.8177 572.777 37.0615 572.974C37.3095 573.15 37.8216 573.086 37.742 572.865C37.6889 572.719 38.758 572.782 38.8737 572.915C38.9239 572.969 39.0687 572.944 39.1952 572.8C39.3175 572.679 39.5095 572.614 39.6182 572.677C39.7268 572.739 39.93 572.722 40.0789 572.675C40.4712 572.5 41.5722 572.499 41.5432 572.657C41.51 572.838 42.0807 572.782 42.4771 572.585C42.6538 572.495 43.0838 572.442 43.4583 572.474C43.8328 572.506 44.1418 572.458 44.1542 572.391C44.1667 572.323 44.2835 572.34 44.4465 572.433C44.6402 572.577 44.7807 572.575 44.9226 572.457C45.0408 572.358 45.1619 572.353 45.2038 572.451C45.2457 572.55 45.4838 572.562 45.7774 572.489C46.1726 572.408 46.3089 572.428 46.3886 572.648C46.4682 572.868 46.5267 572.877 46.7395 572.699C46.8813 572.581 47.1513 572.528 47.3852 572.562C47.5996 572.593 47.8417 572.583 47.9321 572.526C48.1366 572.394 48.6994 572.708 48.6774 572.936C48.6566 573.049 48.7304 573.083 48.8527 572.962C49.085 572.788 50.3072 572.781 50.1961 572.95C50.1446 573.012 50.3618 573.136 50.6695 573.205C50.9772 573.273 51.2183 573.378 51.2058 573.445C51.1934 573.513 51.3799 573.586 51.6138 573.621C51.8477 573.655 52.143 573.791 52.2546 573.946C52.4122 574.178 52.4901 574.189 52.6054 573.997C52.7166 573.828 52.7945 573.84 52.9882 573.984C53.0077 573.987 53.1831 574.012 53.456 574.052C53.5924 574.072 53.7678 574.098 53.9669 574.104C54.443 574.127 54.9775 574.159 55.5942 574.18C59.5476 574.341 65.1046 574.598 71.7391 574.874C85.0121 575.402 102.578 576.096 120.203 576.798C137.835 577.454 155.531 578.097 169.027 578.612C175.771 578.834 181.481 579.021 185.618 579.163C186.652 579.199 187.589 579.22 188.405 579.246C188.784 579.256 189.143 579.262 189.482 579.265C189.58 579.279 189.662 579.268 189.744 579.257C190.064 579.258 190.248 579.238 190.31 579.224C190.565 579.146 191.069 579.127 191.463 579.161C191.872 579.221 192.08 579.182 191.975 579.097C191.836 578.984 191.868 578.919 192.158 578.753C192.382 578.624 192.523 578.621 192.541 578.74C192.564 578.836 192.813 578.895 193.145 578.828C193.513 578.789 193.782 578.852 193.936 578.99C194.118 579.202 194.141 579.182 194.082 578.849C194.039 578.542 194.094 578.457 194.388 578.385C194.85 578.267 195.238 578.439 195.076 578.67C194.909 578.924 195.473 578.798 195.702 578.53C195.88 578.325 195.9 578.328 195.878 578.556C195.847 578.83 196.26 578.983 196.481 578.76C196.65 578.6 197.334 578.584 197.222 578.753C197.084 578.964 197.189 578.933 197.774 578.694C198.036 578.571 198.607 578.515 199.04 578.555C199.473 578.596 199.884 578.54 199.939 578.455C200.042 578.331 200.081 578.337 200.115 578.481C200.137 578.577 200.265 578.642 200.395 578.591C200.548 578.521 200.598 578.575 200.518 578.679C200.439 578.783 200.485 578.859 200.622 578.879C200.739 578.897 200.853 578.821 200.869 578.73C200.886 578.64 201.05 578.618 201.265 578.649C201.479 578.681 201.725 578.647 201.839 578.571C202.052 578.394 202.359 578.578 202.22 578.789C202.136 578.916 202.765 578.869 203.27 578.734C203.376 578.703 203.446 578.76 203.429 578.85C203.413 578.94 203.487 578.974 203.557 578.915C203.648 578.859 203.694 578.935 203.689 579.073C203.655 579.254 203.749 579.291 204.003 579.212C204.368 579.08 205.199 579.132 205.56 579.347C205.707 579.415 205.954 579.381 206.182 579.229C206.41 579.078 206.574 579.055 206.635 579.157C206.677 579.256 206.771 579.292 206.841 579.233C206.932 579.177 206.982 579.231 206.965 579.321C206.932 579.501 207.655 579.491 207.973 579.283C208.064 579.227 208.153 579.286 208.191 579.408C208.224 579.551 208.391 579.622 208.681 579.572C208.927 579.538 209.161 579.573 209.207 579.649C209.253 579.725 209.493 579.945 209.76 580.124C210.136 580.364 210.224 580.539 210.17 580.832C210.116 581.125 210.158 581.224 210.377 581.233C210.595 581.242 210.641 581.318 210.557 581.56C210.504 581.738 210.499 581.876 210.577 581.887C210.655 581.899 210.621 582.079 210.498 582.316C210.389 582.578 210.348 582.804 210.425 582.931C210.486 583.032 210.548 583.458 210.555 583.853C210.563 584.248 210.65 584.863 210.767 585.204C210.933 585.715 210.928 585.853 210.742 586.104C210.611 586.27 210.539 586.445 210.57 586.495C210.596 586.569 210.611 587.034 210.593 587.564C210.576 588.095 210.641 588.614 210.717 588.741C210.809 588.893 210.797 588.961 210.695 588.969C210.539 588.946 210.382 590.452 210.533 590.613C210.583 590.666 210.631 590.951 210.631 591.276C210.636 591.577 210.674 592.023 210.699 592.212C210.74 592.426 210.675 592.672 210.591 592.799C210.413 593.004 210.262 594.372 210.403 594.369C210.442 594.375 210.417 595.159 210.317 596.14C210.152 598.015 210.176 598.76 210.375 599.09C210.432 599.214 210.433 599.538 210.355 599.851C210.277 600.164 210.274 600.511 210.331 600.635L210.271 600.742Z" fill="#E3E9FB"/>
<path d="M128.189 458.361C128.208 458.812 127.807 459.449 127.562 459.323C127.437 459.271 127.322 459.269 127.276 459.352C127.14 459.604 126.468 459.428 124.633 458.659C124.132 458.452 123.592 458.306 123.421 458.338C123.272 458.375 123.032 458.32 122.896 458.219C122.761 458.118 122.548 458.046 122.427 458.066C122.284 458.08 122.127 457.974 122.075 457.821C122.007 457.641 121.925 457.599 121.792 457.663C121.709 457.715 121.578 457.685 121.508 457.599C121.354 457.305 120.74 457.002 120.421 457.07C120.2 457.114 120.178 457.109 120.345 457.006C120.456 456.937 120.479 456.849 120.398 456.807C120.316 456.765 120.134 456.841 120.005 456.976C119.837 457.173 119.7 457.166 119.435 456.941C119.224 456.776 119.006 456.726 118.895 456.795C118.756 456.881 118.674 456.839 118.59 456.632C118.522 456.452 118.403 456.378 118.32 456.43C118.104 456.545 117.189 456.15 117.28 455.983C117.297 455.916 117.134 455.832 116.888 455.8C116.642 455.767 116.298 455.666 116.162 455.565C116.005 455.459 115.856 455.495 115.833 455.584C115.803 455.695 115.617 455.7 115.41 455.606C115.203 455.512 115.107 455.349 115.153 455.266C115.21 455.138 115.166 455.128 114.946 455.172C114.747 455.221 114.644 455.174 114.652 455.058C114.653 454.964 114.518 454.863 114.359 454.851C114.228 454.821 114.071 454.715 114.062 454.572C114.044 454.38 114.028 454.353 113.943 454.498C113.892 454.604 113.721 454.636 113.602 454.562C113.395 454.468 113.367 454.485 113.495 454.702C113.607 454.892 113.579 454.909 113.307 454.8C113.122 454.711 112.816 454.642 112.629 454.647C112.442 454.651 112.311 454.622 112.329 454.555C112.346 454.489 111.712 454.086 110.853 453.657C109.705 453.091 109.233 452.773 108.982 452.41C108.747 452.075 108.41 451.858 107.925 451.677C107.522 451.539 107.196 451.371 107.164 451.317C107.132 451.262 106.752 451.035 106.272 450.833C105.771 450.625 105.419 450.381 105.405 450.26C105.391 450.139 105.293 450.07 105.172 450.09C105.604 450.47 99.1947 447.466 90.9441 443.717C88.9575 442.82 87.1383 442.079 86.8919 442.046C86.6456 442.014 86.4388 441.92 86.4027 441.795C86.3665 441.669 86.2253 441.59 86.0664 441.577C85.7487 441.552 82.4639 440.22 82.4337 440.073C82.4017 440.018 81.4771 439.574 80.3278 439.102C77.4686 437.913 73.6889 436.352 71.7183 435.482C70.8036 435.087 69.7897 434.716 69.4778 434.669C69.1441 434.617 68.8439 434.525 68.8078 434.4C68.7977 434.35 68.1175 434.032 67.0557 433.58C65.9998 433.105 64.5345 432.515 62.9439 431.872C59.7568 430.61 56.3192 429.243 55.3331 428.855C54.0527 428.354 52.9355 427.936 51.9712 427.553C51.0389 427.224 50.2813 426.935 49.6491 426.698C48.7765 426.406 48.3016 426.275 48.2461 426.309C48.1629 426.361 48.0157 426.304 47.898 426.136C47.7483 425.914 47.5895 425.902 47.1591 426.039C46.7287 426.177 46.5697 426.164 46.3923 425.96C46.2368 425.76 46.0838 425.725 45.9014 425.801C45.6971 425.873 45.6374 425.836 45.6349 425.67C45.6324 425.505 45.5944 425.473 45.428 425.577C45.2061 425.714 44.9118 425.601 44.6706 425.287C44.5848 425.174 44.4099 425.134 44.2334 425.188C44.0787 425.247 43.8762 425.225 43.7787 425.156C43.6811 425.087 43.3634 425.062 43.0775 425.091C42.4722 425.189 41.2657 424.845 41.2153 424.598C41.1951 424.5 41.0917 424.453 40.9707 424.472C40.6512 424.541 40.204 424.393 40.3486 424.284C40.41 424.228 40.3402 424.142 40.1494 424.075C39.9745 424.035 39.8434 424.005 39.8636 424.104C39.8678 424.176 39.5339 424.123 39.0808 423.997C38.4587 423.809 38.2636 423.671 38.2132 423.425C38.1745 423.134 38.1526 423.129 38.0602 423.39C38.019 423.545 37.9021 423.636 37.8365 423.621C36.6999 423.364 35.8173 423.023 35.787 422.875C35.7668 422.776 35.6811 422.663 35.5937 422.643C35.5062 422.623 35.4666 422.685 35.4649 422.778C35.4851 422.877 35.4238 422.933 35.3582 422.919C35.2708 422.899 35.191 422.763 35.1708 422.665C35.1565 422.544 34.9337 422.423 34.6714 422.363C34.431 422.309 34.2022 422.21 34.182 422.112C34.1619 422.013 34.0804 421.971 34.003 422C33.9257 422.03 33.6971 421.931 33.5357 421.754C33.2708 421.529 33.1775 421.531 33.0312 421.733C32.8454 421.997 32.4082 421.898 32.3317 421.575C32.3115 421.476 32.0189 421.269 31.7087 421.128C31.0227 420.832 30.937 420.718 31.312 420.615C31.56 420.554 31.5658 420.532 31.3531 420.46C31.222 420.43 31.0135 420.43 30.8529 420.511C30.6427 420.604 30.6049 420.572 30.6377 420.274C30.6587 420.021 30.5949 419.912 30.4083 419.917C30.2435 419.927 30.2116 419.872 30.2889 419.843C30.5327 419.71 30.3107 419.237 29.9508 419.108C29.7163 419.032 29.6844 418.977 29.8945 418.884C30.2653 418.71 30.2569 418.567 29.9265 418.327C29.6718 418.152 29.6616 418.103 29.9096 418.041C30.1576 417.98 30.1476 417.931 29.8928 417.756C29.5187 417.506 29.5717 417.307 30.0122 417.219C30.282 417.162 30.3158 417.123 30.1821 416.928C30.0804 416.788 30.1249 416.445 30.2922 415.99C30.4654 415.512 30.4982 415.214 30.3847 415.118C30.2493 415.017 30.2788 414.906 30.4906 414.719C30.6411 414.588 30.6982 414.46 30.6107 414.441C30.3762 414.364 30.3871 413.45 30.6351 413.389C30.8058 413.357 30.8411 413.224 30.7865 412.906C30.7091 412.325 31.0369 411.177 31.3715 410.877C31.5833 410.69 31.6128 410.579 31.4833 410.456C31.3538 410.332 31.3875 410.293 31.5523 410.283C31.7448 410.256 31.7625 410.19 31.6902 409.939C31.612 409.709 31.6237 409.665 31.7255 409.806C31.8171 409.897 31.9046 409.917 31.9281 409.828C31.9693 409.673 31.818 409.545 31.5338 409.48C31.4245 409.455 31.4363 409.411 31.7642 408.263C31.8819 407.82 31.9953 407.305 32.0045 407.096C32.0256 406.842 32.1323 406.702 32.4358 406.606C32.6838 406.545 32.8461 406.37 32.8377 406.227C32.8352 406.062 32.9578 405.949 33.1445 405.944C33.4522 405.92 33.4522 405.92 33.2092 405.701C32.8687 405.412 33.1688 404.281 33.5505 404.415C33.7472 404.46 33.7751 404.442 33.6851 404.257C33.617 404.078 33.6741 403.95 33.9356 403.75C34.1634 403.59 34.3054 403.317 34.3323 403.041C34.3651 402.743 34.4441 402.62 34.5694 402.672C34.6787 402.697 34.7023 402.608 34.5964 402.396C34.5064 402.211 34.4719 401.992 34.5232 401.886C34.5585 401.753 34.6182 401.79 34.6426 401.96C34.6829 402.157 34.7485 402.172 34.9705 402.034C35.1924 401.897 35.1824 401.847 34.9495 401.677C34.7544 401.539 34.7124 401.435 34.857 401.327C34.9738 401.236 35.0965 401.123 35.136 401.061C35.1537 400.995 35.237 400.943 35.2647 400.926C35.2866 400.931 35.411 400.724 35.4858 400.53C35.5883 400.318 35.7522 400.05 35.875 399.937C35.9758 399.818 36.0885 399.656 36.112 399.567C36.1885 399.279 36.6139 398.812 36.7215 398.93C36.8392 399.098 37.4605 398.416 37.4101 398.17C37.3899 398.071 37.4891 398.047 37.6203 398.076C37.7733 398.111 37.8507 398.081 37.8204 397.934C37.7901 397.786 37.8616 397.778 37.9911 397.902C38.1046 397.998 38.2357 398.028 38.2651 397.917C38.2887 397.828 38.3819 397.826 38.4677 397.939C38.5534 398.053 38.609 398.018 38.5905 397.826C38.5896 397.567 38.6333 397.577 38.8267 397.809C38.9502 397.955 39.0974 398.012 39.1151 397.945C39.2134 397.662 39.9381 397.638 40.1693 397.902C40.4005 398.166 40.9805 398.25 40.9242 398.026C40.8998 397.856 42.0608 398.284 42.1508 398.468C42.1987 398.55 42.3634 398.54 42.524 398.459C42.6846 398.378 42.915 398.383 43.0285 398.479C43.142 398.576 43.3546 398.647 43.5253 398.615C43.9977 398.582 45.1983 398.948 45.1352 399.098C45.0881 399.275 45.7001 399.414 46.1843 399.336C46.3769 399.309 46.8855 399.401 47.2772 399.583C47.6749 399.744 48.0306 399.801 48.0424 399.757C48.06 399.69 48.2012 399.769 48.3466 399.92C48.524 400.124 48.6711 400.181 48.8754 400.11C49.052 400.056 49.1613 400.081 49.1815 400.179C49.2016 400.278 49.4521 400.382 49.8077 400.439C50.2785 400.498 50.3979 400.572 50.4265 400.814C50.4551 401.055 50.5149 401.092 50.7746 400.987C50.9512 400.933 51.269 400.958 51.4918 401.079C51.7145 401.2 51.9986 401.264 52.0978 401.24C52.3677 401.183 52.8856 401.677 52.8049 401.893C52.7754 402.004 52.8133 402.036 52.984 402.004C53.2875 401.909 54.6132 402.327 54.435 402.474C54.3737 402.531 54.5569 402.713 54.8831 402.881C55.2093 403.049 55.4303 403.264 55.4186 403.308C55.4009 403.375 55.5741 403.508 55.8188 403.634C56.0693 403.738 56.3282 403.984 56.4182 404.169C56.5283 404.453 56.6157 404.472 56.7662 404.342C56.9385 404.217 57.0201 404.259 57.1916 404.485C57.2076 404.513 57.3925 404.601 57.6809 404.737C58.0348 404.888 58.5199 405.068 59.1244 405.323C60.7864 405.958 63.0967 406.858 65.8701 407.933C71.417 410.083 78.7336 412.986 86.0149 416.023C93.2961 419.059 100.576 422.189 106.09 424.637C108.844 425.872 111.19 426.898 112.867 427.654C114.734 428.476 115.175 428.647 115.35 428.686C115.64 428.729 116.191 428.924 116.571 429.151C116.973 429.383 117.207 429.46 117.127 429.324C117.031 429.161 117.093 429.105 117.422 429.085C117.702 429.078 117.849 429.135 117.842 429.251C117.812 429.362 118.073 429.515 118.439 429.621C118.842 429.76 119.097 429.935 119.203 430.147C119.335 430.435 119.363 430.418 119.401 430.098C119.462 429.783 119.545 429.731 119.895 429.81C120.398 429.924 120.748 430.262 120.498 430.417C120.221 430.589 120.861 430.711 121.198 430.576C121.458 430.47 121.48 430.475 121.371 430.709C121.257 430.965 121.613 431.281 121.917 431.185C122.149 431.097 122.857 431.398 122.69 431.501C122.468 431.639 122.599 431.669 123.285 431.706C123.602 431.731 124.224 431.919 124.648 432.156C125.072 432.393 125.525 432.52 125.63 432.473C125.763 432.409 125.828 432.424 125.809 432.584C125.78 432.695 125.915 432.796 126.074 432.809C126.255 432.826 126.293 432.858 126.154 432.944C126.043 433.013 126.041 433.107 126.182 433.186C126.308 433.238 126.445 433.245 126.49 433.161C126.514 433.073 126.726 433.144 126.949 433.265C127.166 433.409 127.444 433.495 127.571 433.453C127.869 433.38 128.11 433.693 127.888 433.831C127.749 433.917 128.398 434.181 129 434.271C129.109 434.295 129.179 434.382 129.133 434.465C129.11 434.554 129.142 434.608 129.235 434.606C129.328 434.603 129.376 434.685 129.319 434.813C129.228 434.98 129.282 435.039 129.594 435.087C130.021 435.136 130.852 435.583 131.175 435.938C131.299 436.084 131.583 436.148 131.853 436.092C132.139 436.063 132.335 436.107 132.35 436.228C132.37 436.327 132.44 436.413 132.533 436.411C132.626 436.408 132.68 436.468 132.635 436.551C132.544 436.719 133.274 437.025 133.675 436.998C133.796 436.979 133.86 437.087 133.846 437.225C133.805 437.38 133.978 437.514 134.294 437.632C134.551 437.714 134.789 437.862 134.81 437.961C134.83 438.059 135 438.38 135.203 438.661C135.508 439.082 135.527 439.275 135.341 439.538C135.155 439.801 135.175 439.9 135.398 440.021C135.621 440.142 135.641 440.24 135.451 440.432C135.322 440.568 135.281 440.723 135.363 440.765C135.428 440.78 135.332 440.969 135.148 441.139C134.936 441.326 134.811 441.533 134.842 441.681C134.878 441.806 134.766 442.227 134.638 442.621C134.488 443.01 134.373 443.619 134.345 443.988C134.313 444.545 134.256 444.673 133.984 444.823C133.796 444.921 133.645 445.052 133.65 445.123C133.654 445.195 133.508 445.655 133.285 446.145C133.085 446.64 132.921 447.167 132.974 447.32C133.02 447.495 132.974 447.579 132.871 447.532C132.708 447.448 131.982 448.787 132.088 448.999C132.114 449.075 132.059 449.368 131.933 449.669C131.829 449.974 131.695 450.39 131.642 450.59C131.589 450.789 131.437 451.013 131.304 451.077C131.044 451.183 130.375 452.394 130.516 452.473C130.56 452.483 130.223 453.229 129.779 454.115C128.909 455.822 128.633 456.511 128.708 456.928C128.738 457.075 128.585 457.393 128.405 457.634C128.225 457.875 128.071 458.193 128.073 458.358L128.189 458.361Z" fill="#A0B6F2"/>
<path d="M151.554 355.293C151.428 355.859 150.775 356.495 150.576 356.233C150.477 356.103 150.358 356.086 150.271 356.161C150.028 356.418 149.425 355.953 147.859 354.302C147.428 353.833 146.93 353.47 146.762 353.446C146.595 353.423 146.376 353.275 146.258 353.112C146.164 352.953 145.975 352.781 145.831 352.76C145.688 352.74 145.575 352.549 145.563 352.343C145.561 352.081 145.505 351.985 145.346 352.05C145.216 352.09 145.112 351.988 145.09 351.839C145.047 351.395 144.536 350.827 144.178 350.776C143.939 350.742 143.915 350.739 144.126 350.652C144.28 350.616 144.324 350.505 144.244 350.407C144.164 350.308 143.957 350.366 143.793 350.459C143.542 350.628 143.428 350.582 143.226 350.204C143.081 349.921 142.868 349.745 142.738 349.784C142.555 349.846 142.499 349.75 142.502 349.459C142.495 349.225 142.425 349.069 142.295 349.109C142.041 349.161 141.265 348.292 141.415 348.139C141.479 348.06 141.337 347.894 141.089 347.772C140.847 347.621 140.548 347.374 140.459 347.187C140.346 346.996 140.203 346.975 140.111 347.079C140.037 347.214 139.851 347.159 139.695 346.932C139.535 346.735 139.48 346.494 139.543 346.415C139.641 346.283 139.598 346.248 139.383 346.217C139.167 346.187 139.082 346.116 139.137 345.949C139.162 345.807 139.092 345.651 138.935 345.571C138.802 345.494 138.718 345.278 138.749 345.107C138.795 344.851 138.8 344.823 138.655 344.948C138.563 345.051 138.395 345.028 138.272 344.893C138.088 344.692 138.064 344.689 138.103 345.015C138.148 345.313 138.1 345.306 137.878 345.042C137.736 344.876 137.456 344.661 137.246 344.602C137.036 344.543 136.932 344.441 136.995 344.362C137.058 344.284 136.53 343.538 135.85 342.684C134.934 341.504 134.572 340.928 134.449 340.385C134.344 339.875 134.1 339.461 133.688 339.024C133.357 338.685 133.078 338.325 133.07 338.236C133.085 338.151 132.745 337.724 132.357 337.29C131.951 336.824 131.664 336.375 131.713 336.236C131.739 336.094 131.669 335.938 131.549 335.921C131.477 335.911 131.207 335.639 130.801 335.173C130.399 334.679 129.912 334.114 129.35 333.422C128.646 332.564 127.844 331.575 126.96 330.488C123.427 326.138 118.582 320.085 113.096 313.096C110.461 309.748 108.052 306.782 107.711 306.5C107.369 306.218 107.096 305.83 107.06 305.62C107.024 305.411 106.855 305.125 106.636 304.977C106.18 304.65 101.849 299.283 101.823 299.017C101.82 298.9 100.564 297.293 99.0623 295.417C95.2746 290.71 90.3985 284.42 87.8408 281.054C86.6705 279.517 85.3481 277.872 84.9074 277.459C84.4427 277.043 84.0653 276.553 84.0293 276.343C84.0207 276.255 83.1528 275.082 81.7893 273.256C80.4208 271.458 78.5567 269.006 76.5133 266.325C72.4453 260.995 68.08 255.273 66.8293 253.638C63.7146 249.551 61.3502 246.475 59.7407 244.38C59.0557 243.554 58.6917 243.123 58.6097 243.17C58.509 243.185 58.3911 243.023 58.3602 242.785C58.3259 242.43 58.1978 242.324 57.7197 242.257C57.2416 242.189 57.1135 242.083 57.0553 241.725C57.0107 241.427 56.8928 241.264 56.6726 241.262C56.4574 241.232 56.396 241.165 56.4796 240.973C56.5631 240.78 56.5255 240.717 56.348 240.75C56.0697 240.798 55.8526 240.504 55.796 240.001C55.7789 239.823 55.6081 239.683 55.4407 239.659C55.2734 239.635 55.0787 239.491 55.0274 239.367C54.9812 239.215 54.696 239.028 54.4006 238.899C53.7807 238.665 52.8205 237.596 52.9057 237.258C52.9261 237.144 52.8749 237.02 52.7366 236.971C52.4121 236.867 52.0483 236.436 52.2548 236.378C52.3556 236.363 52.3145 236.183 52.1966 236.02C52.0548 235.854 51.9455 235.78 51.9012 235.891C51.8858 235.976 51.563 235.726 51.223 235.299C50.7412 234.706 50.6147 234.454 50.7187 234.148C50.8329 233.786 50.838 233.757 50.5957 234.014C50.4745 234.143 50.3157 234.208 50.2491 234.169C49.3454 233.195 48.6706 232.312 48.7303 232.117C48.7558 231.975 48.7336 231.826 48.6772 231.73C48.6208 231.635 48.5338 231.71 48.4894 231.82C48.4639 231.962 48.387 231.98 48.3016 231.91C48.2401 231.843 48.228 231.637 48.2774 231.498C48.303 231.356 48.1816 231.077 47.9732 230.872C47.7648 230.668 47.6145 230.413 47.6588 230.303C47.6793 230.189 47.6519 230.069 47.5563 230.055C47.4606 230.041 47.3342 229.79 47.2368 229.514C47.117 229.089 47.0265 229.047 46.7755 229.215C46.4666 229.434 46.1215 229.035 46.222 228.612C46.2475 228.47 46.0938 228.098 45.8631 227.744C45.383 227.006 45.3708 226.8 45.767 226.915C46.0248 226.98 46.03 226.952 45.8933 226.758C45.7943 226.627 45.5944 226.511 45.4219 226.516C45.1778 226.51 45.1692 226.421 45.3449 226.126C45.5155 225.858 45.4984 225.681 45.3225 225.569C45.1653 225.488 45.1567 225.399 45.2523 225.413C45.5494 225.397 45.5952 224.733 45.3406 224.376C45.1612 224.146 45.1765 224.061 45.3968 224.063C45.8373 224.067 45.9107 223.932 45.7295 223.44C45.5995 223.072 45.6097 223.015 45.8624 223.109C46.1254 223.146 46.1254 223.146 46.0006 222.75C45.7955 222.254 45.9558 222.044 46.3947 222.193C46.6714 222.291 46.7294 222.241 46.7036 221.975C46.6916 221.769 46.9065 221.392 47.328 220.956C47.7495 220.52 47.9303 220.196 47.8892 220.015C47.8293 219.803 47.9215 219.699 48.181 219.619C48.3876 219.561 48.5088 219.433 48.4473 219.366C48.2679 219.136 48.7727 218.1 49.0306 218.166C49.1979 218.19 49.314 218.089 49.4333 217.698C49.6856 216.976 50.5935 215.881 51.0646 215.714C51.3531 215.61 51.4452 215.506 51.4042 215.325C51.3682 215.116 51.3972 215.091 51.5782 215.175C51.7593 215.259 51.8172 215.209 51.8785 214.868C51.9347 214.555 51.9399 214.527 51.9998 214.739C52.0221 214.888 52.1075 214.959 52.1706 214.88C52.2918 214.752 52.242 214.482 51.9909 214.243C51.9106 214.144 51.9396 214.119 52.8525 212.995C53.1972 212.577 53.5914 212.021 53.704 211.804C53.8558 211.505 54.0435 211.415 54.3492 211.487C54.6121 211.525 54.8427 211.47 54.9262 211.278C55.0098 211.086 55.1873 211.053 55.3684 211.137C55.6587 211.294 55.6638 211.266 55.5578 210.901C55.4055 210.384 56.2945 209.257 56.573 209.617C56.7097 209.811 56.7678 209.761 56.7847 209.53C56.8307 209.274 56.9467 209.174 57.2779 209.105C57.5613 209.028 57.8703 208.81 58.046 208.514C58.2217 208.218 58.3667 208.093 58.4658 208.224C58.5461 208.323 58.6092 208.244 58.6415 207.928C58.6875 207.672 58.7386 207.388 58.8496 207.316C58.9707 207.188 58.9844 207.248 58.9247 207.444C58.8788 207.7 58.8975 207.731 59.1707 207.712C59.42 207.689 59.4593 207.607 59.343 207.299C59.2456 207.023 59.271 206.881 59.4485 206.848C59.6022 206.811 59.7849 206.75 59.8429 206.7C59.901 206.65 59.9829 206.603 60.0307 206.61C60.0546 206.613 60.2527 206.466 60.4558 206.291C60.6589 206.116 60.9678 205.897 61.1265 205.832C61.2853 205.768 61.4781 205.649 61.5224 205.539C61.722 205.247 62.3861 204.962 62.4221 205.171C62.4478 205.437 63.3577 205.013 63.4617 204.707C63.4821 204.593 63.6016 204.61 63.7007 204.741C63.7998 204.871 63.9245 204.86 63.95 204.718C63.9858 204.519 64.0523 204.557 64.1361 204.773C64.201 204.957 64.3105 205.031 64.3736 204.953C64.4606 204.878 64.5271 204.916 64.5443 205.094C64.5615 205.271 64.6383 205.253 64.727 205.032C64.8498 204.758 64.8977 204.765 64.9559 205.123C64.9868 205.361 65.0807 205.52 65.1438 205.441C65.3861 205.184 66.0522 205.57 66.1242 205.989C66.1961 206.407 66.6556 206.851 66.7596 206.545C66.7953 206.346 67.6496 207.459 67.6275 207.718C67.6071 207.832 67.7643 207.913 67.9606 207.911C68.1519 207.939 68.3516 208.054 68.3977 208.207C68.4439 208.359 68.6045 208.557 68.7856 208.641C69.233 208.879 70.1215 209.938 70.0003 210.067C69.8502 210.221 70.3473 210.728 70.7999 210.939C71.0048 211.026 71.4028 211.403 71.6762 211.792C71.9495 212.181 72.2433 212.456 72.3065 212.377C72.3645 212.327 72.4396 212.454 72.4893 212.724C72.5526 213.053 72.6517 213.184 72.8669 213.215C73.0581 213.242 73.1384 213.341 73.1128 213.483C73.0873 213.625 73.2617 213.883 73.5418 214.098C73.9261 214.415 74.0202 214.574 73.9213 214.851C73.8173 215.157 73.8549 215.221 74.1417 215.262C74.333 215.289 74.613 215.504 74.7634 215.758C74.9138 216.013 75.117 216.246 75.2366 216.263C75.5132 216.36 75.7288 217.207 75.5496 217.386C75.4575 217.489 75.49 217.581 75.6573 217.605C75.992 217.653 76.9743 218.871 76.7438 218.926C76.6431 218.941 76.7304 219.274 76.932 219.652C77.1337 220.031 77.2449 220.367 77.1818 220.446C77.1238 220.496 77.2212 220.772 77.3955 221.03C77.5698 221.288 77.6895 221.713 77.6675 221.972C77.625 222.345 77.6813 222.441 77.8879 222.383C78.0945 222.324 78.1747 222.423 78.2141 222.75C78.2039 222.806 78.3458 222.972 78.5338 223.291C78.6278 223.45 78.7695 223.616 78.925 223.842C79.2034 224.202 79.4957 224.623 79.8306 225.078C81.8501 227.756 84.6862 231.482 88.0742 235.958C94.8793 244.883 103.952 256.609 113.13 268.292C122.308 279.975 131.592 291.614 138.738 300.413C142.314 304.799 145.346 308.524 147.538 311.197C148.082 311.857 148.587 312.454 149.026 313.012C149.329 313.375 149.594 313.675 149.84 313.944C150.104 314.244 150.27 314.413 150.337 314.452C150.603 314.606 151.058 315.079 151.326 315.496C151.637 315.948 151.826 316.121 151.791 315.912C151.76 315.674 151.842 315.627 152.19 315.735C152.467 315.833 152.595 315.939 152.521 316.074C152.477 316.184 152.646 316.471 152.94 316.746C153.276 317.056 153.465 317.374 153.461 317.665C153.467 318.045 153.49 318.048 153.676 317.696C153.862 317.343 153.963 317.328 154.267 317.546C154.723 317.874 154.918 318.426 154.635 318.502C154.298 318.6 154.864 319.001 155.267 318.942C155.569 318.897 155.588 318.929 155.374 319.161C155.156 319.422 155.38 319.949 155.725 319.94C155.993 319.949 156.57 320.556 156.359 320.642C156.099 320.722 156.203 320.824 156.861 321.122C157.18 321.255 157.682 321.734 158.017 322.19C158.352 322.646 158.736 322.962 158.861 322.951C159.039 322.918 159.076 322.982 158.998 323.145C158.948 323.284 159.018 323.44 159.152 323.517C159.333 323.601 159.341 323.69 159.187 323.726C159.058 323.766 159.013 323.876 159.136 324.011C159.235 324.141 159.379 324.162 159.442 324.083C159.505 324.005 159.681 324.117 159.831 324.372C159.982 324.626 160.219 324.806 160.387 324.83C160.697 324.874 160.812 325.327 160.553 325.407C160.399 325.444 160.934 326.015 161.461 326.353C161.571 326.426 161.598 326.547 161.511 326.622C161.448 326.7 161.48 326.792 161.571 326.835C161.69 326.851 161.665 326.994 161.568 327.126C161.412 327.308 161.445 327.4 161.735 327.558C162.14 327.761 162.796 328.612 162.962 329.189C163.022 329.402 163.283 329.585 163.565 329.654C163.876 329.698 164.041 329.868 163.992 330.006C163.966 330.149 164.018 330.272 164.113 330.286C164.209 330.3 164.236 330.42 164.149 330.495C163.994 330.677 164.614 331.319 165.015 331.405C165.135 331.422 165.181 331.575 165.103 331.738C165.019 331.931 165.127 332.15 165.402 332.393C165.634 332.601 165.808 332.859 165.764 332.969C165.744 333.083 165.81 333.53 165.901 333.98C166.038 334.583 165.992 334.838 165.702 335.089C165.436 335.342 165.41 335.485 165.59 335.714C165.769 335.944 165.749 336.057 165.498 336.226C165.329 336.348 165.226 336.508 165.264 336.572C165.301 336.635 165.146 336.817 164.9 336.957C164.602 337.119 164.417 337.326 164.387 337.497C164.356 337.667 164.126 338.13 163.829 338.554C163.556 338.982 163.189 339.659 163.036 340.103C162.794 340.769 162.696 340.901 162.365 340.97C162.159 341.028 161.971 341.118 161.926 341.228C161.911 341.314 161.575 341.82 161.186 342.348C160.797 342.876 160.451 343.438 160.439 343.641C160.398 343.868 160.335 343.947 160.278 343.851C160.137 343.685 158.934 345.06 158.954 345.354C158.939 345.439 158.777 345.795 158.572 346.116C158.343 346.433 158.065 346.89 157.948 347.135C157.83 347.381 157.598 347.581 157.42 347.614C157.118 347.659 156.018 348.873 156.136 349.035C156.178 349.07 155.571 349.859 154.799 350.74C153.305 352.51 152.779 353.252 152.706 353.795C152.675 353.966 152.442 354.312 152.151 354.562C151.866 354.784 151.609 355.126 151.573 355.325L151.554 355.293Z" fill="#E3E9FB"/>
<path d="M1369.48 725.837C1369.12 726.076 1368.89 726.775 1369.13 726.892C1369.24 726.95 1369.33 727.066 1369.31 727.123C1369.19 727.379 1369.8 727.808 1371.63 728.78C1372.13 729.05 1372.62 729.399 1372.69 729.543C1372.77 729.687 1372.97 729.84 1373.13 729.884C1373.29 729.929 1373.48 730.06 1373.57 730.176C1373.66 730.291 1373.85 730.35 1374 730.302C1374.19 730.24 1374.28 730.284 1374.31 730.442C1374.35 730.549 1374.45 730.636 1374.57 730.623C1374.91 730.584 1375.54 730.863 1375.72 731.166C1375.84 731.368 1375.86 731.361 1375.83 731.203C1375.8 731.067 1375.87 730.996 1375.96 731.04C1376.05 731.084 1376.11 731.256 1376.1 731.428C1376.07 731.678 1376.15 731.772 1376.51 731.847C1376.77 731.908 1376.99 732.053 1377.01 732.168C1377.05 732.326 1377.13 732.369 1377.35 732.3C1377.52 732.245 1377.68 732.29 1377.69 732.405C1377.75 732.627 1378.69 733.117 1378.75 732.953C1378.78 732.896 1378.98 732.977 1379.16 733.158C1379.37 733.332 1379.65 733.529 1379.84 733.588C1380.03 733.647 1380.12 733.763 1380.04 733.862C1379.98 733.954 1380.08 734.113 1380.31 734.208C1380.51 734.311 1380.73 734.313 1380.76 734.207C1380.81 734.093 1380.87 734.122 1380.96 734.309C1381.06 734.496 1381.17 734.533 1381.26 734.477C1381.36 734.421 1381.52 734.466 1381.63 734.553C1381.74 734.661 1381.93 734.671 1382.05 734.608C1382.21 734.509 1382.26 734.517 1382.21 734.652C1382.18 734.759 1382.25 734.903 1382.39 734.955C1382.62 735.05 1382.6 735.079 1382.38 735.105C1382.15 735.131 1382.16 735.174 1382.45 735.299C1382.64 735.38 1382.91 735.583 1383.03 735.735C1383.16 735.886 1383.29 735.966 1383.31 735.91C1383.34 735.853 1384.1 736.112 1385.03 736.509C1386.28 737.045 1386.84 737.223 1387.31 737.193C1387.73 737.177 1388.13 737.288 1388.63 737.559C1389.02 737.771 1389.39 737.94 1389.46 737.919C1389.52 737.898 1389.96 738.068 1390.46 738.317C1390.98 738.559 1391.41 738.707 1391.5 738.629C1391.6 738.573 1391.73 738.603 1391.79 738.704C1391.35 738.677 1397.63 741.511 1405.76 744.973C1407.71 745.811 1409.45 746.597 1409.63 746.756C1409.81 746.915 1410.03 746.989 1410.15 746.948C1410.26 746.913 1410.43 746.93 1410.52 747.045C1410.72 747.269 1413.89 748.701 1414.01 748.638C1414.08 748.617 1415 748.992 1416.11 749.477C1418.87 750.725 1422.51 752.269 1424.46 753.035C1425.36 753.396 1426.3 753.836 1426.57 754.04C1426.83 754.243 1427.12 754.368 1427.22 754.312C1427.26 754.298 1427.94 754.535 1428.98 754.969C1430.02 755.403 1431.45 755.977 1432.99 756.61C1436.08 757.897 1439.37 759.266 1440.32 759.656C1442.75 760.678 1444.55 761.442 1445.79 761.957C1446.67 762.347 1447.13 762.581 1447.14 762.674C1447.18 762.76 1447.32 762.833 1447.52 762.793C1447.79 762.753 1447.92 762.833 1448.16 763.236C1448.4 763.618 1448.53 763.72 1448.81 763.702C1449.06 763.669 1449.2 763.742 1449.32 763.922C1449.43 764.102 1449.49 764.131 1449.61 764.018C1449.74 763.906 1449.79 763.913 1449.83 764.093C1449.9 764.336 1450.21 764.476 1450.62 764.416C1450.75 764.375 1450.94 764.506 1451.01 764.65C1451.09 764.794 1451.26 764.931 1451.38 764.94C1451.5 764.949 1451.77 765.152 1451.97 765.376C1452.38 765.846 1453.55 766.453 1453.78 766.284C1453.86 766.235 1453.96 766.272 1454.05 766.365C1454.23 766.618 1454.69 766.831 1454.67 766.644C1454.64 766.558 1454.78 766.538 1454.97 766.619C1455.14 766.686 1455.25 766.794 1455.2 766.836C1455.14 766.879 1455.45 767.09 1455.88 767.288C1456.51 767.567 1456.76 767.606 1456.95 767.472C1457.2 767.296 1457.2 767.296 1457.1 767.545C1457.05 767.68 1457.06 767.824 1457.12 767.874C1458.21 768.438 1459.13 768.813 1459.25 768.729C1459.32 768.679 1459.46 768.66 1459.54 768.682C1459.63 768.726 1459.63 768.797 1459.53 768.853C1459.43 768.909 1459.44 769.003 1459.52 769.025C1459.61 769.069 1459.76 769.021 1459.84 768.971C1459.93 768.894 1460.19 768.954 1460.43 769.093C1460.67 769.231 1460.91 769.298 1460.99 769.249C1461.06 769.2 1461.17 769.216 1461.22 769.295C1461.27 769.374 1461.51 769.441 1461.75 769.437C1462.11 769.441 1462.18 769.513 1462.15 769.763C1462.13 770.085 1462.53 770.29 1462.83 770.122C1462.91 770.073 1463.28 770.12 1463.63 770.224C1464.36 770.468 1464.52 770.442 1464.29 770.132C1464.15 769.937 1464.14 769.915 1464.36 769.989C1464.49 770.041 1464.65 770.207 1464.73 770.351C1464.8 770.567 1464.9 770.561 1465.05 770.319C1465.19 770.128 1465.32 770.086 1465.49 770.224C1465.6 770.333 1465.67 770.334 1465.64 770.247C1465.55 769.989 1466.02 769.787 1466.39 769.956C1466.65 770.066 1466.68 770.031 1466.59 769.844C1466.43 769.463 1466.49 769.37 1466.94 769.419C1467.26 769.458 1467.3 769.423 1467.15 769.228C1467 769.012 1467.05 768.998 1467.37 769.037C1467.82 769.107 1467.93 768.93 1467.63 768.569C1467.45 768.338 1467.45 768.288 1467.68 768.262C1467.83 768.213 1468.05 767.951 1468.22 767.51C1468.39 767.069 1468.56 766.82 1468.73 766.815C1468.9 766.831 1468.96 766.739 1468.91 766.467C1468.89 766.281 1468.92 766.152 1469 766.174C1469.24 766.263 1469.82 765.619 1469.67 765.403C1469.57 765.266 1469.62 765.152 1469.86 764.955C1470.3 764.595 1470.8 763.542 1470.74 763.105C1470.71 762.826 1470.75 762.741 1470.91 762.736C1471.08 762.73 1471.1 762.674 1470.96 762.55C1470.82 762.406 1470.84 762.349 1471.08 762.223C1471.3 762.104 1471.32 762.075 1471.14 762.109C1471.01 762.15 1470.93 762.078 1470.97 761.971C1471.01 761.836 1471.25 761.831 1471.52 761.985C1471.61 762.029 1471.64 761.993 1472.13 760.969C1472.32 760.571 1472.58 760.123 1472.69 759.967C1472.86 759.769 1472.85 759.605 1472.68 759.345C1472.53 759.129 1472.52 758.914 1472.62 758.787C1472.72 758.681 1472.7 758.494 1472.56 758.371C1472.34 758.154 1472.34 758.154 1472.68 758.165C1473.14 758.185 1473.64 757.154 1473.25 756.992C1473.06 756.911 1473.06 756.861 1473.22 756.784C1473.42 756.722 1473.43 756.572 1473.37 756.257C1473.29 755.991 1473.35 755.684 1473.51 755.465C1473.66 755.245 1473.7 755.088 1473.56 755.036C1473.45 754.999 1473.52 754.907 1473.7 754.823C1473.89 754.761 1474.05 754.613 1474.09 754.506C1474.13 754.371 1474.08 754.363 1473.96 754.476C1473.79 754.603 1473.74 754.545 1473.66 754.329C1473.58 754.092 1473.63 754.05 1473.91 754.103C1474.17 754.142 1474.26 754.065 1474.22 753.907C1474.18 753.778 1474.19 753.606 1474.18 753.535C1474.18 753.463 1474.2 753.385 1474.17 753.37C1474.16 753.348 1474.21 753.142 1474.25 752.935C1474.32 752.721 1474.35 752.421 1474.34 752.256C1474.33 752.092 1474.36 751.913 1474.4 751.849C1474.55 751.608 1474.51 750.971 1474.35 750.976C1474.15 751.017 1474.11 750.115 1474.32 749.975C1474.39 749.926 1474.33 749.825 1474.22 749.766C1474.07 749.693 1474.04 749.607 1474.13 749.529C1474.24 749.445 1474.21 749.409 1474.01 749.399C1473.85 749.404 1473.74 749.317 1473.78 749.232C1473.82 749.147 1473.74 749.103 1473.62 749.116C1473.46 749.143 1473.46 749.071 1473.6 748.93C1473.78 748.753 1473.74 748.717 1473.44 748.742C1473.23 748.761 1473.1 748.731 1473.12 748.652C1473.21 748.382 1472.7 747.897 1472.34 747.942C1471.99 747.981 1471.49 747.661 1471.68 747.527C1471.82 747.436 1470.65 746.972 1470.45 747.034C1470.37 747.061 1470.24 746.96 1470.17 746.787C1470.11 746.615 1469.92 746.484 1469.78 746.482C1469.63 746.481 1469.43 746.378 1469.29 746.255C1468.95 745.929 1467.8 745.387 1467.76 745.522C1467.7 745.686 1467.14 745.386 1466.81 745.011C1466.68 744.859 1466.23 744.596 1465.84 744.456C1465.43 744.301 1465.13 744.133 1465.15 744.055C1465.17 743.998 1465.02 743.953 1464.81 743.972C1464.53 743.99 1464.39 743.938 1464.28 743.758C1464.19 743.593 1464.08 743.556 1463.98 743.612C1463.91 743.661 1463.64 743.579 1463.35 743.383C1462.97 743.121 1462.81 743.076 1462.63 743.231C1462.45 743.387 1462.37 743.364 1462.23 743.12C1462.15 742.954 1461.87 742.779 1461.62 742.691C1461.38 742.623 1461.12 742.492 1461.07 742.412C1460.9 742.203 1460.18 742.195 1460.09 742.415C1460.04 742.529 1459.99 742.521 1459.88 742.363C1459.71 742.082 1458.45 741.502 1458.48 741.732C1458.51 741.818 1458.23 741.814 1457.87 741.739C1457.53 741.656 1457.21 741.638 1457.18 741.695C1457.16 741.752 1456.93 741.728 1456.66 741.646C1456.4 741.564 1456.03 741.539 1455.84 741.622C1455.57 741.712 1455.5 741.733 1455.45 741.51C1455.4 741.31 1455.31 741.266 1455.04 741.305C1455 741.319 1454.83 741.253 1454.5 741.142C1454.17 741.009 1453.67 740.832 1453.05 740.574C1451.51 739.942 1449.35 739.051 1446.8 737.999C1441.66 735.858 1434.88 732.969 1428.09 730.037C1421.3 727.105 1414.5 724.101 1409.34 721.774C1406.77 720.607 1404.59 719.602 1403 718.89C1401.28 718.098 1400.8 717.842 1400.67 717.74C1400.45 717.545 1399.92 717.26 1399.51 717.105C1399.06 716.935 1398.85 716.811 1399.01 716.784C1399.22 716.765 1399.21 716.672 1398.99 716.405C1398.81 716.174 1398.66 716.101 1398.6 716.193C1398.53 716.264 1398.26 716.182 1397.93 715.978C1397.56 715.759 1397.24 715.669 1397.03 715.739C1396.73 715.835 1396.72 715.792 1396.96 715.545C1397.16 715.311 1397.13 715.225 1396.86 715C1396.43 714.68 1395.95 714.618 1395.99 714.918C1396.04 715.241 1395.53 714.827 1395.43 714.476C1395.33 714.217 1395.32 714.196 1395.22 714.423C1395.12 714.672 1394.61 714.595 1394.5 714.293C1394.41 714.056 1393.71 713.705 1393.74 713.913C1393.79 714.163 1393.66 714.083 1393.19 713.584C1392.96 713.346 1392.41 713.018 1391.94 712.833C1391.49 712.642 1391.09 712.387 1391.05 712.279C1390.99 712.129 1390.93 712.099 1390.83 712.205C1390.74 712.283 1390.6 712.281 1390.48 712.151C1390.34 712.028 1390.29 712.02 1390.32 712.178C1390.35 712.314 1390.27 712.363 1390.12 712.29C1389.98 712.238 1389.92 712.116 1389.94 712.059C1389.96 711.981 1389.8 711.864 1389.56 711.797C1389.32 711.73 1389.06 711.548 1389 711.426C1388.85 711.16 1388.45 711.169 1388.49 711.42C1388.53 711.578 1387.9 711.227 1387.43 710.85C1387.33 710.785 1387.23 710.769 1387.2 710.876C1387.16 710.961 1387.09 710.96 1387.03 710.86C1386.97 710.78 1386.87 710.815 1386.81 710.929C1386.73 711.099 1386.66 711.099 1386.44 710.881C1386.11 710.577 1385.24 710.21 1384.76 710.197C1384.56 710.187 1384.34 710.02 1384.18 709.782C1384.01 709.523 1383.86 709.428 1383.76 709.484C1383.66 709.541 1383.57 709.547 1383.51 709.446C1383.45 709.366 1383.36 709.373 1383.32 709.458C1383.24 709.629 1382.53 709.256 1382.29 708.924C1382.23 708.823 1382.09 708.843 1382 708.921C1381.9 709.027 1381.7 708.996 1381.4 708.828C1381.16 708.689 1380.88 708.586 1380.8 708.635C1380.72 708.662 1380.36 708.73 1379.99 708.754C1379.47 708.777 1379.31 708.853 1379.22 709.146C1379.14 709.438 1379.04 709.494 1378.81 709.377C1378.58 709.281 1378.5 709.309 1378.45 709.566C1378.42 709.744 1378.34 709.865 1378.26 709.842C1378.18 709.82 1378.12 709.984 1378.12 710.227C1378.1 710.52 1378.03 710.712 1377.89 710.782C1377.76 710.823 1377.51 711.171 1377.3 711.505C1377.08 711.838 1376.7 712.299 1376.43 712.531C1376.01 712.884 1375.96 712.998 1376.02 713.313C1376.09 713.507 1376.07 713.707 1376.01 713.728C1375.94 713.749 1375.69 714.168 1375.46 714.63C1375.21 715.07 1374.89 715.51 1374.75 715.58C1374.59 715.657 1374.55 715.742 1374.66 715.779C1374.83 715.867 1374.25 717.212 1374.03 717.259C1373.97 717.28 1373.77 717.513 1373.59 717.762C1373.43 718.031 1373.2 718.372 1373.07 718.535C1372.93 718.698 1372.86 718.94 1372.91 719.091C1373 719.349 1372.48 720.602 1372.34 720.529C1372.31 720.514 1371.94 721.211 1371.56 722.057C1370.82 723.743 1370.43 724.375 1370.06 724.543C1369.93 724.584 1369.76 724.904 1369.7 725.189C1369.64 725.475 1369.47 725.794 1369.35 725.857L1369.48 725.837Z" fill="#A0B6F2"/>
<path d="M1301.28 600.762C1301.11 601.157 1301.25 601.901 1301.48 601.89C1301.6 601.873 1301.71 601.948 1301.71 602.019C1301.74 602.315 1302.36 602.432 1304.16 602.495C1304.66 602.513 1305.16 602.603 1305.28 602.701C1305.39 602.8 1305.6 602.862 1305.76 602.816C1305.89 602.796 1306.1 602.813 1306.21 602.889C1306.32 602.965 1306.48 602.919 1306.58 602.835C1306.7 602.702 1306.79 602.688 1306.87 602.792C1306.93 602.876 1307.05 602.904 1307.14 602.823C1307.38 602.625 1307.98 602.607 1308.24 602.801C1308.4 602.939 1308.44 602.933 1308.33 602.787C1308.25 602.683 1308.28 602.587 1308.37 602.572C1308.47 602.558 1308.58 602.705 1308.65 602.879C1308.74 603.122 1308.84 603.175 1309.15 603.084C1309.38 603.028 1309.59 603.067 1309.66 603.171C1309.75 603.298 1309.83 603.309 1309.98 603.125C1310.09 602.993 1310.21 602.976 1310.29 603.08C1310.42 603.269 1311.33 603.276 1311.31 603.092C1311.3 603.025 1311.48 603.022 1311.71 603.08C1311.94 603.162 1312.25 603.187 1312.41 603.164C1312.56 603.141 1312.67 603.195 1312.68 603.333C1312.68 603.448 1312.82 603.544 1313.01 603.515C1313.21 603.487 1313.35 603.419 1313.36 603.326C1313.33 603.191 1313.39 603.205 1313.56 603.32C1313.7 603.438 1313.8 603.447 1313.84 603.325C1313.88 603.226 1314.01 603.206 1314.14 603.257C1314.27 603.308 1314.42 603.24 1314.48 603.116C1314.55 602.943 1314.59 602.938 1314.61 603.096C1314.64 603.208 1314.75 603.307 1314.89 603.287C1315.11 603.278 1315.11 603.301 1314.94 603.442C1314.78 603.58 1314.81 603.6 1315.07 603.608C1315.24 603.582 1315.54 603.678 1315.7 603.748C1315.85 603.841 1315.97 603.846 1315.98 603.776C1315.97 603.708 1316.67 603.606 1317.5 603.553C1318.65 603.501 1319.16 603.404 1319.49 603.17C1319.79 602.963 1320.14 602.889 1320.63 602.911C1321.01 602.947 1321.35 602.921 1321.38 602.871C1321.41 602.82 1321.83 602.805 1322.28 602.784C1322.76 602.784 1323.15 602.704 1323.21 602.603C1323.25 602.504 1323.37 602.464 1323.46 602.543C1323.51 602.582 1323.81 602.607 1324.31 602.604C1324.51 602.598 1324.75 602.609 1325.01 602.594C1325.59 602.579 1326.2 602.558 1326.86 602.532C1328.19 602.476 1329.69 602.443 1331.34 602.387C1337.97 602.111 1347.11 601.747 1357.6 601.324C1362.62 601.099 1367.14 600.971 1367.68 601.032C1368.23 601.09 1368.76 601.058 1368.96 600.937C1369.14 600.84 1369.53 600.783 1369.84 600.831C1370.52 600.917 1378.68 600.673 1378.9 600.549C1378.95 600.54 1379.56 600.474 1380.53 600.425C1381.51 600.375 1382.82 600.322 1384.23 600.278C1391.37 600.044 1400.75 599.668 1405.71 599.406C1407.99 599.281 1410.46 599.244 1411.21 599.273C1411.96 599.326 1412.69 599.288 1412.86 599.217C1412.95 599.18 1414.63 599.073 1417.29 598.94C1419.95 598.828 1423.58 598.645 1427.53 598.483C1435.44 598.161 1443.9 597.803 1446.32 597.703C1452.33 597.474 1456.86 597.298 1459.92 597.174C1460.76 597.167 1461.18 597.198 1461.23 597.26C1461.29 597.344 1461.43 597.324 1461.57 597.211C1461.76 597.044 1461.88 597.072 1462.23 597.345C1462.56 597.599 1462.71 597.646 1462.92 597.499C1463.1 597.381 1463.23 597.361 1463.4 597.499C1463.57 597.637 1463.62 597.628 1463.65 597.462C1463.68 597.295 1463.74 597.287 1463.85 597.433C1464.01 597.642 1464.3 597.621 1464.56 597.398C1464.65 597.316 1464.84 597.358 1464.95 597.434C1465.07 597.533 1465.26 597.575 1465.35 597.538C1465.44 597.501 1465.74 597.574 1465.98 597.7C1466.49 597.973 1467.62 598.017 1467.72 597.794C1467.74 597.72 1467.86 597.703 1467.95 597.759C1468.2 597.908 1468.64 597.913 1468.53 597.767C1468.48 597.705 1468.59 597.62 1468.75 597.62C1468.9 597.597 1469.02 597.673 1468.99 597.724C1468.96 597.797 1469.27 597.845 1469.71 597.85C1470.31 597.854 1470.5 597.781 1470.6 597.558C1470.71 597.287 1470.71 597.287 1470.73 597.538C1470.76 597.696 1470.81 597.828 1470.87 597.842C1471.92 597.92 1472.78 597.887 1472.83 597.74C1472.87 597.642 1472.96 597.582 1473.04 597.571C1473.12 597.559 1473.16 597.647 1473.11 597.723C1473.07 597.822 1473.1 597.887 1473.18 597.875C1473.26 597.864 1473.36 597.779 1473.4 597.68C1473.44 597.582 1473.67 597.525 1473.9 597.561C1474.13 597.597 1474.36 597.541 1474.39 597.49C1474.41 597.416 1474.51 597.38 1474.58 597.439C1474.64 597.475 1474.86 597.444 1475.05 597.37C1475.32 597.237 1475.4 597.248 1475.49 597.491C1475.59 597.801 1475.99 597.834 1476.14 597.535C1476.18 597.459 1476.46 597.348 1476.77 597.303C1477.44 597.206 1477.54 597.121 1477.23 596.935C1477.02 596.803 1477.04 596.778 1477.22 596.775C1477.33 596.757 1477.53 596.845 1477.63 596.969C1477.78 597.132 1477.84 597.101 1477.89 596.816C1477.92 596.579 1478.01 596.497 1478.18 596.542C1478.31 596.592 1478.36 596.561 1478.31 596.499C1478.13 596.294 1478.42 595.927 1478.76 595.901C1479 595.889 1479.01 595.864 1478.86 595.7C1478.59 595.416 1478.61 595.297 1478.97 595.176C1479.23 595.091 1479.24 595.043 1479.04 594.91C1478.85 594.775 1478.86 594.727 1479.13 594.642C1479.5 594.495 1479.51 594.309 1479.15 594.107C1478.93 593.977 1478.92 593.932 1479.07 593.794C1479.19 593.683 1479.23 593.331 1479.18 592.874C1479.13 592.372 1479.17 592.065 1479.29 592.025C1479.41 591.96 1479.41 591.844 1479.29 591.63C1479.2 591.458 1479.18 591.323 1479.24 591.314C1479.45 591.306 1479.64 590.445 1479.43 590.313C1479.3 590.24 1479.29 590.102 1479.4 589.808C1479.6 589.269 1479.55 588.119 1479.31 587.713C1479.17 587.479 1479.17 587.364 1479.3 587.298C1479.42 587.211 1479.42 587.188 1479.26 587.118C1479.11 587.048 1479.1 586.98 1479.22 586.754C1479.34 586.551 1479.34 586.529 1479.19 586.619C1479.1 586.678 1479.02 586.667 1479.01 586.577C1478.98 586.419 1479.16 586.345 1479.42 586.354C1479.52 586.339 1479.52 586.339 1479.48 585.141C1479.48 584.678 1479.48 584.168 1479.53 583.976C1479.58 583.714 1479.49 583.564 1479.26 583.39C1479.07 583.255 1478.96 583.063 1478.99 582.919C1479.03 582.775 1478.94 582.626 1478.79 582.556C1478.53 582.455 1478.52 582.432 1478.78 582.325C1479.13 582.158 1479.12 580.979 1478.76 581.008C1478.59 581.033 1478.57 580.966 1478.67 580.836C1478.79 580.703 1478.74 580.548 1478.57 580.272C1478.4 580.041 1478.33 579.75 1478.36 579.491C1478.39 579.209 1478.34 579.054 1478.24 579.068C1478.15 579.082 1478.15 578.967 1478.28 578.809C1478.39 578.653 1478.47 578.456 1478.45 578.343C1478.43 578.208 1478.41 578.211 1478.33 578.36C1478.27 578.532 1478.21 578.541 1478.05 578.355C1477.9 578.169 1477.93 578.096 1478.15 578.016C1478.36 577.94 1478.4 577.841 1478.29 577.695C1478.21 577.59 1478.15 577.438 1478.11 577.373C1478.1 577.306 1478.07 577.241 1478.05 577.221C1478.04 577.199 1477.96 577.001 1477.92 576.776C1477.88 576.55 1477.79 576.263 1477.72 576.111C1477.65 575.958 1477.6 575.781 1477.61 575.71C1477.61 575.409 1477.33 574.848 1477.22 574.933C1477.08 575.046 1476.7 574.245 1476.8 574.022C1476.84 573.946 1476.77 573.864 1476.63 573.884C1476.49 573.904 1476.44 573.82 1476.48 573.699C1476.53 573.574 1476.49 573.535 1476.34 573.625C1476.21 573.691 1476.11 573.66 1476.09 573.569C1476.08 573.479 1476.01 573.465 1475.92 573.525C1475.82 573.609 1475.79 573.545 1475.84 573.375C1475.89 573.135 1475.85 573.119 1475.64 573.288C1475.5 573.379 1475.36 573.421 1475.37 573.328C1475.33 573.032 1474.73 572.796 1474.49 572.994C1474.24 573.169 1473.73 573.105 1473.8 572.885C1473.86 572.738 1472.79 572.802 1472.67 572.935C1472.62 572.988 1472.48 572.963 1472.35 572.82C1472.23 572.699 1472.04 572.634 1471.93 572.696C1471.82 572.758 1471.62 572.742 1471.47 572.694C1471.08 572.52 1469.97 572.519 1470 572.677C1470.04 572.857 1469.47 572.802 1469.07 572.605C1468.89 572.515 1468.46 572.462 1468.09 572.494C1467.71 572.525 1467.41 572.478 1467.39 572.41C1467.38 572.342 1467.26 572.36 1467.1 572.453C1466.91 572.597 1466.77 572.594 1466.62 572.476C1466.51 572.378 1466.38 572.372 1466.34 572.471C1466.3 572.57 1466.06 572.581 1465.77 572.509C1465.37 572.427 1465.24 572.447 1465.16 572.667C1465.08 572.888 1465.02 572.896 1464.81 572.719C1464.67 572.601 1464.4 572.547 1464.16 572.582C1463.95 572.613 1463.71 572.602 1463.61 572.546C1463.41 572.414 1462.85 572.727 1462.87 572.956C1462.89 573.069 1462.82 573.103 1462.69 572.982C1462.46 572.807 1461.24 572.801 1461.35 572.97C1461.4 573.032 1461.19 573.156 1460.88 573.224C1460.57 573.292 1460.33 573.397 1460.34 573.465C1460.35 573.532 1460.17 573.606 1459.93 573.64C1459.7 573.674 1459.4 573.81 1459.29 573.966C1459.13 574.197 1459.06 574.208 1458.94 574.017C1458.83 573.848 1458.75 573.859 1458.56 574.003C1458.54 574.006 1458.36 574.032 1458.09 574.072C1457.95 574.092 1457.78 574.117 1457.58 574.123C1457.1 574.147 1456.57 574.179 1455.95 574.199C1452 574.361 1446.44 574.618 1439.81 574.893C1426.53 575.422 1408.97 576.115 1391.34 576.817C1373.71 577.474 1356.02 578.117 1342.52 578.632C1335.78 578.854 1330.07 579.041 1325.93 579.183C1324.89 579.218 1323.96 579.239 1323.14 579.266C1322.76 579.275 1322.4 579.281 1322.06 579.285C1321.97 579.299 1321.88 579.288 1321.8 579.277C1321.48 579.277 1321.3 579.258 1321.24 579.244C1320.98 579.165 1320.48 579.146 1320.08 579.181C1319.67 579.24 1319.47 579.201 1319.57 579.117C1319.71 579.004 1319.68 578.939 1319.39 578.773C1319.16 578.643 1319.02 578.641 1319.01 578.759C1318.98 578.855 1318.73 578.915 1318.4 578.848C1318.03 578.809 1317.77 578.871 1317.61 579.01C1317.43 579.221 1317.41 579.202 1317.46 578.869C1317.51 578.561 1317.45 578.477 1317.16 578.404C1316.7 578.286 1316.31 578.459 1316.47 578.69C1316.64 578.944 1316.07 578.817 1315.84 578.55C1315.67 578.344 1315.65 578.347 1315.67 578.576C1315.7 578.849 1315.29 579.002 1315.07 578.78C1314.9 578.619 1314.21 578.603 1314.32 578.772C1314.46 578.984 1314.36 578.953 1313.77 578.714C1313.51 578.59 1312.94 578.535 1312.51 578.575C1312.07 578.615 1311.66 578.559 1311.61 578.475C1311.5 578.351 1311.47 578.357 1311.43 578.501C1311.41 578.596 1311.28 578.662 1311.15 578.611C1311 578.541 1310.95 578.594 1311.03 578.699C1311.11 578.803 1311.06 578.879 1310.93 578.899C1310.81 578.916 1310.69 578.84 1310.68 578.75C1310.66 578.66 1310.5 578.637 1310.28 578.669C1310.07 578.7 1309.82 578.667 1309.71 578.591C1309.49 578.413 1309.19 578.597 1309.33 578.808C1309.41 578.935 1308.78 578.888 1308.28 578.754C1308.17 578.723 1308.1 578.779 1308.12 578.87C1308.13 578.96 1308.06 578.994 1307.99 578.935C1307.9 578.878 1307.85 578.955 1307.86 579.093C1307.89 579.273 1307.8 579.31 1307.54 579.231C1307.18 579.1 1306.35 579.152 1305.99 579.366C1305.84 579.434 1305.59 579.401 1305.37 579.249C1305.14 579.097 1304.97 579.075 1304.91 579.176C1304.87 579.275 1304.78 579.312 1304.71 579.253C1304.61 579.197 1304.56 579.25 1304.58 579.341C1304.61 579.521 1303.89 579.511 1303.57 579.303C1303.48 579.246 1303.39 579.306 1303.36 579.427C1303.32 579.571 1303.16 579.642 1302.87 579.591C1302.62 579.558 1302.39 579.592 1302.34 579.668C1302.29 579.745 1302.05 579.965 1301.79 580.143C1301.41 580.383 1301.32 580.558 1301.38 580.852C1301.43 581.145 1301.39 581.244 1301.17 581.252C1300.95 581.261 1300.91 581.337 1300.99 581.58C1301.04 581.757 1301.05 581.896 1300.97 581.907C1300.89 581.918 1300.93 582.099 1301.05 582.335C1301.16 582.598 1301.2 582.823 1301.12 582.95C1301.06 583.052 1301 583.478 1300.99 583.873C1300.98 584.267 1300.9 584.882 1300.78 585.224C1300.61 585.734 1300.62 585.873 1300.81 586.123C1300.94 586.289 1301.01 586.464 1300.98 586.515C1300.95 586.588 1300.94 587.054 1300.95 587.584C1300.97 588.114 1300.91 588.633 1300.83 588.76C1300.74 588.913 1300.75 588.98 1300.85 588.988C1301.01 588.966 1301.16 590.471 1301.01 590.632C1300.96 590.686 1300.92 590.971 1300.92 591.295C1300.91 591.597 1300.87 592.043 1300.85 592.232C1300.81 592.446 1300.87 592.691 1300.96 592.818C1301.13 593.024 1301.28 594.391 1301.14 594.389C1301.11 594.394 1301.13 595.178 1301.23 596.159C1301.39 598.035 1301.37 598.779 1301.17 599.109C1301.11 599.234 1301.11 599.558 1301.19 599.871C1301.27 600.184 1301.27 600.531 1301.22 600.655L1301.28 600.762Z" fill="#E3E9FB"/>
<path d="M1383.36 458.382C1383.34 458.833 1383.74 459.471 1383.98 459.345C1384.11 459.293 1384.23 459.29 1384.27 459.374C1384.41 459.625 1385.08 459.449 1386.91 458.681C1387.41 458.473 1387.96 458.327 1388.13 458.359C1388.27 458.396 1388.52 458.342 1388.65 458.24C1388.79 458.139 1389 458.067 1389.12 458.087C1389.26 458.102 1389.42 457.996 1389.47 457.843C1389.54 457.663 1389.62 457.621 1389.75 457.685C1389.84 457.736 1389.97 457.707 1390.04 457.62C1390.19 457.327 1390.81 457.023 1391.13 457.092C1391.35 457.136 1391.37 457.131 1391.2 457.028C1391.09 456.959 1391.07 456.87 1391.15 456.828C1391.23 456.786 1391.41 456.862 1391.54 456.998C1391.71 457.195 1391.85 457.187 1392.11 456.962C1392.32 456.797 1392.54 456.748 1392.65 456.817C1392.79 456.903 1392.87 456.861 1392.96 456.654C1393.02 456.474 1393.14 456.4 1393.23 456.451C1393.44 456.567 1394.36 456.171 1394.27 456.004C1394.25 455.938 1394.41 455.854 1394.66 455.821C1394.91 455.789 1395.25 455.687 1395.38 455.586C1395.54 455.48 1395.69 455.517 1395.71 455.606C1395.74 455.716 1395.93 455.721 1396.14 455.627C1396.34 455.533 1396.44 455.371 1396.39 455.287C1396.34 455.159 1396.38 455.149 1396.6 455.193C1396.8 455.242 1396.9 455.195 1396.9 455.079C1396.89 454.986 1397.03 454.885 1397.19 454.872C1397.32 454.842 1397.48 454.736 1397.48 454.593C1397.5 454.401 1397.52 454.374 1397.6 454.519C1397.66 454.625 1397.83 454.657 1397.95 454.583C1398.15 454.489 1398.18 454.506 1398.05 454.723C1397.94 454.913 1397.97 454.93 1398.24 454.822C1398.43 454.733 1398.73 454.663 1398.92 454.668C1399.1 454.673 1399.24 454.643 1399.22 454.577C1399.2 454.51 1399.84 454.108 1400.69 453.678C1401.84 453.112 1402.31 452.794 1402.56 452.432C1402.8 452.096 1403.14 451.879 1403.62 451.699C1404.03 451.56 1404.35 451.392 1404.38 451.338C1404.42 451.284 1404.8 451.057 1405.27 450.854C1405.78 450.647 1406.13 450.402 1406.14 450.282C1406.16 450.161 1406.25 450.092 1406.37 450.111C1405.94 450.491 1412.35 447.488 1420.6 443.738C1422.59 442.841 1424.41 442.1 1424.65 442.068C1424.9 442.036 1425.11 441.942 1425.14 441.816C1425.18 441.69 1425.32 441.611 1425.48 441.599C1425.8 441.574 1429.08 440.242 1429.11 440.094C1429.15 440.04 1430.07 439.595 1431.22 439.123C1434.08 437.935 1437.86 436.373 1439.83 435.504C1440.74 435.109 1441.76 434.738 1442.07 434.691C1442.4 434.638 1442.7 434.547 1442.74 434.421C1442.75 434.372 1443.43 434.053 1444.49 433.601C1445.55 433.127 1447.01 432.536 1448.6 431.894C1451.79 430.631 1455.23 429.265 1456.21 428.877C1457.49 428.375 1458.61 427.957 1459.58 427.574C1460.51 427.246 1461.27 426.956 1461.9 426.719C1462.77 426.427 1463.25 426.296 1463.3 426.331C1463.38 426.382 1463.53 426.325 1463.65 426.158C1463.8 425.936 1463.96 425.923 1464.39 426.061C1464.82 426.198 1464.98 426.186 1465.15 425.981C1465.31 425.781 1465.46 425.747 1465.65 425.823C1465.85 425.894 1465.91 425.857 1465.91 425.692C1465.91 425.527 1465.95 425.495 1466.12 425.598C1466.34 425.736 1466.64 425.622 1466.88 425.309C1466.96 425.196 1467.14 425.156 1467.31 425.21C1467.47 425.269 1467.67 425.246 1467.77 425.177C1467.87 425.108 1468.18 425.083 1468.47 425.112C1469.07 425.21 1470.28 424.866 1470.33 424.62C1470.35 424.521 1470.46 424.474 1470.58 424.494C1470.9 424.563 1471.34 424.414 1471.2 424.306C1471.14 424.249 1471.21 424.163 1471.4 424.096C1471.57 424.057 1471.7 424.027 1471.68 424.126C1471.68 424.197 1472.01 424.145 1472.47 424.019C1473.09 423.831 1473.28 423.692 1473.33 423.446C1473.37 423.155 1473.39 423.15 1473.49 423.411C1473.53 423.567 1473.64 423.658 1473.71 423.643C1474.85 423.385 1475.73 423.044 1475.76 422.896C1475.78 422.798 1475.87 422.684 1475.95 422.664C1476.04 422.645 1476.08 422.706 1476.08 422.8C1476.06 422.898 1476.12 422.955 1476.19 422.94C1476.28 422.92 1476.36 422.785 1476.38 422.686C1476.39 422.565 1476.61 422.444 1476.88 422.385C1477.12 422.33 1477.34 422.232 1477.36 422.133C1477.39 422.034 1477.47 421.992 1477.54 422.022C1477.62 422.051 1477.85 421.953 1478.01 421.775C1478.28 421.551 1478.37 421.553 1478.52 421.755C1478.7 422.018 1479.14 421.919 1479.22 421.596C1479.24 421.498 1479.53 421.29 1479.84 421.15C1480.52 420.853 1480.61 420.74 1480.23 420.637C1479.99 420.575 1479.98 420.553 1480.19 420.481C1480.32 420.452 1480.53 420.451 1480.69 420.533C1480.9 420.626 1480.94 420.594 1480.91 420.296C1480.89 420.042 1480.95 419.934 1481.14 419.938C1481.3 419.948 1481.34 419.894 1481.26 419.864C1481.01 419.732 1481.24 419.258 1481.6 419.13C1481.83 419.053 1481.86 418.999 1481.65 418.906C1481.28 418.731 1481.29 418.588 1481.62 418.349C1481.88 418.174 1481.89 418.124 1481.64 418.063C1481.39 418.002 1481.4 417.952 1481.65 417.777C1482.03 417.528 1481.98 417.328 1481.53 417.24C1481.26 417.184 1481.23 417.145 1481.36 416.95C1481.47 416.809 1481.42 416.467 1481.25 416.011C1481.08 415.534 1481.05 415.236 1481.16 415.139C1481.3 415.038 1481.27 414.927 1481.06 414.74C1480.91 414.61 1480.85 414.482 1480.94 414.462C1481.17 414.385 1481.16 413.471 1480.91 413.41C1480.74 413.378 1480.71 413.245 1480.76 412.928C1480.84 412.346 1480.51 411.198 1480.18 410.898C1479.96 410.711 1479.93 410.6 1480.06 410.477C1480.19 410.354 1480.16 410.314 1479.99 410.305C1479.8 410.278 1479.78 410.211 1479.86 409.96C1479.93 409.731 1479.92 409.686 1479.82 409.827C1479.73 409.918 1479.64 409.938 1479.62 409.849C1479.58 409.694 1479.73 409.566 1480.01 409.502C1480.12 409.477 1480.11 409.433 1479.78 408.285C1479.67 407.842 1479.55 407.327 1479.54 407.117C1479.52 406.864 1479.41 406.723 1479.11 406.628C1478.86 406.566 1478.7 406.392 1478.71 406.249C1478.71 406.084 1478.59 405.971 1478.4 405.966C1478.09 405.942 1478.09 405.942 1478.34 405.722C1478.68 405.433 1478.38 404.303 1478 404.436C1477.8 404.481 1477.77 404.464 1477.86 404.279C1477.93 404.099 1477.87 403.971 1477.61 403.772C1477.38 403.612 1477.24 403.339 1477.21 403.063C1477.18 402.765 1477.1 402.642 1476.98 402.693C1476.87 402.718 1476.84 402.63 1476.95 402.418C1477.04 402.233 1477.07 402.013 1477.02 401.908C1476.99 401.775 1476.93 401.812 1476.9 401.982C1476.86 402.179 1476.8 402.194 1476.58 402.056C1476.35 401.918 1476.36 401.869 1476.6 401.699C1476.79 401.561 1476.83 401.457 1476.69 401.349C1476.57 401.258 1476.45 401.145 1476.41 401.083C1476.39 401.016 1476.31 400.965 1476.28 400.948C1476.26 400.953 1476.14 400.746 1476.06 400.551C1475.96 400.34 1475.79 400.071 1475.67 399.958C1475.57 399.84 1475.46 399.677 1475.43 399.589C1475.36 399.301 1474.93 398.833 1474.83 398.951C1474.71 399.119 1474.09 398.437 1474.14 398.191C1474.16 398.092 1474.06 398.068 1473.93 398.098C1473.77 398.132 1473.7 398.103 1473.73 397.955C1473.76 397.807 1473.69 397.8 1473.56 397.923C1473.44 398.019 1473.31 398.049 1473.28 397.938C1473.26 397.85 1473.16 397.847 1473.08 397.961C1472.99 398.074 1472.94 398.04 1472.96 397.848C1472.96 397.589 1472.91 397.599 1472.72 397.831C1472.6 397.976 1472.45 398.033 1472.43 397.966C1472.33 397.683 1471.61 397.66 1471.38 397.923C1471.15 398.187 1470.57 398.272 1470.62 398.048C1470.65 397.877 1469.49 398.305 1469.4 398.49C1469.35 398.571 1469.18 398.562 1469.02 398.481C1468.86 398.399 1468.63 398.405 1468.52 398.501C1468.4 398.597 1468.19 398.669 1468.02 398.637C1467.55 398.603 1466.35 398.969 1466.41 399.119C1466.46 399.297 1465.85 399.435 1465.36 399.357C1465.17 399.33 1464.66 399.422 1464.27 399.605C1463.87 399.765 1463.52 399.822 1463.5 399.778C1463.49 399.712 1463.35 399.791 1463.2 399.941C1463.02 400.146 1462.88 400.203 1462.67 400.131C1462.49 400.077 1462.39 400.102 1462.37 400.201C1462.35 400.299 1462.09 400.403 1461.74 400.46C1461.27 400.52 1461.15 400.594 1461.12 400.835C1461.09 401.077 1461.03 401.114 1460.77 401.008C1460.6 400.954 1460.28 400.979 1460.06 401.1C1459.83 401.221 1459.55 401.286 1459.45 401.261C1459.18 401.205 1458.66 401.698 1458.74 401.915C1458.77 402.026 1458.73 402.058 1458.56 402.026C1458.26 401.93 1456.93 402.348 1457.11 402.496C1457.17 402.552 1456.99 402.735 1456.66 402.903C1456.34 403.071 1456.12 403.285 1456.13 403.33C1456.15 403.396 1455.97 403.529 1455.73 403.655C1455.48 403.759 1455.22 404.006 1455.13 404.191C1455.02 404.474 1454.93 404.494 1454.78 404.364C1454.61 404.238 1454.53 404.28 1454.36 404.507C1454.34 404.534 1454.15 404.623 1453.87 404.759C1453.51 404.91 1453.03 405.09 1452.42 405.344C1450.76 405.98 1448.45 406.879 1445.68 407.954C1440.13 410.104 1432.81 413.008 1425.53 416.044C1418.25 419.081 1410.97 422.211 1405.46 424.659C1402.7 425.894 1400.36 426.919 1398.68 427.675C1396.81 428.498 1396.37 428.668 1396.2 428.708C1395.91 428.75 1395.36 428.945 1394.98 429.172C1394.57 429.405 1394.34 429.481 1394.42 429.346C1394.52 429.183 1394.45 429.126 1394.12 429.107C1393.84 429.1 1393.7 429.157 1393.71 429.273C1393.73 429.383 1393.47 429.536 1393.11 429.643C1392.7 429.781 1392.45 429.956 1392.34 430.168C1392.21 430.457 1392.18 430.44 1392.15 430.119C1392.09 429.804 1392 429.753 1391.65 429.832C1391.15 429.946 1390.8 430.284 1391.05 430.439C1391.33 430.611 1390.69 430.732 1390.35 430.597C1390.09 430.491 1390.07 430.496 1390.18 430.73C1390.29 430.986 1389.93 431.302 1389.63 431.206C1389.4 431.118 1388.69 431.419 1388.86 431.523C1389.08 431.66 1388.95 431.69 1388.26 431.728C1387.94 431.753 1387.32 431.941 1386.9 432.178C1386.48 432.415 1386.02 432.541 1385.92 432.494C1385.78 432.431 1385.72 432.445 1385.74 432.606C1385.77 432.716 1385.63 432.818 1385.47 432.83C1385.29 432.847 1385.25 432.88 1385.39 432.966C1385.5 433.034 1385.51 433.128 1385.36 433.207C1385.24 433.259 1385.1 433.267 1385.06 433.183C1385.03 433.094 1384.82 433.166 1384.6 433.287C1384.38 433.43 1384.1 433.517 1383.98 433.475C1383.68 433.401 1383.44 433.714 1383.66 433.852C1383.8 433.938 1383.15 434.203 1382.55 434.292C1382.44 434.317 1382.37 434.403 1382.41 434.487C1382.44 434.575 1382.41 434.63 1382.31 434.627C1382.22 434.625 1382.17 434.706 1382.23 434.834C1382.32 435.002 1382.26 435.061 1381.95 435.108C1381.53 435.158 1380.69 435.605 1380.37 435.96C1380.25 436.105 1379.96 436.17 1379.69 436.114C1379.41 436.084 1379.21 436.129 1379.2 436.25C1379.18 436.348 1379.11 436.435 1379.01 436.432C1378.92 436.43 1378.87 436.489 1378.91 436.573C1379 436.74 1378.27 437.046 1377.87 437.02C1377.75 437 1377.69 437.109 1377.7 437.247C1377.74 437.402 1377.57 437.535 1377.25 437.654C1377 437.735 1376.76 437.884 1376.74 437.982C1376.72 438.081 1376.55 438.401 1376.34 438.682C1376.04 439.104 1376.02 439.296 1376.21 439.559C1376.39 439.823 1376.37 439.921 1376.15 440.042C1375.93 440.163 1375.91 440.262 1376.1 440.454C1376.22 440.589 1376.27 440.744 1376.18 440.786C1376.12 440.801 1376.22 440.991 1376.4 441.16C1376.61 441.347 1376.74 441.554 1376.71 441.702C1376.67 441.828 1376.78 442.249 1376.91 442.643C1377.06 443.032 1377.17 443.64 1377.2 444.01C1377.23 444.567 1377.29 444.695 1377.56 444.845C1377.75 444.943 1377.9 445.073 1377.9 445.145C1377.89 445.216 1378.04 445.677 1378.26 446.167C1378.46 446.662 1378.63 447.189 1378.57 447.341C1378.53 447.516 1378.57 447.6 1378.68 447.553C1378.84 447.469 1379.57 448.808 1379.46 449.02C1379.43 449.097 1379.49 449.39 1379.61 449.69C1379.72 449.996 1379.85 450.412 1379.9 450.611C1379.96 450.811 1380.11 451.035 1380.24 451.099C1380.5 451.204 1381.17 452.416 1381.03 452.495C1380.99 452.505 1381.32 453.251 1381.77 454.137C1382.64 455.843 1382.91 456.533 1382.84 456.949C1382.81 457.097 1382.96 457.415 1383.14 457.656C1383.32 457.897 1383.48 458.215 1383.47 458.38L1383.36 458.382Z" fill="#A0B6F2"/>
<path d="M1359.99 355.311C1360.12 355.876 1360.77 356.512 1360.97 356.251C1361.07 356.12 1361.19 356.103 1361.28 356.178C1361.52 356.435 1362.12 355.971 1363.69 354.32C1364.12 353.85 1364.62 353.488 1364.78 353.464C1364.95 353.44 1365.17 353.293 1365.29 353.13C1365.38 352.971 1365.57 352.798 1365.72 352.778C1365.86 352.757 1365.97 352.567 1365.98 352.361C1365.99 352.098 1366.04 352.003 1366.2 352.068C1366.33 352.107 1366.43 352.005 1366.46 351.856C1366.5 351.413 1367.01 350.845 1367.37 350.794C1367.61 350.76 1367.63 350.756 1367.42 350.67C1367.27 350.633 1367.22 350.523 1367.3 350.424C1367.38 350.325 1367.59 350.383 1367.75 350.477C1368 350.645 1368.12 350.6 1368.32 350.221C1368.47 349.938 1368.68 349.762 1368.81 349.802C1368.99 349.863 1369.05 349.768 1369.04 349.477C1369.05 349.243 1369.12 349.087 1369.25 349.127C1369.51 349.178 1370.28 348.31 1370.13 348.156C1370.07 348.078 1370.21 347.912 1370.46 347.789C1370.7 347.638 1371 347.392 1371.09 347.204C1371.2 347.013 1371.34 346.993 1371.44 347.096C1371.51 347.232 1371.7 347.176 1371.85 346.95C1372.01 346.752 1372.07 346.511 1372 346.433C1371.91 346.301 1371.95 346.266 1372.16 346.235C1372.38 346.204 1372.46 346.134 1372.41 345.967C1372.38 345.825 1372.45 345.669 1372.61 345.588C1372.75 345.511 1372.83 345.295 1372.8 345.125C1372.75 344.869 1372.75 344.84 1372.89 344.965C1372.98 345.069 1373.15 345.045 1373.27 344.911C1373.46 344.71 1373.48 344.707 1373.44 345.033C1373.4 345.331 1373.45 345.324 1373.67 345.059C1373.81 344.893 1374.09 344.679 1374.3 344.62C1374.51 344.561 1374.62 344.458 1374.55 344.38C1374.49 344.301 1375.02 343.556 1375.7 342.701C1376.61 341.521 1376.97 340.945 1377.1 340.403C1377.2 339.893 1377.45 339.479 1377.86 339.041C1378.19 338.703 1378.47 338.342 1378.48 338.254C1378.46 338.168 1378.8 337.741 1379.19 337.307C1379.6 336.841 1379.88 336.392 1379.83 336.253C1379.81 336.111 1379.88 335.956 1380 335.939C1380.07 335.928 1380.34 335.657 1380.75 335.191C1381.15 334.697 1381.63 334.132 1382.2 333.44C1382.9 332.582 1383.7 331.593 1384.59 330.505C1388.12 326.155 1392.96 320.103 1398.45 313.113C1401.09 309.766 1403.49 306.799 1403.84 306.518C1404.18 306.236 1404.45 305.847 1404.49 305.638C1404.52 305.429 1404.69 305.142 1404.91 304.995C1405.37 304.668 1409.7 299.3 1409.72 299.034C1409.73 298.917 1410.98 297.31 1412.48 295.435C1416.27 290.728 1421.15 284.438 1423.71 281.071C1424.88 279.535 1426.2 277.889 1426.64 277.477C1427.1 277.061 1427.48 276.57 1427.52 276.361C1427.53 276.272 1428.39 275.099 1429.76 273.273C1431.13 271.475 1432.99 269.024 1435.03 266.343C1439.1 261.013 1443.47 255.291 1444.72 253.656C1447.83 249.569 1450.2 246.492 1451.81 244.398C1452.49 243.572 1452.86 243.141 1452.94 243.188C1453.04 243.203 1453.16 243.04 1453.19 242.802C1453.22 242.448 1453.35 242.342 1453.83 242.274C1454.31 242.206 1454.43 242.101 1454.49 241.742C1454.54 241.445 1454.65 241.282 1454.87 241.28C1455.09 241.249 1455.15 241.182 1455.07 240.99C1454.98 240.798 1455.02 240.734 1455.2 240.767C1455.48 240.815 1455.69 240.522 1455.75 240.018C1455.77 239.841 1455.94 239.7 1456.11 239.676C1456.27 239.653 1456.47 239.508 1456.52 239.384C1456.57 239.232 1456.85 239.046 1457.15 238.916C1457.77 238.683 1458.73 237.613 1458.64 237.275C1458.62 237.162 1458.67 237.038 1458.81 236.989C1459.13 236.885 1459.5 236.454 1459.29 236.396C1459.19 236.381 1459.23 236.2 1459.35 236.038C1459.49 235.872 1459.6 235.798 1459.65 235.908C1459.66 235.994 1459.98 235.744 1460.32 235.316C1460.81 234.723 1460.93 234.472 1460.83 234.166C1460.71 233.803 1460.71 233.775 1460.95 234.032C1461.07 234.16 1461.23 234.225 1461.3 234.187C1462.2 233.213 1462.88 232.33 1462.82 232.134C1462.79 231.992 1462.81 231.843 1462.87 231.748C1462.93 231.652 1463.01 231.727 1463.06 231.838C1463.08 231.98 1463.16 231.998 1463.25 231.928C1463.31 231.861 1463.32 231.655 1463.27 231.516C1463.24 231.374 1463.37 231.094 1463.57 230.89C1463.78 230.685 1463.93 230.431 1463.89 230.32C1463.87 230.207 1463.89 230.086 1463.99 230.073C1464.09 230.059 1464.21 229.808 1464.31 229.531C1464.43 229.106 1464.52 229.064 1464.77 229.233C1465.08 229.451 1465.43 229.052 1465.32 228.629C1465.3 228.487 1465.45 228.115 1465.68 227.762C1466.16 227.023 1466.18 226.817 1465.78 226.932C1465.52 226.998 1465.52 226.969 1465.65 226.775C1465.75 226.644 1465.95 226.529 1466.12 226.533C1466.37 226.528 1466.38 226.439 1466.2 226.143C1466.03 225.876 1466.05 225.699 1466.22 225.586C1466.38 225.506 1466.39 225.417 1466.29 225.43C1466 225.414 1465.95 224.75 1466.21 224.393C1466.39 224.164 1466.37 224.079 1466.15 224.081C1465.71 224.085 1465.64 223.95 1465.82 223.458C1465.95 223.089 1465.94 223.032 1465.68 223.127C1465.42 223.164 1465.42 223.164 1465.55 222.767C1465.75 222.272 1465.59 222.061 1465.15 222.211C1464.88 222.309 1464.82 222.259 1464.84 221.992C1464.86 221.787 1464.64 221.409 1464.22 220.973C1463.8 220.538 1463.62 220.213 1463.66 220.033C1463.72 219.82 1463.63 219.717 1463.37 219.637C1463.16 219.579 1463.04 219.45 1463.1 219.383C1463.28 219.154 1462.77 218.118 1462.52 218.183C1462.35 218.207 1462.23 218.107 1462.11 217.716C1461.86 216.994 1460.95 215.898 1460.48 215.732C1460.19 215.627 1460.1 215.524 1460.14 215.343C1460.18 215.134 1460.15 215.109 1459.97 215.193C1459.79 215.277 1459.73 215.227 1459.67 214.885C1459.61 214.573 1459.61 214.544 1459.55 214.757C1459.52 214.906 1459.44 214.976 1459.38 214.898C1459.26 214.769 1459.3 214.5 1459.56 214.26C1459.64 214.161 1459.61 214.136 1458.69 213.012C1458.35 212.595 1457.96 212.039 1457.84 211.821C1457.69 211.522 1457.5 211.432 1457.2 211.505C1456.93 211.542 1456.7 211.488 1456.62 211.295C1456.54 211.103 1456.36 211.07 1456.18 211.154C1455.89 211.312 1455.88 211.284 1455.99 210.919C1456.14 210.401 1455.25 209.274 1454.97 209.634C1454.84 209.829 1454.78 209.779 1454.76 209.548C1454.72 209.292 1454.6 209.192 1454.27 209.122C1453.99 209.046 1453.68 208.827 1453.5 208.532C1453.33 208.236 1453.18 208.111 1453.08 208.242C1453 208.34 1452.94 208.262 1452.91 207.946C1452.86 207.69 1452.81 207.406 1452.7 207.334C1452.58 207.205 1452.56 207.266 1452.62 207.461C1452.67 207.717 1452.65 207.749 1452.38 207.73C1452.13 207.707 1452.09 207.625 1452.2 207.317C1452.3 207.04 1452.28 206.898 1452.1 206.865C1451.94 206.829 1451.76 206.767 1451.7 206.717C1451.65 206.667 1451.56 206.62 1451.52 206.627C1451.49 206.631 1451.29 206.484 1451.09 206.309C1450.89 206.133 1450.58 205.915 1450.42 205.85C1450.26 205.785 1450.07 205.667 1450.02 205.556C1449.82 205.264 1449.16 204.98 1449.12 205.189C1449.1 205.455 1448.19 205.03 1448.09 204.724C1448.06 204.61 1447.95 204.627 1447.85 204.758C1447.75 204.889 1447.62 204.877 1447.6 204.735C1447.56 204.536 1447.49 204.575 1447.41 204.791C1447.35 204.975 1447.24 205.049 1447.17 204.97C1447.09 204.895 1447.02 204.934 1447 205.111C1446.99 205.289 1446.91 205.27 1446.82 205.05C1446.7 204.776 1446.65 204.782 1446.59 205.141C1446.56 205.378 1446.47 205.537 1446.4 205.459C1446.16 205.202 1445.49 205.588 1445.42 206.006C1445.35 206.425 1444.89 206.869 1444.79 206.563C1444.75 206.364 1443.9 207.477 1443.92 207.736C1443.94 207.85 1443.78 207.93 1443.59 207.929C1443.4 207.956 1443.2 208.072 1443.15 208.224C1443.1 208.377 1442.94 208.574 1442.76 208.658C1442.31 208.897 1441.43 209.956 1441.55 210.085C1441.7 210.238 1441.2 210.746 1440.75 210.956C1440.54 211.044 1440.14 211.421 1439.87 211.809C1439.6 212.198 1439.3 212.473 1439.24 212.395C1439.18 212.345 1439.11 212.472 1439.06 212.741C1438.99 213.071 1438.9 213.202 1438.68 213.232C1438.49 213.259 1438.41 213.358 1438.43 213.5C1438.46 213.643 1438.29 213.901 1438.01 214.115C1437.62 214.432 1437.53 214.591 1437.63 214.869C1437.73 215.175 1437.69 215.238 1437.41 215.279C1437.21 215.306 1436.93 215.521 1436.78 215.776C1436.63 216.03 1436.43 216.263 1436.31 216.28C1436.03 216.378 1435.82 217.225 1436 217.403C1436.09 217.507 1436.06 217.599 1435.89 217.623C1435.55 217.67 1434.57 218.889 1434.8 218.943C1434.9 218.958 1434.82 219.291 1434.61 219.67C1434.41 220.048 1434.3 220.385 1434.37 220.463C1434.42 220.513 1434.33 220.789 1434.15 221.047C1433.98 221.305 1433.86 221.731 1433.88 221.99C1433.92 222.363 1433.87 222.458 1433.66 222.4C1433.45 222.342 1433.37 222.441 1433.33 222.767C1433.34 222.824 1433.2 222.99 1433.01 223.308C1432.92 223.467 1432.78 223.633 1432.62 223.859C1432.34 224.22 1432.05 224.64 1431.72 225.096C1429.7 227.773 1426.86 231.5 1423.47 235.975C1416.67 244.901 1407.6 256.627 1398.42 268.31C1389.24 279.992 1379.96 291.632 1372.81 300.431C1369.23 304.816 1366.2 308.542 1364.01 311.214C1363.47 311.875 1362.96 312.471 1362.52 313.029C1362.22 313.393 1361.95 313.693 1361.71 313.961C1361.44 314.261 1361.28 314.431 1361.21 314.469C1360.94 314.624 1360.49 315.096 1360.22 315.513C1359.91 315.966 1359.72 316.138 1359.76 315.929C1359.79 315.692 1359.71 315.645 1359.36 315.753C1359.08 315.85 1358.95 315.956 1359.03 316.091C1359.07 316.202 1358.9 316.488 1358.61 316.763C1358.27 317.073 1358.08 317.392 1358.09 317.683C1358.08 318.062 1358.06 318.066 1357.87 317.713C1357.68 317.361 1357.58 317.346 1357.28 317.564C1356.82 317.891 1356.63 318.444 1356.91 318.52C1357.25 318.618 1356.68 319.019 1356.28 318.96C1355.98 318.915 1355.96 318.947 1356.17 319.179C1356.39 319.439 1356.17 319.967 1355.82 319.958C1355.55 319.966 1354.98 320.573 1355.19 320.66C1355.45 320.74 1355.34 320.842 1354.69 321.139C1354.37 321.272 1353.86 321.752 1353.53 322.207C1353.19 322.663 1352.81 322.98 1352.69 322.969C1352.51 322.936 1352.47 322.999 1352.55 323.163C1352.6 323.302 1352.53 323.457 1352.4 323.535C1352.21 323.619 1352.21 323.707 1352.36 323.744C1352.49 323.784 1352.53 323.894 1352.41 324.028C1352.31 324.159 1352.17 324.179 1352.1 324.101C1352.04 324.022 1351.87 324.135 1351.72 324.389C1351.57 324.644 1351.33 324.823 1351.16 324.847C1350.85 324.891 1350.73 325.345 1350.99 325.425C1351.15 325.461 1350.61 326.033 1350.09 326.37C1349.98 326.444 1349.95 326.564 1350.04 326.639C1350.1 326.718 1350.07 326.81 1349.98 326.852C1349.86 326.869 1349.88 327.011 1349.98 327.143C1350.13 327.325 1350.1 327.417 1349.81 327.575C1349.41 327.778 1348.75 328.63 1348.59 329.207C1348.53 329.42 1348.26 329.603 1347.98 329.672C1347.67 329.716 1347.51 329.885 1347.55 330.024C1347.58 330.166 1347.53 330.29 1347.43 330.304C1347.34 330.317 1347.31 330.438 1347.4 330.513C1347.55 330.695 1346.93 331.337 1346.53 331.423C1346.41 331.44 1346.37 331.592 1346.44 331.756C1346.53 331.948 1346.42 332.168 1346.15 332.411C1345.91 332.619 1345.74 332.877 1345.78 332.987C1345.8 333.101 1345.74 333.547 1345.65 333.998C1345.51 334.6 1345.55 334.856 1345.84 335.106C1346.11 335.36 1346.14 335.502 1345.96 335.732C1345.78 335.961 1345.8 336.075 1346.05 336.243C1346.22 336.365 1346.32 336.526 1346.28 336.589C1346.25 336.653 1346.4 336.835 1346.65 336.975C1346.95 337.137 1347.13 337.344 1347.16 337.514C1347.19 337.685 1347.42 338.148 1347.72 338.572C1347.99 339 1348.36 339.676 1348.51 340.121C1348.75 340.786 1348.85 340.918 1349.18 340.988C1349.39 341.046 1349.58 341.136 1349.62 341.246C1349.64 341.331 1349.97 341.837 1350.36 342.365C1350.75 342.893 1351.1 343.456 1351.11 343.658C1351.15 343.886 1351.21 343.964 1351.27 343.869C1351.41 343.703 1352.61 345.077 1352.59 345.372C1352.61 345.457 1352.77 345.813 1352.97 346.134C1353.2 346.451 1353.48 346.907 1353.6 347.153C1353.72 347.398 1353.95 347.599 1354.13 347.632C1354.43 347.676 1355.53 348.89 1355.41 349.053C1355.37 349.088 1355.98 349.876 1356.75 350.758C1358.24 352.528 1358.77 353.269 1358.84 353.813C1358.87 353.983 1359.11 354.329 1359.4 354.58C1359.68 354.801 1359.94 355.144 1359.97 355.343L1359.99 355.311Z" fill="#E3E9FB"/>
</svg>
