<svg width="1512" height="1024" viewBox="0 0 1512 1024" fill="none" xmlns="http://www.w3.org/2000/svg">
<path d="M142.065 725.815C142.431 726.054 142.653 726.752 142.42 726.869C142.303 726.927 142.213 727.043 142.24 727.1C142.361 727.356 141.752 727.785 139.919 728.757C139.415 729.028 138.93 729.377 138.854 729.52C138.778 729.664 138.579 729.817 138.42 729.862C138.26 729.906 138.07 730.037 137.98 730.153C137.89 730.268 137.701 730.328 137.552 730.279C137.36 730.217 137.273 730.261 137.239 730.419C137.2 730.527 137.096 730.613 136.982 730.601C136.639 730.562 136.012 730.841 135.831 731.143C135.709 731.345 135.688 731.338 135.722 731.18C135.748 731.044 135.678 730.973 135.59 731.017C135.503 731.061 135.44 731.233 135.449 731.405C135.477 731.655 135.395 731.749 135.034 731.825C134.773 731.885 134.553 732.03 134.535 732.145C134.502 732.303 134.414 732.347 134.201 732.278C134.03 732.222 133.871 732.267 133.853 732.382C133.796 732.604 132.854 733.094 132.795 732.93C132.768 732.874 132.571 732.954 132.386 733.135C132.179 733.309 131.893 733.506 131.705 733.565C131.516 733.625 131.426 733.74 131.509 733.839C131.571 733.931 131.466 734.09 131.24 734.186C131.036 734.288 130.82 734.291 130.788 734.184C130.734 734.07 130.676 734.099 130.583 734.286C130.491 734.473 130.383 734.51 130.284 734.454C130.185 734.398 130.026 734.443 129.922 734.53C129.811 734.638 129.617 734.648 129.497 734.585C129.342 734.487 129.292 734.494 129.338 734.63C129.37 734.737 129.294 734.88 129.156 734.932C128.93 735.028 128.944 735.056 129.173 735.082C129.402 735.108 129.386 735.151 129.102 735.276C128.906 735.357 128.641 735.56 128.514 735.712C128.387 735.863 128.262 735.944 128.236 735.887C128.209 735.83 127.447 736.089 126.515 736.486C125.27 737.022 124.705 737.201 124.239 737.17C123.816 737.154 123.417 737.266 122.914 737.536C122.526 737.748 122.155 737.917 122.091 737.896C122.027 737.875 121.584 738.045 121.087 738.294C120.57 738.536 120.135 738.684 120.044 738.606C119.945 738.55 119.815 738.58 119.754 738.681C120.193 738.655 113.915 741.488 105.786 744.951C103.835 745.788 102.094 746.574 101.917 746.733C101.74 746.893 101.522 746.967 101.394 746.925C101.287 746.891 101.115 746.907 101.025 747.022C100.824 747.246 97.6554 748.678 97.5353 748.615C97.4714 748.594 96.5477 748.97 95.4411 749.454C92.6734 750.702 89.0347 752.246 87.0864 753.013C86.1919 753.373 85.2447 753.813 84.9798 754.017C84.7149 754.22 84.431 754.345 84.3323 754.289C84.2896 754.275 83.6072 754.512 82.5668 754.946C81.5264 755.38 80.1011 755.954 78.559 756.587C75.467 757.874 72.1786 759.243 71.2257 759.633C68.8026 760.655 66.9979 761.42 65.7611 761.935C64.8801 762.324 64.4131 762.558 64.403 762.651C64.3716 762.737 64.2256 762.811 64.0259 762.77C63.7543 762.73 63.6298 762.81 63.3874 763.214C63.1528 763.595 63.0203 763.697 62.7408 763.679C62.4906 763.646 62.3447 763.719 62.2313 763.899C62.118 764.079 62.0595 764.109 61.9338 763.996C61.8081 763.883 61.7577 763.89 61.7162 764.07C61.6511 764.314 61.3379 764.453 60.9305 764.393C60.8025 764.352 60.6117 764.483 60.5354 764.627C60.4591 764.771 60.2896 764.909 60.1673 764.917C60.045 764.926 59.7801 765.129 59.5792 765.353C59.1695 765.823 57.9944 766.43 57.77 766.261C57.6926 766.212 57.5836 766.249 57.5017 766.343C57.3142 766.595 56.8553 766.808 56.8755 766.622C56.9069 766.535 56.7711 766.516 56.5747 766.597C56.4075 766.663 56.2964 766.771 56.3525 766.814C56.4086 766.856 56.0931 767.067 55.6633 767.265C55.037 767.544 54.7845 767.583 54.5949 767.449C54.3491 767.273 54.3491 767.273 54.449 767.522C54.495 767.658 54.4904 767.801 54.4242 767.852C53.3367 768.415 52.4131 768.79 52.3009 768.706C52.2235 768.657 52.0877 768.637 52.008 768.659C51.9204 768.703 51.9181 768.775 52.0169 768.831C52.1156 768.887 52.1056 768.98 52.0259 769.002C51.9383 769.046 51.7891 768.998 51.7116 768.949C51.6207 768.871 51.3604 768.931 51.1191 769.07C50.8778 769.209 50.6387 769.276 50.5612 769.227C50.4838 769.177 50.3827 769.193 50.33 769.272C50.2772 769.351 50.0383 769.419 49.8015 769.414C49.4424 769.418 49.3682 769.491 49.3962 769.741C49.422 770.062 49.0135 770.267 48.7172 770.099C48.6398 770.05 48.2649 770.097 47.917 770.201C47.1841 770.446 47.0271 770.419 47.2594 770.109C47.402 769.914 47.4098 769.892 47.1921 769.966C47.0541 770.018 46.898 770.184 46.8216 770.328C46.7431 770.544 46.65 770.538 46.4996 770.296C46.3549 770.105 46.2269 770.064 46.0574 770.201C45.9463 770.31 45.8745 770.311 45.9059 770.225C46.0002 769.966 45.5254 769.764 45.1539 769.933C44.8992 770.043 44.8644 770.008 44.9565 769.821C45.1193 769.44 45.0575 769.348 44.6108 769.396C44.2865 769.435 44.2517 769.4 44.3943 769.205C44.5447 768.989 44.502 768.975 44.1777 769.015C43.7232 769.084 43.6211 768.907 43.9196 768.546C44.0992 768.315 44.0936 768.265 43.8646 768.239C43.7154 768.19 43.5011 767.928 43.3283 767.487C43.1556 767.046 42.9839 766.797 42.8189 766.792C42.6461 766.808 42.5843 766.716 42.636 766.444C42.6562 766.258 42.6315 766.129 42.5518 766.152C42.3049 766.24 41.7293 765.596 41.8797 765.38C41.9774 765.243 41.9235 765.129 41.6856 764.932C41.2445 764.572 40.7463 763.52 40.8103 763.083C40.8406 762.803 40.8002 762.718 40.6353 762.713C40.4703 762.708 40.4434 762.651 40.5837 762.527C40.7318 762.383 40.705 762.326 40.4648 762.2C40.246 762.081 40.2326 762.052 40.411 762.086C40.5389 762.128 40.613 762.055 40.5804 761.948C40.5344 761.813 40.2976 761.809 40.0271 761.962C39.9395 762.006 39.9048 761.97 39.4201 760.946C39.2316 760.548 38.9656 760.101 38.8556 759.945C38.6896 759.746 38.702 759.582 38.8681 759.322C39.0185 759.106 39.0253 758.891 38.9288 758.764C38.8244 758.658 38.8446 758.472 38.9849 758.348C39.2071 758.131 39.2072 758.131 38.8694 758.142C38.4092 758.162 37.9031 757.131 38.2959 756.969C38.4923 756.888 38.4868 756.838 38.3241 756.761C38.1322 756.699 38.1153 756.549 38.1827 756.234C38.2557 755.968 38.2007 755.662 38.0425 755.442C37.8843 755.222 37.8461 755.065 37.9841 755.013C38.093 754.976 38.0314 754.884 37.8473 754.8C37.6554 754.738 37.4949 754.59 37.4624 754.483C37.4164 754.348 37.4668 754.34 37.5925 754.453C37.7609 754.58 37.8058 754.522 37.8844 754.307C37.9709 754.07 37.9147 754.027 37.633 754.081C37.3805 754.119 37.2895 754.042 37.3232 753.884C37.3704 753.755 37.3614 753.583 37.3637 753.512C37.366 753.44 37.3468 753.362 37.376 753.347C37.3839 753.326 37.3402 753.119 37.2964 752.912C37.2314 752.698 37.1977 752.398 37.2101 752.233C37.2224 752.069 37.1922 751.89 37.144 751.827C36.9936 751.585 37.0351 750.948 37.2001 750.954C37.3998 750.994 37.4427 750.093 37.2317 749.952C37.1543 749.903 37.2148 749.802 37.3315 749.743C37.4774 749.67 37.5088 749.584 37.4179 749.506C37.3057 749.422 37.3428 749.386 37.537 749.376C37.7019 749.382 37.8052 749.295 37.7648 749.209C37.7244 749.124 37.8119 749.08 37.9264 749.093C38.0835 749.12 38.0857 749.048 37.9466 748.907C37.7727 748.73 37.8098 748.694 38.1105 748.719C38.3182 748.738 38.4483 748.708 38.4293 748.629C38.3373 748.359 38.8479 747.874 39.2126 747.92C39.5561 747.958 40.0544 747.638 39.8648 747.504C39.7312 747.413 40.9018 746.949 41.0937 747.011C41.179 747.039 41.3115 746.937 41.3744 746.765C41.4372 746.592 41.628 746.461 41.7717 746.46C41.9153 746.458 42.1195 746.355 42.2598 746.232C42.5932 745.907 43.7446 745.364 43.7906 745.499C43.8501 745.663 44.4124 745.363 44.7402 744.988C44.867 744.836 45.3204 744.573 45.7054 744.433C46.1195 744.278 46.4193 744.11 46.4002 744.032C46.3733 743.975 46.5325 743.93 46.7402 743.949C47.0196 743.967 47.1577 743.916 47.271 743.735C47.3552 743.57 47.4642 743.533 47.5629 743.589C47.6403 743.638 47.9085 743.556 48.1947 743.36C48.5763 743.098 48.7358 743.053 48.9176 743.209C49.0994 743.364 49.179 743.341 49.3159 743.097C49.4001 742.931 49.6785 742.756 49.9254 742.668C50.1644 742.601 50.427 742.469 50.4798 742.39C50.6515 742.18 51.3699 742.172 51.4563 742.393C51.5101 742.506 51.5605 742.499 51.666 742.34C51.84 742.059 53.1004 741.48 53.0644 741.709C53.033 741.795 53.3203 741.792 53.6817 741.716C54.0218 741.633 54.3383 741.615 54.3653 741.672C54.3922 741.729 54.6154 741.705 54.8837 741.623C55.1519 741.541 55.519 741.516 55.703 741.599C55.9802 741.689 56.0442 741.71 56.1015 741.488C56.1509 741.287 56.2383 741.243 56.5099 741.283C56.5526 741.296 56.7198 741.23 57.0464 741.119C57.3809 740.986 57.8747 740.809 58.4931 740.552C60.0352 739.919 62.1956 739.028 64.7489 737.976C69.8926 735.835 76.6681 732.946 83.4593 730.014C90.2506 727.082 97.0441 724.078 102.208 721.751C104.779 720.584 106.958 719.579 108.552 718.867C110.272 718.075 110.747 717.819 110.879 717.717C111.093 717.522 111.627 717.237 112.041 717.082C112.484 716.912 112.696 716.788 112.539 716.761C112.331 716.742 112.341 716.649 112.558 716.382C112.738 716.151 112.884 716.078 112.945 716.17C113.015 716.241 113.283 716.159 113.62 715.955C113.986 715.736 114.305 715.647 114.518 715.716C114.816 715.812 114.832 715.769 114.588 715.522C114.388 715.288 114.419 715.202 114.692 714.977C115.118 714.657 115.594 714.595 115.556 714.896C115.51 715.218 116.018 714.804 116.123 714.453C116.217 714.194 116.225 714.173 116.333 714.4C116.432 714.649 116.937 714.572 117.047 714.27C117.134 714.033 117.834 713.682 117.806 713.89C117.762 714.141 117.887 714.06 118.355 713.562C118.585 713.323 119.134 712.995 119.606 712.81C120.058 712.619 120.461 712.364 120.5 712.257C120.555 712.106 120.613 712.076 120.718 712.183C120.809 712.26 120.952 712.258 121.071 712.128C121.211 712.005 121.262 711.997 121.228 712.155C121.202 712.291 121.28 712.34 121.426 712.267C121.564 712.216 121.632 712.093 121.605 712.036C121.586 711.958 121.748 711.842 121.987 711.774C122.226 711.707 122.483 711.526 122.551 711.403C122.696 711.137 123.098 711.147 123.054 711.397C123.021 711.555 123.649 711.205 124.12 710.827C124.216 710.762 124.317 710.746 124.349 710.853C124.39 710.938 124.462 710.938 124.522 710.837C124.575 710.758 124.682 710.792 124.735 710.906C124.816 711.077 124.888 711.076 125.11 710.859C125.436 710.554 126.309 710.187 126.79 710.174C126.985 710.165 127.212 709.998 127.371 709.76C127.537 709.5 127.691 709.406 127.789 709.462C127.888 709.518 127.981 709.524 128.042 709.423C128.095 709.344 128.188 709.35 128.228 709.435C128.309 709.606 129.017 709.233 129.257 708.901C129.318 708.8 129.454 708.82 129.545 708.898C129.649 709.004 129.851 708.973 130.151 708.805C130.392 708.666 130.668 708.563 130.746 708.612C130.831 708.64 131.188 708.707 131.56 708.731C132.076 708.754 132.239 708.831 132.323 709.123C132.407 709.415 132.506 709.471 132.74 709.354C132.965 709.258 133.051 709.286 133.1 709.543C133.13 709.721 133.205 709.842 133.285 709.82C133.365 709.797 133.424 709.961 133.431 710.204C133.443 710.497 133.516 710.689 133.658 710.759C133.786 710.801 134.04 711.148 134.252 711.482C134.464 711.815 134.845 712.276 135.117 712.509C135.537 712.861 135.591 712.975 135.524 713.291C135.453 713.484 135.475 713.684 135.539 713.705C135.603 713.726 135.856 714.145 136.093 714.607C136.337 715.047 136.654 715.487 136.795 715.557C136.958 715.634 136.998 715.719 136.889 715.756C136.714 715.844 137.297 717.189 137.518 717.236C137.582 717.257 137.782 717.491 137.954 717.739C138.118 718.009 138.351 718.349 138.483 718.512C138.614 718.675 138.693 718.917 138.638 719.068C138.543 719.327 139.064 720.579 139.21 720.506C139.239 720.491 139.605 721.188 139.987 722.034C140.731 723.721 141.121 724.352 141.489 724.52C141.617 724.561 141.786 724.881 141.849 725.166C141.912 725.452 142.081 725.772 142.201 725.835L142.065 725.815Z" fill="#DEB7D5"/>
<path d="M210.272 600.741C210.44 601.136 210.303 601.88 210.065 601.869C209.948 601.852 209.834 601.928 209.841 601.998C209.806 602.294 209.184 602.412 207.392 602.474C206.888 602.493 206.391 602.582 206.273 602.681C206.154 602.779 205.943 602.841 205.791 602.795C205.655 602.775 205.451 602.792 205.337 602.868C205.223 602.944 205.072 602.899 204.967 602.814C204.851 602.681 204.754 602.667 204.675 602.771C204.619 602.856 204.494 602.884 204.409 602.802C204.165 602.604 203.568 602.586 203.312 602.78C203.147 602.918 203.108 602.912 203.215 602.766C203.294 602.662 203.271 602.566 203.174 602.552C203.077 602.537 202.97 602.684 202.897 602.859C202.813 603.101 202.703 603.154 202.399 603.064C202.17 603.007 201.962 603.046 201.883 603.15C201.8 603.277 201.717 603.288 201.571 603.105C201.455 602.972 201.339 602.955 201.259 603.059C201.125 603.248 200.222 603.255 200.236 603.071C200.249 603.004 200.069 603.001 199.838 603.06C199.603 603.141 199.298 603.166 199.142 603.143C198.986 603.12 198.876 603.174 198.871 603.312C198.87 603.427 198.732 603.523 198.537 603.495C198.342 603.466 198.195 603.398 198.192 603.305C198.217 603.17 198.154 603.184 197.993 603.299C197.851 603.417 197.749 603.426 197.711 603.304C197.67 603.206 197.533 603.186 197.404 603.236C197.274 603.287 197.127 603.219 197.069 603.095C197.001 602.923 196.962 602.917 196.933 603.075C196.912 603.187 196.794 603.286 196.658 603.266C196.439 603.257 196.435 603.28 196.609 603.421C196.764 603.559 196.74 603.579 196.478 603.587C196.303 603.562 196.005 603.657 195.852 603.727C195.695 603.82 195.574 603.826 195.567 603.755C195.579 603.687 194.878 603.585 194.047 603.533C192.895 603.48 192.393 603.383 192.056 603.149C191.753 602.942 191.407 602.869 190.922 602.89C190.535 602.926 190.2 602.9 190.169 602.85C190.139 602.799 189.721 602.784 189.264 602.764C188.784 602.763 188.398 602.683 188.337 602.582C188.295 602.483 188.182 602.443 188.088 602.522C188.041 602.561 187.736 602.586 187.236 602.583C187.037 602.577 186.795 602.588 186.537 602.573C185.96 602.558 185.343 602.537 184.687 602.511C183.356 602.455 181.861 602.422 180.211 602.366C173.576 602.09 164.436 601.726 153.946 601.303C148.923 601.078 144.403 600.95 143.872 601.011C143.32 601.069 142.786 601.037 142.588 600.916C142.406 600.82 142.016 600.763 141.707 600.81C141.03 600.896 132.869 600.652 132.652 600.528C132.593 600.519 131.985 600.453 131.013 600.404C130.042 600.354 128.73 600.302 127.317 600.257C120.175 600.023 110.797 599.647 105.841 599.385C103.562 599.261 101.087 599.223 100.341 599.253C99.5911 599.305 98.8575 599.267 98.6903 599.196C98.597 599.16 96.9154 599.053 94.258 598.919C91.5964 598.807 87.9674 598.624 84.014 598.463C76.1073 598.14 67.6464 597.782 65.2229 597.683C59.2205 597.453 54.6895 597.277 51.6298 597.153C50.7904 597.146 50.3645 597.177 50.3131 597.239C50.2575 597.323 50.1211 597.303 49.9817 597.19C49.7922 597.024 49.667 597.052 49.3165 597.325C48.9897 597.578 48.8408 597.626 48.6277 597.479C48.4493 597.36 48.3129 597.34 48.1475 597.478C47.982 597.616 47.9235 597.607 47.8941 597.441C47.8646 597.274 47.8062 597.266 47.6992 597.412C47.5408 597.621 47.2442 597.6 46.985 597.377C46.9 597.295 46.7121 597.337 46.5981 597.413C46.4799 597.512 46.292 597.554 46.1987 597.517C46.1054 597.48 45.8118 597.553 45.5684 597.68C45.0578 597.952 43.929 597.996 43.8299 597.773C43.8034 597.699 43.6865 597.682 43.596 597.739C43.3485 597.888 42.9073 597.893 43.0143 597.746C43.0657 597.684 42.9611 597.599 42.801 597.599C42.6451 597.576 42.531 597.652 42.5617 597.703C42.5883 597.776 42.2794 597.824 41.8381 597.829C41.2368 597.834 41.0501 597.76 40.951 597.537C40.8407 597.266 40.8407 597.266 40.8146 597.517C40.7855 597.675 40.7412 597.807 40.6786 597.821C39.6236 597.899 38.7689 597.866 38.7158 597.72C38.6739 597.621 38.5848 597.561 38.5068 597.55C38.4288 597.539 38.3927 597.626 38.4387 597.702C38.4806 597.801 38.4486 597.866 38.3707 597.854C38.2927 597.843 38.1883 597.758 38.1464 597.659C38.1046 597.561 37.8748 597.504 37.648 597.54C37.4211 597.576 37.1914 597.52 37.1607 597.469C37.1341 597.396 37.0408 597.359 36.9699 597.418C36.9031 597.454 36.6887 597.423 36.5021 597.349C36.2263 597.216 36.1443 597.228 36.0597 597.47C35.9626 597.78 35.5562 597.813 35.411 597.514C35.365 597.438 35.085 597.327 34.7732 597.282C34.1105 597.185 34.006 597.1 34.3203 596.914C34.5248 596.782 34.5094 596.757 34.3299 596.754C34.2129 596.737 34.0167 596.824 33.9139 596.948C33.7638 597.111 33.7095 597.08 33.6619 596.795C33.6254 596.558 33.5403 596.476 33.3719 596.521C33.2425 596.572 33.1883 596.54 33.2397 596.478C33.4176 596.273 33.1248 595.906 32.7893 595.88C32.5513 595.868 32.5359 595.843 32.6861 595.679C32.9585 595.395 32.9403 595.277 32.5825 595.155C32.3179 595.07 32.3067 595.022 32.5111 594.89C32.6961 594.754 32.6849 594.707 32.4203 594.622C32.0471 594.474 32.0413 594.288 32.3988 594.086C32.6227 593.956 32.6311 593.911 32.4764 593.773C32.3565 593.663 32.3213 593.31 32.3653 592.853C32.4175 592.351 32.374 592.044 32.2612 592.004C32.1331 591.939 32.1344 591.823 32.2538 591.609C32.3455 591.437 32.3704 591.302 32.3119 591.294C32.0933 591.285 31.9113 590.424 32.1158 590.292C32.2493 590.219 32.2547 590.081 32.1485 589.787C31.9474 589.248 31.9988 588.098 32.2336 587.692C32.3767 587.458 32.378 587.343 32.2498 587.278C32.1259 587.19 32.13 587.167 32.283 587.097C32.4361 587.027 32.4485 586.959 32.3299 586.733C32.2072 586.53 32.2113 586.508 32.3548 586.598C32.4439 586.657 32.5261 586.646 32.5427 586.556C32.5717 586.398 32.385 586.325 32.1234 586.333C32.0259 586.318 32.026 586.318 32.0663 585.12C32.0713 584.657 32.0651 584.147 32.0203 583.955C31.9685 583.693 32.0559 583.543 32.2882 583.369C32.4731 583.234 32.5885 583.042 32.5549 582.898C32.5213 582.755 32.6088 582.605 32.7619 582.535C33.0206 582.434 33.0247 582.411 32.7643 582.304C32.4147 582.137 32.4314 580.958 32.7864 580.987C32.9618 581.012 32.9742 580.945 32.878 580.815C32.7623 580.682 32.8108 580.527 32.9817 580.251C33.1443 580.02 33.2178 579.73 33.1854 579.47C33.1572 579.188 33.2058 579.033 33.3033 579.047C33.4007 579.062 33.4019 578.946 33.2708 578.788C33.1593 578.632 33.0755 578.435 33.0963 578.322C33.1212 578.187 33.1407 578.19 33.2132 578.339C33.2816 578.511 33.3401 578.52 33.4944 578.334C33.6487 578.148 33.6221 578.075 33.3965 577.996C33.1904 577.919 33.1486 577.82 33.2556 577.674C33.3348 577.57 33.4028 577.417 33.4348 577.353C33.4472 577.285 33.4792 577.22 33.5028 577.2C33.507 577.178 33.5832 576.981 33.6247 576.755C33.6662 576.529 33.7592 576.242 33.8272 576.09C33.8952 575.938 33.9478 575.76 33.9407 575.689C33.9362 575.388 34.2196 574.827 34.3241 574.912C34.4634 575.025 34.8507 574.224 34.7516 574.002C34.7056 573.925 34.7806 573.844 34.9171 573.864C35.0535 573.884 35.1091 573.799 35.0713 573.678C35.0141 573.554 35.0614 573.514 35.2049 573.605C35.333 573.67 35.4389 573.639 35.4555 573.549C35.4721 573.458 35.5346 573.444 35.6238 573.504C35.7283 573.589 35.7603 573.524 35.7113 573.354C35.6554 573.115 35.6984 573.098 35.9074 573.267C36.0509 573.358 36.1832 573.4 36.1803 573.307C36.2148 573.011 36.8187 572.775 37.0625 572.973C37.3105 573.148 37.8226 573.084 37.7429 572.864C37.6899 572.717 38.759 572.781 38.8747 572.914C38.9249 572.968 39.0696 572.942 39.1961 572.799C39.3185 572.678 39.5105 572.613 39.6192 572.675C39.7278 572.738 39.931 572.721 40.0799 572.673C40.4722 572.499 41.5732 572.498 41.5441 572.656C41.511 572.836 42.0816 572.781 42.4781 572.584C42.6548 572.494 43.0848 572.441 43.4593 572.473C43.8338 572.504 44.1428 572.457 44.1552 572.389C44.1676 572.322 44.2845 572.339 44.4475 572.432C44.6412 572.576 44.7817 572.573 44.9236 572.455C45.0418 572.357 45.1629 572.351 45.2048 572.45C45.2466 572.549 45.4848 572.561 45.7784 572.488C46.1736 572.407 46.3099 572.426 46.3895 572.647C46.4691 572.867 46.5277 572.875 46.7405 572.698C46.8823 572.58 47.1523 572.526 47.3862 572.561C47.6006 572.592 47.8427 572.581 47.9331 572.525C48.1375 572.393 48.7004 572.707 48.6784 572.935C48.6576 573.048 48.7314 573.082 48.8537 572.961C49.086 572.786 50.3082 572.78 50.197 572.949C50.1456 573.011 50.3628 573.135 50.6705 573.203C50.9782 573.271 51.2192 573.376 51.2068 573.444C51.1943 573.511 51.3809 573.585 51.6148 573.619C51.8487 573.654 52.144 573.789 52.2556 573.945C52.4131 574.176 52.4911 574.188 52.6064 573.996C52.7175 573.827 52.7955 573.838 52.9892 573.982C53.0087 573.985 53.1841 574.011 53.4569 574.051C53.5934 574.071 53.7688 574.097 53.9679 574.102C54.4439 574.126 54.9785 574.158 55.5952 574.178C59.5486 574.34 65.1056 574.597 71.7401 574.872C85.0131 575.401 102.579 576.094 120.204 576.796C137.836 577.453 155.532 578.096 169.028 578.611C175.772 578.833 181.482 579.02 185.619 579.162C186.653 579.197 187.59 579.218 188.406 579.245C188.784 579.254 189.144 579.26 189.483 579.264C189.581 579.278 189.663 579.267 189.745 579.256C190.065 579.256 190.249 579.237 190.311 579.223C190.566 579.144 191.07 579.125 191.464 579.16C191.873 579.22 192.081 579.18 191.976 579.096C191.837 578.983 191.869 578.918 192.159 578.752C192.383 578.623 192.524 578.62 192.542 578.738C192.565 578.834 192.814 578.894 193.146 578.827C193.514 578.788 193.783 578.85 193.937 578.989C194.119 579.201 194.142 579.181 194.083 578.848C194.04 578.541 194.095 578.456 194.389 578.383C194.851 578.265 195.239 578.438 195.077 578.669C194.91 578.923 195.474 578.797 195.703 578.529C195.881 578.323 195.901 578.326 195.879 578.555C195.848 578.828 196.26 578.981 196.482 578.759C196.651 578.598 197.335 578.582 197.223 578.751C197.084 578.963 197.19 578.932 197.775 578.693C198.037 578.569 198.608 578.514 199.041 578.554C199.474 578.594 199.885 578.539 199.94 578.454C200.043 578.33 200.082 578.336 200.116 578.48C200.138 578.576 200.266 578.641 200.396 578.59C200.549 578.52 200.599 578.573 200.519 578.678C200.44 578.782 200.486 578.858 200.623 578.878C200.74 578.895 200.854 578.819 200.87 578.729C200.887 578.639 201.051 578.617 201.266 578.648C201.48 578.679 201.726 578.646 201.84 578.57C202.053 578.392 202.36 578.576 202.221 578.788C202.137 578.914 202.766 578.867 203.271 578.733C203.377 578.702 203.447 578.758 203.43 578.849C203.414 578.939 203.488 578.973 203.558 578.914C203.649 578.858 203.695 578.934 203.69 579.072C203.656 579.252 203.75 579.289 204.004 579.211C204.369 579.079 205.2 579.131 205.561 579.346C205.708 579.414 205.955 579.38 206.183 579.228C206.411 579.076 206.575 579.054 206.636 579.156C206.678 579.254 206.772 579.291 206.842 579.232C206.933 579.176 206.983 579.229 206.966 579.32C206.933 579.5 207.656 579.49 207.974 579.282C208.065 579.225 208.154 579.285 208.191 579.406C208.225 579.55 208.392 579.621 208.682 579.571C208.928 579.537 209.162 579.571 209.208 579.648C209.254 579.724 209.494 579.944 209.761 580.122C210.137 580.362 210.225 580.537 210.171 580.831C210.117 581.124 210.159 581.223 210.378 581.231C210.596 581.24 210.642 581.316 210.558 581.559C210.505 581.736 210.5 581.875 210.578 581.886C210.655 581.897 210.622 582.078 210.499 582.315C210.39 582.577 210.349 582.802 210.426 582.929C210.487 583.031 210.549 583.457 210.556 583.852C210.564 584.246 210.651 584.861 210.768 585.203C210.934 585.714 210.929 585.852 210.743 586.102C210.612 586.269 210.54 586.443 210.571 586.494C210.597 586.568 210.612 587.033 210.594 587.563C210.577 588.093 210.641 588.612 210.718 588.739C210.81 588.892 210.798 588.959 210.696 588.968C210.54 588.945 210.383 590.45 210.534 590.611C210.584 590.665 210.632 590.95 210.632 591.274C210.637 591.576 210.675 592.022 210.7 592.211C210.741 592.425 210.676 592.67 210.592 592.797C210.414 593.003 210.263 594.37 210.404 594.368C210.442 594.373 210.418 595.157 210.318 596.139C210.153 598.014 210.177 598.758 210.376 599.089C210.433 599.213 210.434 599.537 210.356 599.85C210.278 600.163 210.275 600.51 210.332 600.634L210.272 600.741Z" fill="#F5E9F2"/>
<path d="M128.19 458.359C128.209 458.81 127.808 459.448 127.563 459.322C127.438 459.27 127.323 459.267 127.277 459.351C127.141 459.602 126.469 459.427 124.634 458.658C124.133 458.451 123.593 458.305 123.422 458.336C123.273 458.373 123.033 458.319 122.897 458.218C122.762 458.116 122.549 458.045 122.428 458.064C122.285 458.079 122.128 457.973 122.076 457.82C122.008 457.64 121.926 457.598 121.793 457.662C121.71 457.714 121.579 457.684 121.509 457.597C121.355 457.304 120.741 457 120.422 457.069C120.201 457.113 120.179 457.108 120.346 457.005C120.457 456.936 120.48 456.847 120.399 456.805C120.317 456.763 120.135 456.839 120.006 456.975C119.838 457.172 119.701 457.164 119.436 456.94C119.225 456.774 119.007 456.725 118.896 456.794C118.757 456.88 118.675 456.838 118.591 456.631C118.523 456.451 118.404 456.377 118.321 456.428C118.105 456.544 117.19 456.149 117.281 455.981C117.298 455.915 117.135 455.831 116.889 455.798C116.643 455.766 116.299 455.665 116.163 455.563C116.006 455.457 115.857 455.494 115.834 455.583C115.804 455.694 115.618 455.698 115.411 455.604C115.204 455.511 115.108 455.348 115.154 455.264C115.211 455.136 115.167 455.126 114.947 455.17C114.748 455.219 114.645 455.172 114.653 455.057C114.654 454.963 114.519 454.862 114.36 454.849C114.229 454.82 114.072 454.713 114.063 454.571C114.045 454.378 114.029 454.351 113.944 454.497C113.893 454.602 113.722 454.634 113.603 454.56C113.396 454.466 113.368 454.484 113.496 454.7C113.608 454.89 113.58 454.908 113.308 454.799C113.123 454.71 112.817 454.641 112.63 454.645C112.443 454.65 112.312 454.62 112.33 454.554C112.347 454.487 111.713 454.085 110.854 453.655C109.706 453.09 109.234 452.771 108.983 452.409C108.748 452.074 108.411 451.856 107.926 451.676C107.523 451.537 107.197 451.37 107.165 451.315C107.133 451.261 106.753 451.034 106.273 450.831C105.772 450.624 105.42 450.379 105.406 450.259C105.392 450.138 105.294 450.069 105.173 450.088C105.605 450.468 99.1956 447.465 90.9451 443.715C88.9585 442.819 87.1392 442.077 86.8929 442.045C86.6466 442.013 86.4398 441.919 86.4036 441.793C86.3675 441.667 86.2263 441.588 86.0674 441.576C85.7496 441.551 82.4649 440.219 82.4347 440.071C82.4027 440.017 81.478 439.572 80.3288 439.101C77.4696 437.912 73.6898 436.351 71.7192 435.481C70.8046 435.086 69.7907 434.715 69.4788 434.668C69.145 434.616 68.8449 434.524 68.8088 434.398C68.7987 434.349 68.1185 434.031 67.0567 433.578C66.0007 433.104 64.5355 432.514 62.9449 431.871C59.7578 430.608 56.3202 429.242 55.3341 428.854C54.0537 428.352 52.9365 427.935 51.9722 427.552C51.0399 427.223 50.2823 426.934 49.6501 426.696C48.7775 426.405 48.3026 426.273 48.2471 426.308C48.1638 426.36 48.0166 426.303 47.8989 426.135C47.7493 425.913 47.5905 425.901 47.1601 426.038C46.7296 426.175 46.5707 426.163 46.3933 425.958C46.2378 425.759 46.0848 425.724 45.9024 425.8C45.6981 425.871 45.6384 425.834 45.6359 425.669C45.6333 425.504 45.5954 425.472 45.429 425.575C45.207 425.713 44.9128 425.599 44.6715 425.286C44.5858 425.173 44.4109 425.133 44.2343 425.187C44.0797 425.246 43.8772 425.224 43.7796 425.154C43.6821 425.085 43.3643 425.06 43.0785 425.09C42.4732 425.187 41.2667 424.843 41.2163 424.597C41.1961 424.498 41.0927 424.452 40.9716 424.471C40.6522 424.54 40.205 424.391 40.3496 424.283C40.4109 424.227 40.3412 424.14 40.1504 424.074C39.9755 424.034 39.8444 424.004 39.8645 424.103C39.8687 424.174 39.5349 424.122 39.0818 423.996C38.4597 423.808 38.2646 423.67 38.2142 423.423C38.1755 423.132 38.1536 423.128 38.0612 423.389C38.02 423.544 37.9031 423.635 37.8375 423.62C36.7009 423.362 35.8182 423.021 35.788 422.873C35.7678 422.775 35.6821 422.661 35.5946 422.642C35.5072 422.622 35.4676 422.683 35.4659 422.777C35.4861 422.875 35.4248 422.932 35.3592 422.917C35.2718 422.897 35.192 422.762 35.1718 422.663C35.1575 422.543 34.9347 422.422 34.6724 422.362C34.432 422.308 34.2032 422.209 34.183 422.11C34.1628 422.012 34.0814 421.97 34.004 421.999C33.9267 422.029 33.698 421.93 33.5366 421.752C33.2718 421.528 33.1784 421.53 33.0322 421.732C32.8464 421.995 32.4092 421.896 32.3327 421.573C32.3125 421.475 32.0199 421.268 31.7097 421.127C31.0237 420.83 30.938 420.717 31.3129 420.614C31.5609 420.553 31.5668 420.53 31.3541 420.459C31.223 420.429 31.0144 420.429 30.8539 420.51C30.6437 420.603 30.6059 420.571 30.6387 420.273C30.6597 420.019 30.5959 419.911 30.4092 419.916C30.2445 419.925 30.2125 419.871 30.2899 419.841C30.5337 419.709 30.3116 419.235 29.9518 419.107C29.7173 419.03 29.6853 418.976 29.8955 418.883C30.2663 418.708 30.2579 418.565 29.9275 418.326C29.6728 418.151 29.6626 418.101 29.9106 418.04C30.1586 417.979 30.1485 417.93 29.8938 417.754C29.5197 417.505 29.5726 417.306 30.0132 417.217C30.283 417.161 30.3167 417.122 30.1831 416.927C30.0813 416.786 30.1259 416.444 30.2932 415.988C30.4664 415.511 30.4992 415.213 30.3857 415.116C30.2503 415.015 30.2797 414.905 30.4916 414.718C30.6421 414.587 30.6991 414.459 30.6117 414.439C30.3772 414.363 30.3881 413.449 30.6361 413.387C30.8068 413.356 30.8421 413.223 30.7875 412.905C30.7101 412.323 31.0379 411.176 31.3725 410.875C31.5843 410.688 31.6137 410.578 31.4843 410.454C31.3548 410.331 31.3885 410.292 31.5532 410.282C31.7457 410.255 31.7634 410.189 31.6911 409.937C31.613 409.708 31.6247 409.664 31.7264 409.804C31.8181 409.895 31.9056 409.915 31.9291 409.827C31.9703 409.671 31.8189 409.543 31.5348 409.479C31.4255 409.454 31.4373 409.41 31.7652 408.262C31.8828 407.819 31.9963 407.304 32.0055 407.095C32.0265 406.841 32.1333 406.701 32.4368 406.605C32.6848 406.544 32.8471 406.369 32.8387 406.226C32.8361 406.061 32.9588 405.948 33.1455 405.943C33.4531 405.919 33.4531 405.919 33.2102 405.699C32.8697 405.411 33.1698 404.28 33.5515 404.414C33.7482 404.458 33.776 404.441 33.6861 404.256C33.618 404.076 33.6751 403.948 33.9366 403.749C34.1644 403.589 34.3064 403.316 34.3333 403.04C34.3661 402.742 34.4451 402.619 34.5704 402.671C34.6797 402.695 34.7033 402.607 34.5974 402.395C34.5074 402.21 34.4729 401.991 34.5242 401.885C34.5595 401.752 34.6191 401.789 34.6435 401.959C34.6839 402.156 34.7495 402.171 34.9715 402.033C35.1934 401.895 35.1833 401.846 34.9505 401.676C34.7554 401.538 34.7133 401.434 34.8579 401.326C34.9748 401.235 35.0975 401.122 35.137 401.06C35.1546 400.994 35.2379 400.942 35.2657 400.925C35.2875 400.93 35.4119 400.723 35.4868 400.528C35.5893 400.317 35.7532 400.048 35.8759 399.935C35.9768 399.817 36.0895 399.655 36.113 399.566C36.1895 399.278 36.6149 398.81 36.7225 398.929C36.8402 399.096 37.4615 398.415 37.4111 398.168C37.3909 398.07 37.4901 398.045 37.6213 398.075C37.7743 398.11 37.8516 398.08 37.8214 397.932C37.7911 397.784 37.8626 397.777 37.992 397.9C38.1055 397.997 38.2367 398.026 38.2661 397.916C38.2896 397.827 38.3829 397.825 38.4686 397.938C38.5544 398.051 38.61 398.017 38.5915 397.825C38.5906 397.566 38.6343 397.576 38.8276 397.808C38.9512 397.953 39.0984 398.01 39.116 397.944C39.2144 397.66 39.9391 397.637 40.1703 397.901C40.4015 398.164 40.9815 398.249 40.9251 398.025C40.9008 397.855 42.0618 398.282 42.1518 398.467C42.1997 398.548 42.3644 398.539 42.525 398.458C42.6855 398.377 42.916 398.382 43.0294 398.478C43.1429 398.574 43.3556 398.646 43.5263 398.614C43.9987 398.58 45.1992 398.946 45.1362 399.096C45.0891 399.274 45.7011 399.413 46.1853 399.334C46.3778 399.307 46.8865 399.399 47.2782 399.582C47.6759 399.743 48.0316 399.8 48.0433 399.755C48.061 399.689 48.2022 399.768 48.3476 399.918C48.525 400.123 48.6721 400.18 48.8764 400.109C49.0529 400.055 49.1623 400.079 49.1824 400.178C49.2026 400.277 49.4531 400.38 49.8087 400.437C50.2795 400.497 50.3989 400.571 50.4275 400.813C50.4561 401.054 50.5158 401.091 50.7756 400.985C50.9522 400.931 51.27 400.957 51.4927 401.078C51.7155 401.198 51.9996 401.263 52.0988 401.238C52.3687 401.182 52.8866 401.675 52.8058 401.892C52.7764 402.003 52.8143 402.035 52.985 402.003C53.2885 401.907 54.6142 402.325 54.436 402.473C54.3746 402.53 54.5579 402.712 54.8841 402.88C55.2103 403.048 55.4313 403.262 55.4195 403.307C55.4019 403.373 55.5751 403.507 55.8197 403.633C56.0703 403.736 56.3292 403.983 56.4192 404.168C56.5293 404.451 56.6167 404.471 56.7672 404.341C56.9395 404.215 57.0211 404.257 57.1926 404.484C57.2086 404.511 57.3935 404.6 57.6819 404.736C58.0358 404.887 58.5209 405.067 59.1254 405.322C60.7874 405.957 63.0977 406.856 65.8711 407.931C71.418 410.081 78.7346 412.985 86.0158 416.021C93.2971 419.058 100.577 422.188 106.091 424.636C108.845 425.871 111.191 426.896 112.868 427.652C114.735 428.475 115.176 428.645 115.351 428.685C115.641 428.727 116.192 428.923 116.572 429.15C116.974 429.382 117.208 429.458 117.128 429.323C117.032 429.16 117.094 429.103 117.423 429.084C117.703 429.077 117.85 429.134 117.843 429.25C117.813 429.361 118.074 429.514 118.44 429.62C118.843 429.758 119.098 429.934 119.204 430.146C119.336 430.434 119.364 430.417 119.402 430.097C119.463 429.781 119.546 429.73 119.896 429.809C120.399 429.923 120.749 430.261 120.499 430.416C120.222 430.588 120.862 430.709 121.199 430.574C121.459 430.469 121.481 430.474 121.372 430.707C121.258 430.964 121.614 431.279 121.918 431.184C122.15 431.095 122.858 431.397 122.691 431.5C122.469 431.638 122.6 431.667 123.286 431.705C123.603 431.73 124.225 431.918 124.649 432.155C125.073 432.392 125.526 432.518 125.631 432.472C125.764 432.408 125.829 432.423 125.81 432.583C125.781 432.694 125.916 432.795 126.075 432.807C126.256 432.825 126.294 432.857 126.155 432.943C126.044 433.012 126.042 433.105 126.183 433.184C126.309 433.236 126.446 433.244 126.491 433.16C126.515 433.071 126.727 433.143 126.95 433.264C127.167 433.407 127.445 433.494 127.572 433.452C127.87 433.378 128.111 433.692 127.889 433.829C127.75 433.915 128.399 434.18 129.001 434.269C129.11 434.294 129.18 434.38 129.134 434.464C129.111 434.553 129.143 434.607 129.236 434.604C129.329 434.602 129.377 434.684 129.32 434.812C129.229 434.979 129.283 435.038 129.595 435.085C130.022 435.135 130.853 435.582 131.176 435.937C131.3 436.083 131.584 436.147 131.854 436.091C132.14 436.061 132.336 436.106 132.351 436.227C132.371 436.325 132.441 436.412 132.534 436.409C132.627 436.407 132.681 436.466 132.636 436.55C132.545 436.717 133.275 437.024 133.676 436.997C133.797 436.977 133.861 437.086 133.847 437.224C133.806 437.379 133.979 437.512 134.295 437.631C134.552 437.713 134.79 437.861 134.811 437.959C134.831 438.058 135.001 438.378 135.204 438.659C135.509 439.081 135.528 439.273 135.342 439.537C135.156 439.8 135.176 439.898 135.399 440.019C135.622 440.14 135.642 440.239 135.452 440.431C135.323 440.566 135.282 440.721 135.364 440.763C135.429 440.778 135.333 440.968 135.148 441.138C134.937 441.325 134.812 441.531 134.843 441.679C134.879 441.805 134.767 442.226 134.639 442.62C134.489 443.009 134.374 443.618 134.346 443.987C134.314 444.544 134.257 444.672 133.985 444.822C133.797 444.92 133.646 445.05 133.651 445.122C133.655 445.193 133.509 445.654 133.286 446.144C133.086 446.639 132.922 447.166 132.975 447.319C133.021 447.494 132.975 447.577 132.872 447.53C132.709 447.446 131.983 448.786 132.088 448.998C132.115 449.074 132.06 449.367 131.934 449.668C131.83 449.973 131.696 450.389 131.643 450.589C131.59 450.788 131.438 451.012 131.305 451.076C131.045 451.182 130.376 452.393 130.517 452.472C130.561 452.482 130.224 453.228 129.78 454.114C128.91 455.82 128.634 456.51 128.709 456.926C128.739 457.074 128.585 457.392 128.406 457.633C128.226 457.874 128.072 458.192 128.074 458.357L128.19 458.359Z" fill="#DEB7D5"/>
<path d="M151.555 355.292C151.429 355.857 150.776 356.493 150.577 356.232C150.478 356.101 150.359 356.084 150.272 356.159C150.029 356.416 149.426 355.952 147.86 354.301C147.429 353.831 146.931 353.469 146.763 353.445C146.596 353.421 146.377 353.274 146.259 353.111C146.165 352.952 145.976 352.779 145.832 352.759C145.689 352.739 145.576 352.548 145.564 352.342C145.562 352.079 145.506 351.984 145.347 352.049C145.217 352.088 145.113 351.986 145.091 351.837C145.048 351.394 144.537 350.826 144.179 350.775C143.94 350.741 143.916 350.737 144.127 350.651C144.281 350.614 144.325 350.504 144.245 350.405C144.165 350.306 143.958 350.364 143.794 350.458C143.543 350.626 143.429 350.581 143.227 350.202C143.082 349.919 142.868 349.743 142.739 349.783C142.556 349.845 142.5 349.749 142.503 349.458C142.496 349.224 142.426 349.068 142.296 349.108C142.042 349.159 141.266 348.291 141.416 348.137C141.48 348.059 141.338 347.893 141.09 347.77C140.848 347.619 140.549 347.373 140.46 347.185C140.347 346.994 140.204 346.974 140.112 347.077C140.038 347.213 139.852 347.157 139.696 346.931C139.536 346.733 139.481 346.492 139.544 346.414C139.641 346.282 139.599 346.247 139.384 346.216C139.168 346.186 139.083 346.115 139.138 345.948C139.163 345.806 139.093 345.65 138.936 345.569C138.803 345.492 138.719 345.276 138.75 345.106C138.796 344.85 138.801 344.821 138.656 344.946C138.564 345.05 138.396 345.026 138.273 344.892C138.089 344.691 138.065 344.688 138.104 345.014C138.149 345.312 138.101 345.305 137.879 345.04C137.737 344.874 137.457 344.66 137.247 344.601C137.037 344.542 136.933 344.439 136.996 344.361C137.059 344.282 136.531 343.537 135.851 342.682C134.935 341.503 134.573 340.926 134.45 340.384C134.345 339.874 134.101 339.46 133.689 339.022C133.358 338.684 133.079 338.324 133.071 338.235C133.086 338.15 132.746 337.722 132.358 337.288C131.952 336.822 131.665 336.373 131.714 336.235C131.74 336.092 131.67 335.937 131.55 335.92C131.478 335.91 131.208 335.638 130.802 335.172C130.4 334.678 129.913 334.113 129.351 333.421C128.647 332.563 127.844 331.574 126.961 330.487C123.428 326.136 118.583 320.084 113.097 313.095C110.462 309.747 108.053 306.781 107.712 306.499C107.37 306.217 107.097 305.828 107.061 305.619C107.025 305.41 106.856 305.124 106.637 304.976C106.181 304.649 101.85 299.281 101.824 299.015C101.821 298.898 100.565 297.291 99.0633 295.416C95.2756 290.709 90.3995 284.419 87.8418 281.053C86.6715 279.516 85.349 277.87 84.9083 277.458C84.4437 277.042 84.0663 276.551 84.0303 276.342C84.0217 276.253 83.1537 275.081 81.7903 273.254C80.4218 271.456 78.5577 269.005 76.5143 266.324C72.4462 260.994 68.0809 255.272 66.8303 253.637C63.7156 249.55 61.3512 246.474 59.7417 244.379C59.0566 243.553 58.6926 243.122 58.6107 243.169C58.51 243.184 58.3921 243.021 58.3612 242.784C58.3269 242.429 58.1988 242.323 57.7207 242.255C57.2426 242.187 57.1145 242.082 57.0563 241.724C57.0117 241.426 56.8938 241.263 56.6736 241.261C56.4584 241.23 56.397 241.163 56.4805 240.971C56.5641 240.779 56.5265 240.715 56.3489 240.748C56.0706 240.796 55.8536 240.503 55.797 239.999C55.7798 239.822 55.6091 239.681 55.4417 239.657C55.2744 239.634 55.0797 239.489 55.0284 239.365C54.9822 239.213 54.697 239.027 54.4016 238.897C53.7817 238.664 52.8215 237.594 52.9067 237.257C52.9271 237.143 52.8759 237.019 52.7376 236.97C52.4131 236.866 52.0492 236.435 52.2558 236.377C52.3565 236.362 52.3155 236.181 52.1976 236.019C52.0558 235.853 51.9465 235.779 51.9021 235.889C51.8868 235.975 51.564 235.725 51.224 235.297C50.7422 234.704 50.6156 234.453 50.7196 234.147C50.8338 233.784 50.839 233.756 50.5966 234.013C50.4755 234.142 50.3167 234.206 50.2501 234.168C49.3464 233.194 48.6716 232.311 48.7313 232.115C48.7568 231.973 48.7346 231.824 48.6782 231.729C48.6218 231.633 48.5347 231.708 48.4904 231.819C48.4649 231.961 48.388 231.979 48.3026 231.909C48.2411 231.842 48.229 231.636 48.2784 231.497C48.304 231.355 48.1826 231.075 47.9742 230.871C47.7658 230.666 47.6155 230.412 47.6598 230.301C47.6802 230.188 47.6529 230.067 47.5572 230.054C47.4616 230.04 47.3352 229.789 47.2377 229.513C47.118 229.087 47.0274 229.045 46.7765 229.214C46.4676 229.432 46.1225 229.033 46.223 228.61C46.2485 228.468 46.0948 228.097 45.8641 227.743C45.3839 227.004 45.3718 226.799 45.768 226.913C46.0258 226.979 46.031 226.951 45.8943 226.756C45.7952 226.626 45.5953 226.51 45.4229 226.514C45.1787 226.509 45.1702 226.42 45.3459 226.124C45.5165 225.857 45.4994 225.68 45.3234 225.567C45.1663 225.487 45.1576 225.398 45.2533 225.412C45.5503 225.395 45.5962 224.731 45.3416 224.375C45.1622 224.145 45.1775 224.06 45.3978 224.062C45.8383 224.066 45.9117 223.931 45.7305 223.439C45.6005 223.07 45.6106 223.013 45.8634 223.108C46.1264 223.145 46.1264 223.145 46.0016 222.748C45.7964 222.253 45.9568 222.042 46.3957 222.192C46.6723 222.29 46.7303 222.24 46.7046 221.974C46.6925 221.768 46.9075 221.39 47.329 220.954C47.7505 220.519 47.9312 220.195 47.8902 220.014C47.8303 219.801 47.9225 219.698 48.182 219.618C48.3886 219.56 48.5098 219.431 48.4483 219.364C48.2689 219.135 48.7737 218.099 49.0315 218.164C49.1989 218.188 49.3149 218.088 49.4343 217.697C49.6866 216.975 50.5944 215.879 51.0656 215.713C51.3541 215.608 51.4462 215.505 51.4051 215.324C51.3692 215.115 51.3982 215.09 51.5792 215.174C51.7602 215.258 51.8182 215.208 51.8795 214.867C51.9357 214.554 51.9409 214.525 52.0008 214.738C52.023 214.887 52.1085 214.957 52.1716 214.879C52.2928 214.75 52.243 214.481 51.9919 214.241C51.9116 214.142 51.9406 214.117 52.8535 212.993C53.1982 212.576 53.5924 212.02 53.7049 211.802C53.8567 211.503 54.0445 211.413 54.3502 211.486C54.6131 211.523 54.8437 211.469 54.9272 211.276C55.0108 211.084 55.1883 211.051 55.3693 211.135C55.6597 211.293 55.6648 211.265 55.5587 210.9C55.4065 210.383 56.2955 209.255 56.574 209.615C56.7107 209.81 56.7688 209.76 56.7857 209.529C56.8317 209.273 56.9477 209.173 57.2789 209.103C57.5623 209.027 57.8713 208.809 58.047 208.513C58.2227 208.217 58.3677 208.092 58.4668 208.223C58.5471 208.322 58.6102 208.243 58.6425 207.927C58.6884 207.671 58.7396 207.387 58.8506 207.315C58.9717 207.187 58.9854 207.247 58.9257 207.442C58.8797 207.698 58.8985 207.73 59.1717 207.711C59.4209 207.688 59.4603 207.606 59.344 207.298C59.2466 207.022 59.272 206.879 59.4495 206.846C59.6032 206.81 59.7859 206.748 59.8439 206.698C59.9019 206.648 59.9839 206.602 60.0317 206.608C60.0556 206.612 60.2537 206.465 60.4568 206.29C60.6598 206.115 60.9688 205.896 61.1275 205.831C61.2863 205.766 61.479 205.648 61.5234 205.538C61.723 205.245 62.3871 204.961 62.423 205.17C62.4488 205.436 63.3587 205.011 63.4627 204.705C63.4831 204.592 63.6026 204.609 63.7017 204.739C63.8008 204.87 63.9255 204.859 63.951 204.716C63.9868 204.517 64.0533 204.556 64.137 204.772C64.202 204.956 64.3114 205.03 64.3746 204.951C64.4616 204.876 64.5281 204.915 64.5453 205.092C64.5624 205.27 64.6393 205.251 64.728 205.031C64.8508 204.757 64.8987 204.764 64.9569 205.122C64.9877 205.359 65.0817 205.518 65.1448 205.44C65.3871 205.183 66.0532 205.569 66.1251 205.987C66.1971 206.406 66.6566 206.85 66.7605 206.544C66.7963 206.345 67.6506 207.458 67.6285 207.717C67.6081 207.831 67.7653 207.911 67.9616 207.91C68.1528 207.937 68.3525 208.053 68.3987 208.205C68.4449 208.358 68.6055 208.555 68.7865 208.639C69.234 208.878 70.1225 209.937 70.0013 210.066C69.8511 210.219 70.3483 210.727 70.8009 210.937C71.0058 211.025 71.4038 211.402 71.6771 211.791C71.9505 212.179 72.2443 212.454 72.3074 212.376C72.3655 212.326 72.4406 212.453 72.4902 212.722C72.5536 213.052 72.6527 213.183 72.8678 213.213C73.0591 213.24 73.1394 213.339 73.1138 213.482C73.0883 213.624 73.2626 213.882 73.5428 214.096C73.9271 214.413 74.0211 214.573 73.9222 214.85C73.8182 215.156 73.8558 215.22 74.1427 215.26C74.3339 215.287 74.614 215.502 74.7644 215.757C74.9148 216.011 75.118 216.244 75.2375 216.261C75.5142 216.359 75.7298 217.206 75.5506 217.384C75.4585 217.488 75.4909 217.58 75.6583 217.604C75.993 217.651 76.9753 218.87 76.7448 218.924C76.6441 218.939 76.7313 219.272 76.933 219.651C77.1347 220.029 77.2459 220.366 77.1828 220.444C77.1247 220.494 77.2222 220.771 77.3965 221.029C77.5708 221.287 77.6905 221.712 77.6684 221.971C77.6259 222.344 77.6823 222.439 77.8889 222.381C78.0954 222.323 78.1757 222.422 78.2151 222.748C78.2049 222.805 78.3468 222.971 78.5348 223.289C78.6288 223.448 78.7704 223.614 78.9259 223.84C79.2044 224.201 79.4967 224.621 79.8315 225.077C81.851 227.754 84.6871 231.481 88.0752 235.956C94.8803 244.882 103.953 256.608 113.131 268.291C122.309 279.973 131.593 291.613 138.739 300.412C142.315 304.798 145.347 308.523 147.539 311.196C148.083 311.856 148.588 312.452 149.027 313.01C149.33 313.374 149.595 313.674 149.841 313.942C150.105 314.242 150.271 314.412 150.338 314.45C150.604 314.605 151.059 315.077 151.327 315.495C151.638 315.947 151.827 316.12 151.792 315.91C151.761 315.673 151.843 315.626 152.191 315.734C152.468 315.832 152.596 315.937 152.522 316.073C152.478 316.183 152.647 316.469 152.941 316.744C153.277 317.054 153.465 317.373 153.462 317.664C153.468 318.043 153.491 318.047 153.677 317.694C153.863 317.342 153.964 317.327 154.268 317.545C154.724 317.872 154.919 318.425 154.636 318.501C154.299 318.599 154.865 319 155.268 318.941C155.57 318.896 155.589 318.928 155.375 319.16C155.157 319.421 155.381 319.948 155.726 319.939C155.994 319.948 156.571 320.554 156.36 320.641C156.1 320.721 156.204 320.823 156.862 321.12C157.181 321.253 157.683 321.733 158.018 322.188C158.353 322.644 158.737 322.961 158.862 322.95C159.039 322.917 159.077 322.98 158.999 323.144C158.949 323.283 159.019 323.439 159.153 323.516C159.334 323.6 159.342 323.688 159.188 323.725C159.059 323.765 159.014 323.875 159.137 324.009C159.236 324.14 159.38 324.16 159.443 324.082C159.506 324.003 159.682 324.116 159.832 324.37C159.983 324.625 160.22 324.804 160.388 324.828C160.698 324.872 160.813 325.326 160.554 325.406C160.4 325.442 160.935 326.014 161.462 326.351C161.572 326.425 161.599 326.545 161.512 326.621C161.449 326.699 161.481 326.791 161.572 326.833C161.691 326.85 161.666 326.992 161.569 327.124C161.413 327.306 161.446 327.398 161.736 327.556C162.141 327.759 162.797 328.611 162.963 329.188C163.023 329.401 163.284 329.584 163.566 329.653C163.877 329.697 164.042 329.866 163.993 330.005C163.967 330.147 164.019 330.271 164.114 330.285C164.21 330.298 164.237 330.419 164.15 330.494C163.995 330.676 164.615 331.318 165.016 331.404C165.136 331.421 165.182 331.573 165.104 331.737C165.02 331.929 165.128 332.149 165.403 332.392C165.635 332.6 165.809 332.858 165.765 332.968C165.745 333.082 165.811 333.529 165.902 333.979C166.039 334.581 165.993 334.837 165.703 335.087C165.437 335.341 165.411 335.483 165.591 335.713C165.77 335.942 165.749 336.056 165.499 336.225C165.33 336.346 165.227 336.507 165.265 336.57C165.302 336.634 165.147 336.816 164.901 336.956C164.603 337.118 164.418 337.325 164.388 337.495C164.357 337.666 164.127 338.129 163.83 338.553C163.557 338.981 163.19 339.657 163.037 340.102C162.795 340.767 162.697 340.899 162.366 340.969C162.159 341.027 161.972 341.117 161.927 341.227C161.912 341.312 161.576 341.819 161.187 342.346C160.798 342.874 160.452 343.437 160.44 343.64C160.399 343.867 160.336 343.945 160.279 343.85C160.138 343.684 158.935 345.058 158.955 345.353C158.94 345.438 158.778 345.794 158.573 346.115C158.344 346.432 158.066 346.888 157.949 347.134C157.831 347.38 157.599 347.58 157.421 347.613C157.119 347.657 156.019 348.871 156.136 349.034C156.179 349.069 155.572 349.857 154.8 350.739C153.306 352.509 152.78 353.25 152.707 353.794C152.676 353.965 152.443 354.31 152.152 354.561C151.867 354.783 151.61 355.125 151.574 355.324L151.555 355.292Z" fill="#F5E9F2"/>
<path d="M1369.48 725.836C1369.12 726.075 1368.9 726.773 1369.13 726.89C1369.25 726.949 1369.34 727.064 1369.31 727.121C1369.19 727.377 1369.8 727.806 1371.63 728.779C1372.13 729.049 1372.62 729.398 1372.69 729.542C1372.77 729.686 1372.97 729.838 1373.13 729.883C1373.29 729.928 1373.48 730.059 1373.57 730.174C1373.66 730.29 1373.85 730.349 1374 730.301C1374.19 730.239 1374.28 730.283 1374.31 730.44C1374.35 730.548 1374.45 730.635 1374.57 730.622C1374.91 730.583 1375.54 730.862 1375.72 731.165C1375.84 731.366 1375.86 731.359 1375.83 731.202C1375.8 731.065 1375.87 730.995 1375.96 731.039C1376.05 731.083 1376.11 731.255 1376.1 731.426C1376.07 731.676 1376.15 731.77 1376.52 731.846C1376.78 731.906 1377 732.052 1377.01 732.166C1377.05 732.324 1377.13 732.368 1377.35 732.299C1377.52 732.244 1377.68 732.289 1377.7 732.403C1377.75 732.626 1378.69 733.116 1378.75 732.952C1378.78 732.895 1378.98 732.976 1379.16 733.157C1379.37 733.331 1379.66 733.527 1379.84 733.587C1380.03 733.646 1380.12 733.762 1380.04 733.861C1379.98 733.953 1380.08 734.111 1380.31 734.207C1380.51 734.31 1380.73 734.312 1380.76 734.205C1380.81 734.091 1380.87 734.121 1380.97 734.308C1381.06 734.495 1381.17 734.532 1381.26 734.476C1381.36 734.42 1381.52 734.464 1381.63 734.551C1381.74 734.66 1381.93 734.669 1382.05 734.606C1382.21 734.508 1382.26 734.516 1382.21 734.651C1382.18 734.758 1382.25 734.902 1382.39 734.954C1382.62 735.049 1382.61 735.078 1382.38 735.104C1382.15 735.129 1382.16 735.173 1382.45 735.297C1382.64 735.378 1382.91 735.582 1383.03 735.733C1383.16 735.885 1383.29 735.965 1383.31 735.908C1383.34 735.851 1384.1 736.11 1385.03 736.507C1386.28 737.044 1386.84 737.222 1387.31 737.192C1387.73 737.175 1388.13 737.287 1388.64 737.558C1389.02 737.769 1389.39 737.938 1389.46 737.918C1389.52 737.897 1389.97 738.066 1390.46 738.315C1390.98 738.557 1391.41 738.705 1391.51 738.628C1391.6 738.572 1391.73 738.602 1391.79 738.703C1391.36 738.676 1397.63 741.509 1405.76 744.972C1407.71 745.81 1409.45 746.595 1409.63 746.755C1409.81 746.914 1410.03 746.988 1410.15 746.947C1410.26 746.912 1410.43 746.928 1410.52 747.044C1410.73 747.268 1413.89 748.699 1414.01 748.636C1414.08 748.616 1415 748.991 1416.11 749.476C1418.88 750.724 1422.51 752.268 1424.46 753.034C1425.36 753.395 1426.3 753.835 1426.57 754.038C1426.83 754.241 1427.12 754.366 1427.22 754.31C1427.26 754.297 1427.94 754.533 1428.98 754.967C1430.02 755.401 1431.45 755.976 1432.99 756.609C1436.08 757.896 1439.37 759.264 1440.32 759.654C1442.75 760.676 1444.55 761.441 1445.79 761.956C1446.67 762.345 1447.14 762.58 1447.15 762.673C1447.18 762.759 1447.32 762.832 1447.52 762.791C1447.79 762.752 1447.92 762.832 1448.16 763.235C1448.4 763.617 1448.53 763.718 1448.81 763.7C1449.06 763.667 1449.2 763.741 1449.32 763.921C1449.43 764.101 1449.49 764.13 1449.62 764.017C1449.74 763.904 1449.79 763.912 1449.83 764.091C1449.9 764.335 1450.21 764.475 1450.62 764.415C1450.75 764.374 1450.94 764.504 1451.01 764.648C1451.09 764.792 1451.26 764.93 1451.38 764.939C1451.5 764.947 1451.77 765.151 1451.97 765.375C1452.38 765.844 1453.55 766.451 1453.78 766.282C1453.86 766.233 1453.97 766.27 1454.05 766.364C1454.23 766.617 1454.69 766.829 1454.67 766.643C1454.64 766.557 1454.78 766.537 1454.97 766.618C1455.14 766.684 1455.25 766.793 1455.2 766.835C1455.14 766.877 1455.46 767.088 1455.89 767.287C1456.51 767.566 1456.76 767.604 1456.95 767.471C1457.2 767.295 1457.2 767.295 1457.1 767.544C1457.05 767.679 1457.06 767.822 1457.12 767.873C1458.21 768.436 1459.14 768.812 1459.25 768.727C1459.33 768.678 1459.46 768.658 1459.54 768.681C1459.63 768.724 1459.63 768.796 1459.53 768.852C1459.43 768.908 1459.44 769.001 1459.52 769.024C1459.61 769.068 1459.76 769.019 1459.84 768.97C1459.93 768.892 1460.19 768.953 1460.43 769.091C1460.67 769.23 1460.91 769.297 1460.99 769.248C1461.07 769.199 1461.17 769.214 1461.22 769.294C1461.27 769.373 1461.51 769.44 1461.75 769.436C1462.11 769.44 1462.18 769.512 1462.15 769.762C1462.13 770.084 1462.54 770.289 1462.83 770.12C1462.91 770.071 1463.28 770.118 1463.63 770.223C1464.36 770.467 1464.52 770.44 1464.29 770.13C1464.15 769.935 1464.14 769.914 1464.36 769.988C1464.49 770.04 1464.65 770.206 1464.73 770.35C1464.81 770.565 1464.9 770.559 1465.05 770.318C1465.19 770.126 1465.32 770.085 1465.49 770.223C1465.6 770.331 1465.67 770.332 1465.64 770.246C1465.55 769.988 1466.02 769.786 1466.39 769.954C1466.65 770.065 1466.68 770.029 1466.59 769.842C1466.43 769.461 1466.49 769.369 1466.94 769.417C1467.26 769.457 1467.3 769.421 1467.15 769.227C1467 769.01 1467.05 768.997 1467.37 769.036C1467.83 769.106 1467.93 768.928 1467.63 768.567C1467.45 768.336 1467.46 768.286 1467.68 768.26C1467.83 768.212 1468.05 767.95 1468.22 767.509C1468.39 767.067 1468.56 766.819 1468.73 766.814C1468.9 766.83 1468.96 766.738 1468.91 766.465C1468.89 766.279 1468.92 766.151 1469 766.173C1469.24 766.262 1469.82 765.618 1469.67 765.402C1469.57 765.265 1469.63 765.151 1469.86 764.953C1470.3 764.594 1470.8 763.541 1470.74 763.104C1470.71 762.825 1470.75 762.74 1470.91 762.734C1471.08 762.729 1471.11 762.672 1470.97 762.549C1470.82 762.404 1470.84 762.347 1471.08 762.221C1471.3 762.102 1471.32 762.074 1471.14 762.108C1471.01 762.149 1470.94 762.077 1470.97 761.97C1471.01 761.834 1471.25 761.83 1471.52 761.983C1471.61 762.027 1471.64 761.992 1472.13 760.968C1472.32 760.57 1472.58 760.122 1472.69 759.966C1472.86 759.768 1472.85 759.603 1472.68 759.344C1472.53 759.128 1472.52 758.913 1472.62 758.785C1472.72 758.679 1472.7 758.493 1472.56 758.37C1472.34 758.153 1472.34 758.153 1472.68 758.164C1473.14 758.184 1473.65 757.152 1473.25 756.991C1473.06 756.91 1473.06 756.86 1473.22 756.783C1473.42 756.721 1473.43 756.571 1473.37 756.255C1473.29 755.99 1473.35 755.683 1473.51 755.463C1473.66 755.243 1473.7 755.087 1473.56 755.035C1473.46 754.998 1473.52 754.906 1473.7 754.822C1473.89 754.76 1474.05 754.611 1474.09 754.505C1474.13 754.369 1474.08 754.362 1473.96 754.474C1473.79 754.601 1473.74 754.544 1473.66 754.328C1473.58 754.091 1473.63 754.049 1473.92 754.102C1474.17 754.141 1474.26 754.063 1474.23 753.905C1474.18 753.776 1474.19 753.605 1474.19 753.533C1474.18 753.462 1474.2 753.383 1474.17 753.369C1474.16 753.347 1474.21 753.14 1474.25 752.933C1474.32 752.72 1474.35 752.42 1474.34 752.255C1474.33 752.09 1474.36 751.912 1474.4 751.848C1474.56 751.607 1474.51 750.97 1474.35 750.975C1474.15 751.016 1474.11 750.114 1474.32 749.974C1474.39 749.924 1474.33 749.824 1474.22 749.765C1474.07 749.692 1474.04 749.606 1474.13 749.528C1474.24 749.443 1474.21 749.407 1474.01 749.398C1473.85 749.403 1473.74 749.316 1473.78 749.231C1473.82 749.145 1473.74 749.101 1473.62 749.114C1473.47 749.141 1473.46 749.07 1473.6 748.928C1473.78 748.752 1473.74 748.715 1473.44 748.74C1473.23 748.76 1473.1 748.729 1473.12 748.651C1473.21 748.38 1472.7 747.895 1472.34 747.941C1471.99 747.98 1471.49 747.66 1471.68 747.526C1471.82 747.434 1470.65 746.97 1470.46 747.032C1470.37 747.06 1470.24 746.958 1470.17 746.786C1470.11 746.614 1469.92 746.483 1469.78 746.481C1469.63 746.479 1469.43 746.377 1469.29 746.254C1468.96 745.928 1467.8 745.385 1467.76 745.521C1467.7 745.685 1467.14 745.385 1466.81 745.009C1466.68 744.858 1466.23 744.595 1465.84 744.455C1465.43 744.3 1465.13 744.132 1465.15 744.053C1465.18 743.996 1465.02 743.951 1464.81 743.971C1464.53 743.989 1464.39 743.937 1464.28 743.757C1464.19 743.592 1464.08 743.555 1463.99 743.611C1463.91 743.66 1463.64 743.578 1463.35 743.382C1462.97 743.12 1462.81 743.075 1462.63 743.23C1462.45 743.385 1462.37 743.363 1462.23 743.118C1462.15 742.953 1461.87 742.778 1461.62 742.689C1461.38 742.622 1461.12 742.49 1461.07 742.411C1460.9 742.202 1460.18 742.193 1460.09 742.414C1460.04 742.528 1459.99 742.52 1459.88 742.362C1459.71 742.081 1458.45 741.501 1458.48 741.73C1458.52 741.816 1458.23 741.813 1457.87 741.737C1457.53 741.655 1457.21 741.637 1457.18 741.694C1457.16 741.751 1456.93 741.727 1456.67 741.645C1456.4 741.563 1456.03 741.537 1455.85 741.621C1455.57 741.711 1455.5 741.731 1455.45 741.509C1455.4 741.308 1455.31 741.264 1455.04 741.304C1455 741.318 1454.83 741.252 1454.5 741.141C1454.17 741.008 1453.67 740.831 1453.06 740.573C1451.51 739.94 1449.35 739.05 1446.8 737.998C1441.66 735.857 1434.88 732.968 1428.09 730.035C1421.3 727.103 1414.5 724.1 1409.34 721.773C1406.77 720.606 1404.59 719.601 1403 718.889C1401.28 718.096 1400.8 717.84 1400.67 717.739C1400.46 717.543 1399.92 717.258 1399.51 717.103C1399.06 716.934 1398.85 716.81 1399.01 716.783C1399.22 716.764 1399.21 716.671 1398.99 716.404C1398.81 716.173 1398.67 716.099 1398.6 716.192C1398.53 716.262 1398.27 716.181 1397.93 715.976C1397.56 715.758 1397.24 715.668 1397.03 715.737C1396.73 715.834 1396.72 715.791 1396.96 715.543C1397.16 715.31 1397.13 715.223 1396.86 714.999C1396.43 714.679 1395.95 714.616 1395.99 714.917C1396.04 715.239 1395.53 714.826 1395.43 714.474C1395.33 714.216 1395.32 714.194 1395.22 714.422C1395.12 714.671 1394.61 714.593 1394.5 714.292C1394.41 714.055 1393.71 713.703 1393.74 713.911C1393.79 714.162 1393.66 714.082 1393.19 713.583C1392.96 713.344 1392.41 713.016 1391.94 712.832C1391.49 712.641 1391.09 712.386 1391.05 712.278C1390.99 712.127 1390.94 712.098 1390.83 712.204C1390.74 712.282 1390.6 712.28 1390.48 712.15C1390.34 712.027 1390.29 712.019 1390.32 712.177C1390.35 712.313 1390.27 712.362 1390.12 712.289C1389.99 712.237 1389.92 712.115 1389.94 712.058C1389.96 711.979 1389.8 711.863 1389.56 711.796C1389.32 711.729 1389.07 711.547 1389 711.425C1388.85 711.158 1388.45 711.168 1388.49 711.419C1388.53 711.577 1387.9 711.226 1387.43 710.849C1387.33 710.783 1387.23 710.768 1387.2 710.875C1387.16 710.96 1387.09 710.959 1387.03 710.858C1386.97 710.779 1386.87 710.814 1386.81 710.927C1386.73 711.098 1386.66 711.097 1386.44 710.88C1386.11 710.576 1385.24 710.208 1384.76 710.196C1384.56 710.186 1384.34 710.019 1384.18 709.781C1384.01 709.522 1383.86 709.427 1383.76 709.483C1383.66 709.539 1383.57 709.545 1383.51 709.444C1383.45 709.365 1383.36 709.371 1383.32 709.457C1383.24 709.627 1382.53 709.254 1382.29 708.923C1382.23 708.822 1382.1 708.842 1382 708.919C1381.9 709.025 1381.7 708.994 1381.4 708.826C1381.16 708.688 1380.88 708.584 1380.8 708.634C1380.72 708.661 1380.36 708.728 1379.99 708.753C1379.47 708.775 1379.31 708.852 1379.23 709.144C1379.14 709.437 1379.04 709.493 1378.81 709.376C1378.58 709.28 1378.5 709.308 1378.45 709.564C1378.42 709.743 1378.34 709.864 1378.26 709.841C1378.18 709.819 1378.12 709.983 1378.12 710.226C1378.11 710.519 1378.03 710.711 1377.89 710.781C1377.76 710.822 1377.51 711.17 1377.3 711.503C1377.08 711.837 1376.7 712.297 1376.43 712.53C1376.01 712.883 1375.96 712.997 1376.03 713.312C1376.1 713.506 1376.07 713.706 1376.01 713.727C1375.95 713.747 1375.69 714.166 1375.46 714.628C1375.21 715.069 1374.9 715.509 1374.75 715.578C1374.59 715.655 1374.55 715.74 1374.66 715.778C1374.83 715.865 1374.25 717.21 1374.03 717.258C1373.97 717.278 1373.77 717.512 1373.59 717.76C1373.43 718.03 1373.2 718.371 1373.07 718.534C1372.93 718.697 1372.86 718.939 1372.91 719.09C1373.01 719.348 1372.49 720.601 1372.34 720.527C1372.31 720.513 1371.94 721.209 1371.56 722.056C1370.82 723.742 1370.43 724.374 1370.06 724.541C1369.93 724.583 1369.76 724.903 1369.7 725.188C1369.64 725.473 1369.47 725.793 1369.35 725.856L1369.48 725.836Z" fill="#DEB7D5"/>
<path d="M1301.28 600.761C1301.11 601.156 1301.25 601.9 1301.48 601.888C1301.6 601.871 1301.72 601.947 1301.71 602.018C1301.74 602.314 1302.36 602.431 1304.16 602.493C1304.66 602.512 1305.16 602.602 1305.28 602.7C1305.39 602.799 1305.61 602.86 1305.76 602.815C1305.89 602.795 1306.1 602.812 1306.21 602.888C1306.33 602.964 1306.48 602.918 1306.58 602.833C1306.7 602.701 1306.79 602.686 1306.87 602.791C1306.93 602.875 1307.05 602.903 1307.14 602.821C1307.38 602.623 1307.98 602.606 1308.24 602.8C1308.4 602.938 1308.44 602.932 1308.33 602.786C1308.25 602.681 1308.28 602.585 1308.37 602.571C1308.47 602.557 1308.58 602.703 1308.65 602.878C1308.74 603.12 1308.85 603.174 1309.15 603.083C1309.38 603.026 1309.59 603.066 1309.67 603.17C1309.75 603.297 1309.83 603.308 1309.98 603.124C1310.09 602.991 1310.21 602.974 1310.29 603.079C1310.42 603.267 1311.33 603.274 1311.31 603.091C1311.3 603.023 1311.48 603.02 1311.71 603.079C1311.95 603.16 1312.25 603.185 1312.41 603.163C1312.56 603.14 1312.67 603.193 1312.68 603.331C1312.68 603.447 1312.82 603.543 1313.01 603.514C1313.21 603.486 1313.35 603.418 1313.36 603.325C1313.33 603.189 1313.39 603.203 1313.56 603.319C1313.7 603.437 1313.8 603.445 1313.84 603.324C1313.88 603.225 1314.02 603.205 1314.15 603.256C1314.27 603.306 1314.42 603.238 1314.48 603.114C1314.55 602.942 1314.59 602.936 1314.62 603.094C1314.64 603.207 1314.75 603.306 1314.89 603.286C1315.11 603.277 1315.11 603.299 1314.94 603.441C1314.79 603.579 1314.81 603.599 1315.07 603.607C1315.25 603.581 1315.54 603.677 1315.7 603.747C1315.85 603.84 1315.97 603.845 1315.98 603.775C1315.97 603.707 1316.67 603.604 1317.5 603.552C1318.65 603.5 1319.16 603.403 1319.49 603.168C1319.8 602.962 1320.14 602.888 1320.63 602.91C1321.01 602.946 1321.35 602.92 1321.38 602.869C1321.41 602.818 1321.83 602.804 1322.28 602.783C1322.76 602.782 1323.15 602.703 1323.21 602.601C1323.25 602.502 1323.37 602.463 1323.46 602.542C1323.51 602.581 1323.81 602.606 1324.31 602.602C1324.51 602.596 1324.75 602.607 1325.01 602.593C1325.59 602.578 1326.21 602.557 1326.86 602.531C1328.19 602.475 1329.69 602.441 1331.34 602.385C1337.97 602.11 1347.11 601.745 1357.6 601.323C1362.63 601.098 1367.15 600.969 1367.68 601.03C1368.23 601.089 1368.76 601.057 1368.96 600.935C1369.14 600.839 1369.53 600.782 1369.84 600.83C1370.52 600.916 1378.68 600.672 1378.9 600.547C1378.96 600.539 1379.56 600.473 1380.54 600.423C1381.51 600.374 1382.82 600.321 1384.23 600.277C1391.37 600.042 1400.75 599.667 1405.71 599.405C1407.99 599.28 1410.46 599.242 1411.21 599.272C1411.96 599.325 1412.69 599.287 1412.86 599.216C1412.95 599.179 1414.63 599.072 1417.29 598.938C1419.95 598.827 1423.58 598.643 1427.53 598.482C1435.44 598.159 1443.9 597.802 1446.33 597.702C1452.33 597.473 1456.86 597.296 1459.92 597.173C1460.76 597.166 1461.18 597.196 1461.24 597.258C1461.29 597.343 1461.43 597.323 1461.57 597.21C1461.76 597.043 1461.88 597.071 1462.23 597.344C1462.56 597.597 1462.71 597.645 1462.92 597.498C1463.1 597.379 1463.24 597.359 1463.4 597.497C1463.57 597.635 1463.63 597.627 1463.65 597.46C1463.68 597.294 1463.74 597.285 1463.85 597.432C1464.01 597.64 1464.3 597.62 1464.56 597.397C1464.65 597.315 1464.84 597.357 1464.95 597.433C1465.07 597.531 1465.26 597.573 1465.35 597.537C1465.44 597.5 1465.74 597.573 1465.98 597.699C1466.49 597.972 1467.62 598.015 1467.72 597.792C1467.75 597.719 1467.86 597.702 1467.95 597.758C1468.2 597.907 1468.64 597.912 1468.53 597.766C1468.48 597.704 1468.59 597.619 1468.75 597.619C1468.9 597.596 1469.02 597.672 1468.99 597.723C1468.96 597.796 1469.27 597.843 1469.71 597.848C1470.31 597.853 1470.5 597.779 1470.6 597.556C1470.71 597.286 1470.71 597.286 1470.73 597.537C1470.76 597.694 1470.81 597.827 1470.87 597.841C1471.93 597.918 1472.78 597.886 1472.83 597.739C1472.87 597.64 1472.96 597.581 1473.04 597.57C1473.12 597.558 1473.16 597.645 1473.11 597.722C1473.07 597.82 1473.1 597.885 1473.18 597.874C1473.26 597.862 1473.36 597.778 1473.4 597.679C1473.44 597.58 1473.67 597.523 1473.9 597.56C1474.13 597.596 1474.36 597.539 1474.39 597.488C1474.41 597.415 1474.51 597.378 1474.58 597.437C1474.65 597.474 1474.86 597.443 1475.05 597.369C1475.32 597.236 1475.4 597.247 1475.49 597.49C1475.59 597.8 1475.99 597.833 1476.14 597.534C1476.18 597.457 1476.46 597.347 1476.78 597.301C1477.44 597.204 1477.54 597.12 1477.23 596.934C1477.02 596.802 1477.04 596.776 1477.22 596.773C1477.34 596.756 1477.53 596.843 1477.63 596.967C1477.79 597.131 1477.84 597.099 1477.89 596.815C1477.92 596.578 1478.01 596.496 1478.18 596.54C1478.31 596.591 1478.36 596.56 1478.31 596.498C1478.13 596.292 1478.42 595.925 1478.76 595.899C1479 595.888 1479.01 595.862 1478.86 595.699C1478.59 595.415 1478.61 595.296 1478.97 595.174C1479.23 595.089 1479.24 595.041 1479.04 594.909C1478.85 594.774 1478.86 594.726 1479.13 594.641C1479.5 594.494 1479.51 594.308 1479.15 594.105C1478.93 593.976 1478.92 593.931 1479.07 593.792C1479.19 593.682 1479.23 593.33 1479.18 592.873C1479.13 592.371 1479.17 592.063 1479.29 592.024C1479.42 591.959 1479.41 591.843 1479.3 591.629C1479.2 591.457 1479.18 591.322 1479.24 591.313C1479.46 591.304 1479.64 590.444 1479.43 590.312C1479.3 590.239 1479.29 590.1 1479.4 589.807C1479.6 589.268 1479.55 588.117 1479.32 587.712C1479.17 587.478 1479.17 587.362 1479.3 587.297C1479.42 587.209 1479.42 587.187 1479.27 587.117C1479.11 587.046 1479.1 586.979 1479.22 586.753C1479.34 586.55 1479.34 586.527 1479.19 586.618C1479.1 586.677 1479.02 586.666 1479.01 586.576C1478.98 586.418 1479.16 586.344 1479.43 586.352C1479.52 586.338 1479.52 586.338 1479.48 585.139C1479.48 584.677 1479.48 584.166 1479.53 583.975C1479.58 583.712 1479.49 583.563 1479.26 583.388C1479.08 583.253 1478.96 583.062 1478.99 582.918C1479.03 582.774 1478.94 582.625 1478.79 582.554C1478.53 582.453 1478.52 582.431 1478.78 582.323C1479.13 582.156 1479.12 580.977 1478.76 581.006C1478.59 581.032 1478.57 580.964 1478.67 580.834C1478.79 580.702 1478.74 580.547 1478.57 580.27C1478.4 580.039 1478.33 579.749 1478.36 579.49C1478.39 579.208 1478.34 579.053 1478.25 579.067C1478.15 579.081 1478.15 578.965 1478.28 578.807C1478.39 578.652 1478.47 578.454 1478.45 578.342C1478.43 578.206 1478.41 578.209 1478.34 578.359C1478.27 578.531 1478.21 578.539 1478.05 578.354C1477.9 578.168 1477.93 578.094 1478.15 578.015C1478.36 577.939 1478.4 577.84 1478.29 577.693C1478.21 577.589 1478.15 577.437 1478.11 577.372C1478.1 577.304 1478.07 577.24 1478.05 577.22C1478.04 577.197 1477.97 577 1477.92 576.775C1477.88 576.549 1477.79 576.261 1477.72 576.109C1477.65 575.957 1477.6 575.78 1477.61 575.709C1477.61 575.407 1477.33 574.847 1477.22 574.931C1477.09 575.044 1476.7 574.244 1476.8 574.021C1476.84 573.945 1476.77 573.863 1476.63 573.883C1476.5 573.903 1476.44 573.819 1476.48 573.697C1476.53 573.573 1476.49 573.534 1476.34 573.624C1476.22 573.689 1476.11 573.658 1476.09 573.568C1476.08 573.478 1476.01 573.464 1475.93 573.523C1475.82 573.608 1475.79 573.543 1475.84 573.374C1475.89 573.134 1475.85 573.117 1475.64 573.287C1475.5 573.377 1475.37 573.42 1475.37 573.327C1475.33 573.031 1474.73 572.795 1474.49 572.993C1474.24 573.168 1473.73 573.104 1473.81 572.884C1473.86 572.737 1472.79 572.801 1472.67 572.933C1472.62 572.987 1472.48 572.962 1472.35 572.818C1472.23 572.697 1472.04 572.633 1471.93 572.695C1471.82 572.757 1471.62 572.74 1471.47 572.693C1471.08 572.519 1469.98 572.517 1470 572.675C1470.04 572.856 1469.47 572.8 1469.07 572.603C1468.89 572.514 1468.46 572.461 1468.09 572.492C1467.72 572.524 1467.41 572.476 1467.39 572.409C1467.38 572.341 1467.26 572.358 1467.1 572.451C1466.91 572.596 1466.77 572.593 1466.63 572.475C1466.51 572.376 1466.39 572.371 1466.34 572.47C1466.3 572.568 1466.06 572.58 1465.77 572.507C1465.38 572.426 1465.24 572.446 1465.16 572.666C1465.08 572.886 1465.02 572.895 1464.81 572.717C1464.67 572.599 1464.4 572.546 1464.16 572.58C1463.95 572.612 1463.71 572.601 1463.62 572.544C1463.41 572.412 1462.85 572.726 1462.87 572.955C1462.89 573.067 1462.82 573.101 1462.7 572.98C1462.46 572.806 1461.24 572.799 1461.35 572.968C1461.4 573.03 1461.19 573.155 1460.88 573.223C1460.57 573.291 1460.33 573.396 1460.34 573.463C1460.35 573.531 1460.17 573.605 1459.93 573.639C1459.7 573.673 1459.4 573.809 1459.29 573.964C1459.14 574.196 1459.06 574.207 1458.94 574.016C1458.83 573.846 1458.75 573.858 1458.56 574.002C1458.54 574.005 1458.36 574.031 1458.09 574.07C1457.96 574.09 1457.78 574.116 1457.58 574.122C1457.1 574.145 1456.57 574.177 1455.95 574.198C1452 574.359 1446.44 574.616 1439.81 574.892C1426.54 575.421 1408.97 576.114 1391.35 576.816C1373.71 577.473 1356.02 578.116 1342.52 578.63C1335.78 578.853 1330.07 579.039 1325.93 579.181C1324.9 579.217 1323.96 579.238 1323.14 579.265C1322.76 579.274 1322.41 579.28 1322.07 579.283C1321.97 579.298 1321.89 579.286 1321.8 579.275C1321.48 579.276 1321.3 579.256 1321.24 579.242C1320.98 579.164 1320.48 579.145 1320.08 579.179C1319.68 579.239 1319.47 579.2 1319.57 579.115C1319.71 579.002 1319.68 578.937 1319.39 578.771C1319.17 578.642 1319.02 578.639 1319.01 578.758C1318.98 578.854 1318.74 578.913 1318.4 578.846C1318.03 578.807 1317.77 578.87 1317.61 579.008C1317.43 579.22 1317.41 579.2 1317.47 578.868C1317.51 578.56 1317.45 578.476 1317.16 578.403C1316.7 578.285 1316.31 578.458 1316.47 578.689C1316.64 578.942 1316.08 578.816 1315.85 578.549C1315.67 578.343 1315.65 578.346 1315.67 578.574C1315.7 578.848 1315.29 579.001 1315.07 578.778C1314.9 578.618 1314.21 578.602 1314.33 578.771C1314.46 578.982 1314.36 578.951 1313.77 578.713C1313.51 578.589 1312.94 578.533 1312.51 578.574C1312.07 578.614 1311.66 578.558 1311.61 578.474C1311.51 578.35 1311.47 578.355 1311.43 578.499C1311.41 578.595 1311.28 578.66 1311.15 578.61C1311 578.539 1310.95 578.593 1311.03 578.697C1311.11 578.801 1311.06 578.878 1310.93 578.898C1310.81 578.915 1310.7 578.839 1310.68 578.749C1310.66 578.658 1310.5 578.636 1310.28 578.667C1310.07 578.699 1309.82 578.665 1309.71 578.589C1309.5 578.412 1309.19 578.596 1309.33 578.807C1309.41 578.934 1308.78 578.887 1308.28 578.752C1308.17 578.722 1308.1 578.778 1308.12 578.868C1308.14 578.958 1308.06 578.992 1307.99 578.933C1307.9 578.877 1307.85 578.953 1307.86 579.091C1307.89 579.272 1307.8 579.309 1307.54 579.23C1307.18 579.098 1306.35 579.15 1305.99 579.365C1305.84 579.433 1305.59 579.4 1305.37 579.248C1305.14 579.096 1304.97 579.073 1304.91 579.175C1304.87 579.274 1304.78 579.311 1304.71 579.252C1304.62 579.195 1304.57 579.249 1304.58 579.339C1304.62 579.52 1303.89 579.509 1303.57 579.301C1303.48 579.245 1303.4 579.304 1303.36 579.426C1303.32 579.57 1303.16 579.64 1302.87 579.59C1302.62 579.557 1302.39 579.591 1302.34 579.667C1302.29 579.743 1302.06 579.964 1301.79 580.142C1301.41 580.382 1301.32 580.557 1301.38 580.85C1301.43 581.143 1301.39 581.242 1301.17 581.251C1300.95 581.26 1300.91 581.336 1300.99 581.578C1301.04 581.756 1301.05 581.894 1300.97 581.906C1300.89 581.917 1300.93 582.097 1301.05 582.334C1301.16 582.596 1301.2 582.822 1301.12 582.949C1301.06 583.05 1301 583.476 1300.99 583.871C1300.99 584.266 1300.9 584.881 1300.78 585.222C1300.61 585.733 1300.62 585.871 1300.81 586.122C1300.94 586.288 1301.01 586.463 1300.98 586.514C1300.95 586.587 1300.94 587.052 1300.95 587.583C1300.97 588.113 1300.91 588.632 1300.83 588.759C1300.74 588.911 1300.75 588.979 1300.85 588.987C1301.01 588.964 1301.17 590.47 1301.01 590.631C1300.96 590.685 1300.92 590.97 1300.92 591.294C1300.91 591.596 1300.87 592.041 1300.85 592.23C1300.81 592.445 1300.87 592.69 1300.96 592.817C1301.13 593.022 1301.29 594.39 1301.15 594.387C1301.11 594.393 1301.13 595.177 1301.23 596.158C1301.4 598.033 1301.37 598.778 1301.17 599.108C1301.12 599.232 1301.12 599.557 1301.19 599.87C1301.27 600.182 1301.27 600.529 1301.22 600.653L1301.28 600.761Z" fill="#F5E9F2"/>
<path d="M1383.36 458.381C1383.34 458.832 1383.74 459.469 1383.99 459.343C1384.11 459.292 1384.23 459.289 1384.27 459.373C1384.41 459.624 1385.08 459.448 1386.91 458.68C1387.42 458.472 1387.96 458.326 1388.13 458.358C1388.28 458.395 1388.52 458.34 1388.65 458.239C1388.79 458.138 1389 458.066 1389.12 458.086C1389.26 458.1 1389.42 457.994 1389.47 457.841C1389.54 457.661 1389.62 457.619 1389.76 457.683C1389.84 457.735 1389.97 457.705 1390.04 457.619C1390.19 457.326 1390.81 457.022 1391.13 457.09C1391.35 457.135 1391.37 457.13 1391.2 457.026C1391.09 456.957 1391.07 456.869 1391.15 456.827C1391.23 456.785 1391.41 456.861 1391.54 456.996C1391.71 457.193 1391.85 457.186 1392.11 456.961C1392.32 456.796 1392.54 456.746 1392.65 456.815C1392.79 456.901 1392.87 456.859 1392.96 456.652C1393.03 456.472 1393.14 456.398 1393.23 456.45C1393.44 456.565 1394.36 456.17 1394.27 456.003C1394.25 455.936 1394.41 455.852 1394.66 455.82C1394.91 455.788 1395.25 455.686 1395.39 455.585C1395.54 455.479 1395.69 455.516 1395.72 455.604C1395.74 455.715 1395.93 455.72 1396.14 455.626C1396.34 455.532 1396.44 455.369 1396.4 455.286C1396.34 455.158 1396.38 455.148 1396.6 455.192C1396.8 455.241 1396.9 455.194 1396.9 455.078C1396.89 454.985 1397.03 454.883 1397.19 454.871C1397.32 454.841 1397.48 454.735 1397.49 454.592C1397.5 454.4 1397.52 454.373 1397.6 454.518C1397.66 454.624 1397.83 454.656 1397.95 454.582C1398.15 454.488 1398.18 454.505 1398.05 454.722C1397.94 454.912 1397.97 454.929 1398.24 454.82C1398.43 454.731 1398.73 454.662 1398.92 454.667C1399.11 454.671 1399.24 454.642 1399.22 454.575C1399.2 454.509 1399.84 454.106 1400.7 453.677C1401.84 453.111 1402.31 452.793 1402.57 452.43C1402.8 452.095 1403.14 451.878 1403.62 451.697C1404.03 451.559 1404.35 451.391 1404.38 451.337C1404.42 451.283 1404.8 451.055 1405.28 450.853C1405.78 450.645 1406.13 450.401 1406.14 450.28C1406.16 450.16 1406.25 450.09 1406.38 450.11C1405.94 450.49 1412.35 447.486 1420.6 443.737C1422.59 442.84 1424.41 442.099 1424.66 442.067C1424.9 442.034 1425.11 441.94 1425.15 441.815C1425.18 441.689 1425.32 441.61 1425.48 441.597C1425.8 441.572 1429.08 440.241 1429.11 440.093C1429.15 440.038 1430.07 439.594 1431.22 439.122C1434.08 437.934 1437.86 436.372 1439.83 435.502C1440.74 435.107 1441.76 434.736 1442.07 434.689C1442.4 434.637 1442.7 434.546 1442.74 434.42C1442.75 434.371 1443.43 434.052 1444.49 433.6C1445.55 433.126 1447.01 432.535 1448.6 431.893C1451.79 430.63 1455.23 429.263 1456.21 428.875C1457.5 428.374 1458.61 427.956 1459.58 427.573C1460.51 427.244 1461.27 426.955 1461.9 426.718C1462.77 426.426 1463.25 426.295 1463.3 426.329C1463.38 426.381 1463.53 426.324 1463.65 426.156C1463.8 425.935 1463.96 425.922 1464.39 426.06C1464.82 426.197 1464.98 426.184 1465.16 425.98C1465.31 425.78 1465.46 425.745 1465.65 425.821C1465.85 425.893 1465.91 425.856 1465.91 425.691C1465.92 425.526 1465.95 425.493 1466.12 425.597C1466.34 425.734 1466.64 425.621 1466.88 425.308C1466.96 425.194 1467.14 425.155 1467.31 425.209C1467.47 425.267 1467.67 425.245 1467.77 425.176C1467.87 425.107 1468.18 425.082 1468.47 425.111C1469.08 425.209 1470.28 424.865 1470.33 424.619C1470.35 424.52 1470.46 424.473 1470.58 424.493C1470.9 424.561 1471.34 424.413 1471.2 424.305C1471.14 424.248 1471.21 424.162 1471.4 424.095C1471.57 424.055 1471.7 424.026 1471.68 424.124C1471.68 424.196 1472.01 424.143 1472.47 424.017C1473.09 423.829 1473.28 423.691 1473.33 423.445C1473.37 423.154 1473.4 423.149 1473.49 423.41C1473.53 423.565 1473.65 423.656 1473.71 423.641C1474.85 423.384 1475.73 423.043 1475.76 422.895C1475.78 422.796 1475.87 422.683 1475.95 422.663C1476.04 422.643 1476.08 422.705 1476.08 422.798C1476.06 422.897 1476.12 422.954 1476.19 422.939C1476.28 422.919 1476.36 422.783 1476.38 422.685C1476.39 422.564 1476.61 422.443 1476.88 422.384C1477.12 422.329 1477.35 422.23 1477.37 422.132C1477.39 422.033 1477.47 421.991 1477.54 422.021C1477.62 422.05 1477.85 421.951 1478.01 421.774C1478.28 421.549 1478.37 421.552 1478.52 421.753C1478.7 422.017 1479.14 421.918 1479.22 421.595C1479.24 421.496 1479.53 421.289 1479.84 421.148C1480.53 420.852 1480.61 420.738 1480.24 420.635C1479.99 420.574 1479.98 420.552 1480.19 420.48C1480.33 420.45 1480.53 420.45 1480.69 420.531C1480.91 420.625 1480.94 420.593 1480.91 420.294C1480.89 420.041 1480.95 419.932 1481.14 419.937C1481.3 419.947 1481.34 419.892 1481.26 419.863C1481.02 419.73 1481.24 419.257 1481.6 419.128C1481.83 419.052 1481.86 418.998 1481.65 418.904C1481.28 418.73 1481.29 418.587 1481.62 418.347C1481.88 418.172 1481.89 418.123 1481.64 418.062C1481.39 418 1481.4 417.951 1481.66 417.776C1482.03 417.527 1481.98 417.327 1481.54 417.239C1481.27 417.183 1481.23 417.143 1481.37 416.948C1481.47 416.808 1481.42 416.466 1481.26 416.01C1481.08 415.532 1481.05 415.234 1481.16 415.138C1481.3 415.037 1481.27 414.926 1481.06 414.739C1480.91 414.609 1480.85 414.481 1480.94 414.461C1481.17 414.384 1481.16 413.47 1480.91 413.409C1480.74 413.377 1480.71 413.244 1480.76 412.926C1480.84 412.345 1480.51 411.197 1480.18 410.897C1479.96 410.71 1479.94 410.599 1480.06 410.476C1480.19 410.352 1480.16 410.313 1480 410.303C1479.8 410.277 1479.79 410.21 1479.86 409.959C1479.94 409.729 1479.92 409.685 1479.82 409.826C1479.73 409.917 1479.64 409.937 1479.62 409.848C1479.58 409.693 1479.73 409.565 1480.01 409.5C1480.12 409.475 1480.11 409.431 1479.78 408.284C1479.67 407.84 1479.55 407.325 1479.54 407.116C1479.52 406.862 1479.42 406.722 1479.11 406.626C1478.86 406.565 1478.7 406.39 1478.71 406.247C1478.71 406.082 1478.59 405.969 1478.4 405.965C1478.1 405.94 1478.1 405.94 1478.34 405.721C1478.68 405.432 1478.38 404.302 1478 404.435C1477.8 404.48 1477.77 404.462 1477.86 404.278C1477.93 404.098 1477.87 403.97 1477.61 403.77C1477.38 403.611 1477.24 403.337 1477.22 403.061C1477.18 402.763 1477.1 402.64 1476.98 402.692C1476.87 402.717 1476.85 402.628 1476.95 402.416C1477.04 402.231 1477.08 402.012 1477.02 401.906C1476.99 401.773 1476.93 401.81 1476.91 401.98C1476.86 402.177 1476.8 402.192 1476.58 402.055C1476.36 401.917 1476.37 401.868 1476.6 401.697C1476.79 401.559 1476.84 401.456 1476.69 401.347C1476.57 401.256 1476.45 401.143 1476.41 401.082C1476.39 401.015 1476.31 400.964 1476.28 400.946C1476.26 400.951 1476.14 400.744 1476.06 400.55C1475.96 400.338 1475.8 400.07 1475.67 399.957C1475.57 399.839 1475.46 399.676 1475.44 399.587C1475.36 399.299 1474.93 398.832 1474.83 398.95C1474.71 399.118 1474.09 398.436 1474.14 398.19C1474.16 398.091 1474.06 398.067 1473.93 398.096C1473.77 398.131 1473.7 398.102 1473.73 397.954C1473.76 397.806 1473.69 397.799 1473.56 397.922C1473.44 398.018 1473.31 398.048 1473.28 397.937C1473.26 397.848 1473.17 397.846 1473.08 397.959C1472.99 398.073 1472.94 398.038 1472.96 397.846C1472.96 397.588 1472.91 397.597 1472.72 397.829C1472.6 397.975 1472.45 398.032 1472.43 397.965C1472.33 397.682 1471.61 397.658 1471.38 397.922C1471.15 398.186 1470.57 398.27 1470.62 398.046C1470.65 397.876 1469.49 398.304 1469.4 398.489C1469.35 398.57 1469.18 398.56 1469.02 398.479C1468.86 398.398 1468.63 398.403 1468.52 398.5C1468.41 398.596 1468.19 398.667 1468.02 398.636C1467.55 398.602 1466.35 398.968 1466.41 399.118C1466.46 399.295 1465.85 399.434 1465.36 399.356C1465.17 399.329 1464.66 399.421 1464.27 399.603C1463.87 399.764 1463.52 399.821 1463.51 399.777C1463.49 399.71 1463.35 399.789 1463.2 399.94C1463.02 400.144 1462.88 400.201 1462.67 400.13C1462.5 400.076 1462.39 400.101 1462.37 400.199C1462.35 400.298 1462.1 400.402 1461.74 400.459C1461.27 400.519 1461.15 400.593 1461.12 400.834C1461.09 401.076 1461.03 401.113 1460.77 401.007C1460.6 400.953 1460.28 400.978 1460.06 401.099C1459.83 401.22 1459.55 401.284 1459.45 401.26C1459.18 401.203 1458.66 401.697 1458.74 401.914C1458.77 402.024 1458.73 402.056 1458.56 402.025C1458.26 401.929 1456.93 402.347 1457.11 402.494C1457.17 402.551 1456.99 402.734 1456.66 402.901C1456.34 403.069 1456.12 403.284 1456.13 403.328C1456.15 403.395 1455.97 403.528 1455.73 403.654C1455.48 403.758 1455.22 404.004 1455.13 404.189C1455.02 404.473 1454.93 404.493 1454.78 404.362C1454.61 404.237 1454.53 404.279 1454.36 404.506C1454.34 404.533 1454.16 404.622 1453.87 404.757C1453.51 404.908 1453.03 405.089 1452.42 405.343C1450.76 405.978 1448.45 406.878 1445.68 407.953C1440.13 410.103 1432.81 413.006 1425.53 416.043C1418.25 419.079 1410.97 422.209 1405.46 424.657C1402.7 425.893 1400.36 426.918 1398.68 427.674C1396.81 428.496 1396.37 428.667 1396.2 428.706C1395.91 428.749 1395.36 428.944 1394.98 429.171C1394.58 429.403 1394.34 429.48 1394.42 429.344C1394.52 429.182 1394.46 429.125 1394.13 429.106C1393.85 429.099 1393.7 429.155 1393.71 429.271C1393.74 429.382 1393.47 429.535 1393.11 429.641C1392.71 429.78 1392.45 429.955 1392.34 430.167C1392.21 430.456 1392.19 430.438 1392.15 430.118C1392.09 429.803 1392 429.751 1391.65 429.83C1391.15 429.944 1390.8 430.282 1391.05 430.437C1391.33 430.609 1390.69 430.731 1390.35 430.596C1390.09 430.49 1390.07 430.495 1390.18 430.729C1390.29 430.985 1389.93 431.301 1389.63 431.205C1389.4 431.117 1388.69 431.418 1388.86 431.521C1389.08 431.659 1388.95 431.689 1388.26 431.727C1387.95 431.752 1387.32 431.94 1386.9 432.177C1386.48 432.414 1386.02 432.54 1385.92 432.493C1385.79 432.429 1385.72 432.444 1385.74 432.604C1385.77 432.715 1385.63 432.816 1385.47 432.829C1385.29 432.846 1385.26 432.878 1385.39 432.964C1385.5 433.033 1385.51 433.127 1385.37 433.206C1385.24 433.258 1385.1 433.265 1385.06 433.181C1385.03 433.093 1384.82 433.165 1384.6 433.286C1384.38 433.429 1384.1 433.515 1383.98 433.473C1383.68 433.4 1383.44 433.713 1383.66 433.851C1383.8 433.937 1383.15 434.201 1382.55 434.291C1382.44 434.315 1382.37 434.402 1382.41 434.485C1382.44 434.574 1382.41 434.628 1382.31 434.626C1382.22 434.624 1382.17 434.705 1382.23 434.833C1382.32 435 1382.27 435.06 1381.95 435.107C1381.53 435.157 1380.7 435.603 1380.37 435.959C1380.25 436.104 1379.96 436.169 1379.7 436.112C1379.41 436.083 1379.21 436.128 1379.2 436.248C1379.18 436.347 1379.11 436.433 1379.01 436.431C1378.92 436.428 1378.87 436.488 1378.91 436.571C1379 436.739 1378.27 437.045 1377.87 437.019C1377.75 436.999 1377.69 437.107 1377.7 437.245C1377.74 437.401 1377.57 437.534 1377.25 437.652C1377 437.734 1376.76 437.882 1376.74 437.981C1376.72 438.079 1376.55 438.4 1376.34 438.681C1376.04 439.102 1376.02 439.295 1376.21 439.558C1376.39 439.821 1376.37 439.92 1376.15 440.041C1375.93 440.162 1375.91 440.261 1376.1 440.452C1376.23 440.588 1376.27 440.743 1376.19 440.785C1376.12 440.8 1376.22 440.989 1376.4 441.159C1376.61 441.346 1376.74 441.553 1376.71 441.701C1376.67 441.826 1376.78 442.248 1376.91 442.642C1377.06 443.031 1377.17 443.639 1377.2 444.009C1377.24 444.565 1377.29 444.693 1377.56 444.843C1377.75 444.942 1377.9 445.072 1377.9 445.143C1377.89 445.215 1378.04 445.675 1378.26 446.165C1378.46 446.66 1378.63 447.187 1378.57 447.34C1378.53 447.515 1378.57 447.599 1378.68 447.552C1378.84 447.468 1379.57 448.807 1379.46 449.019C1379.43 449.096 1379.49 449.389 1379.61 449.689C1379.72 449.994 1379.85 450.411 1379.91 450.61C1379.96 450.81 1380.11 451.034 1380.24 451.097C1380.5 451.203 1381.17 452.414 1381.03 452.493C1380.99 452.503 1381.32 453.249 1381.77 454.136C1382.64 455.842 1382.91 456.531 1382.84 456.948C1382.81 457.096 1382.96 457.413 1383.14 457.654C1383.32 457.896 1383.48 458.213 1383.47 458.378L1383.36 458.381Z" fill="#DEB7D5"/>
<path d="M1359.99 355.31C1360.12 355.875 1360.77 356.511 1360.97 356.249C1361.07 356.119 1361.19 356.102 1361.28 356.177C1361.52 356.434 1362.12 355.969 1363.69 354.318C1364.12 353.849 1364.62 353.486 1364.79 353.463C1364.95 353.439 1365.17 353.291 1365.29 353.129C1365.38 352.97 1365.57 352.797 1365.72 352.777C1365.86 352.756 1365.97 352.565 1365.98 352.359C1365.99 352.097 1366.04 352.001 1366.2 352.066C1366.33 352.106 1366.44 352.004 1366.46 351.855C1366.5 351.411 1367.01 350.843 1367.37 350.792C1367.61 350.758 1367.63 350.755 1367.42 350.668C1367.27 350.632 1367.22 350.522 1367.3 350.423C1367.38 350.324 1367.59 350.382 1367.75 350.475C1368.01 350.644 1368.12 350.598 1368.32 350.22C1368.47 349.937 1368.68 349.761 1368.81 349.801C1368.99 349.862 1369.05 349.767 1369.05 349.476C1369.05 349.241 1369.12 349.086 1369.25 349.126C1369.51 349.177 1370.28 348.309 1370.13 348.155C1370.07 348.077 1370.21 347.911 1370.46 347.788C1370.7 347.637 1371 347.39 1371.09 347.203C1371.2 347.012 1371.35 346.992 1371.44 347.095C1371.51 347.23 1371.7 347.175 1371.85 346.949C1372.01 346.751 1372.07 346.51 1372 346.431C1371.91 346.299 1371.95 346.264 1372.17 346.234C1372.38 346.203 1372.47 346.133 1372.41 345.965C1372.39 345.823 1372.46 345.668 1372.61 345.587C1372.75 345.51 1372.83 345.294 1372.8 345.123C1372.75 344.867 1372.75 344.839 1372.89 344.964C1372.99 345.068 1373.15 345.044 1373.28 344.91C1373.46 344.709 1373.48 344.705 1373.44 345.031C1373.4 345.329 1373.45 345.323 1373.67 345.058C1373.81 344.892 1374.09 344.677 1374.3 344.618C1374.51 344.559 1374.62 344.457 1374.55 344.378C1374.49 344.3 1375.02 343.554 1375.7 342.7C1376.61 341.52 1376.98 340.944 1377.1 340.402C1377.2 339.891 1377.45 339.477 1377.86 339.04C1378.19 338.701 1378.47 338.341 1378.48 338.252C1378.46 338.167 1378.8 337.74 1379.19 337.306C1379.6 336.84 1379.88 336.391 1379.83 336.252C1379.81 336.11 1379.88 335.954 1380 335.937C1380.07 335.927 1380.34 335.656 1380.75 335.19C1381.15 334.695 1381.64 334.13 1382.2 333.438C1382.9 332.58 1383.7 331.592 1384.59 330.504C1388.12 326.154 1392.97 320.101 1398.45 313.112C1401.09 309.764 1403.5 306.798 1403.84 306.516C1404.18 306.235 1404.45 305.846 1404.49 305.637C1404.52 305.428 1404.69 305.141 1404.91 304.993C1405.37 304.666 1409.7 299.299 1409.72 299.033C1409.73 298.916 1410.98 297.309 1412.49 295.434C1416.27 290.727 1421.15 284.436 1423.71 281.07C1424.88 279.534 1426.2 277.888 1426.64 277.476C1427.11 277.06 1427.48 276.569 1427.52 276.36C1427.53 276.271 1428.4 275.098 1429.76 273.272C1431.13 271.474 1432.99 269.023 1435.03 266.342C1439.1 261.012 1443.47 255.29 1444.72 253.654C1447.83 249.567 1450.2 246.491 1451.81 244.397C1452.49 243.57 1452.86 243.14 1452.94 243.186C1453.04 243.201 1453.16 243.039 1453.19 242.801C1453.22 242.446 1453.35 242.341 1453.83 242.273C1454.31 242.205 1454.43 242.099 1454.49 241.741C1454.54 241.443 1454.66 241.281 1454.88 241.279C1455.09 241.248 1455.15 241.181 1455.07 240.989C1454.98 240.797 1455.02 240.733 1455.2 240.766C1455.48 240.814 1455.7 240.521 1455.75 240.017C1455.77 239.84 1455.94 239.699 1456.11 239.675C1456.27 239.651 1456.47 239.507 1456.52 239.383C1456.57 239.231 1456.85 239.044 1457.15 238.915C1457.77 238.681 1458.73 237.612 1458.64 237.274C1458.62 237.16 1458.67 237.037 1458.81 236.988C1459.14 236.883 1459.5 236.453 1459.29 236.394C1459.19 236.38 1459.23 236.199 1459.35 236.036C1459.49 235.87 1459.6 235.797 1459.65 235.907C1459.66 235.992 1459.98 235.742 1460.32 235.315C1460.81 234.722 1460.93 234.471 1460.83 234.165C1460.71 233.802 1460.71 233.773 1460.95 234.031C1461.07 234.159 1461.23 234.224 1461.3 234.185C1462.2 233.212 1462.88 232.329 1462.82 232.133C1462.79 231.991 1462.81 231.842 1462.87 231.746C1462.93 231.651 1463.01 231.726 1463.06 231.836C1463.08 231.978 1463.16 231.997 1463.25 231.926C1463.31 231.859 1463.32 231.653 1463.27 231.515C1463.24 231.373 1463.37 231.093 1463.57 230.888C1463.78 230.684 1463.93 230.429 1463.89 230.319C1463.87 230.205 1463.9 230.085 1463.99 230.071C1464.09 230.058 1464.21 229.806 1464.31 229.53C1464.43 229.105 1464.52 229.063 1464.77 229.231C1465.08 229.45 1465.43 229.051 1465.33 228.628C1465.3 228.486 1465.45 228.114 1465.68 227.761C1466.16 227.022 1466.18 226.816 1465.78 226.931C1465.52 226.997 1465.52 226.968 1465.65 226.774C1465.75 226.643 1465.95 226.527 1466.13 226.532C1466.37 226.526 1466.38 226.438 1466.2 226.142C1466.03 225.875 1466.05 225.697 1466.23 225.585C1466.38 225.504 1466.39 225.415 1466.3 225.429C1466 225.413 1465.95 224.749 1466.21 224.392C1466.39 224.163 1466.37 224.077 1466.15 224.079C1465.71 224.084 1465.64 223.948 1465.82 223.456C1465.95 223.088 1465.94 223.031 1465.69 223.125C1465.42 223.163 1465.42 223.163 1465.55 222.766C1465.75 222.27 1465.59 222.06 1465.15 222.21C1464.88 222.307 1464.82 222.257 1464.84 221.991C1464.86 221.785 1464.64 221.408 1464.22 220.972C1463.8 220.536 1463.62 220.212 1463.66 220.031C1463.72 219.819 1463.63 219.715 1463.37 219.636C1463.16 219.577 1463.04 219.449 1463.1 219.382C1463.28 219.152 1462.78 218.116 1462.52 218.182C1462.35 218.206 1462.23 218.106 1462.11 217.714C1461.86 216.992 1460.95 215.897 1460.48 215.731C1460.19 215.626 1460.1 215.522 1460.14 215.342C1460.18 215.132 1460.15 215.107 1459.97 215.191C1459.79 215.275 1459.73 215.225 1459.67 214.884C1459.61 214.571 1459.61 214.543 1459.55 214.756C1459.53 214.905 1459.44 214.975 1459.38 214.897C1459.26 214.768 1459.31 214.499 1459.56 214.259C1459.64 214.16 1459.61 214.135 1458.7 213.011C1458.35 212.594 1457.96 212.037 1457.84 211.82C1457.69 211.521 1457.5 211.431 1457.2 211.504C1456.94 211.541 1456.71 211.486 1456.62 211.294C1456.54 211.102 1456.36 211.069 1456.18 211.153C1455.89 211.311 1455.88 211.282 1455.99 210.917C1456.14 210.4 1455.25 209.273 1454.97 209.633C1454.84 209.827 1454.78 209.777 1454.76 209.547C1454.72 209.291 1454.6 209.191 1454.27 209.121C1453.99 209.045 1453.68 208.826 1453.5 208.53C1453.33 208.235 1453.18 208.11 1453.08 208.24C1453 208.339 1452.94 208.261 1452.91 207.944C1452.86 207.689 1452.81 207.404 1452.7 207.333C1452.58 207.204 1452.56 207.264 1452.62 207.46C1452.67 207.716 1452.65 207.748 1452.38 207.728C1452.13 207.705 1452.09 207.623 1452.2 207.315C1452.3 207.039 1452.28 206.897 1452.1 206.864C1451.95 206.827 1451.76 206.766 1451.7 206.716C1451.65 206.666 1451.56 206.619 1451.52 206.626C1451.49 206.629 1451.3 206.483 1451.09 206.307C1450.89 206.132 1450.58 205.914 1450.42 205.849C1450.26 205.784 1450.07 205.665 1450.03 205.555C1449.83 205.263 1449.16 204.978 1449.13 205.187C1449.1 205.453 1448.19 205.029 1448.09 204.723C1448.07 204.609 1447.95 204.626 1447.85 204.757C1447.75 204.887 1447.62 204.876 1447.6 204.734C1447.56 204.535 1447.5 204.574 1447.41 204.79C1447.35 204.974 1447.24 205.048 1447.17 204.969C1447.09 204.894 1447.02 204.933 1447 205.11C1446.99 205.287 1446.91 205.269 1446.82 205.048C1446.7 204.774 1446.65 204.781 1446.59 205.139C1446.56 205.377 1446.47 205.536 1446.4 205.457C1446.16 205.2 1445.5 205.586 1445.42 206.005C1445.35 206.423 1444.89 206.868 1444.79 206.562C1444.75 206.363 1443.9 207.475 1443.92 207.734C1443.94 207.848 1443.78 207.929 1443.59 207.928C1443.4 207.955 1443.2 208.071 1443.15 208.223C1443.1 208.375 1442.94 208.573 1442.76 208.657C1442.31 208.895 1441.43 209.955 1441.55 210.083C1441.7 210.237 1441.2 210.745 1440.75 210.955C1440.54 211.042 1440.15 211.419 1439.87 211.808C1439.6 212.197 1439.3 212.472 1439.24 212.393C1439.18 212.343 1439.11 212.471 1439.06 212.74C1439 213.07 1438.9 213.2 1438.68 213.231C1438.49 213.258 1438.41 213.357 1438.44 213.499C1438.46 213.641 1438.29 213.899 1438.01 214.114C1437.62 214.431 1437.53 214.59 1437.63 214.868C1437.73 215.173 1437.69 215.237 1437.41 215.278C1437.21 215.305 1436.93 215.52 1436.78 215.774C1436.63 216.029 1436.43 216.262 1436.31 216.279C1436.03 216.376 1435.82 217.223 1436 217.402C1436.09 217.506 1436.06 217.598 1435.89 217.621C1435.56 217.669 1434.57 218.887 1434.8 218.942C1434.9 218.957 1434.82 219.29 1434.62 219.668C1434.41 220.047 1434.3 220.383 1434.37 220.462C1434.42 220.512 1434.33 220.788 1434.15 221.046C1433.98 221.304 1433.86 221.729 1433.88 221.988C1433.92 222.361 1433.87 222.457 1433.66 222.399C1433.45 222.341 1433.37 222.44 1433.33 222.766C1433.34 222.823 1433.2 222.989 1433.01 223.307C1432.92 223.466 1432.78 223.632 1432.62 223.858C1432.34 224.218 1432.05 224.639 1431.72 225.095C1429.7 227.772 1426.86 231.498 1423.47 235.974C1416.67 244.9 1407.6 256.626 1398.42 268.308C1389.24 279.991 1379.96 291.63 1372.81 300.43C1369.23 304.815 1366.2 308.54 1364.01 311.213C1363.47 311.873 1362.96 312.47 1362.52 313.028C1362.22 313.392 1361.95 313.692 1361.71 313.96C1361.44 314.26 1361.28 314.429 1361.21 314.468C1360.94 314.622 1360.49 315.095 1360.22 315.512C1359.91 315.964 1359.72 316.137 1359.76 315.928C1359.79 315.69 1359.71 315.644 1359.36 315.751C1359.08 315.849 1358.95 315.955 1359.03 316.09C1359.07 316.2 1358.9 316.487 1358.61 316.762C1358.27 317.072 1358.08 317.39 1358.09 317.681C1358.08 318.061 1358.06 318.064 1357.87 317.712C1357.69 317.359 1357.58 317.344 1357.28 317.563C1356.82 317.89 1356.63 318.442 1356.91 318.519C1357.25 318.617 1356.68 319.018 1356.28 318.958C1355.98 318.914 1355.96 318.946 1356.17 319.178C1356.39 319.438 1356.17 319.965 1355.82 319.956C1355.56 319.965 1354.98 320.572 1355.19 320.658C1355.45 320.738 1355.34 320.84 1354.69 321.138C1354.37 321.271 1353.87 321.75 1353.53 322.206C1353.2 322.662 1352.81 322.979 1352.69 322.967C1352.51 322.934 1352.47 322.998 1352.55 323.162C1352.6 323.3 1352.53 323.456 1352.4 323.533C1352.22 323.617 1352.21 323.706 1352.36 323.742C1352.49 323.782 1352.53 323.893 1352.41 324.027C1352.31 324.157 1352.17 324.178 1352.11 324.099C1352.04 324.021 1351.87 324.133 1351.72 324.388C1351.57 324.643 1351.33 324.822 1351.16 324.846C1350.85 324.89 1350.74 325.344 1351 325.423C1351.15 325.46 1350.61 326.031 1350.09 326.369C1349.98 326.443 1349.95 326.563 1350.04 326.638C1350.1 326.717 1350.07 326.809 1349.98 326.851C1349.86 326.868 1349.88 327.01 1349.98 327.142C1350.14 327.324 1350.1 327.416 1349.81 327.574C1349.41 327.777 1348.75 328.628 1348.59 329.206C1348.53 329.418 1348.26 329.601 1347.98 329.67C1347.67 329.715 1347.51 329.884 1347.56 330.023C1347.58 330.165 1347.53 330.289 1347.43 330.302C1347.34 330.316 1347.31 330.436 1347.4 330.511C1347.55 330.693 1346.93 331.335 1346.53 331.422C1346.41 331.439 1346.37 331.591 1346.45 331.755C1346.53 331.947 1346.42 332.166 1346.15 332.409C1345.91 332.617 1345.74 332.875 1345.78 332.986C1345.8 333.099 1345.74 333.546 1345.65 333.996C1345.51 334.599 1345.56 334.855 1345.85 335.105C1346.11 335.359 1346.14 335.501 1345.96 335.73C1345.78 335.96 1345.8 336.074 1346.05 336.242C1346.22 336.364 1346.32 336.524 1346.28 336.588C1346.25 336.652 1346.4 336.834 1346.65 336.974C1346.95 337.135 1347.13 337.342 1347.16 337.513C1347.19 337.683 1347.42 338.146 1347.72 338.571C1347.99 338.998 1348.36 339.675 1348.51 340.12C1348.75 340.785 1348.85 340.917 1349.18 340.986C1349.39 341.044 1349.58 341.134 1349.62 341.245C1349.64 341.33 1349.97 341.836 1350.36 342.364C1350.75 342.892 1351.1 343.455 1351.11 343.657C1351.15 343.885 1351.21 343.963 1351.27 343.868C1351.41 343.702 1352.61 345.076 1352.59 345.37C1352.61 345.456 1352.77 345.812 1352.98 346.132C1353.2 346.45 1353.48 346.906 1353.6 347.151C1353.72 347.397 1353.95 347.597 1354.13 347.63C1354.43 347.675 1355.53 348.889 1355.41 349.051C1355.37 349.086 1355.98 349.875 1356.75 350.756C1358.24 352.526 1358.77 353.268 1358.84 353.812C1358.87 353.982 1359.11 354.328 1359.4 354.578C1359.68 354.8 1359.94 355.143 1359.97 355.342L1359.99 355.31Z" fill="#F5E9F2"/>
</svg>
