<svg width="1512" height="1024" viewBox="0 0 1512 1024" fill="none" xmlns="http://www.w3.org/2000/svg">
<path d="M144.066 725.817C144.432 726.055 144.654 726.754 144.42 726.871C144.304 726.929 144.214 727.045 144.241 727.102C144.362 727.358 143.752 727.787 141.92 728.759C141.416 729.03 140.931 729.379 140.855 729.522C140.778 729.666 140.58 729.819 140.42 729.864C140.261 729.908 140.07 730.039 139.98 730.155C139.89 730.27 139.702 730.33 139.553 730.281C139.361 730.219 139.273 730.263 139.24 730.421C139.2 730.528 139.097 730.615 138.982 730.602C138.639 730.564 138.013 730.843 137.831 731.145C137.71 731.347 137.689 731.34 137.722 731.182C137.748 731.046 137.678 730.975 137.591 731.019C137.503 731.063 137.44 731.235 137.449 731.407C137.477 731.657 137.396 731.751 137.034 731.827C136.774 731.887 136.554 732.032 136.536 732.147C136.502 732.305 136.415 732.349 136.201 732.28C136.031 732.224 135.871 732.269 135.853 732.384C135.796 732.606 134.855 733.096 134.795 732.932C134.768 732.875 134.572 732.956 134.386 733.137C134.18 733.311 133.894 733.508 133.705 733.567C133.517 733.627 133.427 733.742 133.51 733.841C133.572 733.933 133.466 734.092 133.241 734.188C133.036 734.29 132.821 734.293 132.788 734.186C132.734 734.072 132.676 734.101 132.584 734.288C132.492 734.475 132.383 734.512 132.284 734.456C132.186 734.4 132.026 734.445 131.923 734.532C131.812 734.64 131.618 734.65 131.498 734.587C131.343 734.488 131.292 734.496 131.338 734.632C131.371 734.738 131.294 734.882 131.156 734.934C130.931 735.03 130.944 735.058 131.173 735.084C131.402 735.11 131.386 735.153 131.103 735.278C130.906 735.359 130.641 735.562 130.514 735.714C130.388 735.865 130.263 735.946 130.236 735.889C130.209 735.832 129.447 736.091 128.515 736.488C127.271 737.024 126.705 737.203 126.239 737.172C125.816 737.156 125.418 737.268 124.914 737.538C124.527 737.75 124.155 737.919 124.091 737.898C124.027 737.877 123.584 738.047 123.088 738.296C122.571 738.538 122.135 738.686 122.044 738.608C121.946 738.552 121.815 738.582 121.755 738.683C122.193 738.657 115.915 741.49 107.786 744.953C105.836 745.79 104.095 746.576 103.917 746.735C103.74 746.895 103.522 746.969 103.394 746.927C103.288 746.893 103.115 746.909 103.025 747.024C102.824 747.248 99.6559 748.68 99.5358 748.617C99.4718 748.596 98.5482 748.971 97.4415 749.456C94.6739 750.704 91.0352 752.248 89.0869 753.014C88.1924 753.375 87.2452 753.815 86.9803 754.019C86.7154 754.222 86.4315 754.347 86.3327 754.291C86.2901 754.277 85.6077 754.514 84.5673 754.948C83.5269 755.382 82.1016 755.956 80.5595 756.589C77.4675 757.876 74.1791 759.245 73.2262 759.635C70.8031 760.657 68.9984 761.422 67.7616 761.937C66.8805 762.326 66.4136 762.56 66.4035 762.653C66.3721 762.739 66.2261 762.812 66.0264 762.772C65.7548 762.732 65.6303 762.812 65.3878 763.216C65.1532 763.597 65.0208 763.699 64.7413 763.681C64.4911 763.648 64.3452 763.721 64.2318 763.901C64.1184 764.081 64.06 764.111 63.9343 763.998C63.8086 763.885 63.7582 763.892 63.7167 764.072C63.6515 764.316 63.3383 764.455 62.931 764.395C62.803 764.354 62.6122 764.485 62.5359 764.629C62.4596 764.773 62.2901 764.911 62.1678 764.919C62.0455 764.928 61.7806 765.131 61.5797 765.355C61.17 765.825 59.9949 766.432 59.7705 766.263C59.693 766.214 59.5841 766.251 59.5022 766.345C59.3147 766.597 58.8557 766.81 58.876 766.624C58.9074 766.537 58.7716 766.518 58.5752 766.599C58.408 766.665 58.2968 766.773 58.353 766.816C58.4091 766.858 58.0936 767.069 57.6638 767.267C57.0375 767.546 56.785 767.585 56.5954 767.451C56.3496 767.275 56.3496 767.275 56.4495 767.524C56.4955 767.66 56.4909 767.803 56.4247 767.853C55.3372 768.417 54.4136 768.792 54.3014 768.708C54.2239 768.659 54.0881 768.639 54.0085 768.661C53.9209 768.705 53.9186 768.776 54.0174 768.833C54.1161 768.889 54.1061 768.982 54.0264 769.004C53.9388 769.048 53.7895 769 53.7121 768.951C53.6212 768.873 53.3609 768.933 53.1196 769.072C52.8783 769.211 52.6392 769.278 52.5617 769.228C52.4843 769.179 52.3832 769.195 52.3305 769.274C52.2777 769.353 52.0388 769.42 51.802 769.416C51.4428 769.42 51.3686 769.493 51.3967 769.743C51.4225 770.064 51.014 770.269 50.7177 770.101C50.6403 770.052 50.2654 770.099 49.9175 770.203C49.1846 770.448 49.0275 770.421 49.2599 770.111C49.4024 769.916 49.4103 769.894 49.1926 769.968C49.0545 770.02 48.8985 770.186 48.8221 770.33C48.7435 770.546 48.6505 770.54 48.5001 770.298C48.3554 770.107 48.2274 770.065 48.0579 770.203C47.9468 770.312 47.875 770.313 47.9064 770.227C48.0007 769.968 47.5259 769.766 47.1544 769.935C46.8997 770.045 46.8649 770.01 46.957 769.823C47.1197 769.442 47.058 769.35 46.6113 769.398C46.287 769.437 46.2522 769.402 46.3947 769.207C46.5451 768.991 46.5025 768.977 46.1782 769.017C45.7236 769.086 45.6215 768.909 45.9201 768.548C46.0997 768.317 46.0941 768.267 45.8651 768.241C45.7159 768.192 45.5016 767.93 45.3288 767.489C45.156 767.048 44.9843 766.799 44.8194 766.794C44.6465 766.81 44.5848 766.718 44.6365 766.446C44.6567 766.26 44.632 766.131 44.5523 766.154C44.3054 766.242 43.7298 765.598 43.8802 765.382C43.9779 765.245 43.9239 765.131 43.686 764.934C43.245 764.574 42.7468 763.522 42.8108 763.085C42.8411 762.805 42.8007 762.72 42.6357 762.715C42.4708 762.71 42.4439 762.653 42.5842 762.529C42.7323 762.385 42.7054 762.328 42.4653 762.202C42.2465 762.083 42.233 762.054 42.4115 762.088C42.5394 762.13 42.6135 762.057 42.5809 761.95C42.5349 761.815 42.298 761.811 42.0276 761.964C41.94 762.008 41.9053 761.972 41.4206 760.948C41.2321 760.55 40.9661 760.103 40.8561 759.947C40.6901 759.748 40.7025 759.584 40.8686 759.324C41.019 759.108 41.0258 758.893 40.9293 758.766C40.8249 758.66 40.8451 758.474 40.9854 758.35C41.2076 758.133 41.2077 758.133 40.8699 758.144C40.4097 758.164 39.9036 757.133 40.2964 756.971C40.4928 756.89 40.4873 756.84 40.3246 756.763C40.1327 756.701 40.1158 756.551 40.1832 756.236C40.2562 755.97 40.2012 755.664 40.043 755.444C39.8848 755.224 39.8466 755.067 39.9846 755.015C40.0935 754.978 40.0319 754.886 39.8478 754.802C39.6559 754.74 39.4954 754.592 39.4629 754.485C39.4169 754.35 39.4673 754.342 39.593 754.455C39.7613 754.582 39.8063 754.524 39.8849 754.309C39.9713 754.072 39.9152 754.029 39.6335 754.083C39.381 754.121 39.29 754.044 39.3237 753.886C39.3709 753.757 39.3619 753.585 39.3642 753.514C39.3664 753.442 39.3473 753.364 39.3765 753.349C39.3844 753.327 39.3407 753.121 39.2969 752.914C39.2319 752.7 39.1982 752.4 39.2105 752.235C39.2229 752.071 39.1927 751.892 39.1444 751.829C38.9941 751.587 39.0356 750.95 39.2006 750.955C39.4003 750.996 39.4432 750.095 39.2322 749.954C39.1547 749.905 39.2152 749.804 39.332 749.745C39.4779 749.672 39.5093 749.586 39.4184 749.508C39.3062 749.424 39.3433 749.388 39.5375 749.378C39.7024 749.384 39.8057 749.297 39.7653 749.211C39.7249 749.126 39.8124 749.082 39.9269 749.095C40.084 749.122 40.0862 749.05 39.9471 748.909C39.7731 748.732 39.8103 748.696 40.111 748.721C40.3187 748.74 40.4488 748.71 40.4298 748.631C40.3378 748.361 40.8484 747.876 41.2131 747.921C41.5565 747.96 42.0549 747.64 41.8653 747.506C41.7317 747.415 42.9023 746.951 43.0942 747.013C43.1795 747.041 43.312 746.939 43.3748 746.767C43.4377 746.594 43.6285 746.463 43.7722 746.462C43.9158 746.46 44.12 746.357 44.2603 746.234C44.5937 745.909 45.7451 745.366 45.7911 745.501C45.8506 745.665 46.4129 745.365 46.7407 744.99C46.8675 744.838 47.3209 744.575 47.7059 744.435C48.12 744.28 48.4198 744.112 48.4007 744.034C48.3738 743.977 48.533 743.932 48.7407 743.951C49.0201 743.969 49.1581 743.918 49.2715 743.737C49.3557 743.572 49.4646 743.535 49.5634 743.591C49.6408 743.64 49.909 743.558 50.1952 743.362C50.5768 743.1 50.7363 743.055 50.9181 743.211C51.0999 743.366 51.1795 743.343 51.3164 743.099C51.4006 742.933 51.6789 742.758 51.9259 742.67C52.1649 742.603 52.4275 742.471 52.4803 742.392C52.652 742.182 53.3704 742.174 53.4567 742.394C53.5106 742.508 53.561 742.501 53.6665 742.342C53.8405 742.061 55.1009 741.481 55.0649 741.711C55.0335 741.797 55.3208 741.794 55.6822 741.718C56.0223 741.635 56.3388 741.617 56.3657 741.674C56.3927 741.731 56.6159 741.707 56.8842 741.625C57.1524 741.543 57.5194 741.518 57.7035 741.601C57.9807 741.691 58.0447 741.712 58.102 741.49C58.1514 741.289 58.2388 741.245 58.5104 741.285C58.553 741.298 58.7203 741.232 59.0469 741.121C59.3813 740.988 59.8752 740.811 60.4936 740.554C62.0357 739.921 64.1961 739.03 66.7494 737.978C71.8931 735.837 78.6686 732.948 85.4598 730.016C92.2511 727.084 99.0446 724.08 104.208 721.753C106.78 720.586 108.958 719.581 110.553 718.869C112.272 718.077 112.747 717.821 112.88 717.719C113.094 717.524 113.627 717.239 114.041 717.084C114.485 716.914 114.697 716.79 114.539 716.763C114.332 716.744 114.342 716.651 114.559 716.384C114.738 716.153 114.884 716.08 114.946 716.172C115.015 716.243 115.284 716.161 115.62 715.957C115.986 715.738 116.305 715.649 116.518 715.718C116.817 715.814 116.832 715.771 116.589 715.524C116.388 715.29 116.419 715.204 116.692 714.979C117.119 714.659 117.595 714.597 117.556 714.898C117.51 715.22 118.019 714.806 118.123 714.455C118.218 714.196 118.225 714.175 118.333 714.402C118.433 714.651 118.938 714.574 119.048 714.272C119.134 714.035 119.835 713.684 119.807 713.892C119.763 714.142 119.887 714.062 120.355 713.563C120.586 713.325 121.134 712.997 121.607 712.812C122.058 712.621 122.461 712.366 122.5 712.259C122.555 712.108 122.614 712.078 122.718 712.184C122.809 712.262 122.953 712.26 123.072 712.13C123.212 712.007 123.262 711.999 123.229 712.157C123.203 712.293 123.28 712.342 123.426 712.269C123.564 712.218 123.633 712.095 123.606 712.038C123.587 711.96 123.748 711.844 123.987 711.776C124.226 711.709 124.483 711.528 124.552 711.405C124.697 711.139 125.099 711.149 125.055 711.399C125.021 711.557 125.65 711.206 126.121 710.829C126.216 710.764 126.317 710.748 126.35 710.855C126.39 710.94 126.462 710.94 126.523 710.839C126.575 710.759 126.682 710.794 126.736 710.908C126.817 711.079 126.889 711.078 127.111 710.861C127.436 710.556 128.309 710.189 128.791 710.176C128.985 710.167 129.213 709.999 129.371 709.762C129.537 709.502 129.691 709.408 129.79 709.464C129.889 709.52 129.982 709.526 130.042 709.425C130.095 709.346 130.188 709.352 130.229 709.437C130.309 709.608 131.018 709.235 131.258 708.903C131.318 708.802 131.454 708.822 131.545 708.9C131.65 709.006 131.852 708.975 132.151 708.807C132.393 708.668 132.669 708.565 132.746 708.614C132.831 708.642 133.188 708.709 133.561 708.733C134.077 708.756 134.24 708.833 134.324 709.125C134.408 709.417 134.507 709.473 134.74 709.356C134.966 709.26 135.051 709.288 135.1 709.545C135.131 709.723 135.206 709.844 135.286 709.822C135.365 709.799 135.425 709.963 135.431 710.206C135.444 710.499 135.517 710.691 135.658 710.761C135.786 710.803 136.041 711.15 136.253 711.484C136.465 711.817 136.845 712.278 137.118 712.511C137.538 712.863 137.592 712.977 137.524 713.292C137.454 713.486 137.476 713.686 137.54 713.707C137.604 713.728 137.856 714.147 138.093 714.609C138.338 715.049 138.654 715.489 138.796 715.559C138.958 715.636 138.999 715.721 138.89 715.758C138.715 715.846 139.297 717.191 139.518 717.238C139.582 717.259 139.783 717.492 139.955 717.741C140.118 718.011 140.352 718.351 140.483 718.514C140.614 718.677 140.693 718.919 140.638 719.07C140.544 719.329 141.064 720.581 141.21 720.508C141.239 720.493 141.605 721.19 141.988 722.036C142.732 723.723 143.121 724.354 143.489 724.522C143.617 724.563 143.786 724.883 143.849 725.168C143.912 725.454 144.082 725.773 144.202 725.836L144.066 725.817Z" fill="#B0E2DE"/>
<path d="M212.273 600.743C212.44 601.138 212.303 601.882 212.065 601.871C211.948 601.854 211.834 601.93 211.841 602C211.807 602.296 211.185 602.414 209.392 602.476C208.888 602.495 208.391 602.584 208.273 602.683C208.155 602.781 207.943 602.843 207.792 602.797C207.655 602.777 207.452 602.794 207.338 602.87C207.224 602.946 207.072 602.901 206.968 602.816C206.852 602.683 206.755 602.669 206.675 602.773C206.62 602.858 206.494 602.886 206.409 602.804C206.166 602.606 205.568 602.588 205.313 602.782C205.147 602.92 205.108 602.914 205.215 602.768C205.294 602.664 205.272 602.568 205.174 602.554C205.077 602.539 204.97 602.686 204.898 602.86C204.813 603.103 204.703 603.156 204.4 603.066C204.17 603.009 203.963 603.048 203.884 603.152C203.8 603.279 203.718 603.29 203.572 603.107C203.456 602.974 203.339 602.957 203.26 603.061C203.125 603.25 202.223 603.257 202.237 603.073C202.249 603.006 202.07 603.003 201.839 603.061C201.603 603.143 201.299 603.168 201.143 603.145C200.987 603.122 200.877 603.176 200.871 603.314C200.87 603.429 200.733 603.525 200.538 603.497C200.343 603.468 200.195 603.4 200.192 603.307C200.217 603.172 200.154 603.186 199.993 603.301C199.851 603.419 199.75 603.428 199.712 603.306C199.67 603.208 199.534 603.188 199.404 603.238C199.275 603.289 199.127 603.221 199.07 603.097C199.002 602.924 198.963 602.919 198.934 603.077C198.913 603.189 198.795 603.288 198.658 603.268C198.44 603.259 198.435 603.282 198.61 603.423C198.764 603.561 198.741 603.581 198.479 603.589C198.304 603.564 198.006 603.659 197.853 603.729C197.696 603.822 197.574 603.827 197.567 603.757C197.58 603.689 196.878 603.587 196.047 603.535C194.896 603.482 194.393 603.385 194.056 603.151C193.754 602.944 193.407 602.87 192.923 602.892C192.536 602.928 192.2 602.902 192.17 602.852C192.139 602.801 191.721 602.786 191.265 602.766C190.785 602.765 190.399 602.685 190.338 602.584C190.296 602.485 190.183 602.445 190.088 602.524C190.041 602.563 189.736 602.588 189.237 602.585C189.038 602.579 188.795 602.59 188.538 602.575C187.96 602.56 187.343 602.539 186.688 602.513C185.357 602.457 183.862 602.424 182.211 602.368C175.577 602.092 166.437 601.728 155.946 601.305C150.924 601.08 146.404 600.952 145.872 601.013C145.321 601.071 144.786 601.039 144.589 600.918C144.406 600.822 144.016 600.765 143.707 600.812C143.031 600.898 134.87 600.654 134.652 600.53C134.594 600.521 133.985 600.455 133.014 600.406C132.042 600.356 130.731 600.304 129.318 600.259C122.175 600.025 112.797 599.649 107.842 599.387C105.563 599.263 103.088 599.225 102.342 599.255C101.592 599.307 100.858 599.269 100.691 599.198C100.598 599.162 98.9159 599.055 96.2585 598.921C93.5969 598.809 89.9679 598.626 86.0145 598.464C78.1078 598.142 69.6469 597.784 67.2234 597.685C61.221 597.455 56.69 597.279 53.6303 597.155C52.7909 597.148 52.365 597.179 52.3135 597.241C52.258 597.325 52.1216 597.305 51.9822 597.192C51.7927 597.026 51.6675 597.054 51.317 597.327C50.9902 597.58 50.8413 597.628 50.6282 597.481C50.4498 597.362 50.3134 597.342 50.1479 597.48C49.9825 597.618 49.924 597.609 49.8945 597.443C49.8651 597.276 49.8067 597.268 49.6997 597.414C49.5413 597.623 49.2447 597.602 48.9855 597.379C48.9005 597.297 48.7126 597.339 48.5985 597.415C48.4804 597.514 48.2925 597.556 48.1992 597.519C48.1059 597.482 47.8123 597.555 47.5688 597.682C47.0583 597.954 45.9295 597.998 45.8304 597.775C45.8039 597.701 45.6869 597.684 45.5965 597.74C45.3489 597.89 44.9077 597.895 45.0147 597.748C45.0662 597.686 44.9616 597.601 44.8015 597.601C44.6456 597.578 44.5315 597.654 44.5622 597.705C44.5888 597.778 44.2799 597.826 43.8386 597.831C43.2373 597.835 43.0506 597.762 42.9515 597.539C42.8412 597.268 42.8412 597.268 42.8151 597.519C42.786 597.677 42.7417 597.809 42.6791 597.823C41.624 597.901 40.7694 597.868 40.7163 597.721C40.6744 597.623 40.5853 597.563 40.5073 597.552C40.4293 597.541 40.3932 597.628 40.4392 597.704C40.4811 597.803 40.4491 597.868 40.3712 597.856C40.2932 597.845 40.1888 597.76 40.1469 597.661C40.1051 597.563 39.8753 597.506 39.6484 597.542C39.4216 597.578 39.1919 597.522 39.1612 597.471C39.1346 597.397 39.0413 597.361 38.9703 597.42C38.9036 597.456 38.6892 597.425 38.5026 597.351C38.2268 597.218 38.1448 597.23 38.0602 597.472C37.9631 597.782 37.5567 597.815 37.4115 597.516C37.3655 597.44 37.0855 597.329 36.7737 597.284C36.111 597.187 36.0065 597.102 36.3208 596.916C36.5253 596.784 36.5099 596.759 36.3303 596.756C36.2134 596.739 36.0172 596.826 35.9144 596.95C35.7643 597.113 35.71 597.082 35.6623 596.797C35.6259 596.56 35.5408 596.478 35.3724 596.523C35.243 596.573 35.1888 596.542 35.2402 596.48C35.4181 596.275 35.1253 595.908 34.7898 595.882C34.5518 595.87 34.5364 595.845 34.6865 595.681C34.959 595.397 34.9408 595.279 34.5829 595.157C34.3184 595.072 34.3072 595.024 34.5116 594.892C34.6966 594.756 34.6854 594.708 34.4208 594.623C34.0476 594.476 34.0418 594.29 34.3993 594.088C34.6232 593.958 34.6316 593.913 34.4769 593.775C34.357 593.665 34.3218 593.312 34.3658 592.855C34.418 592.353 34.3745 592.046 34.2617 592.006C34.1336 591.941 34.1348 591.825 34.2543 591.611C34.346 591.439 34.3708 591.304 34.3124 591.296C34.0938 591.287 33.9118 590.426 34.1163 590.294C34.2498 590.221 34.2551 590.083 34.149 589.789C33.9479 589.25 33.9993 588.1 34.2341 587.694C34.3772 587.46 34.3785 587.345 34.2503 587.28C34.1263 587.192 34.1305 587.169 34.2835 587.099C34.4365 587.029 34.449 586.961 34.3304 586.735C34.2076 586.532 34.2118 586.51 34.3553 586.6C34.4444 586.659 34.5266 586.648 34.5432 586.558C34.5722 586.4 34.3855 586.327 34.1238 586.335C34.0264 586.32 34.0265 586.32 34.0668 585.122C34.0718 584.659 34.0656 584.149 34.0208 583.957C33.969 583.695 34.0564 583.545 34.2886 583.371C34.4736 583.236 34.589 583.044 34.5554 582.9C34.5218 582.756 34.6093 582.607 34.7623 582.537C35.0211 582.436 35.0252 582.413 34.7648 582.306C34.4152 582.139 34.4319 580.96 34.7869 580.989C34.9623 581.014 34.9747 580.947 34.8785 580.817C34.7628 580.684 34.8113 580.529 34.9822 580.253C35.1448 580.022 35.2182 579.732 35.1859 579.472C35.1577 579.19 35.2063 579.035 35.3037 579.049C35.4012 579.063 35.4024 578.948 35.2713 578.79C35.1598 578.634 35.076 578.437 35.0968 578.324C35.1217 578.189 35.1411 578.192 35.2137 578.341C35.2821 578.513 35.3406 578.522 35.4949 578.336C35.6492 578.15 35.6226 578.077 35.397 577.997C35.1909 577.921 35.1491 577.822 35.2561 577.676C35.3353 577.572 35.4033 577.419 35.4352 577.355C35.4477 577.287 35.4797 577.222 35.5033 577.202C35.5075 577.18 35.5837 576.982 35.6252 576.757C35.6667 576.531 35.7596 576.244 35.8277 576.092C35.8957 575.94 35.9483 575.762 35.9412 575.691C35.9367 575.39 36.2201 574.829 36.3246 574.914C36.4639 575.027 36.8512 574.226 36.7521 574.003C36.706 573.927 36.7811 573.846 36.9176 573.866C37.054 573.885 37.1096 573.801 37.0718 573.68C37.0146 573.555 37.0619 573.516 37.2054 573.607C37.3335 573.672 37.4394 573.641 37.456 573.551C37.4726 573.46 37.5351 573.446 37.6242 573.506C37.7288 573.59 37.7607 573.526 37.7118 573.356C37.6558 573.117 37.6989 573.1 37.9079 573.269C38.0514 573.36 38.1837 573.402 38.1808 573.309C38.2153 573.013 38.8191 572.777 39.063 572.975C39.311 573.15 39.823 573.086 39.7434 572.866C39.6904 572.719 40.7595 572.783 40.8752 572.916C40.9253 572.969 41.0701 572.944 41.1966 572.801C41.319 572.68 41.511 572.615 41.6197 572.677C41.7283 572.739 41.9315 572.723 42.0804 572.675C42.4727 572.501 43.5737 572.5 43.5446 572.658C43.5115 572.838 44.0821 572.783 44.4786 572.586C44.6553 572.496 45.0853 572.443 45.4598 572.475C45.8342 572.506 46.1432 572.459 46.1557 572.391C46.1681 572.324 46.285 572.341 46.448 572.434C46.6416 572.578 46.7822 572.575 46.9241 572.457C47.0422 572.359 47.1634 572.353 47.2052 572.452C47.2471 572.551 47.4852 572.562 47.7789 572.49C48.1741 572.408 48.3104 572.428 48.39 572.648C48.4696 572.869 48.5282 572.877 48.741 572.7C48.8828 572.582 49.1528 572.528 49.3867 572.563C49.6011 572.594 49.8432 572.583 49.9336 572.527C50.138 572.395 50.7008 572.709 50.6789 572.937C50.6581 573.05 50.7319 573.084 50.8542 572.963C51.0864 572.788 52.3087 572.782 52.1975 572.951C52.1461 573.013 52.3633 573.137 52.671 573.205C52.9787 573.273 53.2197 573.378 53.2073 573.446C53.1948 573.513 53.3814 573.587 53.6153 573.621C53.8492 573.655 54.1445 573.791 54.2561 573.947C54.4136 574.178 54.4916 574.19 54.6069 573.998C54.718 573.829 54.796 573.84 54.9897 573.984C55.0091 573.987 55.1845 574.013 55.4574 574.053C55.5939 574.073 55.7693 574.098 55.9684 574.104C56.4444 574.128 56.979 574.16 57.5957 574.18C61.549 574.342 67.1061 574.599 73.7405 574.874C87.0136 575.403 104.58 576.096 122.204 576.798C139.837 577.455 157.532 578.098 171.028 578.613C177.772 578.835 183.483 579.022 187.62 579.164C188.654 579.199 189.591 579.22 190.406 579.247C190.785 579.256 191.144 579.262 191.484 579.266C191.581 579.28 191.663 579.269 191.746 579.258C192.066 579.258 192.249 579.239 192.312 579.225C192.567 579.146 193.07 579.127 193.464 579.162C193.874 579.222 194.081 579.182 193.977 579.098C193.837 578.985 193.869 578.92 194.16 578.754C194.384 578.624 194.524 578.622 194.543 578.74C194.565 578.836 194.814 578.896 195.147 578.829C195.514 578.79 195.783 578.852 195.938 578.991C196.119 579.203 196.143 579.183 196.084 578.85C196.04 578.543 196.096 578.458 196.389 578.385C196.851 578.267 197.24 578.44 197.077 578.671C196.911 578.925 197.474 578.799 197.704 578.531C197.881 578.325 197.901 578.328 197.879 578.557C197.849 578.83 198.261 578.983 198.482 578.761C198.652 578.6 199.335 578.584 199.224 578.753C199.085 578.965 199.191 578.934 199.775 578.695C200.038 578.571 200.609 578.516 201.041 578.556C201.474 578.596 201.885 578.54 201.941 578.456C202.043 578.332 202.082 578.338 202.116 578.482C202.138 578.578 202.267 578.643 202.396 578.592C202.549 578.522 202.599 578.575 202.52 578.68C202.441 578.784 202.487 578.86 202.623 578.88C202.74 578.897 202.854 578.821 202.871 578.731C202.887 578.641 203.052 578.618 203.266 578.65C203.48 578.681 203.727 578.648 203.841 578.572C204.054 578.394 204.36 578.578 204.221 578.79C204.138 578.916 204.767 578.869 205.272 578.735C205.378 578.704 205.447 578.76 205.431 578.851C205.414 578.941 205.488 578.975 205.559 578.916C205.649 578.859 205.695 578.936 205.69 579.074C205.657 579.254 205.75 579.291 206.005 579.213C206.369 579.081 207.2 579.133 207.561 579.348C207.709 579.415 207.955 579.382 208.183 579.23C208.411 579.078 208.575 579.056 208.637 579.158C208.679 579.256 208.772 579.293 208.843 579.234C208.933 579.178 208.984 579.231 208.967 579.322C208.934 579.502 209.656 579.492 209.975 579.284C210.065 579.227 210.154 579.287 210.192 579.408C210.226 579.552 210.393 579.623 210.682 579.572C210.929 579.539 211.162 579.573 211.208 579.649C211.254 579.726 211.494 579.946 211.762 580.124C212.138 580.364 212.226 580.539 212.172 580.833C212.118 581.126 212.16 581.225 212.378 581.233C212.597 581.242 212.643 581.318 212.558 581.561C212.506 581.738 212.5 581.877 212.578 581.888C212.656 581.899 212.623 582.08 212.499 582.317C212.391 582.579 212.35 582.804 212.426 582.931C212.488 583.033 212.549 583.459 212.557 583.854C212.564 584.248 212.651 584.863 212.769 585.205C212.935 585.715 212.93 585.854 212.743 586.104C212.613 586.271 212.541 586.445 212.571 586.496C212.598 586.569 212.612 587.035 212.595 587.565C212.577 588.095 212.642 588.614 212.719 588.741C212.811 588.894 212.798 588.961 212.697 588.97C212.541 588.947 212.384 590.452 212.534 590.613C212.585 590.667 212.632 590.952 212.633 591.276C212.637 591.578 212.675 592.024 212.701 592.213C212.741 592.427 212.676 592.672 212.593 592.799C212.415 593.005 212.263 594.372 212.404 594.37C212.443 594.375 212.419 595.159 212.318 596.141C212.154 598.016 212.177 598.76 212.376 599.091C212.434 599.215 212.434 599.539 212.357 599.852C212.279 600.165 212.275 600.512 212.332 600.636L212.273 600.743Z" fill="#E7F6F5"/>
<path d="M130.19 458.361C130.209 458.812 129.808 459.45 129.564 459.324C129.438 459.272 129.323 459.269 129.278 459.353C129.142 459.604 128.47 459.428 126.635 458.66C126.134 458.453 125.593 458.307 125.422 458.338C125.274 458.375 125.033 458.321 124.898 458.219C124.763 458.118 124.55 458.047 124.429 458.066C124.286 458.081 124.129 457.975 124.076 457.822C124.008 457.642 123.927 457.6 123.794 457.664C123.711 457.715 123.58 457.686 123.51 457.599C123.356 457.306 122.741 457.002 122.422 457.071C122.202 457.115 122.18 457.11 122.346 457.007C122.457 456.938 122.481 456.849 122.399 456.807C122.318 456.765 122.135 456.841 122.007 456.977C121.839 457.174 121.702 457.166 121.437 456.942C121.226 456.776 121.007 456.727 120.896 456.796C120.757 456.882 120.676 456.84 120.592 456.633C120.524 456.453 120.404 456.379 120.321 456.43C120.105 456.546 119.19 456.151 119.281 455.983C119.299 455.917 119.136 455.833 118.889 455.8C118.643 455.768 118.299 455.667 118.164 455.565C118.007 455.459 117.858 455.496 117.834 455.585C117.805 455.696 117.618 455.7 117.411 455.606C117.205 455.513 117.109 455.35 117.154 455.266C117.211 455.138 117.168 455.128 116.947 455.172C116.749 455.221 116.646 455.174 116.653 455.059C116.655 454.965 116.519 454.864 116.361 454.851C116.229 454.822 116.072 454.715 116.064 454.573C116.045 454.38 116.029 454.353 115.944 454.499C115.893 454.604 115.723 454.636 115.603 454.562C115.396 454.468 115.369 454.485 115.496 454.702C115.608 454.892 115.58 454.909 115.308 454.801C115.123 454.712 114.817 454.642 114.63 454.647C114.444 454.652 114.313 454.622 114.33 454.556C114.348 454.489 113.713 454.087 112.854 453.657C111.706 453.092 111.235 452.773 110.983 452.411C110.748 452.075 110.412 451.858 109.927 451.678C109.523 451.539 109.197 451.371 109.165 451.317C109.133 451.263 108.753 451.036 108.274 450.833C107.773 450.626 107.421 450.381 107.406 450.261C107.392 450.14 107.295 450.071 107.173 450.09C107.606 450.47 101.196 447.467 92.9456 443.717C90.959 442.821 89.1397 442.079 88.8934 442.047C88.6471 442.015 88.4403 441.921 88.4041 441.795C88.368 441.669 88.2268 441.59 88.0679 441.578C87.7501 441.553 84.4654 440.221 84.4351 440.073C84.4032 440.019 83.4785 439.574 82.3293 439.102C79.4701 437.914 75.6903 436.353 73.7197 435.483C72.8051 435.088 71.7912 434.717 71.4793 434.67C71.1455 434.618 70.8454 434.526 70.8092 434.4C70.7992 434.351 70.1189 434.032 69.0571 433.58C68.0012 433.106 66.536 432.516 64.9454 431.873C61.7583 430.61 58.3207 429.244 57.3346 428.856C56.0542 428.354 54.937 427.937 53.9727 427.554C53.0403 427.225 52.2828 426.936 51.6506 426.698C50.778 426.407 50.303 426.275 50.2476 426.31C50.1643 426.361 50.0171 426.305 49.8994 426.137C49.7498 425.915 49.591 425.903 49.1606 426.04C48.7301 426.177 48.5712 426.165 48.3938 425.96C48.2382 425.76 48.0853 425.726 47.9029 425.802C47.6986 425.873 47.6389 425.836 47.6363 425.671C47.6338 425.506 47.5959 425.474 47.4295 425.577C47.2075 425.715 46.9133 425.601 46.672 425.288C46.5863 425.175 46.4114 425.135 46.2348 425.189C46.0801 425.248 45.8776 425.226 45.7801 425.156C45.6826 425.087 45.3648 425.062 45.079 425.092C44.4737 425.189 43.2672 424.845 43.2168 424.599C43.1966 424.5 43.0932 424.454 42.9721 424.473C42.6527 424.542 42.2055 424.393 42.3501 424.285C42.4114 424.228 42.3417 424.142 42.1508 424.075C41.976 424.036 41.8448 424.006 41.865 424.105C41.8692 424.176 41.5354 424.124 41.0823 423.998C40.4601 423.81 40.2651 423.672 40.2147 423.425C40.176 423.134 40.1541 423.129 40.0616 423.39C40.0204 423.546 39.9036 423.637 39.838 423.622C38.7014 423.364 37.8187 423.023 37.7885 422.875C37.7683 422.777 37.6825 422.663 37.5951 422.644C37.5077 422.624 37.4681 422.685 37.4664 422.779C37.4866 422.877 37.4253 422.934 37.3597 422.919C37.2723 422.899 37.1924 422.764 37.1723 422.665C37.158 422.544 36.9352 422.423 36.6729 422.364C36.4325 422.31 36.2037 422.211 36.1835 422.112C36.1633 422.014 36.0819 421.972 36.0045 422.001C35.9272 422.031 35.6985 421.932 35.5371 421.754C35.2723 421.53 35.1789 421.532 35.0326 421.734C34.8469 421.997 34.4097 421.898 34.3332 421.575C34.313 421.477 34.0204 421.269 33.7102 421.129C33.0242 420.832 32.9385 420.719 33.3134 420.616C33.5614 420.554 33.5673 420.532 33.3546 420.461C33.2235 420.431 33.0149 420.431 32.8544 420.512C32.6442 420.605 32.6064 420.573 32.6392 420.275C32.6602 420.021 32.5964 419.913 32.4097 419.918C32.245 419.927 32.213 419.873 32.2904 419.843C32.5342 419.711 32.3121 419.237 31.9523 419.109C31.7178 419.032 31.6858 418.978 31.896 418.885C32.2667 418.71 32.2584 418.567 31.928 418.328C31.6732 418.153 31.6631 418.103 31.9111 418.042C32.1591 417.981 32.149 417.932 31.8943 417.756C31.5202 417.507 31.5731 417.308 32.0137 417.219C32.2835 417.163 32.3172 417.124 32.1836 416.929C32.0818 416.788 32.1264 416.446 32.2937 415.99C32.4669 415.513 32.4997 415.215 32.3862 415.118C32.2508 415.017 32.2802 414.906 32.4921 414.719C32.6426 414.589 32.6996 414.461 32.6122 414.441C32.3776 414.365 32.3886 413.451 32.6366 413.389C32.8073 413.357 32.8426 413.225 32.7879 412.907C32.7106 412.325 33.0384 411.178 33.373 410.877C33.5848 410.69 33.6142 410.58 33.4848 410.456C33.3553 410.333 33.3889 410.294 33.5537 410.284C33.7462 410.257 33.7639 410.19 33.6916 409.939C33.6134 409.71 33.6252 409.666 33.7269 409.806C33.8186 409.897 33.9061 409.917 33.9296 409.829C33.9708 409.673 33.8194 409.545 33.5353 409.481C33.426 409.456 33.4378 409.412 33.7656 408.264C33.8833 407.821 33.9968 407.306 34.006 407.097C34.027 406.843 34.1338 406.703 34.4373 406.607C34.6853 406.546 34.8476 406.371 34.8391 406.228C34.8366 406.063 34.9593 405.95 35.1459 405.945C35.4536 405.921 35.4536 405.921 35.2107 405.701C34.8702 405.413 35.1703 404.282 35.552 404.416C35.7487 404.46 35.7765 404.443 35.6866 404.258C35.6185 404.078 35.6756 403.95 35.9371 403.751C36.1649 403.591 36.3069 403.318 36.3338 403.042C36.3666 402.744 36.4456 402.621 36.5709 402.673C36.6801 402.697 36.7038 402.609 36.5978 402.397C36.5079 402.212 36.4734 401.993 36.5246 401.887C36.56 401.754 36.6196 401.791 36.644 401.961C36.6844 402.158 36.75 402.173 36.9719 402.035C37.1939 401.897 37.1838 401.848 36.9509 401.678C36.7559 401.54 36.7138 401.436 36.8584 401.328C36.9753 401.237 37.098 401.124 37.1375 401.062C37.1551 400.996 37.2384 400.944 37.2662 400.927C37.288 400.932 37.4124 400.725 37.4872 400.53C37.5898 400.319 37.7537 400.05 37.8764 399.937C37.9773 399.819 38.09 399.657 38.1135 399.568C38.19 399.28 38.6154 398.812 38.723 398.931C38.8407 399.098 39.462 398.417 39.4116 398.17C39.3914 398.072 39.4906 398.047 39.6218 398.077C39.7748 398.112 39.8521 398.082 39.8219 397.934C39.7916 397.786 39.8631 397.779 39.9925 397.902C40.106 397.999 40.2372 398.028 40.2666 397.917C40.2901 397.829 40.3834 397.826 40.4691 397.94C40.5549 398.053 40.6104 398.019 40.5919 397.827C40.5911 397.568 40.6348 397.578 40.8281 397.81C40.9517 397.955 41.0989 398.012 41.1165 397.946C41.2149 397.662 41.9396 397.639 42.1708 397.903C42.402 398.166 42.982 398.251 42.9256 398.027C42.9013 397.857 44.0623 398.284 44.1523 398.469C44.2002 398.55 44.3649 398.541 44.5255 398.46C44.686 398.379 44.9164 398.384 45.0299 398.48C45.1434 398.576 45.3561 398.648 45.5267 398.616C45.9992 398.582 47.1997 398.948 47.1367 399.098C47.0896 399.276 47.7016 399.414 48.1858 399.336C48.3783 399.309 48.887 399.401 49.2787 399.584C49.6764 399.745 50.0321 399.802 50.0438 399.757C50.0615 399.691 50.2026 399.77 50.3481 399.92C50.5255 400.125 50.6726 400.182 50.8769 400.111C51.0534 400.057 51.1627 400.081 51.1829 400.18C51.2031 400.278 51.4536 400.382 51.8092 400.439C52.28 400.499 52.3994 400.573 52.428 400.815C52.4565 401.056 52.5163 401.093 52.7761 400.987C52.9526 400.933 53.2704 400.958 53.4932 401.079C53.716 401.2 54.0001 401.265 54.0993 401.24C54.3692 401.184 54.887 401.677 54.8063 401.894C54.7769 402.005 54.8148 402.037 54.9855 402.005C55.289 401.909 56.6147 402.327 56.4365 402.475C56.3751 402.532 56.5584 402.714 56.8846 402.882C57.2107 403.05 57.4318 403.264 57.42 403.309C57.4024 403.375 57.5756 403.509 57.8202 403.634C58.0708 403.738 58.3297 403.985 58.4197 404.17C58.5298 404.453 58.6172 404.473 58.7677 404.343C58.94 404.217 59.0216 404.259 59.1931 404.486C59.2091 404.513 59.394 404.602 59.6824 404.738C60.0363 404.889 60.5214 405.069 61.1258 405.324C62.7879 405.959 65.0982 406.858 67.8716 407.933C73.4185 410.083 80.7351 412.987 88.0163 416.023C95.2976 419.06 102.577 422.19 108.091 424.638C110.845 425.873 113.192 426.898 114.868 427.654C116.735 428.477 117.177 428.647 117.351 428.687C117.642 428.729 118.192 428.924 118.572 429.152C118.974 429.384 119.209 429.46 119.129 429.325C119.033 429.162 119.094 429.105 119.424 429.086C119.704 429.079 119.851 429.136 119.843 429.252C119.814 429.362 120.074 429.516 120.44 429.622C120.844 429.76 121.098 429.936 121.204 430.148C121.336 430.436 121.364 430.419 121.403 430.099C121.463 429.783 121.547 429.732 121.896 429.811C122.399 429.925 122.75 430.263 122.5 430.418C122.222 430.59 122.862 430.711 123.199 430.576C123.459 430.471 123.481 430.476 123.373 430.709C123.258 430.966 123.615 431.281 123.918 431.186C124.15 431.097 124.858 431.399 124.692 431.502C124.47 431.64 124.601 431.669 125.286 431.707C125.604 431.732 126.226 431.92 126.649 432.157C127.073 432.394 127.526 432.52 127.631 432.474C127.764 432.41 127.83 432.425 127.811 432.585C127.781 432.695 127.916 432.797 128.075 432.809C128.256 432.827 128.294 432.859 128.155 432.945C128.044 433.014 128.043 433.107 128.184 433.186C128.309 433.238 128.446 433.246 128.492 433.162C128.515 433.073 128.728 433.145 128.951 433.266C129.168 433.409 129.446 433.496 129.573 433.454C129.87 433.38 130.112 433.694 129.89 433.831C129.751 433.917 130.399 434.182 131.001 434.271C131.11 434.296 131.18 434.382 131.135 434.466C131.111 434.555 131.143 434.609 131.236 434.606C131.33 434.604 131.378 434.685 131.32 434.813C131.23 434.981 131.283 435.04 131.595 435.087C132.022 435.137 132.854 435.584 133.177 435.939C133.3 436.085 133.584 436.149 133.854 436.093C134.14 436.063 134.337 436.108 134.351 436.229C134.371 436.327 134.441 436.414 134.534 436.411C134.628 436.409 134.682 436.468 134.636 436.552C134.545 436.719 135.275 437.026 135.676 436.999C135.797 436.979 135.861 437.088 135.848 437.226C135.806 437.381 135.98 437.514 136.296 437.633C136.552 437.714 136.791 437.863 136.811 437.961C136.831 438.06 137.001 438.38 137.205 438.661C137.51 439.083 137.528 439.275 137.342 439.538C137.157 439.802 137.177 439.9 137.4 440.021C137.622 440.142 137.643 440.241 137.453 440.433C137.324 440.568 137.283 440.723 137.364 440.765C137.43 440.78 137.333 440.97 137.149 441.14C136.937 441.327 136.813 441.533 136.843 441.681C136.879 441.807 136.767 442.228 136.64 442.622C136.49 443.011 136.375 443.619 136.346 443.989C136.314 444.546 136.257 444.674 135.986 444.824C135.797 444.922 135.647 445.052 135.651 445.124C135.655 445.195 135.51 445.656 135.287 446.146C135.086 446.641 134.923 447.168 134.975 447.32C135.021 447.495 134.976 447.579 134.872 447.532C134.709 447.448 133.983 448.788 134.089 449C134.115 449.076 134.06 449.369 133.934 449.669C133.83 449.975 133.696 450.391 133.643 450.59C133.59 450.79 133.438 451.014 133.306 451.078C133.046 451.184 132.377 452.395 132.518 452.474C132.562 452.484 132.224 453.23 131.781 454.116C130.91 455.822 130.635 456.512 130.71 456.928C130.74 457.076 130.586 457.394 130.406 457.635C130.226 457.876 130.072 458.194 130.075 458.359L130.19 458.361Z" fill="#B0E2DE"/>
<path d="M153.556 355.294C153.43 355.859 152.776 356.495 152.578 356.234C152.479 356.103 152.359 356.086 152.272 356.161C152.03 356.418 151.427 355.954 149.86 354.303C149.43 353.833 148.931 353.471 148.764 353.447C148.596 353.423 148.378 353.276 148.26 353.113C148.166 352.954 147.976 352.781 147.833 352.761C147.69 352.741 147.577 352.55 147.565 352.344C147.563 352.081 147.506 351.986 147.348 352.051C147.218 352.09 147.114 351.988 147.091 351.839C147.048 351.396 146.538 350.828 146.179 350.777C145.94 350.743 145.916 350.739 146.128 350.653C146.281 350.616 146.326 350.506 146.246 350.407C146.165 350.308 145.959 350.366 145.795 350.46C145.544 350.628 145.43 350.583 145.228 350.204C145.083 349.921 144.869 349.745 144.739 349.785C144.557 349.847 144.5 349.751 144.503 349.46C144.497 349.226 144.426 349.07 144.297 349.11C144.042 349.161 143.267 348.293 143.417 348.139C143.48 348.061 143.338 347.895 143.091 347.772C142.848 347.621 142.549 347.375 142.46 347.187C142.347 346.996 142.204 346.976 142.112 347.079C142.039 347.215 141.852 347.159 141.697 346.933C141.536 346.735 141.482 346.494 141.545 346.416C141.642 346.284 141.599 346.249 141.384 346.218C141.169 346.187 141.084 346.117 141.138 345.95C141.164 345.808 141.094 345.652 140.936 345.571C140.803 345.494 140.72 345.278 140.75 345.108C140.796 344.852 140.801 344.823 140.656 344.948C140.564 345.052 140.397 345.028 140.274 344.894C140.089 344.693 140.065 344.69 140.105 345.016C140.149 345.314 140.101 345.307 139.879 345.042C139.738 344.876 139.457 344.662 139.247 344.603C139.037 344.544 138.933 344.441 138.996 344.363C139.059 344.284 138.531 343.539 137.852 342.684C136.936 341.504 136.573 340.928 136.45 340.386C136.346 339.876 136.101 339.462 135.69 339.024C135.358 338.686 135.08 338.325 135.071 338.237C135.087 338.152 134.747 337.724 134.359 337.29C133.952 336.824 133.665 336.375 133.715 336.237C133.74 336.094 133.67 335.939 133.551 335.922C133.479 335.911 133.209 335.64 132.802 335.174C132.401 334.68 131.914 334.115 131.352 333.423C130.648 332.565 129.845 331.576 128.962 330.489C125.429 326.138 120.583 320.086 115.097 313.097C112.463 309.749 110.054 306.782 109.712 306.501C109.371 306.219 109.097 305.83 109.061 305.621C109.025 305.412 108.856 305.125 108.637 304.978C108.181 304.651 103.851 299.283 103.825 299.017C103.821 298.9 102.566 297.293 101.064 295.418C97.2761 290.711 92.4 284.421 89.8423 281.055C88.6719 279.518 87.3495 277.872 86.9088 277.46C86.4442 277.044 86.0667 276.553 86.0308 276.344C86.0222 276.255 85.1542 275.082 83.7908 273.256C82.4222 271.458 80.5582 269.007 78.5147 266.326C74.4467 260.996 70.0814 255.274 68.8308 253.639C65.7161 249.552 63.3516 246.475 61.7422 244.381C61.0571 243.555 60.6931 243.124 60.6112 243.171C60.5105 243.186 60.3925 243.023 60.3617 242.786C60.3274 242.431 60.1993 242.325 59.7212 242.257C59.2431 242.189 59.115 242.084 59.0567 241.725C59.0122 241.428 58.8943 241.265 58.674 241.263C58.4589 241.232 58.3975 241.165 58.481 240.973C58.5646 240.781 58.527 240.717 58.3494 240.75C58.0711 240.798 57.8541 240.505 57.7975 240.001C57.7803 239.824 57.6095 239.683 57.4422 239.659C57.2749 239.636 57.0802 239.491 57.0289 239.367C56.9827 239.215 56.6975 239.029 56.4021 238.899C55.7822 238.666 54.822 237.596 54.9072 237.258C54.9276 237.145 54.8764 237.021 54.7381 236.972C54.4136 236.868 54.0497 236.437 54.2563 236.379C54.357 236.364 54.316 236.183 54.1981 236.021C54.0563 235.855 53.947 235.781 53.9026 235.891C53.8873 235.977 53.5645 235.727 53.2245 235.299C52.7427 234.706 52.6161 234.455 52.7201 234.149C52.8343 233.786 52.8395 233.758 52.5971 234.015C52.476 234.143 52.3172 234.208 52.2506 234.17C51.3469 233.196 50.6721 232.313 50.7318 232.117C50.7573 231.975 50.7351 231.826 50.6787 231.731C50.6223 231.635 50.5352 231.71 50.4909 231.821C50.4654 231.963 50.3885 231.981 50.3031 231.911C50.2416 231.844 50.2295 231.638 50.2789 231.499C50.3044 231.357 50.1831 231.077 49.9747 230.873C49.7663 230.668 49.616 230.414 49.6603 230.303C49.6807 230.19 49.6534 230.069 49.5577 230.056C49.4621 230.042 49.3357 229.791 49.2382 229.515C49.1185 229.089 49.0279 229.047 48.777 229.216C48.4681 229.434 48.1229 229.035 48.2235 228.612C48.249 228.47 48.0952 228.099 47.8646 227.745C47.3844 227.006 47.3723 226.801 47.7684 226.915C48.0263 226.981 48.0315 226.953 47.8948 226.758C47.7957 226.627 47.5958 226.512 47.4234 226.516C47.1792 226.511 47.1707 226.422 47.3464 226.126C47.517 225.859 47.4998 225.682 47.3239 225.569C47.1668 225.489 47.1581 225.4 47.2537 225.413C47.5508 225.397 47.5966 224.733 47.3421 224.376C47.1627 224.147 47.178 224.062 47.3983 224.064C47.8388 224.068 47.9122 223.933 47.7309 223.441C47.601 223.072 47.6111 223.015 47.8639 223.11C48.1268 223.147 48.1269 223.147 48.0021 222.75C47.7969 222.255 47.9573 222.044 48.3962 222.194C48.6728 222.292 48.7308 222.242 48.7051 221.976C48.693 221.77 48.908 221.392 49.3295 220.956C49.751 220.521 49.9317 220.197 49.8907 220.016C49.8308 219.803 49.923 219.7 50.1825 219.62C50.3891 219.562 50.5103 219.433 50.4488 219.366C50.2694 219.137 50.7742 218.101 51.032 218.166C51.1994 218.19 51.3154 218.09 51.4348 217.699C51.6871 216.977 52.5949 215.881 53.0661 215.715C53.3546 215.61 53.4467 215.507 53.4056 215.326C53.3697 215.117 53.3987 215.092 53.5797 215.176C53.7607 215.26 53.8187 215.21 53.88 214.869C53.9362 214.556 53.9414 214.527 54.0012 214.74C54.0235 214.889 54.109 214.959 54.1721 214.881C54.2933 214.752 54.2435 214.483 53.9924 214.243C53.9121 214.144 53.9411 214.119 54.854 212.995C55.1987 212.578 55.5928 212.022 55.7054 211.804C55.8572 211.505 56.045 211.415 56.3506 211.488C56.6136 211.525 56.8441 211.471 56.9277 211.278C57.0113 211.086 57.1888 211.053 57.3698 211.137C57.6602 211.295 57.6653 211.267 57.5592 210.902C57.407 210.384 58.296 209.257 58.5745 209.617C58.7112 209.812 58.7693 209.762 58.7862 209.531C58.8322 209.275 58.9482 209.175 59.2794 209.105C59.5628 209.029 59.8718 208.811 60.0475 208.515C60.2232 208.219 60.3682 208.094 60.4673 208.225C60.5476 208.324 60.6107 208.245 60.643 207.929C60.6889 207.673 60.7401 207.389 60.8511 207.317C60.9722 207.189 60.9858 207.249 60.9262 207.444C60.8802 207.7 60.899 207.732 61.1722 207.713C61.4214 207.69 61.4608 207.608 61.3445 207.3C61.2471 207.023 61.2725 206.881 61.45 206.848C61.6037 206.812 61.7864 206.75 61.8444 206.7C61.9024 206.65 61.9844 206.604 62.0322 206.61C62.0561 206.614 62.2542 206.467 62.4572 206.292C62.6603 206.116 62.9692 205.898 63.128 205.833C63.2868 205.768 63.4795 205.65 63.5239 205.54C63.7235 205.247 64.3876 204.963 64.4235 205.172C64.4493 205.438 65.3592 205.013 65.4632 204.707C65.4836 204.593 65.6031 204.61 65.7022 204.741C65.8012 204.872 65.926 204.86 65.9515 204.718C65.9873 204.519 66.0538 204.558 66.1375 204.774C66.2025 204.958 66.3119 205.032 66.3751 204.953C66.4621 204.878 66.5286 204.917 66.5458 205.094C66.5629 205.272 66.6398 205.253 66.7284 205.033C66.8512 204.759 66.8991 204.765 66.9574 205.124C66.9882 205.361 67.0822 205.52 67.1453 205.442C67.3876 205.185 68.0537 205.571 68.1256 205.989C68.1976 206.408 68.657 206.852 68.761 206.546C68.7968 206.347 69.6511 207.46 69.629 207.719C69.6086 207.833 69.7657 207.913 69.9621 207.912C70.1533 207.939 70.353 208.055 70.3992 208.207C70.4454 208.36 70.606 208.557 70.787 208.641C71.2345 208.88 72.123 209.939 72.0018 210.068C71.8516 210.221 72.3488 210.729 72.8013 210.939C73.0063 211.027 73.4042 211.404 73.6776 211.793C73.951 212.181 74.2448 212.456 74.3079 212.378C74.3659 212.328 74.4411 212.455 74.4907 212.724C74.5541 213.054 74.6532 213.185 74.8683 213.215C75.0596 213.242 75.1398 213.341 75.1143 213.483C75.0888 213.626 75.2631 213.884 75.5433 214.098C75.9276 214.415 76.0216 214.574 75.9227 214.852C75.8187 215.158 75.8563 215.221 76.1432 215.262C76.3344 215.289 76.6145 215.504 76.7649 215.759C76.9153 216.013 77.1185 216.246 77.238 216.263C77.5147 216.361 77.7303 217.208 77.5511 217.386C77.459 217.49 77.4914 217.582 77.6588 217.606C77.9934 217.653 78.9758 218.872 78.7453 218.926C78.6446 218.941 78.7318 219.274 78.9335 219.653C79.1352 220.031 79.2464 220.368 79.1833 220.446C79.1252 220.496 79.2227 220.772 79.397 221.03C79.5713 221.288 79.691 221.714 79.6689 221.973C79.6264 222.346 79.6828 222.441 79.8894 222.383C80.0959 222.325 80.1762 222.424 80.2156 222.75C80.2054 222.807 80.3473 222.973 80.5353 223.291C80.6293 223.45 80.7709 223.616 80.9264 223.842C81.2049 224.203 81.4971 224.623 81.832 225.079C83.8515 227.756 86.6876 231.483 90.0757 235.958C96.8808 244.884 105.953 256.61 115.131 268.293C124.309 279.975 133.593 291.615 140.74 300.414C144.315 304.799 147.348 308.525 149.54 311.198C150.083 311.858 150.589 312.454 151.028 313.012C151.33 313.376 151.595 313.676 151.841 313.944C152.106 314.244 152.272 314.414 152.338 314.452C152.605 314.607 153.059 315.079 153.327 315.496C153.638 315.949 153.828 316.122 153.792 315.912C153.761 315.675 153.843 315.628 154.191 315.736C154.468 315.833 154.596 315.939 154.523 316.074C154.479 316.185 154.648 316.471 154.941 316.746C155.278 317.056 155.466 317.375 155.463 317.666C155.468 318.045 155.492 318.049 155.678 317.696C155.864 317.344 155.965 317.329 156.269 317.547C156.725 317.874 156.919 318.427 156.636 318.503C156.3 318.601 156.865 319.002 157.268 318.943C157.57 318.898 157.589 318.93 157.376 319.162C157.157 319.422 157.381 319.95 157.726 319.941C157.994 319.949 158.572 320.556 158.36 320.643C158.101 320.723 158.205 320.825 158.862 321.122C159.182 321.255 159.684 321.735 160.019 322.19C160.354 322.646 160.738 322.963 160.862 322.952C161.04 322.919 161.078 322.982 160.999 323.146C160.95 323.285 161.02 323.44 161.153 323.518C161.334 323.602 161.343 323.69 161.189 323.727C161.059 323.767 161.015 323.877 161.138 324.011C161.237 324.142 161.38 324.162 161.444 324.084C161.507 324.005 161.683 324.118 161.833 324.372C161.983 324.627 162.221 324.806 162.388 324.83C162.699 324.874 162.814 325.328 162.554 325.408C162.4 325.444 162.935 326.016 163.463 326.353C163.572 326.427 163.6 326.547 163.513 326.623C163.449 326.701 163.482 326.793 163.572 326.835C163.692 326.852 163.666 326.994 163.569 327.126C163.414 327.308 163.446 327.4 163.737 327.558C164.141 327.761 164.797 328.613 164.963 329.19C165.023 329.403 165.285 329.586 165.566 329.655C165.877 329.699 166.043 329.868 165.993 330.007C165.968 330.149 166.019 330.273 166.115 330.287C166.21 330.3 166.238 330.421 166.151 330.496C165.995 330.678 166.615 331.32 167.017 331.406C167.136 331.423 167.182 331.575 167.104 331.739C167.02 331.931 167.128 332.151 167.403 332.394C167.636 332.602 167.81 332.86 167.765 332.97C167.745 333.084 167.812 333.531 167.903 333.981C168.039 334.583 167.994 334.839 167.703 335.089C167.437 335.343 167.412 335.485 167.591 335.715C167.77 335.944 167.75 336.058 167.499 336.227C167.33 336.348 167.228 336.509 167.265 336.572C167.303 336.636 167.148 336.818 166.902 336.958C166.603 337.12 166.419 337.327 166.388 337.497C166.357 337.668 166.127 338.131 165.83 338.555C165.557 338.983 165.191 339.659 165.037 340.104C164.795 340.769 164.698 340.901 164.367 340.971C164.16 341.029 163.972 341.119 163.928 341.229C163.913 341.314 163.577 341.821 163.188 342.348C162.799 342.876 162.452 343.439 162.44 343.641C162.399 343.869 162.336 343.947 162.28 343.852C162.138 343.686 160.935 345.06 160.956 345.355C160.94 345.44 160.778 345.796 160.574 346.117C160.345 346.434 160.067 346.89 159.949 347.136C159.832 347.381 159.599 347.582 159.422 347.615C159.12 347.659 158.019 348.873 158.137 349.036C158.18 349.071 157.572 349.859 156.801 350.741C155.306 352.511 154.781 353.252 154.707 353.796C154.677 353.967 154.443 354.312 154.153 354.563C153.868 354.785 153.61 355.127 153.574 355.326L153.556 355.294Z" fill="#E7F6F5"/>
<path d="M1371.48 725.838C1371.12 726.077 1370.9 726.775 1371.13 726.892C1371.25 726.951 1371.34 727.066 1371.31 727.123C1371.19 727.379 1371.8 727.808 1373.63 728.781C1374.13 729.051 1374.62 729.4 1374.69 729.544C1374.77 729.688 1374.97 729.84 1375.13 729.885C1375.29 729.93 1375.48 730.061 1375.57 730.176C1375.66 730.292 1375.85 730.351 1376 730.303C1376.19 730.241 1376.28 730.285 1376.31 730.442C1376.35 730.55 1376.45 730.637 1376.57 730.624C1376.91 730.585 1377.54 730.864 1377.72 731.167C1377.84 731.368 1377.86 731.361 1377.83 731.204C1377.8 731.067 1377.87 730.997 1377.96 731.041C1378.05 731.085 1378.11 731.257 1378.1 731.428C1378.07 731.678 1378.15 731.772 1378.52 731.848C1378.78 731.908 1379 732.054 1379.01 732.168C1379.05 732.326 1379.13 732.37 1379.35 732.301C1379.52 732.246 1379.68 732.291 1379.7 732.405C1379.75 732.628 1380.69 733.118 1380.75 732.954C1380.78 732.897 1380.98 732.978 1381.16 733.159C1381.37 733.333 1381.66 733.529 1381.84 733.589C1382.03 733.648 1382.12 733.763 1382.04 733.863C1381.98 733.955 1382.08 734.113 1382.31 734.209C1382.51 734.312 1382.73 734.314 1382.76 734.207C1382.81 734.093 1382.87 734.123 1382.97 734.31C1383.06 734.497 1383.17 734.534 1383.26 734.478C1383.36 734.422 1383.52 734.466 1383.63 734.553C1383.74 734.662 1383.93 734.671 1384.05 734.608C1384.21 734.51 1384.26 734.518 1384.21 734.653C1384.18 734.76 1384.25 734.904 1384.39 734.955C1384.62 735.051 1384.61 735.08 1384.38 735.105C1384.15 735.131 1384.16 735.175 1384.45 735.299C1384.64 735.38 1384.91 735.584 1385.03 735.735C1385.16 735.887 1385.29 735.967 1385.31 735.91C1385.34 735.853 1386.1 736.112 1387.03 736.509C1388.28 737.046 1388.84 737.224 1389.31 737.194C1389.73 737.177 1390.13 737.289 1390.64 737.56C1391.02 737.771 1391.39 737.94 1391.46 737.92C1391.52 737.899 1391.97 738.068 1392.46 738.317C1392.98 738.559 1393.41 738.707 1393.51 738.63C1393.6 738.574 1393.73 738.604 1393.79 738.705C1393.36 738.678 1399.63 741.511 1407.76 744.974C1409.71 745.812 1411.45 746.597 1411.63 746.757C1411.81 746.916 1412.03 746.99 1412.15 746.949C1412.26 746.914 1412.43 746.93 1412.52 747.046C1412.73 747.27 1415.89 748.701 1416.01 748.638C1416.08 748.618 1417 748.993 1418.11 749.478C1420.88 750.726 1424.51 752.27 1426.46 753.036C1427.36 753.397 1428.3 753.837 1428.57 754.04C1428.83 754.243 1429.12 754.368 1429.22 754.312C1429.26 754.298 1429.94 754.535 1430.98 754.969C1432.02 755.403 1433.45 755.978 1434.99 756.61C1438.08 757.898 1441.37 759.266 1442.32 759.656C1444.75 760.678 1446.55 761.443 1447.79 761.958C1448.67 762.347 1449.14 762.582 1449.15 762.675C1449.18 762.761 1449.32 762.834 1449.52 762.793C1449.79 762.754 1449.92 762.834 1450.16 763.237C1450.4 763.619 1450.53 763.72 1450.81 763.702C1451.06 763.669 1451.2 763.743 1451.32 763.923C1451.43 764.103 1451.49 764.132 1451.62 764.019C1451.74 763.906 1451.79 763.914 1451.83 764.093C1451.9 764.337 1452.21 764.477 1452.62 764.417C1452.75 764.375 1452.94 764.506 1453.01 764.65C1453.09 764.794 1453.26 764.932 1453.38 764.941C1453.5 764.949 1453.77 765.153 1453.97 765.377C1454.38 765.846 1455.55 766.453 1455.78 766.284C1455.86 766.235 1455.97 766.272 1456.05 766.366C1456.23 766.619 1456.69 766.831 1456.67 766.645C1456.64 766.559 1456.78 766.539 1456.97 766.62C1457.14 766.686 1457.25 766.795 1457.2 766.837C1457.14 766.879 1457.46 767.09 1457.89 767.288C1458.51 767.567 1458.76 767.606 1458.95 767.473C1459.2 767.297 1459.2 767.297 1459.1 767.546C1459.05 767.681 1459.06 767.824 1459.12 767.875C1460.21 768.438 1461.14 768.814 1461.25 768.729C1461.33 768.68 1461.46 768.66 1461.54 768.683C1461.63 768.726 1461.63 768.798 1461.53 768.854C1461.43 768.91 1461.44 769.003 1461.52 769.026C1461.61 769.069 1461.76 769.021 1461.84 768.972C1461.93 768.894 1462.19 768.955 1462.43 769.093C1462.67 769.232 1462.91 769.299 1462.99 769.25C1463.07 769.201 1463.17 769.216 1463.22 769.296C1463.27 769.375 1463.51 769.442 1463.75 769.438C1464.11 769.442 1464.18 769.514 1464.15 769.764C1464.13 770.086 1464.54 770.291 1464.83 770.122C1464.91 770.073 1465.28 770.12 1465.63 770.225C1466.36 770.469 1466.52 770.442 1466.29 770.132C1466.15 769.937 1466.14 769.916 1466.36 769.99C1466.49 770.042 1466.65 770.208 1466.73 770.352C1466.81 770.567 1466.9 770.561 1467.05 770.32C1467.19 770.128 1467.32 770.087 1467.49 770.225C1467.6 770.333 1467.67 770.334 1467.64 770.248C1467.55 769.989 1468.02 769.788 1468.39 769.956C1468.65 770.067 1468.68 770.031 1468.59 769.844C1468.43 769.463 1468.49 769.371 1468.94 769.419C1469.26 769.459 1469.3 769.423 1469.15 769.229C1469 769.012 1469.05 768.999 1469.37 769.038C1469.83 769.108 1469.93 768.93 1469.63 768.569C1469.45 768.338 1469.46 768.288 1469.68 768.262C1469.83 768.214 1470.05 767.952 1470.22 767.51C1470.39 767.069 1470.56 766.821 1470.73 766.816C1470.9 766.832 1470.96 766.74 1470.91 766.467C1470.89 766.281 1470.92 766.153 1471 766.175C1471.24 766.264 1471.82 765.62 1471.67 765.403C1471.57 765.266 1471.63 765.153 1471.86 764.955C1472.3 764.596 1472.8 763.543 1472.74 763.106C1472.71 762.827 1472.75 762.741 1472.91 762.736C1473.08 762.731 1473.11 762.674 1472.97 762.551C1472.82 762.406 1472.84 762.349 1473.08 762.223C1473.3 762.104 1473.32 762.076 1473.14 762.11C1473.01 762.151 1472.94 762.079 1472.97 761.972C1473.01 761.836 1473.25 761.832 1473.52 761.985C1473.61 762.029 1473.64 761.994 1474.13 760.97C1474.32 760.572 1474.58 760.124 1474.69 759.968C1474.86 759.77 1474.85 759.605 1474.68 759.346C1474.53 759.13 1474.52 758.915 1474.62 758.787C1474.72 758.681 1474.7 758.495 1474.56 758.372C1474.34 758.155 1474.34 758.155 1474.68 758.166C1475.14 758.185 1475.65 757.154 1475.25 756.993C1475.06 756.912 1475.06 756.862 1475.22 756.785C1475.42 756.723 1475.43 756.573 1475.37 756.257C1475.29 755.992 1475.35 755.685 1475.51 755.465C1475.66 755.245 1475.7 755.088 1475.56 755.037C1475.46 755 1475.52 754.908 1475.7 754.824C1475.89 754.762 1476.05 754.613 1476.09 754.507C1476.13 754.371 1476.08 754.363 1475.96 754.476C1475.79 754.603 1475.74 754.545 1475.66 754.33C1475.58 754.093 1475.63 754.051 1475.92 754.104C1476.17 754.143 1476.26 754.065 1476.23 753.907C1476.18 753.778 1476.19 753.607 1476.19 753.535C1476.18 753.464 1476.2 753.385 1476.17 753.371C1476.16 753.349 1476.21 753.142 1476.25 752.935C1476.32 752.721 1476.35 752.422 1476.34 752.257C1476.33 752.092 1476.36 751.914 1476.4 751.85C1476.56 751.609 1476.51 750.972 1476.35 750.977C1476.15 751.018 1476.11 750.116 1476.32 749.975C1476.39 749.926 1476.33 749.825 1476.22 749.767C1476.07 749.694 1476.04 749.608 1476.13 749.53C1476.24 749.445 1476.21 749.409 1476.01 749.4C1475.85 749.405 1475.74 749.318 1475.78 749.233C1475.82 749.147 1475.74 749.103 1475.62 749.116C1475.47 749.143 1475.46 749.072 1475.6 748.93C1475.78 748.753 1475.74 748.717 1475.44 748.742C1475.23 748.761 1475.1 748.731 1475.12 748.653C1475.21 748.382 1474.7 747.897 1474.34 747.943C1473.99 747.982 1473.49 747.661 1473.68 747.528C1473.82 747.436 1472.65 746.972 1472.46 747.034C1472.37 747.062 1472.24 746.96 1472.17 746.788C1472.11 746.616 1471.92 746.485 1471.78 746.483C1471.63 746.481 1471.43 746.379 1471.29 746.256C1470.96 745.93 1469.8 745.387 1469.76 745.523C1469.7 745.687 1469.14 745.387 1468.81 745.011C1468.68 744.86 1468.23 744.597 1467.84 744.456C1467.43 744.301 1467.13 744.134 1467.15 744.055C1467.18 743.998 1467.02 743.953 1466.81 743.972C1466.53 743.991 1466.39 743.939 1466.28 743.759C1466.19 743.593 1466.08 743.556 1465.99 743.613C1465.91 743.662 1465.64 743.58 1465.35 743.383C1464.97 743.122 1464.81 743.077 1464.63 743.232C1464.45 743.387 1464.37 743.365 1464.23 743.12C1464.15 742.955 1463.87 742.78 1463.62 742.691C1463.38 742.624 1463.12 742.492 1463.07 742.413C1462.9 742.204 1462.18 742.195 1462.09 742.416C1462.04 742.53 1461.99 742.522 1461.88 742.363C1461.71 742.083 1460.45 741.503 1460.48 741.732C1460.52 741.818 1460.23 741.815 1459.87 741.739C1459.53 741.657 1459.21 741.639 1459.18 741.696C1459.16 741.753 1458.93 741.728 1458.67 741.647C1458.4 741.565 1458.03 741.539 1457.85 741.623C1457.57 741.713 1457.5 741.733 1457.45 741.511C1457.4 741.31 1457.31 741.266 1457.04 741.306C1457 741.32 1456.83 741.254 1456.5 741.142C1456.17 741.01 1455.67 740.833 1455.06 740.575C1453.51 739.942 1451.35 739.052 1448.8 737.999C1443.66 735.859 1436.88 732.97 1430.09 730.037C1423.3 727.105 1416.5 724.102 1411.34 721.775C1408.77 720.608 1406.59 719.603 1405 718.891C1403.28 718.098 1402.8 717.842 1402.67 717.741C1402.46 717.545 1401.92 717.26 1401.51 717.105C1401.06 716.936 1400.85 716.811 1401.01 716.785C1401.22 716.766 1401.21 716.673 1400.99 716.405C1400.81 716.175 1400.67 716.101 1400.6 716.194C1400.53 716.264 1400.27 716.183 1399.93 715.978C1399.56 715.76 1399.24 715.67 1399.03 715.739C1398.73 715.836 1398.72 715.793 1398.96 715.545C1399.16 715.312 1399.13 715.225 1398.86 715.001C1398.43 714.681 1397.95 714.618 1397.99 714.919C1398.04 715.241 1397.53 714.828 1397.43 714.476C1397.33 714.218 1397.32 714.196 1397.22 714.424C1397.12 714.673 1396.61 714.595 1396.5 714.294C1396.41 714.057 1395.71 713.705 1395.74 713.913C1395.79 714.164 1395.66 714.084 1395.19 713.585C1394.96 713.346 1394.41 713.018 1393.94 712.834C1393.49 712.643 1393.09 712.388 1393.05 712.28C1392.99 712.129 1392.94 712.1 1392.83 712.206C1392.74 712.284 1392.6 712.282 1392.48 712.152C1392.34 712.029 1392.29 712.021 1392.32 712.179C1392.35 712.315 1392.27 712.364 1392.12 712.291C1391.99 712.239 1391.92 712.117 1391.94 712.06C1391.96 711.981 1391.8 711.865 1391.56 711.798C1391.32 711.731 1391.07 711.549 1391 711.427C1390.85 711.16 1390.45 711.17 1390.49 711.421C1390.53 711.579 1389.9 711.228 1389.43 710.851C1389.33 710.785 1389.23 710.77 1389.2 710.877C1389.16 710.962 1389.09 710.961 1389.03 710.86C1388.97 710.781 1388.87 710.816 1388.81 710.929C1388.73 711.1 1388.66 711.099 1388.44 710.882C1388.11 710.578 1387.24 710.21 1386.76 710.197C1386.56 710.188 1386.34 710.021 1386.18 709.783C1386.01 709.524 1385.86 709.429 1385.76 709.485C1385.66 709.541 1385.57 709.547 1385.51 709.446C1385.45 709.367 1385.36 709.373 1385.32 709.458C1385.24 709.629 1384.53 709.256 1384.29 708.924C1384.23 708.824 1384.1 708.844 1384 708.921C1383.9 709.027 1383.7 708.996 1383.4 708.828C1383.16 708.69 1382.88 708.586 1382.8 708.635C1382.72 708.663 1382.36 708.73 1381.99 708.755C1381.47 708.777 1381.31 708.854 1381.23 709.146C1381.14 709.439 1381.04 709.495 1380.81 709.377C1380.58 709.282 1380.5 709.309 1380.45 709.566C1380.42 709.745 1380.34 709.865 1380.26 709.843C1380.18 709.821 1380.12 709.984 1380.12 710.228C1380.11 710.521 1380.03 710.713 1379.89 710.783C1379.76 710.824 1379.51 711.172 1379.3 711.505C1379.08 711.839 1378.7 712.299 1378.43 712.532C1378.01 712.885 1377.96 712.999 1378.03 713.314C1378.1 713.508 1378.07 713.708 1378.01 713.729C1377.95 713.749 1377.69 714.168 1377.46 714.63C1377.21 715.071 1376.9 715.511 1376.75 715.58C1376.59 715.657 1376.55 715.742 1376.66 715.779C1376.83 715.867 1376.25 717.212 1376.03 717.26C1375.97 717.28 1375.77 717.514 1375.59 717.762C1375.43 718.032 1375.2 718.373 1375.07 718.536C1374.93 718.699 1374.86 718.941 1374.91 719.092C1375.01 719.35 1374.49 720.603 1374.34 720.529C1374.31 720.515 1373.94 721.211 1373.56 722.058C1372.82 723.744 1372.43 724.376 1372.06 724.543C1371.93 724.585 1371.76 724.905 1371.7 725.19C1371.64 725.475 1371.47 725.795 1371.35 725.858L1371.48 725.838Z" fill="#B0E2DE"/>
<path d="M1303.28 600.762C1303.11 601.158 1303.25 601.902 1303.48 601.89C1303.6 601.873 1303.72 601.949 1303.71 602.02C1303.74 602.316 1304.36 602.433 1306.16 602.495C1306.66 602.514 1307.16 602.604 1307.28 602.702C1307.39 602.801 1307.61 602.862 1307.76 602.817C1307.89 602.797 1308.1 602.814 1308.21 602.89C1308.33 602.965 1308.48 602.92 1308.58 602.835C1308.7 602.703 1308.79 602.688 1308.87 602.793C1308.93 602.877 1309.05 602.905 1309.14 602.823C1309.38 602.625 1309.98 602.608 1310.24 602.802C1310.4 602.94 1310.44 602.934 1310.33 602.787C1310.25 602.683 1310.28 602.587 1310.37 602.573C1310.47 602.559 1310.58 602.705 1310.65 602.88C1310.74 603.122 1310.85 603.176 1311.15 603.085C1311.38 603.028 1311.59 603.067 1311.67 603.172C1311.75 603.298 1311.83 603.31 1311.98 603.126C1312.09 602.993 1312.21 602.976 1312.29 603.08C1312.42 603.269 1313.33 603.276 1313.31 603.093C1313.3 603.025 1313.48 603.022 1313.71 603.081C1313.95 603.162 1314.25 603.187 1314.41 603.165C1314.56 603.142 1314.67 603.195 1314.68 603.333C1314.68 603.449 1314.82 603.545 1315.01 603.516C1315.21 603.488 1315.35 603.42 1315.36 603.327C1315.33 603.191 1315.39 603.205 1315.56 603.321C1315.7 603.439 1315.8 603.447 1315.84 603.326C1315.88 603.227 1316.02 603.207 1316.15 603.258C1316.27 603.308 1316.42 603.24 1316.48 603.116C1316.55 602.944 1316.59 602.938 1316.62 603.096C1316.64 603.209 1316.75 603.307 1316.89 603.288C1317.11 603.279 1317.11 603.301 1316.94 603.443C1316.79 603.581 1316.81 603.601 1317.07 603.609C1317.25 603.583 1317.54 603.678 1317.7 603.749C1317.85 603.842 1317.97 603.847 1317.98 603.776C1317.97 603.709 1318.67 603.606 1319.5 603.554C1320.65 603.502 1321.16 603.405 1321.49 603.17C1321.8 602.964 1322.14 602.89 1322.63 602.912C1323.01 602.948 1323.35 602.922 1323.38 602.871C1323.41 602.82 1323.83 602.806 1324.28 602.785C1324.76 602.784 1325.15 602.705 1325.21 602.603C1325.25 602.504 1325.37 602.465 1325.46 602.544C1325.51 602.583 1325.81 602.608 1326.31 602.604C1326.51 602.598 1326.75 602.609 1327.01 602.595C1327.59 602.58 1328.21 602.559 1328.86 602.532C1330.19 602.477 1331.69 602.443 1333.34 602.387C1339.97 602.112 1349.11 601.747 1359.6 601.325C1364.63 601.1 1369.15 600.971 1369.68 601.032C1370.23 601.091 1370.76 601.059 1370.96 600.937C1371.14 600.841 1371.53 600.784 1371.84 600.832C1372.52 600.918 1380.68 600.674 1380.9 600.549C1380.96 600.541 1381.56 600.475 1382.54 600.425C1383.51 600.376 1384.82 600.323 1386.23 600.279C1393.37 600.044 1402.75 599.669 1407.71 599.407C1409.99 599.282 1412.46 599.244 1413.21 599.274C1413.96 599.327 1414.69 599.289 1414.86 599.218C1414.95 599.181 1416.63 599.074 1419.29 598.94C1421.95 598.829 1425.58 598.645 1429.53 598.484C1437.44 598.161 1445.9 597.804 1448.33 597.704C1454.33 597.475 1458.86 597.298 1461.92 597.175C1462.76 597.168 1463.18 597.198 1463.24 597.26C1463.29 597.345 1463.43 597.325 1463.57 597.212C1463.76 597.045 1463.88 597.073 1464.23 597.346C1464.56 597.599 1464.71 597.647 1464.92 597.5C1465.1 597.381 1465.24 597.361 1465.4 597.499C1465.57 597.637 1465.63 597.629 1465.65 597.462C1465.68 597.296 1465.74 597.287 1465.85 597.434C1466.01 597.642 1466.3 597.622 1466.56 597.399C1466.65 597.317 1466.84 597.359 1466.95 597.435C1467.07 597.533 1467.26 597.575 1467.35 597.539C1467.44 597.502 1467.74 597.575 1467.98 597.701C1468.49 597.974 1469.62 598.017 1469.72 597.794C1469.75 597.721 1469.86 597.704 1469.95 597.76C1470.2 597.909 1470.64 597.914 1470.53 597.768C1470.48 597.706 1470.59 597.621 1470.75 597.621C1470.9 597.598 1471.02 597.674 1470.99 597.725C1470.96 597.798 1471.27 597.845 1471.71 597.85C1472.31 597.855 1472.5 597.781 1472.6 597.558C1472.71 597.288 1472.71 597.288 1472.73 597.538C1472.76 597.696 1472.81 597.829 1472.87 597.843C1473.93 597.92 1474.78 597.888 1474.83 597.741C1474.87 597.642 1474.96 597.583 1475.04 597.571C1475.12 597.56 1475.16 597.647 1475.11 597.724C1475.07 597.822 1475.1 597.887 1475.18 597.876C1475.26 597.864 1475.36 597.78 1475.4 597.681C1475.44 597.582 1475.67 597.525 1475.9 597.562C1476.13 597.598 1476.36 597.541 1476.39 597.49C1476.41 597.417 1476.51 597.38 1476.58 597.439C1476.65 597.476 1476.86 597.444 1477.05 597.371C1477.32 597.238 1477.4 597.249 1477.49 597.491C1477.59 597.802 1477.99 597.835 1478.14 597.536C1478.18 597.459 1478.46 597.349 1478.78 597.303C1479.44 597.206 1479.54 597.122 1479.23 596.936C1479.02 596.804 1479.04 596.778 1479.22 596.775C1479.34 596.758 1479.53 596.845 1479.63 596.969C1479.79 597.132 1479.84 597.101 1479.89 596.816C1479.92 596.58 1480.01 596.498 1480.18 596.542C1480.31 596.593 1480.36 596.562 1480.31 596.5C1480.13 596.294 1480.42 595.927 1480.76 595.901C1481 595.89 1481.01 595.864 1480.86 595.701C1480.59 595.417 1480.61 595.298 1480.97 595.176C1481.23 595.091 1481.24 595.043 1481.04 594.911C1480.85 594.776 1480.86 594.728 1481.13 594.643C1481.5 594.496 1481.51 594.31 1481.15 594.107C1480.93 593.978 1480.92 593.933 1481.07 593.794C1481.19 593.684 1481.23 593.331 1481.18 592.875C1481.13 592.373 1481.17 592.065 1481.29 592.026C1481.42 591.961 1481.41 591.845 1481.3 591.631C1481.2 591.459 1481.18 591.324 1481.24 591.315C1481.46 591.306 1481.64 590.446 1481.43 590.314C1481.3 590.24 1481.29 590.102 1481.4 589.809C1481.6 589.27 1481.55 588.119 1481.32 587.714C1481.17 587.48 1481.17 587.364 1481.3 587.299C1481.42 587.211 1481.42 587.189 1481.27 587.119C1481.11 587.048 1481.1 586.981 1481.22 586.755C1481.34 586.552 1481.34 586.529 1481.19 586.62C1481.1 586.679 1481.02 586.668 1481.01 586.578C1480.98 586.42 1481.16 586.346 1481.43 586.354C1481.52 586.34 1481.52 586.34 1481.48 585.141C1481.48 584.679 1481.48 584.168 1481.53 583.977C1481.58 583.714 1481.49 583.565 1481.26 583.39C1481.08 583.255 1480.96 583.064 1480.99 582.92C1481.03 582.776 1480.94 582.627 1480.79 582.556C1480.53 582.455 1480.52 582.433 1480.78 582.325C1481.13 582.158 1481.12 580.979 1480.76 581.008C1480.59 581.034 1480.57 580.966 1480.67 580.836C1480.79 580.704 1480.74 580.549 1480.57 580.272C1480.4 580.041 1480.33 579.751 1480.36 579.492C1480.39 579.21 1480.34 579.055 1480.25 579.069C1480.15 579.083 1480.15 578.967 1480.28 578.809C1480.39 578.654 1480.47 578.456 1480.45 578.344C1480.43 578.208 1480.41 578.211 1480.34 578.361C1480.27 578.533 1480.21 578.541 1480.05 578.356C1479.9 578.17 1479.93 578.096 1480.15 578.017C1480.36 577.941 1480.4 577.842 1480.29 577.695C1480.21 577.591 1480.15 577.439 1480.11 577.374C1480.1 577.306 1480.07 577.242 1480.05 577.222C1480.04 577.199 1479.97 577.002 1479.92 576.776C1479.88 576.551 1479.79 576.263 1479.72 576.111C1479.65 575.959 1479.6 575.781 1479.61 575.711C1479.61 575.409 1479.33 574.848 1479.22 574.933C1479.09 575.046 1478.7 574.246 1478.8 574.023C1478.84 573.947 1478.77 573.865 1478.63 573.885C1478.5 573.905 1478.44 573.821 1478.48 573.699C1478.53 573.575 1478.49 573.536 1478.34 573.626C1478.22 573.691 1478.11 573.66 1478.09 573.57C1478.08 573.48 1478.01 573.466 1477.93 573.525C1477.82 573.61 1477.79 573.545 1477.84 573.376C1477.89 573.136 1477.85 573.119 1477.64 573.289C1477.5 573.379 1477.37 573.422 1477.37 573.329C1477.33 573.033 1476.73 572.797 1476.49 572.995C1476.24 573.17 1475.73 573.106 1475.81 572.886C1475.86 572.739 1474.79 572.803 1474.67 572.935C1474.62 572.989 1474.48 572.964 1474.35 572.82C1474.23 572.699 1474.04 572.635 1473.93 572.697C1473.82 572.759 1473.62 572.742 1473.47 572.695C1473.08 572.52 1471.98 572.519 1472 572.677C1472.04 572.858 1471.47 572.802 1471.07 572.605C1470.89 572.515 1470.46 572.463 1470.09 572.494C1469.72 572.526 1469.41 572.478 1469.39 572.411C1469.38 572.343 1469.26 572.36 1469.1 572.453C1468.91 572.598 1468.77 572.595 1468.63 572.477C1468.51 572.378 1468.39 572.373 1468.34 572.472C1468.3 572.57 1468.06 572.582 1467.77 572.509C1467.38 572.428 1467.24 572.448 1467.16 572.668C1467.08 572.888 1467.02 572.897 1466.81 572.719C1466.67 572.601 1466.4 572.548 1466.16 572.582C1465.95 572.614 1465.71 572.603 1465.62 572.546C1465.41 572.414 1464.85 572.728 1464.87 572.957C1464.89 573.069 1464.82 573.103 1464.7 572.982C1464.46 572.808 1463.24 572.801 1463.35 572.97C1463.4 573.032 1463.19 573.157 1462.88 573.225C1462.57 573.293 1462.33 573.398 1462.34 573.465C1462.35 573.533 1462.17 573.607 1461.93 573.641C1461.7 573.675 1461.4 573.811 1461.29 573.966C1461.14 574.198 1461.06 574.209 1460.94 574.017C1460.83 573.848 1460.75 573.86 1460.56 574.004C1460.54 574.007 1460.36 574.032 1460.09 574.072C1459.96 574.092 1459.78 574.118 1459.58 574.124C1459.1 574.147 1458.57 574.179 1457.95 574.2C1454 574.361 1448.44 574.618 1441.81 574.894C1428.54 575.422 1410.97 576.116 1393.35 576.818C1375.71 577.475 1358.02 578.117 1344.52 578.632C1337.78 578.855 1332.07 579.041 1327.93 579.183C1326.9 579.219 1325.96 579.24 1325.14 579.267C1324.76 579.276 1324.41 579.282 1324.07 579.285C1323.97 579.299 1323.89 579.288 1323.8 579.277C1323.48 579.278 1323.3 579.258 1323.24 579.244C1322.98 579.166 1322.48 579.147 1322.08 579.181C1321.68 579.241 1321.47 579.202 1321.57 579.117C1321.71 579.004 1321.68 578.939 1321.39 578.773C1321.17 578.644 1321.02 578.641 1321.01 578.76C1320.98 578.856 1320.74 578.915 1320.4 578.848C1320.03 578.809 1319.77 578.872 1319.61 579.01C1319.43 579.222 1319.41 579.202 1319.47 578.87C1319.51 578.562 1319.45 578.478 1319.16 578.405C1318.7 578.287 1318.31 578.46 1318.47 578.691C1318.64 578.944 1318.08 578.818 1317.85 578.551C1317.67 578.345 1317.65 578.348 1317.67 578.576C1317.7 578.85 1317.29 579.003 1317.07 578.78C1316.9 578.62 1316.21 578.604 1316.33 578.773C1316.46 578.984 1316.36 578.953 1315.77 578.715C1315.51 578.591 1314.94 578.535 1314.51 578.576C1314.07 578.616 1313.66 578.56 1313.61 578.475C1313.51 578.352 1313.47 578.357 1313.43 578.501C1313.41 578.597 1313.28 578.662 1313.15 578.612C1313 578.541 1312.95 578.595 1313.03 578.699C1313.11 578.803 1313.06 578.88 1312.93 578.9C1312.81 578.917 1312.7 578.841 1312.68 578.751C1312.66 578.66 1312.5 578.638 1312.28 578.669C1312.07 578.701 1311.82 578.667 1311.71 578.591C1311.5 578.414 1311.19 578.598 1311.33 578.809C1311.41 578.936 1310.78 578.889 1310.28 578.754C1310.17 578.723 1310.1 578.78 1310.12 578.87C1310.14 578.96 1310.06 578.994 1309.99 578.935C1309.9 578.879 1309.85 578.955 1309.86 579.093C1309.89 579.274 1309.8 579.311 1309.54 579.232C1309.18 579.1 1308.35 579.152 1307.99 579.367C1307.84 579.435 1307.59 579.402 1307.37 579.25C1307.14 579.098 1306.97 579.075 1306.91 579.177C1306.87 579.276 1306.78 579.313 1306.71 579.253C1306.62 579.197 1306.57 579.251 1306.58 579.341C1306.62 579.522 1305.89 579.511 1305.57 579.303C1305.48 579.247 1305.4 579.306 1305.36 579.428C1305.32 579.572 1305.16 579.642 1304.87 579.592C1304.62 579.559 1304.39 579.593 1304.34 579.669C1304.29 579.745 1304.06 579.966 1303.79 580.144C1303.41 580.384 1303.32 580.559 1303.38 580.852C1303.43 581.145 1303.39 581.244 1303.17 581.253C1302.95 581.262 1302.91 581.338 1302.99 581.58C1303.04 581.758 1303.05 581.896 1302.97 581.908C1302.89 581.919 1302.93 582.099 1303.05 582.336C1303.16 582.598 1303.2 582.824 1303.12 582.951C1303.06 583.052 1303 583.478 1302.99 583.873C1302.99 584.268 1302.9 584.883 1302.78 585.224C1302.61 585.735 1302.62 585.873 1302.81 586.124C1302.94 586.29 1303.01 586.465 1302.98 586.516C1302.95 586.589 1302.94 587.054 1302.95 587.584C1302.97 588.115 1302.91 588.634 1302.83 588.761C1302.74 588.913 1302.75 588.981 1302.85 588.989C1303.01 588.966 1303.17 590.472 1303.01 590.633C1302.96 590.687 1302.92 590.972 1302.92 591.296C1302.91 591.598 1302.87 592.043 1302.85 592.232C1302.81 592.447 1302.87 592.692 1302.96 592.819C1303.13 593.024 1303.29 594.392 1303.15 594.389C1303.11 594.395 1303.13 595.179 1303.23 596.16C1303.4 598.035 1303.37 598.78 1303.17 599.11C1303.12 599.234 1303.12 599.559 1303.19 599.871C1303.27 600.184 1303.27 600.531 1303.22 600.655L1303.28 600.762Z" fill="#E7F6F5"/>
<path d="M1385.36 458.383C1385.34 458.834 1385.74 459.471 1385.99 459.345C1386.11 459.293 1386.23 459.291 1386.27 459.375C1386.41 459.626 1387.08 459.45 1388.91 458.682C1389.42 458.474 1389.96 458.328 1390.13 458.36C1390.28 458.397 1390.52 458.342 1390.65 458.241C1390.79 458.14 1391 458.068 1391.12 458.088C1391.26 458.102 1391.42 457.996 1391.47 457.843C1391.54 457.663 1391.62 457.621 1391.76 457.685C1391.84 457.737 1391.97 457.707 1392.04 457.621C1392.19 457.328 1392.81 457.024 1393.13 457.092C1393.35 457.136 1393.37 457.132 1393.2 457.028C1393.09 456.959 1393.07 456.871 1393.15 456.829C1393.23 456.787 1393.41 456.863 1393.54 456.998C1393.71 457.195 1393.85 457.188 1394.11 456.963C1394.32 456.798 1394.54 456.748 1394.65 456.817C1394.79 456.903 1394.87 456.861 1394.96 456.654C1395.03 456.474 1395.14 456.4 1395.23 456.452C1395.44 456.567 1396.36 456.172 1396.27 456.005C1396.25 455.938 1396.41 455.854 1396.66 455.822C1396.91 455.79 1397.25 455.688 1397.39 455.587C1397.54 455.481 1397.69 455.518 1397.72 455.606C1397.74 455.717 1397.93 455.722 1398.14 455.628C1398.34 455.534 1398.44 455.371 1398.4 455.288C1398.34 455.16 1398.38 455.15 1398.6 455.194C1398.8 455.243 1398.9 455.196 1398.9 455.08C1398.89 454.986 1399.03 454.885 1399.19 454.873C1399.32 454.843 1399.48 454.737 1399.49 454.594C1399.5 454.402 1399.52 454.375 1399.6 454.52C1399.66 454.626 1399.83 454.658 1399.95 454.584C1400.15 454.49 1400.18 454.507 1400.05 454.724C1399.94 454.914 1399.97 454.931 1400.24 454.822C1400.43 454.733 1400.73 454.664 1400.92 454.669C1401.11 454.673 1401.24 454.644 1401.22 454.577C1401.2 454.511 1401.84 454.108 1402.7 453.679C1403.84 453.113 1404.31 452.795 1404.57 452.432C1404.8 452.097 1405.14 451.88 1405.62 451.699C1406.03 451.561 1406.35 451.393 1406.38 451.339C1406.42 451.284 1406.8 451.057 1407.28 450.855C1407.78 450.647 1408.13 450.403 1408.14 450.282C1408.16 450.161 1408.25 450.092 1408.38 450.112C1407.94 450.492 1414.35 447.488 1422.6 443.739C1424.59 442.842 1426.41 442.101 1426.66 442.068C1426.9 442.036 1427.11 441.942 1427.15 441.817C1427.18 441.691 1427.32 441.612 1427.48 441.599C1427.8 441.574 1431.08 440.243 1431.11 440.095C1431.15 440.04 1432.07 439.596 1433.22 439.124C1436.08 437.936 1439.86 436.374 1441.83 435.504C1442.74 435.109 1443.76 434.738 1444.07 434.691C1444.4 434.639 1444.7 434.548 1444.74 434.422C1444.75 434.373 1445.43 434.054 1446.49 433.602C1447.55 433.128 1449.01 432.537 1450.6 431.895C1453.79 430.632 1457.23 429.265 1458.21 428.877C1459.5 428.376 1460.61 427.958 1461.58 427.575C1462.51 427.246 1463.27 426.957 1463.9 426.72C1464.77 426.428 1465.25 426.297 1465.3 426.331C1465.38 426.383 1465.53 426.326 1465.65 426.158C1465.8 425.937 1465.96 425.924 1466.39 426.061C1466.82 426.199 1466.98 426.186 1467.16 425.982C1467.31 425.782 1467.46 425.747 1467.65 425.823C1467.85 425.895 1467.91 425.858 1467.91 425.693C1467.92 425.527 1467.95 425.495 1468.12 425.599C1468.34 425.736 1468.64 425.623 1468.88 425.31C1468.96 425.196 1469.14 425.156 1469.31 425.21C1469.47 425.269 1469.67 425.247 1469.77 425.178C1469.87 425.109 1470.18 425.084 1470.47 425.113C1471.08 425.211 1472.28 424.867 1472.33 424.62C1472.35 424.522 1472.46 424.475 1472.58 424.495C1472.9 424.563 1473.34 424.415 1473.2 424.307C1473.14 424.25 1473.21 424.164 1473.4 424.097C1473.57 424.057 1473.7 424.028 1473.68 424.126C1473.68 424.198 1474.01 424.145 1474.47 424.019C1475.09 423.831 1475.28 423.693 1475.33 423.447C1475.37 423.156 1475.4 423.151 1475.49 423.412C1475.53 423.567 1475.65 423.658 1475.71 423.643C1476.85 423.386 1477.73 423.045 1477.76 422.897C1477.78 422.798 1477.87 422.685 1477.95 422.665C1478.04 422.645 1478.08 422.707 1478.08 422.8C1478.06 422.899 1478.12 422.956 1478.19 422.941C1478.28 422.921 1478.36 422.785 1478.38 422.687C1478.39 422.566 1478.61 422.445 1478.88 422.386C1479.12 422.331 1479.35 422.232 1479.37 422.134C1479.39 422.035 1479.47 421.993 1479.54 422.023C1479.62 422.052 1479.85 421.953 1480.01 421.776C1480.28 421.551 1480.37 421.553 1480.52 421.755C1480.7 422.019 1481.14 421.92 1481.22 421.597C1481.24 421.498 1481.53 421.291 1481.84 421.15C1482.53 420.854 1482.61 420.74 1482.24 420.637C1481.99 420.576 1481.98 420.554 1482.19 420.482C1482.33 420.452 1482.53 420.452 1482.69 420.533C1482.91 420.627 1482.94 420.594 1482.91 420.296C1482.89 420.043 1482.95 419.934 1483.14 419.939C1483.3 419.949 1483.34 419.894 1483.26 419.865C1483.02 419.732 1483.24 419.259 1483.6 419.13C1483.83 419.054 1483.86 418.999 1483.65 418.906C1483.28 418.732 1483.29 418.589 1483.62 418.349C1483.88 418.174 1483.89 418.125 1483.64 418.064C1483.39 418.002 1483.4 417.953 1483.66 417.778C1484.03 417.529 1483.98 417.329 1483.54 417.241C1483.27 417.185 1483.23 417.145 1483.37 416.95C1483.47 416.81 1483.42 416.467 1483.26 416.012C1483.08 415.534 1483.05 415.236 1483.16 415.14C1483.3 415.039 1483.27 414.928 1483.06 414.741C1482.91 414.611 1482.85 414.483 1482.94 414.463C1483.17 414.386 1483.16 413.472 1482.91 413.411C1482.74 413.379 1482.71 413.246 1482.76 412.928C1482.84 412.347 1482.51 411.199 1482.18 410.899C1481.96 410.712 1481.94 410.601 1482.06 410.478C1482.19 410.354 1482.16 410.315 1482 410.305C1481.8 410.278 1481.79 410.212 1481.86 409.961C1481.94 409.731 1481.92 409.687 1481.82 409.828C1481.73 409.919 1481.64 409.939 1481.62 409.85C1481.58 409.695 1481.73 409.567 1482.01 409.502C1482.12 409.477 1482.11 409.433 1481.78 408.286C1481.67 407.842 1481.55 407.327 1481.54 407.118C1481.52 406.864 1481.42 406.724 1481.11 406.628C1480.86 406.567 1480.7 406.392 1480.71 406.249C1480.71 406.084 1480.59 405.971 1480.4 405.966C1480.1 405.942 1480.1 405.942 1480.34 405.723C1480.68 405.434 1480.38 404.304 1480 404.437C1479.8 404.482 1479.77 404.464 1479.86 404.28C1479.93 404.1 1479.87 403.972 1479.61 403.772C1479.38 403.613 1479.24 403.339 1479.22 403.063C1479.18 402.765 1479.1 402.642 1478.98 402.694C1478.87 402.719 1478.85 402.63 1478.95 402.418C1479.04 402.233 1479.08 402.014 1479.02 401.908C1478.99 401.775 1478.93 401.812 1478.91 401.982C1478.86 402.179 1478.8 402.194 1478.58 402.057C1478.36 401.919 1478.37 401.87 1478.6 401.699C1478.79 401.561 1478.84 401.458 1478.69 401.349C1478.57 401.258 1478.45 401.145 1478.41 401.084C1478.39 401.017 1478.31 400.966 1478.28 400.948C1478.26 400.953 1478.14 400.746 1478.06 400.552C1477.96 400.34 1477.8 400.072 1477.67 399.959C1477.57 399.841 1477.46 399.678 1477.44 399.589C1477.36 399.301 1476.93 398.834 1476.83 398.952C1476.71 399.12 1476.09 398.438 1476.14 398.192C1476.16 398.093 1476.06 398.069 1475.93 398.098C1475.77 398.133 1475.7 398.104 1475.73 397.956C1475.76 397.808 1475.69 397.801 1475.56 397.924C1475.44 398.02 1475.31 398.05 1475.28 397.939C1475.26 397.85 1475.17 397.848 1475.08 397.961C1474.99 398.075 1474.94 398.04 1474.96 397.848C1474.96 397.59 1474.91 397.599 1474.72 397.831C1474.6 397.977 1474.45 398.034 1474.43 397.967C1474.33 397.684 1473.61 397.66 1473.38 397.924C1473.15 398.188 1472.57 398.272 1472.62 398.048C1472.65 397.878 1471.49 398.306 1471.4 398.491C1471.35 398.572 1471.18 398.562 1471.02 398.481C1470.86 398.4 1470.63 398.405 1470.52 398.502C1470.41 398.598 1470.19 398.669 1470.02 398.638C1469.55 398.604 1468.35 398.97 1468.41 399.12C1468.46 399.297 1467.85 399.436 1467.36 399.358C1467.17 399.331 1466.66 399.423 1466.27 399.605C1465.87 399.766 1465.52 399.823 1465.51 399.779C1465.49 399.712 1465.35 399.791 1465.2 399.942C1465.02 400.146 1464.88 400.203 1464.67 400.132C1464.5 400.078 1464.39 400.103 1464.37 400.201C1464.35 400.3 1464.1 400.404 1463.74 400.461C1463.27 400.521 1463.15 400.595 1463.12 400.836C1463.09 401.078 1463.03 401.115 1462.77 401.009C1462.6 400.955 1462.28 400.98 1462.06 401.101C1461.83 401.222 1461.55 401.286 1461.45 401.262C1461.18 401.205 1460.66 401.699 1460.74 401.915C1460.77 402.026 1460.73 402.058 1460.56 402.027C1460.26 401.931 1458.93 402.349 1459.11 402.496C1459.17 402.553 1458.99 402.736 1458.66 402.903C1458.34 403.071 1458.12 403.286 1458.13 403.33C1458.15 403.397 1457.97 403.53 1457.73 403.656C1457.48 403.76 1457.22 404.006 1457.13 404.191C1457.02 404.475 1456.93 404.495 1456.78 404.364C1456.61 404.239 1456.53 404.281 1456.36 404.508C1456.34 404.535 1456.16 404.624 1455.87 404.759C1455.51 404.91 1455.03 405.091 1454.42 405.345C1452.76 405.98 1450.45 406.88 1447.68 407.955C1442.13 410.105 1434.81 413.008 1427.53 416.045C1420.25 419.081 1412.97 422.211 1407.46 424.659C1404.7 425.895 1402.36 426.92 1400.68 427.676C1398.81 428.498 1398.37 428.669 1398.2 428.708C1397.91 428.751 1397.36 428.946 1396.98 429.173C1396.58 429.405 1396.34 429.482 1396.42 429.346C1396.52 429.184 1396.46 429.127 1396.13 429.108C1395.85 429.101 1395.7 429.157 1395.71 429.273C1395.74 429.384 1395.47 429.537 1395.11 429.643C1394.71 429.782 1394.45 429.957 1394.34 430.169C1394.21 430.457 1394.19 430.44 1394.15 430.12C1394.09 429.805 1394 429.753 1393.65 429.832C1393.15 429.946 1392.8 430.284 1393.05 430.439C1393.33 430.611 1392.69 430.733 1392.35 430.598C1392.09 430.492 1392.07 430.497 1392.18 430.731C1392.29 430.987 1391.93 431.303 1391.63 431.207C1391.4 431.119 1390.69 431.42 1390.86 431.523C1391.08 431.661 1390.95 431.691 1390.26 431.729C1389.95 431.754 1389.32 431.942 1388.9 432.179C1388.48 432.416 1388.02 432.542 1387.92 432.495C1387.79 432.431 1387.72 432.446 1387.74 432.606C1387.77 432.717 1387.63 432.818 1387.47 432.831C1387.29 432.848 1387.26 432.88 1387.39 432.966C1387.5 433.035 1387.51 433.129 1387.37 433.208C1387.24 433.26 1387.1 433.267 1387.06 433.183C1387.03 433.095 1386.82 433.166 1386.6 433.287C1386.38 433.431 1386.1 433.517 1385.98 433.475C1385.68 433.402 1385.44 433.715 1385.66 433.853C1385.8 433.939 1385.15 434.203 1384.55 434.293C1384.44 434.317 1384.37 434.404 1384.41 434.487C1384.44 434.576 1384.41 434.63 1384.31 434.628C1384.22 434.626 1384.17 434.707 1384.23 434.835C1384.32 435.002 1384.27 435.062 1383.95 435.109C1383.53 435.159 1382.7 435.605 1382.37 435.961C1382.25 436.106 1381.96 436.17 1381.7 436.114C1381.41 436.085 1381.21 436.13 1381.2 436.25C1381.18 436.349 1381.11 436.435 1381.01 436.433C1380.92 436.43 1380.87 436.49 1380.91 436.573C1381 436.741 1380.27 437.047 1379.87 437.02C1379.75 437.001 1379.69 437.109 1379.7 437.247C1379.74 437.403 1379.57 437.536 1379.25 437.654C1379 437.736 1378.76 437.884 1378.74 437.983C1378.72 438.081 1378.55 438.402 1378.34 438.683C1378.04 439.104 1378.02 439.297 1378.21 439.56C1378.39 439.823 1378.37 439.922 1378.15 440.043C1377.93 440.164 1377.91 440.262 1378.1 440.454C1378.23 440.59 1378.27 440.745 1378.19 440.787C1378.12 440.802 1378.22 440.991 1378.4 441.161C1378.61 441.348 1378.74 441.555 1378.71 441.703C1378.67 441.828 1378.78 442.25 1378.91 442.644C1379.06 443.033 1379.17 443.641 1379.2 444.01C1379.24 444.567 1379.29 444.695 1379.56 444.845C1379.75 444.943 1379.9 445.074 1379.9 445.145C1379.89 445.217 1380.04 445.677 1380.26 446.167C1380.46 446.662 1380.63 447.189 1380.57 447.342C1380.53 447.517 1380.57 447.601 1380.68 447.554C1380.84 447.47 1381.57 448.809 1381.46 449.021C1381.43 449.097 1381.49 449.391 1381.61 449.691C1381.72 449.996 1381.85 450.412 1381.91 450.612C1381.96 450.811 1382.11 451.035 1382.24 451.099C1382.5 451.205 1383.17 452.416 1383.03 452.495C1382.99 452.505 1383.32 453.251 1383.77 454.138C1384.64 455.844 1384.91 456.533 1384.84 456.95C1384.81 457.098 1384.96 457.415 1385.14 457.656C1385.32 457.898 1385.48 458.215 1385.47 458.38L1385.36 458.383Z" fill="#B0E2DE"/>
<path d="M1361.99 355.312C1362.12 355.877 1362.77 356.513 1362.97 356.251C1363.07 356.121 1363.19 356.104 1363.28 356.179C1363.52 356.436 1364.12 355.971 1365.69 354.32C1366.12 353.851 1366.62 353.488 1366.79 353.465C1366.95 353.441 1367.17 353.293 1367.29 353.131C1367.38 352.972 1367.57 352.799 1367.72 352.778C1367.86 352.758 1367.97 352.567 1367.98 352.361C1367.99 352.099 1368.04 352.003 1368.2 352.068C1368.33 352.108 1368.44 352.006 1368.46 351.857C1368.5 351.413 1369.01 350.845 1369.37 350.794C1369.61 350.76 1369.63 350.757 1369.42 350.67C1369.27 350.634 1369.22 350.524 1369.3 350.425C1369.38 350.326 1369.59 350.384 1369.75 350.477C1370.01 350.646 1370.12 350.6 1370.32 350.222C1370.47 349.939 1370.68 349.763 1370.81 349.803C1370.99 349.864 1371.05 349.769 1371.05 349.478C1371.05 349.243 1371.12 349.088 1371.25 349.127C1371.51 349.179 1372.28 348.311 1372.13 348.157C1372.07 348.079 1372.21 347.913 1372.46 347.79C1372.7 347.639 1373 347.392 1373.09 347.205C1373.2 347.014 1373.35 346.993 1373.44 347.097C1373.51 347.232 1373.7 347.177 1373.85 346.951C1374.01 346.753 1374.07 346.512 1374 346.433C1373.91 346.301 1373.95 346.266 1374.17 346.236C1374.38 346.205 1374.47 346.135 1374.41 345.967C1374.39 345.825 1374.46 345.67 1374.61 345.589C1374.75 345.512 1374.83 345.296 1374.8 345.125C1374.75 344.869 1374.75 344.841 1374.89 344.966C1374.99 345.07 1375.15 345.046 1375.28 344.912C1375.46 344.711 1375.48 344.707 1375.44 345.033C1375.4 345.331 1375.45 345.325 1375.67 345.06C1375.81 344.894 1376.09 344.679 1376.3 344.62C1376.51 344.561 1376.62 344.459 1376.55 344.38C1376.49 344.302 1377.02 343.556 1377.7 342.702C1378.61 341.522 1378.98 340.946 1379.1 340.404C1379.2 339.893 1379.45 339.479 1379.86 339.042C1380.19 338.703 1380.47 338.343 1380.48 338.254C1380.46 338.169 1380.8 337.742 1381.19 337.308C1381.6 336.842 1381.88 336.393 1381.83 336.254C1381.81 336.112 1381.88 335.956 1382 335.939C1382.07 335.929 1382.34 335.658 1382.75 335.192C1383.15 334.697 1383.64 334.132 1384.2 333.44C1384.9 332.582 1385.7 331.594 1386.59 330.506C1390.12 326.156 1394.97 320.103 1400.45 313.114C1403.09 309.766 1405.5 306.8 1405.84 306.518C1406.18 306.237 1406.45 305.848 1406.49 305.639C1406.52 305.429 1406.69 305.143 1406.91 304.995C1407.37 304.668 1411.7 299.301 1411.72 299.035C1411.73 298.918 1412.98 297.311 1414.49 295.436C1418.27 290.729 1423.15 284.438 1425.71 281.072C1426.88 279.536 1428.2 277.89 1428.64 277.478C1429.11 277.062 1429.48 276.571 1429.52 276.362C1429.53 276.273 1430.4 275.1 1431.76 273.274C1433.13 271.476 1434.99 269.025 1437.03 266.344C1441.1 261.014 1445.47 255.292 1446.72 253.656C1449.83 249.569 1452.2 246.493 1453.81 244.399C1454.49 243.572 1454.86 243.142 1454.94 243.188C1455.04 243.203 1455.16 243.041 1455.19 242.803C1455.22 242.448 1455.35 242.343 1455.83 242.275C1456.31 242.207 1456.43 242.101 1456.49 241.743C1456.54 241.445 1456.66 241.283 1456.88 241.281C1457.09 241.25 1457.15 241.183 1457.07 240.991C1456.98 240.799 1457.02 240.735 1457.2 240.768C1457.48 240.816 1457.7 240.523 1457.75 240.019C1457.77 239.842 1457.94 239.701 1458.11 239.677C1458.27 239.653 1458.47 239.509 1458.52 239.385C1458.57 239.233 1458.85 239.046 1459.15 238.917C1459.77 238.683 1460.73 237.614 1460.64 237.276C1460.62 237.162 1460.67 237.038 1460.81 236.99C1461.14 236.885 1461.5 236.455 1461.29 236.396C1461.19 236.382 1461.23 236.201 1461.35 236.038C1461.49 235.872 1461.6 235.799 1461.65 235.909C1461.66 235.994 1461.98 235.744 1462.32 235.317C1462.81 234.724 1462.93 234.473 1462.83 234.167C1462.71 233.804 1462.71 233.775 1462.95 234.033C1463.07 234.161 1463.23 234.226 1463.3 234.187C1464.2 233.214 1464.88 232.33 1464.82 232.135C1464.79 231.993 1464.81 231.844 1464.87 231.748C1464.93 231.653 1465.01 231.728 1465.06 231.838C1465.08 231.98 1465.16 231.999 1465.25 231.928C1465.31 231.861 1465.32 231.655 1465.27 231.517C1465.24 231.374 1465.37 231.095 1465.57 230.89C1465.78 230.686 1465.93 230.431 1465.89 230.321C1465.87 230.207 1465.9 230.087 1465.99 230.073C1466.09 230.06 1466.21 229.808 1466.31 229.532C1466.43 229.107 1466.52 229.065 1466.77 229.233C1467.08 229.452 1467.43 229.053 1467.33 228.63C1467.3 228.488 1467.45 228.116 1467.68 227.763C1468.16 227.024 1468.18 226.818 1467.78 226.933C1467.52 226.998 1467.52 226.97 1467.65 226.776C1467.75 226.645 1467.95 226.529 1468.13 226.534C1468.37 226.528 1468.38 226.44 1468.2 226.144C1468.03 225.877 1468.05 225.699 1468.23 225.587C1468.38 225.506 1468.39 225.417 1468.3 225.431C1468 225.415 1467.95 224.751 1468.21 224.394C1468.39 224.164 1468.37 224.079 1468.15 224.081C1467.71 224.086 1467.64 223.95 1467.82 223.458C1467.95 223.09 1467.94 223.033 1467.69 223.127C1467.42 223.165 1467.42 223.165 1467.55 222.768C1467.75 222.272 1467.59 222.062 1467.15 222.212C1466.88 222.309 1466.82 222.259 1466.84 221.993C1466.86 221.787 1466.64 221.41 1466.22 220.974C1465.8 220.538 1465.62 220.214 1465.66 220.033C1465.72 219.821 1465.63 219.717 1465.37 219.638C1465.16 219.579 1465.04 219.451 1465.1 219.384C1465.28 219.154 1464.78 218.118 1464.52 218.184C1464.35 218.208 1464.23 218.108 1464.11 217.716C1463.86 216.994 1462.95 215.899 1462.48 215.733C1462.19 215.628 1462.1 215.524 1462.14 215.343C1462.18 215.134 1462.15 215.109 1461.97 215.193C1461.79 215.277 1461.73 215.227 1461.67 214.886C1461.61 214.573 1461.61 214.545 1461.55 214.758C1461.53 214.907 1461.44 214.977 1461.38 214.898C1461.26 214.77 1461.31 214.5 1461.56 214.261C1461.64 214.162 1461.61 214.137 1460.7 213.013C1460.35 212.595 1459.96 212.039 1459.84 211.822C1459.69 211.523 1459.5 211.433 1459.2 211.506C1458.94 211.543 1458.71 211.488 1458.62 211.296C1458.54 211.104 1458.36 211.071 1458.18 211.155C1457.89 211.313 1457.88 211.284 1457.99 210.919C1458.14 210.402 1457.25 209.275 1456.97 209.635C1456.84 209.829 1456.78 209.779 1456.76 209.548C1456.72 209.293 1456.6 209.192 1456.27 209.123C1455.99 209.047 1455.68 208.828 1455.5 208.532C1455.33 208.237 1455.18 208.112 1455.08 208.242C1455 208.341 1454.94 208.263 1454.91 207.946C1454.86 207.691 1454.81 207.406 1454.7 207.335C1454.58 207.206 1454.56 207.266 1454.62 207.462C1454.67 207.718 1454.65 207.75 1454.38 207.73C1454.13 207.707 1454.09 207.625 1454.2 207.317C1454.3 207.041 1454.28 206.899 1454.1 206.866C1453.95 206.829 1453.76 206.768 1453.7 206.718C1453.65 206.668 1453.56 206.621 1453.52 206.628C1453.49 206.631 1453.3 206.484 1453.09 206.309C1452.89 206.134 1452.58 205.916 1452.42 205.851C1452.26 205.786 1452.07 205.667 1452.03 205.557C1451.83 205.265 1451.16 204.98 1451.13 205.189C1451.1 205.455 1450.19 205.031 1450.09 204.725C1450.07 204.611 1449.95 204.628 1449.85 204.759C1449.75 204.889 1449.62 204.878 1449.6 204.736C1449.56 204.537 1449.5 204.576 1449.41 204.791C1449.35 204.976 1449.24 205.049 1449.17 204.971C1449.09 204.896 1449.02 204.935 1449 205.112C1448.99 205.289 1448.91 205.271 1448.82 205.05C1448.7 204.776 1448.65 204.783 1448.59 205.141C1448.56 205.379 1448.47 205.538 1448.4 205.459C1448.16 205.202 1447.5 205.588 1447.42 206.007C1447.35 206.425 1446.89 206.869 1446.79 206.564C1446.75 206.365 1445.9 207.477 1445.92 207.736C1445.94 207.85 1445.78 207.931 1445.59 207.93C1445.4 207.957 1445.2 208.073 1445.15 208.225C1445.1 208.377 1444.94 208.575 1444.76 208.659C1444.31 208.897 1443.43 209.957 1443.55 210.085C1443.7 210.239 1443.2 210.747 1442.75 210.957C1442.54 211.044 1442.15 211.421 1441.87 211.81C1441.6 212.199 1441.3 212.474 1441.24 212.395C1441.18 212.345 1441.11 212.472 1441.06 212.742C1441 213.072 1440.9 213.202 1440.68 213.233C1440.49 213.26 1440.41 213.359 1440.44 213.501C1440.46 213.643 1440.29 213.901 1440.01 214.116C1439.62 214.433 1439.53 214.592 1439.63 214.87C1439.73 215.175 1439.69 215.239 1439.41 215.28C1439.21 215.307 1438.93 215.522 1438.78 215.776C1438.63 216.031 1438.43 216.264 1438.31 216.281C1438.03 216.378 1437.82 217.225 1438 217.404C1438.09 217.507 1438.06 217.6 1437.89 217.623C1437.56 217.671 1436.57 218.889 1436.8 218.944C1436.9 218.959 1436.82 219.292 1436.62 219.67C1436.41 220.049 1436.3 220.385 1436.37 220.464C1436.42 220.514 1436.33 220.79 1436.15 221.048C1435.98 221.306 1435.86 221.731 1435.88 221.99C1435.92 222.363 1435.87 222.459 1435.66 222.401C1435.45 222.343 1435.37 222.442 1435.33 222.768C1435.34 222.825 1435.2 222.991 1435.01 223.309C1434.92 223.468 1434.78 223.634 1434.62 223.86C1434.34 224.22 1434.05 224.641 1433.72 225.096C1431.7 227.774 1428.86 231.5 1425.47 235.976C1418.67 244.902 1409.6 256.628 1400.42 268.31C1391.24 279.993 1381.96 291.632 1374.81 300.432C1371.23 304.817 1368.2 308.542 1366.01 311.215C1365.47 311.875 1364.96 312.472 1364.52 313.03C1364.22 313.394 1363.95 313.694 1363.71 313.962C1363.44 314.262 1363.28 314.431 1363.21 314.47C1362.94 314.624 1362.49 315.097 1362.22 315.514C1361.91 315.966 1361.72 316.139 1361.76 315.93C1361.79 315.692 1361.71 315.646 1361.36 315.753C1361.08 315.851 1360.95 315.957 1361.03 316.092C1361.07 316.202 1360.9 316.489 1360.61 316.764C1360.27 317.074 1360.08 317.392 1360.09 317.683C1360.08 318.063 1360.06 318.066 1359.87 317.714C1359.69 317.361 1359.58 317.346 1359.28 317.565C1358.82 317.892 1358.63 318.444 1358.91 318.521C1359.25 318.618 1358.68 319.02 1358.28 318.96C1357.98 318.916 1357.96 318.947 1358.17 319.18C1358.39 319.44 1358.17 319.967 1357.82 319.958C1357.56 319.967 1356.98 320.574 1357.19 320.66C1357.45 320.74 1357.34 320.842 1356.69 321.14C1356.37 321.273 1355.87 321.752 1355.53 322.208C1355.2 322.664 1354.81 322.981 1354.69 322.969C1354.51 322.936 1354.47 323 1354.55 323.164C1354.6 323.302 1354.53 323.458 1354.4 323.535C1354.22 323.619 1354.21 323.708 1354.36 323.744C1354.49 323.784 1354.53 323.895 1354.41 324.029C1354.31 324.159 1354.17 324.18 1354.11 324.101C1354.04 324.023 1353.87 324.135 1353.72 324.39C1353.57 324.644 1353.33 324.824 1353.16 324.848C1352.85 324.892 1352.74 325.346 1353 325.425C1353.15 325.462 1352.61 326.033 1352.09 326.371C1351.98 326.445 1351.95 326.565 1352.04 326.64C1352.1 326.719 1352.07 326.811 1351.98 326.853C1351.86 326.87 1351.88 327.012 1351.98 327.144C1352.14 327.326 1352.1 327.418 1351.81 327.576C1351.41 327.779 1350.75 328.63 1350.59 329.208C1350.53 329.42 1350.26 329.603 1349.98 329.672C1349.67 329.717 1349.51 329.886 1349.56 330.025C1349.58 330.167 1349.53 330.291 1349.43 330.304C1349.34 330.318 1349.31 330.438 1349.4 330.513C1349.55 330.695 1348.93 331.337 1348.53 331.424C1348.41 331.441 1348.37 331.593 1348.45 331.757C1348.53 331.949 1348.42 332.168 1348.15 332.411C1347.91 332.619 1347.74 332.877 1347.78 332.988C1347.8 333.101 1347.74 333.548 1347.65 333.998C1347.51 334.601 1347.56 334.857 1347.85 335.107C1348.11 335.361 1348.14 335.503 1347.96 335.732C1347.78 335.962 1347.8 336.076 1348.05 336.244C1348.22 336.366 1348.32 336.526 1348.28 336.59C1348.25 336.653 1348.4 336.836 1348.65 336.976C1348.95 337.137 1349.13 337.344 1349.16 337.515C1349.19 337.685 1349.42 338.148 1349.72 338.572C1349.99 339 1350.36 339.677 1350.51 340.122C1350.75 340.787 1350.85 340.919 1351.18 340.988C1351.39 341.046 1351.58 341.136 1351.62 341.247C1351.64 341.332 1351.97 341.838 1352.36 342.366C1352.75 342.894 1353.1 343.457 1353.11 343.659C1353.15 343.886 1353.21 343.965 1353.27 343.87C1353.41 343.704 1354.61 345.078 1354.59 345.372C1354.61 345.458 1354.77 345.814 1354.98 346.134C1355.2 346.452 1355.48 346.908 1355.6 347.153C1355.72 347.399 1355.95 347.599 1356.13 347.632C1356.43 347.677 1357.53 348.891 1357.41 349.053C1357.37 349.088 1357.98 349.877 1358.75 350.758C1360.24 352.528 1360.77 353.27 1360.84 353.814C1360.87 353.984 1361.11 354.33 1361.4 354.58C1361.68 354.802 1361.94 355.144 1361.97 355.343L1361.99 355.312Z" fill="#E7F6F5"/>
</svg>
