<svg width="100" height="56" viewBox="0 0 100 56" fill="none" xmlns="http://www.w3.org/2000/svg">
  <path d="M0 4C0 1.79086 1.79086 0 4 0H96C98.2091 0 100 1.79086 100 4V52C100 54.2091 98.2091 56 96 56H4C1.79086 56 0 54.2091 0 52V4Z" fill="#BEF2BD" />
  <line x1="5" y1="24.5" x2="5" y2="31.5" stroke="#222222" stroke-width="2" stroke-linecap="round" />
  <line x1="11" y1="22" x2="11" y2="34" stroke="#222222" stroke-width="2" stroke-linecap="round" />
  <line x1="17" y1="20" x2="17" y2="36" stroke="#222222" stroke-width="2" stroke-linecap="round" />
  <line x1="23" y1="22" x2="23" y2="34" stroke="#222222" stroke-width="2" stroke-linecap="round" />
  <line x1="29" y1="24.5" x2="29" y2="31.5" stroke="#222222" stroke-width="2" stroke-linecap="round" />
  <rect x="36" y="14.5" width="27" height="27" rx="13.5" fill="#222222" />
  <g clip-path="url(#clip0_241_43051)">
    <path d="M53.563 26.134C54.0028 25.76 54.3417 25.7867 54.5524 25.9203C54.7723 26.0628 54.8639 26.2943 55.0105 26.4903C55.2579 26.9178 55.3678 27.4254 55.3495 27.9063C55.267 28.3872 55.0197 28.8504 54.7174 29.171C54.3601 29.3758 54.3051 29.9725 53.4806 29.5628C52.8118 28.503 53.5172 28.6722 53.4622 28.3605C53.4622 28.3605 53.5355 28.2002 53.5355 28.0666C53.5539 27.9241 53.5264 27.7994 53.5264 27.7994C53.5722 27.6302 53.5722 27.4432 53.508 27.2651C53.508 27.1493 53.4073 27.1048 53.3798 26.989C53.3523 26.8732 53.4164 26.6773 53.563 26.1251V26.134Z" fill="white" />
    <path d="M45.2078 25.2441C46.3072 25.7162 45.959 26.1882 46.0323 26.6602L46.0507 28.0762L45.8674 29.4923C45.675 29.9109 46.0781 30.4987 45.1986 30.9084C43.9435 30.5076 44.5848 29.9198 44.3558 29.4923L44.2275 28.0762L44.3283 26.6602C44.4383 26.1882 44.0901 25.7162 45.2078 25.253V25.2441Z" fill="white" />
    <path d="M45.5286 31.1216C45.0247 31.6738 44.5117 31.8697 43.9986 31.9499C43.4947 32.0033 42.9634 32.0389 42.1663 31.8786C41.7907 31.7807 41.3418 31.5224 41.0761 31.1751C40.8013 30.8366 40.6639 30.4626 40.5906 30.1152C40.4623 29.4028 40.5356 28.9307 40.5173 28.432L40.6272 26.918C40.6455 26.6597 40.6639 26.2679 40.8654 25.8849C41.0578 25.5108 41.3418 25.2348 41.6716 25.0388C42.3038 24.7093 43.0641 24.7271 43.5955 24.736C44.1452 24.7716 44.6949 24.8963 45.1346 25.3327C44.2918 26.5618 42.716 25.8226 42.5053 26.2589C42.5053 26.2589 42.4229 26.3124 42.3587 26.4193C42.2946 26.535 42.2854 26.5707 42.2946 26.9447L42.3496 28.4498C42.3312 28.9486 42.2854 29.4918 42.3312 29.7857C42.3496 29.9371 42.4045 30.0618 42.4503 30.1331C42.4961 30.2043 42.5328 30.2399 42.661 30.2845C42.8992 30.418 43.4306 30.329 43.9528 30.3824C44.475 30.427 44.9972 30.5962 45.5286 31.1305V31.1216Z" fill="white" />
    <path d="M55.4594 23.0346C56.9161 22.9634 57.31 24.041 57.7956 24.896C58.2445 25.7955 58.5102 26.8286 58.4919 27.8706C58.4186 28.9037 58.043 29.9546 57.4017 30.765C57.081 31.0767 56.8062 31.4953 56.513 31.8337C56.2107 32.1811 55.9267 32.4304 55.3861 32.6442C54.9097 32.0831 55.093 31.4597 55.377 31.05C55.661 30.6225 56.0458 30.3197 56.1465 29.9635C56.1465 29.9635 56.229 29.8388 56.3206 29.6518C56.4122 29.4647 56.513 29.2065 56.5771 28.9393C56.7145 28.4049 56.6779 27.8349 56.6779 27.8349C56.7237 27.0868 56.5863 26.3298 56.2656 25.5995C56 24.8069 55.2762 24.4061 55.4778 23.0435L55.4594 23.0346Z" fill="white" />
    <path d="M45.5377 31.1044C46.6645 31.7634 47.5532 32.3779 48.4877 32.9568C48.9457 33.2418 49.4313 33.5179 49.9077 33.7494C50.1184 33.8474 50.3291 33.9097 50.439 33.9097C50.5032 33.9097 50.5032 33.9097 50.5032 33.9097C50.5032 33.9097 50.5032 33.9097 50.5032 33.8919C50.5032 33.9187 50.5673 33.7583 50.5856 33.5357C50.6039 33.322 50.6039 33.0013 50.6223 32.7163L50.6772 30.9619L50.7872 27.4529L50.9979 23.9528C51.0254 23.3651 51.0987 22.7416 51.0254 22.4121C50.9887 22.2429 50.9154 22.1004 50.8421 22.047C50.7872 21.9935 50.6864 21.949 50.5215 21.949C49.9443 21.8065 49.0007 22.9465 48.0479 23.7391C47.0951 24.5763 46.0965 25.3422 45.043 25.7251C45.3545 24.603 46.1607 23.6411 47.0768 22.7684C47.5349 22.332 48.0021 21.9223 48.4785 21.4948C48.9549 21.0673 49.6237 20.5775 50.439 20.4884C50.439 20.4884 50.6039 20.4617 50.9246 20.5062C51.2269 20.5419 51.7491 20.72 52.1064 21.1564C52.4637 21.566 52.6378 22.1449 52.6653 22.6437C52.6928 23.1602 52.6653 23.561 52.6653 24.0063L52.6195 27.5152L52.4546 31.0242L52.3721 32.7787C52.3538 33.0726 52.3538 33.3398 52.3171 33.7049C52.2713 34.0522 52.2164 34.4886 51.8407 34.9517C51.5018 35.3792 50.8421 35.5841 50.3841 35.5395C49.9168 35.5128 49.5504 35.3792 49.2206 35.2278C48.6159 34.9517 48.0662 34.6311 47.5532 34.2304C46.5363 33.4466 45.7484 32.369 45.5468 31.1044H45.5377Z" fill="white" />
  </g>
  <line x1="72" y1="24.5" x2="72" y2="31.5" stroke="#222222" stroke-width="2" stroke-linecap="round" />
  <line x1="78" y1="22" x2="78" y2="34" stroke="#222222" stroke-width="2" stroke-linecap="round" />
  <line x1="84" y1="20" x2="84" y2="36" stroke="#222222" stroke-width="2" stroke-linecap="round" />
  <line x1="90" y1="22" x2="90" y2="34" stroke="#222222" stroke-width="2" stroke-linecap="round" />
  <line x1="96" y1="24.5" x2="96" y2="31.5" stroke="#222222" stroke-width="2" stroke-linecap="round" />
  <defs>
    <clipPath id="clip0_241_43051">
      <rect width="18.9" height="16.2" fill="white" transform="translate(40.05 19.9004)" />
    </clipPath>
  </defs>
</svg>