<?xml version="1.0" encoding="utf-8"?>
<!-- Generator: Adobe Illustrator 27.7.0, SVG Export Plug-In . SVG Version: 6.00 Build 0)  -->
<svg version="1.1" id="Layer_1" xmlns="http://www.w3.org/2000/svg" xmlns:xlink="http://www.w3.org/1999/xlink" x="0px" y="0px"
	 viewBox="0 0 100 100" enable-background="new 0 0 100 100" xml:space="preserve">
<path d="M65.642,19.063l-0.031-0.012c0.303,0.02,0.312-0.26,0.599-0.215c0.212-0.271,0.505-0.751,0.343-1.113
	c-0.161-0.006,0.085-0.245-0.043-0.213c-0.032-0.136-0.116-0.27-0.085-0.429c-0.281-0.286-0.452-0.526-0.815-0.665
	c-0.638,0.064-1.297,0.369-1.326,1.113C63.75,18.315,64.839,19.098,65.642,19.063L65.642,19.063z M65.311,17.479
	c0.268-0.044,0.253,0.068,0.322,0.213C65.49,18.257,64.788,17.954,65.311,17.479z M64.016,29.894
	c-0.342-0.048-0.511,0.16-0.734,0.213c-0.009,0.124-0.27,0.014-0.301,0.17c-0.592,0.136-1.345,0.522-0.597,1.113
	c0.686-0.17,0.648-0.25,1.118-0.426C63.905,30.704,64.505,30.558,64.016,29.894z M47.526,55.127
	c-0.145-0.236-0.706-0.158-0.684,0.163c-0.25,0.177-0.494,0.339-0.751,0.556c-0.033,0.402-0.84,0.326-0.814,0.898
	c0.145,0.367,0.589,0.56,0.895,0.248c0.228-0.292,0.532-0.422,0.77-0.684c0.072,0.012,0.038-0.147,0.13-0.178
	c0.109,0.025,0.135-0.129,0.256-0.128c0.119,0.146,0.168-0.471,0.301-0.429C47.673,55.393,47.506,55.301,47.526,55.127z
	 M62.188,24.199c0.068-0.019,0.352-0.058,0.341-0.128c0.2,0.05,0.348-0.085,0.514-0.128c0.064-0.17,0.378-0.044,0.514-0.258
	c-0.058-0.62-0.34-0.787-0.784-0.514c-0.558,0.063-0.867,0.362-1.414,0.516C60.59,24.291,61.78,24.722,62.188,24.199z M43.637,58.11
	c-0.025-0.035-0.469,0.139-0.426,0.17c-0.059-0.016-0.298,0.145-0.258,0.215c-0.111,0.039-0.169,0.196-0.298,0.17
	c-0.082,0.12-0.268,0.189-0.386,0.213c-0.684,0.223-0.209,1.15,0.343,0.9c0.419-0.155,0.825-0.733,1.243-0.985
	C44.628,58.596,44.139,57.448,43.637,58.11z M59.81,50.876c0.605-0.081,1.335,0.199,1.816,0c0.452-0.107,0.49-0.182,0.599-0.599
	l-0.043-0.17c0.325-1.178-1.227-0.647-1.757-0.436c-0.044,0.153-0.277,0.126-0.426,0.128C59.724,50.066,59.535,50.482,59.81,50.876
	L59.81,50.876z M61.233,16.236c-0.048-0.59-0.056-0.788-0.673-0.653c-0.037,0.354-0.371,0.299-0.514,0.428
	c-0.21-0.037-0.377,0.19-0.556,0.187c-0.059,0.097-0.291,0.018-0.343,0.216c-0.43-0.003-0.178,0.584,0.043,0.684
	c0.312-0.093,0.618-0.276,0.987-0.256c0.03-0.074,0.217-0.165,0.343-0.173c0.045-0.099,0.11-0.15,0.213-0.085
	c0.019-0.032,0.194-0.152,0.213-0.256C61.056,16.35,61.155,16.305,61.233,16.236z M49.11,51.788c-0.069,0-0.301-0.043-0.301-0.043
	c-0.539-0.078-0.393,0.806-0.547,1.075c-0.096,0.182-0.186,0.387-0.128,0.599c-0.097-0.028-0.16,0.427-0.216,0.386
	c-0.041,0.271,0.838,0.564,0.9,0.171c0.089-0.123,0.12-0.507,0.171-0.684c0.116-0.336,0.468-1.053,0.13-1.523L49.11,51.788
	L49.11,51.788z M48.082,48.866c0.195,0.103-0.021,0.741,0.043,0.94c0.133,0.12-0.052,0.432,0.128,0.687
	c0.889,0.129,0.776-0.192,0.812-0.942c-0.181-0.183,0.004-0.74-0.256-0.9c0.026-0.297-0.127-0.494-0.471-0.471
	c0.05,0.078-0.233,0.069-0.256,0.088C47.975,48.339,48.068,48.833,48.082,48.866z M65.867,23.558
	c0.01-0.026,1.361-0.128,1.286-0.213c0.09-0.102,0.035-0.496-0.043-0.644c-0.172,0.073-0.43-0.199-0.514-0.043
	c-0.383-0.068-0.817,0.122-1.113,0.256C64.46,22.846,65.332,24.27,65.867,23.558L65.867,23.558z M75.446,22.016
	c-0.066-2.259-0.392-4.621-0.511-6.642l-0.043-0.258c0.074,0.049,0.067-0.235,0.085-0.256c-0.092-0.111-0.031-0.541-0.128-0.727
	c0.071-0.057-0.006-0.711-0.128-0.815c0.036-0.106,0.125-1.266-0.085-1.274l0.043-0.215c-0.055-0.04-0.142-0.477-0.043-0.514
	l-0.043-0.213c0.078-0.12-0.151-2.25-0.263-2.356l0.043-0.258c-0.108-0.112,0.006-0.489,0-0.727
	c-0.065,0.001-0.059-0.21-0.085-0.258c-0.114,0.048,0.029-0.304-0.085-0.256c0.18-0.448,0.069-1.224-0.085-1.499
	C74.052,5.443,74.176,4.77,74.03,4.55l0.043-0.301c-0.11-0.114,0.076-0.638-0.13-0.687c0.094-0.112-0.116-0.91-0.384-0.602
	c-0.744,0.02-1.332,0.424-1.674,0.514c-0.223,0.197-0.614,0.267-0.89,0.341c-0.048,0.09-0.321,0.114-0.429,0.173
	c-0.034,0.097-0.367,0.191-0.471,0.213c-0.086,0.139-0.493,0.221-0.684,0.258c-0.077,0.206-0.347,0.234-0.545,0.263
	c-0.222,0.226-0.818,0.194-1.073,0.431c-0.123-0.01-0.239,0.076-0.298,0.17c-0.127,0.023-0.406,0.046-0.429,0.128
	c-0.379,0.101-0.645,0.219-1.028,0.303c-0.183,0.192-0.594,0.36-0.857,0.348c-0.093,0.101-0.308,0.129-0.514,0.213
	c-0.004,0.129-0.108,0.141-0.213,0.128c-0.015,0.125-0.041-0.036-0.128,0c0.024,0.063-0.056,0.038-0.088,0.043
	c-0.087,0.11-0.45,0.226-0.684,0.258c0.002,0.075-0.117,0.019-0.128,0.128c-0.011,0.013-0.266,0.018-0.213,0.085
	c-0.045,0.043-0.332,0.007-0.343,0.085c-0.112,0.026-0.304,0.051-0.301,0.216c-0.109,0.12-0.432,0.109-0.514,0.213
	c-0.492,0.057-0.766,0.274-1.283,0.372c-0.093,0.173-0.598,0.247-0.642,0.386c-0.269,0.053-0.535,0.169-0.815,0.17
	c0.039,0.065-0.146,0.068-0.171,0.085c0.017,0.102-0.174,0.176-0.17,0.213c-0.26,0.046-0.694,0.164-0.985,0.258
	c-0.109,0.198-0.428,0.178-0.556,0.256c-0.073,0.156-0.256,0.125-0.386,0.173c-0.035,0.105-0.445,0.08-0.471,0.213
	C55.95,9.43,55.621,9.333,55.207,9.3c-0.432-0.131-0.995-0.129-1.414-0.334c-0.416-0.085-1.34-0.277-1.84-0.301
	c-0.099-0.209-0.805-0.126-0.985-0.258c-0.397-0.044-0.773-0.177-1.174-0.261c-0.948-0.254-2.142-0.315-3.036-0.689
	c-0.52,0.082-1.02-0.04-1.326-0.213c-0.458-0.094-0.985-0.115-1.414-0.303c-0.185,0.188-0.687,0.108-0.855,0.429
	c-0.465,0.053-0.66,0.416-1.115,0.471c-0.031,0.08-0.256,0.176-0.298,0.298c-0.145,0.047-0.288,0.091-0.343,0.173
	c-0.178,0.063-0.461,0.131-0.599,0.341c-0.441,0.096-0.799,0.342-1.241,0.514c-0.063,0.118-0.349,0.152-0.429,0.343
	c-0.218-0.006-0.305,0.196-0.476,0.213c-0.01,0.072-0.159,0.094-0.256,0.088c-0.003,0.105-0.188,0.111-0.258,0.128
	c-0.017,0.062-0.061,0.102-0.128,0.085c-0.051,0.08-0.142,0.213-0.256,0.17c-0.16,0.147-0.57,0.125-0.729,0.426
	c-0.109,0.001-0.211,0.019-0.256,0.128c-0.179-0.011-0.372,0.08-0.471,0.258c-0.22,0.126-0.671,0.223-0.819,0.471
	c-0.06-0.021-0.115,0.026-0.128,0.085c-0.063-0.014-0.158,0.003-0.166,0.085c-0.088-0.012-0.184,0.03-0.194,0.092
	c-0.16,0.01-0.462,0.102-0.556,0.258c-0.145,0.064-0.479,0.195-0.727,0.17c-0.279,0.383,0.067,0.94,0.085,1.286
	c0.079,0.738,0.163,1.543,0.336,2.268c-0.424-0.181-0.752,0.19-1.156,0.088c-0.029,0.069-0.245,0.075-0.343,0.128
	c0.012,0.117-0.423-0.022-0.429,0.085c-0.191-0.086-0.469,0.147-0.763,0.085c-0.02,0.079-0.232,0.089-0.343,0.088
	c0.004,0.079-0.241,0.112-0.341,0.13c-0.198,0.196-0.492,0.182-0.729,0.341c-0.509-0.208-0.942-0.734-1.326-0.897
	c-0.33,0.037-0.473-0.211-0.772-0.218c-0.314-0.205-0.865-0.009-1.295-0.043c-0.142,0.125-0.443,0.195-0.684,0.258
	c-0.147,0.252-0.444,0.21-0.599,0.469c-0.04,0.071-0.295,0.239-0.258,0.386c-0.082,0.035-0.22,0.094-0.17,0.216
	c-0.348,0.284-0.304,0.666-0.391,1.025c0.125,0.039,0.006,0.549-0.043,0.604c0.089,0.042,0.124,0.278,0.128,0.384
	c0.048-0.009,0.086,0.12,0.085,0.173c0.109,0.011,0.088,0.136,0.088,0.213c0.15,0.076,0.204,0.222,0.213,0.343
	c0.509,0.438,0.916,0.881,1.584,0.983c0.036,0.068,0.147,0.212,0,0.258c0.004,0.094-0.011,0.248-0.085,0.256
	c-0.023,0.065,0.034,1.079,0,0.99c0.016,0.108,0.041,0.39,0.128,0.386c0.021,0.016-0.05,0.537,0.043,0.474
	c0.064,0.354,0.328,0.652,0.343,1.07c-0.095-0.033,0.034,0.24,0.128,0.256c0.023,0.208,0.169,0.344,0.17,0.514
	c0.23,0.208,0.426,0.465,0.471,0.772c0.144,0.098,0.243,0.23,0.301,0.384c0.175,0.071,0.269,0.34,0.514,0.471
	c-0.02,0.124,0.02,0.221,0.085,0.301c0.164-0.042,0.242,0.336,0.429,0.256c0.131,0.155,0.21,0.309,0.384,0.386
	c-0.004,0.122,0.367,0.41,0.429,0.386c0.134,0.146,0.33,0.222,0.556,0.256c0.309,0.251,0.356,0.759,0.571,0.983
	c0.108,0.331,0.072,1.044,0.194,1.326c-0.018,0.024-0.014,0.259-0.085,0.215c0.139,0.189-0.161,0.157-0.256,0.213
	c-0.034,0.167-0.267,0.125-0.386,0.128c0.003,0.084-0.263,0.034-0.256,0.166c-0.092-0.025-0.288,0.061-0.244,0
	c-0.052-0.043-0.602,0.425-0.642,0.429c0.056,0.205,0.188,0.575-0.043,0.727c-0.016,0.45-0.095,0.984-0.128,1.456
	c0.002,0.123-0.114,0.245-0.216,0.298c-0.002,0.099-0.057,0.199-0.17,0.258c0.023,0.111-0.13,0.123-0.085,0.253
	c-0.097-0.035-0.03,0.216-0.137,0.17c0.034,0.214-0.13,0.393-0.301,0.514c-0.01,0.145-0.1,0.38-0.173,0.429
	c-0.25,1.914-0.426,3.837-0.516,5.865c0.101,0.408-0.259,1.28,0,1.797c-0.089-0.015,0.004,0.174-0.128,0.173
	c-0.018,0.247,0.043,0.298,0.043,0.469c-0.145,0.065-0.1,0.741-0.043,0.815c-0.085,0.661-0.156,1.511-0.066,2.226
	c-0.166,1.517-0.333,3.832-0.298,5.702c-0.267,1.144-0.254,3.732-0.26,5.179c-0.252,0.289-0.05,0.96,0.215,1.243
	c0.439,0.066,0.885-0.058,1.286-0.088c-0.153,1.298-0.057,2.726-0.232,3.684l-0.043,0.128c0.071-0.045,0.068,0.193,0.085,0.215
	c-0.117,0.033-0.055,0.49-0.043,0.644c-0.072,0.005-0.149,0.557-0.043,0.599c-0.187,1.532-0.074,3.938-0.343,5.216
	c0.031,0.838,0.092,1.931-0.13,2.654c-0.048,1.244,0.075,2.701-0.173,3.803l0.045,0.17c0.004,0.309-0.206,1.144-0.024,1.542
	c-0.286,3.431-0.374,6.884-0.559,10.146c-0.002,0.854-0.58,2.649,0.857,2.268c0.208,0.249,1.239-0.223,0.843,0.509
	c0.215,1.141-0.722,2.092-0.772,2.995c-0.025,0.296,0.012,0.821,0.17,1.075c-0.208-0.091-0.339,0.352-0.213,0.429
	c-0.382,1.752,0.45,2.013,2.193,1.8c-0.022,0.106,0.134-0.058,0.128,0.045c1.233,0.097,2.483,0.089,3.739-0.012
	c0.49-0.904-0.188-2.008,0.071-2.678c-0.093-0.514,0.095-0.855-0.298-1.286c-0.06-0.271-0.299-0.385-0.258-0.684
	c-0.153-0.046-0.083-0.412-0.256-0.471c-0.016-0.01,0.044-0.406-0.043-0.343c0.115-0.339-0.127-0.912,0.166-1.127
	c0.089,0.559-0.155,1.331,0.602,1.371c0.023-0.081,0.22-0.122,0.301-0.126c0.036-0.117,0.173-0.104,0.256-0.13
	c0.129-0.1,0.384-0.29,0.609-0.341c0.217,0.515,0.518,1.151,0.279,1.724c-0.122,0.033-0.067,0.41-0.17,0.429
	c-0.031,0.147-0.177,0.312-0.152,0.514c-0.224,0.253,0.15,0.817-0.298,0.855c-0.128,0.116-0.091,0.731,0.043,0.815
	c-0.122-0.055-0.092,0.573-0.14,0.642c0.051,0.471-0.199,1.103,0.521,0.94c0.261-0.04,1.303,0.049,1.712-0.043
	c0.796,0.199,2.002-0.093,2.851,0.085c1.139-0.058,2.128,0.122,3.168,0c0.467,0.052,1.18,0.096,1.797,0.043
	c-0.032,0.073,0.098,0.033,0.128,0.043c-0.078,0.091,0.892-0.029,0.815-0.085c0.223,0.103,0.986-0.051,1.07,0.128l0.213-0.043
	c0.737-0.057,1.949,0.408,1.736-0.777c-0.252-0.208-0.009-1.177-0.28-1.624c-0.533,0.079-0.141-0.282-0.428-0.429
	c0.046-0.396-0.492-0.535-0.639-0.815c-0.488-0.043-0.836-0.313-1.409-0.249c0.019-0.076-0.541-0.065-0.514-0.173
	c-0.21-0.079-0.736-0.038-0.935-0.13c-0.116,0.015-0.554-0.101-0.556-0.171c-0.415,0.012-0.816-0.12-1.156-0.301
	c-0.422-0.087-1.328-0.393-1.672-0.642c-0.301-0.013-0.542-0.206-0.727-0.429c-0.087,0.043-0.172-0.121-0.213-0.171
	c-0.059,0.021-0.117-0.027-0.13-0.085c-0.075-0.045-0.137-0.292-0.128-0.429c-0.068,0.028-0.052-0.06-0.052-0.099
	c-0.098-0.001-0.062-0.14-0.128-0.128c0.058-0.138-0.099-0.195-0.085-0.301c-0.026,0.015-0.058-0.014-0.043-0.045
	c0.128,0.069-0.043-0.754,0.085-0.684c-0.214-0.553,0.018-0.596,0.514-0.772c0.077-0.215,0.829-0.361,0.897-0.471l0.13,0.045
	c0.083-0.121,0.36-0.181,0.471-0.216c0.012-0.038,0.154-0.066,0.17-0.161c0.1,0.028,0.175-0.043,0.213-0.128
	c0.916-0.1,0.395-1.074,0.556-1.627c-0.098-0.135,0.056-0.43-0.043-0.556c0.125-0.071-0.024-0.43-0.043-0.516
	c0.099-0.054,0.015-0.539-0.043-0.597c0.002-0.147,0.059-0.236-0.043-0.298c0.093-0.694,0.022-1.191-0.043-1.639l-0.043-0.258
	c0.092-0.1,0.116-0.871,0.043-1.073l0.043-0.213c-0.216-0.36-0.045-0.936-0.085-1.402c-0.032-0.249,0.034-1.395-0.128-1.676
	l0.043-0.17c-0.136,0.078,0.094-1.106-0.043-1.028l0.043-0.128c-0.215-2.101-0.106-4.428-0.332-6.64
	c0.162-0.129-0.075-0.538,0.043-0.729c-0.052,0.012-0.215-0.358-0.085-0.374c0.038-0.157-0.139-0.585,0-0.687l-0.043-0.213
	c0.063-1.209-0.026-2.885-0.13-4.073l0.043-0.17c-0.249-0.62,0.028-1.612-0.173-2.396c0.263-0.011,0.717-0.119,0.985-0.038
	c0.641-0.256,1.671-0.12,2.472-0.216c1.204-0.179,2.821-0.204,4.156-0.258c0.671-0.179,1.205-0.115,1.984-0.386
	c0.029-0.086,0.553,0.021,0.601-0.043c-0.011-0.12,0.316-0.03,0.327-0.13c0.085-0.027,0.349-0.051,0.348-0.13
	c0.097,0.003,0.398,0.01,0.386-0.085c1.046,0.15,2.364,0.421,3.346,0.386c0.264,0.165,0.86,0.165,1.234,0.128
	c0.512,0.293,1.45,0.102,1.968,0.215c2.095,0.498,4.433,0.413,6.464,0.817l0.343-0.043c0.023,0.236,1.099,0.005,1.241,0.128
	c0.351,0.044,0.748,0.216,1.073,0.135v0.043l0.386-0.043c-0.017,0.128,0.492-0.059,0.471,0.128c0.069,0.056,0.758-0.008,0.812,0.085
	l0.343-0.043v0.043l0.213-0.043c0.088,0.077,0.551,0.168,0.644-0.085c-0.041-0.123,0.077-0.178,0.171-0.216
	c0.185-0.599,0.162-0.775,0.256-1.248l-0.085-0.256c0.148-0.664,0.383-0.887,0.429-1.542c-0.059,0.032-0.069-0.103-0.085-0.13
	c0.1,0.009-0.019-0.213,0.128-0.213c0.013-0.028-0.036-0.209,0.043-0.171c0.041-0.201,0.045-0.525,0.128-0.682l-0.043-0.256
	c0.131-0.11-0.117-0.423,0.173-0.514c0.1-0.232,0.084-0.698,0.17-0.945c-0.049-0.07-0.038-0.101,0.043-0.128
	c0.005-0.035-0.02-0.106,0.043-0.085c0.01-0.198,0.021-0.643,0.128-0.772l-0.043-0.128c0.096-0.031,0.062-0.38,0.085-0.471
	c0.079,0.063,0.061-0.585,0.223-0.599c0.056-0.329,0.025-0.858,0.192-1.073c0.189-0.991,0.015-2.308,0.431-3.078l-0.085-0.386
	c0.232-0.194-0.072-0.615-0.043-0.864c-0.114-0.064-0.025-0.481-0.173-0.514c0.014-0.085,0.028-0.17,0.045-0.256
	c-0.104,0.014-0.039-0.217-0.13-0.215l0.043-0.384c-0.395-1.308-0.508-2.721-1.009-4.236c0.217-0.139-0.183-1.028-0.303-1.156
	l0.043-0.343c-0.179-0.085-0.121-0.563-0.26-0.642c-0.042-0.133,0.008-0.409-0.085-0.414c-0.057-0.205-0.248-0.605-0.258-0.812
	c-0.132-0.061-0.036-0.464-0.17-0.523c-0.015-0.232-0.219-0.455-0.216-0.687c-0.148,0.002-0.037-0.269-0.043-0.341
	c-0.221-0.158,0.066-0.104,0.085-0.215c0.186-0.02,0.351-0.129,0.471-0.298c0.238-0.032,0.36-0.244,0.556-0.301
	c-0.022-0.089,0.061-0.124,0.128-0.128c-0.005-0.211,0.022-0.406,0.215-0.556c0.094-0.204,0.037-0.546,0.085-0.727
	c0.247-0.595,0.427-1.414,0.545-2.098c-0.088-0.309,0.025-1.052-0.471-1.07c-0.022-0.122-0.134-0.219-0.298-0.258
	c-0.144-0.141-0.32-0.426-0.514-0.471c-0.347-0.326-0.648-0.244-0.301-0.77c0.07-0.003,0.052-0.259,0.085-0.303
	c0.056-0.028,0.158-0.187,0.17-0.298c0.319-0.158,0.195-0.57,0.386-0.727c-0.02-0.071,0.166-0.285,0.232-0.308
	c-0.032-0.084,0.072-0.135,0.128-0.17c0.014-0.036-0.033-0.158,0.043-0.13c0.025-0.102,0.146-0.497,0.17-0.599
	c0.13-0.038,0.104-0.182,0.215-0.213c-0.044-0.133,0.108-0.144,0.085-0.258c0.038,0.052,0.112-0.386,0.154-0.457
	c0.114-0.022,0.093-0.212,0.215-0.514c0.325-0.269,0.378-0.857,0.556-1.201c0.133-0.392,0.389-0.629,0.474-1.061
	c0.078,0.041,0.03-0.145,0.043-0.17c0.063,0.028,0.046-0.052,0.047-0.085c0.147-0.028,0.06-0.248,0.17-0.258
	c0.129-0.233,0.084-0.549,0.298-0.684c0.04-0.151,0.116-0.255,0.088-0.429c0.048-0.017,0.165-0.101,0.128-0.17
	c0.086-0.075,0.315-0.525,0.216-0.568L75.446,22.016z M31.736,28.225l0.13-0.045c-0.039,0.069,0.143,0.07,0.17,0.088
	c0.072-0.12,0.577-0.121,0.725-0.173c0.096-0.124,0.677-0.191,0.857-0.256c0.022-0.021,0.264-0.207,0.298-0.296
	c0.063-0.018,0.164-0.036,0.13-0.128c0.174,0.085,0.441-0.193,0.514-0.043l0.128-0.043c0.201,0.23,0.831,0.063,1.07,0.043
	c0.089-0.224,0.244-0.457,0.471-0.559c0.11-0.244-0.209-0.654-0.471-0.514c0.001,0.061-0.113,0.073-0.173,0.081
	c0.019,0.061-0.05,0.039-0.085,0.043c-0.02,0.058-0.059,0.105-0.128,0.085c-0.08,0.091-0.425,0.079-0.597,0.088
	c0.04-0.082-0.142-0.032-0.171-0.045c-0.018-0.067-0.063-0.1-0.13-0.085c-0.087-0.151-0.217-0.202-0.341-0.298
	c-0.013-0.072-0.037-0.206-0.128-0.215c-0.149-0.214-0.004-0.514-0.258-0.642c-0.05-0.373-0.569-0.464-0.682-0.855
	c-0.069-0.36,0.453-0.828,0.769-0.9c-0.014-0.064,0.172-0.067,0.218-0.085c-0.044-0.111,0.258,0.026,0.213-0.085
	c0.193,0.021,0.498,0.02,0.599,0.128l0.085-0.043c0.156,0.12,0.452,0.543,0.471,0.729c0.109,0.069,0.203,0.187,0.215,0.301
	c0.122-0.002,0.147,0.153,0.256,0.128c0.022,0.152,0.158-0.074,0.17-0.085c0.281,0.113,0.459-0.129,0.729-0.128
	c0.272-0.201,0.418-0.636,0.599-0.857l0.085,0.043c0.537-0.071,1.78,0.204,2.354,0c0.081,0.073,0.586,0.003,0.687,0
	c0.008,0.264-0.179,0.673,0,0.857l-0.043,0.341c0.115-0.001,0.027,0.328,0.128,0.343l-0.043,0.213
	c0.113,0.04,0.064,0.45,0.208,0.471c0.037,0.085,0.097,0.544,0.17,0.599c0.053,0.469-0.059,0.687-0.128,1.07
	c-0.148,0.04-0.154,0.679-0.17,0.9c-0.168,0.023-0.152,0.356-0.17,0.471c-0.266,0.112-0.111,0.502-0.303,0.592
	c0.098,0.18-0.437,0.62-0.559,0.684c0.015,0.073-0.127,0.021-0.128,0.128c-0.09-0.021-0.082,0.064-0.173,0.043
	c-0.014,0.11-0.134,0.096-0.216,0.092c-0.022,0.061-0.057,0.103-0.128,0.085c-0.703,0.083-1.775-0.044-2.261-0.556
	c-0.114,0.011-0.296-0.207-0.301-0.301c-0.236-0.078-0.241-0.323-0.386-0.471c-1.433-0.008,0.05,1.448,0.471,1.759
	c0.005,0.07-0.071,0.239-0.085,0.256c-0.442-0.074-0.8-0.288-1.156-0.429c-0.104,0.202-0.847-0.05-0.985-0.128
	c-0.148-0.096-1.958-0.063-2.226-0.043c-0.171-0.56-0.081-1.325-0.171-1.885C31.694,28.601,31.666,28.391,31.736,28.225
	L31.736,28.225z M39.572,19.532c0.1,0.197,0.485,0.233,0.471,0.514c0.318,0.213,0.38,0.628,0.556,0.822
	c-0.005,0.463,0.189,0.9,0.128,1.487c0,0.437-0.081,0.52-0.599,0.341c-0.433,0.117-1.022,0.028-1.627,0.13
	c-0.039-0.148-0.915-0.042-0.942,0.002l-0.213-0.043c0.042-0.835-0.487-1.239-0.554-2.145h0.043l-0.045-0.081
	c0.093,0.011,0.044-0.215,0.171-0.213c-0.028-0.185,0.146-0.315,0.213-0.429c0.25-0.019,0.358-0.407,0.644-0.341
	C38.172,19.129,39.083,19.593,39.572,19.532L39.572,19.532z M30.152,32.634c0.266-0.175,0.039-0.7,0.308-0.9
	c0.251,0.016,0.349-0.144,0.599-0.128c-0.078-0.099,0.314,0.095,0.301-0.043c0.457-0.028,0.776-0.26,1.314-0.211
	c0.142,0.121,0.35-0.03,0.514,0.043c-0.01,0.07,0.662,0.179,0.642,0.087l0.343,0.043c0.172-0.1,0.734-0.051,0.855,0.17
	c0.048,0.035,0.292,0.012,0.301,0.085c0.685,0.132,1.588,0.567,1.97,1.288c-0.24-0.102-0.601-0.106-0.729-0.215l-0.128,0.043
	c-0.139-0.177-1.33-0.202-1.414-0.381c-0.536,0.056-1.179-0.137-1.707,0.045l-0.298-0.045c0.003,0.107-0.474,0.036-0.429-0.043
	c-0.119,0.006-0.436,0.067-0.599,0.043c-0.089,0.14-0.731,0.207-0.95,0.173c-0.032,0.089-0.307,0.166-0.386,0.171
	c-0.078,0.156-0.453,0.299-0.556,0.215C30.181,32.956,30.091,32.773,30.152,32.634z M27.969,58.02
	c-0.208,0.231-0.293,0.11-0.256-0.211c-0.185-0.083-0.023-0.8,0.033-0.94c0.032-0.614,0.044-1.656,0.171-2.098l-0.043-0.13h0.043
	c0.043-1.251-0.03-2.334,0.173-3.481l-0.043-0.17c0.065-1.795,0.333-4.267,0.301-6.029c0.084-0.554,0.145-1.167,0.043-1.627
	c0.011-0.222,0.216-0.81,0.085-1.115c0.146-0.971,0.244-2.327,0.175-3.623c0.201-0.59-0.04-1.424,0.213-2.067
	c0.125-0.016,0.019-0.435,0.128-0.471c0.085-0.3,0.212-0.531,0.22-0.9c0.169,0.02,0.136-0.258,0.298-0.298
	c-0.005-0.141,0.201-0.173,0.173-0.301c0.115-0.021,0.055-0.15,0.17-0.17c-0.053-0.182,0.561-0.47,0.599-0.599
	c0.285-0.041,1.103-0.199,1.198-0.348c0.207-0.003,1.042,0.099,1.156-0.128c0.481-0.096,1.541,0.203,1.842,0
	c0.842,0.251,1.562,0.204,2.183,0.644c0.485,0.027,0.8,0.198,1.241,0.301c0.13,0.143,0.456,0.248,0.727,0.343
	c0.077,0.109,0.162,0.212,0.301,0.215c-0.048,0.115,0.307-0.031,0.256,0.088c0.163-0.014,0.222,0.097,0.381,0.085
	c-0.005,0.06,0.142,0.092,0.215,0.085c0.016,0.059,0.192,0.186,0.258,0.173c0.112,0.176,0.317,0.268,0.474,0.298
	c0.169,0.154,0.478,0.603,0.729,0.599c0.363,0.17,0.659,0.488,1.113,0.599c0.037,0.068,0.048,0.099,0.13,0.085
	c0.058,0.052,0.064,0.159,0.159,0.13c0.03,0.118,0.272,0.152,0.298,0.256c0.034-0.01,0.344,0.148,0.343,0.215
	c0.137,0.051,0.268,0.161,0.348,0.256c0.171,0.054,0.443,0.12,0.556,0.343c0.08-0.017,0.101,0.023,0.128,0.085
	c0.068,0.002,0.286,0.048,0.301,0.128c0.079-0.017,0.102,0.023,0.128,0.085c0.085,0.007,0.184,0.044,0.256,0.13
	c0.145-0.012,0.198,0.183,0.343,0.171c0.083,0.151,0.31,0.143,0.398,0.341c0.165-0.019,0.208,0.19,0.341,0.173
	c0.042,0.162,0.259,0.117,0.301,0.256c0.401,0.007,0.643,0.497,0.973,0.642c0.154,0.09,0.399,0.192,0.429,0.386
	c0.083,0.032,0.203,0.07,0.215,0.128c0.397-0.004,0.621,0.433,1.07,0.504c0.084,0.115,0.309,0.266,0.471,0.301
	c0.038,0.224,0.304,0.006,0.298,0.128c0.33,0.172,0.923,0.526,1.156,0.815c0.161,0.002,0.316,0.114,0.471,0.085
	c0.076-0.195,0.233-0.276,0.258-0.471c0.19-0.018,0.403-0.127,0.476-0.213c0.163-0.068,0.595-0.111,0.646-0.296
	c1.004-0.126,1.711-0.655,2.567-0.814c0.248-0.286,0.716-0.336,1.108-0.426c0.02-0.094,0.189-0.034,0.218-0.173
	c0.139-0.048,0.358-0.117,0.429-0.213c0.208-0.045,0.766-0.144,0.812-0.301c0.352-0.016,0.684-0.095,0.985-0.161
	c0.485-0.471,1.305-0.468,2.013-0.687c0.098-0.192,0.382-0.177,0.542-0.263c0.143-0.122,0.448-0.14,0.684-0.17
	c-0.041-0.07,0.188-0.067,0.213-0.085c-0.028-0.101,0.205-0.118,0.173-0.17c0.37,0.008,0.597-0.194,1.028-0.173
	c0.056,0.909,0.91,1.783,0.213,2.486c0.299,0.193-0.437,0.371-0.471,0.556c-0.43,0.393-0.91,0.696-1.454,0.942
	c-0.317,0.492-0.397,0.343-0.644,0.599c-0.131,0.01-0.304,0.099-0.341,0.171c-0.139-0.042-0.142,0.105-0.258,0.085
	c-0.148,0.318-0.567,0.197-0.77,0.429c-0.293,0.024-0.497,0.458-0.857,0.471c0.01,0.049-0.12,0.085-0.17,0.085
	c-0.107,0.082-0.206,0.18-0.343,0.17c-0.191,0.155-0.5,0.318-0.812,0.429c-0.074,0.165-0.32,0.242-0.386,0.171
	c-0.034,0.156-0.305,0.083-0.343,0.215c-0.114,0.015-0.266,0.111-0.298,0.17c-0.014,0.015-0.358,0.011-0.301,0.085
	c-0.112,0.025-0.572,0.214-0.556,0.251c-0.409-0.013-0.647,0.296-1.07,0.298c-0.034,0.115-0.271,0.069-0.298,0.215
	c-0.147-0.003-0.255,0.073-0.386,0.085c-0.038,0.048-0.143,0.125-0.192,0.213c0,0.008-0.323,0.018-0.258,0.085
	c-0.662,0.157-1.502,0.481-2.055,0.696l-0.128-0.043c-0.588,0.161-1.856,0.208-2.316,0.043c-0.799,0.086-1.401-0.223-2.15-0.258
	c-0.317-0.296-0.933-0.238-1.328-0.433c-0.339-0.323-1.143-0.174-1.454-0.383c-0.353-0.094-0.872-0.3-1.411-0.346
	c0.002-0.091-0.235-0.025-0.223-0.128c-0.145-0.025-0.42-0.053-0.556-0.088c-0.288-0.111-0.681-0.27-1.118-0.343
	c-0.092-0.159-0.35-0.135-0.457-0.298c-0.05-0.005-0.364-0.127-0.343-0.173c-0.376,0.036-0.328-0.029-0.642-0.171
	c-0.192,0-0.297-0.109-0.471-0.128c0.042-0.089-0.58-0.006-0.514-0.116c-0.171,0.015-0.224-0.213-0.386-0.171
	c-0.048-0.174-0.28-0.141-0.334-0.256c-0.592,0.081-0.979-0.396-1.499-0.343c-0.373-0.151-0.393,0.5-0.301,0.77
	c0.382,0.056,0.745,0.267,1.023,0.301c-0.044,0.042,0.299,0.056,0.301,0.066c0.038,0.098,0.129,0.118,0.213,0.128
	c0.037,0.109,0.308,0.005,0.343,0.173c0.318-0.007,0.624,0.127,0.857,0.298c0.517-0.143,0.344,0.62,0.769,0.559
	c0.077,0.212,0.246,0.352,0.298,0.599c0.082,0.034,0.164,0.127,0.173,0.215c0.072-0.018,0.107,0.024,0.128,0.085
	c0.047-0.004,0.086,0.115,0.085,0.17c0.067,0.016,0.099,0.062,0.085,0.128c0.132,0.093,0.292,0.25,0.301,0.386
	c0.18,0.123,0.191,0.694,0.514,0.857c0.074,0.376,0.341,0.68,0.514,0.985c0.196,0.338,0.201,1.011,0.642,1.156
	c-0.102,0.807-0.164,1.798-0.338,2.311c0.205,0.732-0.047,1.622-0.17,2.226c-0.055,0.637-0.046,1.562-0.256,2.311
	c-1.978,0.076-3.961,0.349-5.712,0.563c-0.592,0.033-1.112,0.059-1.66,0.131c-0.14,0.082-0.896,0.005-1.07,0.173
	c-0.045-0.019-0.284-0.071-0.256,0C31.151,57.657,29.768,58.062,27.969,58.02z M33.235,95.907c0.058,0.362-0.566,0.041-0.727,0.182
	c-0.929-0.323-2.182-0.004-3.168-0.135c-0.243-0.126-0.544,0.08-0.815,0c0.013-0.205-0.142-0.544,0.045-0.689
	c0.449-0.01,1.131,0.016,1.757-0.043c0.217-0.094,0.875,0.182,1.198-0.045c0.152-0.038,0.782,0.178,0.9,0.045
	c0.188,0.021,0.988-0.262,0.682,0.128C33.133,95.54,33.176,95.727,33.235,95.907L33.235,95.907z M33.074,93.809
	c0.333,0.988-1.003,0.378-1.338,0.599c-0.587-0.019-1.659,0.175-2.231,0c-0.341,0.031-0.556,0.066-0.722-0.306
	c-0.825-1.385,0.643-1.221,1.506-1.108c0.266-0.039,0.407,0.168,0.687,0.13c-0.022,0.152,0.492,0.063,0.556,0.085
	c-0.032,0.013,0.099,0.083,0.085,0c0.227,0.044,1.055,0.164,1.198,0C32.973,93.371,32.995,93.609,33.074,93.809L33.074,93.809z
	 M30.282,90.169c-0.016,0.092,0.827,0.064,0.727-0.043c0.44,0.235,1.628-0.377,1.371,0.559c-0.648-0.31-2.872,0.225-2.785-0.556
	C29.83,90.169,30.068,90.111,30.282,90.169z M44.881,94.45c0.091,0.023,0.167-0.413,0.161-0.545
	c0.077-0.004,0.249,0.033,0.256-0.085c0.161,0.067,0.366-0.037,0.429,0.085c0.459,0.193,1.352,0.038,1.461,0.684
	c-0.667-0.171-1.699,0.254-2.306-0.128h-0.009C44.871,94.462,44.881,94.45,44.881,94.45z M42.944,95.362
	c1.426,0.175,3.191,0.022,4.667,0.043c0.114,0.938-0.121,0.895-0.947,0.769c-2.539,0.221-5.227-0.237-7.705,0.043
	c-0.327-0.122-1.015-0.129-1.371-0.085c0.066-0.115-0.911,0.114-0.897-0.043l-0.215,0.043c-0.257-0.199-1.392,0.193-1.028-0.599
	h-0.043c0.183-0.589,1.615,0.159,1.97-0.256c0.686,0.214,1.984-0.043,2.572,0.128C40.645,95.32,42.215,95.432,42.944,95.362z
	 M39.529,92.918c0.026-0.153,1.159-0.228,1.198-0.341c0.187,0.063,0.436,0.306,0.684,0.341c-0.001-0.112,0.055,0.036,0.128,0
	c0.021,0.105,0.168,0.118,0.173,0.173c0.172,0.07,0.958,0.14,0.642,0.343c0.073,0.3-0.241,0.432-0.249,0.668
	c-0.009,0.633-0.848,0.423-1.378,0.386c-0.342,0.168-1.125-0.05-1.549,0.045c-0.297,0.018-0.915-0.033-1.028-0.085l-0.77,0.128
	c-0.029-0.107-0.404-0.01-0.419-0.128l-0.213,0.043c-0.037,0.01-0.737-0.116-0.86,0c-0.548-0.004-0.04-0.94,0.343-0.897l0.213,0.043
	c0.192-0.16,0.682-0.096,0.942-0.244c0.193,0.034,0.293-0.144,0.471-0.128c-0.052-0.117,0.35,0.032,0.298-0.085
	c0.25-0.105,0.527,0.023,0.857-0.085c-0.046-0.082,0.19-0.028,0.213-0.043C39.277,92.928,39.4,92.915,39.529,92.918L39.529,92.918z
	 M35.804,90.908c-0.023-0.337,0.334-0.234,0.386-0.471c0.088-0.058,0.567-0.189,0.556-0.258c0.248,0.113,0.569-0.343,0.855-0.386
	c0.04-0.106,0.317,0.008,0.343-0.171c0.323-0.016,0.518-0.266,0.855-0.386c0.227,2.075-0.355,1.22-1.454,1.721l-0.301-0.043
	C36.868,91,35.804,91.366,35.804,90.908z M41.454,84.69c0.061,0.61,0.203,1.676,0.085,2.285c-0.29,0.156-0.568,0.22-0.855,0.343
	c-0.163,0.306-0.415,0.347-0.684,0.386c0.014,0.094-0.221,0.042-0.215,0.17c-0.022,0.035-0.384,0.047-0.384,0.128
	c-0.348,0.104-0.852,0.516-1.201,0.502c0.009,0.088-0.18,0.04-0.171,0.128c-0.053,0.003-0.175,0.033-0.171,0.085
	c-0.048,0.001-0.184,0.04-0.173,0.088c-0.142-0.021-0.237,0.132-0.341,0.128c-0.066,0.231-0.662,0.229-0.729,0.343
	c-0.42,0.118-0.711,0.443-1.113,0.512c-0.675,0.189-1.555,1.319-1.449-0.185c0.17-0.553-0.119-1.243-0.088-1.842
	c0.092-0.606-0.158-1.382-0.043-2.141c-0.102-0.369,0.044-0.825-0.085-1.073c-0.124-0.309-0.15-1.045-0.043-1.442
	c-0.073-0.285-0.106-0.544-0.128-0.812c0.207-0.248-0.135-0.585-0.043-0.9c-0.153-0.002,0.087-0.261-0.045-0.213
	c0.104-0.696-0.027-1.585-0.128-2.233c0.002-0.539,0.091-1.283-0.088-1.712c0.037-0.688-0.057-1.196-0.085-1.797
	c-0.127-0.242,0.114-1.315-0.128-1.456l0.085-0.384c-0.194-0.591-0.019-1.655-0.216-2.271c-0.113-0.3,0.1-1.653-0.173-1.84
	c0.03-0.29,0.125-0.921-0.043-1.07c0.069-1.554-0.217-3.403-0.173-4.75c-0.15-0.551-0.078-1.178-0.085-1.7
	c-0.02-0.023-0.204-0.124-0.17-0.17c0.102-0.004-0.025-0.487,0.085-0.471l-0.043-0.258c0.125-0.112-0.063-1.089-0.043-1.153
	c0.088-0.109-0.009-0.913-0.301-0.727c0.038-0.093-0.391-0.075-0.391,0c-0.326,0.033-0.259,0.284-0.341,0.429
	c0.085,0.498-0.019,1.091,0.147,1.411l-0.043,0.085c0.284,1.803,0.106,4.335,0.452,5.906l-0.043,0.13
	c0.121-0.035-0.172,0.306,0,0.341l-0.043,0.301c0.144,0.745,0.193,1.672,0.171,2.612c0.231,0.526,0.055,1.287,0.087,2.041
	c0.249,1.58,0.205,3.709,0.386,5.143c-0.102-0.07-0.098,0.563,0,0.559l-0.043,0.213c0.327,0.841-0.049,2.124,0.301,3l-0.043,0.128
	c0.171,0.083-0.096,1.051,0.128,1.241c-0.098,0.407-0.089,0.968,0.13,1.286c-0.044,0.606-0.192,1.286,0,1.84
	c-0.08,0.224,0.147,0.34,0.085,0.599c-0.064-0.044-0.066,0.216,0,0.173c0.026-0.008-0.211,0.37-0.043,0.426
	c-0.038,0.469,0.369,1.105,0.045,1.541c0.097,0.106,0.074,0.53,0.085,0.732c-0.426-0.084-1.156,0.14-1.499-0.043
	c-0.691-0.017-1.686-0.12-2.311-0.045l-0.386-0.043c0.047,0.065-0.26,0.065-0.213,0l-0.128,0.043c0.007-0.157-0.979,0.116-0.9-0.17
	c0.283-0.553,0.081-1.95,0.213-2.538l-0.043-0.17c0.21-0.463,0.019-1.433,0.17-1.84c-0.026-0.063-0.1-0.386,0-0.381l-0.043-0.256
	c0.028-0.747,0.204-1.546,0.123-2.344h0.043l-0.043-0.128c0.193-0.042,0.031-0.58,0.128-0.691l-0.043-0.215h0.043
	c-0.097-1.183,0.149-2.501,0.128-3.682c0.038-0.814,0.193-2.436,0.085-3.339c0.272-0.629,0.283-1.414,0.13-2.186
	c0.129-0.853,0.258-2.174,0.13-3.038c0.06-0.729,0.239-1.531,0.213-2.055l0.043-0.343c-0.152-0.066-0.084-0.629,0-0.727
	c-0.004-0.62,0.036-1.147,0.085-1.714c0.151-0.839,0.008-2.28,0.178-3.254l-0.043-0.215c0.168-0.255,0.024-0.816,0.085-1.156
	c0.559,0.051,1.143-0.073,1.584-0.17l0.256,0.043c1.175-0.197,3.026-0.252,4.144-0.429l0.17,0.043
	c0.069-0.213,0.753-0.019,0.902-0.128c0.623-0.101,1.349-0.094,1.887-0.208c0.678-0.161,1.495-0.076,2.356-0.173
	c-0.042,1.941-0.04,3.867,0.213,5.647c-0.115,0.69-0.094,1.323,0.002,1.972c0.043,0.41-0.076,1.18,0.085,1.712
	c-0.12,0.443,0.001,1.331,0.128,1.764c-0.229,1.327,0.187,2.613,0,4.025c0.177,0.351,0.007,1.028,0.045,1.501
	c0.174-0.075,0.014,0.927,0.043,1.006c0.189,0.031,0.092,0.31,0.085,0.428h0.043c0.01,2.092,0.036,4.582,0.298,6.597l-0.043,0.256
	c-0.105,0.44,0.131,1.337,0,2.013L41.454,84.69z M70.961,40.564c0.068,0.255,0.083,0.547,0.161,0.803
	c0.184-0.015,0.002,0.443,0.128,0.429c0.063,0.269,0.091,0.788,0.343,0.985c0.007,0.357,0.079,0.712,0.17,0.983
	c-0.021,0.294,0.068,0.625,0.178,0.805c-0.127,0.757,0.516,1.418,0.298,2.228c0.266,0.305,0.257,1.091,0.429,1.283
	c0.014,0.207,0.018,0.965,0.171,0.985c-0.232,0.92-0.438,2.075-0.599,2.91c0.046,0.39,0.022,0.878-0.128,1.113
	c0.011,0.362-0.035,0.82-0.171,1.025l0.043,0.13c-0.22,0.287-0.142,0.882-0.216,1.262c-0.044-0.017-0.146,0.312-0.128,0.386
	c-0.159,0.027-0.139,0.385-0.215,0.384c0.174,0.673-0.276,1.301-0.173,1.97c-0.092,0.054-0.148,0.257-0.171,0.429
	c-0.132,0.012-0.188,0.421-0.088,0.471c-0.18,0.596-0.111,2.3-0.947,1.797c-0.225-0.077-0.929-0.022-1.156-0.085
	c-0.428-0.034-1.038-0.305-1.456-0.1c-0.994-0.331-2.461-0.408-3.687-0.471c-0.63-0.295-1.78-0.111-2.463-0.388l-0.301,0.043
	c0.062-0.119-0.574-0.009-0.511-0.128L60.3,59.855c-0.448-0.161-1.307,0.034-1.679-0.215l-0.298,0.043
	c0.024-0.206-1.221-0.049-1.328-0.173c-0.302-0.158-1.205-0.009-1.452-0.216c-0.628,0.011-1.334-0.187-2.02-0.128
	c0.053-0.085-0.239-0.026-0.258-0.043c-0.05-0.216-0.44-0.199-0.601-0.215c-0.03,0.083-0.278,0.018-0.298,0.258
	c-0.436,0.022-0.743,0.114-1.158,0.128c-0.054,0.181-0.568,0.19-0.77,0.17c0.006,0.145-0.263-0.073-0.213,0.043
	c-0.194-0.082-0.739,0.029-0.86,0.13c-0.289-0.042-0.669-0.026-0.845,0.085c-0.19,0.029-0.857,0.03-0.983,0
	c0.048,0.086-0.198,0.03-0.223,0.045c-0.051,0.208-0.292,0.025-0.386,0.043c-0.348,0.033-1.037-0.009-1.454,0.128
	c-0.548,0.067-1.392,0.055-1.97,0.173c-2.874,0.371-1.79-0.107-2.171-2.442c1.248-0.019,1.225-0.468,1.245-1.459l-0.043-0.256
	c0.273-0.3,0.115-1.185,0.258-1.617l-0.043-0.128c0.078-1.026,0.273-2.286,0.32-3.301c-0.082,0.049-0.053-0.22,0-0.173
	c0.002-0.099,0.012-0.281,0.088-0.298c-0.059-0.476,0.164-0.866,0.128-1.326c0.026-0.442,0.134-1.327,0.215-1.795
	c0.09-0.313-0.235-1.283,0.429-0.814c0.439,0.061,0.613,0.12,0.994,0.088c0.143,0.136,0.808,0.318,1.028,0.213
	c0.435,0.353,1.156,0.363,1.542,0.556c2.046,0.447,4.365,0.247,6.291-0.419c0.205-0.216,0.654-0.311,0.985-0.429
	c-0.005-0.071,0.12-0.022,0.128-0.128c0.1,0.004,0.298-0.001,0.301-0.085c0.324-0.019,0.516-0.267,0.812-0.265
	c0.337-0.221,0.896-0.452,1.248-0.644c0.042-0.135,0.26-0.081,0.341-0.128c0.026-0.11,0.272-0.012,0.305-0.17
	c0.108-0.001,0.211-0.019,0.256-0.128c0.132,0.023,0.399-0.143,0.386-0.173c0.127-0.016,0.211-0.113,0.343-0.085
	c-0.031-0.06,0.058-0.04,0.085-0.043c0.004-0.085,0.106-0.096,0.17-0.085c0.008-0.077,0.11-0.018,0.128-0.128
	c0.122,0.017,0.204-0.146,0.301-0.13c0.141-0.184,0.471-0.316,0.727-0.341c-0.009-0.102,0.143-0.043,0.121-0.121
	c0.104,0.033,0.154-0.117,0.258-0.085c0.119-0.129,0.321-0.27,0.514-0.298c0.094-0.147,0.246-0.236,0.429-0.258
	c0.021-0.104,0.16-0.154,0.256-0.128c0.577-0.283,1.352-0.972,1.842-1.369c0.23,0.04,0.535-0.281,0.599-0.471
	c0.37-0.35,0.97-0.301,1.027-0.857c0.114-0.07,0.388-0.084,0.557-0.043c0.01-0.093,0.267-0.107,0.384-0.128
	c0.325-0.217,0.885-0.408,1.07-0.815c-0.19-0.351,0.712-0.163,0.774-0.471c0.134-0.007,0.292-0.17,0.384-0.298
	c0.165-0.056,0.34-0.108,0.431-0.258c0.329,0.041,0.479-0.181,0.772-0.256c0.749-0.773,0.436,0.209,0.642,0.556
	c-0.007,0.367,0.275,0.591,0.256,0.942c0.067-0.004,0.058,0.208,0.085,0.256c0.115-0.047-0.024,0.259,0.088,0.215
	C70.784,40.17,70.911,40.599,70.961,40.564z M66.199,37.557c0.036,0.517,0.254,0.969,0.339,1.499
	c-0.074,0.197-0.253,0.327-0.516,0.298c0.035,0.146-0.367,0.029-0.379,0.135c-0.2,0.026-0.27,0.199-0.459,0.173
	c0.007-0.04-0.006-0.047-0.043-0.043c-0.014-0.027,0.039-0.259-0.043-0.215c-0.025-0.631-0.321-1.007-0.348-1.634
	c-0.402-0.458,0.301-0.636,0.644-0.599c0.143-0.144,0.438-0.149,0.684-0.213C66.092,37.083,66.115,37.559,66.199,37.557z
	 M71.422,32.591V32.3c0.388,0.179,0.762,0.535,0.812,0.942c-0.19,0.14-0.33,1.751-0.429,1.757c0.017,0.071,0.031,0.142,0.045,0.213
	c-0.062,0.009-0.042,0.193-0.173,0.215c-0.038,0.2-0.137,0.582-0.211,0.684c-0.128,0.329-0.525,0.251-0.684,0.471
	c-0.125,0.052-0.376,0.054-0.429,0.128c-0.072,0.008-0.206,0.04-0.215,0.128c-0.059,0.003-0.179,0.034-0.178,0.088
	c-0.098-0.041-0.494,0.223-0.514,0.298c-0.319,0.055-0.814,0.264-1.028,0.514c-0.37,0.142-0.735,0.315-1.155,0.585
	c-0.071-0.704-0.765-1.702-0.344-2.098c0.193-0.197,0.511-0.25,0.779-0.514c0.008-0.136,0.05-0.27,0.17-0.341
	c-0.005-0.074-0.005-0.155,0.085-0.173c0.133-0.288-0.008-0.746,0.215-1.025c0.279-0.131,0.696-0.389,0.77-0.729
	c0.647-0.504,0.983-1.43,1.712-1.883c0.158,0.766-0.308,1.132-0.727,1.584c0.02,0.028-0.223,0.607-0.256,0.556
	c0.022,0.093-0.067,0.078-0.045,0.17c-0.101-0.03-0.005,0.108-0.095,0.085c-0.057,0.289,0.414,0.58,0.642,0.301
	c0.285-0.066,0.298-0.693,0.644-0.729C71.046,33.162,71.116,32.801,71.422,32.591L71.422,32.591z M74.546,21.846
	c-0.05,0.431-0.341,0.736-0.471,1.198c-0.094,0.016-0.057,0.445-0.216,0.471c-0.03,0.216-0.148,0.535-0.26,0.599
	c0.034,0.171-0.148,0.205-0.128,0.35c-0.092,0.004-0.021,0.271-0.13,0.258c-0.034,0.432-0.186,0.619-0.341,1.011
	c-0.269,0.288-0.189,0.707-0.471,0.985c-0.023,0.153-0.136,0.314-0.301,0.429c-0.068,0.327-0.282,0.722-0.372,0.99
	c-0.263,0.195-0.258,0.558-0.343,0.815c-0.2,0.073-0.281,0.406-0.431,0.514c0.008,0.144-0.05,0.293-0.13,0.343l0.043,0.213
	c-0.091-0.013-0.046,0.217-0.171,0.213c0.012,0.119-0.097,0.137-0.085,0.256c-0.163,0.127-0.327,0.022-0.471,0.213
	c-0.071,0.278-0.443,0.404-0.644,0.649c-0.004,0.161-0.236,0.292-0.341,0.301c-0.076,0.105-0.146,0.31-0.301,0.386
	c-0.018,0.024-0.015,0.257-0.085,0.213c-0.014,0.088-0.098,0.094-0.171,0.085c-0.096,0.112-0.121,0.23-0.258,0.301
	c0.032,0.104-0.11,0.116-0.078,0.22c-0.094-0.012-0.041,0.177-0.17,0.128c-0.005,0.088-0.092,0.183-0.171,0.215
	c-0.011,0.085-0.032,0.173-0.13,0.213c0.001,0.149-0.301,0.354-0.298,0.497c-0.17,0.051-0.1,0.402-0.22,0.429
	c0.069,0.231-0.106,0.548-0.17,0.812c-0.488-0.022-0.622,0.515-1.07,0.556c0.096,0.451-0.845,0.557-1.07,0.687
	c-0.473,0.125-0.944,0.278-1.501,0.379c-0.009-0.132-0.226,0.122-0.256,0.215c-0.495,0.015-0.802,0.202-1.158,0.298
	c-0.104,0.015-1.079,0.344-1.028,0.391c-0.229,0.043-0.582,0.049-0.729,0.171l-0.298-0.043c-0.149,0.169-0.657,0.099-0.772,0.431
	c-0.048,0.104-0.567,0.04-0.599,0.17c-0.061,0-0.091-0.015-0.085,0.047c-0.043,0.008-0.154-0.029-0.128,0.043
	c-0.108-0.002-0.178-0.02-0.213,0.085c-0.161-0.002-0.323,0.143-0.386,0.213c-0.407,0.087-0.87,0.185-1.07,0.343
	c-0.578,0.01-1.019,0.402-1.414,0.514c-0.502,0.067-0.585,0.173-1.07,0.384c0.016,0.097-0.268,0.036-0.256,0.13
	c-0.172-0.01-0.341,0.046-0.417,0.128c-0.783,0.147-1.893,0.592-2.411,0.978c-0.41-0.021-1.356-0.899-1.584-0.942
	c-0.229-0.28-0.586-0.411-0.9-0.471c-0.091-0.207-0.394-0.266-0.471-0.386c-0.224-0.206-0.448-0.436-0.812-0.514
	c-0.035-0.111-0.153-0.148-0.258-0.128c-0.011-0.064-0.065-0.101-0.128-0.085c-0.248-0.282-0.571-0.573-0.902-0.635
	c-0.136-0.197-0.318-0.353-0.514-0.343c-0.103-0.142-0.574-0.243-0.298-0.471c-0.048-0.139,0.117-0.437,0-0.471
	c-0.03-0.053-0.017-0.263-0.085-0.265c-0.269-0.267-0.682,0.063-0.734,0.343c-0.31,0.015-0.458-0.251-0.727-0.301
	c-0.003-0.091-0.15-0.115-0.216-0.128c-0.037-0.098-0.129-0.118-0.213-0.128c-0.04-0.06-0.152,0.015-0.171-0.111
	c-0.1-0.011-0.174-0.04-0.258-0.128c-0.277-0.103-0.475-0.444-0.727-0.471c0.004-0.054-0.076-0.108-0.128-0.085
	c0.004-0.056-0.078-0.108-0.13-0.085c-0.073-0.109-0.195-0.182-0.341-0.213c-0.209-0.262-0.632-0.275-0.815-0.644
	c-0.134-0.034-0.282-0.061-0.372-0.213c-0.082,0.013-0.361-0.002-0.343-0.085l-0.085,0.043c-0.347-0.202-0.348-0.117-0.687-0.483
	c-0.163-0.008-0.336-0.099-0.433-0.256c-0.125-0.009-0.277-0.136-0.412-0.133c-0.159-0.127-0.201-0.165-0.17-0.426
	c-0.127-0.036-0.066-0.294-0.216-0.327c-0.143-0.342-0.505-0.879-0.94-0.943c-0.042-0.226,0.128-0.415,0.085-0.642l0.983,0.343
	c0.071-0.14,0.577-0.08,0.732-0.137c0.158-0.244,0.495-0.119,0.812-0.213c0.178-0.083,0.314-0.381,0.599-0.429
	c0.212-0.331,0.383-0.3,0.429-0.727c0.087-0.007,0.122-0.349,0.258-0.386c0.074-0.232,0.13-0.398,0.118-0.642
	c0.202-0.049,0.047-0.479,0.171-0.552c0.007-0.18,0.169-0.316,0.173-0.514c0.067-0.02,0.08-0.396,0.13-0.599
	c0.127-0.005-0.128-0.571,0.17-0.343c0.154-0.089,0.449-0.238,0.557-0.395c0.126,0.022,0.31-0.071,0.301-0.213
	c0.691-0.495,0.607-1.614,0.459-2.304c-0.064-0.016-0.105-0.061-0.088-0.128c-0.138-0.024-0.135-0.096-0.128-0.215
	c-0.166-0.034-0.144-0.266-0.213-0.298c-0.324-0.47-0.708-0.595-1.286-0.653c0.068-0.126,0.045-0.428,0.142-0.469
	c0.026-0.037-0.118-0.091,0-0.088c0.014-0.108-0.073-0.533-0.13-0.556c0.004-0.216,0.031-0.797-0.171-0.855
	c0.044-0.316-0.147-0.529-0.173-0.772c-0.26-0.353-0.549-0.693-0.942-0.983c-0.225-0.202-0.209-0.62-0.514-0.772
	c-0.083-0.509-0.804-1.053-1.286-1.283c-0.089-0.126-0.385-0.292-0.557-0.343c-0.04-0.133-0.274,0.064-0.301-0.085
	c-0.776-0.227-1.535-0.63-2.609-0.77c0.042-0.313-0.046-0.734-0.128-0.94c0.004-0.452-0.224-1.057-0.17-1.669
	c-0.139-0.077-0.076-0.273,0-0.386c0.086,0.003,0.147,0.007,0.17-0.085c0.357,0.051,0.724-0.501,1.018-0.511
	c0.008-0.12,0.18-0.08,0.256-0.085c0.132-0.19,0.55-0.335,0.817-0.429c0.12-0.179,0.317-0.257,0.471-0.301
	c-0.046-0.082,0.19-0.028,0.213-0.043c0.021-0.063,0.059-0.102,0.128-0.085c0.003-0.039,0.19-0.134,0.258-0.128
	c0.049-0.132,0.216-0.157,0.256-0.258c0.248-0.007,0.572-0.152,0.744-0.384c0.102,0.007,0.267-0.06,0.282-0.13
	c0.065,0.019,0.112-0.025,0.13-0.085c0.021-0.014,0.212-0.022,0.17-0.085c0.44-0.027,0.652-0.358,0.985-0.429
	c0.292-0.209,0.615-0.434,0.897-0.514c0.072-0.151,0.27-0.123,0.343-0.298c0.139-0.074,0.537-0.152,0.556-0.17
	c0.624-0.249,1.108-0.653,1.795-0.94c0.317,0.202,1.321,0.324,1.854,0.341c-0.038,0.082,0.141,0.032,0.171,0.045
	c0.009,0.12,0.181,0.08,0.258,0.085c0.056,0.14,0.271,0.121,0.417,0.128c1.479,0.318,3.263,0.685,4.805,0.945
	c0.861,0.104,1.808,0.562,2.773,0.516c0.12,0.139,0.607,0.137,0.817,0.213c0.246,0.128,0.773,0.213,1.113,0.154
	c0.14,0.155,0.72,0.165,0.815-0.043c0.129-0.032,0.28-0.033,0.353-0.17c0.021-0.02,0.353-0.008,0.301-0.085
	c0.363-0.09,0.613-0.249,0.983-0.343c0.191-0.139,0.508-0.342,0.815-0.239c0.095-0.123,0.354-0.18,0.471-0.216
	c0.013-0.094,0.141-0.112,0.213-0.128c0.032-0.146,0.236-0.122,0.258-0.213c0.546,0.083,0.864-0.347,1.454-0.429
	c0.045-0.119,0.195-0.113,0.301-0.128c0.043-0.186,0.295-0.104,0.343-0.258c0.357,0.035,0.654-0.16,0.94-0.213
	c-0.009-0.159,0.354-0.059,0.343-0.173c0.174-0.019,0.279-0.128,0.471-0.128c0.06-0.189,0.311-0.043,0.386-0.256
	c-0.028-0.047,0.617-0.08,0.599-0.173c0.363-0.125,0.725-0.4,1.198-0.426c0.033-0.135,0.305-0.063,0.341-0.216
	c0.201,0.022,0.224-0.183,0.429-0.189c-0.006-0.102,0.213,0.021,0.215-0.128c0.233-0.046,0.402-0.123,0.599-0.152
	c0.045-0.167,0.343-0.056,0.384-0.256c0.09-0.006,0.278-0.045,0.301-0.133c0.347-0.064,0.574-0.279,0.987-0.258
	c-0.047-0.084,0.783-0.321,0.727-0.386c0.418-0.048,0.76-0.23,1.03-0.384c0.504-0.189,0.965-0.331,1.541-0.556
	c0.204,1.008,0.25,2.106,0.256,3.168c0.284,0.343-0.027,1.213,0.239,1.539l-0.043,0.13c0.122,2.082,0.242,4.381,0.474,6.5
	l-0.085,0.384c0.078,0.086,0.168,0.595,0.128,0.729c0.146,0.62,0.196,1.496,0.256,2.276C74.304,19.51,74.595,20.948,74.546,21.846z
	 M42.342,24.029c0.046,0.757,0.133,1.634-0.556,2.013C41.338,25.33,40.579,22.602,42.342,24.029z M70.279,19.875
	c-0.264-0.353-0.56-0.391-0.857-0.599c-0.372,0.065-0.961,0.037-1.07,0.514c-0.188,0.057-0.264,0.211-0.256,0.429
	c-0.16,0.01-0.147,0.366-0.043,0.384c-0.041,0.196-0.053,0.397,0.085,0.471l-0.043,0.173c0.379,0.337,0.688,0.51,1.198,0.514
	C70.145,21.428,70.48,20.867,70.279,19.875z M69.294,20.733c-0.414,0.248-0.481-0.349-0.258-0.516
	c0.376-0.071,0.347,0.201,0.246,0.516C69.282,20.733,69.294,20.733,69.294,20.733z M35.558,25.272
	c-0.08-0.025-0.125-0.216-0.128-0.298c-0.115-0.023-0.055-0.152-0.17-0.173c0.031-0.107-0.121-0.095-0.085-0.206
	c-0.261-0.226-0.786,0.216-0.774,0.514c0.151,0.185,0.317,0.481,0.514,0.729C35.515,25.996,35.656,25.908,35.558,25.272z
	 M69.838,23.813c0.137-0.498-0.601-0.678-0.76-1.025c-0.248-0.12-1.207-0.391-0.983,0.298c-0.081,0.408,0.368,0.354,0.642,0.514
	c0.189,0.248,0.502,0.473,0.556,0.814C69.614,24.409,70.259,24.146,69.838,23.813L69.838,23.813z M66.926,27.796
	c-0.375,0.102-0.378,0.523-0.727,0.599c-0.019,0.059-0.192,0.155-0.298,0.128c0.039,0.094-0.211,0.033-0.173,0.128
	c-0.113-0.035-0.1,0.122-0.213,0.088c-0.71,0.456-0.034,1.208,0.599,0.72c-0.038-0.066,0.145-0.068,0.17-0.085
	c0.057-0.118,0.157-0.169,0.258-0.173c0.202-0.238,0.434-0.3,0.642-0.514C67.627,28.467,67.607,27.642,66.926,27.796z M68.096,18.58
	c0.065-0.179,0.049-0.387,0.256-0.514c0.008-0.113,0.074-0.374,0.17-0.429c-0.012-0.125,0.166-0.41,0.173-0.578
	c0.068-0.018,0.077-0.174,0.085-0.258c0.128,0.063,0.099-0.2,0.125-0.256c-0.074-0.008-0.09-0.163-0.085-0.258
	c-0.062-0.017-0.103-0.061-0.085-0.128c-0.17,0.019-0.343,0.019-0.514,0c0.02,0.062-0.055,0.03-0.085,0.038
	c-0.028,0.035-0.075,0.153-0.13,0.13c0.009,0.13-0.117,0.148-0.09,0.298c-0.07-0.014-0.022,0.126-0.128,0.128
	c0.025,0.108-0.053,0.128-0.043,0.216c-0.118,0.171-0.227,0.401-0.256,0.684c-0.154,0.11-0.23,0.347-0.258,0.514
	c-0.13,0.138-0.256,0.525-0.263,0.727c-0.074-0.045-0.069,0.191-0.088,0.216c-0.178-0.01-0.102,0.188-0.213,0.213
	c-0.022,0.352-0.216,0.507-0.258,0.9c-0.111,0.083-0.277,0.54-0.301,0.729c-0.065,0.452-0.272,0.549,0.343,0.772
	c0.465,0.064,0.612-0.783,0.774-0.942c-0.018-0.068,0.024-0.11,0.085-0.128c0-0.112,0.006-0.321,0.085-0.343
	c0.006-0.086,0.097-0.439,0.175-0.471C67.88,19.525,67.903,18.997,68.096,18.58L68.096,18.58z M69.549,25.016
	c-0.817-0.337-0.743,0.133-0.855,0.729c0.003,0.122-0.115,0.247-0.216,0.301c-0.018,0.071-0.008,0.345-0.128,0.341
	c0.042,0.127-0.172,0.13-0.128,0.258c-0.108-0.05-0.02,0.349-0.128,0.298c0.303,0.739,0.886,0.18,1.028-0.343
	c0.086-0.004,0.346-0.568,0.256-0.691c0.205-0.098,0.171-0.427,0.213-0.642C69.508,25.318,69.566,25.037,69.549,25.016z
	 M50.445,35.201c-0.402-0.223-1.989-0.088-1.293,0.815c0.115-0.015,0.259-0.003,0.298,0.128c0.291-0.039,0.598-0.048,0.751-0.213
	C50.997,36.206,51.366,35.159,50.445,35.201z M51.257,19.319c0.744-0.197,1.304-0.413,1.982-0.599
	c0.134-1.053-0.673-0.609-1.163-0.514C51.446,18.406,50.547,18.477,51.257,19.319z M49.417,24.884
	c0.163-0.082,0.116-0.42-0.116-0.514c-0.12-0.085-0.301-0.302-0.478-0.341c0.116-0.713-1.017-0.787-0.772-0.04
	c0.029,0.18,0.102,0.536,0.341,0.556c0.076,0.284,0.349,0.71,0.729,0.556v0.043C49.325,25.116,49.337,25.03,49.417,24.884z
	 M55.198,18.121c0.251,0.45,0.76,0.008,1.167-0.043c0.184-0.138,0.814,0.008,0.893-0.343c0.286-0.037,0.399-0.185,0.384-0.471
	c-0.138-0.438-0.157-0.34-0.642-0.341c-0.032,0.3-0.427,0.147-0.514,0.256C56.094,17.334,54.639,17.273,55.198,18.121z
	 M54.34,23.129c0.048,0.193,0.51,0.312,0.741,0.258c0.013-0.117,0.286-0.201,0.298-0.085l0.128-0.043
	c3.67,0.617,4.728-1.51,0.213-0.983c0.028-0.17,0.11-0.467,0.256-0.471c0.102-0.055,0.057-0.193,0.173-0.215
	c-0.052-0.275,0.293-0.374,0.17-0.654c0.451-0.391,0.659-1.399-0.216-1.186c-0.43,0.463-0.739,1.029-1.113,1.499l0.043,0.128
	c-0.102,0.042-0.126,0.348-0.298,0.386c0.013,0.175-0.21,0.221-0.17,0.384C54.306,22.305,53.882,23.048,54.34,23.129L54.34,23.129z
	 M46.701,16.617c0.134,0.311,0.242,0.189,0.556,0.17c-0.023,0.089,0.367,0.067,0.343-0.042c0.447,0.135,0.762-0.04,0.599-0.514
	c-0.034,0.035-0.066-0.157-0.128-0.213c-0.704,0.244-1.656-0.373-0.857-0.9c0.225-0.109,0.626-0.096,0.642,0.216
	c0.018,0.015,0.311-0.041,0.258,0.043c0.763,0.09,0.36-0.776,0.085-1.028c-0.185-0.018-0.363,0.058-0.471-0.085
	c-0.351-0.101-0.984,0.426-1.198-0.002c-0.214-0.197-0.144-0.382-0.343-0.514c-0.099,0.008-0.295-0.005-0.298-0.085
	c-0.225-0.066-0.332,0.159-0.514,0.043c-0.313,0.089-0.361,0.289-0.301,0.642c0.125,0.026,0.288,0.153,0.471,0.128
	c0.723,0.038,0.234,1.244-0.386,0.9c-0.384-0.171-0.555,0.349-0.429,0.431c-0.053,0.311,0.109,0.192,0.216,0.298
	c0.447,0.09,0.886,0.016,1.326-0.17C46.235,16.233,46.504,16.439,46.701,16.617z M43.877,13.496
	c-0.022-0.159,0.288-0.234,0.256-0.426c0.126-0.083,0.245-0.216,0.258-0.343c0.036-0.008,0.247-0.252,0.213-0.301
	c0.112-0.081,0.185-0.265,0.216-0.426c0.352-0.085,0.683,0.031,0.855,0.213c0.519,0.035,1.088,0.277,1.7,0.343
	c0.18,0.195,0.767,0.159,0.985,0.256c-0.002,0.148,0.223,0.027,0.213,0.128c0.132,0.002,0.195,0.099,0.343,0.085
	c0.043,0.107,0.676,0.176,0.815,0.18c0.108,0.224,0.552,0.231,0.77,0.256c0.157,0.155,0.812,0.237,1.179,0.263
	c-0.043,0.071,0.192,0.067,0.215,0.085c-0.006,0.105,0.145,0.057,0.128,0.128c0.235-0.017,0.449,0.071,0.651,0.085
	c0.099,0.065,0.749,0.228,0.684-0.085c0.148,0.014,0.069-0.358,0.088-0.429c-0.166,0.02-0.136-0.093-0.258-0.085
	c0.025-0.089-0.11,0.004-0.085-0.085c-0.033,0.008-0.423-0.084-0.386-0.128c-0.147,0.002-0.286,0.005-0.341-0.128
	c-0.498-0.011-0.972-0.214-1.25-0.398c-0.494,0.016-0.698-0.182-1.198-0.253c-0.053,0.098-0.204,0.009-0.213-0.043
	c-0.112-0.015-0.338-0.049-0.343-0.128c-0.194-0.031-0.934-0.072-0.985-0.17c-0.644-0.133-1.211-0.414-1.92-0.519
	c-0.033-0.12-0.409-0.089-0.438-0.215c-0.317-0.01-0.526-0.05-0.772-0.13c-0.115-0.172-0.539-0.196-0.8-0.17
	c-0.045,0.2-0.092,0.43-0.17,0.557c-0.184,0.311-0.64,0.469-0.651,0.86c-0.138,0.12-0.366,0.291-0.341,0.471
	c-0.462,0.246-0.447,0.722-0.772,0.985c-0.058,0.169-0.163,0.411-0.341,0.429c-0.124,0.305-0.454,0.447-0.514,0.727
	c-0.077,0.007-0.022,0.232-0.121,0.215c-0.076,0.135-0.282,0.414-0.426,0.471c-0.03-0.642,0.038-1.402-0.175-1.939
	c-0.398-0.214-0.764-0.223-1.198-0.322c-0.332-0.11-1.025-0.416-1.028,0.258c0.025,0.794,1.842,0.143,1.627,1.07
	c0.099,0.132-0.028,0.766,0,0.888c0.128-0.023,0.024,0.339,0.13,0.343l-0.045,0.213c0.147,0.083,0.002,0.389,0.13,0.601
	c0.151,0.038,0.451,0.05,0.514,0.128c0.311,0.003,0.249-0.211,0.384-0.386c0.265-0.175,0.54-0.553,0.644-0.855
	c0.476-0.418,0.825-0.996,1.113-1.542c0.049,0.033,0.146-0.152,0.17-0.173c0.095,0.025,0.195-0.075,0.17-0.17
	C43.759,13.801,43.782,13.558,43.877,13.496z M48.342,32.418c-0.019-0.26-0.189-0.254-0.343-0.556
	c-0.133,0.001-0.493,0.023-0.512-0.121c-0.107,0.042-0.32,0.054-0.343,0.17c-0.318-0.181-0.502,0.432-0.815,0.599
	c0.026,0.471,0.281,1.3,0.772,1.115c0.225,0.23,0.626,0.021,0.855,0.043c0.434-0.443,0.273-0.916,0.471-1.115
	C48.412,32.525,48.4,32.395,48.342,32.418z M47.357,35.201c-0.158-0.021-0.983-0.367-1.118,0.045
	c-0.169-0.033-0.21,0.084-0.341,0.085c-0.041,0.225-0.425,0.07-0.471,0.256c-0.404,0.07,0.085,0.842,0.341,0.86
	c0.297-0.239,0.537-0.253,0.772-0.471c0.336-0.142,0.819-0.009,0.855-0.514C47.309,35.513,47.374,35.221,47.357,35.201z
	 M49.503,19.234h0.012c-0.113-0.216-0.72,0.063-0.779,0.128c-0.647,0.115-1.386,0.6-0.556,1.113c0.124-0.048,0.23-0.082,0.298-0.213
	c0.194-0.033,0.418-0.066,0.514-0.216C49.255,19.915,49.835,19.694,49.503,19.234z M47.803,21.246
	c-1.068-0.246-0.473,0.338-0.769,0.822c-0.481,1.841,1.269,1.274,0.8-0.523C47.872,21.472,47.826,21.335,47.803,21.246z
	 M54.504,51.733c-0.063,0.131,0.197,0.101,0.256,0.128c0.04-0.13,0.313,0.017,0.429,0c-0.012-0.101,0.271-0.127,0.256-0.043
	c0.143-0.054,0.351-0.013,0.395,0.085c0.139,0.004,0.436-0.005,0.474,0.088l0.213-0.045c0.281,0.072,1.279,0.201,1.542,0.13
	c0.665-0.016,1.401,0.179,2.098,0.114c0.09,0.228,0.545,0.071,0.77,0.17c-0.002-0.157,0.361,0.094,0.343-0.043
	c0.343,0.17,0.87,0.011,1.146,0.128c1.025,0.448,1.663,0.114,1.584-0.983l-0.043-0.173c0.16-0.234,0.122-0.748,0.213-1.113
	c0.206-0.257,0.213-0.979,0.27-1.411c0.177-0.256,0.087-1.006,0.043-1.414c-0.37-0.172-0.428-0.213-0.942-0.085
	c-0.024,0.067-0.236,0.098-0.346,0.128c-0.041,0.161-0.221,0.081-0.258,0.213c-0.314,0.042-0.797,0.126-0.985,0.258
	c-0.376,0.125-0.809,0.288-1.314,0.386c-0.052,0.164-0.57,0.078-0.642,0.213l-0.215-0.043c0.022,0.049-0.174,0.076-0.213,0.085
	c0.034,0.1-0.161-0.015-0.128,0.085c-0.202-0.043-0.228,0.137-0.343,0.215c-0.028-0.017-0.159-0.026-0.128-0.085
	c-0.54,0.186-0.961,0.388-1.468,0.474c-0.345,0.201-0.862,0.343-1.407,0.386c-0.113,0.127-0.878,0.25-0.992,0.429
	c-0.218,0.087-0.8,0.085-0.985,0.26c-0.169,0.064-0.605,0.14-0.729,0.301c-0.368-0.031-1.109,0.175-0.983,0.599
	c-0.07,0.048,0.133,0.436,0.341,0.343c0.108,0.251,0.674,0.189,0.9,0.128c-0.008,0.079,0.253,0.094,0.343,0.116
	c-0.046-0.082,0.19-0.028,0.213-0.043l-0.007,0.059C54.203,51.776,54.504,51.733,54.504,51.733z M55.063,50.919
	c0.43-0.32,0.983-0.202,1.418-0.384c0.058-0.16,0.471-0.093,0.514-0.215c0.085,0.032,0.134-0.072,0.17-0.128
	c0.137-0.022,0.503-0.033,0.514-0.133c0.065-0.002,0.197-0.069,0.301-0.043c-0.013-0.061,0.056-0.059,0.043,0
	c0.07-0.067,0.368-0.072,0.386-0.17c0.09,0.02,0.172-0.025,0.213-0.045c0.036,0.067,0.04,0.062,0.043,0
	c0.029-0.046,0.381-0.006,0.386-0.085c0.412-0.285,1.132-0.202,1.542-0.599c0.168-0.018,0.539-0.068,0.599-0.171
	c0.294,0.046,0.553-0.161,0.727-0.213c0.178-0.004,0.404-0.029,0.471-0.137c0.161,0.03,0.386-0.037,0.514-0.085
	c0.134-0.254,0.495-0.161,0.729-0.256c0.118,0.437-0.239,0.976-0.173,1.283l-0.043,0.213c0.059-0.032,0.069,0.103,0.085,0.13
	c-0.578,3.025,0.007,1.244-2.354,1.641c-0.405-0.257-1.124-0.15-1.748-0.13c0.001-0.133-0.271-0.073-0.343-0.085
	c0.036-0.074-0.383-0.146-0.386-0.043c-0.838,0.051-1.77-0.297-2.531-0.213c-0.401-0.055-0.608,0.04-1.115-0.088
	C55.06,50.912,55.03,50.94,55.063,50.919z M47.106,29.08c0.531,0.478,0.855,0.115,1.369-0.085c0.324-0.449,0.155-0.779,0-1.241
	c-0.269-0.074-0.472-0.418-0.812-0.301c-0.09,0.15-0.397,0.045-0.471,0.301C46.482,27.828,46.844,28.751,47.106,29.08z
	 M57.504,33.233l-0.256-0.043c0.055,0.086-0.278,0.025-0.296,0.043c-0.043,0.205-0.27,0.211-0.386,0.341
	c-0.445,0.083-0.881,0.249-1.158,0.602c0.013,0.501,0.43,0.725,0.729,0.556c0.117-0.015,0.264-0.113,0.298-0.173
	c0.189,0.054,0.245-0.173,0.429-0.171c0.058-0.138,0.196-0.151,0.298-0.171c0.031-0.167,0.214-0.236,0.386-0.258
	C57.614,33.738,57.594,33.495,57.504,33.233z M65.856,54.98l-0.009,0.019c0.071-0.663-0.195-0.815-0.77-0.781
	c-0.001,0.081-0.399,0.037-0.419,0.085c0.055,0.071-0.324,0.107-0.341,0.128c0.044,0.11-0.109,0.106-0.173,0.128
	c-0.068,0.104-1.001,0.158-1.07,0.301l-0.341-0.043c0.026,0.089-0.112-0.004-0.085,0.085l-0.13-0.043
	c0.024,0.048-0.175,0.077-0.213,0.085c-0.074,0.143-0.337,0.21-0.471,0.213c-0.026,0.095-0.119,0.102-0.171,0.13
	c0.001,0.083-0.021,0.208-0.085,0.218c0.045,0.091,0.03,0.426,0.213,0.343c0.011,0.03-0.031,0.159,0.043,0.128
	c0.093,0.387,0.719,0.042,0.902,0.213l0.085-0.043c0.424,0.176,1.107,0.004,1.584,0.156C65.459,56.811,65.869,55.782,65.856,54.98
	L65.856,54.98z M65.034,55.299c-0.064,0.43-0.929,0.293-1.144,0.171c0.415-0.151,0.691-0.322,1.156-0.343L65.034,55.299
	L65.034,55.299z M60.757,31.391c-0.532-0.074-0.735,0.323-1.156,0.471c-0.111-0.035-0.101,0.119-0.211,0.085
	c-0.033,0.109-0.178,0.087-0.215,0.216c-0.032,0.003-0.404,0.174-0.386,0.213c-0.363,0.099,0.278,1.013,0.471,0.635
	c0.217,0.05,0.335-0.177,0.514-0.213c0.073-0.1,0.301-0.052,0.343-0.194C60.601,32.326,61.128,32.001,60.757,31.391z M68.683,51.298
	l-0.009,0.007c-0.03-0.245-0.432-0.267-0.471-0.256c-0.358-0.043-0.447,0.206-0.727,0.298c-0.254-0.015-0.422,0.151-0.594,0.173
	c0.027,0.065-0.135,0.026-0.128,0.128c-0.045,0.016-0.151-0.035-0.128,0.043c-0.133,0.081-0.359,0.03-0.429,0.17
	c-0.116,0.002-0.317,0.005-0.343,0.085c-0.356,0.168-0.98,0.205-1.326,0.457c-0.101,0.031-0.286,0.016-0.343,0.173
	c-0.083-0.005-0.148-0.005-0.171,0.085c-0.192,0.016-0.406,0.208-0.642,0.17c0.012,0.062-0.055,0.059-0.043,0
	c-0.101-0.006-0.385,0.074-0.429,0.17c-0.179,0.022-0.412,0.254-0.684,0.215c0.046,0.025-0.623,0.248-0.694,0.213
	c0.018,0.061-0.261,0.115-0.322,0.128c0.01,0.106-0.289,0.062-0.301,0.18c-0.837,0.257-1.565,0.636-2.439,0.947
	c-0.049,0.113-0.49,0.06-0.514,0.213c-0.052,0.021-0.076-0.115-0.085,0c-0.132-0.028-0.215,0.069-0.343,0.085
	c-0.069,0.168-0.869,0.253-0.905,0.391c-0.33,0.053-0.807,0.239-1.028,0.431c-0.104,0.041-0.388,0.074-0.426,0.17
	c-0.157,0.013-0.447,0.088-0.523,0.17c-0.562,0.012-0.494,0.805,0,0.943c0.06,0.155,0.76-0.01,0.77,0.073
	c0.737-0.01,1.932,0.304,2.825,0.343c0.083-0.187,0.413,0.045,0.556-0.085c0.194,0.223,0.643,0.133,0.985,0.171
	c0.206,0.095,0.771-0.03,1.032,0.088c0.086-0.08,0.656-0.061,0.684,0.085c0.409,0.05,1.134-0.089,1.414,0.128
	c0.873-0.164,1.572,0.372,2.354,0.175c0.371,0.058,0.803,0.025,1.113,0.128c0.114-0.07,0.909,0.156,0.942,0.043
	c0.059,0.004,0.239-0.076,0.343-0.043c0.044-0.261,0.302-0.301,0.256-0.599c0.31-0.673,0.396-1.674,0.521-2.5
	c0.09-0.142,0.055-0.652,0.085-0.855c0.128,0.024,0.03-0.334,0.13-0.343c0.109-0.391,0.054-1.074,0.17-1.456
	c0.009-0.169-0.047-0.6,0.13-0.646C69.094,51.573,68.932,51.425,68.683,51.298L68.683,51.298z M56.642,56.486
	c-0.067,0.011-0.03-0.055-0.085-0.085C56.632,56.389,56.654,56.411,56.642,56.486L56.642,56.486z M67.74,53.438
	c-0.017,0.367-0.111,0.861-0.137,1.163c-0.067,0.028-0.216,0.481-0.085,0.556c-0.016,0.792-0.301,1.413-0.331,2.233
	c-0.545-0.102-0.941-0.168-1.541-0.13c-0.022-0.099-0.408-0.004-0.386-0.14c-0.179-0.014-0.547,0.005-0.642-0.085l-0.17,0.043
	c-0.214-0.099-0.591-0.032-0.9,0c-1.166-0.189-2.189-0.241-3.476-0.343c-0.352-0.065-0.959-0.315-1.328-0.13
	c-0.6-0.145-1.324-0.217-2.003-0.256c0.15-0.196,0.518-0.115,0.684-0.346c0.179-0.076,0.581-0.122,0.684-0.26
	c0.333-0.025,0.481-0.261,0.85-0.258c0.01-0.111,0.228-0.024,0.256-0.17c0.122-0.027,0.364-0.05,0.386-0.13
	c0.196-0.036,0.401-0.208,0.684-0.194c0.246-0.209,0.65-0.277,1.028-0.343c0.064-0.089,1.09-0.476,1.198-0.469
	c-0.023-0.063,0.05-0.042,0.085-0.045c0.016-0.059,0.065-0.105,0.13-0.085c0.04-0.135,0.261-0.081,0.341-0.128
	c0.114-0.11,0.61,0,0.651-0.298c0.473-0.192,0.856-0.341,1.459-0.429c0.178-0.293,0.464-0.206,0.729-0.343
	c0.015-0.067,0.126-0.085,0.213-0.085c-0.036-0.071,0.101-0.034,0.128-0.043c-0.039-0.085,0.089-0.05,0.128-0.057
	c-0.049-0.047,0.568-0.217,0.547-0.301C68.254,51.919,68.01,52.207,67.74,53.438L67.74,53.438z M63.097,15.204v-0.007l0.019,0.012
	c0.367-0.011,1.926-1.454,0.45-1.456c-0.217,0.09-0.71,0.137-0.599,0.471C62.396,14.476,62.509,15.049,63.097,15.204L63.097,15.204z
	 M58.804,25.357c0.692,0.147,0.929-1,0.088-0.94c-0.065,0.08-0.582,0.095-0.644,0.256c-0.378,0.173-0.541,0.131-0.684,0.301
	c-0.053,0.55,0.27,0.733,0.772,0.599C58.389,25.332,58.72,25.468,58.804,25.357z M63.919,10.158c0.12,0.007,0.079,0.183,0.085,0.258
	c0.09,0.256,0.336,0.259,0.488,0.384c0.132,0.323,0.45,0.547,0.727,0.729c-0.225,0.876-0.902,1.484-0.125,2.226
	c0.204-0.087,0.588-0.045,0.684-0.085c0.441-0.313,0.581-0.77,0.942-1.205c0.424,0.373,0.901,0.384,1.198,0.857
	c0.331-0.112,0.892,0.038,0.9-0.428c0.177-0.095,0.385-0.392,0.128-0.514c0.044-0.192,0.057-0.389-0.171-0.471
	c-0.087-0.08-0.236-0.251-0.428-0.256c-0.18-0.305-0.459-0.437-0.729-0.597c0.025-0.154,0.101-0.315,0.213-0.386
	c-0.018-0.075,0.114-0.155,0.128-0.391c0.344-0.346,0.373-1.043,0.13-1.397c-0.153-0.02-0.28-0.241-0.386-0.386
	c-0.191,0.047-0.484,0.064-0.599,0.125c-0.428,0.379-0.69,0.827-1.028,1.329c-0.615-0.284-1.007-0.742-1.797-0.642
	C64.13,9.801,63.591,9.491,63.919,10.158L63.919,10.158z M51.302,30.15c-0.047-0.39-0.419-0.355-0.691-0.642
	c-0.375,0.259-1.474,0.111-1.875,0.256l-0.301-0.043c-0.487,0.239-1.296-0.047-1.797,0.088l-0.17-0.045
	c-0.062,0.133-1.075-0.229-1.364,0c0.033-0.085-0.161-0.042-0.128-0.128c-0.151,0.05-0.572,0.139-0.772,0.128
	c-0.141,0.427-0.581,0.821-0.298,1.243c0.247,0.024,0.155,0.205,0.341,0.341c0.271-0.116,0.626,0.205,0.85-0.038
	c1.198,0.098,2.373,0.029,3.5-0.128c0.215,0.07,0.976,0.126,1.113,0c0.463,0.094,1.173,0.133,1.454-0.17l-0.043-0.13
	c0.089,0.008-0.003-0.167,0.128-0.17C51.507,30.54,51.156,30.314,51.302,30.15L51.302,30.15z M54.123,34.559
	c-0.227-0.029-0.902-0.198-1.156,0.173c-0.536,0-0.996-0.117-0.857,0.599c0.11,0.456,0.69,0.313,0.9,0.17
	c0.418,0.115,0.6-0.108,0.935-0.123c0.038-0.098,0.133-0.153,0.237-0.128c-0.001-0.151,0.221-0.03,0.213-0.13
	C54.464,34.889,54.543,34.466,54.123,34.559L54.123,34.559z M52.197,26.008c0.481,0.239,0.508-0.361,0.443-0.736
	c-0.073-0.109-0.519-0.024-0.556-0.118l-0.128,0.043c-0.218-0.14-1.303-0.559-1.428-0.085c-0.011,0.244,0.083,0.415,0.343,0.429
	c0.061,0.211,0.284,0.22,0.471,0.298c-0.014,0.075,0.313,0.126,0.298,0C51.884,25.809,51.937,26.045,52.197,26.008z M55.411,25.907
	c0.136-0.004,0.294-0.135,0.471-0.085c0.211-0.13,0.165-0.569-0.043-0.77c-0.737-0.026-1.303,0.29-1.927,0.384
	c-0.339,0.427,0.179,0.966,0.687,0.644C54.758,25.961,55.302,26.074,55.411,25.907z"/>
</svg>
