<svg xmlns="http://www.w3.org/2000/svg" fill="none" viewBox="0 0 62 90" height="100" width="100">
<g id="Layer_1-2">
<g id="x0mJD7.tif">
<path fill="#222222" d="M24.6328 19.699C24.6417 20.0034 24.474 20.2361 24.1564 20.3257C23.6358 20.4778 23.1064 20.6032 22.577 20.7643C21.5535 21.0687 20.5477 21.4178 19.6124 21.928C18.3948 22.5994 17.5213 23.5752 17.0272 24.9001C16.5243 26.225 16.1978 27.5857 15.942 28.9732C15.9243 29.0896 15.8978 29.206 15.8626 29.3134C15.7831 29.573 15.5714 29.7341 15.2979 29.752C15.0596 29.7699 14.8214 29.6267 14.7244 29.385C14.592 29.0448 14.5391 28.6778 14.442 28.3197C14.0803 26.968 13.6744 25.6341 12.9862 24.4077C12.4391 23.432 11.6539 22.7248 10.6657 22.2324C9.46572 21.6416 8.17753 21.3193 6.88052 21.0418C6.5717 20.9702 6.25407 20.9165 5.94526 20.8449C5.6188 20.7732 5.42469 20.5405 5.40704 20.2361C5.39822 19.9407 5.5835 19.699 5.91879 19.6095C6.8364 19.3678 7.75402 19.1261 8.65398 18.8128C9.32455 18.5711 9.96864 18.2936 10.5951 17.9444C11.8215 17.2462 12.6068 16.1809 13.1097 14.865C13.6126 13.5669 13.895 12.2062 14.1597 10.8456C14.1685 10.7829 14.1861 10.7202 14.2038 10.6576C14.2832 10.398 14.5126 10.2189 14.7597 10.21C15.0067 10.201 15.2626 10.3532 15.342 10.6128C15.4567 10.9619 15.5361 11.32 15.6332 11.6691C15.9773 12.9493 16.3831 14.2025 16.9919 15.3842C17.5654 16.4853 18.4301 17.273 19.533 17.7923C20.4683 18.2309 21.4565 18.5084 22.4623 18.7322C23.0005 18.8575 23.5476 18.9829 24.0946 19.0813C24.4652 19.1529 24.6417 19.3588 24.6593 19.6811L24.6328 19.699ZM8.53928 20.1735C8.5834 20.1914 8.60987 20.2003 8.64516 20.2093C9.50101 20.4062 10.3039 20.7195 11.1068 21.0776C12.2009 21.57 13.0832 22.3219 13.7626 23.3335C14.3273 24.1839 14.7155 25.1239 15.042 26.0907C15.0949 26.2339 15.1391 26.3861 15.2096 26.5741C15.2361 26.4756 15.2538 26.4309 15.2714 26.3861C15.4479 25.7326 15.642 25.0881 15.889 24.4614C16.3743 23.2171 17.0978 22.1518 18.1831 21.3641C18.8977 20.8449 19.6918 20.4957 20.5036 20.1735C20.83 20.0481 21.1565 19.9318 21.4829 19.8064C21.4477 19.7438 21.3859 19.7438 21.3418 19.7348C20.6624 19.5468 20.0006 19.323 19.3477 19.0634C17.8037 18.4457 16.6478 17.3894 15.8802 15.9034C15.492 15.1604 15.1832 14.3816 14.9273 13.5848C14.9096 13.5401 14.9096 13.4774 14.8479 13.4506C14.6097 14.31 14.3361 15.1514 13.9656 15.9571C13.445 17.094 12.7127 18.0608 11.6539 18.7412C10.8245 19.2783 9.94217 19.699 8.99809 20.0034C8.8481 20.0481 8.6981 20.0929 8.54811 20.1824L8.53928 20.1735Z" id="Vector"></path>
<path fill="#222222" d="M5.92776 23.4052C6.2454 23.4052 6.46598 23.5842 6.56303 23.9423C6.67773 24.363 6.78361 24.7837 6.91596 25.1955C7.03949 25.5894 7.1983 25.9654 7.37477 26.3324C7.71887 27.0396 8.31003 27.4514 8.99824 27.7379C9.65998 28.0154 10.357 28.1407 11.0452 28.284C11.0629 28.284 11.0893 28.284 11.107 28.2929C11.4423 28.3735 11.654 28.5883 11.6717 28.8748C11.6805 29.1791 11.4864 29.4388 11.1511 29.5283C10.5688 29.6894 9.98644 29.8326 9.42175 30.0564C9.04236 30.2086 8.6806 30.4056 8.34532 30.6473C7.77181 31.068 7.47182 31.6857 7.26007 32.3481C7.0836 32.9032 6.98655 33.485 6.86302 34.049C6.84537 34.1206 6.82773 34.1922 6.81008 34.2638C6.73067 34.5324 6.51892 34.7025 6.26304 34.7114C6.01599 34.7204 5.76012 34.5682 5.67189 34.3176C5.55718 33.9595 5.46895 33.5924 5.35425 33.2344C5.21308 32.7599 5.05426 32.2944 4.83368 31.8468C4.48957 31.1307 3.92489 30.6652 3.19256 30.3877C2.53964 30.146 1.86908 29.9848 1.18969 29.8416C1.11028 29.8237 1.02205 29.8058 0.942641 29.7789C0.677944 29.6984 0.519126 29.4925 0.50148 29.2239C0.483833 28.9733 0.625005 28.7405 0.872055 28.6331C1.11028 28.5257 1.36616 28.4898 1.61321 28.4182C2.05437 28.2929 2.4867 28.1586 2.91022 27.9885C3.92489 27.5768 4.56898 26.8427 4.88662 25.7864C5.06308 25.1955 5.19543 24.5958 5.31013 23.987C5.38072 23.62 5.6013 23.4141 5.90129 23.4052H5.92776ZM6.02482 26.3235C5.56601 27.6484 4.74545 28.6241 3.42197 29.1344C4.77192 29.573 5.67189 30.4593 6.16599 31.7931C6.38657 31.1396 6.66891 30.5488 7.13654 30.0654C7.60417 29.582 8.16886 29.2597 8.82178 28.9643C7.41006 28.5615 6.52774 27.6573 6.01599 26.3145L6.02482 26.3235Z" id="Vector_2"></path>
</g>
<g id="Vector_3">
<path fill="#222222" d="M61.3112 5.01795C61.3553 3.78258 60.173 3.42451 59.2818 4.20332C58.7172 4.77625 59.3171 2.63674 59.2289 2.56512C59.123 2.35027 59.0348 2.04591 58.9289 1.73259C58.673 1.55355 58.5407 1.44613 58.2584 1.3208C58.3201 1.16862 57.9848 1.16862 58.0466 1.3208C57.8966 1.29395 57.879 1.20443 57.6848 1.22233C57.6584 1.49984 57.4025 1.3029 57.3319 1.5267C56.4849 1.75945 56.7055 3.00377 56.229 3.44241C56.4408 0.380849 53.4144 1.0791 53.5203 3.54983C53.4585 3.83629 53.6085 4.17647 53.4232 4.36446C53.2732 3.80049 52.6115 3.68411 52.1086 3.74678C50.4057 4.5435 51.5262 7.64087 51.288 9.37754C51.4468 11.5171 52.5144 11.3917 54.332 11.5976C55.0732 11.6692 54.8261 12.0989 54.7467 12.7703C54.6232 13.0389 54.1291 13.2985 53.8909 13.388C53.2909 13.8714 53.2115 14.6055 52.9291 15.2321C52.6291 17.4611 52.7703 20.1467 52.6291 22.4653C52.5321 23.6022 52.7085 24.8465 53.1321 25.858C53.4232 26.1803 53.8644 26.6011 54.0056 26.986C54.1467 29.1703 52.2321 28.1139 51.2174 29.4388C49.2234 31.0412 47.4058 32.2766 45.9676 34.2997C45.9411 34.613 46.1 34.0938 45.9676 34.2997C46.1 34.7473 45.9323 32.4735 45.5264 32.0617C44.6441 31.1665 44.8471 31.5246 43.7883 30.5757C42.7118 29.6716 41.4236 29.4209 40.2413 28.9375C39.5443 28.7495 38.459 28.481 37.7532 28.293C36.1297 28.4362 36.8444 27.3441 36.8885 26.3504C38.0444 26.0997 39.3061 25.2135 39.6149 23.9871C40.1708 21.9729 40.206 19.8692 40.4002 17.4432C40.6384 14.8919 40.7443 12.3943 38.7767 10.5234C38.1326 9.81618 37.3914 9.44916 36.5973 9.27012C36.3768 9.00156 35.1592 9.06422 35.0092 8.84043C32.8828 8.53606 31.0034 10.2906 30.1652 12.0989C29.7152 13.7908 29.4505 15.3753 29.4064 17.291C29.1329 18.4279 29.4241 20.1199 29.2564 21.6417C29.4152 22.2683 29.6358 22.8502 29.7064 23.6022C30.2005 24.1751 30.6858 24.8554 31.1799 25.3478C31.7269 26.0192 33.1298 25.8312 32.7857 26.8696C32.9092 27.6574 32.6357 27.8275 31.9828 27.738C31.1446 28.0871 26.733 29.0539 25.5507 29.6089C25.0036 30.5131 23.786 30.4146 22.9478 30.5399C21.889 30.6921 21.1126 31.1218 20.0803 31.82C19.7891 32.1423 19.4538 32.4467 19.1627 32.7421C19.2509 33.2613 18.8627 33.2792 18.5539 33.3508C14.1246 34.4071 15.7393 40.0469 15.3687 43.6992C15.4128 45.4538 15.854 46.7787 17.4245 47.6291C18.298 48.1752 16.2951 48.775 16.0216 49.2226C15.9951 49.5986 15.7657 49.894 15.6687 50.1267C15.1305 52.9555 15.3775 56.4378 15.651 59.5979C15.7393 60.9496 16.5598 62.2566 17.9362 62.9101C17.9715 63.0533 18.2362 63.0533 18.395 63.0712C18.6686 63.2771 18.7656 64.2171 18.245 64.3066C17.8039 64.2529 17.7598 64.7363 17.3451 64.8168C16.8069 65.4435 16.4363 65.9179 16.4539 66.7684C16.6745 67.6188 16.6216 68.8721 17.5127 69.3376C18.1303 69.5882 18.6774 68.693 19.2244 68.8542C19.2597 69.0332 20.292 69.3018 20.2391 68.8989C20.6361 69.1585 21.3596 68.9526 21.2008 69.2033C20.9538 70.1164 20.4244 70.9937 20.1773 71.7814C20.0715 71.9963 19.9215 72.5245 19.7273 72.7035C19.7538 73.0258 19.5862 73.5181 19.3215 73.5718C19.0656 74.6998 18.6509 75.3622 18.5097 76.5707C18.3333 77.0541 18.6421 77.7166 18.8627 78.2268C19.2156 78.7192 20.2214 79.0415 20.142 79.7129C19.8156 80.053 19.895 80.626 19.7185 81.0467C19.445 83.3742 17.9892 81.8792 16.7804 84.0814C16.3039 85.093 15.7128 86.3731 16.1892 87.519C15.8981 89.0855 17.3627 88.5753 18.6068 88.6469C19.4097 88.9244 20.1862 88.4768 20.892 88.7006C22.242 88.3783 24.0684 89.3004 25.2154 88.2888C25.2154 86.946 25.6389 85.5227 24.8536 84.4932C24.6242 83.222 23.3978 82.8908 22.5949 82.3358C21.5096 82.5148 22.8772 80.3664 22.7449 79.9098C24.0596 79.4891 25.0566 78.8803 25.5154 77.4391C26.0271 76.7319 26.1418 75.7382 26.4771 75.0489C27.1741 73.6166 27.6771 71.6919 28.2418 70.6535C28.9917 68.0127 30.0505 66.0075 30.3593 63.2324C30.9152 62.6505 29.3094 62.2208 29.7593 61.7374C30.6152 59.0697 30.3329 59.6516 33.0681 59.6963C34.4004 60.1708 36.8356 59.0608 36.765 60.9765C37.515 62.2655 36.9944 62.3372 36.0062 63.3398C35.2297 64.79 35.9797 66.2402 36.1562 67.4935C36.3944 69.1227 36.8444 70.6983 37.065 72.3454C37.7885 74.664 37.4797 77.636 39.6325 79.1668C39.9766 79.6502 40.8237 79.319 40.7884 80.0978C41.803 84.4216 40.6296 81.5659 38.8737 84.3052C38.1767 85.1019 38.0973 86.391 38.0708 87.3757C37.9826 87.8502 37.8767 88.2888 38.1679 88.7096C40.656 88.7901 42.9854 88.6379 45.3323 88.7633C46.744 88.5663 47.3617 89.193 47.0352 87.322C47.2911 85.9792 46.8323 85.0393 46.1705 83.9203C45.447 83.2936 44.8206 83.0251 43.9206 82.6849C43.8412 81.7181 43.1177 80.0351 43.6559 79.3637C45.5794 78.6476 45.1029 75.9352 44.9 74.1448C44.4147 71.8352 43.903 68.9884 43.1971 66.7773C43.153 66.3297 43.0736 65.8195 42.8442 65.5241C42.8442 64.9422 42.8442 64.4767 42.5354 64.1365C42.306 63.5188 42.3501 62.4446 41.9795 62.0865C42.0766 61.1734 41.3354 61.6479 40.9295 61.5136C40.6031 60.5826 40.4619 59.8306 40.1707 58.7832C38.4502 56.5542 42.3854 55.3457 41.7236 53.0361C41.556 52.132 40.4796 51.5501 39.9678 50.7086C39.112 50.4938 40.3031 49.3658 40.5766 49.0167C40.8237 48.596 40.9119 48.211 41.2825 47.8619C41.4942 47.3516 41.9089 46.6981 42.1913 46.2774C42.2089 45.7134 42.7824 45.3016 43.003 44.7735C43.55 43.6366 44.4235 42.5534 44.8647 41.3449C45.2441 40.5929 46.4176 38.5698 45.9235 37.9163C45.2617 37.048 47.0882 38.337 47.794 38.8025C49.6116 39.4113 51.2086 37.791 52.5409 36.7705C54.0144 35.7231 55.982 34.2729 56.5025 32.5899C56.7937 32.0349 56.8025 31.2292 56.5996 30.4862C56.6614 30.0565 55.7702 29.6716 56.1496 29.2508C56.2731 28.6242 56.3084 27.8991 56.5555 27.3888C56.2908 26.9144 56.8731 27.1382 56.9702 26.9233C60.27 25.5984 59.1583 19.2426 59.2024 15.9304C58.8936 15.2142 58.726 14.3101 58.1436 13.764C57.2878 13.2537 57.2525 13.2179 57.2878 12.1258C57.2613 10.604 59.0171 12.7077 60.2612 9.41335C60.57 7.98999 61.4524 6.48607 61.3112 5.0269V5.01795ZM39.5178 18.5354C39.2443 22.7607 40.0825 23.4142 35.1856 22.6264C35.3092 21.3373 35.5474 20.102 36.6944 19.8065C38.7679 19.8065 39.9413 16.736 39.5178 18.5354ZM30.6505 14.3996C31.0211 7.48868 40.409 8.55396 39.7825 15.6797C39.1473 16.8703 38.9796 18.3742 37.4444 19.0904C36.3415 19.1083 35.2297 19.5738 35.0268 20.5854C34.6827 20.6749 34.8768 21.7402 34.5239 21.3552C34.568 20.4242 33.9857 19.905 33.6769 19.0814C33.0945 18.5891 32.3093 18.3295 31.8063 17.7924C31.0475 17.3448 30.1035 15.2769 30.6505 14.4085V14.3996ZM30.2535 22.1609C30.2799 21.3821 29.8564 16.933 30.5093 17.6133C31.3475 18.6965 32.4328 18.8487 33.1828 19.7707C35.2739 23.1546 33.2004 22.6801 30.2623 22.1699L30.2535 22.1609ZM32.671 25.2762C32.2563 25.0345 30.2358 23.8618 30.6946 23.1098C31.4093 23.3873 32.4945 23.0292 33.1651 23.3426C34.7798 23.6022 36.8532 23.638 38.6179 23.6022C39.7119 23.8081 37.2856 25.491 36.712 25.5805C35.4239 25.8222 33.7474 25.7238 32.671 25.2851V25.2762ZM35.2386 28.2393C34.7709 28.5973 33.5533 28.3825 33.571 27.6753C34.4004 27.541 35.2915 27.4336 36.0944 27.165C36.3503 27.8543 35.8827 28.1766 35.2474 28.2393H35.2386ZM24.5536 42.4012C25.4448 43.8425 26.5653 45.3464 27.483 46.9398C27.7212 47.4143 28.1359 47.8529 28.2594 48.3722C28.78 48.7302 28.3388 49.0435 27.8977 49.2047C26.7947 50.6191 25.286 51.3711 25.9124 53.1973C26.1771 53.7165 26.3977 54.4774 26.9183 55.0413C27.2447 55.8202 27.5712 56.4378 28.0741 57.0824C27.0506 57.333 27.5183 57.7627 26.9447 58.5236C26.7506 59.4009 26.4859 59.9649 26.1595 60.8332C25.7536 60.8332 25.3919 60.5468 25.0036 60.8332C24.8536 61.3345 24.4301 60.9317 24.139 61.4599C23.989 61.9075 24.0154 62.4177 23.6978 62.749C23.5655 63.7158 22.9566 64.5572 22.7361 65.4703C22.5508 65.4077 22.6125 65.0675 22.4714 65.0138C22.4361 64.7542 22.092 64.6647 22.1096 64.3961C21.6949 64.0112 21.1302 63.9933 20.9979 63.3666C21.0332 63.0086 21.6155 62.9907 21.8537 62.8474C22.2067 62.5789 22.4978 62.1492 22.6214 61.818C23.2125 60.0723 22.9566 57.8612 23.089 56.0261C23.0802 53.5643 23.3713 51.2636 21.9596 49.6254C21.1479 48.3274 18.5627 48.596 21.1479 47.0562C21.9067 46.9846 21.8979 45.982 22.3126 45.5165C22.7272 42.4639 22.9566 39.465 22.6743 36.484C22.489 36.0364 22.5243 35.4545 22.2155 34.989C21.6067 34.4788 21.8361 34.4071 22.2155 33.8521C23.8831 32.8764 24.2448 32.572 23.9448 34.7831C24.2095 37.227 23.2655 40.3333 24.5536 42.4102V42.4012ZM19.9215 32.9927C20.7597 31.8648 23.089 30.6205 24.4654 31.1128C24.1213 32.2229 24.236 32.2318 23.0537 32.751C22.5596 32.9659 21.2449 34.3624 20.7597 33.5209C20.5391 33.3777 19.7715 33.4582 19.9215 33.0017V32.9927ZM17.5039 46.6444C16.1539 45.6955 16.2863 44.0663 16.3481 42.446C16.2069 40.1274 16.251 37.6925 16.7627 35.9111C17.3098 33.8611 20.945 33.2165 21.589 35.4903C22.4714 37.3881 21.9861 39.8589 21.792 42.2938C22.189 45.6776 20.4861 47.7008 17.5039 46.6444ZM18.6597 47.7724C18.9509 47.6739 19.9568 47.5844 19.5685 48.2379C19.4627 48.2647 18.4215 48.1573 18.5097 48.3363C17.8304 48.4527 18.1921 47.4053 18.6597 47.7634V47.7724ZM18.448 62.3998C15.2804 61.0928 16.5775 56.9123 16.1363 53.6538C16.1363 52.2662 16.1363 50.6639 16.701 49.6612C17.6627 48.6765 19.5244 48.775 20.6361 49.527C23.1596 50.7623 22.2684 54.7996 22.3037 57.4584C22.3478 61.1734 22.5155 63.3219 18.448 62.3998ZM19.0038 63.5278C19.0038 63.2145 20.6979 63.1428 20.4685 63.6173C20.2744 63.8411 19.7626 63.5994 19.6126 63.7158C19.2156 63.7158 19.0038 64.0201 19.0038 63.5188V63.5278ZM21.1744 68.335C20.9891 68.8273 20.645 67.95 20.3097 68.0664C20.0538 68.7378 19.4627 68.0664 19.145 68.0127C18.4127 67.5651 18.298 69.0959 17.6274 68.3797C16.7716 67.395 17.2216 65.0586 18.6333 64.8527C19.0215 64.6557 19.7803 64.1723 20.3891 64.4856C21.1391 64.4498 21.6332 64.9511 21.9596 65.5241C22.242 66.2402 22.1979 68.5319 21.1744 68.326V68.335ZM20.2126 73.3928C20.6626 72.9989 20.5656 72.0679 21.0949 71.6561C21.3244 71.0295 21.5361 70.2059 21.9861 69.6509C22.1714 68.7736 22.4273 68.2544 22.8331 67.5472C23.0272 66.8042 23.2831 65.9627 23.689 65.4256C23.9096 64.5751 24.1919 63.7874 24.5536 63.0533C24.6948 62.5699 24.8095 61.3883 25.5066 61.5225C25.7889 61.8359 27.7124 61.9343 27.1741 62.6505C26.6624 63.8232 26.2124 65.0586 25.7624 66.3029C25.1977 67.2786 24.836 68.3708 24.3507 69.4092C24.0243 70.8863 23.1508 71.8083 22.789 73.178C22.3214 73.7419 21.5538 74.2074 20.8214 73.9568C20.6185 73.7867 20.0273 73.8941 20.2126 73.3928ZM20.0626 81.8792C20.5567 81.557 20.1244 79.9546 21.1391 80.4827C22.3126 80.4469 21.6773 81.0378 21.589 81.8703C21.3861 82.112 19.8862 82.3179 20.0626 81.8703V81.8792ZM22.2331 83.2578C23.3449 83.598 23.7949 84.0366 24.3595 85.1556C24.7654 86.6954 25.1007 88.1366 22.8419 87.7159C21.9155 87.9128 20.2479 87.6622 19.3656 87.6174C16.4804 88.4589 16.5686 86.4358 17.5039 84.4842C18.7656 82.9803 20.3714 82.5954 22.242 83.2578H22.2331ZM29.8388 63.0623C28.9829 66.3655 27.8182 69.624 26.7153 72.5424C26.1683 73.5092 26.036 74.9236 25.3566 75.8009C25.1448 76.5707 24.8183 77.5555 24.2095 78.191C23.4684 79.2563 22.189 79.3727 21.1391 79.0057C20.3803 78.764 19.895 78.021 19.2685 77.3764C18.9068 76.2932 19.5068 75.1921 19.9391 74.4223C21.3949 74.9236 22.9214 74.7803 23.3625 73.3391C23.9713 72.5961 24.1301 71.5129 24.6154 70.7251C25.2683 69.3197 25.8418 67.9948 26.3183 66.6251C26.3801 66.1954 26.8124 65.721 26.9271 65.2824C27.1389 64.7721 27.2006 64.0291 27.5359 63.5815C27.5977 61.9343 28.7976 62.7221 29.8564 63.0712L29.8388 63.0623ZM29.9358 59.6337C29.477 60.3856 29.5211 61.2271 28.877 61.809C28.0476 61.4867 26.4859 61.433 26.9712 60.3051C27.3683 59.7322 27.43 58.6937 27.88 58.1566C28.1712 56.9571 27.9065 58.2461 28.7447 58.4073C29.1682 58.4878 29.1417 58.9533 29.3535 58.9712C29.4417 59.3293 30.3417 59.1861 29.9358 59.6426V59.6337ZM43.5412 83.3115C44.3794 83.607 45.1559 83.7502 45.8176 84.5917C46.1617 85.46 46.7264 86.5969 46.3647 87.5727C45.1294 88.2351 42.5265 87.6174 41.0707 87.7786C39.7561 87.7786 38.3355 88.1814 38.9002 86.5074C38.9443 86.0419 38.9179 85.5227 39.209 85.2452C39.8002 83.6517 41.8383 82.9714 43.5324 83.3115H43.5412ZM41.9883 80.6528C43.453 80.0351 42.9324 80.8319 43.2677 81.9777C43.4265 82.7207 41.3178 82.7028 41.706 82.0225C41.6178 81.4764 41.2295 80.4022 41.9883 80.6618V80.6528ZM44.053 74.109C44.3883 75.3801 45.0147 77.9672 43.3118 78.7819C41.9001 79.319 39.5884 78.8803 39.0061 77.1974C38.6796 76.0873 38.3002 74.7625 38.212 73.5271C38.0091 72.5245 37.6032 71.4055 37.515 70.4566C37.4003 68.7915 36.8003 67.762 36.765 66.2313C36.5179 65.4972 36.1385 64.4051 36.6503 63.5815C36.9591 63.1697 38.7943 62.0507 38.7326 63.3219C39.3325 65.354 39.5884 67.762 40.3472 69.9374C40.5766 72.2111 41.3089 75.1384 44.0618 74.109H44.053ZM40.3296 62.3014C41.0354 62.1581 41.3531 62.3193 41.4413 63.0175C41.7501 63.4651 41.9089 64.3782 41.953 65.1033C42.4118 65.8911 42.606 67.0906 42.7912 68.1291C43.1089 69.3465 43.5059 70.5103 43.6118 71.7635C43.8677 72.8288 44.5118 73.8941 42.6413 73.4913C42.1383 73.3212 41.6707 72.7572 41.6266 72.1664C41.4413 71.7009 41.2207 71.2533 41.2207 70.6804C40.8413 69.5256 40.5854 68.1559 40.4354 66.8042C40.109 66.0612 39.9943 65.1749 39.8178 64.3334C39.6767 63.3845 38.6708 62.2924 40.3296 62.2924V62.3014ZM39.7208 59.7411C39.9855 60.0902 39.959 60.7974 40.1619 61.1287C40.4002 61.8896 39.2796 61.5225 39.0061 61.8448C37.8855 62.0686 37.3473 62.0597 37.3914 60.7706C36.7915 60.0186 37.7179 59.6158 38.1502 59.0876C39.5708 57.2077 39.1914 58.0402 39.7208 59.7411ZM40.2237 52.123C41.5383 53.4837 41.1854 54.2625 39.9325 55.6053C39.0855 56.8496 38.1414 57.9865 37.1003 59.0697C35.5562 59.2935 33.7298 58.9533 32.2563 58.9175C31.2946 58.649 29.8741 59.0429 29.327 57.8164C28.8947 57.1182 28.5594 56.3125 28.0653 55.6053C27.2712 54.6833 26.9006 53.5374 26.5301 52.4005C26.5918 51.7291 27.2359 50.9861 27.8359 50.6549C29.3623 47.8798 29.7152 51.3352 30.8975 52.2036C31.8063 52.8481 33.0857 52.7228 34.2327 52.7317C35.4592 52.678 37.2856 53.4658 38.1591 52.2662C39.6325 51.1473 38.6002 50.4848 40.2237 52.1141V52.123ZM44.8559 39.7962C44.4677 40.5303 43.9118 41.5239 43.4442 42.3207C42.9765 43.1174 42.756 43.8962 42.0589 44.6213C42.0148 45.4717 41.1854 45.9193 41.0972 46.5997C40.6913 46.904 40.5501 47.4322 40.3737 47.8261C40.0119 48.0946 40.0296 48.5243 39.7649 48.7481C38.9973 50.1446 38.0444 52.4274 36.0591 52.0872C34.7974 51.7739 33.0681 52.1141 31.824 51.7828C30.774 51.1741 30.2535 49.9029 29.6711 48.7481C28.7888 47.5396 28.0829 46.2058 27.2536 45.0778C23.6007 39.4292 24.7919 41.3986 24.8801 34.9353C24.8625 32.5093 24.5272 30.5489 27.1741 29.8685C28.2241 29.5641 29.0182 28.9912 30.2711 29.0181C33.4739 27.6395 32.6534 30.898 35.5297 30.1908C36.7562 29.9133 36.2091 28.651 37.3914 29.1703C39.209 29.6089 41.0795 29.8954 42.7118 31.0144C44.5824 31.4709 44.1236 32.8316 44.353 34.2371C44.5912 35.8663 45.0765 37.8626 44.8471 39.8141L44.8559 39.7962ZM55.9643 32.0528C55.5232 33.5119 53.785 34.8547 52.4527 35.8036C51.5527 36.6004 50.7233 37.3165 49.7439 37.8447C47.6087 39.3038 44.8735 36.0901 46.8058 34.3087C47.1852 33.7268 49.7351 31.7395 50.4586 31.0681C52.4968 28.9375 55.8937 27.8454 55.9643 32.0438V32.0528ZM54.5526 27.4515C54.7467 26.8338 55.3202 27.3709 55.6202 27.0934C56.1584 27.3172 55.5761 28.4541 55.4173 28.8928C54.0144 28.2751 54.4908 28.9107 54.5526 27.4515ZM57.279 13.952C59.0701 15.4738 58.3289 18.1504 58.4878 20.4153C58.2495 22.4116 58.7348 25.0076 57.0143 25.9655C53.0615 27.6574 53.2732 23.1009 53.5467 20.2362C53.7232 17.5059 53.0438 12.1168 57.279 13.952ZM56.6172 11.714C56.7496 12.3138 56.7849 13.6655 56.0614 12.7882C54.4555 12.7882 55.3555 11.0605 56.6172 11.714ZM60.6053 6.13694C60.2083 6.78148 60.3583 7.87362 59.7407 8.55396C59.573 9.35964 59.3789 10.5502 58.4789 10.8278C56.6702 11.2306 53.9438 11.0068 52.3203 10.5234C51.7645 9.57448 52.0997 8.41073 51.8792 7.29174C51.8086 6.63825 51.438 3.28128 52.7791 4.65092C53.1321 5.17908 52.8674 5.9221 53.185 6.37864C52.8938 7.58715 54.0497 8.2675 53.8909 6.79043C54.4026 5.51031 53.2821 2.16228 55.3026 2.13543C55.9114 2.70835 54.9585 8.64348 56.4231 6.07428C56.6966 4.95529 56.8643 3.84525 57.1819 2.78892C57.7378 1.38347 58.8407 1.84001 58.5495 3.41555C58.1878 3.68411 58.5495 4.52559 58.2407 4.8031C58.2054 5.40288 57.5966 8.42864 58.7877 6.83519C58.973 6.05637 59.2201 5.40288 59.5465 4.65092C60.8524 3.8542 60.7377 5.09852 60.623 6.12799L60.6053 6.13694ZM56.5731 15.6439C56.4672 17.6402 56.5466 19.0904 56.4761 20.8718C56.8378 21.6238 55.532 24.3362 56.8643 24.2825C57.3584 24.1393 57.6672 13.9341 56.5731 15.6528V15.6439ZM32.8563 14.328C33.2181 14.9546 33.5886 14.7039 34.0827 14.4801C34.8327 12.833 32.071 13.012 32.8563 14.328ZM36.9856 14.5876C37.2062 15.1426 37.5061 15.3485 38.0002 14.9456C39.5619 13.8714 36.4121 12.8956 36.9856 14.5876ZM34.2239 17.2463C32.7592 15.3306 33.2975 19.529 35.9885 17.9266C36.2797 17.7476 37.0297 16.7897 36.2444 16.7808C35.8033 17.4343 34.7886 17.864 34.2327 17.2373L34.2239 17.2463ZM31.1975 21.1314C32.071 21.2747 32.5298 20.1109 31.7446 19.9587C31.1446 19.8871 30.8799 20.6301 31.1975 21.1314ZM38.2914 20.5675C37.4091 20.2094 36.915 20.9524 37.4267 21.6417C38.1061 21.8565 38.5649 21.2209 38.2914 20.5675ZM40.206 35.9111C38.8649 34.4519 31.7975 34.6578 29.5211 34.6847C28.6035 35.1233 28.6741 36.3229 28.7094 37.039C28.5329 38.7936 28.2065 41.694 29.2741 42.9831C29.7858 43.4665 31.0299 43.4128 31.7005 43.4307C33.4827 43.9589 36.0415 43.6187 37.7532 43.6903C39.8531 43.8783 40.0913 41.9268 40.1972 40.4139C40.2502 39.089 40.6119 37.4239 40.1972 35.9111H40.206ZM39.7031 37.4418C39.412 38.6056 39.8443 42.5534 38.5032 42.8399C36.8267 43.1532 30.7652 43.189 29.6711 42.2759C28.7976 40.4407 29.5123 37.5761 29.5741 35.7499C30.6152 34.8726 32.424 35.5619 33.5092 35.4456C35.115 35.5709 36.7826 35.6694 38.2561 35.8574C39.4384 35.9469 40.0031 35.7947 39.7031 37.4508V37.4418ZM38.2914 37.0301C36.9767 36.9763 37.2856 38.4803 38.2914 38.3639C38.9355 38.4534 38.8649 37.2001 38.2914 37.0301ZM37.8855 39.6351C37.0914 39.8052 36.9944 40.6287 37.5238 41.2822C38.6002 41.4165 39.3767 39.8231 37.8855 39.6351ZM18.5803 59.2219C18.4921 56.7243 18.7303 53.5464 18.3774 51.1831C17.3451 49.4374 17.8127 54.2983 17.8304 54.8981C17.848 55.5695 17.3274 61.6658 18.5803 59.2219Z" clip-rule="evenodd" fill-rule="evenodd"></path>
<path stroke-miterlimit="10" stroke-width="0.5" stroke="#222222" d="M45.9676 34.2997C47.4058 32.2766 49.2234 31.0412 51.2174 29.4388C52.2321 28.1139 54.1467 29.1703 54.0056 26.986C53.8644 26.6011 53.4232 26.1803 53.1321 25.858C52.7085 24.8465 52.5321 23.6022 52.6291 22.4653C52.7703 20.1467 52.6291 17.4611 52.9291 15.2321C53.2115 14.6055 53.2909 13.8714 53.8909 13.388C54.1291 13.2985 54.6232 13.0389 54.7467 12.7703C54.8261 12.0989 55.0732 11.6692 54.332 11.5976C52.5144 11.3917 51.4468 11.5171 51.288 9.37754C51.5262 7.64087 50.4057 4.5435 52.1086 3.74678C52.6115 3.68411 53.2732 3.80049 53.4232 4.36446C53.6085 4.17647 53.4585 3.83629 53.5203 3.54983C53.4144 1.0791 56.4408 0.380849 56.229 3.44241C56.7055 3.00377 56.4849 1.75945 57.3319 1.5267C57.4025 1.3029 57.6584 1.49984 57.6848 1.22233C57.879 1.20443 57.8966 1.29395 58.0466 1.3208C57.9848 1.16862 58.3201 1.16862 58.2584 1.3208C58.5407 1.44613 58.673 1.55355 58.9289 1.73259C59.0348 2.04591 59.123 2.35027 59.2289 2.56512C59.3171 2.63674 58.7172 4.77625 59.2818 4.20332C60.173 3.42451 61.3553 3.78258 61.3112 5.01795V5.0269C61.4524 6.48607 60.57 7.98999 60.2612 9.41335C59.0171 12.7077 57.2613 10.604 57.2878 12.1258C57.2525 13.2179 57.2878 13.2537 58.1436 13.764C58.726 14.3101 58.8936 15.2142 59.2024 15.9304C59.1583 19.2426 60.27 25.5984 56.9702 26.9233C56.8731 27.1382 56.2908 26.9144 56.5555 27.3888C56.3084 27.8991 56.2731 28.6242 56.1496 29.2508C55.7702 29.6716 56.6613 30.0565 56.5996 30.4862C56.8025 31.2292 56.7937 32.0349 56.5025 32.5899C55.982 34.2729 54.0144 35.7231 52.5409 36.7705C51.2086 37.791 49.6116 39.4113 47.794 38.8025C47.0882 38.337 45.2617 37.048 45.9235 37.9163C46.4176 38.5698 45.2441 40.5929 44.8647 41.3449C44.4235 42.5534 43.55 43.6366 43.003 44.7735C42.7824 45.3016 42.2089 45.7134 42.1913 46.2774C41.9089 46.6981 41.4942 47.3516 41.2825 47.8619C40.9119 48.211 40.8237 48.596 40.5766 49.0167C40.3031 49.3658 39.112 50.4938 39.9678 50.7086C40.4796 51.5501 41.556 52.132 41.7236 53.0361C42.3854 55.3457 38.4502 56.5542 40.1707 58.7832C40.4619 59.8306 40.6031 60.5826 40.9295 61.5136C41.3354 61.6479 42.0766 61.1734 41.9795 62.0865C42.3501 62.4446 42.306 63.5188 42.5354 64.1365C42.8442 64.4767 42.8442 64.9422 42.8442 65.5241C43.0736 65.8195 43.153 66.3297 43.1971 66.7773C43.903 68.9885 44.4147 71.8352 44.9 74.1448C45.1029 75.9352 45.5794 78.6476 43.6559 79.3637C43.1177 80.0351 43.8412 81.7181 43.9206 82.6849C44.8206 83.0251 45.447 83.2936 46.1705 83.9203C46.8323 85.0393 47.2911 85.9792 47.0352 87.322C47.3617 89.193 46.744 88.5663 45.3323 88.7633C42.9854 88.6379 40.656 88.7901 38.1679 88.7096C37.8767 88.2888 37.9826 87.8502 38.0708 87.3757C38.0973 86.391 38.1767 85.1019 38.8737 84.3052C40.6296 81.5659 41.803 84.4216 40.7884 80.0978C40.8237 79.319 39.9766 79.6502 39.6325 79.1668C37.4797 77.636 37.7885 74.664 37.065 72.3454C36.8444 70.6983 36.3944 69.1227 36.1562 67.4935C35.9797 66.2402 35.2297 64.79 36.0062 63.3398C36.9944 62.3372 37.515 62.2655 36.765 60.9765C36.8356 59.0608 34.4004 60.1708 33.0681 59.6963C30.3329 59.6516 30.6152 59.0697 29.7593 61.7374C29.3094 62.2208 30.9152 62.6505 30.3593 63.2324C30.0505 66.0075 28.9917 68.0127 28.2418 70.6535C27.6771 71.6919 27.1741 73.6166 26.4771 75.0489C26.1418 75.7382 26.0271 76.7319 25.5154 77.4391C25.0566 78.8803 24.0596 79.4891 22.7449 79.9098C22.8772 80.3664 21.5096 82.5148 22.5949 82.3358C23.3978 82.8908 24.6242 83.222 24.8536 84.4932C25.6389 85.5227 25.2154 86.946 25.2154 88.2888C24.0684 89.3004 22.242 88.3783 20.892 88.7006C20.1862 88.4768 19.4097 88.9244 18.6068 88.6469C17.3627 88.5753 15.8981 89.0855 16.1892 87.5189C15.7128 86.3731 16.3039 85.093 16.7804 84.0814C17.9892 81.8792 19.445 83.3742 19.7185 81.0467C19.895 80.626 19.8156 80.053 20.142 79.7129C20.2214 79.0415 19.2156 78.7192 18.8627 78.2268C18.6421 77.7166 18.3333 77.0541 18.5097 76.5707C18.6509 75.3622 19.0656 74.6998 19.3215 73.5718C19.5862 73.5181 19.7538 73.0258 19.7273 72.7035C19.9215 72.5245 20.0715 71.9963 20.1773 71.7815C20.4244 70.9937 20.9538 70.1164 21.2008 69.2033C21.3596 68.9526 20.6361 69.1585 20.2391 68.8989C20.292 69.3018 19.2597 69.0332 19.2244 68.8542C18.6774 68.693 18.1303 69.5882 17.5127 69.3376C16.6216 68.8721 16.6745 67.6188 16.4539 66.7684C16.4363 65.9179 16.8069 65.4435 17.3451 64.8168C17.7598 64.7363 17.8039 64.2529 18.245 64.3066C18.7656 64.2171 18.6686 63.2771 18.395 63.0712C18.2362 63.0533 17.9715 63.0533 17.9362 62.9101C16.5598 62.2566 15.7393 60.9496 15.651 59.5979C15.3775 56.4378 15.1305 52.9555 15.6687 50.1267C15.7657 49.894 15.9951 49.5986 16.0216 49.2226C16.2951 48.775 18.298 48.1752 17.4245 47.6291C15.854 46.7787 15.4128 45.4538 15.3687 43.6992C15.7393 40.0469 14.1246 34.4071 18.5539 33.3508C18.8627 33.2792 19.2509 33.2613 19.1627 32.7421C19.4538 32.4467 19.7891 32.1423 20.0803 31.82C21.1126 31.1218 21.889 30.6921 22.9478 30.5399C23.786 30.4146 25.0036 30.5131 25.5507 29.6089C26.733 29.0539 31.1446 28.0871 31.9828 27.738C32.6357 27.8275 32.9092 27.6574 32.7857 26.8696C33.1298 25.8312 31.7269 26.0192 31.1799 25.3478C30.6858 24.8554 30.2005 24.1751 29.7064 23.6022C29.6358 22.8502 29.4152 22.2683 29.2564 21.6417C29.4241 20.1199 29.1329 18.4279 29.4064 17.291C29.4505 15.3753 29.7152 13.7908 30.1652 12.0989C31.0034 10.2906 32.8828 8.53606 35.0092 8.84042C35.1592 9.06422 36.3768 9.00156 36.5973 9.27012C37.3914 9.44916 38.1326 9.81619 38.7767 10.5234C40.7443 12.3943 40.6384 14.8919 40.4002 17.4432C40.206 19.8692 40.1708 21.9729 39.6149 23.9871C39.3061 25.2135 38.0444 26.0997 36.8885 26.3504C36.8444 27.3441 36.1297 28.4362 37.7532 28.293C38.459 28.481 39.5443 28.7495 40.2413 28.9375C41.4236 29.4209 42.7118 29.6716 43.7883 30.5757C44.8471 31.5246 44.6441 31.1665 45.5264 32.0617C45.9323 32.4735 46.1 34.7473 45.9676 34.2997ZM45.9676 34.2997C45.9411 34.613 46.1 34.0938 45.9676 34.2997ZM39.5178 18.5354C39.2443 22.7607 40.0825 23.4142 35.1856 22.6264C35.3092 21.3373 35.5474 20.102 36.6944 19.8065C38.7679 19.8065 39.9413 16.736 39.5178 18.5354ZM30.6505 14.3996C31.0211 7.48868 40.409 8.55396 39.7825 15.6797C39.1473 16.8703 38.9796 18.3742 37.4444 19.0904C36.3415 19.1083 35.2297 19.5738 35.0268 20.5854C34.6827 20.6749 34.8768 21.7402 34.5239 21.3552C34.568 20.4242 33.9857 19.905 33.6769 19.0814C33.0945 18.5891 32.3093 18.3295 31.8063 17.7924C31.0475 17.3448 30.1035 15.2769 30.6505 14.4085V14.3996ZM30.2535 22.1609C30.2799 21.3821 29.8564 16.933 30.5093 17.6133C31.3475 18.6965 32.4328 18.8487 33.1828 19.7707C35.2739 23.1546 33.2004 22.6801 30.2623 22.1699L30.2535 22.1609ZM32.671 25.2762C32.2563 25.0345 30.2358 23.8618 30.6946 23.1098C31.4093 23.3873 32.4945 23.0292 33.1651 23.3426C34.7798 23.6022 36.8532 23.638 38.6179 23.6022C39.7119 23.8081 37.2856 25.491 36.712 25.5805C35.4239 25.8222 33.7474 25.7238 32.671 25.2851V25.2762ZM35.2386 28.2393C34.7709 28.5973 33.5533 28.3825 33.571 27.6753C34.4004 27.541 35.2915 27.4336 36.0944 27.165C36.3503 27.8543 35.8827 28.1766 35.2474 28.2393H35.2386ZM24.5537 42.4012C25.4448 43.8425 26.5653 45.3464 27.483 46.9398C27.7212 47.4143 28.1359 47.8529 28.2594 48.3722C28.78 48.7302 28.3388 49.0435 27.8977 49.2047C26.7947 50.6191 25.286 51.3711 25.9124 53.1972C26.1771 53.7165 26.3977 54.4774 26.9183 55.0413C27.2447 55.8202 27.5712 56.4378 28.0741 57.0824C27.0506 57.333 27.5183 57.7627 26.9447 58.5236C26.7506 59.4009 26.4859 59.9649 26.1595 60.8332C25.7536 60.8332 25.3919 60.5468 25.0036 60.8332C24.8536 61.3345 24.4301 60.9317 24.139 61.4599C23.989 61.9075 24.0154 62.4177 23.6978 62.749C23.5655 63.7158 22.9566 64.5572 22.7361 65.4703C22.5508 65.4077 22.6125 65.0675 22.4714 65.0138C22.4361 64.7542 22.092 64.6647 22.1096 64.3961C21.6949 64.0112 21.1302 63.9933 20.9979 63.3666C21.0332 63.0086 21.6155 62.9907 21.8537 62.8474C22.2067 62.5789 22.4978 62.1492 22.6214 61.818C23.2125 60.0723 22.9566 57.8612 23.089 56.0261C23.0802 53.5643 23.3713 51.2636 21.9596 49.6254C21.1479 48.3274 18.5627 48.596 21.1479 47.0562C21.9067 46.9846 21.8979 45.982 22.3126 45.5165C22.7272 42.4639 22.9566 39.465 22.6743 36.484C22.489 36.0364 22.5243 35.4545 22.2155 34.989C21.6067 34.4788 21.8361 34.4071 22.2155 33.8521C23.8831 32.8764 24.2448 32.572 23.9448 34.7831C24.2095 37.227 23.2655 40.3333 24.5537 42.4102V42.4012ZM19.9215 32.9927C20.7597 31.8648 23.089 30.6205 24.4654 31.1128C24.1213 32.2229 24.236 32.2318 23.0537 32.751C22.5596 32.9659 21.2449 34.3624 20.7597 33.5209C20.5391 33.3777 19.7715 33.4582 19.9215 33.0017V32.9927ZM17.5039 46.6444C16.1539 45.6955 16.2863 44.0663 16.3481 42.446C16.2069 40.1274 16.251 37.6925 16.7627 35.9111C17.3098 33.8611 20.945 33.2165 21.589 35.4903C22.4714 37.3881 21.9861 39.8589 21.792 42.2938C22.189 45.6776 20.4861 47.7008 17.5039 46.6444ZM18.6597 47.7724C18.9509 47.6739 19.9568 47.5844 19.5685 48.2379C19.4627 48.2647 18.4215 48.1573 18.5097 48.3363C17.8304 48.4527 18.1921 47.4053 18.6597 47.7634V47.7724ZM18.448 62.3998C15.2804 61.0928 16.5775 56.9123 16.1363 53.6538C16.1363 52.2662 16.1363 50.6639 16.701 49.6612C17.6627 48.6765 19.5244 48.775 20.6361 49.527C23.1596 50.7623 22.2684 54.7996 22.3037 57.4584C22.3478 61.1734 22.5155 63.3219 18.448 62.3998ZM19.0038 63.5278C19.0038 63.2145 20.6979 63.1428 20.4685 63.6173C20.2744 63.8411 19.7626 63.5994 19.6126 63.7158C19.2156 63.7158 19.0038 64.0201 19.0038 63.5188V63.5278ZM21.1744 68.335C20.9891 68.8273 20.645 67.95 20.3097 68.0664C20.0538 68.7378 19.4627 68.0664 19.145 68.0127C18.4127 67.5651 18.298 69.0959 17.6274 68.3797C16.7716 67.395 17.2216 65.0586 18.6333 64.8527C19.0215 64.6557 19.7803 64.1723 20.3891 64.4856C21.1391 64.4498 21.6332 64.9511 21.9596 65.5241C22.242 66.2402 22.1979 68.5319 21.1744 68.326V68.335ZM20.2126 73.3928C20.6626 72.9989 20.5656 72.0679 21.0949 71.6561C21.3244 71.0295 21.5361 70.2059 21.9861 69.6509C22.1714 68.7736 22.4273 68.2544 22.8331 67.5472C23.0272 66.8042 23.2831 65.9627 23.689 65.4256C23.9096 64.5751 24.1919 63.7874 24.5537 63.0533C24.6948 62.5699 24.8095 61.3883 25.5066 61.5225C25.7889 61.8359 27.7124 61.9343 27.1741 62.6505C26.6624 63.8232 26.2124 65.0586 25.7624 66.3029C25.1977 67.2786 24.836 68.3708 24.3507 69.4092C24.0243 70.8863 23.1508 71.8083 22.789 73.178C22.3214 73.7419 21.5538 74.2074 20.8214 73.9568C20.6185 73.7867 20.0273 73.8941 20.2126 73.3928ZM20.0626 81.8792C20.5567 81.557 20.1244 79.9546 21.1391 80.4827C22.3126 80.4469 21.6773 81.0378 21.589 81.8703C21.3861 82.112 19.8862 82.3179 20.0626 81.8703V81.8792ZM22.2331 83.2578C23.3449 83.598 23.7949 84.0366 24.3595 85.1556C24.7654 86.6954 25.1007 88.1366 22.8419 87.7159C21.9155 87.9128 20.2479 87.6622 19.3656 87.6174C16.4804 88.4589 16.5686 86.4358 17.5039 84.4842C18.7656 82.9803 20.3714 82.5954 22.242 83.2578H22.2331ZM29.8388 63.0623C28.9829 66.3655 27.8182 69.624 26.7153 72.5424C26.1683 73.5092 26.036 74.9236 25.3566 75.8009C25.1448 76.5707 24.8183 77.5554 24.2095 78.191C23.4684 79.2563 22.189 79.3727 21.1391 79.0057C20.3803 78.764 19.895 78.0209 19.2685 77.3764C18.9068 76.2932 19.5068 75.1921 19.9391 74.4223C21.3949 74.9236 22.9214 74.7804 23.3625 73.3391C23.9713 72.5961 24.1301 71.5129 24.6154 70.7251C25.2683 69.3197 25.8418 67.9948 26.3183 66.6251C26.3801 66.1954 26.8124 65.721 26.9271 65.2824C27.1389 64.7721 27.2006 64.0291 27.5359 63.5815C27.5977 61.9343 28.7976 62.7221 29.8564 63.0712L29.8388 63.0623ZM29.9358 59.6337C29.477 60.3856 29.5211 61.2271 28.877 61.809C28.0476 61.4867 26.4859 61.433 26.9712 60.3051C27.3683 59.7322 27.43 58.6937 27.88 58.1566C28.1712 56.9571 27.9065 58.2461 28.7447 58.4073C29.1682 58.4878 29.1417 58.9533 29.3535 58.9712C29.4417 59.3293 30.3417 59.1861 29.9358 59.6426V59.6337ZM43.5412 83.3115C44.3794 83.607 45.1559 83.7502 45.8176 84.5917C46.1617 85.46 46.7264 86.5969 46.3646 87.5727C45.1294 88.2351 42.5265 87.6174 41.0707 87.7786C39.7561 87.7786 38.3355 88.1814 38.9002 86.5074C38.9443 86.0419 38.9179 85.5227 39.209 85.2452C39.8002 83.6517 41.8383 82.9714 43.5324 83.3115H43.5412ZM41.9883 80.6528C43.453 80.0351 42.9324 80.8319 43.2677 81.9777C43.4265 82.7207 41.3178 82.7028 41.706 82.0225C41.6178 81.4764 41.2295 80.4022 41.9883 80.6618V80.6528ZM44.053 74.109C44.3882 75.3801 45.0147 77.9672 43.3118 78.7819C41.9001 79.319 39.5884 78.8803 39.0061 77.1974C38.6796 76.0873 38.3002 74.7624 38.212 73.5271C38.0091 72.5245 37.6032 71.4055 37.515 70.4566C37.4003 68.7915 36.8003 67.762 36.765 66.2313C36.5179 65.4972 36.1385 64.4051 36.6503 63.5815C36.9591 63.1697 38.7943 62.0507 38.7326 63.3219C39.3325 65.354 39.5884 67.762 40.3472 69.9374C40.5766 72.2111 41.3089 75.1384 44.0618 74.109H44.053ZM40.3296 62.3014C41.0354 62.1581 41.3531 62.3193 41.4413 63.0175C41.7501 63.4651 41.9089 64.3782 41.953 65.1033C42.4118 65.8911 42.606 67.0906 42.7912 68.1291C43.1089 69.3465 43.5059 70.5103 43.6118 71.7635C43.8677 72.8288 44.5118 73.8941 42.6413 73.4913C42.1383 73.3212 41.6707 72.7572 41.6266 72.1664C41.4413 71.7009 41.2207 71.2533 41.2207 70.6804C40.8413 69.5256 40.5854 68.1559 40.4354 66.8042C40.109 66.0612 39.9943 65.1749 39.8178 64.3334C39.6767 63.3845 38.6708 62.2924 40.3296 62.2924V62.3014ZM39.7208 59.7411C39.9855 60.0902 39.959 60.7974 40.1619 61.1287C40.4002 61.8896 39.2796 61.5225 39.0061 61.8448C37.8855 62.0686 37.3473 62.0597 37.3914 60.7706C36.7915 60.0186 37.7179 59.6158 38.1502 59.0876C39.5708 57.2077 39.1914 58.0402 39.7208 59.7411ZM40.2237 52.123C41.5383 53.4837 41.1854 54.2625 39.9325 55.6053C39.0855 56.8496 38.1414 57.9865 37.1003 59.0697C35.5562 59.2935 33.7298 58.9533 32.2563 58.9175C31.2946 58.649 29.8741 59.0429 29.327 57.8164C28.8947 57.1182 28.5594 56.3125 28.0653 55.6053C27.2712 54.6833 26.9006 53.5374 26.5301 52.4005C26.5918 51.7291 27.2359 50.9861 27.8359 50.6549C29.3623 47.8798 29.7152 51.3352 30.8975 52.2036C31.8063 52.8481 33.0857 52.7228 34.2327 52.7317C35.4591 52.678 37.2856 53.4658 38.1591 52.2662C39.6325 51.1473 38.6002 50.4848 40.2237 52.1141V52.123ZM44.8559 39.7962C44.4677 40.5303 43.9118 41.5239 43.4442 42.3207C42.9765 43.1174 42.756 43.8962 42.0589 44.6213C42.0148 45.4717 41.1854 45.9193 41.0972 46.5997C40.6913 46.904 40.5501 47.4322 40.3737 47.8261C40.0119 48.0946 40.0296 48.5243 39.7649 48.7481C38.9973 50.1446 38.0444 52.4274 36.0591 52.0872C34.7974 51.7739 33.0681 52.1141 31.824 51.7828C30.774 51.1741 30.2535 49.9029 29.6711 48.7481C28.7888 47.5396 28.0829 46.2058 27.2536 45.0778C23.6007 39.4292 24.7919 41.3986 24.8801 34.9353C24.8625 32.5093 24.5272 30.5489 27.1741 29.8685C28.2241 29.5641 29.0182 28.9912 30.2711 29.0181C33.4739 27.6395 32.6534 30.898 35.5297 30.1908C36.7562 29.9133 36.2091 28.651 37.3914 29.1703C39.209 29.6089 41.0795 29.8954 42.7118 31.0144C44.5824 31.4709 44.1236 32.8316 44.353 34.2371C44.5912 35.8663 45.0765 37.8626 44.8471 39.8141L44.8559 39.7962ZM55.9643 32.0528C55.5232 33.5119 53.785 34.8547 52.4527 35.8036C51.5527 36.6004 50.7233 37.3165 49.7439 37.8447C47.6087 39.3038 44.8735 36.0901 46.8058 34.3087C47.1852 33.7268 49.7351 31.7395 50.4586 31.0681C52.4968 28.9375 55.8937 27.8454 55.9643 32.0438V32.0528ZM54.5526 27.4515C54.7467 26.8338 55.3202 27.3709 55.6202 27.0934C56.1584 27.3172 55.5761 28.4541 55.4173 28.8928C54.0144 28.2751 54.4908 28.9107 54.5526 27.4515ZM57.279 13.952C59.0701 15.4738 58.3289 18.1504 58.4878 20.4153C58.2495 22.4116 58.7348 25.0076 57.0143 25.9655C53.0615 27.6574 53.2732 23.1009 53.5468 20.2362C53.7232 17.5059 53.0438 12.1168 57.279 13.952ZM56.6172 11.714C56.7496 12.3138 56.7849 13.6655 56.0614 12.7882C54.4555 12.7882 55.3555 11.0605 56.6172 11.714ZM60.6053 6.13694C60.2083 6.78148 60.3583 7.87362 59.7407 8.55396C59.573 9.35964 59.3789 10.5502 58.4789 10.8278C56.6702 11.2306 53.9438 11.0068 52.3203 10.5234C51.7645 9.57448 52.0997 8.41073 51.8792 7.29174C51.8086 6.63825 51.438 3.28128 52.7791 4.65092C53.1321 5.17908 52.8674 5.9221 53.185 6.37864C52.8938 7.58715 54.0497 8.2675 53.8909 6.79043C54.4026 5.51031 53.2821 2.16228 55.3026 2.13543C55.9114 2.70835 54.9585 8.64348 56.4231 6.07428C56.6966 4.95529 56.8643 3.84525 57.1819 2.78892C57.7378 1.38347 58.8407 1.84001 58.5495 3.41555C58.1878 3.68411 58.5495 4.52559 58.2407 4.8031C58.2054 5.40288 57.5966 8.42864 58.7877 6.83519C58.973 6.05637 59.2201 5.40288 59.5465 4.65092C60.8524 3.8542 60.7377 5.09852 60.623 6.12799L60.6053 6.13694ZM56.5731 15.6439C56.4672 17.6402 56.5466 19.0904 56.4761 20.8718C56.8378 21.6238 55.532 24.3362 56.8643 24.2825C57.3584 24.1393 57.6672 13.9341 56.5731 15.6528V15.6439ZM32.8563 14.328C33.2181 14.9546 33.5886 14.7039 34.0827 14.4801C34.8327 12.833 32.071 13.012 32.8563 14.328ZM36.9856 14.5876C37.2061 15.1426 37.5061 15.3485 38.0002 14.9456C39.5619 13.8714 36.4121 12.8956 36.9856 14.5876ZM34.2239 17.2463C32.7592 15.3306 33.2975 19.529 35.9885 17.9266C36.2797 17.7476 37.0297 16.7897 36.2444 16.7808C35.8033 17.4343 34.7886 17.864 34.2327 17.2373L34.2239 17.2463ZM31.1975 21.1314C32.071 21.2747 32.5298 20.1109 31.7446 19.9587C31.1446 19.8871 30.8799 20.6301 31.1975 21.1314ZM38.2914 20.5675C37.4091 20.2094 36.915 20.9524 37.4267 21.6417C38.1061 21.8565 38.5649 21.2209 38.2914 20.5675ZM40.206 35.9111C38.8649 34.4519 31.7975 34.6578 29.5211 34.6847C28.6035 35.1233 28.6741 36.3229 28.7094 37.039C28.5329 38.7936 28.2065 41.694 29.2741 42.9831C29.7858 43.4665 31.0299 43.4128 31.7005 43.4307C33.4827 43.9589 36.0415 43.6187 37.7532 43.6903C39.8531 43.8783 40.0913 41.9268 40.1972 40.4139C40.2502 39.089 40.6119 37.4239 40.1972 35.9111H40.206ZM39.7031 37.4418C39.412 38.6056 39.8443 42.5534 38.5032 42.8399C36.8267 43.1532 30.7652 43.189 29.6711 42.2759C28.7976 40.4407 29.5123 37.5761 29.5741 35.7499C30.6152 34.8726 32.424 35.5619 33.5092 35.4456C35.115 35.5709 36.7826 35.6694 38.2561 35.8574C39.4384 35.9469 40.0031 35.7947 39.7031 37.4508V37.4418ZM38.2914 37.0301C36.9767 36.9763 37.2856 38.4803 38.2914 38.3639C38.9355 38.4534 38.8649 37.2001 38.2914 37.0301ZM37.8855 39.6351C37.0914 39.8052 36.9944 40.6287 37.5238 41.2822C38.6002 41.4165 39.3767 39.8231 37.8855 39.6351ZM18.5803 59.2219C18.4921 56.7243 18.7303 53.5464 18.3774 51.1831C17.3451 49.4374 17.8127 54.2983 17.8304 54.8981C17.848 55.5695 17.3274 61.6658 18.5803 59.2219Z"></path>
</g>
</g>
</svg>
