<?xml version="1.0" encoding="UTF-8"?><svg id="Layer_1" xmlns="http://www.w3.org/2000/svg" viewBox="0 0 100 100"><defs><style>.cls-1{fill:#222;}</style></defs><path class="cls-1" d="m73.572,48.888c-.074-.169-.155-.324-.196-.539.294-.548.943-.474,1.319-.688,1.153-.244,1.954,1.139.488.931-.591.014-.977.268-1.611.295Zm-4.006,1.371c1.071.882.347-.743.097-1.227-.688.198-.121.768-.097,1.227Zm6.936,1.667c-.835.429.745,1.047,1.224,1.078.529.209,1.314-.054,1.908-.295,1.559-1.636-2.203.736-3.132-.783Zm4.937-4.461c-.649-.021-1.24.071-1.321.543-.427.778,3.127.662,1.321-.543Zm.969,16.5c.016.18.033.359.049.539-2.516.878-2.234-2.168-3.369-.291.537-.149,1.497,3.639,2.345.88.94-1.065.533,1.41-.293,1.322-.792.596-2.055-.611-2.001-1.763-.049.016-.097.033-.146.05-.561-.123-.624-.413-.245-.783-.098-.401.55-.572.729-.783.675-.129.053-.966.734-.929.087,1.188,1.864.316,2.147,1.759l.006.002s.044,0,.043-.002Zm-.48.101c-.37-.489-.746-.837-1.416-.735.1.625.961,1.027,1.416.735Zm-5.327-13.609c.455.24,1.187.847,1.708.44.097.016.196.033.293.05.305-.282,1.358-.397,1.073-1.175-.512-.129-.63.803-1.222.586-.542.346-1.13-.131-1.71-.295-.012.166-.185.226-.142.394Zm12.335,17.976c-.003.112-.007.286.049.392-.112,0-.028.204,0,.293-.281.585-.112,1.545-.488,2.055.016.031.033.064.049.097-.098-.012-.014.171-.099.196.093-.034-.023.209-.049.246-.155,1.071-.977,2.438-1.611,3.577-.45-.015-.478.73-.975.636-.088,1.199-1.045,1.326-.637,2.594.172,1.331-2.886,2.449-1.76,1.125.117.021.259-.087.293-.146.113-.032.296-.053.34-.149.514-.057.381-.913.589-1.078.23-1.368-.892-.848-1.807-1.224-.007.043.006.057.049.049-.016.097-.033.196-.049.293.06.035.063.277,0,.44.105.208-.065.857.148,1.078-.016.031-.033.064-.049.097h.049c-.016.26-.033.523-.049.783-.006.848.099,2.174-.049,2.939.098.414.023.954,0,1.324.087,1.535-.103,3.569.002,5.386-.123,1.124-.159,2.347-.346,3.575-.27.245.2,1.566-.589,1.274.635,1.89,1.547,1.679,3.029,2.352.031-.017.064-.033.097-.049.716.299,1.424,2.064.196,1.908.012.168-.372-.081-.295.049-.267-.086-.594.041-.781-.099-.24.067-.674.089-.781,0-.194.017-.39.033-.585.05v-.05c-.194.031-.39.064-.585.097v-.049c-.451.071-1.011-.038-1.368-.049-.813.13-1.27-.032-2.005.099.072-.144-.609.045-.538-.099-1.885.366-.564-2.177-1.172-3.23-.013-4.391-1.117-8.32-1.482-12.485.017-.049.033-.097.049-.147-.091-.154-.149-.635-.049-.735-.185-.667-.095-1.203-.245-2.055-.546,1.263-.443,3.225-.839,4.454.017.132.033.262.049.392-.293,1.806-.426,3.717-.69,5.433-.086.084-.09.503-.049.539-.237,1.316-.333,2.842-.542,3.967-.019.025.048.351-.049.293.016.066.033.13.049.196-.639.976.651,4.399-1.372,3.67-.699.13-1.755.02-2.345-.05-.146.016-.293.033-.439.05-.43-.114-.877-.029-1.416.05-.876-.52-5.066.848-3.957-1.175.376-.973,1.835-1.418,2.883-1.371,1.196.059,1.813-.948,1.949-1.865.445-1.646.083-4.406.245-6.315.131-.015-.07-.142.049-.196-.144-.013.024-.212-.099-.244.017-.031.033-.064.049-.097-.005-1.886.054-3.752.043-5.241-.017-.147-.033-.293-.049-.44.241-1.541-.147-3.574.148-5.09-.496.05-.989.106-1.663.097-.483,1.34,2.071,2.514,1.123,2.941-.69-.266-1.142-1.164-1.613-1.71-.168-.361.127-1.178-.295-1.274.031-.194.064-.39.097-.586-.278-.265.012-.999-.245-1.175-.59-.598-1.039-1.295-1.269-1.956-.186-.562-.297-1.331-.443-1.859.017-.05.033-.097.049-.147-.136.06.037-.403-.099-.343.017-.031.033-.064.049-.097-.158-.203-.108-.747-.198-.929-.236-5.619,2.33-12.064,8.166-13.363.088-.526.636-.53.488-1.078-.627-.451-1.251-.881-1.85-1.419-.201-.643-.67-1.259-.785-1.761.288-1.247.764.595.979.927.361.681,1.026,1.342,1.758,1.611,4.802,2.733,10.107-.47,9.965-5.875-.107-.106.024-.522-.099-.539.086-.884-.193-1.668-.394-2.247-.233-.606-.335-1.304-.983-1.762-.625,1.015-1.748,1.899-2.883,2.4-.782-.021-.239-.716-.15-1.225-1.016.291-4.003,2.558-2.631.099-.478.199-.868.462-1.317.636-.568.331-1.581,1.267-1.857.39.047-.194.184-.281.196-.489-.637.271-1.362.817-1.712,1.322-.201.447-.376,1.189-1.073,1.074-.195-.397-.749-.441-1.17-.492-.563.289-.9.712-.929,1.318-.289,1.03.635,1.595,1.22,2.201.504-.07.883.195.439.491-1.332.107-1.69-1.128-2.246-1.906-.239-1.008.286-1.595.781-2.449-.656-.94-.612-2.218-.441-3.232.214-1.834,1.905-3.438,3.616-3.721.005-.112.286.06.291-.099,1.937.134-1.161-1.141-.196-1.567,1.288.132,2.258.401,3.466,1.035-.992-2.125.174-2.013,1.317-.446.259.319.622-.122.781-.196.555-.241.892-.419,1.416-.541.881.369-.153,1.006-.05,1.322.589.195,1.295.345,1.706.685,1.101.122,1.059,1.853,2.097,2.057,1.768.722,1.857,2.643,1.171,4.305.234.598.087,1.36.198,2.154-.242,2.157-1.352,4.882-3.516,5.97-.131,1.248,1.152,1.313,1.908,1.716.848.466,1.771,1.294,2.638,1.863,2.194,2.223,3.767,4.921,3.907,7.771.108.407-.007.947.221,1.241-.158-.021.157.494-.049.539Zm-16.241-27.529h-.097c.004.041.106.107.097,0Zm.196-1.272h-.146c.009.032.16.122.146,0Zm6.843,18.552c-.466.563-1.169,1.023-1.956,1.22.328.395.613.931.975,1.369.293-.399.903-.64,1.121-1.022.213.016.209-.228.243-.341.197-.051.252-.264.439-.341.418-.619.543-1.603-.146-2.205.024.408-.222.954-.481,1.126,0-.001,0-.001,0-.002l-.006.002h.005c-.033.142-.056.159-.195.194Zm-5.232-.977c-.246,1.152,1.335,1.589,2.252,1.766.049-.017.097-.033.146-.049.631.206,1.394-.204,1.853-.539.909-.457.953-1.231.975-2.154-.164-.132.044-.471.049-.686-.636.337-1.332.367-1.908.541-.146-.017-.293-.033-.439-.05-.155.186-.607.095-.878.05-1.077.038-2.29-.926-2.1,1.121h.049Zm-1.754,1.028c-.088,1.401,1.186,3.022,1.956,1.218.76-.35-.065-.758-.587-1.074-.588-.568-.467-1.249-.884-1.955-.341.562-.279,1.258-.485,1.811,0-.002,0-.004,0-.006l-.006.006h.005Zm-3.622,17.867c-.081-.519-.088-.722-.635-.785-.049.016-.097.033-.146.05v-.05c-.308.059-.711-.048-.927.099-.132-.017-.262-.033-.391-.049.125,1.39.494.729,1.466.832,0,0,0,0,0,0l.002.002s0-.002-.001-.002c.255.06.496-.035.634-.097Zm-4.055,21.095c.594-.099,1.534.024,1.956-.149.343-.07,1.397-.015,1.857-.198.146.016.293.033.439.049.049-.043.313-.037.488-.099.659.161,1.986-.193,2.736-.049.202-.886-1.057-1.029-1.712-1.568-.437-.005-1.529-1.478-1.657-.539.876-.02,1.457,1.332.198.589.06.136-.402-.037-.342.099-.085.083-.114.245-.198.39,1.465.114,1.51,1.208.144.64-1.483.176-2.503.404-3.909.785v.05Zm7.435.489c.017-.147.033-.293.049-.44-.985.148-1.937.044-2.736.295-1.383-.003-2.473.101-3.614.196-.066-.016-.13-.033-.196-.049-.293.165-.967.07-1.418.196.039-.163-.181-.079-.245-.147-.014.121-.109.068-.097.246.407.062.955-.053,1.269.099.309-.054.618-.046.927,0,.28-.097.783-.029,1.123.05-.03-.103.127.004.097-.099.26.031.521.064.781.097.912-.476,4.254.671,4.059-.444Zm2.535-20.26c-.068-.161-.17-.229-.017-.392-1.181-.122-2.572-.065-3.812-.248-.031.016-.064.033-.097.049-.298-.123-.974-.121-1.513-.149.176,1.464-.154,3.699,0,5.093-.053.206.037.525-.099.636.016.132.033.262.049.392-.031-.05-.045.557,0,.489-.096.569.068,1.444-.049,1.764.078.768-.084,2.154,0,2.645-.152.744.088,1.375-.052,2.35.071,4.248-.835,3.175,3.171,5.437.063-.51.1-1.042.148-1.468-.016-.031-.033-.064-.049-.097.265-.677.172-1.786.443-2.449-.016-.213-.033-.423-.049-.636.41-1.24.415-3.074.594-4.454.23-2.55.622-4.882,1.133-7.347-.016-.05-.033-.097-.049-.147.194-.412.012-1.146.247-1.468Zm.872-1.024c.179-.035.398-.056.538.05.39-.071.78-.029,1.172,0-.054-.076.299-.076.245,0,.292.013.609-.111.878,0,.056-.134.725.017.734-.149.834.186,1.446-.011,2.347-.05.122-.703-.145-.593-.684-.737-.146.031-.293.064-.439.097-.052-.056-.722.05-.83-.099-1.217.099-2.314.067-3.565-.099.019.154-.936-.144-.977.05-.229-.016-.455-.033-.684-.05-.236.153-.642-.15-.977.002-.047-.12-.967-.029-.977-.049-.569-.074-1.134-.054-1.613-.05v-.05c-.049.017-.097.033-.146.05-.219-.156-1.016.055-1.269-.147-.707,1.604,2.45.662,3.225,1.13.245-.016.488-.033.734-.05.344.191.785.069,1.271.05v.049c.049-.016.097-.033.146-.049-.003.005.007.058-.008.052.295.016.587.033.88.049Zm7.771,21.394c-.398-.001-.689-.119-.977-.05-.74-.109-1.723-.275-2.541-.248-.185-.16-.752-.119-1.074-.149-.001-.081-.192-.032-.293,0-.399-.116-1.193-.211-.977.539.591.094,1.337-.123,1.758.05.089-.039.288.008.293-.099.273.058.651-.045.83.099.756-.094,1.382-.05,1.908-.05v.05c.113-.017.229-.033.342-.05-.025.142.298-.123.293.05.048.019.109-.133.095.004.082.019.303-.103.342-.147Zm.639.043h-.146c.009.032.16.122.146,0Zm-2.454-1.768c-2.075.353-2.042-.919-.049-.49-.222-.598-.675-.289-1.22-.242-.077-.114-.079-.323-.099-.489.268-.043.728-.22.979-.147.002-.163.027-.221.049-.343-1.227.301-2.093.577-3.076.884-.742.041-.426.476-.684.931-.144.624.656.545.88.539.179.017.359.033.538.05v-.05c1.949.204,3.675.471,5.376.591.095-.133.337,0,.441.047-.408-.521-1.24-.321-1.659-.688-.464-.175-.925-.681-1.476-.594Zm.352-13.361c.016-.031.033-.064.049-.097-.187-.096.072-.654-.099-.783.162-.68-.056-1.335.082-1.908l-.049-.097h.049c-.037-.485-.094-.974,0-1.274-.135-.587-.096-1.133-.148-1.764-.633.252-1.473.098-2.052.295-.976-.128-2.025-.005-3.175.047-.331-.182-.828-.159-1.22-.147.257,1.409.135,2.86.492,4.112-.016.114-.033.229-.049.343h.049c-.016.031-.033.064-.049.097.188.128.018.517.148.638-.003,1.496.424,3.405.591,4.944-.017.083-.033.163-.049.246.261.377.133,1.278.346,1.567.037.385-.053.964.196,1.371-.016.083-.033.163-.049.246.252.619.325,1.674.344,2.253.15.46.08,1.215.148,1.811-.084-.037-.038.112-.049.147.288-.02.549-.166.83-.147.814-.18,1.887-.722,3.025-.884.47.11.267-1.294.344-1.761.067-.547.245-1.772.148-2.546.05-.175-.033-.498.099-.586-.016-.26-.033-.523-.049-.783.033-.617.072-1.892.146-2.548-.075-.366-.046-.855,0-1.272-.134-.097-.009-.478,0-.686-.168-.053.033-.765-.049-.834Zm3.025-6.8c-.137-.04-.355.029-.389-.05-.627-.025-1.857-.118-2.295-.149-.031-.016-.064-.033-.097-.05-.363.794.841.766,1.172.981.423-.081.845-.018,1.268,0,0,0,0,.002-.001.002l.004-.002s-.002,0-.003,0c.113-.245.228-.488.341-.733Zm3.081-7.296h-.021c-.132-.368.047-.985-.146-1.272.016-.097.033-.196.049-.293-.193-.713-.139-1.542-.495-2.106.017-.049.033-.097.049-.147-.145-.152-.099-.439-.148-.588-.147-.272-.363-.65-.441-.927-.637-.892-.747-1.823-1.661-2.637-.966-1.261-2.707-2.641-4.15-3.273.118.172.02.445.099.586.011.036-.139.243,0,.246-.016.031-.033.064-.049.097.068.603-2.457,4.075-3.272,2.643-.239-1.291-2.518-2.113-3.468-.735-.538,2.211-2.083-.263-2.444-1.171.017-.066.033-.13.049-.196-.144-.181-.041-.558-.099-.832.024-.183.051-.626.196-.979-.238-.064-.211.2-.441.196v-.05c-4.405,1.202-6.343,6.469-6.891,10.375.016.132.033.262.049.392h-.049c.156.454-.178,1.072.049,1.468.023,1.848.471,4.984,2.246,5.435-.054-.076.299-.076.245,0,.464-.202,1.318.354,1.514-.196-1.308-1.376-1.361-3.462-1.517-5.241-.035-.084-.064-.167,0-.244-.106.076-.025-.525-.049-.539-.085-.525-.058-1.531-.049-2.053-.016-.031-.033-.064-.049-.097h.049c-.137-.224.174-.466-.002-.589.088-.115.011-.26,0-.39.265-1.161.56-2.318.936-3.482.265-.226,1.046-2.497,1.613-1.272-2.112,2.459-1.954,6-1.91,9.144.435,1.567.438,3.975,1.818,4.75.031-.017.064-.033.097-.05v.05c.132-.017.262-.033.391-.05.106.067.979.135,1.026.05.845.053,1.942.168,2.687.147.1.032.286.079.293,0,.752.098,1.455.002,2.149.149.659-.14,2.047.038,2.64.047.146-.016.293-.033.439-.05v.05c.57-.183,1.051.12,1.613,0,1.854.104,3.127-5.58,3.033-7.054.016-.229.033-.456.049-.685h-.049c.016-.31.033-.62.049-.929h-.049c.118-.408-.064-.898.002-1.223.1-1.642-.987-3.551-1.418-5.043-.016-.031-.033-.064-.049-.097,1.207-.331,1.83,3.353,2.009,4.207-.002.189.078.848.148,1.078-.016.163-.033.326-.049.489.108.53-.045,1.193.049,1.906-.16,2.592-.592,5.302-2.543,7.542.254.058.693-.02.88.049.229-.016.455-.033.684-.049.059.137.83-.024.83.149.212-.017.422-.033.635-.05.666.141,1.052-1.272,1.465-1.662.37-.69.511-1.314.783-1.91.322-.973.281-2.05.573-3.083,0,0,0,.001,0,.002l.021-.002Zm-63.876,10.259h0c.065-.397-.021-.736-.084-.993.151-1.343-.354-3.038-.295-4.214-.055-.165.021-.46-.084-.543.074-.218-.131-.436-.126-.712-.3-.232-.826.25-.338.449-.003,1.386.243,2.696.337,4.046-.13.535.285,3.856.718,1.948-.084.019-.106.019-.127.019Zm-2.808-22.911c.29.291-.041.747-.042.993-.848.442-1.727-.09-2.11-.749-.258.154-.367.364-.612.655.272-.046.423.29.401.524.992,2.297,1.888-1.058,2.195.374-.045.287-.227.537-.549.637-.3.55-.943.236-1.393.113-.643-.339-.722-1.091-1.435-1.348.296-1.151,1.517-1.228,1.498-2.229.375-.215.471.189.507.543.514-.054,1.151-.134,1.372.374h0c.127.037.106.018.169.112Zm-.486.225c-.268-.256-.718-.277-1.077-.206-.042.474,1.309,1.065,1.077.206Zm-3.588-15.436c.257.549,1.693,1.034,1.794.15-.277-.37-.957.26-1.14-.225-.463-.628.715-1.254.443-2.135-.688-.516-.517.489-.675.731-.04.318-.345.681-.443.955.046.194.039.319.021.524Zm14.138,17.535c-.587,3.306-.356,8.363-3.686,10.333-.206.505-.889.832-.848,1.467.36,1.521.541,3.288.717,4.982.207.847.308,1.987.422,2.772.044,1.369,1.059,2.57-1.267,2.584-.766.054-1.652.094-2.288.247-.048.142-.014.522-.088.69-.047.082.069.277-.029.318-.003.793-.185,1.602-.259,2.416-.138,1.957-.479,3.978-.541,6.088-.135.308-.054.956-.169,1.217-.006.609-.098,1.719-.295,2.398-.072.461-.042.806.359.993.193.789-.124,1.449-.148,2.248,1.31,2.236-2.076,1.826-3.441,1.816-1.503.119-3.206.156-4.707-.075-.187.28-.78.229-1.034.15-1.006.155-2.155-.503-2.173-1.573.068-.777.993-.956,1.71-1.142.626-.177,1.211-.464,1.815-.543.943-.515,3.858-.71,3.504-2.078.059-.247-.08-.387-.084-.675-.084.023.037-.598-.084-.712-.155-2.3-.67-4.66-.78-7.005-.174-.958-.364-1.896-.358-2.978-.138-.068-.039-.483-.042-.543-.127,0-.464-.037-.464-.037-.194.143-.571.106-.908.075-1.516.674-1.277-.856-1.224-1.854.215-1.297.233-3.036.337-4.365.089-.19.064-.897.042-1.124.067-.301.13-.783.084-1.124.159-.775.263-2.039.232-2.941.171-.221.025-.585.147-.749-.029-.204.201-.484-.105-.356-.285-.377-.241-.928-.359-1.386.082.006.04-.157.084-.225-.405-1.19-.923-2.437-1.011-3.69-.061-.129-.112-.487-.084-.618-.168-1.085-.273-2.24-.274-3.352-.051-1.974.17-4.207,1.012-5.713-.066-.712-.269-1.48-.252-2.247-.128-.82.358-1.887.105-2.585-.338-.913-.06-2.118-.168-3.165-2.155-2.069-3.145-4.855-3.101-8.204.429-3.325,3.382-5.842,6.985-5.787,3.237-.011,7.094,1.997,7.091,5.655.31.395.063,1.069.19,1.611h-.042c.042.187.063.356.106.543-.111.259-.136.683-.084,1.03-.119.464-.23.941-.316,1.536.156.072.388.369.317.562.121.966.056,2.398-.443,3.297,2.46,1.08,3.867,3.762,4.621,5.9.976,1.675.932,3.834,1.282,5.919Zm-16.222-12.395c.034.043.07.087.098.124l.042-.037c-1.176-.973-1.543-2.305-1.835-3.671-.695-1.151-.455-2.563-.611-3.821.208-2.936,2.954-5.054,5.782-4.794.147-.094.754.015.992,0,1.262.291,3.11.702,3.736,2.04,1.051,1.608,1.258,2.939,1.202,4.907-.085.138-.087.343-.042.524-.241.685-.084,1.628-.443,2.322,1.155-.389.851-2.161,1.139-3.296-.116-.291.01-.741,0-1.086-.293-1.376-.124-2.844-1.011-3.896-.845-1.373-2.627-2.158-4.074-2.415-.279-.118-.802-.093-1.077-.187-.252.006-.601.11-.865.037-3.635.122-6.265,2.826-5.929,6.423.075,2.591,1.085,4.658,2.699,6.725.106.05.118.032.197.1Zm4.302,4.003c2.631-.715,4.412-2.69,5.318-5.15-1.245,1.587-2.889,3.079-4.917,3.764-.362.053-2.249.986-2.089-.094,2.444-.502,4.71-1.828,6.184-3.764-2.24,1.741-4.452,2.14-7.366,2.302-.126-.339-.419.122-.506.019-.265.046-.372-.116-.591-.168,0,.225-.021.468-.042.712.158,1.553.347,3.491,1.772,4.383,3.329-.397,6.013-2.226,7.112-5.225-.81,1.114-1.851,2.19-2.976,2.716-.257.079-1.952,1.072-1.898.507Zm-3.569,4.606c-.006.725.653.145,1.119.075.46-.247,1.127-.35,1.456-.767,1.53-.546,2.712-1.762,3.757-3.184-1.575.999-2.901,1.652-4.791,1.816-.996-.198-1.378-.789-1.899-1.686-.274,1.246.131,2.79.295,3.84.015-.002.036-.031.064-.095Zm-.505-9.647c.585,1.306,2.126,1.901,3.504,1.368,1.379-.121,2.456-.671,3.651-1.16,1.662-.894,1.784-6.508.886-8.017-1.641-2.521-10.597-.866-9.877,2.509-.13.141.059.473.042.712-.081-.007.083.332,0,.393.363,1.31.726,2.9,1.476,4.177.026.017.062.039.319.018Zm3.755-10.904c-2.428-.272-4.883.938-5.55,3.221,2.493-1.794,6.055-2.477,9.012-1.535-.854-1.107-2.132-1.34-3.292-1.63-.042.018-.085.037-.169-.056Zm-.084,54.685c-.021.841.381,1.675.296,2.454.122.322.171.919.169,1.218.107.221.139.544.084.936.398,2.674.708.901.506-.655-.109-.048.007-.338,0-.487-.088-.288-.142-.697-.084-1.067-.256-1.304-.105-2.896-.337-4.252.049-1.06-.186-2.251-.169-3.203.05-.197-.109-.598,0-.862-.066-.015-.078-.238-.042-.281-.116-.293-.088-.634-.042-.993-.524-.018-.846.174-1.372.075.045.342.099.599.169.936.063.497.112,1.245.211,1.966-.092-.008.061.111-.042.206.224.971.481,2.321.464,3.297.168.095.022.6.19.712Zm2.365,7.362c-.642.344-1.205-1.459-1.773-.637.49.32.71.659.739,1.124-.915.447-.942-1.34-1.836-.599.724.181.783,1.814.042.899-.274-.042-.392-.817-.759-.581-.497.09-1.007.462-1.477.599-.26.049-1.354.341-.886.412.35-.116.829.102,1.139.037,1.028-.155,4.376.729,4.75-.431.144-.366.352-.672.443-1.03.165-.122.49-.617,0-.431-.015-.097-.645.007-.718-.075.064.243.19.375.338.712Zm-7.009,2.435c-.608-.256-.362-1.024-1.245-.73-.037-.07-.2-.049-.295-.112-.151.741,1.019,1.148,1.54.843Zm.423-1.535c.919-.596,2.109-.523,2.933-1.273.44-.182,1.223-.367,1.477-.711-1.172.528-2.153,1.074-3.377,1.291-1.003.308-1.91.629-3.039.842.491.701,1.255-.126,2.006-.149Zm7.937.711c-.661.219-1.343.188-2.026.206-.733.056-1.855.13-2.596-.037-.211.037-.401.056-.612.094-.112-.068-.411-.104-.549-.075-.247-.084-.745-.066-1.055-.037-1.321-.294-2.102-.005-.485.655.982.119,2.051.005,3.06.112.334-.052,1.1-.037,1.498-.037.454-.063,4.422.248,2.765-.88Zm0-1.985c-.423.379-.595,1.02-.802,1.648,1.093.112.758-.571,1.055-1.18-.15-.313.263-1.054-.253-.468Zm.235-2.195c0-.043-.014-.1-.024-.152-.073.544-.089.671-.168,1.37.139-.282.096-.889.193-1.218Zm0-.336c-.004.028-.007.049-.01.074.02.014.006-.071.01-.074Zm.042-.094c-.03-.007-.033.009-.035.037.032.007.039-.008.035-.037Zm.084-.506c.011-.05-.01-.096-.03-.149-.013.1-.018.133-.031.243.054.007-.025-.126.061-.094Zm0-.384c-.003.022-.005.042-.008.065.017.012.005-.063.008-.065Zm.042-.33c-.01.076-.021.165-.034.265.07.046.019-.251.034-.265Zm.042-.347c-.003.023-.005.046-.008.069.017.012.005-.066.008-.069Zm.042-.119c.007-.03-.008-.059-.018-.088-.003.03-.007.06-.01.088h.028Zm.042-.634c-.005.039-.008.068-.011.091.022.016.006-.087.011-.091Zm.651-9.761c-.687.094-1.468.317-2.232.243-.908.179-1.786-.091-1.372,1.199.093,2.867.474,6.102.548,9.421.282.766-.421,3.702,1.442,3.005.594-4.519,1.137-9.302,1.614-13.869Zm2.89-6.69c-.069-1.407-.477-2.803-.464-4.195-.546-.564-.55,1.123-1.161,1.086-.106.265-.408.294-.696.318-.28-.19-.549.31-.907.225-.026-.065-.164-.084-.253-.037-.214-.192-.571.04-.865.019-.469-.27-.83-.279-.97-.899-1.431-.563.65-1.614.886-2.36-2.044.34-3.957.322-6.099.561.07.699-.132,1.812-.084,2.379-.037.382-.116.928-.169,1.48.099.973-.217,2.387-.211,3.465.086.322-.16.889-.084,1.217-.096-.007-.005.176,0,.262-.085.17-.113.663-.084.862-.105.318-.074.841-.042,1.255-.135.208-.043.802-.148,1.18,2.175-.2,4.561-.478,6.711-.73.111.012.525-.071.802,0,1.446-.259,3.265-.31,4.833-.561.071-.791-.306-1.26-.232-2.004-.195-.749-.301-1.753-.358-2.641-.255-.255.17-.694-.403-.883Zm-3.797-6.948c-.375-.092-.886.156-1.288.075-.287.061-.732.11-1.055.075-.876.138-1.978.126-2.891.149-.33.097-1.234.156-1.625.075-.252.275-.038.986.359.75.503.121,1.186-.084,1.731,0,.934-.189,2.153-.134,3.124-.336.779.027,1.513-.037,1.646-.787Zm.042,2.173c-.278-.898-1.052.416-1.372.843.254,0,.528-.018.802-.037.052.105.11.172.126.318-.067.183-.715.239.063.543.41-.033.788-.541,1.055-.786.775-.125.379.553.063.805.418-.075.591-.745,1.076-.693.166.621.404.1.654-.262-.084,0-.19.018-.295.037,0-.114-.109-.099-.19-.056-.63-.077-1.546-.129-1.984-.712Zm4.096-.788c-.898.566-2.48.26-3.334-.374-.925-.964-.218,1.783.907,1.18.723.263,2.269.09,2.427-.806Zm3.484-10.188v-.002.002s0,.056,0,.056c-.337-3.052-.75-5.982-2.361-8.354-.238-.711-2.717-4.018-3.228-2.566-1.004,2.537-2.671,4.908-5.275,6.537v-.037c-1.125.693-2.289,1.208-3.503,1.517-.435-.048-.397-.426-.654-.581-.054.588-.162,1.094-.316,1.48-.021,1.033-.327,1.919-.168,3.091-.164.44.133.865,0,1.386.08.328.052.737.042,1.124.26,1.678.52,3.405,1.095,4.907.252.494,1.466.11,1.984.15,1.174-.049,2.657-.072,3.799-.281.779.04,1.108-.043.76-.881-.048-.596-.049-1.485.063-2.079.454-1.548.938-2.821.822-4.664.109-.126-.071-.293.042-.487-.217-.182-.054-.615-.168-.862-.184-.39-.293-.966-.274-1.423-.216-.56-.335-1.316-.443-1.948-.148-.436-.263-.896-.211-1.405-.242-1.439.864-2.111.654-.037.117,1.459.501,2.723.738,4.008.09.379.304,1.012.274,1.292.298.804-.033,1.738.021,2.566-.202.324-.078,1.077-.295,1.386-.421.835-.553,1.773-.612,2.866.117.1-.002.424,0,.618.112.068.003.238.084.318.064.994,1.032,2.084,2.173,2.229.167.024.668-.015.907-.019,3.601-.907,3.637-6.001,4.008-9.197.103.035.019-.718.042-.71Zm-15.199-18.754c.292,1.193,1.548-.054.76-.899-.619-.102-1.033.428-.76.899Zm10.999,38.984h0c.039-.276-.074-.485-.106-.823-.018-.915-.279-2.219-.4-3.165.047-.053.018-.21-.042-.225-.002-.842-.047-1.765-.295-2.491-.646-.111-.456.788-.253,1.067-.163.534.19,1.342.106,1.667.158,1.337.269,2.577.505,3.764-.093.364.17.897.612.581-.021-.15-.042-.299-.042-.45-.042.05-.07.075-.084.075Zm-6.397-39.04c.866-.033,1.06-.987.507-1.48-.859-.417-1.026.963-.507,1.48Zm-3.842,2.923h0s0,0,0,0Zm3.295,7.514s0-.002-.002-.001h.002Zm1.476,27.612c.064.043.065-.231,0-.187-.217-.491.46-7.94-.696-6.613.018.044.083.15,0,.131.056,1.192.127,2.597.126,3.709.056.934.019,2.559.042,3.391.045.471.008,1.028.126,1.386.043-.017.117-.074.106,0,.778-.023.215-1.259.295-1.817Zm-2.787-7.511c-.759-.325-.41.772-.548,1.216-.115.83-.088,2.007-.21,2.791-.048.986.053,2.425-.232,3.26.115.934-.355,1.901-.232,2.773.959.351.54-1.507.823-2.004-.068-.132.011-.35-.042-.356.142-1.015.273-2.233.211-3.221.01-.15.136-.536.042-.674.096-.062-.003-.058,0-.112.059.015.059-.052,0-.037-.013-1.261.355-2.452.189-3.634Zm-1.984-27.615c-.905.803,1.911,2.014,2.575,1.76,1.725.381,3.009-3.262,1.203-1.03-.336.264-.687.379-1.161.562-1.199.022-1.779-.572-2.617-1.292Zm37.681,25.979l.014.112c-.113,0-.115.821-.057.89l-.062.021c.084.451.039.811-.484.788-.244-.439-.026-1.527-.094-2.139-.022-.214-.141-.82.042-.947-.15.058-.073-.081-.095-.171-.124-.384-.049-1.022-.136-1.456-.057-.215-.122-.613-.039-.859.084.02.157.031.1.133.222-.33.611.123.569.476.089.461.167,1.018.113,1.575.085.282.1.73.071,1.084.065.104.011.335.059.494Zm-.218,1.621h0s0,0,0,0Zm.063-.45s-.001,0-.002,0c0,0,.002,0,.002,0Zm-3.885,23.828c-.019.473.131,1.627-.547.937-.081-.679-.059-1.438-.069-2.168-.041-.514-.078-1.134-.029-1.676-.063-.427.002-1.049-.064-1.521.028-.55-.074-1.128-.027-1.712.045-.451-.153-1.498-.053-1.829-.169.079-.066-.079-.066-.169-.088-.196.895-.146.507-.034.126-.084.258.356.085.322.257.624.005,2.029.163,2.83-.11.365.193,1.12-.061,1.302.159.046.01.493.113.71h-.039c-.008.291.199.771-.074.916.234-.054.156.685.109.862.116.322.028.573.086.914-.029.083.001.21-.034.316Zm-.162-3.837l.034.034s-.034-.034-.034-.034Zm.017,4.809h0s0,0,0,0Zm0-.796h0s0,0,0,0Zm.105-.493s-.037.018-.037.019l.037-.019Zm-2.353-70.742c.142-.05.287-.121.449-.15-.003.04,0,.14.02.169.106.433.577.395.935.386.397.254.733.093.981-.103.795.054.192-.506,1.029-.493.044.119.043.316.09.489-.103,0-.063.263-.224.137.216.102-.201.231-.237.359-.311-.02-.566.209-.781.207.208.164-.391.122-.507.11-.08-.002-.214.042-.303.061.03-.211-.349-.098-.424-.212-.088-.004-.297.096-.322-.032-.008,0-.145.072-.153.075.051-.209-.286-.027-.237-.229-.271-.208-.358-.37-.486-.693.104.045.152-.194.191,0l-.023-.081Zm3.163.553h0,0s0,0,0,0Zm-.915.44h0,0s0,0,0,0Zm-1.424-.491s0,0,0,0h0Zm-.797-.406h0,0s0,0,0,0Zm-1.117-2.348c-.213-1.122,1.082-1.051,1.111-.051.024,1.239-1.239,1.165-1.111.051Zm.795-.616h0s0,0,0,0Zm-4.429,75.412l.089.045c-.018-.045-.053-.142-.089-.045Zm9.864-53.39c.028-.29.175-.849.447-.855,0,0,0,0,0,0-.069-.257.359-.357.525-.339-.059-.013-.127-.041-.065-.1-.163-.385.326-.481.555-.356.069.216.026.42.39.26-.033.111.14.045.203.062-.053.193.25.098.284.205.122-.046.398.144.564.133.133.162.399.301.407.546.691.945-1.363.856-1.622.393-.034.039-.282-.05-.123-.128-.038.103-.366-.075-.237-.152-.102.21-.216-.193-.27-.292-.19.118-.278.284-.404.464.352-.117.772.394.521.589.101-.052.112.015.128.1-.051.935,1.122,1.014,1.179-.183.443-.101.68.188.539.625.012.089-.011.112-.099.101-.018.107-.029.208-.12.086.079.054.065.099-.013.132.1.399-.507.578-.8.495.241.132-.2.118-.29.04-.36.087-.847-.409-.901-.751-.129-.158.125-.66-.2-.676-.091.165-.774-.329-.507-.442,0,0-.091.042-.091.042Zm1.023.026s0,0,0,0h0Zm2.268-.472s.005,0,.006-.001c.007.012.006.005-.006.001Zm-.081.048s0,0,0,0h0s0,0,0,0Zm-.119-.203h0s0,0,0,0Zm-.763-.457s0,0,0,0h0Zm-.473.378c.265.166.563.23.848.32-.065-.075-.29-.058-.104-.156-.201.042-.446-.178-.744-.164Zm-.138.57h0s0,0,0,0Zm-.678-1.44h0s0,0,0,0Zm-.492,1.372s0,0,0,0h0Zm-.203.39s0,0,0,0h0Zm-.085-.068h0s0,0,0,0Zm-.085-.542h0s0,0,0,0Zm-10.659,51.805c.184.42-.645.384-.599-.105.18-.093.04-.724-.023-.931.298-.343-.043-1.258.202-1.778-.125-1.168.058-2.354-.005-3.456.036-.213.028-.496.085-.736.17.005.509-.111.472.128.162.476-.073.963,0,1.489-.013.058.022.273-.014.303.02.275.016.609-.046.847.129.593-.137,1.231.021,1.915-.12.505.011,1.088-.041,1.624.02.083-.019.208-.035.271.036.051-.061.055-.087.069.103-.065.114.018.139.1-.157-.03.028.182-.068.261Zm.043-2.391s0,0,0,0c0,0,.001,0,0,0Zm-.011-1.053s.003.003.004.003c-.002-.002-.004-.003-.004-.003Zm-.068,2.795h0,0s0,0,0,0Zm-.424-.203h0,0s0,0,0,0Zm.051-1.135h-.001s.002,0,.001,0Zm.085-.796l-.074-.025s.074.025.074.025Zm.255,2.659s0,0,0,0h0Zm10.977-52.236c-.113.017-.057.089.024.097l-.024-.097Zm-14.984-7.332c-.11.017-.039.078.024.097l-.024-.097Zm12.672-8.396c-.028,1.005-1.139,1.226-2.003,1.142-.357-.127-.74-.47-1.105-.665.028-.182-.457-.506-.167-.569-.29.008.231-.377.422-.312.295.523.846.818,1.39.925.202.021.414-.185.561-.122-.232-.08.218-.176.296-.281,0-.284.092-.359.418-.36l.015.099c-.036-.098.012-.112.1-.117-.022.099.034.18.072.26Zm-.494.161s0,0,0,0h0Zm10.163,26.355c-.06.838.189,2.138-.094,2.771.095-.028.112.012.11.1-.107.313-.023,1.109-.107,1.476.05-.012.044.234.007.234.004.101.057.193-.078.188.1-.043.112.013.122.1-.139-.041.005.424-.075.44.006.062.027.17.041.237-.254.317.021,1.298-.191,1.659-.104.985,0,2.19-.388,2.796.229.023-.157.207.157.371-.465.016-.04.73-.838.378.006.061.027.167.04.232-.149-.001.013.254-.027.325.064.649.009,1.346.069,2.026.031.102-.005.198-.03.258,0,.08.042.214.062.303-.238-.075-.141.992-.382.73.119.118-.252.508-.342.464.18.062-.059.155-.132.078.186.047-.034.172-.119.168-.094.005-.098.195-.203.169-.177-.007-.243.22-.454.152-.039.111-.111.103-.106-.015-.02.245-.632.102-.863.199.007-.067-.104-.071-.16-.082.07,1.046.219,1.916.309,2.914.034.145-.09.09-.187.1-.051.002-.03.437-.034.493-.849.454-1.779.816-2.609,1.099-.943,0-.284,1.853-.578,2.455-.136.71-.133,1.722-.2,2.506.043.192.04.462-.016.643.036.051-.062.055-.087.069.103-.065.114.018.139.1-.182.108-.034.703-.123.914.005.048.032.153.045.203-.177.526-.196,1.686-.215,2.323.017.077.235.005.271.068-.018.251.108.722.003.945-.007.042.106.252-.042.193.05,0,.095.028.052.074-.005.618-.076,1.313-.168,1.883-.414.354-.199,1.33-.354,1.925.006.035.056.433-.1.295.169.024.013.158.02.256.06.157-.028.337.051.522-.168.178-.197.82-.096,1.084-.233-.009-.079.31-.096.491-.082.272-.081.668-.105.999.031.623-.259,1.143-.071,1.761-.221.088-.063.664-.146.914.005.048.032.153.045.203-.138-.007-.056.275-.113.356.005.048.032.153.045.203-.224.233.037.916-.159,1.169.075.151-.038.296-.004.47.033-.003.135-.024.169-.031.031.213.585.197.714.361.175.044.275.18.49.186.078.113.256.148.324.288.156.003.464.268.441.422-.008-.155.386.112.322.203.014-.149.129-.092.1.034.246.147.388.261.54.374.169-.099.359.301.629.074.273.335,1.321-.009,1.509.417.268.088.705.5.475.886-.032.336-.156,1.017-.49,1.043.234.102-.139.096-.141.265-.237.206-.43.447-.74.362.23.217-1.049.094-1.29.107-1.009.053-2.129.029-3.17.038-.252.079-.631-.038-.865.018-.172.031-.483-.049-.641.067-.101-.204-.873.023-1.207-.073-1.158.055-1.125-.115-1.31-1.222.643-.497.513-1.702.601-2.676.149-.063-.289-.03-.322-.037-.001-.166-.025-.424.153-.391-.179-.021-.014-.086,0-.134-.059.009-.051-.277-.01-.285-.132-.548-.1-1.155-.058-1.78-.005-.135-.034-.258-.056-.388.083-.298-.068-.935-.012-1.233-.044-.108-.138-.739.032-.75-.004-.004-.114.023-.101,0,.001-.006.004-.012.006-.018.022-.349-.096-.667-.05-.999-.116-.563-.154-1.429-.159-2.061-.122-.066-.027-.334-.012-.445-.128-.656-.1-1.489-.111-2.184-.031-.185.018-.389-.271-.322-.025-.1-.022-.333-.166-.322-.005-.413-.113-.802-.112-1.219-.048-.776-.095-1.314.553-1.637-.138-.749-.139-1.433-.155-2.122-.089-.534-.128-1.213-.143-1.846-.087-1.601-.237-3.108-.344-4.766-1.208-.169-1.207.439-1.275,1.413.005.796-.169,1.475-.227,2.272-.01.392-.09.803-.153,1.165-.012.106.088.269-.076.256.097-.035.112.012.115.1-.176.326-.115.875-.243,1.304-.012.106.088.269-.076.256.097-.035.112.012.115.1-.164.344-.115.907-.204,1.372.006.062.027.17.041.237-.096.027-.132.372.047.308.587.395-.022,1.857.081,2.571.006.062.027.17.041.237-.208-.061-.04.221-.136.293-.587.04-.474.617-.496,1.115-.089.768-.207,1.532-.237,2.386-.061.49-.117.935-.165,1.321-.038.583-.068,1.43-.191,1.981.005.048.032.153.045.203-.199.423-.098,1.218-.214,1.727.032.076-.015.094-.083.103.101-.052.112.015.128.1-.181.001.047.607-.196.476.109.083-.047.567-.019.799.067-.163.134.116.077.167.174-.323.402,1.39.094,1.268.079.186-.055,1.019-.144,1.373.142.03.074.616-.069.544.169-.018-.073.279-.143.199.247.011-.279.325-.205.508-.103-.019-.218-.035-.322-.041-.289.12-.86-.129-1.119.031-1.141-.006-2.326-.111-3.381.016-1.027-.28-2.655.23-3.536-.256-.144-.202-.411-.292-.47-.496-.059-.125-.353-.231-.188-.354-.166.141-.459-.385-.454-.61-.053-.301.036-.879.302-.83-.108-.767,1.756-.762,2.493-.91.682-.072,1.256-.242,1.853-.42.206-.177.384-.367.662-.468.053-.185.176-.366.381-.267-.163-.058-.041-.121.073-.1.191-.206.385-.413.624-.423.737,0,.366-.177.407-.781.087-.6-.35-1.62-.052-1.936-.036-.478-.054-1.036-.092-1.534.13-.776-.153-1.461-.23-2.237-.022-1.768-.202-3.279-.554-4.912.026-.28-.203-.665.029-.906.079-.113.293-.213.438-.142-.198-.112.288-.103.081-.422.104.021-.026-.165.041-.274-.039-.165-.067-.382-.082-.559-.019-.122.007-.278.02-.406-.058-.13-.068-.338-.036-.525-.076-.173-.095-.615-.06-.847-.154-1.132-.086-2.543-.284-3.654.015-.383-.149-.965-.071-1.39-.126.266-.15-.306-.103-.391-.081-.357.091-.825-.523-.694-.259-.106-.626-.111-.949-.17-.747-.085-1.679-.232-2.259-.639-.33-.108-.29-.471-.396-.747.322-.096.226-.817.282-1.17.006-.246.149-.546.006-.811.329-.307.142-1.252.295-1.744-.036-.051.061-.055.087-.069-.308.062.299-.891-.271-.73-.103-.025-.392-.098-.345-.252-.02.101-.58-.236-.637-.345-.138-.028-.152-.127-.23-.242-.083-.026-.219-.107-.026-.124-.211-.095-.421-.398-.439-.628-.14-.212-.28-.602-.206-.982-.064-.176.072-.416-.076-.589.218.089.02-.578.115-.61-.006-.062-.027-.17-.041-.237.091-.06.196-.685-.114-.596-.049-.207-.061-.526-.153-.693-.03-1.576-.408-2.976-.48-4.441l-.028.014c.035-.266-.098-.531-.02-.79-.002-.315-.073-.879-.03-1.165-.008-.461-.105-1.002-.028-1.493-.07-.235.011-.575.007-.847-.006-.018-.045-.082.003-.078-.064.006-.005-.211-.095-.275.172-.296.006-1.006.062-1.422.205.079-.088-.719.168-.543-.183-.08-.074-.558-.063-.781.013-.746.06-1.602.192-2.249-.006-.13-.021-.272-.039-.406.295-.466.174-1.485.378-2.032-.006-.13-.021-.272-.039-.406.283-1.051.212-2.431.528-3.508-.015.002-.005-.112-.001-.119-.011-.257.065-.573.199-.708-.017-.32.057-1.069.268-1.221-.156.021.037-.883.157-.936-.028-.032,0-.352.131-.267-.22-.009.064-.165-.015-.337.18.041.029-.251.215-.203.128-.571.284-1.044.458-1.466.054-.081-.014-.161.107-.178.019-.098-.001-.245.137-.222.086-.201.227-.536.354-.556.068-.439.636-.996,1.102-.743.211-.027.463-.309.71-.275,0,0,0,0,0,0,.051-.187.763-.475.932-.44-.177-.144.117-.088.222-.124.116-.18.335-.235.559-.267.31-.163.847-.348,1.237-.378-.231-.087.424-.287.579-.319.373-.155.89-.417,1.284-.419-.209-.084.492-.296.563-.261-.204-.069.253-.258.336-.246.142-.105.428-.355.627-.256-.173-.048.038-.135.048-.24.334.097.108-.748.206-.962-.264.074.036-.626-.343-.51.404-.372-.098-.885.065-1.372-.043-.275-.179-.668-.163-.93-.316.19-.475-.843-.835-.814-.199.104-.578-.143-.545-.29-.073.181-.083-.067-.203-.066-.13.018-.076-.133-.246-.085.043-.145-.114-.046-.153-.1-.125.047-.187.248-.29.118.107.451-.914-.808-1.048-.94-.25.071-.341-.294-.578-.264-.124-.176-.588-.275-.664-.522-.092.018-.177-.075-.185-.172-.358.002-.569-.221-.868-.401,0,0,.07-.07.071-.071-.109.162-.173-.073-.211-.154-.118.022-.18-.059-.043-.1-.082.116-.297-.268-.322-.34-.255-.206-.316-.572-.226-.898-.444.023-.599-.009-.806-.343.044-.249-.255-.465-.205-.654-.032.172-.312-.185-.203-.237-.118.194-.077-.134-.253-.124.041-.155-.233-.196-.153-.345-.042.193-.221-.29-.203-.343-.275-.244-.048-.747-.214-1.065.113-.007.197-.101.181-.237.09-.014.197-.11.286-.052-.251-.119.199-.106.263-.134-.026-.117-.056-.243-.091-.356.23-.004.03-.49.056-.677.053-.034.136-1.082.263-.662.323-.627,1.493.414,1.341-.642.077-.006.05-.31.168-.103-.089-.263.392-.497.676-.562,0,.034-.012.084.037.078.075.019.54-.092.422.095.01-.222.207.056.321-.009.121-.047.242-.193.24-.32.267-.276.208-.956.727-.873.221-.446.911.295,1.457-.983-.003-.001.014-.016.015-.012.388-.228.953-.263,1.34-.045.001-.018.339-.003.351-.008-.008-.091-.008-.184,0-.274-1.187-.096-1.673-.994-1.813-2.283.264.055.362-.307.482-.491.229.041.233-.318.237-.474.142.005.186-.318.322-.356-.021-.283.484-.103.619-.239.142-.063.205-.278.348-.292.642-.163,1.275.121,1.863.04.13-.007.405.024.356.185.1-.274.427.513.25.769-.011.203.176.147.194.338.324.514.046,1.043-.045,1.419.295-.001.562.392.684.625.428.211.635.474.98.911.053-.096.039-.271.175-.185-.282-.051.337-.23.356-.203-.235-.091.219-.215.349-.185.123-.198.186.126.041.032,0,0,.034.034.034.034.012-.084.596.07.288.118.122-.054.171.108.223.211.08-.044.299-.101.403-.038.059-.006.172-.027.237-.041-.035.148.085.1.187.107.06.152.177.475.356.474-.023.117.031.156.119.228-.013.126,0,.259.156.234.237-.022.4-.068.558.046.107.003.233.032.288.152.155-.022.167.018.191.153.484.319.581.788.83,1.219.346.051,1.301-.085,1.267.286.734-.036.276,1.747,1.184,1.312-.023.216.309.044.255.333.186.002.128.336.184.474-.194.513.211.682.156,1.048.242-.23.053.772-.062.899.067-.006.175-.022.247-.035-.02.13.227-.034.201.132.033.1.239.723.021.494.089.124-.099.46-.237.288.203.163-.216.112-.195.273.104-.025.03.095.075.155.097.057.201.15.127.251.05-.162.157.027.121.118.005.084.104.493-.061.252.063.072-.051.276-.102.337.12.174.066.683-.136.577.193.102-.052.104-.109.145-.095.096-.175.202-.281.21-.193.153-.688-.098-.646.035.145.042.106.755-.049.559.103.038-.053.369-.119.186.094.105-.267.531-.41.413.196.042-.165.239-.251.214.019.407-.224.602-.272.912-.231.03-.361.422-.675.396-.185-.347-.504.159-.613.257-.504.192-.354.88-.644,1.195.01.146-.249.117-.305.316-.026.15-.126.42-.313.4-.108.157-.191.32-.371.343-.104.113-.216.262-.371.217-.295.246-.511.065-.42.655.01.479.07,1.038-.048,1.555.356-.043.368.278.66.309.593.082,1.048.231,1.63.408.589.267,1.254.468,1.979.716.018.137.698.383,1.051.301,0,.276.578.196.612.436.018-.24.202.084.153.152.145-.183.661.186.931.137.022-.111.492-.215.493-.036-.064-.23.185-.015.185.097.31.083.344.819.436,1.107.025.396.18.648.242.981-.03.215.094.302.068.51.169-.045.097.083.169.119.068.795.35,1.381.388,2.218.124.509.298,1.04.28,1.659.062.551.44,1.614.199,2.2.004.004.114-.024.101,0,.07.956.242,1.867.203,2.809-.021.203.222.624.002.662.006.005.115-.03.101,0-.019,2.058.295,4.28.196,6.238Zm-4.01-30.301s0,0,0,0h0Zm.119-.864h0s0,0,0,0Zm-1.002-3.34s.019.038.019.037l-.019-.037h0Zm-.727,6.811s0,0,0,0h0Zm-.186.203h0,0s0,0,0,0Zm-.119.085h0,0s0,0,0,0Zm-.417-8.685h0s0,0,0,0Zm0,0h0s0,0,0,0Zm-1.041,9.989h0s0,0,0,0Zm-.017-10.109s0,0,0,0h0Zm-.322,5.588h0,0s0,0,0,0Zm-10.374-9.822l-.062.014s.062-.014.062-.014Zm.966-1.913h0s0,0,0,0Zm.441.44h0,0s0,0,0,0Zm.171,1.808l-.002.004s.002-.004.002-.004Zm-7.894,7.832s0,0,0,0c-.001,0-.002-.001,0,0Zm.027-.581l-.037.019s.037-.019.037-.019Zm.476-.408l-.002.002s.002-.002.002-.002Zm1.761-2.2h0,0s0,0,0,0Zm.667-.772s0,.002,0,.002v-.002Zm.012.061h0s0,0,0,0Zm.797,8.416s0,0,0,0h0Zm.237-8.45h0,0s0,0,0,0Zm.271-.373s0,0,0,0h0Zm1.254,10.076s0,0,0,0c0,0,0,0,0,0Zm.187.288h0s0,0,0,0Zm1.186.356s0,0,0,0h0Zm-9.526,23.69s-.065-.019-.065-.019l.065.019Zm.441,5.215s0,0,0,0h0Zm.321,9.618h0s0,0,0,0Zm1.593,7.18h0s0,0,0,0Zm.085-.762h0,0s0,0,0,0Zm.136-1.259s-.027.009-.027.009l.027-.009Zm.034-.248l-.037.019s.037-.018.037-.019Zm4.232,16.699s0,0,0,0h0Zm0,0s0,0,0,0h0Zm-6.301,11.767h0s0,0,0,0Zm.119.237h0s0,0,0,0Zm9.713-2.404s0,0,0,0h0Zm4.39,3.065s0,0,0,0h0Zm.017,1.219s0,0,0,0h0s0,0,0,0Zm8.882-.44l.034.034s-.034-.034-.034-.034Zm-3.9-16.839s0,0,.001,0h-.001Zm6.612-41.548h0s0,0,0,0Zm-.203-1.456h0s0,0,0,0Zm-.269,4.599s0,0,0,0h0Zm-.849-7.122h0s0,0,0,0Zm-.475-3.776s0,0,0,0h0Zm-2.661-.779s0,0,0,0h0Zm-4.765,2.331c-.063.413-.029,1.045-.303,1.241.21.018.012.064.015.152-.06.085.043.445-.119.422-.003.433-.113.773-.136,1.187-.133.317-.251.67-.254,1.082-.043.177-.26.507.023.677-.353.006-.239.954-.379,1.219.033.569-.468,1.412-.146,1.947-.309-.065-.156.453-.209.66-.107.276-.074.728-.169,1.016-.096.515-.144,1.107-.271,1.627.051.356-.292.632-.125.981-.31.147-.032,1.085-.365,1.187.22.005-.018.127.002.235-.012.412-.057.853-.139,1.202.005.048.032.153.045.203-.267.374-.173,1.543-.349,1.9.147-.089.116-.559.375-.627.04-.317.324-.812.492-1.135.013-.096.07-.401.187-.269-.112-.18.259-.42.237-.611-.016-.072.17-.48.25-.422.072-.228.128-.5.258-.628.323-.538.648-1.745,1.032-1.93-.189-.033.074-.192.019-.337.134-.205.356-.462.373-.813.059-.055.087-.174.13-.288.161.039.103-.166.142-.254.045-.133.239-.31.091-.491.298-.134.231-.756.333-1.067.267-.642.322-1.62-.017-2.243-.016-.344-.367-.402-.348-.769-.18-.133-.272-.283-.331-.463-.041-.045-.195-.332-.036-.337-.359-.127-.058-.982.239-1.15-.025-.117.032-.102.085-.137-.012-.087.009-.114.098-.1.032-.122.078-.202.203-.186.121-.167.317-.822.477-.679.031-.326.442-.838.364-1.302-.04-.088-.146-.169.009-.188-.143.091-.126-.209-.168-.288-.103-.093-.143-.178-.165-.323-.113.033-.019-.147-.067-.187-.115-.008-.032-.15-.107-.152.022-.151-.182-.22-.069-.371-.078.258-.154-.203-.219-.271-.191-.315-.248-.664-.362-1.047-.166.663-.208,1.302-.279,1.875,0,.011.045.139.049.152-.088.049-.22.119-.395.098Zm1.629-.621h0s0,0,0,0h0Zm-.102,2.54h0s0,0,0,0h0Zm-.78,8.467s0,0,0,0h0Zm-1.373,3.099h0s0,0,0,0h0Zm-.594.288h0s0,0,0,0Zm-.508,1.067h0s0,0,0,0h0Zm-.085.085h0s0,0,0,0Zm-.526,1.135h0s0,0,0,0Zm-.659-4.266c.36-.037.336-.435.39-.694.163.004.071-.368.119-.491.125-.239.169-.667.174-.964-.352.274-1.105.898-1.482.95-.035.167.103.357.025.505.155.307.046.776.156,1.183.257-.138.398-.385.619-.489Zm-.036,11.666s0,0,0,0h0Zm-.123-9.346s.089-.018.089-.018l-.089.018Zm-.07.271c.21-.528-.317.014-.176.317.194-.046.118-.188.18-.32-.007.007-.008.012-.004.004Zm-.484,6.13s.001.007.002.009v-.016s-.001.005-.002.007Zm-.162-12.033c.093-.121.294-.284.433-.211-.25-.11.276-.169.294-.337.153-.026.754-.545.874-.66-.039-.079-.069-.219-.031-.322-.032-.076.015-.094.083-.103-.101.052-.112-.015-.128-.1.252-.101-.042-.772.028-.916-.083.008-.348.226-.452.321-.185-.059-.268.42-.414.222.017.027.106.071.041.1-.611.198-.9.657-.89,1.372.005.048.032.153.045.203-.133.022-.079.436-.096.59.095-.048.172-.086.213-.157Zm-.024,9.797s0,0,0,0h0Zm.086-13.124v-.078c-.004.029-.008.059-.011.088.004-.003.008-.008.011-.01Zm.315-4.612c-.816.425.464.699.753.454-.212-.073.268-.236.253-.108.231-.251-.033-.695.102-.881-.176.085-.13-.151-.2-.266-.188.208-.322.264-.542.439l-.071-.071c.163.093-.118.329-.203.237.194.082-.005.073-.053.146-.028.096-.067.007-.099-.027l.062.078Zm-.013-3.046c0,.181.265.081.322-.034-.095.284.247.109.188.309,0-.209.136.004.256-.008.427-.035,1.444-.48,1.339-1.11.29-.44.431-.916.572-1.438-.086-.346.025-.738-.022-1.108-.097.028-.189.002-.276.036l-.022-.098c-.365.522-1.438.112-1.915.083-.27.044-.475-.394-.727-.028.087-.27-.24-.176-.277-.314-.089.042-.372-.093-.401-.17-.116-.077-.483-.059-.408-.231-.015.145-.085.072-.128-.008-.097-.063-.256-.013-.279-.129-.117.103.09.581.026.799.064.475.153,1.316.16,1.776.167-.244.079.33.141.44.019.193.188.285.146.47.049-.166.288.276.45.297.298.18.478.354.855.465Zm-1.32-.724s.013-.034.014-.034l-.014.034Zm-.475-1.981h0s0,0,0,0h0Zm1.254-1.067s0,0,0,0h0Zm.375.154s-.019-.019-.019-.019l.019.019Zm1.166,4.508s0,0,0,0h0Zm0,0s0,0,0,0h0Zm-.022-.017h0s.013-.04.013-.04l-.013.04Zm-.45,1.552h0s0,0,0,0h0Zm-.341-2.254s.035.036.036.036l-.036-.036Zm.974,6.271s-.042.014-.042.014h0s.042-.014.042-.014Zm-.023,1.791s.036.036.036.036c0,0-.036-.036-.036-.036Zm-.068-4.25s0,0,0,0h0Zm-.104.027c-.024.004-.06.003-.067.031.023-.008.074.005.067-.031Zm-.511.368c.664-.44.222-.135-.256-.17h0c-.021.01-.155.077-.179.089-.003-.036.02-.134-.047-.116-.021.229-.037.454-.058.683.075-.163.295-.119.257-.338.176.046.203-.233.371-.103,0,0-.089-.045-.089-.045Zm.056,1.399s0,0,0,0h0Zm-.237.186s0,0,0,0c0,0,0,0,0,0Zm-.322-.982h0s0,0,0,0h0Zm.509-1.236s0,0,0,0h0Zm.322-.237s0,0,0,0h0Zm-1.083,4.066c.186.004.56-.429.763-.571.067-.092.204-.125.245-.276.089.01.213-.169.261-.019-.138-.151.153-.097.103-.271.017-.283-.062-.522-.085-.762.066-.398-.74.703-.82.503.13.098-.047.06-.047.163-.513.215-.313.797-.421,1.233Zm.913.981h0s0,0,0,0h0Zm.644-.237h0s0,0,0,0h0Zm.017,6.181s0,0,0,0h0Zm-.102-4.504s0,0,0,0h0Zm-.695,2.557h0s0,0,0,0Zm.22,1.812s0,0,0,0h0Zm.831-.864h0s0,0,0,0Zm.085-8.399h0s0,0,0,0Zm.171-1.53c.032-.16-.114-.139-.141.008-.017.122.033.275.029.389-.008.149.049.305.029.44.033.045,0,.176-.008.237.037.04.032.306.003.352.008.031.017.06.013.103-.084.089.221.523-.046.44.006.009.125.017.089.045-.012.033-.039.127-.05.177-.003.199.124.455.045.668.066.03.022.123.016.179.046.031.004.179-.002.237.025.204.028.367-.014.542.027-.106.113-.024.079.05.018.093-.005.219-.018.322.132.275-.035.643.045.981.024-.167.057-.354.089-.49-.012-.245.061-.533.13-.72-.012-.203.086-.654.165-.872-.056-.692.605-1.585.038-2.22-.134-.236-.292-.737-.491-.87Zm.73,3.576s-.02.02-.02.02l.02-.02h0Zm-.122.664s0,0,0,0h0Zm-.255-.271h0s0,0,0,0Zm-.146,2.771s-.024.023-.023.023l.023-.023h0Zm-.227-2.059h0s0,0,0,0h0Zm-.034-.83s.006-.011.006-.011l-.006.011Zm1.584-8.472c-.314-.223-.23.53-.433.497.14-.016.094.136-.027.099-.032.1-.07.224-.175.137.208.13-.462.469-.425.71-.249-.007-.596.478-.846.34.24.103-.312.173-.421.199-.041.324.338.378.2.478,0,0,.071-.071.071-.071.216.176.401.522.455.782.089-.272.169.291.303.294.073.094.038.288.22.364.03.286.239.29.288.46-.009.096.296.526.278.671.153-.954.344-1.656.471-2.549.051-.324.197-.562.187-.95.054-.368.309-1.124-.147-1.461Zm-.567-1.333s-.02-.02-.02-.02l.02.02Zm.593-1.27s-.04.013-.039.013l.039-.013Zm.002,0h-.002s.002,0,.002,0Zm1.388-1.913h0,0s0,0,0,0Zm.627-3.167h0,0s0,0,0,0Zm.152-9.026s0,0,0,0h0Zm-1.234,2.862s.013-.034.014-.034l-.014.034Zm-.258-1.134s0,0,0,0h0Zm-.068-2.659h0s0,0,0,0Zm-.576,2.456h0s0,0,0,0Zm-1.593.067h0s0,0,0,0h0Zm-.559-3.014s0,0,0,0h0s0,0,0,0Zm-1.288,3.946s0,0,0,0h0Zm-.441-7.281h0,0s0,0,0,0Zm-1.356,1.71h0s0,0,0,0Zm-.034,7.874h0s0,0,0,0Zm-1.016-10.411s0,0,0,0c0,0,0,0,0,0Zm-.12,1.961s0,0,0,0h0Zm-.135,14.749h0s0,0,0,0Zm.962,1.093c.598.898,1.65,1.082,2.426,1.5.602-.031,1.335.169,1.934.051.354-.049.752-.34,1.136-.289-.261-.095.305-.173.351-.282.305-.131.531-.574.818-.582-.236-.07.038-.086.103-.158.021-.422.306-.625.373-1.009-.248-.1.144-.501.085-.781.179-.617.161-1.403.328-2.014-.006-.104-.023-.219-.041-.322.13-.444.368-1.195.289-1.763-.517-.615-.143-1.603-.339-2.322-.132-.588-1.134-.71-.983-1.383-.074.175-.17-.22-.086-.284-.074-.043.042-.06.067-.076-.18.104-.106-.275-.134-.403-.123-.358-.588-.608-.966-.417-.038-.164-.233-.211-.43-.267-.083-.272-.297-.32-.265-.624-.021.198-.127.226-.218.317-.042.108,0,.171-.108.192.046.156-.11.048-.105.146-.06.101-.105.255-.217.175.04.118-.28.428-.388.289.161.107-.077.143-.153.085.171.061.03.121-.081.1-.039.112-.114.104-.106-.015-1.974.397-.363,1.407-1.712,2.403-2.851.503-.823,2.115-2.17,2.542.266.073-.161.12-.218.217-1.162.078-.562,1.495-.276,1.969.041.054.11.429.016.475-.09.058-.085.258-.254.293-.016.053.043.219-.048.194.018.295.41.522.336.793.051-.148.143.088.076.143.088-.228.34.5.471.581.097.138.261.295.342.465.11.016.19.053.062.119l.081-.059Zm6.462-9.509s0,0,0,0h0Zm-6.519,14.9c-.023.304.16.529.088.799.09.813.234,1.659.242,2.517.12-.189.068.208.094.259.025-.093.066.001.094.033-.075-.228.304-.373.31-.617.197-.105.348-.575.538-.568-.195-.027.057-.201.126-.281.083-.094.011-.288.191-.243.079-.065.195-.503.276-.307-.028-.527.872-.691-.203-.916-.279.008-.379-.416-.693-.423-.014-.056-.129-.067-.203-.068.061-.172-.172-.187-.153-.339-.097-.084-.338-.289-.171-.337-.151.112-.166-.175-.247-.27-.224.237-.246.459-.289.76Zm1.537,4.421c.098-.236.054-.404-.019-.593-.108.285-.138-.285-.172-.404-.169.386-.453.635-.677.997-.099.273-.003.56.078.928.091.881.263,1.736.414,2.545-.042.154.275.936.019.76.331.117.1-1.602.275-2.013-.006-.059-.027-.172-.041-.237.125.041.003-.196.078-.203-.086-.673.105-1.16.046-1.78Zm-.868.959s-.016.006-.015.006l.016-.006h0Zm.493-2.635h0s0,0,0,0Zm-.593,6.147s0,0,0,0h0Zm-.241-5.571l-.013.034.014-.034h0Zm-.302,2.185s0,0,0,0h0Zm-.678-6.503s0,0,0,0h0Zm-.101,1.033s0,0,0,0h0Zm-.356.677h0,0s0,0,0,0Zm-.136-1.406h0s0,0,0,0Zm-.475.83l.03.052-.03-.052h0Zm-.019,2.149c-.069.01-.021.416-.153.226.005.04.034.234-.048.214-.1.487-.277.845-.245,1.355-.008.093.092.099.051.206.02.723.641,1.289.768,1.891.774.505.536,2.271-.219,2.748.172-.015-.084.357-.17.271.165.142-.271.554-.176.933-.079.425.197.512.192.847.101.141.057.411.186.574.024.212.136.421.22.544.015.127-.021.364.102.39-.018.332.229.555.154.862.096-.29.353.572.083.525.144.143.154.306.175.527.128.054.336.749.234.71.483.789.935,1.874,1.22,2.726.132-.195.276.409.388.408-.05.167.295.454.103.473.116-.097.127.07.124.117.092.02.21.117.028.12.11-.069.286.284.119.288.121-.072.094.008.103.099-.03-1.754-.278-3.108-.273-4.705-.152.229-.147-.659-.138-.781-.047-.031-.082-.249-.041-.322-.036-.058-.055-.246-.047-.339-.176-1.043-.239-2.088-.394-3.031-.18-1.463-.493-3.259-.649-4.649-.162-.959-.292-1.859-.418-2.785-.091-.82-.177-1.686-.277-2.497-.114.042-.007.409-.171.212.111.045-.05.324-.119.169.117.144-.202.587-.307.642-.108.362-.362.618-.407,1.033Zm2.697,16.224h0s0,0,0,0Zm-.356-.254s0,0,0,0h0Zm-.61-1.66s0,0,0,0h0Zm-.254-.677s0,0,0,0h0Zm-.119-.085s0,0,0,0h0Zm-.597-.582s-.006-.004-.008-.005c.003.002.004.004.008.007,0,0,0-.001,0-.002Zm-.018-.015s.002.002.004.004c-.002-.002-.004-.004-.004-.004Zm-.605-7.565s0,0,0,0h0Zm-1.661-7.552h0,0s0,0,0,0Zm-.407.186h0s0,0,0,0Zm-1.542,1.372h0,0s0,0,0,0Zm-3.305,1.151h0s0,0,0,0Zm-.627,1.304h0s0,0,0,0Zm-.497,3.467l.004.002s-.003-.001-.004-.002Zm-.13-1.824h0s0,0,0,0Zm-.068.152h0s0,0,0,0Zm-.146.689s-.008.008-.008.008l.008-.008Zm-.345,4.815l.037-.019s-.037.018-.037.019Zm-.339,2.817s.027-.009.027-.009l-.027.009Zm.79,15.609c.242.059.528-.115.822-.024.161-.106.439-.05.632-.012.174-.171-.138-.718-.032-1.052-.1-.167-.089-.45-.143-.725.087-.014-.077-.336.014-.477-.078-.104-.074-.352-.044-.508-.04-.455-.267-1.283-.083-1.746-.187-.168-.078-.538-.078-.811-.059.01-.02-.135-.015-.169-.125-.368.014-1.123-.135-1.456.034-.175.057-.352.087-.525-.032.015-.012-.109-.011-.119-.045-.39.043-.789-.051-1.168-.035-.329-.027-.651-.036-.999-.007-.169.04-.404-.144-.505.39.148.009-.626.25-.61-.005-.07-.03-.192-.046-.271h.05c.082-1.07.088-2.155.161-3.167-.07-.101-.026-.493-.034-.643.045-.87.279-1.765.224-2.591.259-.1.037-.784.197-1.022-.076-.248.127-.589.119-.878.112-.534.039-1.32.472-1.587.085-.339.571-.081.625.116-.08.38-.406.66-.208,1.031-.349.319-.075,1.289-.316,1.728.004.315-.032.759-.125,1.015.006.104.023.219.041.322-.075.006-.094.12-.109.206-.033.792-.159,1.644-.205,2.435-.012.106.088.27-.076.256.097-.035.112.012.115.1-.204.474.031,1.328-.117,1.8-.011.504-.059,1.1-.103,1.57.061.785-.038,1.596-.004,2.238-.028.187.104.299.062.466-.023.058-.049.143-.063.211.052.076.026.302.079.437h-.035c-.159,1.199.262,2.409.116,3.49.06-.036.151-.043.086.05-.155.467.16.923.099,1.306.044.112-.029.252.186.203-.032.17.059.411.011.559.18.802.307,1.755.265,2.726.11.321-.104.788.404.71-.289-.198,1.111-.057,1.22-.168.63-.118,1.316-.32,1.82-.592.784-.165,1.459-.706,2.219-1.28.212-.152.38-.355.658-.516.07-.251.424-.54.614-.858.239-.196.287-.39.556-.58-.007-.153.096-.446.253-.392-.196-.059,0-.081.053-.157.096-.066.179-.482.337-.436-.142-.013.142-.713.271-.694-.211-.008.112-.275.053-.456.049.016.144-.539.187-.577-.177-.515.27-.994.074-1.455.392-.614.217-1.826.401-2.592.057-.175-.176-.162-.17-.288-.015-.103-.166-.156-.17-.271-.042-.388-.334-.67-.356-1.063-.116.146-.147-.426-.204-.478-.081-.009-.297-.322-.202-.391-.127.03-.403-.62-.446-.868-.092-.051-.159-.141-.183-.231-.069-.06-.095-.077.015-.119-.237.011-.365-.57-.439-.762-.078-.11-.165-.196-.152-.339-.065-.116-.132-.176-.133-.34-.073.025-.045-.184-.138-.303-.123-.105-.178-.254-.181-.424.061-.108-.32-.313-.075-.338-.204-.11-.44-.73-.39-.982-.061.308-.368-.672-.271-.745-.127.247-.211-.364-.253-.459-.032-.065-.258-.501-.069-.473-.306-.443-.399-1.262-.455-1.843-.139-.413.058-1.588.387-1.646-.181-.058.04-.11-.015-.252.043-.062.137-.084.119-.203.248-.193.339-.594.441-.83-.01-.702-.344-1.242-.763-1.684-.013-.4-.476-.624-.358-1.027-.099.368-.241-.891-.102-.762-.304.047.298-.916-.168-.78.011-.545.213-1.206.541-1.489-.099.002-.132-.112-.015-.1.002-.091-.028-.182.097-.152.07-.143.136-.425.291-.357-.169.057.076-.441.103-.275-.064-.211.225-.302.22-.501-.428.161-.786.506-1.239.437.261.126-.313.202-.459.248-.006.158-.297.151-.441.19-.023.093-.216.071-.282.148-.117.1-.264.167-.425.174-.06.114-.208.12-.309.152-.074.065-.151.167-.29.094.264.119-.344.129-.339.245-.289-.024-.496.269-.778.205.214.057-.124.169-.186.219-.172-.024-.202.21-.369.169-.038.099-.122.111-.209.119.014.088-.011.116-.1.102-.142.09-.385.136-.558.049-1.365,1.603-1.624,3.982-2.034,5.844,0,.007.072.145.075.152-.174.013-.108.38-.164.526-.201.237-.125.4-.203.728.011.505-.231,1.014-.108,1.489-.326.691-.169,1.95-.44,2.746.02.548-.058,1.122-.121,1.606.044.028-.062.058-.076.069.101-.092.121.027.162.1-.32,1.852-.236,4.408-.2,6.509.036.18-.078.438-.035.595h0c.076.782.1,1.719.114,2.5.157.649.201,1.468.364,2.134.201.591-.224,2.019.52,2.066Zm7.084-26.068s0,0,0,0h0Zm.483,5.305h0s0,0,0,0Zm-.169,1.19s.016-.005.016-.005l-.016.005Zm4.152,12.492h0s0,0,0,0Zm-.135,1.05h0s0,0,0,0Zm-.119,2.235s0,0,0,0h0Zm-.085-.677s0,0,0,0h0Zm-.068,1.084s0,0,0,0h0Zm-.119-.643h0s0,0,0,0Zm-.135,1.151s0,0,0,0h0Zm-1.136,1.744h0s0,0,0,0h0Zm-.298-.342s.043.054.043.054l-.043-.054Zm-.058.816s0,0,0,0h0Zm-.356.356h0s0,0,0,0h0Zm-.119-.288h0s0,0,0,0h0Zm-1.78,1.372s0,0,0,0h0Zm-1.136.474h0s0,0,0,0Zm-4.199.546s0,0,.001,0h-.001Zm-.141-12.112l-.034-.034s.034.034.034.034Zm-.034.085s0,0,0,0h0Zm.017-8.365s-.001,0-.001,0h.001Zm.085,6.519h0s0,0,0,0Zm.034-7.306s0,0,0,0h-.002s0,0,.002,0Zm.001,0s0,0,0,0h0s0,0,0,0Zm.439,1.158h0s0,0,0,0Zm-.698.764s.037-.018.037-.019l-.037.019Zm-.031.303h0s0,0,0,0Zm-.203,3.556h0s0,0,0,0Zm-.068.44h0s0,0,0,0Zm-.118,6.807s0,0,0,0h0Zm-.034-2.896h0s0,0,0,0Zm-.068-.914s.034-.034.034-.034l-.034.034Zm.395,14.183c.254-.417-.074-.15-.308-.398l-.119.059c.084-.252-.238-.2-.22-.365-.102-.279-.327-.48-.223-.831-.063-.081-.073-.263-.046-.406-.113-1.481.779-1.095.571.257.148.097.142.41.233.586.16.385.516.291.34-.155l.062-.021c-.011-.024-.054-.144.002-.14-.034-.433.158-.89.032-1.405.149-.035-.083-.438.036-.525.004-.041-.036-.136-.045-.151-.372.049-.778.055-1.117.046-1.011-.195-.518,1.141-.715,1.774.021.56.264.83.34,1.311.248.259.65.587,1.142.68.106-.058.03-.195.037-.317Zm.368-1.551h0s0,0,0,0Zm-.031.261s0,0,0,0c0,0,0,0,0,0Zm0,0s-.001,0-.002,0h.002s0,0,0,0Zm-.07,4.074s0,0,0,0h0Zm3.177,4.255s0,0,0,0c-.001,0-.002-.001,0,0Zm.841,11.493s0,0,0,0h0Zm-1.287,11.609c.033-.004.066-.005.099-.011-.025.005-.083-.013-.099.011Zm-.747-.5s0,0,0,0h0Zm-1.915.406s.019-.075.019-.075l-.019.075Zm2.408,3.215s-.008.032-.008.032c0,0,.008-.032.008-.032Zm.864.02h0,0s0,0,0,0Zm1.203-.034h0,0s0,0,0,0Zm2.115-.388c.119-.358-.423-.321-.251-.51.033.039-.622.012-.407-.118-.024.094-.448.146-.357-.032-1.522.283-3.009.575-4.544.594-.425.066-1.712.097-1.948-.274-.062.258-.466-.415-.744-.362l.024-.072c-.01.189-.561-.24-.351.107,0,.215.141.312.17.492.385.443.843.351,1.407.333.264.029.958.053,1.258.016.248.158.858-.175.863.062.244-.222.906.028,1.256-.085.922.111,2.403-.129,3.253.068-.033-.097.012-.112.1-.114.063.112.243.074.269-.104Zm.064-1.406c.011-.207-.038-.368-.195-.44-.01.018-.048-.086-.053-.087.092.101-.027.121-.1.162.074-.256-.212-.047-.186-.231-.131.04-.134-.096-.139-.166-.421-.189-.472-.397-.663-.819-.169-.021-.532-.109-.369-.249-.096.148-.097-.053-.211-.019-.255-.414-.563-.282-.755-.439.084.184-.274.08-.383.239.47-.137,1.668,1.211.536,1.098-.155.034-.066-.085-.127-.176-.177-.03-.087-.237-.329-.255-.293-.062-.776-.299-.895.055l.061-.009c-.032.136.075.095.17.1-.03.119.073.079.153.085-.062.217.348.077.322.269.283.171.347.144.378.574-.084.146-.318.128-.55.118-.001-.292-.284-.227-.316-.372-.146-.16-1.174-.069-.866-.219-.237-.127-.475-.107-.425.343-.25-.356-.578.037-.846.045-.586.049-1.141.232-1.731.26-.26.084-.584,0-.86.209.545.017.839.514,1.371.584.145-.023.554.287.646.043,1.82-.083,3.534-.464,5.353-.561.082-.009.334-.099.363.01.028-.028.282-.028.231.085.148-.044.104.078.188.085.3.194.13-.097.23-.322Zm-3.553-.967s0,0,0,0c0,0,0,0,0,0Zm1.254-.542h0s0,0,0,0h0Zm-.051-9.043s0,0,0,0h0Zm.17,2.659s0,0,0,0h0Zm.39,5.944h0s0,0,0,0h0Zm.254-.305h0s0,0,0,0h0Zm.085.085s0,0,0,0h0Zm.797,1.389s.034-.034.034-.034l-.034.034h0Zm.153-.491h0s0,0,0,0Zm.649-.368c-.278-.234-.255.149-.73.155.027.065.241.132.102.197.094-.107.125.145.216.203.162-.021.211.048.291.128.083-.082-.061-.644.122-.683Zm.641-4.712h-.001s.001,0,.001,0Zm.202-5.622c-.187.018-.035-.195-.041-.314-.608.039-1.202.241-1.859.138-1.577-.261-1.584.664-1.3,1.952-.137.822.286,2.071.082,2.863.296-.072.026.864.065.998.1.149-.037.383.002.577-.048.127.121.4-.066.406.231-.006.032.532.07.747.04.312.111.653.072.999.099.314.057.729.044,1.031-.023-.166.631.262.541.357.054.002.209.087.12.168.048-.178.186.032.307.004.193-.007.398-.224.608-.157,0,0,0,0,0,0,.298-.283.277-.806.29-1.389-.032-.141.075-.091.17-.1-.008-.196.055-.382.034-.593.148-.657.159-1.395.204-2.118.321-1.724.218-4.013.659-5.571h0Zm.271.322h0s0,0,0,0Zm.431-3.179c-.089.008-.112-.02-.092-.106.081.19-.345.047-.409.073-.212.027-.499.067-.78.031-.771.096-1.642.033-2.319.012-.297.086-.753-.007-.908.238.34,2.674.096,1.658,2.245,1.864-.056-.214.385-.045.544-.071.311-.077.749-.165,1.115-.099.12-.055.267-.012.383.026.061-.669.048-1.438.219-1.967Zm-4.5.063h0s0,0,0,0Zm3.441-.491h0,0s0,0,0,0Zm1.085.948h0,0s0,0,0,0Zm.119-5.774h0,0s0,0,0,0Zm.424-4.107c-.247-.009-.483.11-.699.05,0,.076-.091.017-.133.016-.286.026-1.006.002-1.302.008-.461.003-.861-.097-1.341-.101-.198.001-.422.024-.625.045-.232-.137-.75-.068-1.095-.086.008.254.197.599.095.872.217.79.107,1.73.297,2.492-.032.576.2,1.484-.027,1.929.247.086.042,1.023.163,1.339.105.699.141,1.473.155,2.289.052-.018.067-.085.159-.048.058,0,.254-.03.285.014.059-.006.172-.027.237-.041.37.221,1.593-.192,1.849.122.153-.141.616-.085.916-.145-.043-1.289.329-2.402.357-3.646.043-.433.217-.437.187-.831-.025-.301.184-.612.04-.913.196-.227.213-.985.136-1.355.287-.461.138-1.262.349-2.009Zm-3.475-.126s0,0,0,0h0Zm.068-.372h0s0,0,0,0Zm.983.474s0,0,0,0h0Zm.153,0s0,0,0,0h0Zm2.925-.51s0,0,0,0h0Zm1.634,9.248h0s0,0,0,0Zm.356,9.94h0s0,0,0,0Zm.085,3.844h0,0s0,0,0,0Zm1.01,4.266h0s0,0,0,0Zm2.25-.006s0,0,0,0c0,0-.001.003,0,0Zm4.47-.061s0,0,0,0h0Zm.627-.796h0s0,0,0,0Zm.305-.322s0,0,0,0h0Zm-.068-.408c-.144-.056-.109.274-.222.118.106.181-.388.51-.558.391.265.096-.713.366-.678.169,0,.222-.663.148-.932.168-.179-.239-.58-.133-.966-.186-.062-.018-.785.039-.778-.024-.112.006-.24.022-.356.04-.018-.144-.387-.018-.475-.108-.13.006-.273.021-.407.039-.482-.33-1.344-.142-1.78-.406-.043-.009-.213.098-.201.004-.059.041-.392,0-.409-.083-.173-.06-.471.121-.544-.051-.302.861.125.959,1.068.831.169.11.607-.113.559.1.002,0,.014-.104.019-.098.308.003.586-.059.881.04.424-.063.994-.035,1.424-.037.551-.023,1.173-.016,1.797.008.531-.032,2.015-.041,2.308-.196-.114-.09,0-.061.042-.117.034-.092.037-.234.123-.074-.08-.06.098-.369.187-.288-.291-.034.274-.209-.002-.266.024.049-.083.02-.1.027Zm-7.761-.35s0,0,0,0c0,0,0,0,0,0Zm2.896.843s0,0,0,0h0Zm1.509.068s0,0,0,0h0Zm2-.339h0s0,0,0,0Zm.066-1.578s.019.037.019.037l-.019-.037h0Zm-.524-.132s0,0,0,0h0Zm-3.098-1.299c-.553-.095-.845.654-1.275.622.241.198-.831.316-1.051.169.129.055-.019.09-.082.09,0,.134-.269.185-.341.164.108.034.098.089-.01.109-.384.231-.311.73-.355,1.208,1.33.169,2.561.525,3.926.556.015.013.118-.048.132-.053.227.189.763.058,1.122.139.216-.048.475.009.712-.056.061-.017.173,0,.237.014.632.122,1.227-.604,1.71-.681-.064-.043-.094-.124.019-.095.055-.015.186,0,.251-.005-.599-.204-1.389-.218-2.049-.325-.259-.101-.477-.236-.677-.474-.583-.196-1.3-.126-1.983-.074-.36-.703.582-.603,1.095-.644-.524-.171-1.001-.035-1.586.073-.019-.055-.212-.758-.002-.437-.163-.204.857-.224.207-.3Zm-2.871.509c.177-.266-.225-.123-.117.117.045-.048.089-.089.117-.117Zm1.715-.446h0s0,0,0,0Zm1.299-3.51s0,0,0,0c0,0,0,0,0,0Zm.023-5.329h0,0s0,0,0,0Zm.137-2.186c-1.106.052-2.094.35-3.273.339-.798.018-.183,1.126-.313,1.727-.022.518.161,1.311.159,2.034-.059.28.292.675.018.864.101-.052.112.015.128.1-.141.04.095.394.023.562.115,1.494.216,3.418.137,4.926.161-.287.039.223.145.202.218.065.251.199.414.307.084.008.209.008.185.118.055.018.259-.045.237.043.088-.143.31-.043.467-.156.26-.185.479-.373.751-.526-.088-.993.225-1.816.132-2.748.096-.103.122-.508.016-.694.295-.264.09-1.082.198-1.509.007-.249.228-.7.04-.981h.042l-.042-.085c.327-.373.104-2.026.391-2.557-.006-.112-.022-.24-.04-.356.133-.051.036-.378.089-.528-.014,0-.005-.111,0-.119-.011-.327.121-.603.097-.965Zm.371,1.61h0s0,0,0,0Zm.149-4.59c-.193-.11-.51.136-.625.047-.193.17-1.089.241-1.439.342-.774.255-2.036.158-2.72.63.09.202.067.61.048.88.049.082.035.307.055.406-.055,1.063,1.594.092,2.144.267.742-.104,1.507-.272,2.288-.298.135-.47.191-1.09.16-1.645.144-.063.023-.463.089-.629Zm-4.437-.761s0,0,0,0h0Zm4.464,1.292h0s0,0,0,0Zm.217-8.504c-.067-.825.282-1.619-.732-1.373.113.171-.151.077-.171.168-.187-.025-.221.153-.424.091-.724.006-1.196.411-1.949.307-.514.17-1.418.005-1.879.385.031.097.024.298.07.437.02,1.2.353,2.457.273,3.83.067.441.117,1.034.145,1.456.102.834.058,1.869.225,2.784.997-.256,1.908-.265,2.813-.51.334-.042.568-.196.966-.174.076-.234.002-.594.068-.916.095-.586.079-1.358.203-1.912.147-.357-.085-1.147.129-1.406-.043-.549.098-1.032.015-1.575.093-.353.162-.851.122-1.236.153.021.024-.309.125-.356Zm-4.495-1.305h0s0,0,0,0Zm3.814-.61s.002-.002.002-.002c0,0-.002.002-.002.002Zm.746,5.47s0,0,0,0c0,0,0,0,0,0Zm.305-4.674h0s0,0,0,0Zm.288-.694h0,0s0,0,0,0Zm1.441-.423h0s0,0,0,0Zm.407-.593h0s0,0,0,0Zm.541-.595c-.57.06-.566-.407-.519-.846-.174-.313-.105-1.004-.167-1.405-.071-.667-.276-1.389-.293-2.083-.039-.345-.161-.777-.116-1.151.039-.242-.49.046-.36-.219-.887.12-1.992-.324-2.838-.614-.261-.221-.727-.148-.755-.353-.21.009-.576-.194-.542-.371-.057.231-.119-.06-.196-.126-.219-.036-.249-.187-.476-.324-.143-.118-.393-.414-.581-.504.012-.228-.309-.407-.389-.573-.217-.324-.276-.736-.56-.985.006-.201-.118-.346-.217-.487-.162-.78-.484-1.327-.596-2.004-.235-.823-.383-1.87-.6-2.907-.072.854-.191,1.69-.437,2.305-.165.429-.18,1.184-.515,1.408-.049.27-.247.376-.248.606-.119-.027-.095.128-.119.203-.041.065-.168.133-.172.239-.073.186-.211.207-.286.362.024.086-.077.136-.129.17.012.082-.03.259-.123.111.156.129-.034.061-.09.147-.133.235-.342.458-.488.63.005.138-.096.207-.233.208-.155.051-.197.417-.274.183.057.172-.383.511-.509.474.215.042-.129.233-.169.119.153.201-.572.308-.578.578-.331-.021-.524.465-.78.335.14.115-.33.303-.456.239.193.064-.026.141-.119.134-.065.069-.104.148-.222.113-.132.013-.267.142-.422.057.262.123-.168.102-.25.1-.048.111-.38.214-.411.052-.471.46-1.817.341-2.714.523-.266.426-.091,1.111-.244,1.609-.005.104.075.233-.077.222.098-.038.112.013.118.1-.149.179-.085.685-.12.984-.014.164-.151.352-.006.557-.249.009-.008.543-.163.667.051-.024.03.088.02.096.036.051-.061.055-.087.069.103-.065.114.018.139.1-.151.045-.076.431-.107.61-.076.109-.112.403-.006.576-.267.036-.067.665-.197.847-.286,1.064.902.987,1.731,1.104,1.143.28,2.703.367,4.003.508.229-.012.965-.027,1.099.117-.025-.093.012-.113.1-.108v.027c.059-.006.172-.027.237-.041-.041.126.199.002.203.079.103.005.233-.076.222.077.056-.12,1.443-.116,1.744-.148.132-.021.275-.059.427-.037v-.139c.844.147,1.655-.191,2.355-.164-.025-.071.109-.027.134-.003,1.628-.176,3.028-.337,4.546-.875.958-.314,2.175-.433,2.879-1.176Zm-4.999-6.771h0s0,0,0,0h0Zm.203-.525h0s0,0,0,0Zm.085.711s0,0,0,0h0Zm1.661.576s0,0,0,0h0Zm3.405,3.278h0s0,0,0,0Zm.03.358s0,0,0,0c0,0,0,0,0,0Zm.972-1.045s0,0,0,0c0,0,0,0,0,0Zm.593-.406l-.023-.023s.023.023.023.023Zm.492.254h0s0,0,0,0Zm.068-1.412c-.012-.106-.038-.218-.05-.315.009-.079.04-.157.046-.239-.255-.701.49-2.776-.988-2.241-.057.133.034.493-.161.431.18.005-.083.353-.029.574-.087.118-.157.212-.234.411-.141.42-.541.929-1.057.813-.033.007-.073.011-.118.008.103.22.082.466.104.701.246-.27.367.284.654.131.458-.267.465-.344.615-.876.162-.16.387-.764.113-.965.36-.008.111-.812.333-1.118.132.189.406-.044.385.26.182.286-.008.69-.022.99-.158.493-.086,1.293-.421,1.475.219-.032-.298.666-.428.568.162.09-.255.274-.387.249-.157.049-.486-.049-.641.073.016-.096-.012-.143-.106-.173-.035.171.185.348.002.384.199-.114.07.225.155.285.426.034.877.068,1.201-.031-.188-.106.405-.244.527-.392.179-.279.536-.509.507-1.004Zm-1.272.6h0s0,0,0,0Zm.305-1.422s0,0,0,0h0Zm.469-.625s-.011-.002-.011-.002l.011.002Zm-1.011.032h0s0,0,0,0Zm.104-1.628s0,0,0,0c0,0,0,0,0,0Zm.014,1.272s0,0,0,0h0Zm.353-3.267s.037-.018.037-.019l-.037.019h0Zm1.834,1.319h0,0s0,0,0,0Zm.441-4.42l-.009.018c.004-.008.004-.008.009-.018Zm.036-3.589c-.061-.041-.311-.061-.224-.187-.207-.369.02-1.124-.177-1.539.234-.107-.026-.719.091-1.036-.041-.159-.073-.599-.063-.727-.082-.082.056-.391.028-.56-.193-2.311-.143-4.844-.395-7.227.12.043-.089-.855-.107-1.002.012-.695-.09-1.298-.197-1.897-.077-.774-.292-1.56-.353-2.404-.182.266-.142-.686-.263-.728-.187-.882-.282-1.877-.559-2.716-.24.324-.685.008-1-.093-.373-.003-.533-.274-.917-.308-.125-.099-.343-.106-.458-.202-.071.008-.12.002-.1-.085-.037-.012-.172.032-.153-.034-.237-.052-.683-.048-.731-.269.001.227-.196-.054-.337-.048-.144-.068-.397-.127-.525-.208-.499-.108-1.016-.202-1.428-.429,0,0,.036-.094.036-.094-.056.196-.302-.064-.459-.035.074.302.326.743.307,1.136.094-.305.531.963.261.93.083.053.116.203.068.31.069-.193.146.118.207.161.139.241.241.494.259.763.267-.266.202,1.645-.034,1.431.069.11-.1.169-.119.25-.067.15-.129.601-.337.542.23-.041-.279.536-.29.394.033.086-.018.207-.1.08.092.064.051.1-.027.141.016.277-.225.371-.229.569-.543.032-.073.682-.219.696.118-.069.104.066.154.101.027-.05.03-.144.134-.101.212-.276,2.016.022,2.663-.085.315-.034.844-.094,1.186-.052.14-.059.69-.054.761.003.68-.148.984.536.912,1.151.049.243.115.509.062.813.003.205.166.871-.041.947.001.003.11-.014.1,0,.019,1.224-.2,2.423-.661,3.336.043.177-.12.025-.104.169-.048.091-.162.287-.233.153.116.067-.137.341-.188.354-.267.134-.63.611-.965.56.207.18-.852.203-1.117.311.042-.128-.468-.029-.526-.059.027-.181-.352-.093-.441-.164-.462-.021-1.426-.632-1.425-1.121-.08.221-.165-.116-.168-.203-.151-.059-.193.613-.358.542.162.016.083.099-.001.114.073.189-.08.338-.136.427-.079.354-.19.552-.424.839-.091.278-.226.561-.361.871-.046.087-.069.335-.181.204.076.053-.006.261-.085.272-.025.121-.021.27-.152.322-.085.3-.4,1.112-.575,1.101.084.064-.061.439-.186.372.177-.042-.092.51-.191.511-.162.221-.25.737-.47.793.235.041-.08.177-.103.288-.018.081-.29.626-.356.642-.31.268-.095.823-.304,1.035.227-.009.042.474.071.662.05.411.135.914.334,1.15.021.361.064.725.169,1.001.075.66.138,1.456.458,1.964.088.35.098.695.373.969.115.852.518,1.49.934,2.316.145.083.425.347.507.54.069.057.24-.003.203.15.228.113.37.426.631.429.093-.001.009.074-.02.098.146-.095.391.2.592.154-.039.125.176.068.019.185.047-.05.077-.091.126-.015.687.283,1.348.587,2.059.658.303.057.786.084,1.017.213.072-.022.161.009.241.015.043-.199.272-.269.536-.171l-.063.078c.523.134.87.002.903-.702.102-.244.29-.346.251-.702.083-.081.019-.261.251-.203-.012-.423.151-.72.156-1.119.026-.38.293-.735.141-1.116.327-.512.167-1.525.334-2.252-.1-.326.091-.545.101-.831.067-.418-.002-1.34.139-1.671-.175-.843.211-1.643.036-2.442.166-.195.029-.758.101-1.084-.104-.243-.033-.698.002-.965.012-.106-.088-.269.076-.256-.193.085-.032-.564-.051-.693-.104-.197-.04-.428-.016-.61-.062-.616.108-1.221-.045-1.812.137.009.05-.222.089-.325-.094-.607-.023-1.44-.122-2.151.005-.144-.067-.256-.024-.406-.066-2.471-.564-4.403-.862-6.587-.115-.438-.094-1.056-.321-1.355l.055-.137c-.014-.331.3-.184.549-.267.24,1.194.493,2.208.69,3.219.062.553.236,1.048.265,1.609.024-.009.008.111.006.118-.008.065.039.245.005.277.13.601.237,1.368.249,2.06.117.817.212,1.723.161,2.659.071.008.014.172.011.237.067.147-.008.554-.016.722.073.391.047.987.008,1.411.153.328-.206.965.169,1.233-.328-.088-.185.462-.134.653-.089.112-.033.361-.079.499.007.791-.139,1.535-.148,2.305-.023.693.022,1.506-.119,2.098.014.048.026.144.045.203-.028.386-.041.947-.112,1.338.032,1.081-.202,2.058-.323,3.101-.115.608-.09,1.362-.318,1.864.721-.141,1.622.198,1.491-.814.056-.623.243-1.176.16-1.878.215-.118.111-.583.103-.898.174-.077-.09-.621.142-.628-.095.028-.112-.012-.11-.1.258-1.125.196-2.651.248-4.014Zm-1.813,1.095h0s0,0,0,0Zm.032,4.797h0s0,0,0,0Zm.085-6.096s-.001,0-.001,0h.001Zm.204-11.82s0,0,0,0h0Zm.238,10.888h0s0,0,0,0Zm.199-2.723s-.031.03-.031.031l.031-.031Zm-.02.526s0,0,0,0h0Zm-6.236-8.473h-.035c-.157.962-.417,1.776-.546,2.696.048.083.069.213.092.322.18-.045.061.125.203.157.011.144.124.296.203.419.092.059.026.25.214.308.796.557,1.685.451,2.601.3-.147-.063-.06-.096.041-.111.094-.092.221-.225.331-.277.871-.788,1.156-1.928,1.105-3.014.088-.883.052-2.012-.234-2.909-.071-.03.14-.16-.026-.019-.184-.121-.471.036-.636-.021-.615.167-1.857-.023-2.482.145-2.267-.338-.742.191-1.032,1.143.195-.016.173.613.15.753.055-.036.037.088.049.109Zm1.462-2.623h0s0,0,0,0Zm2.424,5.724s0,0,0,0h0Zm-.898.982h0s0,0,0,0h0Zm-2.916-.102s0,0,0,0h0Zm4.221-3.082s0,0,0,0h0Zm-4.207-6.198s-.013-.034-.014-.034l.014.034Zm-13.423,28.891c.124-.031.085.606.037.64.056.16-.011.407-.01.576-.02.376-.061.865-.145,1.163-.258.829-.108,2.338-.558,3.039.305.148-.746.369-.541-.102.198-.961.226-1.874.425-2.708.045-.707.175-1.613.168-2.405.016-.616.625-1.336.624-.203Zm-.659,2.234h0,0s0,0,0,0Zm.475.119h0s0,0,0,0Zm11.596-47.147c-.028.105-.038.251-.034.369l.068-.017c.063.056.031.234.168.209.017.139.089.125.237.118.109-.07.256-.133.371-.152-.054-.118.205-.184,0-.216.266.073.212-1.301.019-1.087.196-.205-.388-.148-.525-.168-.209.003-.086.481-.349.406.019.183.045.361.045.536Zm-2.382,49.94c-.081.152.203.519-.026.527.097-.035.112.012.115.1-.392.114-.774.18-.69-.406-.02-.492-.093-1.291-.047-1.782-.047-.06-.003-.222-.083-.298.136.097.028-.682.064-.696-.063-.705-.024-1.538-.079-2.183-.016.007-.065-.148-.086-.169.235-.613-.088-1.843.075-2.608.472-.068.657.058.543.522.051.582.118,1.232.074,1.849.041.68.064,1.292.071,1.93.157.618-.08,1.544.172,2.13-.199.129.059.911-.102,1.084Zm-.67-4.723h0,0s0,0,0,0Zm0-1.812h0,0s0,0,0,0Zm.07,4.989h-.002s.002,0,.002,0Zm.32-4.667h0s0,0,0,0Zm.11,1.156s-.042.012-.042.012l.042-.012Zm.06,5.228h0s0,0,0,0Zm.079-.818s0,0,0,0c0,0,0,0,0,0Zm3.337,15.496c.053.495.042,1.189-.127,1.595.101-.092.121.027.162.1h-.081c.006.062.027.17.041.237-.123-.01-.046.301.006.373-.246.294-.055,1.256-.197,1.627-.035,1.293-.131,2.695-.263,3.998.099.231-.01.647-.063.858l-.096-.03c.206.123.024.637.015.896-.296-.002-.568.085-.522-.337.163-1.224.096-2.48.263-3.71-.075-1.185.278-2.522.132-3.671.2-.202.083-1.041.165-1.422-.094-.316.287-.826.471-.476-.035-.105.065-.156.093-.037Zm-.51.584s-.002-.001-.003-.001c0,0,.002.001.003.001Zm.045-.089l-.055.018s.055-.018.055-.018Zm.304-16.586l.034-.051c0,.185.005.456-.025.636.029.456.188,1.183-.497,1.099-.025-.193-.161-.438-.097-.661-.055-.144-.021-.416-.069-.606.041-1.433-.199-2.852-.241-4.254-.088-.175-.071-.494-.102-.728-.045-.129-.217-.818.032-.777-.313-.086.211-.125.337-.156.175.371.25.849.254,1.234.074.319.106.788.155,1.141.035.011.008.136,0,.169-.004.474.144.91.13,1.355.102.375.016,1.192.087,1.599Zm-.575-1.397h0s0,0,0,0Zm.034-3.658s0,0,0,0h0Zm.102.813s0,0,0,0h0Zm.027.197s0,0,0,0c0,0,0,0,0,0Zm5.948-28.649s0,0,0,0h0Zm-14.656,27.808c-.21-.645-.752.172-.589.577-.068.316-.098.863-.086,1.236-.137.576-.036,1.484-.276,1.964.014.067.035.174.041.237.101.46-.986,3.418.013,3.18.393-.331.14-1.345.467-1.677-.146-.353.09-.737.091-1.101.065-.352.05-.731.136-1.031.129-.496-.036-1.396.231-1.746-.191-.53.076-1.171-.028-1.641Zm1.491,21.155c-.138.621-.126,1.268-.198,1.89.002.026.043.142.052.169-.242.241-.096.991-.223,1.355-.067.752-.049,1.691-.243,2.269.168.334-.159.972.015,1.321-.261.037-.074.691-.177.897.002.018.011.032.009.053-.064.072.055.514-.13.389.193.05-.053.443.015.659-.275-.022-.642.123-.59-.303.126-.59.145-1.214.242-1.742-.006-.094-.024-.198-.044-.288.167.021-.075-.436.156-.356.114-.197.061-.611.109-.884.187-1.518.236-3.021.49-4.664l.097.026c-.185-.077-.074-.878.15-.874.088.038.238-.038.271.084Zm-.958,5.537h0s0,0,0,0h0Zm.096,2.417h0s0,0,0,0Zm.138-1.069s-.037.018-.037.019l.037-.019Zm.217-5.57h0,0s0,0,0,0Zm0-.119l-.037.019s.037-.018.037-.019Zm.203-1.135h0,0s0,0,0,0Zm1.812-17.577c-.013-.78-.059-1.883.039-2.593-.109-.952.095-1.917-.107-2.875-.088.005-.136.019-.1.117l-.015-.099h0c-.746-.065-.382,1.228-.413,1.723-.011.343-.058.707-.056,1.036-.092.382.157,1.404-.101,1.609.088.129.088.582.04.694.128.31-.067.577.052.877.023.833-.255,1.62-.153,2.438-.181.535.145,1.07.575.568.153-.81.082-1.797.204-2.583-.043-.354.121-.598.036-.913Z"/></svg>