<svg width="750" height="465" viewBox="0 0 750 465" fill="none" xmlns="http://www.w3.org/2000/svg">
<path d="M3.91786 460.339C6.17251 458.991 8.42872 457.62 10.6934 456.295C12.391 455.317 14.1093 454.374 15.8169 453.419C15.6118 453.011 15.3952 452.603 15.1886 452.218L0.953 458.546C6.96017 453.868 13.8415 450.439 21.1924 448.46C20.2116 449.463 19.2423 450.466 18.2623 451.457L18.6886 452.204L24.6025 449.112L24.2302 448.427L20.9704 448.666C21.5385 442.628 26.8547 441.77 30.9364 439.59C31.6803 439.198 32.7989 439.457 33.5105 439.028C46.3407 431.334 60.0832 425.461 73.5179 418.976C76.0896 417.742 78.918 417.011 81.4357 415.714C87.8169 412.386 94.0539 408.783 100.434 405.466C108.099 401.469 115.864 397.71 123.538 393.748C130.196 390.318 136.813 386.812 143.388 383.231C162.44 372.882 181.6 362.644 200.445 351.911C217.642 342.114 234.527 331.762 251.463 321.519C260.846 315.864 270.136 310.044 279.332 304.06C290.418 296.819 301.441 289.482 312.308 281.868C335.128 265.969 357.49 249.46 378.656 231.389C393.994 218.294 409.647 205.52 424.586 191.981C437.69 180.085 450.024 167.396 462.648 155.051C464.555 153.181 466.199 151.063 468.114 148.893C464.821 144.318 461.577 140.061 458.551 135.643C447.062 118.732 440.009 100.233 439.21 79.6492C438.062 50.9277 454.276 18.0305 482.537 5.75589C490.241 2.18684 498.7 0.558247 507.177 1.01219C522.752 2.02938 533.45 10.8432 537.016 26.147C538.875 34.4296 539.394 42.957 538.552 51.4043C536.566 73.3014 527.757 92.5155 515.792 110.55C507.53 122.861 498.34 134.524 488.303 145.435C487.403 146.431 486.548 147.465 485.672 148.463C512.355 177.194 564.604 202.1 620.35 195.284C672.173 188.941 711.805 162.397 741.704 120.423C752.143 128.409 752.142 128.42 744.512 138.1C716.241 173.943 680.066 197.758 635.079 205.891C576.889 216.42 525.327 201.042 480.97 161.905C479.82 160.891 478.696 159.832 477.558 158.807C477.303 158.642 477.038 158.493 476.764 158.361C475.767 159.114 474.813 159.922 473.907 160.783C435.674 200.421 394.202 236.797 349.923 269.532C316.858 294.152 282.613 316.98 247.522 338.57C213.422 359.529 178.414 378.956 142.964 397.532C123.05 407.963 102.806 417.759 82.6235 427.686C66.5825 435.581 50.4737 443.328 34.2974 450.928C24.6155 455.477 14.7924 459.705 4.97926 463.956C3.36111 464.475 1.69167 464.816 6.65441e-05 464.976C1.39334 464.49 2.74006 463.88 4.02386 463.152C5.20023 462.348 6.11153 461.167 3.91786 460.339ZM476.999 139.329C478.207 138.278 479.355 137.161 480.439 135.983C485.322 130.041 490.085 124 494.968 118.058C505.666 105.054 514.457 91.0787 520.433 75.146C525.567 61.4769 527.746 47.8003 526.141 33.3432C524.592 19.4579 516.389 12.3606 502.409 13.1749C494.664 13.5393 487.178 16.0797 480.809 20.5053C458.955 35.7952 449.923 57.3597 451.792 83.3806C453.252 103.787 462.287 121.384 474.792 137.295C475.474 138.029 476.212 138.709 476.999 139.329ZM8.80419 458.966L9.21617 459.932L13.387 458.338L12.8625 457.144L8.80419 458.966Z" fill="#C6D1EF"/>
</svg>
